<?xml version="1.0" encoding="utf-8"?>
<!-- Generator: Adobe Illustrator 24.0.1, SVG Export Plug-In . SVG Version: 6.00 Build 0)  -->
<svg version="1.1" id="Layer_1" xmlns="http://www.w3.org/2000/svg" xmlns:xlink="http://www.w3.org/1999/xlink" x="0px" y="0px"
	 viewBox="0 0 9153.6 329.8" style="enable-background:new 0 0 9153.6 329.8;" xml:space="preserve">
<style type="text/css">
	.st0{fill:#F91A00;}
</style>
<title>alex_overview_c2</title>
<path class="st0" d="M2486.5,255.3c-23.8,8.2-53.7,13.4-93.1,8.2v-249c32.9-4.3,72.7-4.3,101.8,8.7
	C2505.5,86,2499,198.6,2486.5,255.3z M2439.3,68.7v142.5c4.8,0,9.1-0.4,13.9-0.4c7.4-45.5,6.5-97.4,0.4-139.9
	C2448.9,69.3,2444.1,68.6,2439.3,68.7L2439.3,68.7z"/>
<path class="st0" d="M2580.8,172.6H2570l-0.9-15.2c-4.3-1.7-8.2-1.7-11.3,0.4v105.7c-15,1.7-30.1,1.7-45,0v-213
	c10.4-4.8,17.3-5.6,27.3-3.5l1.7,79.7l3.5-0.4c2.6-28.6,6.5-65.8,10-77.1c10.8-3.5,22.9-3.9,26.4-2.2
	C2586,87.3,2584.3,136.2,2580.8,172.6z"/>
<path class="st0" d="M2629.3,185.6c0.9,6.9,1.3,12.1,2.6,19.5c9.7,1,19.4,0.7,29-0.9l3.9-15.6h9.5c-0.4,21.2-2.6,51.1-6.9,74.9
	c-14.7,4.3-33.8,4.3-70.1,0c-6.9-30.7-9.1-52-9.1-86.6c0-37.2,7.8-94,24.2-125.1c22.1-7.4,43.3-7.8,59.8-3.9
	c10,29.4,9.5,85.7,3.5,114.3C2666.1,169.6,2651.4,177,2629.3,185.6z M2630.6,104.6c-1.3,15.6-1.7,29-2.2,46.3
	c4.8-0.4,8.7-0.4,13-1.3c1.4-15.5,1.7-31.2,0.9-46.8C2638.4,102.9,2634.4,103.5,2630.6,104.6L2630.6,104.6z"/>
<path class="st0" d="M2784.4,263.5c-11.8,1.7-23.7,1.7-35.5,0l-3.9-45l-2.2,0.9c-4,15-8.8,29.7-14.3,44.2c-19.5,3-25.5,3-37.2,0
	c-3.5-18.6-4.3-35.1-4.3-52.4c0-19.9,0.9-42,6.1-64.5c13.9-10.6,29.6-18.6,46.3-23.8v-19.9c-10.6-1.3-21.4-1.3-32,0l-3,13.4h-9.5
	c0.9-21.6,3.9-48.1,9.1-68c27.3-4.3,48.9-4.3,74.9,0c3.9,19.9,5.2,51.1,5.6,85.3V263.5z M2739.3,203.8v-50.2
	c-4.6-0.1-9.3,0.1-13.9,0.9c-1.2,16.4-0.9,33,0.9,49.4C2730.2,207.3,2734.1,206.4,2739.3,203.8z"/>
<path class="st0" d="M2969.2,112.4v151.1c-15,1.7-30.1,1.7-45,0V112c-5.6-5.6-13.4-3.9-16.9,3v148.5c-15,1.7-30.1,1.7-45,0V112
	c-5.6-5.2-13.9-3.5-16.9,2.2v149.4c-15,1.7-30.1,1.7-45,0V51.4c13.9-6.5,27.3-6.5,41.1-4.3l-0.4,40.7l3.5-1.3
	c3.6-13.4,7.9-26.5,13-39.4c14.6-3,29.6-3,44.2,0c2.2,14.3,2.2,23.4,1.3,38.1l4.3-1.3c3.1-12.6,7.2-24.9,12.1-36.8
	c14.6-3,29.6-3,44.2,0C2967.9,68.7,2969.2,90.8,2969.2,112.4z"/>
<path class="st0" d="M3153.9,267.2c-20,0-27.7-8.4-29.5-28c-0.5-7.1-0.6-14.3-0.4-21.5h-1.1c-10.9,37.5-18.2,49.5-49.1,49.5
	c-24.8,0-43.3-15.7-43.3-53.5c0-75,26.9-138,97.6-138c18.2,0,45.1,2.9,61.2,9.8c-4.4,68.1-8.7,101.9-6.6,127
	c5.8-0.4,10.6-1.1,13.5-2.2C3198.3,239.5,3189.2,267.2,3153.9,267.2z M3125.9,121.2c-6.1-3.8-13.6-4.6-20.4-2.2
	c-7.6,19.7-13.5,62.2-10.6,91c7.3-0.3,14.5-2.2,21.1-5.5C3120.4,178.7,3123.3,163.1,3125.9,121.2z"/>
<path class="st0" d="M3368.7,129.2c0,75-26.9,138-97.6,138c-18.6,0-45.5-2.9-61.9-9.8h-1.1l14.9-230.4c-14.9,0.4-17.1-5.1-15.7-14.2
	c19.3,0,31.7-5.5,49.5-5.5c25.8,0,29.8,8.7,29.8,19.7c0,13.8-6.9,58.2-12.4,98.3h0.7c14.6-37.5,21.8-49.5,49.1-49.5
	C3349.7,75.7,3368.7,91.4,3368.7,129.2z M3272.9,222c6.3,3.8,14,4.3,20.7,1.5c8-20,13.5-62.2,10.2-91c-6.6,0.7-14.6,2.2-21.8,5.8
	c-3.3,18.2-5.5,31.3-7.6,52.1L3272.9,222z"/>
<path class="st0" d="M3533.5,167.8c-2.9,61.9-32.8,99.4-85.9,99.4c-62.2-0.7-73.5-37.9-71-92.1c4.4-72.1,41.5-99.4,84.8-99.4
	C3525.2,75.7,3536.1,113.6,3533.5,167.8z M3463.7,220.6c3.3-16,4.7-34.9,6.6-67.3c0.7-14.9,0-26.9-9.5-30.6
	c-3.6-1.5-8.4-1.5-13.8-0.4c-4,16-5.1,34.9-6.9,67.3c-0.7,14.9,0.4,26.6,10.2,30.2C3453.5,221.3,3458.2,221.7,3463.7,220.6
	L3463.7,220.6z"/>
<path class="st0" d="M3677,268.3c-26.6,0-38.2-12.7-38.2-32.4c0-6,0.5-11.9,1.5-17.8c0,0.4-0.4,0.4-0.4,0.7
	c-16.4,43-32,49.5-52.1,49.5c-27.7,0-41.1-15.7-40.8-42.2c0.7-32.4,8-93.9,8.7-105.6l1.8-25.1c-18.2,0-15.7-6.2-15.7-14.2
	c17.8,0,36.4-5.5,54.2-5.5c25.8,0,27.3,8.7,27.3,19.7c0,6.9-0.7,14.6-1.5,26.9c-1.1,26.2-6.9,59.7-7.6,89.2
	c6.3-0.9,12.4-2.6,18.2-5.1c1.8-5.8,3.3-11.6,4.7-18.6c2.9-35.3,10.2-78.3,10.2-105.6l65.5-5.5c-0.7,29.5-12.4,112.8-12.4,137.2
	c5,0.1,10-0.4,14.9-1.5C3720.3,245,3707.5,268.3,3677,268.3z"/>
<path class="st0" d="M3830.6,192.2c1.8,6.2,2.5,18.9,1.5,31.3c-3.6,33.5-23.7,43.7-52.4,43.7c-26.2,0-47-9.1-45.5-61.9
	c0.7-30.2,4.7-58.6,8.7-88.1c-8.7-3.3-13.5-8-13.8-18.2l-0.4-12l21.8-4l50.6-38.2h13.8l-4.7,36l27.7-3.3c-0.4,32-3.3,48.8-17.1,48.8
	c-5.7,0.1-11.4-0.1-17.1-0.7c-3,21.2-4.7,42.6-5.1,64.1c-0.4,12.4,3.6,17.1,9.8,17.1c9.1,0,11.3-3.3,14.6-14.6L3830.6,192.2z"/>
<path class="st0" d="M4014,34.9c-0.2,9.9-1.7,19.7-4.7,29.1c-12-2.9-24.4-4.5-36.8-4.7c-1.8,7.6-2.5,11.6-3.3,26.6l26.2-2.9
	c-0.4,32-3.3,48.8-17.1,48.8h-11.3c-1.8,38.2-4.7,85.5-8.4,128.1c-4,44.4-27.3,66.6-60.1,66.6c-32.4,0-30.9-22.9-25.1-47.7
	c5.1,0,9.5,0.4,13.8,0.4c2.5-12,4.7-23.3,8-51.3c4-32,6.9-72.4,8.7-99.7c-14.2-3.6-21.5-7.6-21.8-21.5l1.8-11.3l22.6-4.7v1.1
	c7.6-59,36.4-85.5,77.5-85.5C4007.5,6.2,4014.7,12.4,4014,34.9z"/>
<path class="st0" d="M4130.5,132.5c-2.9,14.2-10.6,28.8-17.1,37.9c-8.7-8.4-22.9-16.4-29.1-17.1c-5.8,8-10.2,18.6-14.6,43.7l-4,67.3
	h-64.8l10.9-168.9c-16,0-15.7-6.2-15.7-14.2c17.8-0.4,32.4-5.5,49.9-5.5c22.9,0,24,8.7,24,19.7c0,12.7-3.3,26.6-5.1,50.6h1.5
	c4-15.3,7.3-28,8.7-31.7c10.2-27.7,20-39.3,37.9-39.3C4129.8,75,4137.4,99,4130.5,132.5z"/>
<path class="st0" d="M4218.6,212.6c4.7,32.4-9.1,55.7-42.2,55.7c-26.6,0-38.2-12.7-38.2-39.7c0-28.4,7.6-74.6,11.3-133.2
	c-15.3,0.4-17.1-5.1-15.7-14.2c21.5,0,40-5.5,58.2-5.5s23.7,8.7,23.7,24c0,27.3-5.8,47.3-12,114.3
	C4208.7,214.3,4213.7,213.8,4218.6,212.6z M4225.1,27.3c-1.1,26.9-18.2,34.2-36.4,34.2c-19.7,0-33.1-7.6-33.1-25.8
	c0-13.5,8.4-35.7,38.6-35.7C4212.4,0,4225.8,8.7,4225.1,27.3z"/>
<path class="st0" d="M4295.4,187.1c0.7,25.8,9.1,28.4,31.7,28.4c17.5,0,28-4,32.4-22.9h8c1.5,10.6,1.5,21.4,0,32
	c-5.1,35.7-24,42.6-62.6,42.6c-65.2,0-77.5-33.9-73.2-88.5c3.6-52.4,26.6-103,88.8-103c37.1,0,61.9,16,58.2,60.1
	C4375.8,176.9,4347.4,190.4,4295.4,187.1z M4305.2,120.5c-5.8,12.7-7.3,22.6-8.4,38.6c8.4,0,15.7-0.4,21.1-1.5
	C4325.6,135.4,4324.1,119.8,4305.2,120.5z M4327.4,152.9c0.4,0,0.4-0.4,0.7-0.7L4327.4,152.9z"/>
<path class="st0" d="M4447.9,123.4c-1.1,3.2-1.6,6.5-1.5,9.8c0,6.6,5.5,10.9,17.8,16.4c31.7,14.6,47.7,25.1,44.8,58.6
	c-3.3,39.3-32.8,59.7-78.3,59.7c-40,0-53.5-7.6-51.7-34.9c0.7-12,8-25.5,15.3-32c7.3,8,33.9,15.7,52.1,17.8c1.1-3,1.7-6.2,1.8-9.5
	c0-7.3-13.1-11.6-28.4-20.4c-20.4-11.6-32.4-27.3-30.2-52.8c3.6-44,36.8-60.4,81.2-60.4c32.4,0,43.7,7.6,41.5,34.9
	c-1.1,12.7-5.1,23.3-12.4,32.4C4487.2,131.4,4461.3,123.4,4447.9,123.4z"/>
<path class="st0" d="M7097.8,255.3c-23.8,8.2-53.7,13.4-93.1,8.2v-249c32.9-4.3,72.7-4.3,101.8,8.7
	C7116.9,86,7110.4,198.6,7097.8,255.3z M7050.6,68.7v142.5c4.8,0,9.1-0.4,13.9-0.4c7.4-45.5,6.5-97.4,0.4-139.9
	C7060.3,69.3,7055.5,68.6,7050.6,68.7L7050.6,68.7z"/>
<path class="st0" d="M7192.2,172.6h-10.8l-0.9-15.2c-4.3-1.7-8.2-1.7-11.3,0.4v105.7c-15,1.7-30.1,1.7-45,0v-213
	c10.4-4.8,17.3-5.6,27.3-3.5l1.7,79.7l3.5-0.4c2.6-28.6,6.5-65.8,10-77.1c10.8-3.5,22.9-3.9,26.4-2.2
	C7197.4,87.3,7195.7,136.2,7192.2,172.6z"/>
<path class="st0" d="M7240.7,185.6c0.9,6.9,1.3,12.1,2.6,19.5c9.7,1,19.4,0.7,29-0.9l3.9-15.6h9.5c-0.4,21.2-2.6,51.1-6.9,74.9
	c-14.7,4.3-33.8,4.3-70.1,0c-6.9-30.7-9.1-52-9.1-86.6c0-37.2,7.8-94,24.2-125.1c22.1-7.4,43.3-7.8,59.8-3.9
	c10,29.4,9.5,85.7,3.5,114.3C7277.5,169.6,7262.8,177,7240.7,185.6z M7242,104.6c-1.3,15.6-1.7,29-2.2,46.3c4.8-0.4,8.7-0.4,13-1.3
	c1.4-15.5,1.7-31.2,0.9-46.8C7249.8,102.9,7245.8,103.5,7242,104.6L7242,104.6z"/>
<path class="st0" d="M7395.7,263.5c-11.8,1.7-23.7,1.7-35.5,0l-3.9-45l-2.2,0.9c-4,15-8.8,29.7-14.3,44.2c-19.5,3-25.5,3-37.2,0
	c-3.5-18.6-4.3-35.1-4.3-52.4c0-19.9,0.9-42,6.1-64.5c13.9-10.6,29.6-18.6,46.3-23.8v-19.9c-10.6-1.3-21.4-1.3-32,0l-3,13.4h-9.5
	c0.9-21.6,3.9-48.1,9.1-68c27.3-4.3,48.9-4.3,74.9,0c3.9,19.9,5.2,51.1,5.6,85.3V263.5z M7350.7,203.8v-50.2
	c-4.6-0.1-9.3,0.1-13.9,0.9c-1.2,16.4-0.9,33,0.9,49.4C7341.6,207.3,7345.5,206.4,7350.7,203.8z"/>
<path class="st0" d="M7580.6,112.4v151.1c-15,1.7-30.1,1.7-45,0V112c-5.6-5.6-13.4-3.9-16.9,3v148.5c-15,1.7-30.1,1.7-45,0V112
	c-5.6-5.2-13.9-3.5-16.9,2.2v149.4c-15,1.7-30.1,1.7-45,0V51.4c13.9-6.5,27.3-6.5,41.1-4.3l-0.4,40.7l3.5-1.3
	c3.6-13.4,7.9-26.5,13-39.4c14.6-3,29.6-3,44.2,0c2.2,14.3,2.2,23.4,1.3,38.1l4.3-1.3c3.1-12.6,7.2-24.9,12.1-36.8
	c14.6-3,29.6-3,44.2,0C7579.3,68.7,7580.6,90.8,7580.6,112.4z"/>
<path class="st0" d="M7765.3,267.2c-20,0-27.7-8.4-29.5-28c-0.5-7.1-0.6-14.3-0.4-21.5h-1.1c-10.9,37.5-18.2,49.5-49.1,49.5
	c-24.8,0-43.3-15.7-43.3-53.5c0-75,26.9-138,97.6-138c18.2,0,45.1,2.9,61.2,9.8c-4.4,68.1-8.7,101.9-6.6,127
	c5.8-0.4,10.6-1.1,13.5-2.2C7809.7,239.5,7800.6,267.2,7765.3,267.2z M7737.3,121.2c-6.1-3.8-13.6-4.6-20.4-2.2
	c-7.6,19.7-13.5,62.2-10.6,91c7.3-0.3,14.5-2.2,21.1-5.5C7731.8,178.7,7734.7,163.1,7737.3,121.2z"/>
<path class="st0" d="M7980,129.2c0,75-26.9,138-97.6,138c-18.6,0-45.5-2.9-61.9-9.8h-1.1l14.9-230.4c-14.9,0.4-17.1-5.1-15.7-14.2
	c19.3,0,31.7-5.5,49.5-5.5c25.8,0,29.8,8.7,29.8,19.7c0,13.8-6.9,58.2-12.4,98.3h0.7c14.6-37.5,21.8-49.5,49.1-49.5
	C7961.1,75.7,7980,91.4,7980,129.2z M7884.3,222c6.3,3.8,14,4.3,20.7,1.5c8-20,13.5-62.2,10.2-91c-6.6,0.7-14.6,2.2-21.8,5.8
	c-3.3,18.2-5.5,31.3-7.6,52.1L7884.3,222z"/>
<path class="st0" d="M8144.9,167.8c-2.9,61.9-32.8,99.4-85.9,99.4c-62.2-0.7-73.5-37.9-71-92.1c4.4-72.1,41.5-99.4,84.8-99.4
	C8136.6,75.7,8147.5,113.6,8144.9,167.8z M8075,220.6c3.3-16,4.7-34.9,6.6-67.3c0.7-14.9,0-26.9-9.5-30.6c-3.6-1.5-8.4-1.5-13.8-0.4
	c-4,16-5.1,34.9-6.9,67.3c-0.7,14.9,0.4,26.6,10.2,30.2C8064.9,221.3,8069.6,221.7,8075,220.6L8075,220.6z"/>
<path class="st0" d="M8288.3,268.3c-26.6,0-38.2-12.7-38.2-32.4c0-6,0.5-11.9,1.5-17.8c0,0.4-0.4,0.4-0.4,0.7
	c-16.4,43-32,49.5-52.1,49.5c-27.7,0-41.1-15.7-40.8-42.2c0.7-32.4,8-93.9,8.7-105.6l1.8-25.1c-18.2,0-15.7-6.2-15.7-14.2
	c17.8,0,36.4-5.5,54.2-5.5c25.8,0,27.3,8.7,27.3,19.7c0,6.9-0.7,14.6-1.5,26.9c-1.1,26.2-6.9,59.7-7.6,89.2
	c6.3-0.9,12.4-2.6,18.2-5.1c1.8-5.8,3.3-11.6,4.7-18.6c2.9-35.3,10.2-78.3,10.2-105.6l65.5-5.5c-0.7,29.5-12.4,112.8-12.4,137.2
	c5,0.1,10-0.4,14.9-1.5C8331.7,245,8318.9,268.3,8288.3,268.3z"/>
<path class="st0" d="M8442,192.2c1.8,6.2,2.5,18.9,1.5,31.3c-3.6,33.5-23.7,43.7-52.4,43.7c-26.2,0-47-9.1-45.5-61.9
	c0.7-30.2,4.7-58.6,8.7-88.1c-8.7-3.3-13.5-8-13.8-18.2l-0.4-12l21.8-4l50.6-38.2h13.8l-4.7,36l27.7-3.3c-0.4,32-3.3,48.8-17.1,48.8
	c-5.7,0.1-11.4-0.1-17.1-0.7c-3,21.2-4.7,42.6-5.1,64.1c-0.4,12.4,3.6,17.1,9.8,17.1c9.1,0,11.3-3.3,14.6-14.6L8442,192.2z"/>
<path class="st0" d="M8625.4,34.9c-0.2,9.9-1.7,19.7-4.7,29.1c-12-2.9-24.4-4.5-36.8-4.7c-1.8,7.6-2.5,11.6-3.3,26.6l26.2-2.9
	c-0.4,32-3.3,48.8-17.1,48.8h-11.3c-1.8,38.2-4.7,85.5-8.4,128.1c-4,44.4-27.3,66.6-60.1,66.6c-32.4,0-30.9-22.9-25.1-47.7
	c5.1,0,9.5,0.4,13.8,0.4c2.5-12,4.7-23.3,8-51.3c4-32,6.9-72.4,8.7-99.7c-14.2-3.6-21.5-7.6-21.8-21.5l1.8-11.3l22.6-4.7v1.1
	c7.6-59,36.4-85.5,77.5-85.5C8618.8,6.2,8626.1,12.4,8625.4,34.9z"/>
<path class="st0" d="M8741.9,132.5c-2.9,14.2-10.6,28.8-17.1,37.9c-8.7-8.4-22.9-16.4-29.1-17.1c-5.8,8-10.2,18.6-14.6,43.7l-4,67.3
	h-64.8l10.9-168.9c-16,0-15.7-6.2-15.7-14.2c17.8-0.4,32.4-5.5,49.9-5.5c22.9,0,24,8.7,24,19.7c0,12.7-3.3,26.6-5.1,50.6h1.5
	c4-15.3,7.3-28,8.7-31.7c10.2-27.7,20-39.3,37.9-39.3C8741.1,75,8748.8,99,8741.9,132.5z"/>
<path class="st0" d="M8830,212.6c4.7,32.4-9.1,55.7-42.2,55.7c-26.6,0-38.2-12.7-38.2-39.7c0-28.4,7.6-74.6,11.3-133.2
	c-15.3,0.4-17.1-5.1-15.7-14.2c21.5,0,40-5.5,58.2-5.5s23.7,8.7,23.7,24c0,27.3-5.8,47.3-12,114.3
	C8820.1,214.3,8825.1,213.8,8830,212.6z M8836.5,27.3c-1.1,26.9-18.2,34.2-36.4,34.2c-19.7,0-33.1-7.6-33.1-25.8
	c0-13.5,8.4-35.7,38.6-35.7C8823.8,0,8837.2,8.7,8836.5,27.3z"/>
<path class="st0" d="M8906.8,187.1c0.7,25.8,9.1,28.4,31.7,28.4c17.5,0,28-4,32.4-22.9h8c1.5,10.6,1.5,21.4,0,32
	c-5.1,35.7-24,42.6-62.6,42.6c-65.2,0-77.5-33.9-73.2-88.5c3.6-52.4,26.6-103,88.8-103c37.1,0,61.9,16,58.2,60.1
	C8987.2,176.9,8958.8,190.4,8906.8,187.1z M8916.6,120.5c-5.8,12.7-7.3,22.6-8.4,38.6c8.4,0,15.7-0.4,21.1-1.5
	C8937,135.4,8935.5,119.8,8916.6,120.5z M8938.8,152.9c0.4,0,0.4-0.4,0.7-0.7L8938.8,152.9z"/>
<path class="st0" d="M9059.3,123.4c-1.1,3.2-1.6,6.5-1.5,9.8c0,6.6,5.5,10.9,17.8,16.4c31.7,14.6,47.7,25.1,44.8,58.6
	c-3.3,39.3-32.8,59.7-78.3,59.7c-40,0-53.5-7.6-51.7-34.9c0.7-12,8-25.5,15.3-32c7.3,8,33.9,15.7,52.1,17.8c1.1-3,1.7-6.2,1.8-9.5
	c0-7.3-13.1-11.6-28.4-20.4c-20.4-11.6-32.4-27.3-30.2-52.8c3.6-44,36.8-60.4,81.2-60.4c32.4,0,43.7,7.6,41.5,34.9
	c-1.1,12.7-5.1,23.3-12.4,32.4C9098.6,131.4,9072.7,123.4,9059.3,123.4z"/>
<path class="st0" d="M2233.3,266c10.4,0,20.2-2.1,29.4-6.2c9.2-4.1,19-10.6,29.4-19.6l-0.7-11.2c-8.2,5.8-15.3,10.3-21.2,13.6
	c-5.9,3.3-11.5,5.6-16.7,7.1c-5.2,1.4-10.4,2.2-15.8,2.2c-8.9,0-15.5-2.3-19.6-6.9c-4.1-4.6-6.2-11.2-6.2-19.9
	c0-13.5,6.2-24.3,18.7-32.3c12.4-8,32.9-14.1,61.4-18.5l5.4-12.7c-23.2,4.1-42.2,8.9-57.1,14.3c-14.9,5.4-25.9,12.4-33,21
	c-7.1,8.6-10.7,19.5-10.7,32.8c0,12.3,3.4,21.4,10.1,27.4C2213.6,263,2222.4,266,2233.3,266z M2205.7,110.9h0.4
	c10.6-6.5,20.5-11,29.5-13.4c9.1-2.4,17.8-3.6,26.3-3.6c11.6,0,19.3,3.2,23,9.6c3.7,6.4,5.6,17.2,5.6,32.4v99.7l0.4,3.3l1.4,21.7
	c0,1.2,0.2,2.1,0.5,2.7c0.4,0.6,0.8,1,1.4,1.1c0.6,0.1,1.3,0.2,2,0.2c1.2,0,2.7-0.1,4.5-0.2c1.8-0.1,3.6-0.4,5.3-0.9v-1.1
	c-0.2-1.4-0.4-4-0.5-7.6c-0.1-3.6-0.2-7.3-0.4-11.1c-0.1-3.7-0.2-6.6-0.2-8.5c0-5.1,0-12,0-20.8c0-8.8,0-19.7,0-32.6
	c0-12.9,0-28,0-45.1c0-14.5-1.3-25.7-4-33.7c-2.7-8-7-13.6-13-16.9c-6-3.3-14.1-4.9-24.3-4.9c-7.2,0-14.3,0.6-21,1.8
	c-6.8,1.2-13.2,3-19.2,5.3c-6,2.3-12.1,5-18.1,8.2c-0.2,0-0.4,0.1-0.5,0.2c-0.1,0.1-0.3,0.3-0.5,0.5c-0.2,2.9-0.2,5.4,0.2,7.6
	C2204.8,106.9,2205.2,108.9,2205.7,110.9z M2074.5,142.7h20.3V63c0-5.6,0-11,0-16.3c0-5.3,0.1-10.3,0.2-15c0.1-4.7,0.2-8.8,0.2-12.1
	c0-1.4-0.2-2.4-0.5-2.7c-0.4-0.4-1.8-0.4-4.2-0.2c-2.7,0.5-5.3,1-8,1.4c-2.7,0.5-5.3,0.8-8,1.1v9.8c0,4.8,0,9.7,0,14.5s0,9.7,0,14.7
	c0,5,0,9.8,0,14.7V142.7z M2081.4,263.8c2.4-0.2,4.8-0.6,7.2-1.1c2.4-0.5,5-1,7.6-1.4l-0.4-3.3c-0.2-4.3-0.5-9.5-0.7-15.4
	c-0.2-5.9-0.4-12-0.4-18.1c0-6.2,0-11.8,0-16.9V133h-20.3v100h1.1c0,4.8,0.2,9.8,0.5,14.9c0.4,5.1,0.5,9.4,0.5,13
	c0,1.4,0.2,2.4,0.5,2.9C2077.6,264.3,2079,264.3,2081.4,263.8z M2020.5,266.7c12.8,0,24.6-3.5,35.3-10.5c10.8-7,19.9-15.5,27.4-25.4
	l-3.6-9.8c-6.8,8-14.5,14.5-23.2,19.6c-8.7,5.1-18.2,7.6-28.6,7.6c-12.1,0-21.3-4.6-27.7-13.8c-6.4-9.2-9.6-25.6-9.6-49.3
	c0-18.6,2.2-34.6,6.7-47.8c4.5-13.3,11.1-23.5,19.9-30.6c8.8-7.1,19.4-10.7,31.7-10.7c5.6,0,11.1,0.6,16.5,1.8
	c5.4,1.2,10.6,3,15.4,5.4l14.1-14.9c-4.1-1.7-8.5-3.1-13.2-4.3c-4.7-1.2-9.4-2.1-14.1-2.5s-9.1-0.7-13.2-0.7
	c-15.5,0-28.6,2.8-39.3,8.5c-10.8,5.7-19.5,13.7-26.1,23.9c-6.6,10.3-11.5,22.2-14.7,35.9c-3.1,13.7-4.7,28.3-4.7,44
	c0,16.9,2.1,30.8,6.3,41.7c4.2,10.9,10.1,18.9,17.8,24.1C2001.1,264.1,2010.1,266.7,2020.5,266.7z M1849.1,266.3
	c11.4,0,21.5-2.1,30.4-6.3c8.9-4.2,18.6-11.1,29-20.5l-1.8-13.8c-7,5.1-13.2,9.1-18.5,12.1c-5.3,3-10.4,5.2-15.2,6.5
	c-4.8,1.3-10.1,2-15.9,2c-7.5,0-13.3-1.9-17.4-5.8c-4.1-3.9-6.2-9.9-6.2-18.1c0-12.3,5.8-22.4,17.4-30.3c11.6-7.9,30.9-13.3,58-16.5
	l5.4-15.6c-22.7,2.7-41.8,6.6-57.3,11.8c-15.5,5.2-27.1,12.3-34.8,21.4c-7.7,9.1-11.6,20.7-11.6,35c0,13,3.6,22.7,10.9,28.8
	C1828.8,263.3,1838,266.3,1849.1,266.3z M1820.8,115.6h0.4c10.4-6,20.2-10.3,29.5-12.9c9.3-2.5,17.9-3.8,25.9-3.8
	c9.7,0,16.7,2.6,21.2,7.8c4.5,5.2,6.7,14.4,6.7,27.7v100.4l1.4,1.8l1.1,24.3c0,1.2,0.1,2.1,0.4,2.7c0.2,0.6,0.7,1,1.3,1.1
	c0.6,0.1,1.4,0.2,2.4,0.2c2.4,0,5.1-0.1,8.2-0.4c3-0.2,6.1-0.7,9.2-1.4V262c-0.5-2.4-0.8-5.4-0.9-8.9c-0.1-3.5-0.2-6.9-0.4-10.3
	s-0.2-6.2-0.2-8.3c0-6.3-0.1-14.5-0.2-24.6c-0.1-10.1-0.2-21.6-0.2-34.4s0-26.3,0-40.6s-1.6-25.4-4.7-33.3
	c-3.1-8-7.9-13.6-14.3-16.9c-6.4-3.3-14.4-4.9-24.1-4.9c-8.2,0-16.1,0.6-23.7,1.8c-7.6,1.2-14.7,3-21.4,5.4
	c-6.6,2.4-12.9,5.1-18.7,8c-0.2,0.2-0.5,0.4-0.7,0.5c-0.2,0.1-0.5,0.3-0.7,0.5c-0.2,3.9-0.1,7.4,0.4,10.5
	C1819.1,109.6,1819.9,112.7,1820.8,115.6z M1720.4,103.2c6.8,0,11.8,1,15.2,2.9c3.4,1.9,5.7,5.8,7.1,11.6c1.3,5.8,2,14.3,2,25.4
	v69.6c0,5.3,0,10.5,0,15.6c0,5.1,0,10.2,0,15.4c0,5.2,0,10.5,0,15.8v4h25.4v-4c0-5.3,0-10.6,0-15.8c0-5.2,0-10.3,0-15.4
	c0-5.1,0-10.3,0-15.6v-79c0-21-3.3-35.2-10-42.6S1743.3,80,1729.5,80c-8.7,0-17.4,1.8-26.1,5.4c-8.7,3.6-17,8.5-25,14.7
	c-8,6.2-15.2,12.9-21.7,20.1l3.6,14.9c5.3-6,11.5-11.4,18.5-16.1c7-4.7,14.2-8.5,21.6-11.4C1707.7,104.7,1714.4,103.2,1720.4,103.2z
	 M1665.4,259.4c0-5.3,0-10.6,0-15.8c0-5.2,0-10.3,0-15.4c0-5.1,0-10.3,0-15.6v-100h-1.8c0.5-10.1,0.8-20.2,0.9-30.1
	c0.1-9.9,0.3-19.2,0.5-27.9c0.2-8.7,0.4-16.3,0.5-22.8c0.1-6.5,0.2-11.2,0.2-14.1c0-1.4-0.2-2.4-0.5-2.7c-0.4-0.4-1.8-0.4-4.2-0.2
	c-3.4,0.5-6.8,1-10.3,1.4c-3.5,0.5-7.1,0.8-10.7,1.1v6.5c0,5.3,0,10.6,0,15.8s0,10.4,0,15.8s0,10.5,0,15.6v141.7
	c0,5.3,0,10.5,0,15.6c0,5.1,0,10.2,0,15.4c0,5.2,0,10.5,0,15.8v4h25.4V259.4z M1499,263.4h31.2v-0.7c0-4.1,0-10.3,0-18.7
	c0-8.3,0-17.7,0-28.1s0-21,0-31.9v-69.6c0-13.3,0-25.4,0-36.2s0-20.5,0-28.8c0-8.3,0-15.3,0-20.8v-0.7H1499v0.7c0,5.6,0,12.5,0,20.8
	c0,8.3,0,17.9,0,28.8s0,23,0,36.2v69.6c0,10.9,0,21.5,0,31.9s0,19.8,0,28.1c0,8.3,0,14.6,0,18.7V263.4z M1403.7,231.5
	c-5.8,2.2-10.4,3.7-13.8,4.5c-3.4,0.8-7,1.3-10.9,1.3c-5.8,0-10.2-1.3-13.2-3.8c-3-2.5-5-7.4-6-14.5c-1-7.1-1.4-17.7-1.4-31.7
	c0-15,0.1-28,0.2-39c0.1-11,0.2-20.5,0.4-28.6c0.1-8.1,0.3-15.5,0.5-22.3c0.2-6.8,0.5-13.5,0.7-20.3c0.2-6.8,0.6-14.1,1.1-22.1h-8.7
	l-49.3,39.1v10.5l33,2.9l-10.1-6.2c-0.5,14.5-1,27.5-1.4,39c-0.5,11.5-0.8,22.8-1.1,34.1c-0.2,11.2-0.4,23.5-0.4,36.8
	c0,15.5,1.9,27.2,5.6,35.2c3.7,8,9.2,13.3,16.3,16.1c7.1,2.8,15.8,4.2,25.9,4.2c5.1,0,10.4-0.4,15.9-1.3c5.6-0.8,11-2.5,16.3-4.9
	c1.7-4.1,2.6-9.2,2.7-15.2c0.1-6-0.4-10.6-1.6-13.8H1403.7z M1400.4,81.5c-6.3,0.5-13.3,1-21,1.6c-7.7,0.6-14.6,1.1-20.7,1.4
	s-10,0.5-12,0.5l4.3,23.2c5.3,0.7,11,1.4,17,2c6,0.6,11.8,1,17.4,1.3s10,0.4,13.4,0.4c1-2.4,1.7-5.2,2.2-8.3
	c0.5-3.1,0.7-6.2,0.7-9.1c0-1.9-0.1-4-0.4-6.2C1401.3,86.2,1400.9,83.9,1400.4,81.5z M1213.4,114.8c6.3,0,10.9,1,14,2.9
	c3,1.9,5,5.6,6,11.1c1,5.4,1.4,13.3,1.4,23.7v59.8c0,6.8-0.1,12.9-0.2,18.5c-0.1,5.6-0.2,10.9-0.4,16.1c-0.1,5.2-0.4,10.4-0.9,15.8
	v0.7h42.8v-0.7c-0.5-5.3-0.8-10.6-1.1-15.9c-0.2-5.3-0.4-10.8-0.5-16.3c-0.1-5.6-0.2-11.6-0.2-18.1v-74.7c0-22.5-3.8-37.9-11.4-46.2
	c-7.6-8.3-18.7-12.5-33.2-12.5c-8.9,0-17.5,1.8-25.6,5.4c-8.1,3.6-15.6,8.6-22.7,15c-7,6.4-13.7,13.7-19.9,21.9l1.8,21.7
	c4.3-5.1,9.5-9.7,15.4-13.8c5.9-4.1,12-7.6,18.3-10.3C1203.4,116.2,1208.8,114.8,1213.4,114.8z M1169.9,262.7
	c-0.2-5.3-0.5-10.6-0.7-15.8c-0.2-5.2-0.4-10.6-0.5-16.1c-0.1-5.6-0.2-11.7-0.2-18.5v-96.8h-2.2c0.5-10.1,0.8-20,1.1-29.5
	s0.5-18.5,0.7-26.8s0.4-15.8,0.4-22.3s0-11.5,0-14.9c0-2.4-0.4-4-1.1-4.9c-0.7-0.8-2.7-1.1-5.8-0.9c-5.8,0.2-11.6,0.7-17.4,1.4
	c-5.8,0.7-11.5,1.2-17,1.4v1.4c0.2,5.6,0.5,11.2,0.9,16.9c0.4,5.7,0.6,11.6,0.7,17.8c0.1,6.2,0.2,12.9,0.2,20.1v137
	c0,6.5-0.1,12.6-0.2,18.1c-0.1,5.6-0.4,11-0.7,16.3c-0.4,5.3-0.7,10.6-0.9,15.9v0.7h42.8V262.7z M1062.3,105.4
	c6.8,2.4,13.1,3.4,19,2.9c5.9-0.5,11.2-1.3,15.8-2.5c1.7-6.3,2.4-12.6,2-18.8c-0.4-6.3-1.5-11.4-3.4-15.2h-1.8
	c-4.3,4.8-10.3,7.6-17.9,8.3c-7.6,0.7-16.6,0.7-26.8-0.2s-21.2-1.1-32.8-0.9L1062.3,105.4z M1014.1,192.4c14.7,0,27.4-1.9,37.9-5.6
	c10.5-3.7,18.5-9.4,23.9-17c5.4-7.6,8.2-17.1,8.2-28.5c0-7-1.3-13.5-4-19.4c-2.7-5.9-7.1-10.7-13.4-14.3l4-7.6
	c-2.7-4.1-6.9-7.7-12.7-10.9c-5.8-3.1-12.3-5.6-19.6-7.4c-7.2-1.8-14.6-2.7-22.1-2.7c-13.8,0-26.2,2.4-37.3,7.2
	c-11.1,4.8-19.9,11.7-26.5,20.7c-6.5,8.9-9.8,19.7-9.8,32.3c0,11.8,2.2,21.7,6.5,29.5c4.3,7.9,11.8,13.8,22.3,17.8
	C982,190.4,996.2,192.4,1014.1,192.4z M1015.2,165.9c-8.9,0-15.5-1.4-19.8-4.3c-4.2-2.9-6.9-6.5-8.2-10.7c-1.2-4.2-1.8-8.8-1.8-13.6
	c0-4.3,0.8-8.7,2.4-13c1.6-4.3,4.3-8,8.3-10.9c4-2.9,9.7-4.3,17.2-4.3c10.6,0,18,2.6,22.1,7.8c4.1,5.2,6.2,12.3,6.2,21.2
	c0,8.5-2.1,15.2-6.2,20.3C1031.3,163.4,1024.6,165.9,1015.2,165.9z M1005.7,329.8c17.6,0,33.4-2.2,47.3-6.7
	c13.9-4.5,24.9-11.4,33-20.8c8.1-9.4,12.1-21.4,12.1-35.9c0-12.3-2.5-22-7.6-29c-5.1-7-12.6-12-22.7-14.9c-10-2.9-22.3-4.3-36.8-4.3
	c-10.9,0-19.3-0.2-25.2-0.7c-5.9-0.5-10.2-1.4-12.9-2.7c-2.7-1.3-4.6-3.1-5.8-5.3c-1-2.2-1.2-5.1-0.7-8.9c0.5-3.7,1.5-7.7,3.1-12
	c1.6-4.2,3.6-8.2,6-11.8l-14.1,1.8c-9.4,6.8-17.2,14.5-23.4,23.2c-6.2,8.7-9.2,17-9.2,25c0,8,2.9,14,8.7,17.9c5.8,4,14,6.6,24.5,7.8
	c10.5,1.2,22.8,1.8,36.8,1.8c14.3,0,24.6,1.1,31.2,3.4c6.5,2.3,9.8,7.8,9.8,16.5c0,5.3-1.6,9.5-4.7,12.7c-3.1,3.1-7.3,5.6-12.5,7.4
	c-5.2,1.8-10.9,3.1-17.2,3.8c-6.3,0.7-12.6,1.1-18.8,1.1c-10.6,0-18.2-1.9-22.8-5.6c-4.6-3.7-6.9-10-6.9-18.7c0-3.9,0.8-8,2.5-12.5
	c1.7-4.5,4.2-8.8,7.6-12.9l-19.6-1.8c-8.5,6-15.5,12.9-21,20.5c-5.6,7.6-8.3,15.8-8.3,24.5c0,8.5,2.4,15.4,7.2,20.8
	c4.8,5.4,12.3,9.5,22.3,12.1C977.5,328.4,990.3,329.8,1005.7,329.8z M881.8,57.6c7.5,0,13.9-2.4,19.2-7.1c5.3-4.7,8-11.5,8-20.5
	s-2.7-15.8-8-20.5c-5.3-4.7-11.7-7.1-19.2-7.1c-7.7,0-14.3,2.4-19.8,7.1s-8.2,11.5-8.2,20.5s2.7,15.8,8.2,20.5
	S874.1,57.6,881.8,57.6z M855.3,263.4h54.7v-0.7c-1-5.1-1.7-9.9-2.2-14.5c-0.5-4.6-0.8-9.7-1.1-15.4c-0.2-5.7-0.4-12.7-0.4-21.2
	v-92.8v-29c0-3.4-0.7-5.9-2.2-7.6c-1.4-1.7-4.2-2.4-8.3-2.2c-6.8,0.2-13.5,0.8-20.3,1.6c-6.8,0.8-13.7,1.4-20.7,1.6v1.4
	c1.4,8,2.6,15.9,3.4,23.9c0.8,8,1.4,16.9,1.6,26.8V212c-0.2,7.5-0.5,14.1-0.9,19.8c-0.4,5.7-0.8,11-1.4,15.9c-0.6,5-1.4,10-2.4,15
	V263.4z M748.8,123.5c4.8,0,8.6,0.8,11.4,2.5c2.8,1.7,4.7,4.9,5.8,9.6c1.1,4.7,1.6,11.4,1.6,20.1v55.8c0,8.9-0.1,16.3-0.4,22.1
	c-0.2,5.8-0.7,10.9-1.4,15.2c-0.7,4.3-1.6,8.9-2.5,13.8v0.7h59.8v-0.7c-1.2-4.8-2.2-9.7-2.9-14.5c-0.7-4.8-1.3-10.1-1.6-15.9
	c-0.4-5.8-0.8-12.7-1.3-20.7v-73.9c0-22.2-3.8-37.7-11.4-46.4c-7.6-8.7-18.3-13-32.1-13c-9.4,0-18.1,1.9-25.9,5.6
	c-7.9,3.7-15,9.2-21.4,16.3c-6.4,7.1-12.3,15.5-17.6,25.2v22.1c3.4-4.1,7.4-8,12-11.8c4.6-3.7,9.4-6.7,14.3-8.9
	C740.1,124.6,744.7,123.5,748.8,123.5z M718.7,262.7c-1.2-4.8-2.1-9.4-2.7-13.8c-0.6-4.3-1-9.4-1.3-15.2c-0.2-5.8-0.5-13.2-0.7-22.1
	v-91h-2.2c0.5-5.6,0.9-10.8,1.3-15.6c0.4-4.8,0.5-9.2,0.5-13c0-4.3-0.8-7.5-2.5-9.4c-1.7-1.9-4.7-2.9-9.1-2.9
	c-7.5,0.2-14.9,0.7-22.1,1.3c-7.2,0.6-14.6,1.5-22.1,2.7v1.1c1.9,7.7,3.4,15.5,4.3,23.4c1,7.9,1.7,16.9,2.2,27v76.5
	c-0.2,8-0.7,14.9-1.3,20.7c-0.6,5.8-1.3,11.1-2,15.9c-0.7,4.8-1.6,9.7-2.5,14.5v0.7h60.2V262.7z M585.3,214.5
	c-3.9,2.7-7.2,4.5-10.1,5.4c-2.9,1-6.2,1.4-9.8,1.4c-5.6,0-9.8-1.6-12.7-4.9c-2.9-3.3-4.8-8.5-5.8-15.8c-1-7.2-1.4-16.9-1.4-29
	c0-12.6,0.1-23.7,0.2-33.5c0.1-9.8,0.4-18.7,0.7-26.8c0.4-8.1,0.7-15.6,0.9-22.5c0.2-6.9,0.5-13.6,0.9-20.1c0.4-6.5,0.8-13,1.3-19.6
	h-12L477,94.2v22.5l29,3.3l-12-11.6c-0.7,12.1-1.3,23.3-1.8,33.7s-0.8,20.5-0.9,30.4c-0.1,9.9-0.2,20.1-0.2,30.4
	c0,18.1,2.4,31.8,7.2,41c4.8,9.2,11.7,15.3,20.7,18.3c8.9,3,19.6,4.5,31.9,4.5c5.6,0,11.8-0.8,18.8-2.4c7-1.6,12.6-3.8,16.7-6.7
	c2.2-7,3.1-14.4,2.9-22.1c-0.2-7.7-1.3-14.7-3.3-21H585.3z M586,79c-6.5,1-14.1,1.9-22.7,2.7c-8.6,0.8-16.2,1.6-23,2.4
	c-6.8,0.7-11.1,1.1-13,1.1l4.3,34.8c5.3,1,11.2,1.9,17.6,2.7c6.4,0.8,12.6,1.5,18.5,2c5.9,0.5,11.1,0.7,15.4,0.7
	c1.7-4.8,3-9.6,3.8-14.3c0.8-4.7,1.3-10,1.3-15.8c0-2.7-0.2-5.3-0.5-7.8C587.3,84.9,586.8,82.1,586,79z M415,147.5
	c-10.6-4.1-17.4-7.3-20.3-9.6c-2.9-2.3-4.3-4.7-4.3-7.1c0-2.7,1.1-4.7,3.4-6.2c2.3-1.4,6.5-2.2,12.5-2.2c9.9,0,18.4,1.3,25.4,4
	c7,2.7,13.4,6.4,19.2,11.2h2.9c2.4-4.1,4.2-9.7,5.4-16.9c1.2-7.1,1.8-14.9,1.8-23.4c-1.7-3.9-4.6-7.2-8.7-10
	c-4.1-2.8-9.7-4.9-16.7-6.3c-7-1.4-15.7-2.2-26.1-2.2c-14.3,0-26.8,2.1-37.7,6.3c-10.9,4.2-19.5,10.7-25.7,19.4
	c-6.3,8.7-9.4,19.7-9.4,33c0,8.7,1.6,16.6,4.7,23.6c3.1,7,8.3,13.3,15.6,18.8c7.2,5.6,17,10.9,29.4,15.9c7.2,2.9,12.6,5.3,16.1,7.1
	c3.5,1.8,5.7,3.5,6.7,5.1c1,1.6,1.4,3.2,1.4,4.9c0,1.7-0.7,3.2-2.2,4.5c-1.4,1.3-3.5,2.3-6.2,2.9s-5.8,0.9-9.4,0.9
	c-7.2,0-13.5-0.5-18.8-1.4c-5.3-1-10.1-2.7-14.5-5.3c-4.3-2.5-8.5-6-12.3-10.3h-2.9c-2.4,3.9-4.5,10-6.3,18.3
	c-1.8,8.3-2.7,17-2.7,25.9c2.4,3.9,6.4,7.2,12,10c5.6,2.8,12.6,4.8,21,6.2c8.5,1.3,18.4,2,29.7,2c22.5,0,39.8-5.2,52-15.6
	c12.2-10.4,18.3-25,18.3-43.9c0-11.8-2-21.3-6-28.5c-4-7.1-10-13-17.9-17.6C436.4,156.6,426.6,152.1,415,147.5z M201.9,266.3
	c11.1,0,20.7-2.6,28.6-7.8s16.8-14.6,26.5-28.1l-1.1-18.8c-3.4,2.9-6.3,5.1-8.9,6.5s-4.8,2.5-6.9,3.1c-2.1,0.6-3.9,0.9-5.6,0.9
	c-5.6,0-9.2-1.3-10.9-4c-1.7-2.7-2.5-6.6-2.5-12c0-7.2,2.6-13.4,7.8-18.5c5.2-5.1,14.3-7.4,27.4-6.9l6.5-24.3
	c-22.2,0.7-40.9,3.6-56,8.7c-15.1,5.1-26.5,12.3-34.2,21.7c-7.7,9.4-11.6,21.5-11.6,36.2c0,13.8,3.4,24.4,10.3,31.9
	C178.1,262.6,188.3,266.3,201.9,266.3z M177.6,151.4h4.7c2.9-8,7.4-13.3,13.6-16.1c6.2-2.8,14.7-4.2,25.6-4.2
	c10.1,0,17,1.5,20.7,4.5c3.6,3,5.4,8.6,5.4,16.9l0.7,69.6l4,3.3v4.3c0,6.8,1,12.9,2.9,18.5c1.9,5.6,5.5,10,10.7,13.2
	c5.2,3.3,12.4,4.9,21.6,4.9c7,0,14-2.1,21-6.3c7-4.2,14-11.8,21-22.7l-2.5-4.3c-3.4,0.5-6.1,0.2-8.2-0.7c-2.1-1-3.9-2.9-5.4-5.8
	c-1.6-2.9-2.7-7-3.4-12.3c-1-8-1.6-16.3-1.8-25c-0.2-8.7-0.2-17.4,0-26.1c0.2-8.7,0.4-16.9,0.4-24.6c0-14.5-2.5-26.2-7.6-35.2
	c-5.1-8.9-12.6-15.5-22.5-19.6c-9.9-4.1-22.2-6.2-37-6.2c-7.7,0-16.1,0.5-25.2,1.4c-9.1,1-17.3,2.6-24.8,4.9
	c-7.5,2.3-13,5.5-16.7,9.6c-1.7,3.9-2.8,7.6-3.4,11.1c-0.6,3.5-0.9,6.9-0.9,10.3c0,7,0.7,13.7,2,20.1
	C173.7,141.4,175.4,146.9,177.6,151.4z M125.8,267.8c10.6,0,17.2-3.3,19.8-9.8c2.5-6.5,3.8-15.2,3.8-26.1c0-8.5-0.1-16.2-0.4-23.4
	c-0.2-7.1-0.7-15-1.4-23.7h-8.7c-1,8-2.3,14-4,18.1c-1.7,4.1-4.4,6.9-8.2,8.5c-3.7,1.6-9.4,2.7-16.9,3.4c-8.2,1-15.2,1.6-20.8,2
	c-5.7,0.4-11.3,0.6-16.9,0.7c-5.6,0.1-12.2,0.2-19.9,0.2L5.4,263.4c8.7,0,17.3,0.1,25.7,0.4c8.5,0.2,16.7,0.6,24.8,1.1
	s16.1,1,23.9,1.4c7.9,0.5,15.6,0.8,23.2,1.1C110.7,267.7,118.3,267.8,125.8,267.8z M0,263.4h102.2v-10.1c-3.4-0.7-6.2-1.6-8.5-2.7
	c-2.3-1.1-4.1-2.8-5.4-5.3c-1.3-2.4-2.1-5.9-2.4-10.5V100.3H16.3v134.5c-0.2,4.6-1,8.1-2.4,10.5s-3.1,4.2-5.4,5.3
	c-2.3,1.1-5.1,2-8.5,2.7V263.4z M16.3,191h69.6V60.1c0.5-6,1.5-10.4,3.1-13.2c1.6-2.8,3.9-4.8,6.9-6c3-1.2,6.6-2.2,10.7-2.9V27.9H0
	V38c3.4,0.7,6.2,1.6,8.5,2.7c2.3,1.1,4.1,2.8,5.4,5.3s2.1,5.9,2.4,10.5V191z"/>
<path class="st0" d="M6844.7,266c10.4,0,20.2-2.1,29.4-6.2c9.2-4.1,19-10.6,29.4-19.6l-0.7-11.2c-8.2,5.8-15.3,10.3-21.2,13.6
	c-5.9,3.3-11.5,5.6-16.7,7.1c-5.2,1.4-10.4,2.2-15.8,2.2c-8.9,0-15.5-2.3-19.6-6.9c-4.1-4.6-6.2-11.2-6.2-19.9
	c0-13.5,6.2-24.3,18.7-32.3c12.4-8,32.9-14.1,61.4-18.5l5.4-12.7c-23.2,4.1-42.2,8.9-57.1,14.3c-14.9,5.4-25.9,12.4-33,21
	c-7.1,8.6-10.7,19.5-10.7,32.8c0,12.3,3.4,21.4,10.1,27.4S6833.8,266,6844.7,266z M6817.1,110.9h0.4c10.6-6.5,20.5-11,29.5-13.4
	c9.1-2.4,17.8-3.6,26.3-3.6c11.6,0,19.3,3.2,23,9.6c3.7,6.4,5.6,17.2,5.6,32.4v99.7l0.4,3.3l1.4,21.7c0,1.2,0.2,2.1,0.5,2.7
	c0.4,0.6,0.8,1,1.5,1.1c0.6,0.1,1.3,0.2,2,0.2c1.2,0,2.7-0.1,4.5-0.2c1.8-0.1,3.6-0.4,5.3-0.9v-1.1c-0.2-1.4-0.4-4-0.5-7.6
	c-0.1-3.6-0.2-7.3-0.4-11.1c-0.1-3.7-0.2-6.6-0.2-8.5c0-5.1,0-12,0-20.8c0-8.8,0-19.7,0-32.6c0-12.9,0-28,0-45.1
	c0-14.5-1.3-25.7-4-33.7c-2.7-8-7-13.6-13-16.9c-6-3.3-14.1-4.9-24.3-4.9c-7.2,0-14.3,0.6-21,1.8c-6.8,1.2-13.2,3-19.2,5.3
	c-6,2.3-12.1,5-18.1,8.2c-0.2,0-0.4,0.1-0.5,0.2c-0.1,0.1-0.3,0.3-0.5,0.5c-0.2,2.9-0.2,5.4,0.2,7.6
	C6816.2,106.9,6816.6,108.9,6817.1,110.9z M6685.9,142.7h20.3V63c0-5.6,0-11,0-16.3c0-5.3,0.1-10.3,0.2-15c0.1-4.7,0.2-8.8,0.2-12.1
	c0-1.4-0.2-2.4-0.5-2.7c-0.4-0.4-1.8-0.4-4.2-0.2c-2.7,0.5-5.3,1-8,1.4c-2.7,0.5-5.3,0.8-8,1.1v9.8c0,4.8,0,9.7,0,14.5s0,9.7,0,14.7
	c0,5,0,9.8,0,14.7V142.7z M6692.8,263.8c2.4-0.2,4.8-0.6,7.2-1.1c2.4-0.5,5-1,7.6-1.4l-0.4-3.3c-0.2-4.3-0.5-9.5-0.7-15.4
	c-0.2-5.9-0.4-12-0.4-18.1c0-6.2,0-11.8,0-16.9V133h-20.3v100h1.1c0,4.8,0.2,9.8,0.5,14.9c0.4,5.1,0.5,9.4,0.5,13
	c0,1.4,0.2,2.4,0.5,2.9S6690.4,264.3,6692.8,263.8z M6631.9,266.7c12.8,0,24.6-3.5,35.3-10.5s19.9-15.5,27.4-25.4l-3.6-9.8
	c-6.8,8-14.5,14.5-23.2,19.6c-8.7,5.1-18.2,7.6-28.6,7.6c-12.1,0-21.3-4.6-27.7-13.8c-6.4-9.2-9.6-25.6-9.6-49.3
	c0-18.6,2.2-34.6,6.7-47.8c4.5-13.3,11.1-23.5,19.9-30.6c8.8-7.1,19.4-10.7,31.7-10.7c5.6,0,11.1,0.6,16.5,1.8
	c5.4,1.2,10.6,3,15.4,5.4l14.1-14.9c-4.1-1.7-8.5-3.1-13.2-4.3s-9.4-2.1-14.1-2.5c-4.7-0.5-9.1-0.7-13.2-0.7
	c-15.5,0-28.6,2.8-39.3,8.5s-19.5,13.7-26.1,23.9c-6.6,10.3-11.5,22.2-14.7,35.9c-3.1,13.7-4.7,28.3-4.7,44
	c0,16.9,2.1,30.8,6.3,41.7c4.2,10.9,10.1,18.9,17.8,24.1C6612.5,264.1,6621.5,266.7,6631.9,266.7z M6460.5,266.3
	c11.4,0,21.5-2.1,30.4-6.3c8.9-4.2,18.6-11.1,29-20.5l-1.8-13.8c-7,5.1-13.2,9.1-18.5,12.1c-5.3,3-10.4,5.2-15.2,6.5s-10.1,2-15.9,2
	c-7.5,0-13.3-1.9-17.4-5.8c-4.1-3.9-6.2-9.9-6.2-18.1c0-12.3,5.8-22.4,17.4-30.3c11.6-7.9,30.9-13.3,58-16.5l5.4-15.6
	c-22.7,2.7-41.8,6.6-57.3,11.8c-15.5,5.2-27.1,12.3-34.8,21.4c-7.7,9.1-11.6,20.7-11.6,35c0,13,3.6,22.7,10.9,28.8
	S6449.4,266.3,6460.5,266.3z M6432.2,115.6h0.4c10.4-6,20.2-10.3,29.5-12.9c9.3-2.5,17.9-3.8,25.9-3.8c9.7,0,16.7,2.6,21.2,7.8
	c4.5,5.2,6.7,14.4,6.7,27.7v100.4l1.4,1.8l1.1,24.3c0,1.2,0.1,2.1,0.4,2.7c0.2,0.6,0.7,1,1.3,1.1c0.6,0.1,1.4,0.2,2.4,0.2
	c2.4,0,5.1-0.1,8.2-0.4c3-0.2,6.1-0.7,9.2-1.4V262c-0.5-2.4-0.8-5.4-0.9-8.9c-0.1-3.5-0.2-6.9-0.4-10.3c-0.1-3.4-0.2-6.2-0.2-8.3
	c0-6.3-0.1-14.5-0.2-24.6c-0.1-10.1-0.2-21.6-0.2-34.4s0-26.3,0-40.6s-1.6-25.4-4.7-33.3c-3.1-8-7.9-13.6-14.3-16.9
	c-6.4-3.3-14.4-4.9-24.1-4.9c-8.2,0-16.1,0.6-23.7,1.8c-7.6,1.2-14.7,3-21.4,5.4c-6.6,2.4-12.9,5.1-18.7,8c-0.2,0.2-0.5,0.4-0.7,0.5
	s-0.5,0.3-0.7,0.5c-0.2,3.9-0.1,7.4,0.4,10.5C6430.5,109.6,6431.3,112.7,6432.2,115.6z M6331.8,103.2c6.8,0,11.8,1,15.2,2.9
	c3.4,1.9,5.7,5.8,7.1,11.6c1.3,5.8,2,14.3,2,25.4v69.6c0,5.3,0,10.5,0,15.6c0,5.1,0,10.2,0,15.4c0,5.2,0,10.5,0,15.8v4h25.4v-4
	c0-5.3,0-10.6,0-15.8c0-5.2,0-10.3,0-15.4c0-5.1,0-10.3,0-15.6v-79c0-21-3.3-35.2-10-42.6S6354.7,80,6340.9,80
	c-8.7,0-17.4,1.8-26.1,5.4c-8.7,3.6-17,8.5-25,14.7s-15.2,12.9-21.7,20.1l3.6,14.9c5.3-6,11.5-11.4,18.5-16.1
	c7-4.7,14.2-8.5,21.6-11.4C6319.1,104.7,6325.8,103.2,6331.8,103.2z M6276.7,259.4c0-5.3,0-10.6,0-15.8c0-5.2,0-10.3,0-15.4
	c0-5.1,0-10.3,0-15.6v-100h-1.8c0.5-10.1,0.8-20.2,0.9-30.1c0.1-9.9,0.3-19.2,0.5-27.9s0.4-16.3,0.5-22.8c0.1-6.5,0.2-11.2,0.2-14.1
	c0-1.4-0.2-2.4-0.5-2.7c-0.4-0.4-1.8-0.4-4.2-0.2c-3.4,0.5-6.8,1-10.3,1.4c-3.5,0.5-7.1,0.8-10.7,1.1v6.5c0,5.3,0,10.6,0,15.8
	s0,10.4,0,15.8s0,10.5,0,15.6v141.7c0,5.3,0,10.5,0,15.6c0,5.1,0,10.2,0,15.4c0,5.2,0,10.5,0,15.8v4h25.4V259.4z M6110.4,263.4h31.2
	v-0.7c0-4.1,0-10.3,0-18.7c0-8.3,0-17.7,0-28.1s0-21,0-31.9v-69.6c0-13.3,0-25.4,0-36.2s0-20.5,0-28.8c0-8.3,0-15.3,0-20.8v-0.7
	h-31.2v0.7c0,5.6,0,12.5,0,20.8c0,8.3,0,17.9,0,28.8s0,23,0,36.2v69.6c0,10.9,0,21.5,0,31.9s0,19.8,0,28.1c0,8.3,0,14.6,0,18.7
	V263.4z M6015.1,231.5c-5.8,2.2-10.4,3.7-13.8,4.5c-3.4,0.8-7,1.3-10.9,1.3c-5.8,0-10.2-1.3-13.2-3.8c-3-2.5-5-7.4-6-14.5
	c-1-7.1-1.4-17.7-1.4-31.7c0-15,0.1-28,0.2-39c0.1-11,0.2-20.5,0.4-28.6c0.1-8.1,0.3-15.5,0.5-22.3c0.2-6.8,0.5-13.5,0.7-20.3
	c0.2-6.8,0.6-14.1,1.1-22.1h-8.7l-49.3,39.1v10.5l33,2.9l-10.1-6.2c-0.5,14.5-1,27.5-1.4,39c-0.5,11.5-0.8,22.8-1.1,34.1
	c-0.2,11.2-0.4,23.5-0.4,36.8c0,15.5,1.9,27.2,5.6,35.2c3.7,8,9.2,13.3,16.3,16.1c7.1,2.8,15.8,4.2,25.9,4.2
	c5.1,0,10.4-0.4,15.9-1.3c5.6-0.8,11-2.5,16.3-4.9c1.7-4.1,2.6-9.2,2.7-15.2c0.1-6-0.4-10.6-1.6-13.8H6015.1z M6011.8,81.5
	c-6.3,0.5-13.3,1-21,1.6c-7.7,0.6-14.6,1.1-20.7,1.4s-10,0.5-12,0.5l4.3,23.2c5.3,0.7,11,1.4,17,2c6,0.6,11.8,1,17.4,1.3
	c5.6,0.2,10,0.4,13.4,0.4c1-2.4,1.7-5.2,2.2-8.3c0.5-3.1,0.7-6.2,0.7-9.1c0-1.9-0.1-4-0.4-6.2C6012.7,86.2,6012.3,83.9,6011.8,81.5z
	 M5824.8,114.8c6.3,0,10.9,1,14,2.9c3,1.9,5,5.6,6,11.1c1,5.4,1.5,13.3,1.5,23.7v59.8c0,6.8-0.1,12.9-0.2,18.5
	c-0.1,5.6-0.2,10.9-0.4,16.1c-0.1,5.2-0.4,10.4-0.9,15.8v0.7h42.8v-0.7c-0.5-5.3-0.8-10.6-1.1-15.9c-0.2-5.3-0.4-10.8-0.5-16.3
	c-0.1-5.6-0.2-11.6-0.2-18.1v-74.7c0-22.5-3.8-37.9-11.4-46.2S5855.6,79,5841.1,79c-8.9,0-17.5,1.8-25.6,5.4
	c-8.1,3.6-15.6,8.6-22.7,15c-7,6.4-13.7,13.7-19.9,21.9l1.8,21.7c4.3-5.1,9.5-9.7,15.4-13.8c5.9-4.1,12-7.6,18.3-10.3
	C5814.8,116.2,5820.2,114.8,5824.8,114.8z M5781.3,262.7c-0.2-5.3-0.5-10.6-0.7-15.8c-0.2-5.2-0.4-10.6-0.5-16.1
	c-0.1-5.6-0.2-11.7-0.2-18.5v-96.8h-2.2c0.5-10.1,0.8-20,1.1-29.5s0.5-18.5,0.7-26.8c0.2-8.3,0.4-15.8,0.4-22.3s0-11.5,0-14.9
	c0-2.4-0.4-4-1.1-4.9c-0.7-0.8-2.7-1.1-5.8-0.9c-5.8,0.2-11.6,0.7-17.4,1.4c-5.8,0.7-11.5,1.2-17,1.4v1.4c0.2,5.6,0.5,11.2,0.9,16.9
	s0.6,11.6,0.7,17.8c0.1,6.2,0.2,12.9,0.2,20.1v137c0,6.5-0.1,12.6-0.2,18.1c-0.1,5.6-0.4,11-0.7,16.3c-0.4,5.3-0.7,10.6-0.9,15.9
	v0.7h42.8V262.7z M5673.7,105.4c6.8,2.4,13.1,3.4,19,2.9c5.9-0.5,11.2-1.3,15.8-2.5c1.7-6.3,2.4-12.6,2-18.8
	c-0.4-6.3-1.5-11.4-3.4-15.2h-1.8c-4.3,4.8-10.3,7.6-17.9,8.3s-16.6,0.7-26.8-0.2c-10.3-0.8-21.2-1.1-32.8-0.9L5673.7,105.4z
	 M5625.5,192.4c14.7,0,27.4-1.9,37.9-5.6c10.5-3.7,18.5-9.4,23.9-17c5.4-7.6,8.2-17.1,8.2-28.5c0-7-1.3-13.5-4-19.4
	c-2.7-5.9-7.1-10.7-13.4-14.3l4-7.6c-2.7-4.1-6.9-7.7-12.7-10.9c-5.8-3.1-12.3-5.6-19.6-7.4c-7.2-1.8-14.6-2.7-22.1-2.7
	c-13.8,0-26.2,2.4-37.3,7.2c-11.1,4.8-19.9,11.7-26.5,20.7c-6.5,8.9-9.8,19.7-9.8,32.3c0,11.8,2.2,21.7,6.5,29.5
	c4.3,7.9,11.8,13.8,22.3,17.8S5607.6,192.4,5625.5,192.4z M5626.6,165.9c-8.9,0-15.5-1.4-19.8-4.3c-4.2-2.9-6.9-6.5-8.2-10.7
	c-1.2-4.2-1.8-8.8-1.8-13.6c0-4.3,0.8-8.7,2.4-13c1.6-4.3,4.3-8,8.3-10.9c4-2.9,9.7-4.3,17.2-4.3c10.6,0,18,2.6,22.1,7.8
	s6.2,12.3,6.2,21.2c0,8.5-2.1,15.2-6.2,20.3C5642.7,163.4,5636,165.9,5626.6,165.9z M5617.1,329.8c17.6,0,33.4-2.2,47.3-6.7
	c13.9-4.5,24.9-11.4,33-20.8c8.1-9.4,12.1-21.4,12.1-35.9c0-12.3-2.5-22-7.6-29c-5.1-7-12.6-12-22.7-14.9c-10-2.9-22.3-4.3-36.8-4.3
	c-10.9,0-19.3-0.2-25.2-0.7c-5.9-0.5-10.2-1.4-12.9-2.7c-2.7-1.3-4.6-3.1-5.8-5.3c-1-2.2-1.2-5.1-0.7-8.9c0.5-3.7,1.5-7.7,3.1-12
	c1.6-4.2,3.6-8.2,6-11.8l-14.1,1.8c-9.4,6.8-17.2,14.5-23.4,23.2c-6.2,8.7-9.2,17-9.2,25c0,8,2.9,14,8.7,17.9c5.8,4,14,6.6,24.5,7.8
	c10.5,1.2,22.8,1.8,36.8,1.8c14.3,0,24.6,1.1,31.2,3.4c6.5,2.3,9.8,7.8,9.8,16.5c0,5.3-1.6,9.5-4.7,12.7c-3.1,3.1-7.3,5.6-12.5,7.4
	c-5.2,1.8-10.9,3.1-17.2,3.8c-6.3,0.7-12.6,1.1-18.8,1.1c-10.6,0-18.2-1.9-22.8-5.6c-4.6-3.7-6.9-10-6.9-18.7c0-3.9,0.8-8,2.5-12.5
	c1.7-4.5,4.2-8.8,7.6-12.9l-19.6-1.8c-8.5,6-15.5,12.9-21,20.5c-5.6,7.6-8.3,15.8-8.3,24.5c0,8.5,2.4,15.4,7.2,20.8
	c4.8,5.4,12.3,9.5,22.3,12.1C5588.9,328.4,5601.7,329.8,5617.1,329.8z M5493.2,57.6c7.5,0,13.9-2.4,19.2-7.1c5.3-4.7,8-11.5,8-20.5
	s-2.7-15.8-8-20.5c-5.3-4.7-11.7-7.1-19.2-7.1c-7.7,0-14.3,2.4-19.8,7.1c-5.4,4.7-8.2,11.5-8.2,20.5s2.7,15.8,8.2,20.5
	C5478.9,55.2,5485.4,57.6,5493.2,57.6z M5466.7,263.4h54.7v-0.7c-1-5.1-1.7-9.9-2.2-14.5c-0.5-4.6-0.8-9.7-1.1-15.4
	c-0.2-5.7-0.4-12.7-0.4-21.2v-92.8v-29c0-3.4-0.7-5.9-2.2-7.6c-1.4-1.7-4.2-2.4-8.3-2.2c-6.8,0.2-13.5,0.8-20.3,1.6
	c-6.8,0.8-13.7,1.4-20.7,1.6v1.4c1.4,8,2.6,15.9,3.4,23.9c0.8,8,1.4,16.9,1.6,26.8V212c-0.2,7.5-0.5,14.1-0.9,19.8
	c-0.4,5.7-0.8,11-1.4,15.9c-0.6,5-1.4,10-2.4,15V263.4z M5360.2,123.5c4.8,0,8.6,0.8,11.4,2.5c2.8,1.7,4.7,4.9,5.8,9.6
	c1.1,4.7,1.6,11.4,1.6,20.1v55.8c0,8.9-0.1,16.3-0.4,22.1c-0.2,5.8-0.7,10.9-1.4,15.2c-0.7,4.3-1.6,8.9-2.5,13.8v0.7h59.8v-0.7
	c-1.2-4.8-2.2-9.7-2.9-14.5c-0.7-4.8-1.3-10.1-1.6-15.9c-0.4-5.8-0.8-12.7-1.3-20.7v-73.9c0-22.2-3.8-37.7-11.4-46.4
	s-18.3-13-32.1-13c-9.4,0-18.1,1.9-25.9,5.6c-7.9,3.7-15,9.2-21.4,16.3c-6.4,7.1-12.3,15.5-17.6,25.2v22.1c3.4-4.1,7.4-8,12-11.8
	c4.6-3.7,9.4-6.7,14.3-8.9C5351.5,124.6,5356.1,123.5,5360.2,123.5z M5330.1,262.7c-1.2-4.8-2.1-9.4-2.7-13.8
	c-0.6-4.3-1-9.4-1.3-15.2c-0.2-5.8-0.5-13.2-0.7-22.1v-91h-2.2c0.5-5.6,0.9-10.8,1.3-15.6s0.5-9.2,0.5-13c0-4.3-0.8-7.5-2.5-9.4
	c-1.7-1.9-4.7-2.9-9.1-2.9c-7.5,0.2-14.9,0.7-22.1,1.3c-7.2,0.6-14.6,1.5-22.1,2.7v1.1c1.9,7.7,3.4,15.5,4.3,23.4
	c1,7.9,1.7,16.9,2.2,27v76.5c-0.2,8-0.7,14.9-1.3,20.7c-0.6,5.8-1.3,11.1-2,15.9c-0.7,4.8-1.6,9.7-2.5,14.5v0.7h60.2V262.7z
	 M5196.7,214.5c-3.9,2.7-7.2,4.5-10.1,5.4s-6.2,1.4-9.8,1.4c-5.6,0-9.8-1.6-12.7-4.9c-2.9-3.3-4.8-8.5-5.8-15.8
	c-1-7.2-1.4-16.9-1.4-29c0-12.6,0.1-23.7,0.2-33.5c0.1-9.8,0.4-18.7,0.7-26.8c0.4-8.1,0.7-15.6,0.9-22.5c0.2-6.9,0.5-13.6,0.9-20.1
	c0.4-6.5,0.8-13,1.3-19.6h-12l-60.5,44.9v22.5l29,3.3l-12-11.6c-0.7,12.1-1.3,23.3-1.8,33.7s-0.8,20.5-0.9,30.4
	c-0.1,9.9-0.2,20.1-0.2,30.4c0,18.1,2.4,31.8,7.2,41c4.8,9.2,11.7,15.3,20.7,18.3c8.9,3,19.6,4.5,31.9,4.5c5.6,0,11.8-0.8,18.8-2.4
	c7-1.6,12.6-3.8,16.7-6.7c2.2-7,3.1-14.4,2.9-22.1c-0.2-7.7-1.3-14.7-3.3-21H5196.7z M5197.4,79c-6.5,1-14.1,1.9-22.7,2.7
	c-8.6,0.8-16.2,1.6-23,2.4c-6.8,0.7-11.1,1.1-13,1.1l4.3,34.8c5.3,1,11.2,1.9,17.6,2.7s12.6,1.5,18.5,2c5.9,0.5,11.1,0.7,15.4,0.7
	c1.7-4.8,3-9.6,3.8-14.3s1.3-10,1.3-15.8c0-2.7-0.2-5.3-0.5-7.8C5198.7,84.9,5198.2,82.1,5197.4,79z M5026.4,147.5
	c-10.6-4.1-17.4-7.3-20.3-9.6c-2.9-2.3-4.3-4.7-4.3-7.1c0-2.7,1.1-4.7,3.4-6.2c2.3-1.4,6.5-2.2,12.5-2.2c9.9,0,18.4,1.3,25.4,4
	c7,2.7,13.4,6.4,19.2,11.2h2.9c2.4-4.1,4.2-9.7,5.4-16.9c1.2-7.1,1.8-14.9,1.8-23.4c-1.7-3.9-4.6-7.2-8.7-10
	c-4.1-2.8-9.7-4.9-16.7-6.3c-7-1.4-15.7-2.2-26.1-2.2c-14.3,0-26.8,2.1-37.7,6.3c-10.9,4.2-19.5,10.7-25.7,19.4
	c-6.3,8.7-9.4,19.7-9.4,33c0,8.7,1.6,16.6,4.7,23.6c3.1,7,8.3,13.3,15.6,18.8c7.2,5.6,17,10.9,29.4,15.9c7.2,2.9,12.6,5.3,16.1,7.1
	c3.5,1.8,5.7,3.5,6.7,5.1c1,1.6,1.4,3.2,1.4,4.9c0,1.7-0.7,3.2-2.2,4.5c-1.4,1.3-3.5,2.3-6.2,2.9s-5.8,0.9-9.4,0.9
	c-7.2,0-13.5-0.5-18.8-1.4c-5.3-1-10.1-2.7-14.5-5.3c-4.3-2.5-8.5-6-12.3-10.3h-2.9c-2.4,3.9-4.5,10-6.3,18.3
	c-1.8,8.3-2.7,17-2.7,25.9c2.4,3.9,6.4,7.2,12,10c5.6,2.8,12.6,4.8,21,6.2c8.5,1.3,18.4,2,29.7,2c22.5,0,39.8-5.2,52-15.6
	c12.2-10.4,18.3-25,18.3-43.9c0-11.8-2-21.3-6-28.5c-4-7.1-10-13-17.9-17.6C5047.8,156.6,5038,152.1,5026.4,147.5z M4813.3,266.3
	c11.1,0,20.7-2.6,28.6-7.8c8-5.2,16.8-14.6,26.5-28.1l-1.1-18.8c-3.4,2.9-6.3,5.1-8.9,6.5s-4.8,2.5-6.9,3.1
	c-2.1,0.6-3.9,0.9-5.6,0.9c-5.6,0-9.2-1.3-10.9-4s-2.5-6.6-2.5-12c0-7.2,2.6-13.4,7.8-18.5c5.2-5.1,14.3-7.4,27.4-6.9l6.5-24.3
	c-22.2,0.7-40.9,3.6-56,8.7c-15.1,5.1-26.5,12.3-34.2,21.7c-7.7,9.4-11.6,21.5-11.6,36.2c0,13.8,3.4,24.4,10.3,31.9
	C4789.5,262.6,4799.7,266.3,4813.3,266.3z M4789,151.4h4.7c2.9-8,7.4-13.3,13.6-16.1c6.2-2.8,14.7-4.2,25.6-4.2
	c10.1,0,17,1.5,20.7,4.5c3.6,3,5.4,8.6,5.4,16.9l0.7,69.6l4,3.3v4.3c0,6.8,1,12.9,2.9,18.5c1.9,5.6,5.5,10,10.7,13.2
	c5.2,3.3,12.4,4.9,21.6,4.9c7,0,14-2.1,21-6.3c7-4.2,14-11.8,21-22.7l-2.5-4.3c-3.4,0.5-6.1,0.2-8.2-0.7c-2.1-1-3.9-2.9-5.4-5.8
	c-1.6-2.9-2.7-7-3.4-12.3c-1-8-1.6-16.3-1.8-25c-0.2-8.7-0.2-17.4,0-26.1c0.2-8.7,0.4-16.9,0.4-24.6c0-14.5-2.5-26.2-7.6-35.2
	c-5.1-8.9-12.6-15.5-22.5-19.6c-9.9-4.1-22.2-6.2-37-6.2c-7.7,0-16.1,0.5-25.2,1.4c-9.1,1-17.3,2.6-24.8,4.9
	c-7.5,2.3-13,5.5-16.7,9.6c-1.7,3.9-2.8,7.6-3.4,11.1c-0.6,3.5-0.9,6.9-0.9,10.3c0,7,0.7,13.7,2,20.1
	C4785.1,141.4,4786.8,146.9,4789,151.4z M4737.2,267.8c10.6,0,17.2-3.3,19.8-9.8c2.5-6.5,3.8-15.2,3.8-26.1c0-8.5-0.1-16.2-0.4-23.4
	c-0.2-7.1-0.7-15-1.4-23.7h-8.7c-1,8-2.3,14-4,18.1c-1.7,4.1-4.4,6.9-8.2,8.5s-9.4,2.7-16.9,3.4c-8.2,1-15.2,1.6-20.8,2
	c-5.7,0.4-11.3,0.6-16.9,0.7c-5.6,0.1-12.2,0.2-19.9,0.2l-46.8,45.7c8.7,0,17.3,0.1,25.7,0.4c8.5,0.2,16.7,0.6,24.8,1.1
	s16.1,1,23.9,1.4c7.9,0.5,15.6,0.8,23.2,1.1C4722.1,267.7,4729.7,267.8,4737.2,267.8z M4611.4,263.4h102.2v-10.1
	c-3.4-0.7-6.2-1.6-8.5-2.7c-2.3-1.1-4.1-2.8-5.4-5.3c-1.3-2.4-2.1-5.9-2.4-10.5V100.3h-69.6v134.5c-0.2,4.6-1,8.1-2.4,10.5
	c-1.3,2.4-3.1,4.2-5.4,5.3c-2.3,1.1-5.1,2-8.5,2.7V263.4z M4627.7,191h69.6V60.1c0.5-6,1.5-10.4,3.1-13.2c1.6-2.8,3.9-4.8,6.9-6
	c3-1.2,6.6-2.2,10.7-2.9V27.9h-106.6V38c3.4,0.7,6.2,1.6,8.5,2.7c2.3,1.1,4.1,2.8,5.4,5.3c1.3,2.4,2.1,5.9,2.4,10.5V191z"/>
</svg>
