<svg xmlns="http://www.w3.org/2000/svg" width="29.22967cm" height="7.93898cm" viewBox="0 0 828.55743 225.04187"><title>alex-menu</title><path d="M855.8909,129.57246q-15.5112-8.402-20.84317-15.51125t-5.332-18.41955q0-12.92607,8.56355-18.41956t22.78207-5.49358a84.46644,84.46644,0,0,1,18.09642,1.77734,74.32645,74.32645,0,0,1,17.12693,6.30142h.64636a19.0171,19.0171,0,0,0,1.9389-4.84722,24.03176,24.03176,0,0,0,.64628-5.81672A61.09711,61.09711,0,0,0,887.8828,64.4576,97.03448,97.03448,0,0,0,875.28,61.71086a80.99129,80.99129,0,0,0-11.95657-.96942q-16.4806,0-26.65988,5.33193T821.96018,80.292A41.77126,41.77126,0,0,0,817.436,99.51947a38.35428,38.35428,0,0,0,3.55467,16.15751q3.55467,7.75554,12.11814,15.34959T856.53726,145.73a184.57848,184.57848,0,0,1,21.32787,12.11814q7.75566,5.33189,10.98716,11.63335t3.23145,15.67281q0,10.98711-4.68565,16.96544a24.75446,24.75446,0,0,1-12.926,8.40189,67.1077,67.1077,0,0,1-18.90435,2.42361,85.066,85.066,0,0,1-13.24911-.96949,68.91683,68.91683,0,0,1-12.11814-3.06988,97.13568,97.13568,0,0,1-12.76449-5.65515h-.64628a29.263,29.263,0,0,0-2.10047,5.65515,24.65516,24.65516,0,0,0-.80784,6.30142,46.752,46.752,0,0,0,11.14864,5.00879,90.479,90.479,0,0,0,14.54175,3.23153,117.67318,117.67318,0,0,0,16.64222,1.13107q21.97424,0,35.385-10.3408t13.41077-31.34563q0-13.57224-5.332-21.97423T883.52028,145.5684Q872.69478,138.62067,855.8909,129.57246Zm-102.11545,5.81663h21.00473V88.53231l.32314-24.88255a4.69511,4.69511,0,0,0-.4847-2.58518q-.48471-.64632-3.71625,0-4.20086.3231-8.56346.96941t-8.56346,1.29263v72.06247Zm6.13985,88.5432q4.201-.3231,8.24033-.96941t8.24032-1.29263l-.32313-1.61577q-.64632-6.78614-.9695-14.86489t-.32314-16.15751V106.95187H753.77545v89.18955H755.068q0,6.78614.16156,13.41069t.48479,11.795a6.54356,6.54356,0,0,0,.80785,2.58518Q757.0069,224.57861,759.9153,223.93229Zm-96.622-88.5432h21.328V63.64976a4.69484,4.69484,0,0,0-.48479-2.58518q-.48471-.64632-3.71624,0-4.20087.3231-8.4019.96941-4.20086.64632-8.725,1.29263v72.06247Zm35.86971,89.51269a55.17094,55.17094,0,0,0,22.1358-4.8473,102.69773,102.69773,0,0,0,21.651-12.926,109.58953,109.58953,0,0,0,18.58121-18.09642l-3.23154-11.95657a98.01539,98.01539,0,0,1-15.99595,14.54175,85.57773,85.57773,0,0,1-18.58112,10.3408,50.34655,50.34655,0,0,1-18.7427,3.87781q-11.95665,0-16.15751-8.07876t-4.201-29.40663V106.95187h-21.328V176.1061q0,26.82141,8.725,37.80853T699.16305,224.90178ZM505.596,216.823l29.0835-2.58517V83.03881h-1.93891q.64632-12.603.9695-24.39792t.64627-22.13572q.32322-10.34092.48471-18.58121t.16157-12.76441a3.83474,3.83474,0,0,0-.48471-2.42361q-.48471-.48471-3.71624-.16157-6.13981.64632-12.44128,1.29255T505.596,4.83641V216.823Zm46.85678,9.04817q19.71219,0,34.09237-6.94769a59.72915,59.72915,0,0,0,23.59-20.35846q9.20978-13.41078,13.73382-32.15347a179.37144,179.37144,0,0,0,4.52417-42.00956q0-24.55936-6.46307-38.93959Q615.46714,71.08225,604.9647,65.104a45.89006,45.89006,0,0,0-23.10521-5.97828,52.13532,52.13532,0,0,0-29.08358,8.8866,148.967,148.967,0,0,0-25.20568,20.84317l2.58517,15.1881a60.35592,60.35592,0,0,1,18.7427-13.08763,52.58642,52.58642,0,0,1,21.97423-5.00879q14.21869,0,21.00482,10.98707t6.78613,39.10125q0,25.20568-5.17044,40.39379T579.27423,198.2419a34.6104,34.6104,0,0,1-21.00474,6.62456,42.24649,42.24649,0,0,1-14.54175-2.58518,52.45235,52.45235,0,0,1-13.57234-7.43249L505.596,216.823a75.42016,75.42016,0,0,0,14.86489,5.17036,138.66038,138.66038,0,0,0,16.48065,2.9084A136.0237,136.0237,0,0,0,552.45277,225.87119ZM386.03035,154.13187q29.08357,1.29262,48.79573-3.07t29.72985-15.996q10.01759-11.63343,10.01766-32.315t-11.795-32.315q-11.795-11.63343-37.647-11.63335-21.32792,0-38.13175,9.856T360.66306,98.06527q-9.53293,19.55058-9.53292,48.63411a166.60558,166.60558,0,0,0,2.90836,31.9919,69.3455,69.3455,0,0,0,10.3408,25.852,48.07716,48.07716,0,0,0,20.84321,16.96536q13.41071,5.97832,34.7386,5.97828a115.84528,115.84528,0,0,0,19.06591-1.61577,112.921,112.921,0,0,0,17.77329-4.36251,53.1114,53.1114,0,0,0,13.57225-6.62456,63.09689,63.09689,0,0,0,.80793-17.28858,58.13258,58.13258,0,0,0-3.07-14.38018h-.32314a52.19509,52.19509,0,0,1-17.61171,9.69453,68.57539,68.57539,0,0,1-22.1358,3.55467q-15.188,0-23.75153-5.17044t-11.795-17.61172q-3.23151-12.44123-3.23149-34.4155,0-16.80371,3.06992-28.27565t10.01767-17.45007q6.94767-5.97833,18.258-5.97828,6.463,0,10.3408,2.42361a12.38755,12.38755,0,0,1,5.332,6.78613,34.62577,34.62577,0,0,1,1.45411,10.82558q0,10.98713-6.94769,16.80379t-18.258,7.59406a160.83569,160.83569,0,0,1-24.88259,1.77733Zm-66.569-37.80861q3.55468,0,7.10931.32313a34.40136,34.40136,0,0,1,6.78617,1.29263h.64631a122.43436,122.43436,0,0,0,2.90836-17.77328q.9694-10.01771.96945-21.328,0-4.52407-.48474-9.69444a70.70078,70.70078,0,0,0-2.10048-11.31029,47.47936,47.47936,0,0,0-16.80383,2.90839,40.92869,40.92869,0,0,0-13.89543,8.725,63.63786,63.63786,0,0,0-10.98712,14.057,88.70689,88.70689,0,0,0-8.07876,18.58113l-.64631,26.82145a49.10514,49.10514,0,0,1,15.51124-9.04817A53.36312,53.36312,0,0,1,319.46138,116.32326ZM301.04182,222.63974a134.18683,134.18683,0,0,1-4.68565-14.057,105.35538,105.35538,0,0,1-2.74679-14.7034q-.96946-8.07876-1.29259-20.35846v-75.294h-5.81671a47.7627,47.7627,0,0,0,.96945-9.37139q0-4.52409.16157-8.4019t.16157-7.4324q0-6.78626-2.74679-10.17923-2.74676-3.39319-9.53292-3.39311-10.01765,0-20.03533.96942t-20.03532,2.58526v.96941a171.18379,171.18379,0,0,1,5.1704,20.03532,172.20832,172.20832,0,0,1,2.58522,24.55942v68.18473a178.75063,178.75063,0,0,1-1.4542,19.87376q-1.131,7.91715-2.58518,14.057t-3.06993,11.95657v.64627h64.9532ZM203.45046,77.54523h8.40189a80.09247,80.09247,0,0,0,3.2315-13.08763q1.29263-7.59393,2.10047-15.67272t.80788-15.18811q0-11.31021-.32313-17.77328a70.08028,70.08028,0,0,0-1.29264-10.98708H208.944a7.2985,7.2985,0,0,1-4.36251,4.68566q-3.07,1.131-11.795,1.77733-11.63351.64632-26.98307,1.61577t-33.28448,1.61577q-17.93492.64632-37.647.32314L122.986,54.60151q1.61572,0,9.37135-.16157t18.09642,0q10.34093.16161,20.35847.80793a125.27916,125.27916,0,0,1,20.35846,2.262q7.10934,1.61573,9.69452,6.13985T203.45046,77.54523Zm-17.77329,68.50788h6.78617a80.15208,80.15208,0,0,0,4.36252-14.7034,88.07142,88.07142,0,0,0,1.77733-17.93477q0-12.27975-2.74679-16.6423t-10.82554-4.36252q-9.37146,0-23.26683,1.29263-13.89553,1.29263-29.08353,3.06989t-28.76036,3.07l-4.201,31.66876q1.93888,0,11.795.16157t23.10521.32314q13.24929.16161,25.52891.4847a136.99744,136.99744,0,0,1,15.5112,1.13106q5.17039.80781,7.1093,3.5546T185.67717,146.05311ZM206.682,227.16382q9.0483,0,11.795-10.3408,2.74681-10.34079,2.74679-28.11408,0-8.07876-.32314-15.34967t-.96945-14.38018h-6.13985q-1.93888,10.664-5.81672,14.865T196.018,179.01441q-8.07882.96942-21.651,1.61577-10.98719.64632-22.1358.32314-11.1488-.3231-19.389-1.13106-8.24043-.80781-9.8561-1.131l4.201,44.59473a119.57428,119.57428,0,0,1,12.60288,0q8.402.3231,18.58113.96942,10.17932.6463,20.1969,1.29263,10.01776.64631,17.61167,1.13106T206.682,227.16382ZM76.45237,223.286H153.039V14.85408H76.45237v9.04817a35.05631,35.05631,0,0,1,7.594,2.42361A10.91091,10.91091,0,0,1,88.89364,30.85q1.77735,3.06986,2.10048,9.53288V197.75711q-.32316,6.13993-2.10048,9.37139a10.70927,10.70927,0,0,1-4.84726,4.68565,35.05165,35.05165,0,0,1-7.594,2.4237Z" transform="translate(-76.45237 -2.44509)" style="fill:#f4f4f4"/></svg>