<svg xmlns="http://www.w3.org/2000/svg" width="544.50275cm" height="12.07462cm" viewBox="0 0 15434.72358 342.27258"><rect width="15434.72358" height="342.27258" style="fill:#e9e9e9"/><path d="M118.56592,237.55913l10.99975,3.0249v7.69971H92.1665V240.584l14.84967-3.0249L101.79126,86.31255H99.04132L75.39186,246.35893H71.267L48.99243,86.31255H46.24249L40.46762,237.834l17.59962,2.75v7.69971H23.693V240.584l9.89978-3.0249L40.46762,60.73784,22.318,42.03813H53.39235L73.4669,190.25981h3.84992L97.66638,49.73833H78.96678v-7.7002h44.274v7.7002H111.96606Z" transform="translate(0.00048 -0.00008)" style="fill:#f9ff10"/><path d="M158.43908,252.68364c-15.12463,0-23.37445-28.87451-23.37445-78.37305,0-46.47412,8.52478-81.67334,22.82447-81.67334,15.12469,0,23.37451,28.87451,23.37451,78.37305C181.26361,217.48442,172.73877,252.68364,158.43908,252.68364Zm13.47474-55.27393c0-39.04882-4.67493-92.39795-18.97461-92.39795-6.87482,0-8.52478,11.54981-8.52478,42.624,0,39.04931,4.67486,92.398,18.97454,92.398C170.26385,240.03374,171.91382,228.48442,171.91382,197.40971Z" transform="translate(0.00048 -0.00008)" style="fill:#f9ff10"/><path d="M213.43829,252.68364c-15.12469,0-23.37451-28.87451-23.37451-78.37305,0-46.47412,8.52484-81.67334,22.82452-81.67334,15.12464,0,23.37445,28.87451,23.37445,78.37305C236.26275,217.48442,227.738,252.68364,213.43829,252.68364ZM226.913,197.40971c0-39.04882-4.67486-92.39795-18.97455-92.39795-6.87488,0-8.52484,11.54981-8.52484,42.624,0,39.04931,4.67493,92.398,18.97461,92.398C225.263,240.03374,226.913,228.48442,226.913,197.40971Z" transform="translate(0.00048 -0.00008)" style="fill:#f9ff10"/><path d="M326.73614,227.93413h9.89978v9.625l-20.07458,14.29931V114.91167c0-6.59961-3.84992-9.89991-9.89978-9.89991a9.85767,9.85767,0,0,0-7.42481,3.3003l-5.49988,13.74951V227.10942l7.14985,21.17432H276.41223l7.14984-21.17432V114.63676c0-6.3247-3.84991-9.625-9.89978-9.625a9.85762,9.85762,0,0,0-7.4248,3.3003l-5.49988,13.74951V227.10942l7.14984,21.17432H243.413l7.14984-21.17432V114.36186H240.663v-7.4248l20.07459-15.94971v17.32471h4.67486l.55-1.375c4.94989-9.89991,7.42487-14.29981,14.29968-14.29981,7.42487,0,13.47473,6.32471,13.47473,15.67481h4.67487l.55-1.375c4.94989-9.89991,7.42486-14.29981,14.29968-14.29981,7.42487,0,13.47473,6.32471,13.47473,15.94971Z" transform="translate(0.00048 -0.00008)" style="fill:#f9ff10"/><path d="M340.2127,248.28374l7.14985-21.17432V114.36186h-9.89978v-7.4248l20.07452-15.94971V227.10942l7.14984,21.17432Zm1.65-195.24561a10.17478,10.17478,0,1,1,10.17474,10.17481A9.98215,9.98215,0,0,1,341.86267,53.03813Z" transform="translate(0.00048 -0.00008)" style="fill:#f9ff10"/><path d="M421.8825,227.93413h9.89978v9.625l-20.07452,14.29931V114.91167c0-6.59961-3.84991-9.89991-9.89978-9.89991a9.85771,9.85771,0,0,0-7.42487,3.3003l-6.59985,14.5747V227.10942l7.14984,21.17432H370.45868l7.14984-21.17432V114.36186h-9.89978v-7.4248l20.07452-15.94971v17.32471h5.7749l.55-1.375c4.94989-9.89991,7.42481-14.29981,14.29968-14.29981,7.42481,0,13.47467,6.32471,13.47467,15.94971Z" transform="translate(0.00048 -0.00008)" style="fill:#f9ff10"/><path d="M439.20624,241.13383v-39.874h.825l3.29992,15.12451c3.02491,14.02491,7.69983,23.09961,14.29969,23.09961,5.7749,0,6.87487-6.875,6.87487-17.87451,0-14.57471-6.87487-28.87451-12.37475-40.42432l-4.67493-9.8999c-6.87482-14.57422-12.09967-23.64941-12.09967-39.32373,0-17.0498,5.77484-39.32422,19.52454-39.32422,5.77484,0,11.27472,4.94971,12.64972,11.2749v42.34864h-.825l-3.29992-15.39942c-3.575-16.22461-7.69983-25.29931-14.29968-25.29931-5.77491,0-6.87488,6.87451-6.87488,13.47461,0,15.12451,8.52478,30.52441,14.5747,42.89892l5.77485,11.82471c5.22491,10.7251,9.34979,25.29932,9.34979,36.29932,0,20.0747-6.32483,42.624-20.07459,42.624C446.08105,252.68364,440.58117,247.45854,439.20624,241.13383Z" transform="translate(0.00048 -0.00008)" style="fill:#f9ff10"/><path d="M493.93011,156.16069v-9.8999h14.84973c3.84986-32.44922,13.19971-53.62354,24.19947-53.62354,14.84961,0,17.87457,28.04932,15.67462,52.79883h2.47491l15.67469-35.74951v35.74951h30.24932c-1.925-34.64941-6.87481-62.14893-15.39965-62.14893-3.29993,0-6.32489,2.2002-10.17475,9.89991l-2.75,5.5,1.1-11.54981c1.65-6.0498,7.69983-19.24951,14.84973-19.24951,13.19971,0,21.44946,23.09961,22.54944,77.54834h12.92474v10.72461H607.2276V158.086c0,77.54785-13.47467,143.822-50.59888,143.822-32.17425,0-49.77386-45.64965-49.77386-121.5476,0-8.52491.275-16.5.825-24.19971Zm43.999-8.7998c0-25.57422-4.12488-42.34913-11.27472-42.34913-8.79981,0-9.3498,25.57471-9.3498,50.874ZM517.30462,156.711c0,84.14795,14.02466,131.17163,41.79908,131.17163,31.3493,0,38.49914-50.87378,38.49914-114.39721,0-5.77491,0-11.54981-.275-17.32471H566.80353v69.84863c0,13.47461,1.92492,16.49951,6.87487,16.49951,3.29993,0,6.59986-1.9248,10.17475-9.8999l2.47491-5.49951-.825,11.54932c-1.65,6.05029-7.14984,19.25-17.04962,19.25-6.04987,0-11.82477-6.3252-11.82477-16.2251v-85.523h-39.3241Z" transform="translate(0.00048 -0.00008)" style="fill:#f9ff10"/><path d="M667.451,252.68364c-15.1247,0-23.37452-28.87451-23.37452-78.37305,0-46.47412,8.52478-81.67334,22.82447-81.67334,15.12469,0,23.37451,28.87451,23.37451,78.37305C690.27545,217.48442,681.75067,252.68364,667.451,252.68364Zm13.47467-55.27393c0-39.04882-4.67487-92.39795-18.97455-92.39795-6.87488,0-8.52484,11.54981-8.52484,42.624,0,39.04931,4.67486,92.398,18.97455,92.398C679.27569,240.03374,680.92566,228.48442,680.92566,197.40971Z" transform="translate(0.00048 -0.00008)" style="fill:#f9ff10"/><path d="M727.40167,97.03715h18.14966v8.25c-7.69983,41.79883-19.24964,101.47266-26.94947,142.99659H712.277L691.3775,97.03715H713.377l-8.7998,25.57422,10.72473,82.77344h5.22491L731.52661,140.211Z" transform="translate(0.00048 -0.00008)" style="fill:#f9ff10"/><path d="M787.34912,147.086l-.825,9.07471h-30.5243v.55029c0,35.47412,3.575,80.57325,15.12464,80.57325,3.29992,0,6.32489-2.2002,10.1748-9.89991l2.74994-5.5-1.1,11.54981c-1.65,6.0498-7.69983,19.24951-14.84967,19.24951-14.29969,0-22.5495-26.67432-22.5495-72.32324,0-51.14893,11.54974-87.72315,26.12445-87.72315C787.34912,92.63725,789.54907,124.26128,787.34912,147.086Zm-31.34931,8.79981,20.62452-8.5249V147.086c.825-25.29931-4.12488-42.07422-11.27472-42.07422C756.5498,105.01176,755.99981,130.58647,755.99981,155.88579Z" transform="translate(0.00048 -0.00008)" style="fill:#f9ff10"/><path d="M817.87042,117.11186l-5.7749,14.57471V233.709l16.22461,14.57471h-33.5492l7.14978-21.17432V114.36186h-9.89978v-7.4248l20.07459-15.94971v24.47412h5.49988a92.93008,92.93008,0,0,1,6.87487-16.77441c3.02491-5.77491,6.59986-10.44971,10.44971-12.92481v29.69922c-13.74963,0-15.12463,0-16.49963.27539Z" transform="translate(0.00048 -0.00008)" style="fill:#f9ff10"/><path d="M861.31817,174.0352c0-47.84863,10.72473-81.398,24.47449-81.398,6.32483,0,11.27478,4.94971,12.64966,11.2749v42.07374h-.82495l-2.74988-14.84961c-3.025-16.49952-7.69983-26.12452-14.29968-26.12452-7.97486,0-9.34986,17.32471-9.34986,40.97413,0,36.29931,4.12488,91.29834,16.77466,91.29834,3.29993,0,6.59986-1.9253,10.17481-9.89991l2.47485-5.5-.825,11.54981c-1.6499,6.0498-7.42481,19.24951-14.57471,19.24951C870.118,252.68364,861.31817,223.53423,861.31817,174.0352Z" transform="translate(0.00048 -0.00008)" style="fill:#f9ff10"/><path d="M930.61725,117.11186l-5.77491,14.57471V233.709L941.067,248.28374H907.51776l7.14978-21.17432V114.36186h-9.89978v-7.4248l20.07458-15.94971v24.47412h5.49988a92.93081,92.93081,0,0,1,6.87488-16.77441c3.0249-5.77491,6.59985-10.44971,10.44971-12.92481v29.69922c-13.74964,0-15.12464,0-16.49964.27539Z" transform="translate(0.00048 -0.00008)" style="fill:#f9ff10"/><path d="M972.41583,252.68364c-15.12463,0-23.37451-28.87451-23.37451-78.37305,0-46.47412,8.5249-81.67334,22.82458-81.67334,15.12464,0,23.37439,28.87451,23.37439,78.37305C995.24029,217.48442,986.71551,252.68364,972.41583,252.68364Zm13.47473-55.27393c0-39.04882-4.67493-92.39795-18.97461-92.39795-6.87488,0-8.52478,11.54981-8.52478,42.624,0,39.04931,4.67493,92.398,18.97461,92.398C984.24054,240.03374,985.89056,228.48442,985.89056,197.40971Z" transform="translate(0.00048 -0.00008)" style="fill:#f9ff10"/><path d="M1006.51544,241.13383v-39.874h.82495l3.29993,15.12451c3.0249,14.02491,7.69983,23.09961,14.29968,23.09961,5.7749,0,6.87488-6.875,6.87488-17.87451,0-14.57471-6.87488-28.87451-12.37476-40.42432l-4.67492-9.8999c-6.87476-14.57422-12.09974-23.64941-12.09974-39.32373,0-17.0498,5.77491-39.32422,19.52454-39.32422,5.7749,0,11.27478,4.94971,12.64978,11.2749v42.34864h-.82495l-3.29993-15.39942c-3.57495-16.22461-7.69983-25.29931-14.29968-25.29931-5.7749,0-6.87488,6.87451-6.87488,13.47461,0,15.12451,8.52478,30.52441,14.57471,42.89892l5.7749,11.82471c5.22485,10.7251,9.34973,25.29932,9.34973,36.29932,0,20.0747-6.32483,42.624-20.07458,42.624C1013.3902,252.68364,1007.89044,247.45854,1006.51544,241.13383Z" transform="translate(0.00048 -0.00008)" style="fill:#f9ff10"/><path d="M1049.14007,241.13383v-39.874h.825l3.29993,15.12451c3.0249,14.02491,7.69983,23.09961,14.29968,23.09961,5.77491,0,6.87488-6.875,6.87488-17.87451,0-14.57471-6.87488-28.87451-12.37475-40.42432l-4.67493-9.8999c-6.87488-14.57422-12.09973-23.64941-12.09973-39.32373,0-17.0498,5.7749-39.32422,19.52466-39.32422,5.77478,0,11.27465,4.94971,12.64965,11.2749v42.34864h-.82495l-3.29992-15.39942c-3.575-16.22461-7.69983-25.29931-14.29969-25.29931-5.7749,0-6.87487,6.87451-6.87487,13.47461,0,15.12451,8.52478,30.52441,14.5747,42.89892l5.77478,11.82471c5.225,10.7251,9.34986,25.29932,9.34986,36.29932,0,20.0747-6.32483,42.624-20.07459,42.624C1056.015,252.68364,1050.515,247.45854,1049.14007,241.13383Z" transform="translate(0.00048 -0.00008)" style="fill:#f9ff10"/><path d="M1088.46478,248.28374l7.14978-21.17432V114.36186h-9.89978v-7.4248l20.07458-15.94971V227.10942l7.14991,21.17432Zm1.6499-195.24561a10.17481,10.17481,0,1,1,10.17481,10.17481A9.98217,9.98217,0,0,1,1090.11468,53.03813Z" transform="translate(0.00048 -0.00008)" style="fill:#f9ff10"/><path d="M1170.13458,227.93413h9.89978v9.625l-20.07458,14.29931V114.91167c0-6.59961-3.84986-9.89991-9.89979-9.89991a9.85766,9.85766,0,0,0-7.4248,3.3003l-6.59985,14.5747V227.10942l7.14978,21.17432h-24.47437l7.14978-21.17432V114.36186h-9.89978v-7.4248l20.07459-15.94971v17.32471h5.7749l.54993-1.375c4.95-9.89991,7.4248-14.29981,14.29968-14.29981,7.42493,0,13.47473,6.32471,13.47473,15.94971Z" transform="translate(0.00048 -0.00008)" style="fill:#f9ff10"/><path d="M1219.63263,243.334c15.94958,6.59961,18.97448,15.39941,18.97448,32.72437,0,34.92382-13.74963,59.39843-24.74939,59.39843-19.24963,0-27.77441-29.14941-27.77441-44.54883,0-21.72485,2.19995-26.94946,15.39966-39.59936L1183.88336,228.209l17.32458-24.74951c-10.99975-6.59961-16.22461-29.42432-16.22461-52.79883,0-28.59912,7.97486-58.02344,23.92444-58.02344,15.39966,0,22.82447,26.94922,22.82447,54.72364,0,28.5996-7.97474,58.02392-23.92444,58.02392a12.83968,12.83968,0,0,1-4.67493-.82519l-1.6499,6.60009c-4.67493,19.79932-6.32483,21.99952,8.7998,28.32422Zm-5.77491-50.59912c6.32483,0,8.52478-6.875,8.52478-24.47461,0-27.499-6.32482-63.24854-19.24963-63.24854-6.32483,0-8.52478,6.875-8.52478,24.47461C1194.60809,156.98589,1200.93292,192.73491,1213.85772,192.73491Zm15.67456,89.92309c0-11.54956-2.19995-21.99975-12.0996-26.39965l-13.47474-6.04981-2.19995,9.8999c-2.2,10.44971-3.025,17.04956-3.025,23.37476,0,22.82422,6.04993,44.27344,17.87463,44.27344C1225.13238,327.75664,1229.53228,309.60722,1229.53228,282.658Zm10.44983-214.49536V98.68706h-19.52453Z" transform="translate(0.00048 -0.00008)" style="fill:#f9ff10"/><path d="M1263.62957,248.28374l7.14979-21.17432V114.36186h-9.89979v-7.4248l20.07459-15.94971V227.10942l7.1499,21.17432Zm1.64991-195.24561a10.17481,10.17481,0,1,1,10.1748,10.17481A9.98216,9.98216,0,0,1,1265.27948,53.03813Z" transform="translate(0.00048 -0.00008)" style="fill:#f9ff10"/><path d="M1345.29937,227.93413h9.89978v9.625l-20.07458,14.29931V114.91167c0-6.59961-3.84985-9.89991-9.89978-9.89991a9.85762,9.85762,0,0,0-7.4248,3.3003l-6.59986,14.5747V227.10942l7.14978,21.17432h-24.47436l7.14978-21.17432V114.36186h-9.89978v-7.4248l20.07458-15.94971v17.32471h5.7749l.54993-1.375c4.94995-9.89991,7.42481-14.29981,14.29968-14.29981,7.42493,0,13.47473,6.32471,13.47473,15.94971Z" transform="translate(0.00048 -0.00008)" style="fill:#f9ff10"/><path d="M1355.74823,174.0352c0-47.84863,10.72473-81.398,24.47448-81.398,6.32483,0,11.27466,4.94971,12.64966,11.2749v42.07374h-.82495l-2.75-14.84961c-3.0249-16.49952-7.69971-26.12452-14.29956-26.12452-7.97485,0-9.34985,17.32471-9.34985,40.97413,0,36.29931,4.12488,91.29834,16.77466,91.29834,3.29992,0,6.59985-1.9253,10.1748-9.89991l2.47485-5.5-.82495,11.54981c-1.6499,6.0498-7.4248,19.24951-14.5747,19.24951C1364.548,252.68364,1355.74823,223.53423,1355.74823,174.0352Z" transform="translate(0.00048 -0.00008)" style="fill:#f9ff10"/><path d="M1401.94781,248.28374l7.14978-21.17432V114.36186h-9.89978v-7.4248l20.07459-15.94971V227.10942l7.14978,21.17432Zm1.6499-195.24561a10.17481,10.17481,0,1,1,10.17481,10.17481A9.98217,9.98217,0,0,1,1403.59771,53.03813Z" transform="translate(0.00048 -0.00008)" style="fill:#f9ff10"/><path d="M1435.49371,241.13383v-39.874h.82495l3.29993,15.12451c3.0249,14.02491,7.69983,23.09961,14.29968,23.09961,5.7749,0,6.87488-6.875,6.87488-17.87451,0-14.57471-6.87488-28.87451-12.37476-40.42432l-4.67492-9.8999c-6.87476-14.57422-12.09973-23.64941-12.09973-39.32373,0-17.0498,5.7749-39.32422,19.52453-39.32422,5.7749,0,11.27478,4.94971,12.64978,11.2749v42.34864h-.825l-3.29993-15.39942c-3.57495-16.22461-7.69983-25.29931-14.29968-25.29931-5.7749,0-6.87488,6.87451-6.87488,13.47461,0,15.12451,8.52478,30.52441,14.57471,42.89892l5.7749,11.82471c5.22486,10.7251,9.34973,25.29932,9.34973,36.29932,0,20.0747-6.32483,42.624-20.07458,42.624C1442.36847,252.68364,1436.86871,247.45854,1435.49371,241.13383Z" transform="translate(0.00048 -0.00008)" style="fill:#f9ff10"/><path d="M1499.01788,252.68364c-15.12476,0-23.37451-28.87451-23.37451-78.37305,0-46.47412,8.52478-81.67334,22.82446-81.67334,15.12476,0,23.37451,28.87451,23.37451,78.37305C1521.84234,217.48442,1513.31756,252.68364,1499.01788,252.68364Zm13.47461-55.27393c0-39.04882-4.6748-92.39795-18.97449-92.39795-6.87488,0-8.52478,11.54981-8.52478,42.624,0,39.04931,4.67481,92.398,18.97449,92.398C1510.84259,240.03374,1512.49249,228.48442,1512.49249,197.40971Z" transform="translate(0.00048 -0.00008)" style="fill:#f9ff10"/><path d="M1552.91705,117.11186l-5.7749,14.57471V233.709l16.22461,14.57471h-33.5492l7.14978-21.17432V114.36186h-9.89978v-7.4248l20.07459-15.94971v24.47412h5.49988a92.93008,92.93008,0,0,1,6.87487-16.77441c3.02491-5.77491,6.59986-10.44971,10.44971-12.92481v29.69922c-13.74963,0-15.12463,0-16.49963.27539Z" transform="translate(0.00048 -0.00008)" style="fill:#f9ff10"/><path d="M1575.46942,241.13383v-39.874h.825l3.29993,15.12451c3.0249,14.02491,7.69983,23.09961,14.29968,23.09961,5.7749,0,6.87488-6.875,6.87488-17.87451,0-14.57471-6.87488-28.87451-12.37476-40.42432l-4.67493-9.8999c-6.87487-14.57422-12.09973-23.64941-12.09973-39.32373,0-17.0498,5.77491-39.32422,19.52466-39.32422,5.77478,0,11.27466,4.94971,12.64966,11.2749v42.34864h-.82495l-3.29993-15.39942c-3.57495-16.22461-7.69983-25.29931-14.29968-25.29931-5.7749,0-6.87488,6.87451-6.87488,13.47461,0,15.12451,8.52478,30.52441,14.57471,42.89892l5.77478,11.82471c5.225,10.7251,9.34985,25.29932,9.34985,36.29932,0,20.0747-6.32483,42.624-20.07458,42.624C1582.3443,252.68364,1576.8443,247.45854,1575.46942,241.13383Z" transform="translate(0.00048 -0.00008)" style="fill:#f9ff10"/><path d="M1703.7182,122.03374h27.25l-4.25,13.25h-26.75l-27.75,85.75c-14,43.25-23.5,62.50024-69.25,96.50024l-13.5-26.75,31.75-14.75c24.5-11.25024,29.25-17.25024,29.5-36.75024l.25-20,26.75-84.25-23.75-4.75v-8.25l30.25-7c8.75-24.5,17-37,43.25-54l25.5-16.75,8.75,22.5-40,16.25c-15,6-15.75,8.75-17,24.25Z" transform="translate(0.00048 -0.00008)" style="fill:#f9ff10"/><path d="M1824.21649,124.28374l-13.75,26-11-4c-18.5-6.75-27.5,9.25-38.5,38.5l-23.75,63.5h-22.5l39.25-103.75h-27.25v-7.25l46.5-19.25h7.25l-20.5,43.75h5.5l5-9.25c15.25-28.75,28.25-34.5,38.5-34.5C1815.71649,118.03374,1820.71649,121.28374,1824.21649,124.28374Z" transform="translate(0.00048 -0.00008)" style="fill:#f9ff10"/><path d="M1903.46588,227.03374l28.75-12.75v7.25c-18.5,17.75-37.75,29.5-58.75012,30.25l18.00012-45h-5.25l-3.75,6.5c-18.75012,32.25-30.00012,39-44.25012,39-16.75,0-27-14.5-27-35.25,0-50,40-99,79.75012-99,12.25,0,23.5,3.75,31.5,13.75l11-19h10.5c-26.75,58.25-35.5,79.5-39,104.5Zm-13.75-39.75,17.5-35.5c-6-16.5-12.5-24-22.75-24-21.75012,0-48.75012,45-48.75012,84.75,0,14.5,4,22,11.25,22C1855.96576,234.53374,1870.71576,225.78374,1889.71588,187.28374Z" transform="translate(0.00048 -0.00008)" style="fill:#f9ff10"/><path d="M2056.46588,206.53374a89.5709,89.5709,0,0,1-12.25,21.75l32-14.5v7.25c-16.5,18-37.5,30-60,30.75l37-93c7.5-19-4.75-23.5-13-23.5-19.25,0-37.25,15-48.75,49.25l-21.5,63.75h-24.75l39.25-103.75h-27.25v-7.25l47-19.25h7.25l-21,43.75h5.75l5.25-9.25c16-28.75,37.75-34.5,49.75-34.5,22.75,0,35,15.5,26.5,36.25Z" transform="translate(0.00048 -0.00008)" style="fill:#f9ff10"/><path d="M2157.46539,135.53374l-29.5,77c-7.25,19.25,3.5,21.5,9.25,21.5,12,0,25.5-9.25,39.75-24.75l-5.25,18.25c-12.75,16.5-29.25,24.75-45,24.75-20.25,0-31-14.25-22.25-36.75l31.5-80.75-24.75-2.5v-10.25l63.75-32-12.25,32h33.75l-3.75,13.5Z" transform="translate(0.00048 -0.00008)" style="fill:#f9ff10"/><path d="M2262.96344,116.28374h7.25l-43.25,112.5,29.25-10v7c-17.75,16.25-37.25,25.25-60.5,26l41.25-107.25h-24.25v-7.25Zm25-39.5c-2.5,9.5-12,17-21.5,17-9.75,0-15.25-7.5-12.5-17,2.5-9.5,12-17,21.5-17C2285.21344,59.78374,2290.71344,67.28374,2287.96344,76.78374Z" transform="translate(0.00048 -0.00008)" style="fill:#f9ff10"/><path d="M2353.213,227.53374c-13.25,16.5-30,24.75-44.25,24.75-18,0-32.5-12.75-32.5-38.75,0-38.5,34.25-95.5,80-95.5,10.5,0,20.75,3.25,27.75,8.75l-10.5,25.75h-5.75l-4-6.25c-7.25-11.25-13.5-14.5-21.25-14.5-23.5,0-41.75,44.75-41.75,76.75,0,16.5,6.75,24.75,17.5,24.75,10.5,0,25-8,40.75-24Z" transform="translate(0.00048 -0.00008)" style="fill:#f9ff10"/><path d="M2448.962,137.28374l50.25-21h7.25l-34.25,89.75c-19,50-66.25,90.25024-95.25,111.50024l-13.5-26.75,40.25-18.75024c33-15.25,36.5-23.25,39.5-43.25l2.25-14.75,27.5-69.5h-24Zm72.75-60.5c-2.5,9.5-12,17-21.5,17-9.75,0-15.25-7.5-12.5-17,2.5-9.5,12-17,21.5-17C2518.962,59.78374,2524.462,67.28374,2521.712,76.78374Z" transform="translate(0.00048 -0.00008)" style="fill:#f9ff10"/><path d="M2595.71124,227.03374l28.75-12.75v7.25c-18.5,17.75-37.75,29.5-58.75,30.25l18-45h-5.25l-3.75,6.5c-18.75,32.25-30,39-44.25,39-16.75,0-27-14.5-27-35.25,0-50,40-99,79.75-99,12.25,0,23.5,3.75,31.5,13.75l11-19h10.5c-26.75,58.25-35.5,79.5-39,104.5Zm-13.75-39.75,17.5-35.5c-6-16.5-12.5-24-22.75-24-21.75,0-48.75,45-48.75,84.75,0,14.5,4,22,11.25,22C2548.21124,234.53374,2562.96124,225.78374,2581.96124,187.28374Z" transform="translate(0.00048 -0.00008)" style="fill:#f9ff10"/><path d="M2777.71124,122.03374h38.75v8.5l-87.75,117.75h-14.75l4.25-66.75h-5.5l-49.5,66.75h-15.5l7.25-126.25h95.75v8.5l-11.75,15.75-4,65.5h5.5l28-31.75c15.25-17.25,19.5-28.25,14.75-42Zm-103,89.5,27.75-31.5c19.75-22.25,31.5-47.75-7.5-47.75h-20l-5.5,79.25Z" transform="translate(0.00048 -0.00008)" style="fill:#f9ff10"/><path d="M2802.96,241.78374l7.5-33.5h7.25l4,11c5.25,14.25,16,20.75,25.75,20.75,10.75,0,18-7.25,18-16.75,0-5.75-3-13-10-20l-15-14.75c-10-10-15-19.5-15-30.75,0-21,18-39.75,44.75-39.75,16.25,0,29.25,5,37.5,13.75l-5,30h-7l-5.5-9.5c-7.5-13-14.75-23.75-26.25-23.75-12,0-19.25,10.25-19.25,20.25,0,9.25,5.5,15.75,11,21.25l13,13c11.5,11.75,16.5,19.5,16.5,30.75,0,19-18.5,38.5-44.5,38.5A72.361,72.361,0,0,1,2802.96,241.78374Z" transform="translate(0.00048 -0.00008)" style="fill:#f9ff10"/><path d="M3112.574,248.28374h-77.312l2.81714-154.93653-27.85742,116.437-51.9585-151.49366,35.99536,189.99317h-71.05175l25.97924-24.727,9.07715-165.57911-33.49145-25.6665h67.92187l21.28418,87.9541,24.10132-27.54443.939-60.40967h72.304l-36.30859,26.29248,4.38208,163.3877Z" transform="translate(0.00048 -0.00008)" style="fill:#f9ff10"/><path d="M3167.03668,177.545c-22.22315,5.00781-31.61328,22.84912-31.61328,35.05615,0,10.3291,5.008,19.09326,15.02417,19.09326,5.634,0,10.64209-1.56494,16.27612-5.63379-7.199,13.459-16.9021,25.04-34.43042,25.04-18.467,0-27.85718-15.02392-27.85718-31.61328,0-19.09326,12.833-40.06445,36.93433-41.00342l25.66626-.939.313-43.50733c0-13.77246-3.75611-23.16259-19.40625-23.16259a33.84265,33.84265,0,0,0-13.146,3.13037c18.15405-18.1543,30.98731-26.91846,43.82031-26.91846,12.83326,0,21.59742,10.01611,20.97144,30.9873l-1.87817,74.49463h20.34521l-51.33252,65.731Zm-16.58911-8.13819H3106.001l28.79639-55.40136Z" transform="translate(0.00048 -0.00008)" style="fill:#f9ff10"/><path d="M3263.752,73.941v40.06446l2.19092,134.27832h-34.74316l1.56494-108.61231h-20.03223Zm15.96314,35.05616c14.39819-17.52832,19.40625-22.22315,27.54443-25.666v56.34033l-43.19458-11.894Z" transform="translate(0.00048 -0.00008)" style="fill:#f9ff10"/><path d="M3307.25421,139.67143,3358.27374,73.941v40.06446l2.19116,134.27832h-34.74341l1.56495-108.61231Zm115.81128-15.33691,1.25195,123.94922H3389.574l1.2522-112.68116c.313-18.15429-5.94727-25.97949-17.52832-25.97949-5.634,0-10.95508,1.56494-15.02417,2.8169l12.20728-11.26807c9.38989-8.45117,18.154-13.772,27.54418-13.772C3411.79742,87.4,3422.7525,97.41606,3423.06549,124.33452Zm83.572,68.23437-51.33276,65.731V135.60258c0-18.15429-6.573-25.97949-18.15406-25.97949-5.634,0-10.95508,1.56494-15.02417,2.8169l12.207-11.26807c9.39014-8.45117,18.1543-13.772,27.54444-13.772,13.772,0,25.35327,10.01611,25.35327,36.93457v68.23437Z" transform="translate(0.00048 -0.00008)" style="fill:#f9ff10"/><path d="M3590.83185,216.04448c-1.87793,20.03223-15.33716,36.93408-39.43848,36.93408-25.97925,0-38.18652-25.353-38.18652-65.41748,0-48.82861,23.47534-100.47412,59.78369-100.47412,14.39819,0,25.66626,10.3291,25.66626,31.61328,0,23.16211-18.15406,40.69043-39.75122,40.69043h-16.90235l7.19922,47.57666c2.50391,16.27588,10.95508,20.97119,19.406,20.97119C3578.31158,227.93852,3588.01471,221.99126,3590.83185,216.04448Zm-56.02759-105.48242,7.199,48.82861c16.90235-3.75586,24.10132-15.6499,24.10132-30.04834,0-13.459-5.634-22.53613-16.58911-22.53613C3543.25519,106.8062,3539.81231,108.05815,3534.80426,110.56206Z" transform="translate(0.00048 -0.00008)" style="fill:#f9ff10"/><path d="M3670.95929,192.56889l-51.33277,65.731,1.2522-2.50391-1.87817,2.50391.939-174.96875H3599.5943l51.33276-65.731V192.56889Z" transform="translate(0.00048 -0.00008)" style="fill:#f9ff10"/><path d="M3739.50445,192.56889l-51.33276,65.731,1.2522-2.50391-1.87818,2.50391.93921-174.96875h-20.34546l51.33277-65.731V192.56889Z" transform="translate(0.00048 -0.00008)" style="fill:#f9ff10"/><path d="M3800.22442,177.545c-22.22314,5.00781-31.61328,22.84912-31.61328,35.05615,0,10.3291,5.00806,19.09326,15.02417,19.09326,5.634,0,10.64209-1.56494,16.27613-5.63379-7.199,13.459-16.9021,25.04-34.43042,25.04-18.46729,0-27.85718-15.02392-27.85718-31.61328,0-19.09326,12.833-40.06445,36.93432-41.00342l25.66626-.939.313-43.50733c0-13.77246-3.7561-23.16259-19.40625-23.16259a33.8426,33.8426,0,0,0-13.146,3.13037c18.15405-18.1543,30.9873-26.91846,43.82031-26.91846,12.83325,0,21.59741,10.01611,20.97143,30.9873l-1.87817,74.49463H3851.244l-51.33251,65.731Zm-16.58911-8.13819h-44.44653l28.79639-55.40136Z" transform="translate(0.00048 -0.00008)" style="fill:#f9ff10"/><path d="M3897.25274,208.21928c0,15.02393,6.26,22.84912,17.84131,22.84912,4.69507,0,9.39014-1.87792,14.08521-4.38183l-9.07715,10.01611c-10.95508,11.89405-20.97119,16.58936-30.67432,16.58936-13.14624,0-25.04028-10.0166-24.4143-36.93457l2.19091-99.22217h-28.17016l58.2185-80.75488V91.78178h47.8899l-19.71949,25.35352h-28.17041Z" transform="translate(0.00048 -0.00008)" style="fill:#f9ff10"/><path d="M3990.21393,177.545c-22.22315,5.00781-31.61329,22.84912-31.61329,35.05615,0,10.3291,5.00782,19.09326,15.02393,19.09326,5.63428,0,10.64209-1.56494,16.27637-5.63379-7.19922,13.459-16.90235,25.04-34.43067,25.04-18.46728,0-27.85717-15.02392-27.85717-31.61328,0-19.09326,12.83325-40.06445,36.93432-41.00342l25.66651-.939.313-43.50733c0-13.77246-3.75634-23.16259-19.40625-23.16259a33.84154,33.84154,0,0,0-13.146,3.13037C3976.12848,95.85112,3988.962,87.087,4001.795,87.087s21.59717,10.01611,20.97119,30.9873l-1.87793,74.49463h20.34522l-51.33252,65.731Zm-16.58936-8.13819H3929.178l28.79663-55.40136Z" transform="translate(0.00048 -0.00008)" style="fill:#f9ff10"/><path d="M4194.28424,192.56889l-51.33252,65.731v-59.4707c0-24.10108-1.25195-48.51563-4.38184-71.05176-2.81738-18.78027-8.13818-23.4751-17.84131-23.4751-4.69531,0-10.95507,1.56494-16.90234,4.38184l9.70313,100.47412c1.87792,18.78027,10.01611,21.59717,17.52832,21.59717,4.38183,0,8.76416-.626,11.894-2.19092l-6.88623,7.51221c-10.3291,11.26806-19.71875,16.90185-28.7959,16.90185-17.84131,0-29.10938-15.96289-29.10938-55.71435,0-47.88965,23.78809-110.80323,59.15772-110.80323a16.5979,16.5979,0,0,1,8.76416,2.19092V73.315h-24.41455L4173.626,17.28715V193.19536l.313-.62647Z" transform="translate(0.00048 -0.00008)" style="fill:#f9ff10"/><path d="M4263.14312,192.56889l-51.33251,65.731,1.56494-118.62842h-20.34522L4244.36285,73.941V192.56889ZM4210.87164,52.03032c0-15.02393,9.39014-27.231,20.97119-27.231s20.97119,12.207,20.97119,27.231c0,15.02441-9.39013,27.23144-20.97119,27.23144S4210.87164,67.05473,4210.87164,52.03032Z" transform="translate(0.00048 -0.00008)" style="fill:#f9ff10"/><path d="M4374.87506,117.1353h-28.17041l-.939,75.43359h20.34522L4318.22125,253.918l-2.19092,4.38184v-1.56494l-1.25195,1.56494,1.25195-2.50391V117.1353h-28.17041l49.76758-61.66162c18.46728-23.1626,32.86523-37.87354,53.83643-37.87354v44.1333l-52.27149-8.13769,7.51221,38.186h47.88965Z" transform="translate(0.00048 -0.00008)" style="fill:#f9ff10"/><path d="M4447.48883,192.56889l-51.33252,65.731,1.25195-2.50391-1.87793,2.50391.939-174.96875h-20.34522l51.33252-65.731V192.56889Z" transform="translate(0.00048 -0.00008)" style="fill:#f9ff10"/><path d="M4454.68512,187.56108c0-48.82861,24.41406-100.47412,57.90576-100.47412,25.04,0,35.68213,25.04,35.68213,65.73047,0,46.32471-24.41406,100.16113-55.40137,100.16113C4466.89215,252.97856,4454.68512,227.62553,4454.68512,187.56108Zm72.30371,41.6294-15.65039-100.16114c-2.8169-18.15429-8.76416-22.84912-18.15381-22.84912a39.90711,39.90711,0,0,0-16.90235,4.38184c5.00782,34.43066,9.70313,68.86084,13.459,92.9624,3.75635,24.727,10.64209,30.04834,20.97119,30.04834C4515.09478,233.5728,4521.35455,232.00737,4526.98883,229.19048Z" transform="translate(0.00048 -0.00008)" style="fill:#f9ff10"/><path d="M4605.85992,73.941v40.06446l2.19092,134.27832h-34.74316l1.56494-108.61231h-20.03223Zm15.96338,35.05616c14.39795-17.52832,19.40625-22.22315,27.544-25.666v56.34033l-43.19434-11.894Z" transform="translate(0.00048 -0.00008)" style="fill:#f9ff10"/><path d="M4719.47516,192.56889l-51.33252,65.731,1.56494-118.62842h-20.34522L4700.69488,73.941V192.56889ZM4667.20367,52.03032c0-15.02393,9.39014-27.231,20.97119-27.231s20.97119,12.207,20.97119,27.231c0,15.02441-9.39013,27.23144-20.97119,27.23144S4667.20367,67.05473,4667.20367,52.03032Z" transform="translate(0.00048 -0.00008)" style="fill:#f9ff10"/><path d="M4787.39166,192.56889l-51.33252,65.731,1.25195-2.50391-1.87793,2.50391.939-174.96875h-20.34522l51.33252-65.731V192.56889Z" transform="translate(0.00048 -0.00008)" style="fill:#f9ff10"/><path d="M4872.213,216.04448c-1.87793,20.03223-15.33692,36.93408-39.438,36.93408-25.97949,0-38.18652-25.353-38.18652-65.41748,0-48.82861,23.47509-100.47412,59.78369-100.47412,14.398,0,25.666,10.3291,25.666,31.61328,0,23.16211-18.15429,40.69043-39.75146,40.69043h-16.90186l7.19873,47.57666c2.5044,16.27588,10.95508,20.97119,19.40625,20.97119C4859.69293,227.93852,4869.39605,221.99126,4872.213,216.04448Zm-56.02734-105.48242,7.19921,48.82861c16.90186-3.75586,24.10108-15.6499,24.10108-30.04834,0-13.459-5.63428-22.53613-16.58936-22.53613C4824.63678,106.8062,4821.19342,108.05815,4816.18561,110.56206Z" transform="translate(0.00048 -0.00008)" style="fill:#f9ff10"/><path d="M4956.40973,237.95464c25.35351,4.69482,34.74365,10.64209,34.74365,26.60546,0,22.84888-40.37744,51.33228-71.05176,51.33228-20.34521,0-32.86572-1.87793-46.95068-8.1377l37.24756-47.26391L4883.793,255.483l27.54443-33.4917c-15.96338-6.57276-23.47559-25.353-23.47559-51.64551,0-40.06445,24.41456-82.9458,57.90577-82.9458,15.02441,0,24.72754,7.19922,30.04834,20.34521l19.09326-24.41406,20.34521,35.36914L4977.69391,112.44c2.50439,8.13818,3.75634,17.84131,3.75634,29.42236,0,22.22363-8.13818,46.6377-21.28418,63.22705l-15.65039-83.25928c-2.81689-14.71093-8.76416-18.46679-18.15429-18.46679a49.32913,49.32913,0,0,0-16.90186,3.44287l15.6499,85.4497c2.19092,11.89454,8.45118,16.27637,18.78028,16.27637a49.03813,49.03813,0,0,0,16.27636-3.44287c-9.39013,11.894-21.28418,19.71924-34.11767,19.71924a36.26939,36.26939,0,0,1-14.71094-2.81738l2.19092,8.13818Zm13.14648,44.13305c0-7.82422-7.19922-12.20679-24.10156-15.33667l-34.74317-6.26025v26.60571l18.46729,4.06836c14.71094,3.13086,28.7959,5.00879,35.68213,6.26074C4967.67779,291.79082,4969.55621,285.21855,4969.55621,282.08769Z" transform="translate(0.00048 -0.00008)" style="fill:#f9ff10"/><path d="M5068.773,192.56889l-51.33252,65.731,1.56494-118.62842h-20.34522L5049.99273,73.941V192.56889Z" transform="translate(0.00048 -0.00008)" style="fill:#f9ff10"/><path d="M5145.76666,147.18364l-54.77588,58.84473a22.55056,22.55056,0,0,1,13.77246-5.0083c13.146,0,23.16211,11.894,23.16211,26.91845,0,15.02393-10.3291,27.23145-23.16211,27.23145-12.83349,0-23.1626-12.20752-23.1626-27.23145,0-8.45117,3.13038-15.96338,8.45118-20.6582l-17.52832-55.71484L5110.71,69.55864l-55.61781,4.27678c-18.10818,1.10554-26.99889-10.16078-26.99889-22.92668,0-16.27637,11.3771-26.42674,27.96646-26.42674,19.71924,0,54.02426,16.28025,55.27622,47.89353.626,12.52051,2.81738,32.23975-6.88575,74.80811Zm-8.45117-119.88037,49.45459,25.04-82.31983,94.84033Z" transform="translate(0.00048 -0.00008)" style="fill:#f9ff10"/><path d="M5331.65631,78.28374l33.5-4.5-21.5,62.25h-9.25l-12.25-44h-38.75v58.75l60,7.5-2.5,10.75-57.5,7v58.5h43l28.75-54h7l-.5,69.25-39.25-1.5h-109.75v-8.5l22.75-22v-109l-22.75-22v-8.5Z" transform="translate(0.00048 -0.00008)" style="fill:#f9ff10"/><path d="M5454.90484,119.53374h56.5v8.5l-50.75,109.25c-17,36.50024-36.5,66.00024-71.5,64.75024l-7.5-.25V258.28374a154.46476,154.46476,0,0,0,22.25,1.75,143.046,143.046,0,0,0,25.75-2.25l-42.25-99.25-.25.25-17.5-30.75v-8.5h77v8.5l-19.5,11.5,27,70.25h4.5l16.25-48Z" transform="translate(0.00048 -0.00008)" style="fill:#f9ff10"/><path d="M5643.65484,201.03374v11.25c-6.75,19-28.5,40.5-61.5,40.5-42.75,0-65.75-26.5-65.75-64.5,0-42,28.5-73.25,70.75-73.25,34.25,0,56.25,20.75,56.25,55.25v11.5l-78.75-1.5c2.5,21.75,12.25,37.5,34,37.5,13.5,0,24-5.25,32.25-9.75Zm-79.75-32.75v1l36.75-10c-.5-15-7.5-28.25-19.5-28.25C5567.15484,131.03374,5563.90484,149.78374,5563.90484,168.28374Z" transform="translate(0.00048 -0.00008)" style="fill:#f9ff10"/><path d="M5665.1524,246.03374v-44h7.75l12,10.25c14,12,32,20.5,47.25,20.5,9.25,0,13.75-3,13.75-7s-4.5-5.75-27-14.5l-20.75-8c-28-10.75-36.25-24.75-36.25-41.75,0-26.75,23.5-46,57.75-46,21.75,0,37.5,5.5,48.25,11.75v40.75h-8l-13.25-11.25c-11.5-9.75-27.75-21.75-46.25-21.75-10,0-15.5,3.75-15.5,8.5,0,5.5,9,10.75,27.25,17l21.25,7.25c26.25,9,37,19.25,37,39,0,23.75-16,46-55.75,46Q5687.2774,252.78374,5665.1524,246.03374Z" transform="translate(0.00048 -0.00008)" style="fill:#f9ff10"/><path d="M5948.4,212.03374l20.25,10.25v8l-52,24.25h-3.5l-1.75-20.25h-4.5l-3.75,3.5c-10.25,9.5-18.25,14.5-31.5,14.5-21,0-35.5-13.5-35.5-31,0-17.75,11-28.25,34.5-30.75l39-4.5v-23.5c0-14.25-6.75-21.25-21.75-21.25a53.52012,53.52012,0,0,0-22.75,5.25l10.25,29.25h-43.5v-9.25c14.25-28,41.75-50,77.75-50,22,0,38.75,10.25,38.75,32Zm-38.75,8.5v-23l-15.25,2.5c-16.5,2.75-23.5,6.25-23.5,15.75,0,9,7.75,14,17,14A29.56074,29.56074,0,0,0,5909.65,220.53374Z" transform="translate(0.00048 -0.00008)" style="fill:#f9ff10"/><path d="M6058.399,153.78374c-11-1.25-18.5.5-22.5,6.25v63.5l32.75,16.25v8.5h-92.25v-8.5l20.75-16.25v-68.25l-20.75-13.5v-7l61.5-20.5-2,28h4.5l7.5-10.5c8.25-11.5,16-15.25,24.5-15.25a35.99115,35.99115,0,0,1,14,3.25l-2.75,37.75Z" transform="translate(0.00048 -0.00008)" style="fill:#f9ff10"/><path d="M6213.399,180.78374l-79.5-1.25c1.75,24.25,11.75,42.25,36.75,42.25,12,0,22.75-4,31.75-9.5l11-6.25v11.25c-8.5,18-28.75,35.25-57.25,35.25-41,0-63.75-26.25-63.75-64,0-41.75,28.25-72.25,68-72.25,33.25,0,53,20.5,53,52.75Zm-79.75-11.5,42-9.75c-.5-14.75-8.25-27.5-21.25-27.5C6140.399,132.03374,6134.149,147.78374,6133.649,169.28374Z" transform="translate(0.00048 -0.00008)" style="fill:#f9ff10"/><path d="M6410.89215,128.78374l-25.75-2v5c8.25,7.75,12.25,18.25,12.25,29.5,0,25.25-22.25,48.5-61.5,48.5a75.8418,75.8418,0,0,1-15.5-1.5l-3.5,7c-4.75,9.5-1.5,14,8.75,14l51-1c26.25-.5,32,13,32,25,0,30.50024-33,57.75024-81.5,57.75024-29.5,0-50.75-10.75-50.75-30.25,0-14.25024,13.5-23.75024,26.75-26.00024l-20.75-24.25,24.75-26.5c-16.75-7.5-26.25-21.75-26.25-38.5,0-25,23.25-48,61.5-48a94.85505,94.85505,0,0,1,17.75,1.75l50.75-19.75Zm-95.25,129.5-2.75,5.25c-2.25,4.25-3.75,9.00024-3.75,13.00024,0,10.5,15.75,15,33,15,26,0,41-12.5,41-23.50024,0-8.25-6-10.5-16.75-10.75Zm48.75-89.5c0-21.5-11.5-37.25-27.75-37.25-14,0-22.5,12-22.5,27,0,21.5,11.25,37.25,27.75,37.25C6355.89215,195.78374,6364.39215,184.28374,6364.39215,168.78374Z" transform="translate(0.00048 -0.00008)" style="fill:#f9ff10"/><path d="M6499.64215,149.53374c-12.5-1.5-20.75,2.25-25,8.75v68l33.25,13.5v8.5h-87v-8.5l21.25-13.5v-74l-21.25-11v-7l55.5-19.5-1.75,26h5.25l5.75-7.75c9.25-12.75,17.25-15.25,24.75-15.25,5.5,0,11.75,1.75,15.75,4.5l-3.25,29.75Z" transform="translate(0.00048 -0.00008)" style="fill:#f9ff10"/><path d="M6647.14361,180.03374l-80.25-1c1,26.5,11,46.75,39.75,46.75a61.27172,61.27172,0,0,0,31-9l9.25-5.75v11.25a61.05234,61.05234,0,0,1-52.75,30.25c-39.75,0-62.25-26.5-62.25-63.5,0-41.5,28.25-71.5,65.5-71.5,32.25,0,49.75,20.5,49.75,50.25Zm-80-11,47-9c-.25-14.75-8.5-27.25-22.75-27.25C6577.39361,132.78374,6568.14361,145.78374,6567.14361,169.03374Z" transform="translate(0.00048 -0.00008)" style="fill:#f9ff10"/><path d="M6782.89361,180.03374l-80.25-1c1,26.5,11,46.75,39.75,46.75a61.27172,61.27172,0,0,0,31-9l9.25-5.75v11.25a61.05234,61.05234,0,0,1-52.75,30.25c-39.75,0-62.25-26.5-62.25-63.5,0-41.5,28.25-71.5,65.5-71.5,32.25,0,49.75,20.5,49.75,50.25Zm-80-11,47-9c-.25-14.75-8.5-27.25-22.75-27.25C6713.14361,132.78374,6703.89361,145.78374,6702.89361,169.03374Z" transform="translate(0.00048 -0.00008)" style="fill:#f9ff10"/><path d="M6961.39361,231.03374v9.25l-52.5,9.5h-6.5l3.25-25v-61.75c0-14.25-9-21-21.5-21-15.25,0-24.5,7-29,13.75v70.5l27.75,13.5v8.5h-81.5v-8.5l21.25-13.5v-74l-21.25-11v-7l55.5-19.5-1.5,21.5h6.75l6.75-5.25c14.5-10.5,22.5-13.25,34.5-13.25,17.5,0,34.75,9.25,34.75,29.5v75.25Z" transform="translate(0.00048 -0.00008)" style="fill:#f9ff10"/><path d="M7088.89361,180.03374l-80.25-1c1,26.5,11,46.75,39.75,46.75a61.27172,61.27172,0,0,0,31-9l9.25-5.75v11.25a61.05234,61.05234,0,0,1-52.75,30.25c-39.75,0-62.25-26.5-62.25-63.5,0-41.5,28.25-71.5,65.5-71.5,32.25,0,49.75,20.5,49.75,50.25Zm-80-11,47-9c-.25-14.75-8.5-27.25-22.75-27.25C7019.14361,132.78374,7009.89361,145.78374,7008.89361,169.03374Z" transform="translate(0.00048 -0.00008)" style="fill:#f9ff10"/><path d="M7186.14361,149.53374c-12.5-1.5-20.75,2.25-25,8.75v68l33.25,13.5v8.5h-87v-8.5l21.25-13.5v-74l-21.25-11v-7l55.5-19.5-1.75,26h5.25l5.75-7.75c9.25-12.75,17.25-15.25,24.75-15.25,5.5,0,11.75,1.75,15.75,4.5l-3.25,29.75Z" transform="translate(0.00048 -0.00008)" style="fill:#f9ff10"/><path d="M7421.14166,122.28374h40.25v8.5l-50,117.5h-18.5l-24-60h-5.25l-25.75,60h-19.75l-37.75-102h-.25l-19.5-15.5v-8.5h135.25l-10.25,27.5,22.25,61h5.75l17.25-46.75Zm-115.5,12,28.75,76.5h5.25l19.75-52.25-8.25-24.25Z" transform="translate(0.00048 -0.00008)" style="fill:#f9ff10"/><path d="M7629.13824,228.53374v9.25l-46.5,12.25h-8.5l2-24v-63.25c0-15-10-22-22.75-22-15.25,0-24.75,6-29.75,13v74l22.5,12v8.5h-73.25v-8.5l22-12v-143.5l-22-9.5v-7l53.25-19-2.5,32.25v54.75h6l5.5-4c15-10.5,22.5-13.5,35-13.5,16.75,0,34.75,9,34.75,29v76Z" transform="translate(0.00048 -0.00008)" style="fill:#f9ff10"/><path d="M7754.88727,179.28374l-80.5-.75c.5,28.25,10,49.75,41,49.75a55.94023,55.94023,0,0,0,30.5-9l8.5-5.25v11.25c-11,16.25-29.25,27.25-50.25,27.25-38.75,0-61-26.5-61-63.25,0-41.5,28-71,63.75-71,31.75,0,48,20.25,48,48.75Zm-80.25-10.25,50.25-8.5c0-15-9-27-24-27C7686.88727,133.53374,7676.38727,145.03374,7674.63727,169.03374Z" transform="translate(0.00048 -0.00008)" style="fill:#f9ff10"/><path d="M7932.13385,228.53374v9.25l-46.75,12.25h-8.25l2-24v-63.25c0-15-10-22-22.75-22-16.25,0-25.75,7-31,14.5v72.5l30,12v8.5h-80.5v-8.5l21.75-12v-77.25l-21.75-9.5v-7l51.75-19-1,20.75h6.75l5.5-4c15.25-10.5,22.5-13.5,35.25-13.5,16.75,0,34.75,9,34.75,29v76.25Z" transform="translate(0.00048 -0.00008)" style="fill:#f9ff10"/><path d="M8076.62994,123.28374h35v8.5l-55.5,127c-13.25,30.25024-29.25,62.00024-59.00049,58.50024l-8.5-1,2.5-30.5a146.93953,146.93953,0,0,0,19.25,1.5c15.25049,0,23.75049-6.75,34.25049-39.75024l-44.00049-105.75-16.5-10v-8.5h67.00049v8.5l-25.25,9.75,29.5,71h6.75l19.5-49.25Z" transform="translate(0.00048 -0.00008)" style="fill:#f9ff10"/><path d="M8191.88189,252.28374c-35.25,0-60.75-25.75-60.75-62.5,0-40,28.25-70.5,67-70.5,35.25,0,60.75,25.75,60.75,62.25C8258.88189,221.78374,8232.13189,252.28374,8191.88189,252.28374Zm41-62.25c0-34-17.75-55.75-40-55.75-21.25,0-35.75,17.75-35.75,47,0,34.25,17.75,56,40,56C8218.38189,237.28374,8232.88189,219.53374,8232.88189,190.03374Z" transform="translate(0.00048 -0.00008)" style="fill:#f9ff10"/><path d="M8399.63092,220.78374h21.75v9.75l-31.5,20.25h-12l-.75-14.5h-6.5l-3.5,2.25c-15.75,10.5-22.25,13.75-36.5,13.75-15.75,0-32.25-8.75-32.25-30.25v-75.25l-22.5-3.75v-7l47.75-20.5-2.25,23v68c0,19,12.25,26.25,25.5,26.25,12,0,23.5-7,29.75-15v-71l-22.5-3.75v-7l47.75-20.5-2.25,23Z" transform="translate(0.00048 -0.00008)" style="fill:#f9ff10"/><path d="M8632.378,123.28374h35.25v8.5l-48.75,116.5h-13.25l-26.75-64.5h-3.75l-27.25,64.5h-15l-40.5-106.5-19.25-10v-8.5h130l-11.25,25.75,23,62.5h6l18-46.25Zm-83,88.25,20.75-56-7-20.25h-48.75l29.25,76.25Z" transform="translate(0.00048 -0.00008)" style="fill:#f9ff10"/><path d="M8782.126,220.78374h21.25v9.75l-31.75,20.25h-12l-1-14.5h-5.5c-5.25,6.5-14.5,16-33.5,16-17.25,0-31.5-12.5-31.5-30.75,0-16.25,11.75-28.75,34.5-31.25l36.5-4.25v-21.25c0-20-8.75-29.5-25-29.5-9.25,0-15.5,2.75-20,6l5.5,27.75h-35.25v-8.5c8.75-22,34.25-41.25,65.75-41.25,17.75,0,32,8.5,32,30Zm-23,.5v-24.25l-23,4.5c-17.25,3.25-24.25,9.5-24.25,18,0,10.5,9.75,15,19.5,15C8747.876,234.53374,8756.626,224.78374,8759.126,221.28374Z" transform="translate(0.00048 -0.00008)" style="fill:#f9ff10"/><path d="M8899.62506,218.53374v11.25c-9,11.5-24.25,22.25-40.25,22.25-14,0-26-7.75-26-28.25v-85.75l-21-1.75v-10.5l44-36.25v33.75h43v15.5h-43v76.75c0,9.25,4,15.5,13.75,15.5a39.1654,39.1654,0,0,0,21.25-7Z" transform="translate(0.00048 -0.00008)" style="fill:#f9ff10"/><path d="M9026.87506,178.53374l-80.75-.5v1.25c0,29.5,9.25,52.75,43.25,52.75,7.5,0,19-1.25,30-8.75l7-4.75v11.25c-12.75,15.5-29.75,22.5-46.5,22.5-37.25,0-59.25-26.25-59.25-62.75,0-41.25,27.75-70.25,61.25-70.25,30.75,0,45,20.25,45,46.5Zm-80.25-9.75,54.75-7.5v-1c0-14.5-9.5-26-25.5-26C8961.87506,134.28374,8949.37506,143.78374,8946.62506,168.78374Z" transform="translate(0.00048 -0.00008)" style="fill:#f9ff10"/><path d="M9123.87311,142.78374c-14.5-1-23.75,5-28.5,13v74.5l33.5,9.5v8.5h-79v-8.5l22.5-9.5v-82.5l-22.5-7.25v-7l46.25-18-.75,22.75v.25h6l3.25-4c11-14,19.25-15.25,25-15.25,6.75,0,14.25,2.75,18.75,6.75l-4.5,18Z" transform="translate(0.00048 -0.00008)" style="fill:#f9ff10"/><path d="M9288.12213,220.53374v11.25c-9,10.25-23.75,20.25-38.25,20.25-13.25,0-25-7.75-25-27v-87l-21-1.25v-10.25l41-36v33.25h43v15.5h-43v78.25c0,8.75,4,15.5,14,15.5a36.29828,36.29828,0,0,0,20.75-6.75Z" transform="translate(0.00048 -0.00008)" style="fill:#f9ff10"/><path d="M9452.8692,222.53374v9.5l-32.75,19h-13l-1-22v-67c0-16.75-12.25-24.25-24.5-24.25-17.75,0-28,6.25-34.75,14.5v79.25l24,8.25v8.5h-66.75v-8.5l22.75-8.25v-159l-22.75-6v-7l45.5-17.5-2.75,31.75v60.5h7l1.25-.75c16.25-10.5,22.75-13.75,35.75-13.75,15.75,0,35.25,8.25,35.25,27.5v78Z" transform="translate(0.00048 -0.00008)" style="fill:#f9ff10"/><path d="M9573.86725,178.03374l-80.75-.25v3c0,29.75,9.25,53.25,44.25,53.25,6.75,0,18.5-.75,29.75-8.75l6.25-4.25v11.25a58.61425,58.61425,0,0,1-44.5,20c-36.5,0-58.25-26.25-58.25-62.5,0-41.25,27.5-70,60-70,30.25,0,43.25,20.25,43.25,45.5Zm-80-9.5,57-6.75v-1.5c0-14.5-10-25.5-26.25-25.5C9510.61725,134.78374,9497.11725,143.28374,9493.86725,168.53374Z" transform="translate(0.00048 -0.00008)" style="fill:#f9ff10"/><path d="M9827.11529,225.28374v9.75l-32.75,19h-12.75l-1-22.25v-69.75c0-17.25-11.25-24.25-24-24.25-16.75,0-28.75,7.25-35.25,16.5v77.25l29.5,8.25v8.5h-73v-8.5l23.5-8.25v-69.5c0-17.25-11.25-24.25-24.5-24.25-17.5,0-29.25,7.25-35.75,16.5v77.25l23.5,8.25v8.5h-66.25v-8.5l22.75-8.25v-85.5l-22.75-5.75v-7l43.25-17.5-.5,18.75h6.5v.5l2-1.5c15.75-11.25,24.25-13.75,37.25-13.75,12.25,0,25.25,4.5,31.25,14.75h8.75v1.25l3-2c16.75-11.5,23.25-14,36.25-14,15,0,34.5,8.25,34.5,27.5v80.75Z" transform="translate(0.00048 -0.00008)" style="fill:#f9ff10"/><path d="M9877.61529,173.28374h23.5v8.5l-26.5,21.5h-2l-27.75-21.5v-8.5h23.5l-13.75-100.25v-7.25h37.25v7Zm14.75,57.75a18.00176,18.00176,0,1,1-18-17.75A17.92516,17.92516,0,0,1,9892.36529,231.03374Z" transform="translate(0.00048 -0.00008)" style="fill:#f9ff10"/><path d="M10023.85943,138.28374c26.25,2.5,51,20.25,51,51.25,0,42.25-32.5,62.75-62,62.75-40.25,0-60-29.5-53.25-69h10.25l2.25,15c3.25,23,20.5,32.25,40.25,32.25,27.5,0,39.25-19,39.25-37.25,0-17.75-11.25-38-35.5-44l-18.75-4.5,39.75-59.75h-79.25v-21h87.5l27.75-1.5v8.5l-49.25,61Z" transform="translate(0.00048 -0.00008)" style="fill:#f9ff10"/><path d="M10191.35748,200.28374v30.5l27.75,7.5v10h-92.5v-10l43.25-7.5v-30.5h-84.25v-8.5l90.5-127.75h26.75v11l-91.25,101.5v6.5h58.25v-62.25h21.5v62.25h29l-5.75,17.25Z" transform="translate(0.00048 -0.00008)" style="fill:#f9ff10"/><path d="M10330.35357,64.03374l28-1.5v8.5l-85.25,177.25h-25.5l88.75-163.25h-81.75l-7.25,43h-10.75v-64Z" transform="translate(0.00048 -0.00008)" style="fill:#f9ff10"/><path d="M10425.35064,230.53374v-146.5l-22.75-9.75v-8.5l45.5-.75c7.75-.25,14.75-.25,21.25-.25,41.5,0,63,13.75,63,40.75,0,15-7,28.5-26.25,39.25v5c23.25,4,34.75,19,34.75,41.25,0,34.5-28.5,58.5-72.5,58.5-5.25,0-12.25-.5-22.5-.75l-43.25-.5v-8.5Zm27.25-85.5c12.5-.5,21-.5,34.75,0,12.5-5.5,20.25-17.25,20.25-33.5,0-29.5-22.5-36.5-55-34.25Zm0,89a92.72566,92.72566,0,0,0,18.5,1.75c30.75,0,44.5-14.75,44.5-38.75,0-27-17-39.5-41-39.5-7.25,0-17.25.5-22,1Z" transform="translate(0.00048 -0.00008)" style="fill:#f9ff10"/><path d="M10607.59869,76.28374v154l23.5,9.5v8.5h-69v-8.5l22.5-9.5v-153.75l-22.5-7.25v-7l48.25-18Z" transform="translate(0.00048 -0.00008)" style="fill:#f9ff10"/><path d="M10767.59576,220.78374h21.75v9.75l-31.5,20.25h-12l-.75-14.5h-6.5l-3.5,2.25c-15.75,10.5-22.25,13.75-36.5,13.75-15.75,0-32.25-8.75-32.25-30.25v-75.25l-22.5-3.75v-7l47.75-20.5-2.25,23v68c0,19,12.25,26.25,25.5,26.25,12,0,23.5-7,29.75-15v-71l-22.5-3.75v-7l47.75-20.5-2.25,23Z" transform="translate(0.00048 -0.00008)" style="fill:#f9ff10"/><path d="M10916.34381,178.53374l-80.75-.5v1.25c0,29.5,9.25,52.75,43.25,52.75,7.5,0,19-1.25,30-8.75l7-4.75v11.25c-12.75,15.5-29.75,22.5-46.5,22.5-37.25,0-59.25-26.25-59.25-62.75,0-41.25,27.75-70.25,61.25-70.25,30.75,0,45,20.25,45,46.5Zm-80.25-9.75,54.75-7.5v-1c0-14.5-9.5-26-25.5-26C10851.34381,134.28374,10838.84381,143.78374,10836.09381,168.78374Z" transform="translate(0.00048 -0.00008)" style="fill:#f9ff10"/><path d="M11022.71881,94.86919c-.25391,6.34961,2.54,14.47754,4.31738,21.33593h32.25781v12.95362h-30.73339v100.8374l27.43164,12.69971v5.58789h-66.293v-5.58789l16.76367-14.73194v-95.249l-19.8125-5.334v-7.874l20.32031-8.63574c3.04785-25.146,22.35156-52.32373,44.44922-59.43555a66.54288,66.54288,0,0,1,17.01855-4.82617l-2.54,28.44775a152.12031,152.12031,0,0,0-21.58985,2.79395C11031.35455,78.86723,11023.73443,85.97905,11022.71881,94.86919Z" transform="translate(0.00048 -0.00008)" style="fill:#f9ff10"/><path d="M11106.28228,227.96391l17.27149,14.73194v5.58789h-56.3877v-5.58789l16.76368-14.73194v-87.375l-17.52539-6.35009V127.127l40.63964-17.78027-.76172,22.35205Zm-30.73437-159.00244a18.10345,18.10345,0,0,1,18.03418-18.03418,17.88649,17.88649,0,0,1,17.7793,18.03418,17.6698,17.6698,0,0,1-17.7793,17.77979A17.88722,17.88722,0,0,1,11075.54791,68.96147Z" transform="translate(0.00048 -0.00008)" style="fill:#f9ff10"/><path d="M11240.38873,121.03081l-20.57324-1.01612v8.63623c5.84179,8.38184,8.63574,18.7959,8.63574,30.22559,0,25.90772-17.01758,50.79932-47.24316,50.79932a43.85559,43.85559,0,0,1-11.93848-1.52393l-3.04785,7.11231c-4.57227,13.20752-3.04785,17.01757,9.14355,19.0498l35.81446.76172c22.35156,2.03223,26.66894,13.97021,26.66894,26.92383,0,32.00415-26.66894,57.40356-59.68945,57.40356-24.8916,0-41.40137-17.01758-41.40137-35.30566,0-16.51,9.90625-25.65406,21.84375-30.22583l-19.55762-23.62158,21.58985-25.65381c-14.22364-7.62012-22.09766-23.62207-22.09766-41.90967,0-25.90772,18.0332-50.5459,47.24317-50.5459a48.287,48.287,0,0,1,15.49414,2.54l39.11523-21.33545Zm-73.15137,133.85693-3.30175,7.874a47.39712,47.39712,0,0,0-3.80958,17.27124c0,14.22461,10.92188,24.63868,26.416,24.63868,21.335,0,33.01953-15.49414,33.01953-31.75,0-9.14429-4.31836-14.73218-15.49414-16.25611Zm38.86231-84.83545c0-23.11377-10.41406-44.95752-25.90821-44.95752-11.9375,0-19.0498,10.41406-19.0498,26.416,0,23.36767,10.16016,44.95752,25.9082,44.95752C11198.98736,196.46831,11206.09967,186.56206,11206.09967,170.05229Z" transform="translate(0.00048 -0.00008)" style="fill:#f9ff10"/><path d="M11346.81353,222.62993l17.27149,2.28613v8.38184l-32.51172,19.55761h-5.8418l-1.01562-19.55761h-3.30176l-6.35059,5.58789c-11.42968,9.65185-16.50976,13.46191-27.93945,13.46191-12.9541,0-25.39941-8.12793-25.39941-25.3999V140.33452l-17.78028-4.57178v-7.874l41.91016-18.03369-1.77832,29.97168V214.502c0,13.96973,8.12793,19.0498,17.7793,19.0498a26.6472,26.6472,0,0,0,16.76465-6.35009l5.84179-14.98584V140.33452l-17.78027-4.57178v-7.874l41.91016-18.03369-1.77833,29.97168Z" transform="translate(0.00048 -0.00008)" style="fill:#f9ff10"/><path d="M11462.89166,161.92436l-.25391,11.17627-62.99218-.5083c.2539,30.22559,7.874,58.92774,32.0039,58.92774a35.20941,35.20941,0,0,0,23.36817-9.144l6.60351-5.334-.2539,11.17578c-7.874,12.70019-22.09766,24.12988-38.35352,24.12988-29.97168,0-47.49805-25.90771-47.49805-65.02344,0-43.9414,22.35254-75.18359,50.5459-75.18359C11452.22369,112.14067,11463.65338,135.76274,11462.89166,161.92436Zm-63.24609,4.064,39.87793-8.12793v-.25391c.2539-18.03369-7.11231-31.4956-19.30372-31.4956C11408.0274,126.11089,11400.66217,141.35063,11399.64557,165.98833Z" transform="translate(0.00048 -0.00008)" style="fill:#f9ff10"/><path d="M11484.73541,242.69585V206.628h5.333l6.8584,11.68408c8.63574,13.46191,18.542,18.7959,28.19336,18.7959,7.874,0,13.46191-5.58789,13.46191-14.478,0-9.65186-4.57129-16.76367-16.25586-24.8916l-16.25586-9.65186c-17.7793-11.68408-24.38379-21.33594-24.38379-37.33789,0-20.82764,17.01856-38.60791,39.37012-38.60791,13.208,0,24.8916,5.08008,31.75,11.68408v35.55957h-5.58789l-5.334-10.41357c-7.36621-13.71582-17.01855-22.09815-28.956-22.09815-9.14356,0-14.22363,6.85791-14.22363,13.46192,0,11.68408,8.63574,19.812,20.31933,27.686l16.50977,10.15967c13.208,8.12793,20.82812,20.06592,20.82812,33.78174,0,20.06592-12.44629,40.38574-38.86133,40.38574C11507.087,252.3477,11495.1485,249.04594,11484.73541,242.69585Z" transform="translate(0.00048 -0.00008)" style="fill:#f9ff10"/><path d="M11697.0733,222.376l17.01758,2.54v8.38184l-32.51172,19.55761h-5.8418l-.76172-19.0498h-3.55664l-2.54,3.30225c-6.3496,8.12793-13.208,15.23974-26.66992,15.23974-14.98535,0-26.415-12.4458-26.415-30.47949,0-16.00195,8.38184-30.48,30.7334-33.02l28.19336-3.04785V149.47856c0-13.96973-6.85742-20.57373-19.55762-20.57373a32.86405,32.86405,0,0,0-17.77929,5.08008l6.34961,33.01953h-30.7334v-8.12793c9.65137-27.43164,30.47949-46.73584,56.6416-46.73584,15.49316,0,27.43164,8.12793,27.43164,25.3999Zm-28.19434,7.62012,5.8418-13.97022V193.42l-16.25586,4.06445c-14.47754,4.06348-20.57324,10.92188-20.57324,21.58936,0,10.668,7.11133,16.51025,15.23926,16.51025A24.79621,24.79621,0,0,0,11668.879,229.99614Z" transform="translate(0.00048 -0.00008)" style="fill:#f9ff10"/><path d="M11826.61041,225.17l19.0498,3.55615v9.14355l-37.33789,12.7002h-5.58789l1.52442-19.0498V148.71684c0-12.19238-7.874-17.78027-18.28809-17.78027s-17.01855,4.064-21.082,8.38232l-3.55566,11.17578h-.25391v77.46924l22.09766,14.73194v5.58789h-61.21387v-5.58789l16.76367-14.73194v-87.375l-17.52539-6.35009V127.127l40.63965-17.78027-.76172,21.84423h4.57129l5.8418-5.58838c11.43066-10.15966,17.27246-13.46191,27.68652-13.46191,13.46191,0,27.43164,8.12793,27.43164,24.38379Z" transform="translate(0.00048 -0.00008)" style="fill:#f9ff10"/><path d="M11952.08307,222.12212l17.52636,2.28564v8.38232l-33.0205,19.55762h-5.8418l-.76172-18.542h-3.55566l-2.79395,3.04834c-8.63672,11.42969-17.52637,15.49365-28.19434,15.49365-20.57324,0-39.11523-20.57373-39.11523-60.45166,0-45.46533,21.33594-79.75537,52.831-79.75537a35.68285,35.68285,0,0,1,20.57422,6.09619V74.80327l-21.58984-8.63574V61.59526l46.22754-17.52588-2.28613,34.544Zm-28.70118,6.0957,6.34961-15.74756V169.03618c-.2539-29.46338-10.16015-41.40137-23.876-41.40137-16.25586,0-25.65332,17.52588-25.65332,48.51367-.25391,38.35352,8.12793,56.89551,28.19336,56.89551A24.59466,24.59466,0,0,0,11923.38189,228.21782Z" transform="translate(0.00048 -0.00008)" style="fill:#f9ff10"/><path d="M12091.40045,225.315l14.25683,1.84814v7.92041l-29.041,18.21631h-2.64063l-.792-19.53662h-2.90332l-2.64062,3.168c-6.59961,11.6167-13.2002,15.57666-21.12012,15.57666-16.36914,0-30.36133-22.44043-30.36133-62.30567,0-50.68945,16.63281-87.38671,41.44922-87.38671a24.70806,24.70806,0,0,1,15.57617,5.28027V63.2144l-20.32812-7.92041V52.65434l40.65722-17.16064-2.1123,35.377Zm-25.873,7.39209,7.65625-21.38428V156.6729c-1.584-29.04053-8.71191-39.86475-18.21582-39.86475-13.20117,0-19.53711,20.06445-19.53711,52.53711,0,45.14551,6.33594,65.47412,21.91309,65.47412A16.38167,16.38167,0,0,0,12065.5274,232.70708Z" transform="translate(0.00048 -0.00008)" style="fill:#f9ff10"/><path d="M12174.82037,100.4395l-1.31934,29.30469-8.71289-1.05567c-9.76757-.26416-14.5205.52783-17.42382,2.11182l-5.8086,16.36865v83.9541l22.17676,13.99268v3.168h-52.80176v-3.168l12.40821-18.2168V129.21635l-14.25586-3.96v-7.39257l33.001-17.16016-.52832,20.85644v7.92041h3.43262l3.96-6.60058c4.48828-8.44824,8.97559-13.2002,13.46387-16.10449A23.3299,23.3299,0,0,1,12174.82037,100.4395Z" transform="translate(0.00048 -0.00008)" style="fill:#f9ff10"/><path d="M12211.51568,226.899l12.40821,18.2168v3.168h-43.03321v-3.168l12.40821-18.2168V129.21635l-14.25586-3.96v-7.39257l33.001-17.16016-.52832,20.85644ZM12186.171,61.63042a15.04834,15.04834,0,1,1,30.09668,0,15.05062,15.05062,0,1,1-30.09668,0Z" transform="translate(0.00048 -0.00008)" style="fill:#f9ff10"/><path d="M12258.76764,247.22758v56.23414l24.02441,15.04785v2.90429H12227.879v-2.90429l12.67188-18.74414V129.48051l-14.52051-4.22412v-7.39257l33.26563-17.42432-.52832,21.38476h2.90429l2.90332-3.43212c6.33692-11.35254,13.20118-15.57666,21.1211-15.57666,16.10449,0,30.09668,22.44091,30.09668,62.30566,0,50.95361-16.36817,87.38672-41.44922,87.38672A24.70807,24.70807,0,0,1,12258.76764,247.22758Zm5.54394-123.2915-5.54394,13.46436v51.48144c.26367,36.43311,7.91992,49.63379,18.48047,49.63379,12.93652,0,19.27246-20.06494,19.27246-52.5376,0-45.1455-6.33594-65.47412-21.91211-65.47412A17.77608,17.77608,0,0,0,12264.31158,123.93608Z" transform="translate(0.00048 -0.00008)" style="fill:#f9ff10"/><path d="M12354.06939,247.22758v56.23414l24.02442,15.04785v2.90429h-54.91309v-2.90429l12.67188-18.74414V129.48051l-14.52051-4.22412v-7.39257l33.26562-17.42432-.52832,21.38476h2.9043l2.90332-3.43212c6.33692-11.35254,13.20117-15.57666,21.1211-15.57666,16.10449,0,30.09667,22.44091,30.09667,62.30566,0,50.95361-16.36816,87.38672-41.44921,87.38672A24.70812,24.70812,0,0,1,12354.06939,247.22758Zm5.54395-123.2915-5.54395,13.46436v51.48144c.26368,36.43311,7.91993,49.63379,18.48047,49.63379,12.93653,0,19.27246-20.06494,19.27246-52.5376,0-45.1455-6.33593-65.47412-21.91211-65.47412A17.77605,17.77605,0,0,0,12359.61334,123.93608Z" transform="translate(0.00048 -0.00008)" style="fill:#f9ff10"/><path d="M12453.33111,226.899l12.40821,18.2168v3.168h-43.03321v-3.168l12.40821-18.2168V129.21635l-14.25586-3.96v-7.39257l33.001-17.16016-.52832,20.85644Zm-25.34472-165.26855a15.04834,15.04834,0,1,1,30.09668,0,15.05062,15.05062,0,1,1-30.09668,0Z" transform="translate(0.00048 -0.00008)" style="fill:#f9ff10"/><path d="M12556.28814,226.107l14.78516,3.16846v9.24023l-31.68164,12.4082h-2.376l1.05664-15.3125V133.70464c0-9.5044-5.80859-13.99268-14.25683-13.99268a20.14379,20.14379,0,0,0-14.52051,5.80811l-4.75195,12.14453V226.899l14.78418,18.2168v3.168H12473.918v-3.168l12.4082-18.2168V129.21635l-14.25586-3.96v-7.39257l33.001-17.16016-.52832,20.85644v1.05616h4.48828l4.48828-5.80811c8.44824-10.03271,12.67187-13.99267,21.64844-13.99267,11.08789,0,21.12011,7.39209,21.12011,20.85644Z" transform="translate(0.00048 -0.00008)" style="fill:#f9ff10"/><path d="M12662.67779,110.73589l-18.48047-.792V118.92c5.544,9.24023,8.1836,21.64843,8.1836,34.32129,0,27.19238-13.2002,54.12109-37.48828,54.12109a30.15492,30.15492,0,0,1-8.71289-1.31982l-2.376,6.86425c-4.75195,15.84034-4.48828,19.0083,8.71289,22.96875l24.81641,2.11182c19.53613,3.96,23.49609,14.25635,23.49609,29.56885,0,33.00122-20.85645,58.346-45.40918,58.346-22.96875,0-35.9043-22.17676-35.9043-39.07325,0-18.74438,6.86426-25.8728,19.53614-33.79321l-18.74414-23.76025,20.32812-25.87305c-13.20019-7.91992-20.32812-26.40088-20.32812-46.46533,0-27.19287,13.72851-54.12158,37.75293-54.12158a28.65288,28.65288,0,0,1,14.25585,3.69628l1.584-1.32031v-.52783h.52832l28.249-23.76074Zm-28.249,58.08154c0-24.8169-8.18457-53.06543-22.17676-53.06543-9.24023,0-13.72851,8.7124-13.72851,25.34473,0,25.08056,8.18457,53.06542,22.17675,53.06542C12629.94049,194.16215,12634.42877,185.71391,12634.42877,168.81743Zm-29.30469,84.48242-2.64062,7.92041c-2.11133,8.18408-3.168,14.2561-3.168,19.53638,0,18.21679,9.50488,33.26465,23.2334,33.26465,15.04785,0,23.23242-16.1045,23.23242-36.96094,0-10.29614-3.43262-17.68823-13.72852-20.32837Z" transform="translate(0.00048 -0.00008)" style="fill:#f9ff10"/><path d="M12755.337,218.71489l-.52734,11.35254c-4.48828,9.24023-13.99219,22.44043-27.7207,22.44043-10.03223,0-18.2168-7.12842-18.2168-22.17676V119.712l-13.72852-1.84814V109.1519l31.94532-38.01709V107.0396h27.7207v12.14453h-27.7207v97.41845c0,12.67286,2.63964,16.1045,8.97558,16.1045,4.48828,0,10.03223-2.376,14.78516-8.97608Z" transform="translate(0.00048 -0.00008)" style="fill:#f9ff10"/><path d="M12841.66607,226.107l14.78418,3.16846v9.24023l-31.68066,12.4082h-2.376l1.05567-15.3125V133.70464c0-9.5044-5.8086-13.99268-14.25684-13.99268a19.86051,19.86051,0,0,0-13.46387,4.75244l-5.54394,13.2002v95.30664l13.99219,12.14453v3.168H12757.711v-3.168l13.99316-12.40869V62.68657l-16.10449-7.39258V52.65434l36.43261-17.16064-1.84765,33.52881v53.59375h4.22363l4.22461-5.80811c8.71191-10.03271,12.93652-13.99267,21.91211-13.99267,10.82422,0,21.12109,7.39209,21.12109,20.85644Z" transform="translate(0.00048 -0.00008)" style="fill:#f9ff10"/><path d="M12893.40533,226.899l12.4082,18.2168v3.168h-43.0332v-3.168l12.4082-18.2168V129.21635l-14.25585-3.96v-7.39257l33.001-17.16016-.52832,20.85644Zm-25.34472-165.26855a15.04834,15.04834,0,1,1,30.09667,0,15.05061,15.05061,0,1,1-30.09667,0Z" transform="translate(0.00048 -0.00008)" style="fill:#f9ff10"/><path d="M12999.003,110.73589l-18.48047-.792V118.92c5.54394,9.24023,8.18359,21.64843,8.18359,34.32129,0,27.19238-13.20019,54.12109-37.48828,54.12109a30.155,30.155,0,0,1-8.71289-1.31982l-2.376,6.86425c-4.75195,15.84034-4.48828,19.0083,8.7129,22.96875l24.8164,2.11182c19.53613,3.96,23.4961,14.25635,23.4961,29.56885,0,33.00122-20.85645,58.346-45.40918,58.346-22.96875,0-35.9043-22.17676-35.9043-39.07325,0-18.74438,6.86426-25.8728,19.53613-33.79321l-18.74414-23.76025,20.32813-25.87305c-13.2002-7.91992-20.32813-26.40088-20.32813-46.46533,0-27.19287,13.72754-54.12158,37.75293-54.12158a28.65292,28.65292,0,0,1,14.25586,3.69628l1.584-1.32031v-.52783h.52832l28.249-23.76074Zm-28.249,58.08154c0-24.8169-8.18457-53.06543-22.17675-53.06543-9.24024,0-13.72852,8.7124-13.72852,25.34473,0,25.08056,8.18457,53.06542,22.17676,53.06542C12966.26568,194.16215,12970.754,185.71391,12970.754,168.81743Zm-29.30468,84.48242-2.63965,7.92041c-2.11231,8.18408-3.16895,14.2561-3.16895,19.53638,0,18.21679,9.50489,33.26465,23.2334,33.26465,15.04785,0,23.23242-16.1045,23.23242-36.96094,0-10.29614-3.43261-17.68823-13.72851-20.32837Z" transform="translate(0.00048 -0.00008)" style="fill:#f9ff10"/><path d="M13082.16119,226.107l14.78418,3.16846v9.24023l-31.68066,12.4082h-2.376l1.05566-15.3125V133.70464c0-9.5044-5.80859-13.99268-14.25683-13.99268a19.86051,19.86051,0,0,0-13.46387,4.75244l-5.54394,13.2002v95.30664l13.99218,12.14453v3.168h-46.46582v-3.168l13.99317-12.40869V62.68657l-16.1045-7.39258V52.65434l36.43262-17.16064-1.84765,33.52881v53.59375h4.22363l4.22461-5.80811c8.71191-10.03271,12.93554-13.99267,21.91211-13.99267,10.82422,0,21.12109,7.39209,21.12109,20.85644Z" transform="translate(0.00048 -0.00008)" style="fill:#f9ff10"/><path d="M13108.29205,242.21147V203.66655h3.43164l5.54395,13.20019c6.33691,13.72852,14.25683,21.12061,22.96875,21.12061,6.86425,0,10.29687-6.07227,10.29687-15.57617,0-11.6167-5.80859-21.9126-15.3125-31.68115l-11.08887-9.76807c-13.20019-12.93652-19.27246-22.70459-19.27246-38.54541,0-19.53662,12.14453-39.60107,31.15332-39.60107a30.66022,30.66022,0,0,1,24.02442,11.61621v39.07324h-3.43164l-5.0166-12.67236c-6.07227-14.78418-13.46387-23.76075-23.23243-23.76075-7.65625,0-10.82422,6.6001-10.82422,13.20069,0,12.936,8.44825,24.28857,17.95215,34.3208l11.61621,10.56054c10.56055,9.50391,16.63282,22.70459,16.63282,35.377,0,20.59228-9.76856,41.977-31.15332,41.977C13123.86822,252.50786,13114.628,248.28374,13108.29205,242.21147Z" transform="translate(0.00048 -0.00008)" style="fill:#f9ff10"/><path d="M13180.09771,163.53715v-3.168l25.08106-18.48047c11.08789-8.44824,14.52051-16.89649,14.52051-24.55274,0-19.80078-19.80078-31.94482-36.169-38.28125l-8.71289-3.43213c-.52734-19.0083,2.11231-29.30468,10.29688-29.30468,15.57617,0,43.0332,43.29736,43.0332,72.86621,0,20.32861-6.33594,35.90478-26.665,60.98584l-14.52051,13.46435Zm-.52734,70.22608c0-9.24024,6.07227-17.16065,14.52051-17.16065s14.51953,7.92041,14.51953,17.16065c0,9.50439-6.33594,17.16064-14.51953,17.16064C13185.90631,250.92387,13179.57037,243.26762,13179.57037,233.76323Z" transform="translate(0.00048 -0.00008)" style="fill:#f9ff10"/><path d="M13280.49225,76.71147c0,23.94043,9.12011,37.62061,18.81054,53.58057l11.39942,18.52539c10.26074,16.81543,19.0957,30.4956,19.0957,53.01074,0,27.36035-14.53516,51.01563-34.77051,51.01563-9.69043,0-17.95508-4.27491-25.08008-11.97022V184.72807h3.98926l3.4209,21.375c4.84473,30.49561,11.39941,35.91065,21.94531,35.91065,9.12012,0,19.37989-9.69043,19.37989-33.91553,0-17.1001-4.56055-28.78516-16.81543-47.88037l-12.8252-19.95068c-7.97949-12.54-19.37988-30.49512-19.37988-58.71045,0-31.63575,13.11035-51.58594,27.64551-51.58594,12.54,0,20.23535,13.11035,24.50976,29.92578l10.83008-29.92578-2.84961,97.75635h-4.27539l-4.27441-34.2002c-5.415-43.89062-13.68067-52.72607-22.23047-52.72607C13287.9024,40.80083,13280.49225,56.47612,13280.49225,76.71147Z" transform="translate(0.00048 -0.00008)" style="fill:#f9ff10"/><path d="M13427.26471,34.53081h21.375v7.98047l-5.415,18.5249L13420.709,248.28374h-6.55468l-18.81055-141.93164h-.85449l-19.09571,141.93164h-5.70019L13343.47369,45.646l-7.69531-3.13476V34.53081h62.70117l20.51953,170.14746h1.14063l15.10449-137.65674Zm-51.30078,171.85742L13392.209,82.12651l-5.415-40.47021h-31.91992l19.665,164.73193Z" transform="translate(0.00048 -0.00008)" style="fill:#f9ff10"/><path d="M13451.20318,240.30376l12.25489-3.13526V45.646l-12.25489-3.13476V34.53081h36.19532v7.98047l-12.25586,3.13476V237.1685l12.25586,3.13526v7.98h-36.19532Z" transform="translate(0.00048 -0.00008)" style="fill:#f9ff10"/><path d="M13562.921,248.28374h-16.53028l-25.36523-97.75635h-4.56055V237.1685l17.38574,3.13526v7.98h-41.32519v-7.98l12.25488-3.13526V45.646l-12.25488-3.13476V34.53081l14.53516-.28467c5.70019,0,8.835-.28516,13.39453-.28516,27.07519,0,36.76562,16.53028,36.76562,51.87061,0,31.35058-9.12012,55.00586-24.22558,62.416v6.27Zm-46.45606-106.30616c19.38086,8.26465,27.93067-17.67041,27.93067-53.86572,0-36.48047-10.54493-50.731-27.93067-47.88086Z" transform="translate(0.00048 -0.00008)" style="fill:#f9ff10"/><path d="M13628.753,155.65776h4.56054l.28418,103.45606-8.5498-10.83008h-59.28027v-7.98l12.25488-3.13526V45.646l-12.25488-3.13476V34.53081h49.58984v7.98047l-25.65039,3.13476V240.58842h29.35547Z" transform="translate(0.00048 -0.00008)" style="fill:#f9ff10"/><path d="M13637.29986,240.30376l12.25489-3.13526V45.646l-12.25489-3.13476V34.53081h36.19532v7.98047l-12.25586,3.13476V237.1685l12.25586,3.13526v7.98h-36.19532Z" transform="translate(0.00048 -0.00008)" style="fill:#f9ff10"/><path d="M13733.91217,42.51128V34.53081h39.33105v7.98047l-10.26074,3.13476,1.14063,205.773h-5.98536l-51.87109-178.69726h-3.98926l.56934,164.44677,21.66015,3.13526v7.98h-39.90039v-7.98l10.26075-3.13526-.28516-183.54248-18.52539-19.09521h31.06543l45.31543,156.46728h3.99023l-.85547-145.352Z" transform="translate(0.00048 -0.00008)" style="fill:#f9ff10"/><path d="M13831.09381,155.65776h17.09961v6.55469c-5.7002,60.4209-13.96485,90.63135-33.915,90.63135-21.94531,0-34.2002-42.46534-34.2002-108.58643,0-67.831,15.67481-114.28662,33.62989-114.28662,11.40039,0,19.0957,15.39062,23.37011,30.21045l10.83008-30.21045-2.84961,97.75635h-4.27539l-3.70508-34.48536c-4.55957-42.46533-14.53515-52.44091-22.22949-52.44091-13.68066,0-21.94531,37.05078-21.94531,98.61132,0,68.686,10.83008,103.7417,24.79492,103.7417,8.54981,0,12.8252-8.83545,16.24512-28.21533Z" transform="translate(0.00048 -0.00008)" style="fill:#f9ff10"/><path d="M13969.02936,34.53081h21.375v7.98047l-5.415,18.5249-22.51563,187.24756h-6.55469l-18.81054-141.93164h-.8545l-19.0957,141.93164h-5.70019L13885.23834,45.646l-7.69531-3.13476V34.53081h62.70117l20.51953,170.14746h1.14063l15.10449-137.65674Zm-51.30079,171.85742,16.24512-124.26172-5.415-40.47021h-31.91992l19.665,164.73193Z" transform="translate(0.00048 -0.00008)" style="fill:#f9ff10"/><path d="M14028.30963,240.30376l17.38574-3.13526-9.97559-72.106h-26.79l-9.97559,72.106,21.09082,3.13526v7.98h-35.626v-7.98l6.83985-2.8501,26.791-183.82764-19.95019-19.09521h29.9248l29.35547,202.63769,7.125,3.13526v7.98h-36.19531Zm-3.99024-160.17237h-3.41992l-10.83008,78.09131h24.79493Z" transform="translate(0.00048 -0.00008)" style="fill:#f9ff10"/><path d="M14074.47662,34.53081h59.56641l7.125-10.83008-.85547,95.47656h-3.99024l-9.40429-77.80615H14108.962V237.1685l25.65039,3.13526v7.98H14071.627v-7.98l25.65039-3.13526V41.37114h-17.38574l-10.83008,77.80615h-3.98926l1.99414-95.47656Z" transform="translate(0.00048 -0.00008)" style="fill:#f9ff10"/><path d="M14200.72955,34.53081l7.41016-11.39991,2.56543,95.19141h-3.4209l-13.67969-76.95117h-26.50586V130.292l34.77051,3.42041v3.41992l-34.77051,3.13477V240.58842h24.22559l15.39062-84.93066h3.41992l-2.56543,103.45606-8.5498-10.83008h-55.86035v-7.98l12.25488-3.13526V45.646l-12.25488-3.13476V34.53081Z" transform="translate(0.00048 -0.00008)" style="fill:#f9ff10"/><path d="M14287.93561,248.28374h-16.53028l-25.36523-97.75635h-4.56055V237.1685l17.38574,3.13526v7.98h-41.32519v-7.98l12.25488-3.13526V45.646l-12.25488-3.13476V34.53081l14.53515-.28467c5.69922,0,8.835-.28516,13.39453-.28516,27.0752,0,36.76563,16.53028,36.76563,51.87061,0,31.35058-9.12012,55.00586-24.22559,62.416v6.27Zm-46.45606-106.30616c19.38086,8.26465,27.93066-17.67041,27.93066-53.86572,0-36.48047-10.54492-50.731-27.93066-47.88086Z" transform="translate(0.00048 -0.00008)" style="fill:#f9ff10"/><path d="M14405.3526,34.53081h21.375v7.98047l-5.415,18.5249-22.51563,187.24756h-6.55468L14373.4317,106.3521h-.85449l-19.09571,141.93164h-5.70019L14321.56158,45.646l-7.69531-3.13476V34.53081h62.70117l20.51953,170.14746h1.14063l15.10449-137.65674Zm-51.30078,171.85742,16.24511-124.26172-5.415-40.47021H14332.962l19.665,164.73193Z" transform="translate(0.00048 -0.00008)" style="fill:#f9ff10"/><path d="M14429.29107,240.30376l12.25489-3.13526V45.646l-12.25489-3.13476V34.53081h36.19532v7.98047l-12.25586,3.13476V237.1685l12.25586,3.13526v7.98h-36.19532Z" transform="translate(0.00048 -0.00008)" style="fill:#f9ff10"/><path d="M14478.30768,34.53081h59.5664l7.125-10.83008-.85547,95.47656h-3.99023l-9.4043-77.80615h-17.956V237.1685l25.65039,3.13526v7.98h-62.98535v-7.98l25.65039-3.13526V41.37114h-17.38575l-10.83007,77.80615h-3.98926l1.99414-95.47656Z" transform="translate(0.00048 -0.00008)" style="fill:#f9ff10"/><path d="M14632.20611,42.51128l-12.25488,3.13476V237.1685l12.25488,3.13526v7.98h-39.0459v-7.98l15.10547-3.13526V137.98735h-37.05078V237.1685l14.82031,3.13526v7.98h-39.04492v-7.98l12.25489-3.13526h.28515V45.646l-12.25586-3.13476V34.53081h39.0459v7.98047L14571.2149,45.646v85.501h37.05078V45.646l-15.10547-3.13476V34.53081h39.0459Z" transform="translate(0.00048 -0.00008)" style="fill:#f9ff10"/><path d="M14761.02154,237.1685l11.40039,3.13526v7.98h-38.76074v-7.98l15.38965-3.13526-5.415-156.75195h-2.84961l-24.51074,165.87207h-4.27442L14688.9151,80.41655h-2.84961l-5.98535,157.03711,18.24023,2.8501v7.98h-35.625v-7.98l10.25977-3.13526,7.125-183.25732-18.80957-19.38037h32.20507l20.80469,153.61718h3.99024l21.09082-145.63671h-19.38086V34.53081h45.88574v7.98047h-11.68457Z" transform="translate(0.00048 -0.00008)" style="fill:#f9ff10"/><path d="M14810.89654,42.51128l-21.94531,3.13476,18.81055,89.77637h5.69922l17.38574-72.106-7.125-28.78564h21.375v7.98047l-7.125,23.93994-23.37012,97.18652V237.1685l25.65039,3.13526v7.98h-62.98633v-7.98l25.65039-3.13526v-71.251l-25.93554-120.55616-6.55469-2.85009V34.53081h40.4707Z" transform="translate(0.00048 -0.00008)" style="fill:#f9ff10"/><path d="M14920.04889,41.37114h-22.80078v90.061l34.7705,3.41993v3.42041l-34.7705,3.13476V237.1685l25.65039,3.13526v7.98h-49.58985v-7.98l12.25488-3.13526V45.646l-12.25488-3.13476V34.53081h53.86524l7.41015-10.83008,4.55957,88.92139h-3.41992Z" transform="translate(0.00048 -0.00008)" style="fill:#f9ff10"/><path d="M14940.85357,240.30376l12.25489-3.13526V45.646l-12.25489-3.13476V34.53081h36.19532v7.98047L14964.793,45.646V237.1685l12.25586,3.13526v7.98h-36.19532Z" transform="translate(0.00048 -0.00008)" style="fill:#f9ff10"/><path d="M15037.46588,42.51128V34.53081h39.33105v7.98047l-10.26074,3.13476,1.14063,205.773h-5.98536l-51.87109-178.69726h-3.98926l.56934,164.44677,21.66016,3.13526v7.98h-39.9004v-7.98l10.26075-3.13526L14998.1358,53.626l-18.52539-19.09521h31.06543l45.31543,156.46728h3.99023l-.85547-145.352Z" transform="translate(0.00048 -0.00008)" style="fill:#f9ff10"/><path d="M15134.64752,155.65776h17.09961v6.55469c-5.7002,60.4209-13.96485,90.63135-33.915,90.63135-21.94531,0-34.2002-42.46534-34.2002-108.58643,0-67.831,15.67481-114.28662,33.62989-114.28662,11.40039,0,19.0957,15.39062,23.37011,30.21045l10.83008-30.21045-2.84961,97.75635h-4.27539l-3.70508-34.48536c-4.55957-42.46533-14.53515-52.44091-22.22949-52.44091-13.68066,0-21.94531,37.05078-21.94531,98.61132,0,68.686,10.83008,103.7417,24.79492,103.7417,8.54981,0,12.8252-8.83545,16.24512-28.21533Z" transform="translate(0.00048 -0.00008)" style="fill:#f9ff10"/><path d="M15215.58307,34.53081l7.41015-11.39991,2.56543,95.19141h-3.4209l-13.67968-76.95117h-26.50586V130.292l34.7705,3.42041v3.41992l-34.7705,3.13477V240.58842h24.22558l15.39063-84.93066h3.41992l-2.56543,103.45606-8.5498-10.83008h-55.86036v-7.98l12.25489-3.13526V45.646l-12.25489-3.13476V34.53081Z" transform="translate(0.00048 -0.00008)" style="fill:#f9ff10"/><path d="M15302.78912,248.28374h-16.53027l-25.36524-97.75635h-4.56054V237.1685l17.38574,3.13526v7.98h-41.3252v-7.98l12.25489-3.13526V45.646l-12.25489-3.13476V34.53081l14.53516-.28467c5.69922,0,8.835-.28516,13.39453-.28516,27.0752,0,36.76563,16.53028,36.76563,51.87061,0,31.35058-9.12012,55.00586-24.22559,62.416v6.27Zm-46.456-106.30616c19.38086,8.26465,27.93066-17.67041,27.93066-53.86572,0-36.48047-10.54492-50.731-27.93066-47.88086Z" transform="translate(0.00048 -0.00008)" style="fill:#f9ff10"/><path d="M15362.92,135.99223c-21.08984.855-31.35059-26.22021-31.35059-54.15039,0-29.64062,6.84082-49.021,32.20606-47.88086l5.98535.28516V135.70708Zm44.74609-101.46142v7.98047l-11.9707,3.13476,2.56543,98.89649c2.28027,82.36572,0,99.18115-14.25,90.34619-2.56543,37.61987-9.69043,51.58569-20.23535,51.58569-7.41016.28516-15.96-10.83008-16.53027-31.92065l2.8496,5.70019c3.99024,8.26514,7.125,10.54492,10.54493,10.54492,13.11035,0,16.24609-35.34033,16.24609-101.74609l-.28516-135.0918h5.98438l2.56543,141.93164c.28516,23.94043,0,43.03565-1.13965,58.42578,5.415-2.27978,8.26465-10.83007,7.125-89.77587l-1.71-110.58155h3.70508Z" transform="translate(0.00048 -0.00008)" style="fill:#f9ff10"/></svg>