<svg xmlns="http://www.w3.org/2000/svg" width="15.73144cm" height="8.01067cm" viewBox="0 0 445.93066 227.07422"><path d="M385.106,6.20917l-17.58008,95.2251h-4.395l.87939-46.58741c.58594-25.49072-2.93017-35.45263-11.42724-35.45263-11.71973,0-24.61182,18.166-24.61182,43.65673,0,15.82178,5.85986,30.17872,11.71973,41.89893,7.61816,14.94336,15.52929,33.40234,15.52929,55.377,0,34.28125-18.752,59.47852-36.332,59.47852-9.376,0-14.6499-7.61817-17.28711-17.87305L286.6582,224.49384l17.28711-95.51856h4.10205l-.58642,46.88086c-.293,25.49023,3.22314,35.15918,11.72021,35.15918,11.72022,0,24.02588-18.166,24.02588-44.53613,0-21.97461-7.03174-38.38282-14.064-52.15332-6.15284-12.30567-12.59912-27.835-12.59912-45.708,0-32.81592,18.752-57.7207,36.332-57.7207,9.376,0,14.6499,7.3247,17.28711,17.58007Z" transform="translate(-286.6582 -2.69305)" style="fill:#e9e9e9"/><path d="M378.07227,206.32782l31.644-181.65967-14.064-3.80908,1.46485-7.91113h41.02l-1.46485,7.91113-15.82177,3.80908-31.644,181.65967,16.40772,3.80859-1.46485,7.91114h-43.0708l1.46485-7.91114Z" transform="translate(-286.6582 -2.69305)" style="fill:#e9e9e9"/><path d="M515.48535,6.50214l-17.28711,94.93213h-4.39551l1.17188-46.29444c.58691-26.07666-4.39453-35.7456-11.13379-35.7456-20.2168,0-41.89844,90.8291-41.89844,146.499,0,33.98828,4.10157,45.708,10.54785,45.708,7.03174,0,14.064-13.77051,23.73243-43.65625l12.89257-40.1416h4.39454l-12.59864,92.002-6.73925-25.49121c-7.61768,17.873-15.23584,25.49121-23.73292,25.49121-12.59863,0-20.80273-16.99414-20.80273-53.61914,0-71.19824,28.4209-155.28906,55.0835-155.28906,8.2041,0,13.18554,7.61767,15.82226,17.58007Z" transform="translate(-286.6582 -2.69305)" style="fill:#e9e9e9"/><path d="M575.25391,12.94794h41.01953l-1.46485,7.91113L598.9873,24.66815,567.34277,206.32782l16.40821,3.80859-1.46485,7.91114H539.50781l1.46485-7.91114,15.23632-3.80859,15.82227-90.24414H537.16406L521.3418,206.32782l14.06445,3.80859-1.46484,7.91114H493.21387l1.46582-7.91114,15.52832-3.80859L541.85254,24.66815l-14.06445-3.80908,1.46484-7.91113h40.72754l-1.46582,7.91113-15.52832,3.80908-14.65039,84.67627h34.86718l14.64942-84.67627-14.06348-3.80908Z" transform="translate(-286.6582 -2.69305)" style="fill:#e9e9e9"/><path d="M678.68066,12.94794l9.083-8.49707-16.11426,95.81054h-4.10253l5.27441-80.57422h-27.249L629.75,110.51727h36.03906v3.51563l-37.5039,4.6875L611.877,211.30829H642.6416l19.92481-84.67676h4.39453L651.72461,229.76727l-5.27344-11.71972H587.85156l1.46485-7.91114,12.30566-3.80859L633.26562,24.66815l-11.42675-3.80908,1.46484-7.91113Z" transform="translate(-286.6582 -2.69305)" style="fill:#e9e9e9"/><path d="M700.35938,205.15594c0,7.61719-4.98145,14.06348-11.42774,14.06348-5.27344,0-8.49609-4.10156-8.49609-10.25488,0-7.3252,4.98047-14.06348,11.42675-14.06348C697.13574,194.90106,700.35938,199.29559,700.35938,205.15594ZM732.58887,2.69305,701.53125,148.02118H712.0791L693.03418,186.111l-5.86035-38.08984h11.13379L717.05957,2.69305Z" transform="translate(-286.6582 -2.69305)" style="fill:#e9e9e9"/></svg>