<?xml version="1.0" encoding="utf-8"?>
<!-- Generator: Adobe Illustrator 24.0.1, SVG Export Plug-In . SVG Version: 6.00 Build 0)  -->
<svg version="1.1" id="Layer_1" xmlns:serif="http://www.serif.com/"
	 xmlns="http://www.w3.org/2000/svg" xmlns:xlink="http://www.w3.org/1999/xlink" x="0px" y="0px" viewBox="0 0 1020.5 230.1"
	 style="enable-background:new 0 0 1020.5 230.1;" xml:space="preserve">
<style type="text/css">
	.st0{fill:#E9E9E9;}
</style>
<g>
	<path class="st0" d="M15.1,192.9l19.4-13.1L60.1,55.2L47.2,42.1V41h52.6c34.1,0,47,18.1,47,39.9c0,30.2-29.5,52.8-71.1,52.8
		l1.1-5.2c31.2-1.7,49.4-21.6,49.4-48.9c0-17.9-10.6-32.8-30.2-32.8H80.8L53.9,177.6L75,192.9v1.1H15.1V192.9z"/>
	<path class="st0" d="M141.8,192.9l19.4-13.1l25.6-124.6l-12.9-13.1V41h99.4l-12.1,32.1h-1.1L247.2,47h-39.9l-13.6,66.4h36.4
		l21.6-13.6h1.1l-11,34.9h-1.1l-10.3-15.5h-37.9l-14,68.8h36.4l35.8-25.9h1.1L240.1,194h-98.3V192.9z"/>
	<path class="st0" d="M267.3,192.9l19.4-13.1l25.6-124.6l-12.9-13.1V41h51.1v1.1L331,55.2L303.9,188h36.4l35.8-25.9h1.1L365.5,194
		h-98.3L267.3,192.9L267.3,192.9z"/>
	<path class="st0" d="M387.5,192.9l19.4-13.1l25.6-124.6l-12.9-13.1V41H519l-12.1,32.1h-1.1L492.9,47H453l-13.6,66.4h36.4l21.6-13.6
		h1.1l-11,34.9h-1.1l-10.3-15.5h-37.9l-14,68.8h36.4l35.8-25.9h1.1L485.8,194h-98.3V192.9z"/>
	<path class="st0" d="M550.4,192.9l16.6-13.1L593.8,47h-33.2l-28.4,27.8H531l8.2-39.7h1.1L553,41h103l15.3-5.8h1.1l-8.2,39.7h-1.1
		L646.6,47h-33.8L586,179.8l11.4,13.1l-0.2,1.1h-47L550.4,192.9z"/>
	<path class="st0" d="M666.6,132.4c0.2-53.7,37.9-93.5,88.1-93.5c36.6,0,63.6,28.9,62.9,67.5c-0.9,51.3-37.1,89.7-84.7,89.7
		C695.1,196,666.6,168.8,666.6,132.4z M797,108.9c0.2-36.9-18.8-64.2-44.2-64.2c-38.4,0-66.4,35.3-65.7,82.5
		c0.4,36.2,20.3,62.9,46.6,62.7C769.6,189.7,796.8,155,797,108.9z"/>
	<path class="st0" d="M816.4,192.9l21.6-15.3l24.8-117l-15.5-18.5l0.4-1.1H875l83.6,123.7l22.6-107.3L966,42.1l0.2-1.1h43.3
		l-0.2,1.1l-21.6,15.1l-29.3,139.2h-1.9L868.1,65.6l-23.7,112.1l15.3,15.3v1.1h-43.3L816.4,192.9L816.4,192.9z"/>
</g>
</svg>
