<?xml version="1.0" encoding="utf-8"?>
<!-- Generator: Adobe Illustrator 24.0.1, SVG Export Plug-In . SVG Version: 6.00 Build 0)  -->
<svg version="1.1" id="Layer_1" xmlns="http://www.w3.org/2000/svg" xmlns:xlink="http://www.w3.org/1999/xlink" x="0px" y="0px"
	 viewBox="0 0 9596.7 342.3" style="enable-background:new 0 0 9596.7 342.3;" xml:space="preserve">
<style type="text/css">
	.st0{enable-background:new    ;}
</style>
<g class="st0">
	<path d="M176.9,149.8c0-51.2,40.8-89.5,95.6-89.5c52.4,0,91.7,37.6,91.7,87.8c0,50.9-39.1,89-91.4,89
		C217.8,237.1,176.9,199.8,176.9,149.8z M339.1,151.7c0-48.5-28.6-84.7-67.2-84.7c-40,0-69.9,33.2-69.9,77.9
		c0,49.2,29.8,85.6,69.6,85.4C310.3,230.1,339.1,196.6,339.1,151.7z"/>
	<path d="M411.4,223.8l15.8,9.9v1.2H375v-1.2l15.8-9.9V70.7l-16-7.8v-1l35.7-11.4h1v173.3H411.4z"/>
	<path d="M548.2,123.4v1.2l-14.8,14.1l-63.1,156.9h-27.2v-1.2c15.3-16.3,29.4-34,41.7-52.6l-45.1-106l-10.4-11.2v-1.2h49.5v1.2
		L463,136.5l32.7,76.9l29.6-74.7l-17.5-14.1v-1.2L548.2,123.4L548.2,123.4z"/>
	<path d="M549.9,131.4v-1l35.7-11.4h1v28.4h0.7c6.3-16.3,19.6-26.4,35.2-26.4c16,0,25.2,9,27.2,26.4h1c6.1-16.3,19.6-26.4,35.2-26.4
		c18.4,0,27.7,11.6,27.7,34.4v68.4l15.8,9.9v1.2H677v-1.2l15.8-9.9v-60.2c0-17.5-5.6-26.4-16.5-26.4c-15.5,0-25.7,11.6-26.2,30.6v56
		l15.8,9.9v1.2h-52.2v-1.2l15.8-9.9v-60.2c0-17.5-5.6-26.4-16.5-26.4c-16.3,0-26.2,11.9-26.2,31.3l-0.2,55.3l15.8,9.9v1.2h-52.2
		v-1.2l15.8-9.9v-84.7L549.9,131.4z"/>
	<path d="M774.5,235.4v47.8l20.6,11.2v1.2h-57v-1.2l15.8-9.9V139.1l-16-7.8v-1l35.7-11.4h1v24.7h0.7c7.5-14.1,21.8-22.8,37.1-22.8
		c26.2,0,42.4,21.1,42.4,55.3c0,37.8-23,61.1-60.2,61.1C789.3,237.4,781.8,236.6,774.5,235.4z M774.8,163.6l-0.2,55.1
		c5.3,7.5,14.1,12.4,23,12.4c22.1,0,35.7-18.4,35.7-48.3c0-28.9-11.9-46.8-31.3-46.8C786.4,136,774.8,147.9,774.8,163.6z"/>
	<path d="M905.5,223.8l15.8,9.9v1.2h-52.2v-1.2l15.8-9.9v-84.7l-16-7.8v-1l35.7-11.4h1L905.5,223.8L905.5,223.8z M879.3,74.4
		c0-8,6.1-14.1,14.3-14.1c8,0,14.1,6.1,14.1,14.1c0,8.2-6.1,14.3-14.1,14.3C885.4,88.7,879.3,82.6,879.3,74.4z"/>
	<path d="M1020.5,157.8h-1.2c-9.7-18-23-28.9-34.9-28.9c-18,0-31.3,19.2-31.3,44.9c0,26,16.7,45.1,39.3,45.1
		c12.1,0,26.9-6.3,33-15.3l1,0.7c-5.3,20.4-22.6,33-45.4,33c-27.9,0-48-22.8-48-55.3c0-36.1,22.8-59.7,58.2-59.7
		c11.9,0,22.8,0.7,26.7,1.9L1020.5,157.8z"/>
	<path d="M1037.5,198.6h1.2c7.3,18.4,22.6,32.3,35.4,32.3c9.9,0,17.2-8.2,17.2-19.4c0-7.8-5.1-14.8-15-20.9
		c-5.1-3.2-11.6-6.1-17-9.2c-12.4-7.3-20.1-18.2-20.1-28.6c0-19.6,15-31.8,39.5-31.8c7,0,17.2,1.5,23.8,3.2l2.7,28.9h-1.2
		c-9.5-16-21.1-26-30.3-26c-9.2,0-16.3,7.5-16.3,17.5c0,7,5.3,13.8,15.5,19.6c4.6,2.7,9.9,5.1,15,8c14.6,8,21.8,18.7,21.8,31.5
		c0,22.3-16,33.7-42.2,33.7c-7.8,0-19.4-1.5-26.9-3.4L1037.5,198.6z"/>
</g>
<g class="st0">
	<path d="M1255.7,118.5h-1.2l-25.7-41.7h-22.3v70.8h19.2l27.7-17h1.2l-7,48h-1l-21.6-24.3h-18.4v63.1l14.1,16.3v1.2H1153v-1.2
		l11.6-14.8V86L1153,71.2V70h111.1L1255.7,118.5z"/>
	<path d="M1359.7,197.3c-4.9,24.7-23,40-47.8,40c-30.3,0-49-21.1-49-55.3c0-37.8,21.3-61.1,56-61.1c24.7,0,40,14.1,40,37.1
		c0,3.9-1,8.2-2.4,11.4h-54.1c1.7,20.6,13.3,33,31,33c8.5,0,18.2-2.2,25.5-5.8L1359.7,197.3z M1302.3,163.6v1l21.1-5.8
		c0.2-2.7,0.5-5.3,0.5-8c0-15.8-3.2-25.5-8.5-25.5C1307.3,125.3,1302.3,139.9,1302.3,163.6z"/>
	<path d="M1434,123.4h32.7v1.2l-9.2,15.5l-60.9,148.2h-1.2l-23.5-43.7v-1.5h35.2l1-2.4l-41-100.7l-9.2-15.5v-1.2h60.6v1.2l-9.9,15
		l20.9,50.9l19.6-47.8l-15-18.2L1434,123.4L1434,123.4z"/>
	<path d="M1462.8,134v-1.2l49-13.8h1.2v32.7h1.2c5.6-19.6,19.6-30.8,36.1-30.8c18.2,0,27.4,12.4,27.4,36.9v63.8l8,12.1v1.2h-56v-1.2
		l7.5-12.1v-57.2c0-10.2-4.1-13.8-10.9-13.8c-8,0-11.9,3.6-11.9,11.4v59.7l7.8,12.1v1.2h-58.5v-1.2l10.2-12.1v-71.8L1462.8,134z"/>
	<path d="M1589.7,134v-1.2l49-13.8h1.2v32.7h1.2c4.9-19.2,18.7-30.8,36.1-30.8c16,0,24.7,10.4,26,30.8h1.2
		c5.3-19.2,19.2-30.8,36.1-30.8c18.2,0,27.4,12.1,27.4,36.4v64.3l8,12.1v1.2h-56v-1.2l7.5-12.1v-57.2c0-10.2-4.1-13.8-10.9-13.8
		c-8,0-11.9,3.9-11.9,11.4v59.7l8,12.1v1.2h-56v-1.2l7.5-12.1v-57.2c0-10.2-4.1-13.8-10.9-13.8c-8,0-11.9,3.6-11.9,11.4v59.7
		l7.8,12.1v1.2h-58.5v-1.2l10.2-12.1V150L1589.7,134z"/>
	<path d="M1878.1,209l10.9,7v0.7c-4.9,12.9-14.8,20.6-26.2,20.6c-13.3,0-21.8-9.2-22.6-24.3h-1.2c-3.6,15-13.6,24.3-26.2,24.3
		c-21.1,0-32.7-15.5-30.8-40.5l56-23V159c0-26.2-2.7-30.3-12.4-30.3c-2.9,0-4.6,0.2-6.1,0.7l3.4,36.9v1.2l-39.3-8.2
		c8.2-20.9,33-38.3,54.6-38.3c29.1,0,40.5,10.7,40.3,35.2L1878.1,209z M1838.3,209.2v-24l-19.6,1.5c-2.2,15.5,2.4,25,12.1,25
		C1833.2,211.7,1836.1,210.7,1838.3,209.2z"/>
	<path d="M1889.5,134v-1.2l49-13.8h1.2v32.7h1.2c5.6-19.6,19.6-30.8,36.1-30.8c18.2,0,27.4,12.4,27.4,36.9v63.8l8,12.1v1.2h-56v-1.2
		l7.5-12.1v-57.2c0-10.2-4.1-13.8-10.9-13.8c-8,0-11.9,3.6-11.9,11.4v59.7l7.8,12.1v1.2h-58.5v-1.2l10.2-12.1v-71.8L1889.5,134z"/>
</g>
<g class="st0">
	<path d="M2214.3,62.7v1.2l-15.5,14.6l-62.1,158.4h-9.9l-58-158.9L2055,63.9v-1.2h56v1.2l-18.2,14.8l43.2,120.1l47-120.1l-18.2-14.8
		v-1.2C2164.8,62.7,2214.3,62.7,2214.3,62.7z"/>
	<path d="M2317.7,173.3c0,39.5-23.5,64-61.6,64c-34,0-55.1-21.3-55.1-55.8c0-39.8,24.3-64.3,63.3-64.3
		C2297.3,117.3,2317.7,138.6,2317.7,173.3z M2224.7,174.3c0,31.3,13.8,50.5,36.1,50.5c20.6,0,33.2-17,33.2-44.4
		c0-31.3-13.8-50.7-36.4-50.7C2237.4,129.7,2224.7,146.6,2224.7,174.3z"/>
	<path d="M2343.6,290.2V289l34.2-49.5l5.6-9.9l-44.9-93.9l-12.4-14.8v-1.2h48v1.2l-12.4,15.3l32,68.2l28.9-68.2l-14.3-15.3v-1.2
		h45.1v1.2l-15.5,15l-65.7,154.3H2343.6z"/>
	<path d="M2547.6,215.8c0,3.6,6.1,6.6,20.9,10.2v0.7c-5.1,6.5-13.3,10.7-21.6,10.7c-10.7,0-17.2-6.8-17.2-18h-0.7
		c-7.8,11.9-18.9,18-33,18c-18.9,0-33-12.4-33-28.9c0-4.8,1-10.4,2.7-14.8c26.4-9.9,47.1-17.5,61.6-22.3v-20.9
		c0-13.1-8.7-21.1-23-21.1c-5.3,0-9.2,0.5-12.6,1.5l-2.7,23.5c-13.1,6.1-21.1,3.6-21.1-6.3c0-13.3,26.2-30.8,46.6-30.8
		c20.9,0,33.7,10.2,33.7,26.4L2547.6,215.8z M2527.5,212.6l-0.2-29.4c-14.1,4.4-28.6,9.2-43.2,14.6c-0.2,1.9-0.5,4.1-0.5,6.5
		c0,10.2,9.2,17.2,21.3,16.7C2513.6,220.6,2521.4,217.7,2527.5,212.6z"/>
	<path d="M2696.3,246.3c-0.7,26.9-30.8,46.8-70.1,46.8c-33.2,0-50.2-9.7-50.2-28.6c0-11.6,8.5-22.6,25.7-32
		c-9.2-4.1-14.3-10.7-14.3-19.4c1.7-2.2,5.1-3.9,8.5-5.3l32.7-13.6v-1.5h-3.6c-27.4,0-44.4-14.1-44.4-36.6c0-24.7,21.1-40,55.1-40
		c10.2,0,19.6,1.7,26.4,3.6c14.1-0.2,22.8-1.5,35.2-4.9h1.2l-3.2,17l-20.6-1.5l-1.2,1.9c6.8,4.4,10.2,11.4,10.2,21.1
		c0,14.3-12.1,29.4-32,39.5c-7.3,3.9-29.4,13.1-45.1,19.6c1.9,4.1,9.5,6.5,19.6,6.5c12.9,0,23.8-0.5,31.5-0.5
		C2681.7,218.7,2696.5,229.4,2696.3,246.3z M2676.6,253.1c-0.2-10.7-9.5-17.2-24-17.2c-7.8,0-17,0.5-28.4,0.5
		c-6.1,0-11.4-0.7-16.3-1.7c-7.8,5.8-10.7,12.6-10.7,21.6c0,12.9,12.6,23.5,37.4,23.5C2658.9,279.8,2676.9,268.4,2676.6,253.1z
		 M2633,182.8c16,0,28.1-11.6,28.1-27.4c0-16.5-12.6-28.9-29.4-28.9c-16.3,0-28.4,11.9-28.4,27.7
		C2603.4,170.7,2616,182.8,2633,182.8z"/>
	<path d="M2813.2,207.3c-8.5,18.7-27.2,30.1-49,30.1c-33.5,0-54.1-22.1-54.1-58c0-38.3,21.6-62.1,56.5-62.1c26,0,42,15,42,35.2
		c0,7-1,12.6-2.4,16.3h-75.9v2.7c0,28.9,16,46.8,41.7,46.8c15.3,0,29.6-5.8,37.4-15.3L2813.2,207.3z M2731.7,157.1h56.5
		c0.2-1.5,0.5-3.2,0.5-5.1c0-13.6-9.9-22.1-26-22.1C2746.7,129.9,2735.6,139.9,2731.7,157.1z"/>
</g>
<g class="st0">
	<path d="M2877,233.7l17.9-19.6l54.8-119.8l-7.3-16.7v-1.2l33.7-20.6h1.2c9.7,27.9,21.1,55.8,38.1,95.6l28.1,65.7l16.5,16.7v1.2
		h-71.6v-1.2l13.6-17l-15.5-36.4h-58l-15.3,34.2l15.8,19.2v1.2h-52V233.7z M2980,165.6l-21.8-51.2l-22.8,51.2H2980z"/>
	<path d="M3070.3,233.7l15-14.1v-78.3l-16-12.6v-1l50.2-14.8h1v27.2h0.7c7.3-15.5,22.6-25.2,39.8-25.2c22.6,0,36.6,13.6,36.6,35.4
		v69.4l15,14.1v1.2h-65.3v-1.2l15-14.1v-62.1c0-12.4-7.3-20.1-18.9-20.1c-13.1,0-22.8,10.7-22.8,25.2l-0.2,57l15,14.1v1.2h-65.3
		v-1.3H3070.3z"/>
	<path d="M3312.1,210.4c-9,17.9-22.3,26.9-39.5,26.9c-22.8,0-34.2-9.7-34.2-29.1v-75.7h-18v-1.2l52.2-41h1v27.2h42.5l-10.9,15h-31.5
		v64.8c0,9.7,5.8,14.6,17,14.6c6.1,0,12.1-1.9,18-5.8L3312.1,210.4z"/>
	<path d="M3323.5,127.7l50.2-14.8h1v106.7l15,14.1v1.2h-65.3v-1.2l15-14.1v-78.3l-16-12.6v-1H3323.5z M3355.8,60.3
		c10.9,0,19.2,8.2,19.2,19.4c0,10.9-8.2,19.2-19.2,19.2c-11.2,0-19.4-8.2-19.4-19.2C3336.4,68.5,3344.6,60.3,3355.8,60.3z"/>
	<path d="M3470.3,288.3v-1.2l17.5-16v-26.2c0-12.1,0.5-24,1-32.5h-1c-7.8,15.5-22.1,25-37.8,25c-26.4,0-46.1-22.3-46.1-52.4
		c0-40.3,30.3-70.1,70.8-70.1c3.2,0,11.2,0.2,17,1.2l30.1-11.4h1.2V273l15,14.1v1.2L3470.3,288.3L3470.3,288.3z M3466.6,214.8
		c12.1,0,21.1-9,21.1-20.9v-56c-4.9-5.1-12.6-8.7-18.4-8.7c-16,0-28.1,18.7-28.1,43.7C3441.2,200.7,3449.6,214.8,3466.6,214.8z"/>
	<path d="M3688.6,222.6l-50.2,16.7h-1l-1.7-27.7h-0.7c-7,16-21.6,25.7-38.3,25.7c-21.8,0-35.4-13.6-35.4-35.4v-65l-17-14.6v-1
		l51.4-7h1v80.3c0,11.6,5.8,20.1,15,20.1c12.6,0,23.8-12.1,23.8-25.7l0.2-50.5l-17.5-15.8v-1l51.7-7.5h1v96.5l17.7,10.7V222.6z"/>
	<path d="M3697.3,127.7l50.2-14.8h1v106.7l15,14.1v1.2h-65.3v-1.2l15-14.1v-78.3l-16-12.6v-1H3697.3z M3729.6,60.3
		c10.9,0,19.2,8.2,19.2,19.4c0,10.9-8.2,19.2-19.2,19.2c-11.2,0-19.4-8.2-19.4-19.2C3710.1,68.5,3718.4,60.3,3729.6,60.3z"/>
	<path d="M3863.4,210.4c-9,17.9-22.3,26.9-39.5,26.9c-22.8,0-34.2-9.7-34.2-29.1v-75.7h-18v-1.2l52.2-41h1v27.2h42.5l-10.9,15H3825
		v64.8c0,9.7,5.8,14.6,17,14.6c6.1,0,12.1-1.9,18-5.8L3863.4,210.4z"/>
	<path d="M3935.2,237.4c-36.1,0-58.5-23.5-58.5-61.4c0-37.8,23.5-61.1,61.6-61.1c29.4,0,47.5,15.5,47.5,40.5c0,6.1-0.7,10.9-2.4,15
		h-73.3c1.7,25.5,15,38.3,39.5,38.3c13.1,0,24.3-4.4,33.2-13.1l3.6,3.6C3979.9,222.8,3960.2,237.4,3935.2,237.4z M3910.3,157.8h40.3
		c0.7-2.7,1.2-5.1,1.2-7.5c0-15-6.5-21.8-17.2-21.8C3920,128.5,3912,139.6,3910.3,157.8z M3949.1,56.9h33.5l-47.3,42.9h-18.7
		L3949.1,56.9z"/>
</g>
<g class="st0">
	<path d="M4336.7,295.1c-14.6,8.5-39.3,11.9-69.1,11.9c-65,0-115.9-27.9-149.2-69.9c-44.4-0.7-75.7-33-75.7-71.6
		c0.2-59.2,47.5-105.3,101.9-105.3c48.3,0,74.5,34.9,73.7,75.9c-0.7,47.8-36.1,88.3-78.1,98.5c48.3,42.9,106.2,59.2,155.5,59.2
		c13.8,0,26.9-1.5,39.1-3.6L4336.7,295.1z M4120.8,226.5c41.2-0.2,73.3-37.1,73.5-87.3c0.2-42.5-22.6-68.4-51.9-68.4
		c-40.8,0-76.9,38.8-76.2,89C4066.7,197.8,4088.3,226.7,4120.8,226.5z"/>
	<path d="M4343.3,205.3c-9.7,17.7-22.3,32-35.4,32c-9,0-13.3-8.7-9-26.4c2.2-9.2,5.6-22.1,7.8-31.5l-1.9-1
		c-12.6,26.9-29.4,58.9-52.4,58.9c-16,0-20.1-12.4-15.8-34.4l12.9-63.3l-16.3-11.2v-1.2l38.1-9.9h1.2l-16.5,82.2
		c-2.4,12.4-0.7,19.4,5.6,19.4c11.6,0,38.6-37.4,44.6-59.4c3.2-11.4,5.8-24.3,9.7-42.2h18.7l-17.7,87.1c-1.7,8-1.2,13.3,3.2,13.3
		c5.3,0,12.6-8.2,18.7-16.5L4343.3,205.3z"/>
	<path d="M4464.1,204.6c-9.7,18-21.3,32.7-35.4,32.7c-13.6,0-12.1-17.7-4.9-43.7l-1.9-1.5c-15.3,29.4-26.2,44.9-45.4,44.9
		c-12.4,0-22.1-10.4-22.1-34.4c0-51.4,37.1-85.9,72-85.9c4.4,0,7.8,0.2,10.9,0.7l18.9-7.8h1.2l-19.9,94.6
		c-1.7,8.5-1.5,13.8,3.2,13.8c5.3,0,12.9-8.7,18.9-17L4464.1,204.6z M4434.7,130.4c-3.4-1.9-8-3.2-13.1-3.2
		c-20.9,0-47.3,37.1-47.3,68.2c0,14.6,3.2,21.8,10.4,21.8c13.1,0,35.9-25.7,42-51.7L4434.7,130.4z M4435.9,125.1v-0.5V125.1z"/>
	<path d="M4533.2,205.1c-9.7,17.9-26.2,32.3-42.2,32.3c-12.6,0-14.1-9.9-10.4-27.7l15.3-76.2h-18l1-4.9
		c14.6-9.9,28.1-20.9,42.7-34.9h1.2l-6.3,29.4l33.2-1l-2.9,11.4l-32.5,0.2l-13.8,69.9c-1.7,8.7-0.7,14.6,3.4,14.6
		c7.8,0,18.7-8.7,24.7-17L4533.2,205.1z"/>
	<path d="M4609.3,205.1c-9.7,17.9-26.2,32.3-42.2,32.3c-12.6,0-14.1-9.9-10.4-27.7l15.3-76.2h-18l1-4.9
		c14.6-9.9,28.1-20.9,42.7-34.9h1.2l-6.3,29.4l33.2-1l-2.9,11.4l-32.5,0.2l-13.8,69.9c-1.7,8.7-0.7,14.6,3.4,14.6
		c7.8,0,18.7-8.7,24.7-17L4609.3,205.1z"/>
	<path d="M4630.2,128.2V127l38.1-9.5h1.2l-8.2,39.1c-2.7,12.4-5.3,21.3-7.3,29.6l3.4,0.7c15-42.2,27.7-72,43.7-72
		c3.4,0,7.5,1,9.7,2.9l-5.8,25.5h-1.2c-2.4-2.4-5.6-5.1-9.5-5.1c-5.8,0-12.6,9.5-20.4,25c-10.7,21.3-14.8,31.3-19.6,49
		c-1.9,7.5-3.9,14.6-5.6,22.8H4631l17.2-95.1L4630.2,128.2z"/>
	<path d="M4810.7,156.6c0,48.3-32,81-64,81c-21.1,0-36.1-18.7-36.1-42.7c0-42.2,27.7-79.8,63.6-79.8
		C4796.1,115.1,4810.7,134.8,4810.7,156.6z M4788.6,152.7c0-19.9-4.1-28.4-17.5-28.4c-17.2,0-38.6,34.2-38.1,74.7
		c0.2,15.8,2.4,29.1,17,29.1C4765.1,228.1,4788.6,202,4788.6,152.7z"/>
</g>
<g class="st0">
	<path d="M4938.3,149.8c0-51.2,40.8-89.5,95.6-89.5c52.4,0,91.7,37.6,91.7,87.8c0,50.9-39.1,89-91.4,89
		C4979.2,237.1,4938.3,199.8,4938.3,149.8z M5100.5,151.7c0-48.5-28.6-84.7-67.2-84.7c-40,0-69.9,33.2-69.9,77.9
		c0,49.2,29.8,85.6,69.6,85.4C5071.7,230.1,5100.5,196.6,5100.5,151.7z"/>
	<path d="M5172.8,223.8l15.8,9.9v1.2h-52.2v-1.2l15.8-9.9V70.7l-16-7.8v-1l35.7-11.4h1v173.3H5172.8z"/>
	<path d="M5309.6,123.4v1.2l-14.8,14.1l-63.1,156.9h-27.2v-1.2c15.3-16.3,29.4-34,41.7-52.6l-45.1-106l-10.4-11.2v-1.2h49.5v1.2
		l-15.8,11.9l32.7,76.9l29.6-74.7l-17.5-14.1v-1.2L5309.6,123.4L5309.6,123.4z"/>
	<path d="M5311.3,131.4v-1L5347,119h1v28.4h0.7c6.3-16.3,19.6-26.4,35.2-26.4c16,0,25.2,9,27.2,26.4h1c6.1-16.3,19.6-26.4,35.2-26.4
		c18.4,0,27.7,11.6,27.7,34.4v68.4l15.8,9.9v1.2h-52.4v-1.2l15.8-9.9v-60.2c0-17.5-5.6-26.4-16.5-26.4c-15.5,0-25.7,11.6-26.2,30.6
		v56l15.8,9.9v1.2h-52.2v-1.2l15.8-9.9v-60.2c0-17.5-5.6-26.4-16.5-26.4c-16.3,0-26.2,11.9-26.2,31.3l-0.2,55.3l15.8,9.9v1.2h-52.2
		v-1.2l15.8-9.9v-84.7L5311.3,131.4z"/>
	<path d="M5535.9,235.4v47.8l20.6,11.2v1.2h-57v-1.2l15.8-9.9V139.1l-16-7.8v-1l35.7-11.4h1v24.7h0.7c7.5-14.1,21.8-22.8,37.1-22.8
		c26.2,0,42.4,21.1,42.4,55.3c0,37.8-23,61.1-60.2,61.1C5550.7,237.4,5543.2,236.6,5535.9,235.4z M5536.2,163.6l-0.2,55.1
		c5.3,7.5,14.1,12.4,23,12.4c22.1,0,35.7-18.4,35.7-48.3c0-28.9-11.9-46.8-31.3-46.8C5547.8,136,5536.2,147.9,5536.2,163.6z"/>
	<path d="M5666.9,223.8l15.8,9.9v1.2h-52.2v-1.2l15.8-9.9v-84.7l-16-7.8v-1l35.7-11.4h1L5666.9,223.8L5666.9,223.8z M5640.7,74.4
		c0-8,6.1-14.1,14.3-14.1c8,0,14.1,6.1,14.1,14.1c0,8.2-6.1,14.3-14.1,14.3C5646.8,88.7,5640.7,82.6,5640.7,74.4z"/>
	<path d="M5781.9,157.8h-1.2c-9.7-18-23-28.9-34.9-28.9c-18,0-31.3,19.2-31.3,44.9c0,26,16.7,45.1,39.3,45.1
		c12.1,0,26.9-6.3,33-15.3l1,0.7c-5.3,20.4-22.6,33-45.4,33c-27.9,0-48-22.8-48-55.3c0-36.1,22.8-59.7,58.2-59.7
		c11.9,0,22.8,0.7,26.7,1.9L5781.9,157.8z"/>
	<path d="M5798.9,198.6h1.2c7.3,18.4,22.6,32.3,35.4,32.3c9.9,0,17.2-8.2,17.2-19.4c0-7.8-5.1-14.8-15-20.9
		c-5.1-3.2-11.6-6.1-17-9.2c-12.4-7.3-20.1-18.2-20.1-28.6c0-19.6,15-31.8,39.5-31.8c7,0,17.2,1.5,23.8,3.2l2.7,28.9h-1.2
		c-9.5-16-21.1-26-30.3-26c-9.2,0-16.3,7.5-16.3,17.5c0,7,5.3,13.8,15.5,19.6c4.6,2.7,9.9,5.1,15,8c14.6,8,21.8,18.7,21.8,31.5
		c0,22.3-16,33.7-42.2,33.7c-7.8,0-19.4-1.5-26.9-3.4L5798.9,198.6z"/>
</g>
<g class="st0">
	<path d="M6017.1,118.5h-1.2l-25.7-41.7h-22.3v70.8h19.2l27.7-17h1.2l-7,48h-1l-21.6-24.3H5968v63.1l14.1,16.3v1.2h-67.7v-1.2
		l11.6-14.8V86l-11.6-14.8V70h111.1L6017.1,118.5z"/>
	<path d="M6121.1,197.3c-4.9,24.7-23,40-47.8,40c-30.3,0-49-21.1-49-55.3c0-37.8,21.3-61.1,56-61.1c24.7,0,40,14.1,40,37.1
		c0,3.9-1,8.2-2.4,11.4h-54.1c1.7,20.6,13.3,33,31,33c8.5,0,18.2-2.2,25.5-5.8L6121.1,197.3z M6063.7,163.6v1l21.1-5.8
		c0.2-2.7,0.5-5.3,0.5-8c0-15.8-3.2-25.5-8.5-25.5C6068.7,125.3,6063.7,139.9,6063.7,163.6z"/>
	<path d="M6195.4,123.4h32.7v1.2l-9.2,15.5L6158,288.3h-1.2l-23.5-43.7v-1.5h35.2l1-2.4l-41-100.7l-9.2-15.5v-1.2h60.6v1.2l-9.9,15
		l20.9,50.9l19.6-47.8l-15-18.2L6195.4,123.4L6195.4,123.4z"/>
	<path d="M6224.2,134v-1.2l49-13.8h1.2v32.7h1.2c5.6-19.6,19.6-30.8,36.1-30.8c18.2,0,27.4,12.4,27.4,36.9v63.8l8,12.1v1.2h-56v-1.2
		l7.5-12.1v-57.2c0-10.2-4.1-13.8-10.9-13.8c-8,0-11.9,3.6-11.9,11.4v59.7l7.8,12.1v1.2h-58.5v-1.2l10.2-12.1v-71.8L6224.2,134z"/>
	<path d="M6351.1,134v-1.2l49-13.8h1.2v32.7h1.2c4.9-19.2,18.7-30.8,36.1-30.8c16,0,24.7,10.4,26,30.8h1.2
		c5.3-19.2,19.2-30.8,36.1-30.8c18.2,0,27.4,12.1,27.4,36.4v64.3l8,12.1v1.2h-56v-1.2l7.5-12.1v-57.2c0-10.2-4.1-13.8-10.9-13.8
		c-8,0-11.9,3.9-11.9,11.4v59.7l8,12.1v1.2h-56v-1.2l7.5-12.1v-57.2c0-10.2-4.1-13.8-10.9-13.8c-8,0-11.9,3.6-11.9,11.4v59.7
		l7.8,12.1v1.2H6352v-1.2l10.2-12.1V150L6351.1,134z"/>
	<path d="M6639.5,209l10.9,7v0.7c-4.9,12.9-14.8,20.6-26.2,20.6c-13.3,0-21.8-9.2-22.6-24.3h-1.2c-3.6,15-13.6,24.3-26.2,24.3
		c-21.1,0-32.7-15.5-30.8-40.5l56-23V159c0-26.2-2.7-30.3-12.4-30.3c-2.9,0-4.6,0.2-6.1,0.7l3.4,36.9v1.2l-39.3-8.2
		c8.2-20.9,33-38.3,54.6-38.3c29.1,0,40.5,10.7,40.3,35.2L6639.5,209z M6599.7,209.2v-24l-19.6,1.5c-2.2,15.5,2.4,25,12.1,25
		C6594.6,211.7,6597.5,210.7,6599.7,209.2z"/>
	<path d="M6650.9,134v-1.2l49-13.8h1.2v32.7h1.2c5.6-19.6,19.6-30.8,36.1-30.8c18.2,0,27.4,12.4,27.4,36.9v63.8l8,12.1v1.2h-56v-1.2
		l7.5-12.1v-57.2c0-10.2-4.1-13.8-10.9-13.8c-8,0-11.9,3.6-11.9,11.4v59.7l7.8,12.1v1.2h-58.5v-1.2l10.2-12.1v-71.8L6650.9,134z"/>
</g>
<g class="st0">
	<path d="M6975.7,62.7v1.2l-15.5,14.6l-62.1,158.4h-9.9l-58-158.9l-13.8-14.1v-1.2h56v1.2l-18.2,14.8l43.2,120.1l47-120.1
		l-18.2-14.8v-1.2C6926.2,62.7,6975.7,62.7,6975.7,62.7z"/>
	<path d="M7079.1,173.3c0,39.5-23.5,64-61.6,64c-34,0-55.1-21.3-55.1-55.8c0-39.8,24.3-64.3,63.3-64.3
		C7058.7,117.3,7079.1,138.6,7079.1,173.3z M6986.1,174.3c0,31.3,13.8,50.5,36.1,50.5c20.6,0,33.2-17,33.2-44.4
		c0-31.3-13.8-50.7-36.4-50.7C6998.8,129.7,6986.1,146.6,6986.1,174.3z"/>
	<path d="M7105,290.2V289l34.2-49.5l5.6-9.9l-44.9-93.9l-12.4-14.8v-1.2h48v1.2l-12.4,15.3l32,68.2l28.9-68.2l-14.3-15.3v-1.2h45.1
		v1.2l-15.5,15l-65.7,154.3H7105z"/>
	<path d="M7309,215.8c0,3.6,6.1,6.6,20.9,10.2v0.7c-5.1,6.5-13.3,10.7-21.6,10.7c-10.7,0-17.2-6.8-17.2-18h-0.7
		c-7.8,11.9-18.9,18-33,18c-18.9,0-33-12.4-33-28.9c0-4.8,1-10.4,2.7-14.8c26.4-9.9,47.1-17.5,61.6-22.3v-20.9
		c0-13.1-8.7-21.1-23-21.1c-5.3,0-9.2,0.5-12.6,1.5l-2.7,23.5c-13.1,6.1-21.1,3.6-21.1-6.3c0-13.3,26.2-30.8,46.6-30.8
		c20.9,0,33.7,10.2,33.7,26.4L7309,215.8z M7288.9,212.6l-0.2-29.4c-14.1,4.4-28.6,9.2-43.2,14.6c-0.2,1.9-0.5,4.1-0.5,6.5
		c0,10.2,9.2,17.2,21.3,16.7C7275,220.6,7282.8,217.7,7288.9,212.6z"/>
	<path d="M7457.7,246.3c-0.7,26.9-30.8,46.8-70.1,46.8c-33.2,0-50.2-9.7-50.2-28.6c0-11.6,8.5-22.6,25.7-32
		c-9.2-4.1-14.3-10.7-14.3-19.4c1.7-2.2,5.1-3.9,8.5-5.3l32.7-13.6v-1.5h-3.6c-27.4,0-44.4-14.1-44.4-36.6c0-24.7,21.1-40,55.1-40
		c10.2,0,19.6,1.7,26.4,3.6c14.1-0.2,22.8-1.5,35.2-4.9h1.2l-3.2,17l-20.6-1.5l-1.2,1.9c6.8,4.4,10.2,11.4,10.2,21.1
		c0,14.3-12.1,29.4-32,39.5c-7.3,3.9-29.4,13.1-45.1,19.6c1.9,4.1,9.5,6.5,19.6,6.5c12.9,0,23.8-0.5,31.5-0.5
		C7443.1,218.7,7457.9,229.4,7457.7,246.3z M7438,253.1c-0.2-10.7-9.5-17.2-24-17.2c-7.8,0-17,0.5-28.4,0.5
		c-6.1,0-11.4-0.7-16.3-1.7c-7.8,5.8-10.7,12.6-10.7,21.6c0,12.9,12.6,23.5,37.4,23.5C7420.3,279.8,7438.3,268.4,7438,253.1z
		 M7394.4,182.8c16,0,28.1-11.6,28.1-27.4c0-16.5-12.6-28.9-29.4-28.9c-16.3,0-28.4,11.9-28.4,27.7
		C7364.8,170.7,7377.4,182.8,7394.4,182.8z"/>
	<path d="M7574.6,207.3c-8.5,18.7-27.2,30.1-49,30.1c-33.5,0-54.1-22.1-54.1-58c0-38.3,21.6-62.1,56.5-62.1c26,0,42,15,42,35.2
		c0,7-1,12.6-2.4,16.3h-75.9v2.7c0,28.9,16,46.8,41.7,46.8c15.3,0,29.6-5.8,37.4-15.3L7574.6,207.3z M7493.1,157.1h56.5
		c0.2-1.5,0.5-3.2,0.5-5.1c0-13.6-9.9-22.1-26-22.1C7508.1,129.9,7497,139.9,7493.1,157.1z"/>
</g>
<g class="st0">
	<path d="M7638.4,233.7l17.9-19.6l54.8-119.8l-7.3-16.7v-1.2l33.7-20.6h1.2c9.7,27.9,21.1,55.8,38.1,95.6l28.1,65.7l16.5,16.7v1.2
		h-71.6v-1.2l13.6-17l-15.5-36.4h-58l-15.3,34.2l15.8,19.2v1.2h-52V233.7z M7741.4,165.6l-21.8-51.2l-22.8,51.2H7741.4z"/>
	<path d="M7831.7,233.7l15-14.1v-78.3l-16-12.6v-1l50.2-14.8h1v27.2h0.7c7.3-15.5,22.6-25.2,39.8-25.2c22.6,0,36.6,13.6,36.6,35.4
		v69.4l15,14.1v1.2h-65.3v-1.2l15-14.1v-62.1c0-12.4-7.3-20.1-18.9-20.1c-13.1,0-22.8,10.7-22.8,25.2l-0.2,57l15,14.1v1.2h-65.3
		v-1.3H7831.7z"/>
	<path d="M8073.5,210.4c-9,17.9-22.3,26.9-39.5,26.9c-22.8,0-34.2-9.7-34.2-29.1v-75.7h-18v-1.2l52.2-41h1v27.2h42.5l-10.9,15h-31.5
		v64.8c0,9.7,5.8,14.6,17,14.6c6.1,0,12.1-1.9,18-5.8L8073.5,210.4z"/>
	<path d="M8084.9,127.7l50.2-14.8h1v106.7l15,14.1v1.2h-65.3v-1.2l15-14.1v-78.3l-16-12.6v-1H8084.9z M8117.2,60.3
		c10.9,0,19.2,8.2,19.2,19.4c0,10.9-8.2,19.2-19.2,19.2c-11.2,0-19.4-8.2-19.4-19.2C8097.8,68.5,8106,60.3,8117.2,60.3z"/>
	<path d="M8231.7,288.3v-1.2l17.5-16v-26.2c0-12.1,0.5-24,1-32.5h-1c-7.8,15.5-22.1,25-37.8,25c-26.4,0-46.1-22.3-46.1-52.4
		c0-40.3,30.3-70.1,70.8-70.1c3.2,0,11.2,0.2,17,1.2l30.1-11.4h1.2V273l15,14.1v1.2L8231.7,288.3L8231.7,288.3z M8228,214.8
		c12.1,0,21.1-9,21.1-20.9v-56c-4.9-5.1-12.6-8.7-18.4-8.7c-16,0-28.1,18.7-28.1,43.7C8202.6,200.7,8211,214.8,8228,214.8z"/>
	<path d="M8450,222.6l-50.2,16.7h-1l-1.7-27.7h-0.7c-7,16-21.6,25.7-38.3,25.7c-21.8,0-35.4-13.6-35.4-35.4v-65l-17-14.6v-1l51.4-7
		h1v80.3c0,11.6,5.8,20.1,15,20.1c12.6,0,23.8-12.1,23.8-25.7l0.2-50.5l-17.5-15.8v-1l51.7-7.5h1v96.5l17.7,10.7V222.6z"/>
	<path d="M8458.7,127.7l50.2-14.8h1v106.7l15,14.1v1.2h-65.3v-1.2l15-14.1v-78.3l-16-12.6L8458.7,127.7L8458.7,127.7z M8491,60.3
		c10.9,0,19.2,8.2,19.2,19.4c0,10.9-8.2,19.2-19.2,19.2c-11.2,0-19.4-8.2-19.4-19.2C8471.5,68.5,8479.8,60.3,8491,60.3z"/>
	<path d="M8624.8,210.4c-9,17.9-22.3,26.9-39.5,26.9c-22.8,0-34.2-9.7-34.2-29.1v-75.7h-18v-1.2l52.2-41h1v27.2h42.5l-10.9,15h-31.5
		v64.8c0,9.7,5.8,14.6,17,14.6c6.1,0,12.1-1.9,18-5.8L8624.8,210.4z"/>
	<path d="M8696.6,237.4c-36.1,0-58.5-23.5-58.5-61.4c0-37.8,23.5-61.1,61.6-61.1c29.4,0,47.5,15.5,47.5,40.5c0,6.1-0.7,10.9-2.4,15
		h-73.3c1.7,25.5,15,38.3,39.5,38.3c13.1,0,24.3-4.4,33.2-13.1l3.6,3.6C8741.3,222.8,8721.6,237.4,8696.6,237.4z M8671.7,157.8h40.3
		c0.7-2.7,1.2-5.1,1.2-7.5c0-15-6.5-21.8-17.2-21.8C8681.4,128.5,8673.4,139.6,8671.7,157.8z M8710.5,56.9h33.5l-47.3,42.9H8678
		L8710.5,56.9z"/>
</g>
<g class="st0">
	<path d="M9098.1,295.1c-14.6,8.5-39.3,11.9-69.1,11.9c-65,0-115.9-27.9-149.2-69.9c-44.4-0.7-75.7-33-75.7-71.6
		c0.2-59.2,47.5-105.3,101.9-105.3c48.3,0,74.5,34.9,73.7,75.9c-0.7,47.8-36.1,88.3-78.1,98.5c48.3,42.9,106.2,59.2,155.5,59.2
		c13.8,0,26.9-1.5,39.1-3.6L9098.1,295.1z M8882.2,226.5c41.2-0.2,73.3-37.1,73.5-87.3c0.2-42.5-22.6-68.4-51.9-68.4
		c-40.8,0-76.9,38.8-76.2,89C8828.1,197.8,8849.7,226.7,8882.2,226.5z"/>
	<path d="M9104.7,205.3c-9.7,17.7-22.3,32-35.4,32c-9,0-13.3-8.7-9-26.4c2.2-9.2,5.6-22.1,7.8-31.5l-1.9-1
		c-12.6,26.9-29.4,58.9-52.4,58.9c-16,0-20.1-12.4-15.8-34.4l12.9-63.3l-16.3-11.2v-1.2l38.1-9.9h1.2l-16.5,82.2
		c-2.4,12.4-0.7,19.4,5.6,19.4c11.6,0,38.6-37.4,44.6-59.4c3.2-11.4,5.8-24.3,9.7-42.2h18.7l-17.7,87.1c-1.7,8-1.2,13.3,3.2,13.3
		c5.3,0,12.6-8.2,18.7-16.5L9104.7,205.3z"/>
	<path d="M9225.5,204.6c-9.7,18-21.3,32.7-35.4,32.7c-13.6,0-12.1-17.7-4.9-43.7l-1.9-1.5c-15.3,29.4-26.2,44.9-45.4,44.9
		c-12.4,0-22.1-10.4-22.1-34.4c0-51.4,37.1-85.9,72-85.9c4.4,0,7.8,0.2,10.9,0.7l18.9-7.8h1.2l-19.9,94.6
		c-1.7,8.5-1.5,13.8,3.2,13.8c5.3,0,12.9-8.7,18.9-17L9225.5,204.6z M9196.1,130.4c-3.4-1.9-8-3.2-13.1-3.2
		c-20.9,0-47.3,37.1-47.3,68.2c0,14.6,3.2,21.8,10.4,21.8c13.1,0,35.9-25.7,42-51.7L9196.1,130.4z M9197.3,125.1v-0.5V125.1z"/>
	<path d="M9294.6,205.1c-9.7,17.9-26.2,32.3-42.2,32.3c-12.6,0-14.1-9.9-10.4-27.7l15.3-76.2h-18l1-4.9
		c14.6-9.9,28.1-20.9,42.7-34.9h1.2l-6.3,29.4l33.2-1l-2.9,11.4l-32.5,0.2l-13.8,69.9c-1.7,8.7-0.7,14.6,3.4,14.6
		c7.8,0,18.7-8.7,24.7-17L9294.6,205.1z"/>
	<path d="M9370.7,205.1c-9.7,17.9-26.2,32.3-42.2,32.3c-12.6,0-14.1-9.9-10.4-27.7l15.3-76.2h-18l1-4.9
		c14.6-9.9,28.1-20.9,42.7-34.9h1.2l-6.3,29.4l33.2-1l-2.9,11.4l-32.5,0.2l-13.8,69.9c-1.7,8.7-0.7,14.6,3.4,14.6
		c7.8,0,18.7-8.7,24.7-17L9370.7,205.1z"/>
	<path d="M9391.6,128.2V127l38.1-9.5h1.2l-8.2,39.1c-2.7,12.4-5.3,21.3-7.3,29.6l3.4,0.7c15-42.2,27.7-72,43.7-72
		c3.4,0,7.5,1,9.7,2.9l-5.8,25.5h-1.2c-2.4-2.4-5.6-5.1-9.5-5.1c-5.8,0-12.6,9.5-20.4,25c-10.7,21.3-14.8,31.3-19.6,49
		c-1.9,7.5-3.9,14.6-5.6,22.8h-17.7l17.2-95.1L9391.6,128.2z"/>
	<path d="M9572.1,156.6c0,48.3-32,81-64,81c-21.1,0-36.1-18.7-36.1-42.7c0-42.2,27.7-79.8,63.6-79.8
		C9557.5,115.1,9572.1,134.8,9572.1,156.6z M9550,152.7c0-19.9-4.1-28.4-17.5-28.4c-17.2,0-38.6,34.2-38.1,74.7
		c0.2,15.8,2.4,29.1,17,29.1C9526.5,228.1,9550,202,9550,152.7z"/>
</g>
</svg>
