<?xml version="1.0" encoding="UTF-8"?><svg id="a" xmlns="http://www.w3.org/2000/svg" width="408.2918cm" height="5.68065cm" viewBox="0 0 11573.62601 161.02617"><path d="M20.89698,38.78848v-.68285H0v-9.56058H46.43721v9.56058c-11.06299,0-10.92629,0-10.92629,15.02339v21.03302h37.14937v-26.35979c0-9.15047,.13604-9.01377,11.33573-9.01377v-.68285h-20.89631v-9.56058h46.43655v9.56058c-11.06299,0-10.92629,0-10.92629,15.02339v51.48991c0,13.11154,.40944,14.0678,10.92629,14.0678v9.56125H63.09972v-9.56125h20.89631v-.68285c-11.19969,.13737-11.33573,.13737-11.33573-9.01444v-25.94968H35.51093v21.57916c0,13.11154,.40944,14.0678,10.92629,14.0678v9.56125H0v-9.56125H20.89698v-.68285c-11.19969,.13737-11.3364,.13737-11.3364-9.01444V47.80225c0-9.15047,.1367-9.01377,11.3364-9.01377Z" style="fill:#0da847;"/><path d="M129.33294,90.4151h11.60914c0,18.16491,8.19488,27.04331,22.26268,27.04331,6.00962,0,14.0678-4.37051,20.35016-10.38014l5.59951,5.1894c-9.42388,12.15528-19.66731,17.07261-34.00786,17.07261-22.12598,0-39.47133-14.0678-39.47133-35.92037,0-30.32086,20.48687-40.29089,39.60803-40.29089,23.62772,0,32.23271,10.24343,32.23271,29.63734v6.96588h-58.18305v.68285Zm43.4324-8.87773v-.68285h-10.65355c-.27274-12.83814-3.27755-18.84776-11.19903-18.84776,2.5947-1.50241,6.41907-2.59537,9.42388-3.27822v-.68285c-14.0678,3.27822-18.16491,7.51203-19.12117,23.49168h31.54986Z" style="fill:#0da847;"/><path d="M188.46625,158.84158v-7.23929c13.9311-1.63911,13.9311-5.59885,13.9311-14.61328v-63.78257c.40944-8.05818,7.10192-8.33158,12.70143-11.06299v-.68285c-6.41907,3.27755-14.88669,4.23381-19.80402,4.23381v-7.23862c4.09777-.1367,9.83399-1.77581,18.16491-4.64392h13.52165v83.45055c0,10.92562-4.09711,23.76375-24.31124,23.76375-4.37051,0-12.29199-.95626-14.20384-2.18459ZM216.73789,15.70624c7.37533,0,13.38495,5.73688,13.38495,13.11154,0,7.37533-6.00962,12.97551-13.38495,12.97551s-13.24825-5.73622-13.24825-12.97551c0-7.37466,5.87292-13.11154,13.24825-13.11154Z" style="fill:#0da847;"/><path d="M273.14113,28.54505l-9.15047,70.61108h-8.19488l-9.28718-70.61108h26.63253Zm-25.13012,89.04939c0-6.69247,5.32677-11.88188,12.01858-11.88188,6.69247,0,12.15595,5.1894,12.15595,11.88188s-5.46348,11.74584-12.15595,11.74584c-6.69181,0-12.01858-5.1894-12.01858-11.74584Z" style="fill:#0da847;"/><path d="M314.38161,128.24798v-6.14699h9.15114V38.78848h-9.15114v-6.14633h34.69137v6.14633c-10.65355,0-10.51684,0-10.51684,14.0678v21.30576h51.62662V38.78848h-9.15047v-6.14633h34.69071v6.14633c-10.65288,0-10.51617,0-10.51617,14.0678v55.99713c0,12.29265,.40944,13.24758,10.51617,13.24758v6.14699h-34.69071v-6.14699h9.15047v-41.79263h-51.62662v28.54505c0,12.29265,.41011,13.24758,10.51684,13.24758v6.14699h-34.69137Z" style="fill:#0da847;"/><path d="M468.02545,118.96014v-7.51136c-2.7314,6.41907-8.74103,17.8915-22.53542,17.8915-17.20898,0-21.5795-10.78958-21.5795-20.07742,0-9.55992,4.78062-16.93524,16.52613-20.21346,8.19555-2.32196,19.2572-3.27822,27.58879-3.96107v-4.91666c0-7.78477-1.63911-14.47724-13.52099-14.47724-13.79439,0-18.16524,1.0923-20.3505,11.88254h-5.46281c0-15.02406,5.73622-22.39939,29.36493-22.39939,18.43698,0,23.62772,9.97069,23.62772,22.12598v34.28126c0,6.55644,0,9.97069,3.00481,9.97069,4.09711,0,9.15047-4.64392,9.69729-5.05337l2.86744,4.23314c-3.00481,3.00481-9.42388,8.60499-18.43832,8.60499-5.73622,0-10.78958-2.7314-10.78958-10.38014Zm-20.3495-.13604c10.10673,.40944,15.97898-8.46762,20.3495-19.12117v-9.15047c-10.51617,1.0923-17.75546,2.04855-22.39805,3.95974-7.64873,3.00481-7.7861,8.33158-7.7861,13.79439,0,5.46414,3.27822,10.2441,9.83466,10.51751Z" style="fill:#0da847;"/><path d="M498.61505,61.3239h-5.46414v-5.46348h33.59841v5.46348c-10.24277,0-10.78958,2.5947-8.87707,7.51203l17.61809,44.25196,16.79921-51.76399h-10.65221v-5.46348h28.68108v5.46348c-4.23448,0-6.41907-.41011-8.05818,3.27755l-28.1356,64.73882h-5.73622l-29.77338-68.01638Z" style="fill:#0da847;"/><path d="M607.18839,54.49472c8.46762,0,13.79439,1.77581,17.34602,5.19007,4.91599,4.64392,6.82851,13.11154,6.69247,23.08157v5.60018h-45.20821v.27341c0,25.4042,10.38014,30.18416,23.90112,30.18416,8.8784,0,14.75065-2.7314,18.71172-8.74103l4.09711,3.55029c-4.50655,8.60499-13.93043,15.70691-28.40768,15.70691-21.71653,0-32.64215-11.3364-32.64215-34.55467,0-30.32019,20.48553-40.29089,35.50959-40.29089Zm10.92695,28.40834c0-4.77996-1.09363-10.78958-3.68766-15.02339-2.32196-3.96107-6.00962-6.41907-11.3364-6.41907-14.20384,0-16.66317,8.60432-17.07261,21.44246h32.09667Z" style="fill:#0da847;"/><path d="M675.19743,161.02617c-4.91733,0-7.64873-1.0923-9.69729-2.458v-16.11635h5.46281c0,5.05337,3.96107,9.97069,9.01444,9.97069,7.78477,0,15.84295-14.34121,19.53061-26.36046l-28.95449-64.73816h-5.05337v-5.46348h31.82193v5.46348c-6.82851,0-8.46762,1.3657-7.37533,4.09711l18.16624,46.02777,20.75894-50.12488h-10.24277v-5.46348h28.81845v5.46348c-3.96107,0-6.28303-.1367-8.05818,3.27755l-32.50612,64.73882c-8.33158,16.66317-16.66317,31.68589-31.68589,31.68589Z" style="fill:#0da847;"/><path d="M750.85654,94.78561c0-30.32019,20.89631-40.29089,35.783-40.29089,21.03368,0,33.0516,9.83399,33.0516,34.55467,0,30.32019-20.89631,40.29089-35.783,40.29089-21.03368,0-33.0516-9.83332-33.0516-34.55467Zm38.65044,26.63253c15.02406,0,15.84428-10.24277,15.84428-26.22309,0-27.58879-13.24891-33.1883-23.90112-33.1883-15.4335,0-16.25372,11.06299-16.25372,26.6332,0,27.58879,13.65836,32.77819,24.31057,32.77819Z" style="fill:#0da847;"/><path d="M835.80349,71.43063c0-2.32196,0-5.32677,.81889-6.96522v-.1367c-3.96107,1.3657-6.28303,1.3657-11.47243,1.3657v-5.19007c4.09711-.1367,13.38495-1.77581,18.16491-4.64392h6.14566v47.12073c0,10.51617,5.46281,14.74932,11.88321,14.74932,11.06166,0,17.20865-10.3788,19.2572-17.75413v-28.95516c0-2.18526,.13604-4.91733,.81889-6.55577v-.1367c-3.96107,1.3657-6.2817,1.3657-11.47243,1.3657v-5.19007c4.09711-.1367,13.38495-1.77581,18.16491-4.64392h6.14566v55.72439c0,6.55644,0,9.97069,3.00481,9.97069,4.09844,0,9.15181-4.64392,9.69729-5.05337l2.86878,4.23314c-3.00481,3.00481-9.42388,8.60499-18.43832,8.60499-5.73622,0-10.78958-2.7314-10.78958-10.38014v-7.64873c-2.7314,6.41907-10.65355,18.02887-23.90112,18.02887-12.97551,0-20.89631-4.91733-20.89631-23.49168v-34.41797Z" style="fill:#0da847;"/><path d="M956.53077,70.88449c0,8.33092,8.74103,11.60914,16.66317,15.1601,11.74451,5.19074,22.67146,8.60499,22.67146,21.98994,0,14.06647-11.19903,21.30576-27.04197,21.30576-12.15662,0-23.08224-2.59537-26.90727-4.77996v-28.95449h5.46414c0,11.60847,3.8237,28.13427,21.16972,28.13427,8.60366,0,14.75065-3.95974,14.75065-10.38014,0-6.2817-5.87359-10.24277-17.48206-15.29613-10.51751-4.64392-22.39939-9.42388-22.39939-23.21894,0-14.61395,13.11154-20.35016,21.85257-20.35016,11.74584,0,23.62772,3.68766,23.62772,23.08224h.68285l1.09363-23.08224h5.59885l-2.59537,31.68723h-6.41907c-5.46281-15.70758-12.83814-24.99475-22.26201-24.99475-4.77996,0-8.46762,4.09711-8.46762,9.69729Z" style="fill:#0da847;"/><path d="M1042.84343,54.49472c8.74103,0,21.16972,3.41492,21.16972,13.11154,0,6.69247-5.87359,14.2045-24.03849,14.2045v.27274h27.58879v5.46414h-48.75851v.68285c.13604,28.95449,15.56954,30.32019,22.39939,30.32019,4.64392,0,22.67146-1.77515,26.76857-22.67279h5.46414c-3.27822,21.44313-15.57087,33.46237-35.64696,33.46237-20.35083,0-32.64349-11.19903-32.64349-31.14041,.41078-28.27164,12.56606-43.70514,37.69685-43.70514Zm-19.12117,27.58879c7.78477,0,24.99342-4.50655,24.99342-13.79439,0-3.41426-5.46281-6.14566-14.75065-6.14566-8.05818,0-13.79439,1.50241-14.88669,19.94005h4.64392Z" style="fill:#0da847;"/><path d="M1117.95439,54.49472c8.74103,0,21.16972,3.41492,21.16972,13.11154,0,6.69247-5.87225,14.2045-24.03716,14.2045v.27274h27.58879v5.46414h-48.75851v.68285c.13604,28.95449,15.56954,30.32019,22.39805,30.32019,4.64392,0,22.67279-1.77515,26.7699-22.67279h5.46281c-3.27822,21.44313-15.56954,33.46237-35.64696,33.46237-20.3495,0-32.64215-11.19903-32.64215-31.14041,.40944-28.27164,12.56473-43.70514,37.69552-43.70514Zm-19.12117,27.58879c7.78477,0,24.99475-4.50655,24.99475-13.79439,0-3.41426-5.46414-6.14566-14.75065-6.14566-8.05818,0-13.79439,1.50241-14.88802,19.94005h4.64392Z" style="fill:#0da847;"/><path d="M1213.28014,128.24798v-45.34492c0-7.78477-1.3657-16.5258-10.38014-16.5258-13.52099,0-21.03235,25.26749-22.80883,37.01333,.13737,15.4335,4.78129,16.66184,12.7021,16.66184v8.19555h-34.4173v-5.46281h25.94968v-.27341c-14.75065,0-17.8915-11.3364-17.8915-22.67279v-17.20865c0-8.74103-.13737-13.52165-1.63911-16.52647l-10.24277,7.92147-3.27822-4.50655,22.12598-16.25306,.13604,.1367,.13604-.1367c4.64392,5.32677,6.55644,9.28718,6.55644,23.62772v9.0151c2.32196-11.19969,11.60847-31.41382,25.81364-31.41382,21.44179,0,21.30576,17.07261,21.16972,27.86219l-.27341,20.07742v15.1601c4.23314-4.09711,10.51617-13.24758,12.83814-33.87182h5.46281c-2.7314,22.9462-8.87707,36.05774-17.61809,44.52536h-14.34121Z" style="fill:#0da847;"/><path d="M1274.59404,122.10099h8.05818l31.00438-78.39585,9.28651-12.15528h5.05337l33.46237,85.63514c1.22833,3.27822,2.86744,4.91599,9.69729,4.91599v6.14699h-35.64696v-6.14699h11.60847l-10.51617-27.17801h-34.00786l-7.23929,19.39324c-1.91252,4.91733-3.14085,7.78477-.27341,7.78477h8.60499v6.14699h-29.09186v-6.14699Zm59.54809-33.325l-14.74932-38.24167h-.13737l-14.33987,38.24167h29.22656Zm-23.21827-74.16204c0-10.92629,8.19555-14.61395,14.0678-14.61395,8.33158,0,12.97551,3.55096,12.97551,12.42869,0,11.06299-8.19555,14.61395-14.0678,14.61395-8.33158,0-12.97551-3.55096-12.97551-12.42869Zm15.29747,6.82918c3.14085,0,3.55029-3.68766,3.55029-6.69247,0-7.23862-2.7314-9.28718-6.96455-9.28718-3.14218,0-3.68766,3.9604-3.68766,6.82851,0,7.23862,2.86744,9.15114,7.10192,9.15114Z" style="fill:#0da847;"/><path d="M1389.85985,28.27164v-.1367c-3.96107,1.36637-6.28303,1.36637-11.47243,1.36637v-5.19007c4.09711-.1367,13.38362-1.77581,18.16491-4.64392h6.14566V113.77074c0,7.6474-.54681,9.01444,11.06299,9.01444v5.46281h-35.78434v-5.46281h12.42869c-1.50174,0-1.3657-4.78129-1.3657-9.01444V35.64696c0-2.32196,0-5.59951,.82022-7.37533Z" style="fill:#0da847;"/><path d="M1460.19486,54.49472c8.46762,0,13.79439,1.77581,17.34469,5.19007,4.91733,4.64392,6.82985,13.11154,6.69247,23.08157v5.60018h-45.20688v.27341c0,25.4042,10.38014,30.18416,23.90112,30.18416,8.87707,0,14.75065-2.7314,18.71039-8.74103l4.09844,3.55029c-4.50788,8.60499-13.93176,15.70691-28.40901,15.70691-21.7152,0-32.64215-11.3364-32.64215-34.55467,0-30.32019,20.48687-40.29089,35.51093-40.29089Zm10.92562,28.40834c0-4.77996-1.0923-10.78958-3.68766-15.02339-2.32196-3.96107-6.00962-6.41907-11.3364-6.41907-14.20384,0-16.66184,8.60432-17.07128,21.44246h32.09534Z" style="fill:#0da847;"/><path d="M1504.57751,113.22392V61.3239h-9.28784v-4.64392l18.16491-14.61395h4.77996c0,8.46829-.40944,11.60914-2.04855,13.79439h17.07261v5.46348h-15.02406v50.53432c0,5.73622,1.63911,9.69729,7.92214,9.69729,4.09711,0,9.15047-4.64392,9.69729-5.05337l2.86744,4.23314c-3.00481,3.00481-8.87707,8.60499-19.2572,8.60499-11.6098,0-14.88669-8.33158-14.88669-16.11635Z" style="fill:#0da847;"/><path d="M1560.29657,64.46542v-.1367c-3.96107,1.3657-6.28303,1.3657-11.47243,1.3657v-5.19007c4.09711-.1367,13.38362-1.77581,18.16491-4.64392h6.14566v81.40199c0,10.92562-5.46281,23.76375-25.67627,23.76375-4.37051,0-6.82985-.95626-8.74103-2.18459v-14.47724h5.32544c0,5.59885,6.55644,12.42869,11.6098,9.96936,3.68766-1.91118,3.8237-9.83332,3.8237-17.34469V70.47437c0-2.04855,.13737-4.50655,.82022-6.00896Zm6.5551-40.01815c5.05337,0,9.15047,3.96107,9.15047,9.01444,0,4.91666-4.09711,8.87773-9.15047,8.87773s-9.01444-3.96107-9.01444-8.87773c0-5.05337,3.96107-9.01444,9.01444-9.01444Z" style="fill:#0da847;"/><path d="M1601.94915,120.05244l-10.92695,10.38014-4.09711-4.09711,12.15528-10.10673c-3.00481-5.32677-4.64392-12.42869-4.64392-21.44313,0-30.32019,20.89631-40.29089,35.78434-40.29089,10.78958,0,19.2572,2.59537,24.85738,8.46829l9.96936-10.10673,4.37051,4.37051-11.3364,9.42388c3.41559,5.46281,5.19074,12.83814,5.19074,22.39872,0,30.32019-20.89631,40.29089-35.78434,40.29089-11.33506,0-19.94005-2.86878-25.5389-9.28784Zm9.0131-14.88669c4.09844-4.23314,8.05818-8.60366,16.5258-16.79921,7.7861-7.51203,12.83947-11.60914,17.07261-15.1601-4.77996-8.87773-12.7021-11.19969-19.53061-11.19969-15.4335,0-16.25239,11.06299-16.25239,26.6332,0,6.82851,.81889,12.29265,2.18459,16.5258Zm22.12598,16.25239c15.02406,0,15.84295-10.24277,15.84295-26.22309,0-7.37399-.95626-13.11154-2.458-17.61809-3.55163,3.687-6.96588,7.51136-15.02406,15.1601-7.78477,7.37533-14.0678,12.7021-18.71039,16.79921,4.91599,9.56125,13.24758,11.88188,20.3495,11.88188Z" style="fill:#0da847;"/><path d="M1688.1231,63.7819v-.13604c-3.95974,1.3657-6.2817,1.3657-11.47243,1.3657v-5.19007c4.09711-.1367,13.38495-1.77581,18.16491-4.64392h6.14699v19.53128c5.46281-7.78544,14.20384-19.53128,26.63253-19.53128,16.11635,0,20.76028,7.78544,20.76028,25.67694l.13604,32.91623c0,7.6474-.54681,9.01444,11.06299,9.01444v5.46281h-35.78434v-5.46281h12.42869c-1.0923,0-1.3657-2.59537-1.3657-5.60018v-34.69137c0-11.74584-5.46281-15.70691-13.24758-15.70691-8.33158,0-13.52099,6.00962-20.62291,18.02954v28.95449c0,7.6474-.54681,9.01444,11.06166,9.01444v5.46281h-35.783v-5.46281h12.42869c-1.50174,0-1.3657-4.78129-1.3657-9.01444v-42.61351c0-2.32129,0-5.59951,.81889-7.37533Z" style="fill:#0da847;"/><path d="M1780.30668,63.7819v-.13604c-3.95974,1.3657-6.2817,1.3657-11.47243,1.3657v-5.19007c4.09711-.1367,13.38495-1.77581,18.16491-4.64392h6.14699v19.53128c5.46281-7.78544,14.20384-19.53128,26.63253-19.53128,16.11635,0,20.76028,7.78544,20.76028,25.67694l.13604,32.91623c0,7.6474-.54681,9.01444,11.06299,9.01444v5.46281h-35.78434v-5.46281h12.42869c-1.0923,0-1.3657-2.59537-1.3657-5.60018v-34.69137c0-11.74584-5.46281-15.70691-13.24758-15.70691-8.33158,0-13.52099,6.00962-20.62291,18.02954v28.95449c0,7.6474-.54681,9.01444,11.06166,9.01444v5.46281h-35.783v-5.46281h12.42869c-1.50174,0-1.3657-4.78129-1.3657-9.01444v-42.61351c0-2.32129,0-5.59951,.81889-7.37533Z" style="fill:#0da847;"/><path d="M1889.70023,28.54505c18.16491,0,27.04197,10.10673,27.04197,21.85257,0,34.14523-30.86701,25.81297-30.86701,48.75851h-5.46281c0-32.50545,19.94005-23.49168,19.94005-45.07084,0-10.10673-4.37051-14.75065-14.61328-14.75065-7.64873,0-15.98032,4.50722-18.30228,16.25306h-5.46281c0-17.61876,11.47243-27.04264,27.72616-27.04264Zm-6.69247,78.94266c6.00962,0,10.78958,4.91733,10.78958,10.92695,0,5.87225-4.77996,10.92562-10.78958,10.92562-5.87359,0-10.78958-4.37051-10.78958-10.92562,0-6.00962,4.91599-10.92695,10.78958-10.92695Z" style="fill:#0da847;"/><path d="M2003.3256,52.99232v55.86109c0,12.29265-.13737,13.24758,15.4335,13.24758v6.14699h-44.52536v-6.14699h14.0678V38.10563h-8.87707c-12.97551,0-17.61943,1.50241-21.30709,15.1601h-5.87225v-20.62357h87.13688v20.62357h-5.87225c-3.68766-13.65769-8.33158-15.1601-20.07742-15.1601-10.2441,0-10.10673,.1367-10.10673,14.88669Z" style="fill:#0da847;"/><path d="M2056.03718,28.27164v-.1367c-3.96107,1.36637-6.2817,1.36637-11.47243,1.36637v-5.19007c4.09711-.1367,13.38495-1.77581,18.16491-4.64392h6.14566v55.04154c5.46414-7.78544,14.20517-19.53128,26.63386-19.53128,16.11635,0,20.75894,7.78544,20.75894,25.67694l.13737,32.91623c0,7.6474-.54681,9.01444,11.06299,9.01444v5.46281h-35.78434v-5.46281h12.42869c-1.0923,0-1.3657-2.59537-1.3657-5.60018v-34.69137c0-11.74584-5.46281-15.70691-13.24758-15.70691-8.33158,0-13.52099,6.00962-20.62424,18.02954v28.95449c0,7.6474-.54548,9.01444,11.06299,9.01444v5.46281h-35.783v-5.46281h12.42869c-1.50307,0-1.3657-4.78129-1.3657-9.01444V35.64696c0-2.32196,0-5.59951,.81889-7.37533Z" style="fill:#0da847;"/><path d="M2171.8498,54.49472c8.46762,0,13.79439,1.77581,17.34469,5.19007,4.91733,4.64392,6.82985,13.11154,6.69247,23.08157v5.60018h-45.20688v.27341c0,25.4042,10.38014,30.18416,23.90112,30.18416,8.87707,0,14.75065-2.7314,18.71039-8.74103l4.09844,3.55029c-4.50788,8.60499-13.93176,15.70691-28.40901,15.70691-21.7152,0-32.64215-11.3364-32.64215-34.55467,0-30.32019,20.48687-40.29089,35.51093-40.29089Zm10.92562,28.40834c0-4.77996-1.0923-10.78958-3.68766-15.02339-2.32196-3.96107-6.00962-6.41907-11.3364-6.41907-14.20384,0-16.66184,8.60432-17.07128,21.44246h32.09534Z" style="fill:#0da847;"/><path d="M2208.31032,122.78517h12.42869c-1.50174,0-1.3657-4.78129-1.3657-9.01444v-42.61351c0-2.32129,0-5.59951,.81889-7.37533v-.13604c-3.95974,1.3657-6.2817,1.3657-11.47243,1.3657v-5.19007c4.09711-.1367,13.38495-1.77581,18.16491-4.64392h5.46414v2.73207l.13604,14.06713c2.86744-6.41907,8.87707-17.48206,22.39939-17.48206,2.86744,0,5.46281,.81955,7.10192,1.3657v16.6625h-5.46414c-.40944-3.41426-4.09711-5.59951-9.55992-5.59951-5.60018-.27274-9.97069,6.28303-14.34121,16.38976l.41078,30.45756c.13604,7.6474-.54681,9.01444,11.06166,9.01444h5.73755v5.46281h-41.52055v-5.46281Z" style="fill:#0da847;"/><path d="M2307.053,54.49472c8.46762,0,13.79439,1.77581,17.34469,5.19007,4.91733,4.64392,6.82985,13.11154,6.69247,23.08157v5.60018h-45.20688v.27341c0,25.4042,10.38014,30.18416,23.90112,30.18416,8.87707,0,14.75065-2.7314,18.71039-8.74103l4.09844,3.55029c-4.50788,8.60499-13.93176,15.70691-28.40901,15.70691-21.7152,0-32.64215-11.3364-32.64215-34.55467,0-30.32019,20.48687-40.29089,35.51093-40.29089Zm10.92562,28.40834c0-4.77996-1.0923-10.78958-3.68766-15.02339-2.32196-3.96107-6.00962-6.41907-11.3364-6.41907-14.20384,0-16.66184,8.60432-17.07128,21.44246h32.09534Z" style="fill:#0da847;"/><path d="M2370.14338,110.35648c0-12.97551,9.28784-15.4335,19.39457-19.12117,8.33158-3.00481,25.94968-8.60499,25.94968-15.16076,0-2.59537-1.77515-11.88254-14.47724-11.88254-12.15528,0-16.25239,11.06299-16.25239,24.85738h-7.51136l-7.7861-34.55467h5.60018l4.91733,25.54023h.68285c1.22833-23.21827,15.84295-25.54023,25.40286-25.54023,14.75065,0,22.39939,6.14633,22.39939,18.71172v44.38799c4.09711-4.23448,10.10673-13.52099,12.83814-33.87182h5.46281c-2.7314,22.9462-8.87707,36.05774-17.61809,44.52536h-13.65836v-28.95449c0,10.24277-11.74584,30.04678-25.94968,30.04678-12.29132,0-19.39457-7.37533-19.39457-18.9838Zm22.53676,7.10192c13.24758,0,20.75894-20.21346,22.67146-32.09667-8.05818,6.00962-18.71172,9.01444-24.99342,12.56606-5.32677,3.00481-5.87359,5.59885-5.87359,10.65221,0,4.23448,3.14085,8.8784,8.19555,8.8784Z" style="fill:#0da847;"/><path d="M2453.72329,122.78517h25.95101v-.27341c-14.75065,0-17.89283-11.3364-17.89283-22.67279v-17.20865c0-8.74103-.27207-13.38495-1.77515-16.52647l-10.10673,7.92147-3.27822-4.50655,22.12598-16.11635,.13737-.1367c4.64259,5.32677,6.5551,9.28718,6.5551,23.62772v4.37051c4.91733-17.34535,13.24758-26.76923,31.27645-26.76923l-.27341,38.65178h-5.46281v-25.26683c-12.01925,0-23.08224,12.97484-25.54023,29.09186v6.41907c.13604,15.4335,4.77996,16.66184,12.7021,16.66184h7.23796v8.19555h-41.65659v-5.46281Z" style="fill:#0da847;"/><path d="M2551.23764,54.49472c8.74103,0,21.16972,3.41492,21.16972,13.11154,0,6.69247-5.87359,14.2045-24.03849,14.2045v.27274h27.58879v5.46414h-48.75851v.68285c.13604,28.95449,15.56954,30.32019,22.39939,30.32019,4.64392,0,22.67146-1.77515,26.76857-22.67279h5.46414c-3.27822,21.44313-15.57087,33.46237-35.64696,33.46237-20.35083,0-32.64349-11.19903-32.64349-31.14041,.41078-28.27164,12.56606-43.70514,37.69685-43.70514Zm-19.12117,27.58879c7.78477,0,24.99342-4.50655,24.99342-13.79439,0-3.41426-5.46281-6.14566-14.75065-6.14566-8.05818,0-13.79439,1.50241-14.88669,19.94005h4.64392Z" style="fill:#0da847;"/><path d="M2658.71601,111.99426c0-5.46281-8.60499-7.92081-17.34602-11.60847-12.01925-5.19074-24.72135-10.51617-24.72135-24.1752,0-13.24758,13.65836-23.08157,32.64349-23.08157,11.33506,0,20.62291,2.32196,27.17801,5.46348v18.0282h-9.55992c-1.63911-8.46829-9.42388-13.11154-16.66317-14.75065-2.32063-.40944-4.64259-.68285-6.5551-.27274,4.23448-1.36637,7.78477-2.18592,10.78958-2.86878v-.68285c-8.05818,1.91252-17.75546,3.68766-17.75546,8.87773,0,6.28303,6.14566,9.15114,19.53061,14.47724,12.29265,4.91733,23.62905,9.97069,23.62905,21.71653,0,14.0678-7.64873,26.22309-35.23752,26.22309-12.15528,0-23.08224-2.7314-27.86219-4.77996v-18.02887h9.55992c4.09844,10.38014,15.70691,15.56954,25.4042,13.52099-4.23448,1.3657-7.78477,2.18592-10.78958,2.86878v.68285c8.05818-1.91252,17.75546-3.68766,17.75546-11.6098Z" style="fill:#0da847;"/><path d="M2686.70757,93.41991c0-30.32086,21.30709-40.29089,40.29089-40.29089,22.94487,0,37.55948,14.0678,37.55948,35.92037,0,30.32019-21.30576,40.29089-40.29089,40.29089-22.94487,0-37.55948-14.0678-37.55948-35.92037Zm43.43307,27.04331c-2.59537,1.50174-6.4204,2.59403-9.42388,3.27689v.68285c16.25239-3.8237,19.2572-8.87707,19.2572-27.86086,0-21.44379-9.56125-32.37008-18.84776-34.55534,2.59403-1.50241,6.41907-2.59537,9.42388-3.27822v-.68285c-16.25372,3.82437-19.53061,8.87773-19.53061,27.86286,0,21.44313,9.83332,32.36875,19.12117,34.55467Z" style="fill:#0da847;"/><path d="M2790.50095,62.14346v-.68285c-6.41907,3.27755-14.88669,4.23381-19.80402,4.23381v-7.23862c4.09844-.1367,9.83466-1.77581,18.16491-4.64392h13.52232v10.51684c0,4.37051-3.96107,9.15047-7.23929,14.88669h.68285l6.55644-10.24343c4.37051-6.41907,10.65221-15.1601,26.63253-15.1601,9.42388,0,19.53061,5.46348,21.16972,16.6625-1.3657,3.55096-4.23448,7.23862-6.69247,11.60914h.68285l8.46762-13.11154c4.37051-6.41907,10.65355-15.1601,26.63253-15.1601,15.98032,0,23.62905,7.51203,23.62905,27.9989v33.32567c0,2.86744,1.77515,5.59885,10.65221,5.59885v7.5127h-42.20207v-7.5127h19.66665v-.68285c-12.29132,0-12.56473,0-12.70076-9.69595v-24.03849c0-10.24343-1.77648-17.48206-9.97069-17.48206-4.09711,0-9.97069,3.14085-15.70691,12.15528v34.14523c0,2.86744,1.77515,5.59885,10.65355,5.59885v7.5127h-42.2034v-7.5127h19.66798v-.68285c-12.29265,0-12.56606,0-12.7021-9.69595v-24.03849c0-10.24343-1.77515-18.16557-9.97069-18.16557-4.09711,0-9.96936,2.45866-15.70558,12.8388v34.14523c0,2.86744,1.77515,5.59885,10.65221,5.59885v7.5127h-42.20207v-7.5127h19.66665v-.68285c-12.56473,0-12.70076,0-12.70076-10.3788v-37.1507c0-7.37466,6.96455-7.51136,12.70076-10.37947Z" style="fill:#0da847;"/><path d="M2929.93729,90.4151h11.6098c0,18.16491,8.19421,27.04331,22.26201,27.04331,6.00962,0,14.0678-4.37051,20.35083-10.38014l5.59885,5.1894c-9.42388,12.15528-19.66665,17.07261-34.00786,17.07261-22.12598,0-39.47066-14.0678-39.47066-35.92037,0-30.32086,20.48687-40.29089,39.60803-40.29089,23.62772,0,32.23271,10.24343,32.23271,29.63734v6.96588h-58.18372v.68285Zm43.43307-8.87773v-.68285h-10.65355c-.27341-12.83814-3.27822-18.84776-11.19903-18.84776,2.59403-1.50241,6.41907-2.59537,9.42388-3.27822v-.68285c-14.0678,3.27822-18.16491,7.51203-19.12117,23.49168h31.54986Z" style="fill:#0da847;"/><path d="M3060.08979,54.49472c8.46762,0,13.79439,1.77581,17.34469,5.19007,4.91733,4.64392,6.82985,13.11154,6.69247,23.08157v5.60018h-45.20688v.27341c0,25.4042,10.38014,30.18416,23.90112,30.18416,8.87707,0,14.75065-2.7314,18.71039-8.74103l4.09844,3.55029c-4.50788,8.60499-13.93176,15.70691-28.40901,15.70691-21.7152,0-32.64215-11.3364-32.64215-34.55467,0-30.32019,20.48687-40.29089,35.51093-40.29089Zm10.92562,28.40834c0-4.77996-1.0923-10.78958-3.68766-15.02339-2.32196-3.96107-6.00962-6.41907-11.3364-6.41907-14.20384,0-16.66184,8.60432-17.07128,21.44246h32.09534Z" style="fill:#0da847;"/><path d="M3132.06123,54.49472c8.46762,0,13.79439,1.77581,17.34469,5.19007,4.91733,4.64392,6.82985,13.11154,6.69247,23.08157v5.60018h-45.20688v.27341c0,25.4042,10.38014,30.18416,23.90112,30.18416,8.87707,0,14.75065-2.7314,18.71039-8.74103l4.09844,3.55029c-4.50788,8.60499-13.93176,15.70691-28.40901,15.70691-21.7152,0-32.64215-11.3364-32.64215-34.55467,0-30.32019,20.48687-40.29089,35.51093-40.29089Zm10.92562,28.40834c0-4.77996-1.0923-10.78958-3.68766-15.02339-2.32196-3.96107-6.00962-6.41907-11.3364-6.41907-14.20384,0-16.66184,8.60432-17.07128,21.44246h32.09534Z" style="fill:#0da847;"/><path d="M3178.35508,28.27164v-.1367c-3.96107,1.36637-6.2817,1.36637-11.47243,1.36637v-5.19007c4.09711-.1367,13.38495-1.77581,18.16491-4.64392h6.14566V113.77074c0,7.6474-.54548,9.01444,11.06299,9.01444v5.46281h-35.783v-5.46281h12.42869c-1.50307,0-1.3657-4.78129-1.3657-9.01444V35.64696c0-2.32196,0-5.59951,.81889-7.37533Z" style="fill:#0da847;"/><path d="M3213.18048,124.56032v-18.02887h5.46281c1.3657,7.5127,9.55992,17.20865,19.94005,17.20865,8.33158,0,14.0678-5.32544,14.0678-11.74584,0-7.23796-6.14566-9.55992-15.70691-13.79439-10.78958-4.77996-22.53542-9.15047-22.53542-23.35498,0-13.24758,9.56125-20.35016,25.81364-20.35016,8.33158,0,15.1601,2.32196,21.71653,5.46348v18.0282h-5.46414c-1.0923-11.47243-10.24277-17.48206-17.8915-17.48206-5.87225,0-10.92562,3.41426-10.92562,10.38014,0,8.33092,8.46762,11.74584,15.84295,15.02406,12.01791,5.32677,21.85257,8.74103,21.85257,22.12598,0,12.70076-9.01444,21.30576-28.40901,21.30576-10.78958,0-19.94005-2.59537-23.76375-4.77996Z" style="fill:#0da847;"/><path d="M3302.22188,58.45579c4.09711-.1367,9.83332-1.77581,18.16491-4.64392h13.52099v61.32457c0,2.86744,1.77648,5.59885,10.65355,5.59885v7.5127h-42.20207v-7.5127h19.66665v-.68285c-12.56473,0-12.7021,0-12.7021-10.3788v-36.8773c0-7.37533,6.96588-7.51203,12.7021-10.38014v-.68285c-6.41907,3.27822-14.88669,4.23448-19.80402,4.23448v-7.51203Zm7.78477-29.63801c0-7.37466,5.87359-13.11154,13.24891-13.11154s13.38495,5.73688,13.38495,13.11154c0,7.37533-6.00962,12.97551-13.38495,12.97551s-13.24891-5.73622-13.24891-12.97551Z" style="fill:#0da847;"/><path d="M3369.14129,62.14346v-.68285c-6.41907,3.27755-14.88669,4.23381-19.80402,4.23381v-7.23862c4.09711-.1367,9.83332-1.77581,18.16491-4.64392h13.52099v10.51684c0,4.37051-3.95974,9.15047-7.23796,14.88669h.68285l6.5551-10.24343c4.37051-6.41907,10.65355-15.1601,26.63386-15.1601,15.97898,0,23.62772,7.51203,23.62772,27.9989v33.32567c0,2.86744,1.77515,5.59885,10.65355,5.59885v7.5127h-42.2034v-7.5127h19.66798v-.68285c-12.29265,0-12.56606,0-12.7021-9.69595v-24.03849c0-10.24343-1.77515-17.48206-9.97069-17.48206-4.09711,0-9.96936,3.14085-15.70691,12.15528v34.14523c0,2.86744,1.77648,5.59885,10.65355,5.59885v7.5127h-42.20207v-7.5127h19.66665v-.68285c-12.56473,0-12.7021,0-12.7021-10.3788v-37.1507c0-7.37466,6.96588-7.51136,12.7021-10.37947Z" style="fill:#0da847;"/><path d="M3483.31347,113.22392V61.3239h-9.28784v-4.64392l18.16491-14.61395h4.77996c0,8.46829-.40944,11.60914-2.04855,13.79439h17.07261v5.46348h-15.02406v50.53432c0,5.73622,1.63911,9.69729,7.92214,9.69729,4.09711,0,9.15047-4.64392,9.69729-5.05337l2.86744,4.23314c-3.00481,3.00481-8.87707,8.60499-19.2572,8.60499-11.60847,0-14.88669-8.33158-14.88669-16.11635Z" style="fill:#0da847;"/><path d="M3536.8466,28.27164v-.1367c-3.95974,1.36637-6.2817,1.36637-11.47243,1.36637v-5.19007c4.09844-.1367,13.38495-1.77581,18.16491-4.64392h6.14699v55.04154c5.46281-7.78544,14.20384-19.53128,26.63253-19.53128,16.11635,0,20.76028,7.78544,20.76028,25.67694l.13604,32.91623c0,7.6474-.54681,9.01444,11.06299,9.01444v5.46281h-35.783v-5.46281h12.42869c-1.09363,0-1.36704-2.59537-1.36704-5.60018v-34.69137c0-11.74584-5.46281-15.70691-13.24758-15.70691-8.33158,0-13.52099,6.00962-20.62291,18.02954v28.95449c0,7.6474-.54681,9.01444,11.06299,9.01444v5.46281h-35.78434v-5.46281h12.42869c-1.50174,0-1.3657-4.78129-1.3657-9.01444V35.64696c0-2.32196,0-5.59951,.81889-7.37533Z" style="fill:#0da847;"/><path d="M3652.65922,54.49472c8.46762,0,13.79439,1.77581,17.34469,5.19007,4.91733,4.64392,6.82985,13.11154,6.69247,23.08157v5.60018h-45.20688v.27341c0,25.4042,10.38014,30.18416,23.90112,30.18416,8.87707,0,14.75065-2.7314,18.71172-8.74103l4.09711,3.55029c-4.50788,8.60499-13.93176,15.70691-28.40901,15.70691-21.7152,0-32.64215-11.3364-32.64215-34.55467,0-30.32019,20.48687-40.29089,35.51093-40.29089Zm10.92562,28.40834c0-4.77996-1.0923-10.78958-3.68766-15.02339-2.32196-3.96107-6.00829-6.41907-11.33506-6.41907-14.20517,0-16.66317,8.60432-17.07261,21.44246h32.09534Z" style="fill:#0da847;"/><path d="M3689.11974,122.78517h12.42869c-1.50174,0-1.3657-4.78129-1.3657-9.01444v-42.61351c0-2.32129,0-5.59951,.82022-7.37533v-.13604c-3.96107,1.3657-6.28303,1.3657-11.47377,1.3657v-5.19007c4.09844-.1367,13.38495-1.77581,18.16624-4.64392h5.46281v2.73207l.13604,14.06713c2.86878-6.41907,8.8784-17.48206,22.39939-17.48206,2.86744,0,5.46281,.81955,7.10192,1.3657v16.6625h-5.46281c-.41078-3.41426-4.09844-5.59951-9.56125-5.59951-5.59885-.27274-9.96936,6.28303-14.33987,16.38976l.40944,30.45756c.13604,7.6474-.54681,9.01444,11.06299,9.01444h5.73622v5.46281h-41.52055v-5.46281Z" style="fill:#0da847;"/><path d="M3787.86242,54.49472c8.46762,0,13.79439,1.77581,17.34469,5.19007,4.91733,4.64392,6.82985,13.11154,6.69247,23.08157v5.60018h-45.20688v.27341c0,25.4042,10.38014,30.18416,23.90112,30.18416,8.87707,0,14.75065-2.7314,18.71172-8.74103l4.09711,3.55029c-4.50788,8.60499-13.93176,15.70691-28.40901,15.70691-21.7152,0-32.64215-11.3364-32.64215-34.55467,0-30.32019,20.48687-40.29089,35.51093-40.29089Zm10.92562,28.40834c0-4.77996-1.0923-10.78958-3.68766-15.02339-2.32063-3.96107-6.00829-6.41907-11.33506-6.41907-14.20517,0-16.66317,8.60432-17.07261,21.44246h32.09534Z" style="fill:#0da847;"/><path d="M3844.12696,122.10099c0,3.41559-3.41426,7.23929-8.19421,7.23929-5.87359,0-10.2441-4.37051-10.2441-10.92562,0-6.00962,4.64392-10.92695,10.51751-10.92695,8.87707,0,13.79439,6.82851,13.79439,18.02887,0,12.01791-6.82985,20.3495-23.08224,21.57916v-5.60018c17.48206-1.77515,18.30094-12.42869,17.20865-19.39457Z" style="fill:#0da847;"/><path d="M3952.70296,38.78848h-9.69729c-4.09711,0-4.77996,.81955-4.23314,2.18526l26.08571,70.88449,26.49649-73.06974h-15.70558v-6.14633h36.73926v6.14633c-6.82851,0-9.01444,.1367-19.2572,23.35498l-29.63867,67.19682h-6.96455l-24.17453-62.6896-27.72616,62.6896h-6.82851l-33.46237-90.5518h-8.19421v-6.14633h39.19859v6.14633h-9.97069c-4.09711,0-4.77996,.81955-4.09711,2.458l25.40286,69.11001,20.76028-56.81735-5.73622-14.75065h-8.19421v-6.14633h39.19726v6.14633Z" style="fill:#0da847;"/><path d="M4016.47352,122.10099h9.15047V38.78848h-9.15047v-6.14633h69.38275l3.27689,17.20932h-5.87225c-4.91733-8.46829-10.2441-11.06299-32.09667-11.06299-10.78958,0-10.51617,0-10.51617,14.20384v21.98927h22.94487c8.8784,0,8.74103-4.50722,8.74103-12.70143h6.00962v31.54919h-6.00962c0-8.33025,.13737-12.70143-8.74103-12.70143h-22.94487v27.72549c0,12.29265,.40944,13.24758,10.51617,13.24758h13.38495c14.20384,0,17.75546-4.50655,21.16972-16.38843h5.87359l-2.45933,22.53542h-11.60847c-11.47243,11.06299-3.96107,23.62772,11.60847,17.8915v5.60018c-16.25239,9.55992-29.2279,3.95974-29.2279-6.82985,0-7.51136,5.60018-12.56473,11.3364-16.66184h-54.76813v-6.14699Z" style="fill:#0da847;"/><path d="M4165.33774,112.81448v-21.03368h-8.46762v-6.00962h33.0516v6.00962c-8.60366,0-9.28651,.41078-9.42388,9.28784l-.27207,18.43832c-9.15181,8.33158-24.03849,9.83332-31.82326,9.83332-31.14041,0-48.62247-21.03368-48.62247-46.57392,0-27.31538,13.11154-51.2165,48.21303-51.2165,7.78477,0,21.16972,1.3657,31.82193,7.23862v17.20865h-5.87225c-7.78477-10.24343-20.07742-17.61876-34.69071-17.61876-11.47243,0-23.21827,9.42388-23.21827,36.19378,0,24.72135,10.65221,48.75851,36.73926,48.75851,13.65702,0,12.29132-3.8237,12.56473-10.51617Z" style="fill:#0da847;"/><path d="M4199.4763,83.85999c-.68285-29.91141,14.34121-51.21784,46.70995-51.21784,29.91075,0,46.43655,14.47724,47.1194,45.48095,.68285,32.64282-17.07128,51.21717-46.70995,51.21717-27.17801,0-46.29918-11.74584-47.1194-45.48029Zm51.35388,39.06122c12.83814,0,25.67627-8.33158,26.22309-38.10496,.54681-27.99957-13.24758-45.61833-35.10015-45.75503-15.57087-.13604-25.6776,11.06299-26.22309,38.10563-.54681,30.7303,15.97898,45.75436,35.10015,45.75436Z" style="fill:#0da847;"/><path d="M4353.93937,112.13163l-17.48206-27.17934c-3.8237,.27341-7.64873,.27341-11.47243,.40944v23.49168c0,12.29265,.40944,13.24758,10.51617,13.24758v6.14699h-34.69071v-6.14699h9.15047V38.78848h-9.15047v-6.14633h38.10496c16.93658,0,35.6483,4.64392,35.6483,24.44794,0,15.43284-9.83466,22.39872-23.08224,25.67627,7.64873,11.20036,14.88669,22.12598,23.08224,32.91556,3.95974,5.19074,6.2817,6.28303,11.60847,6.41907v5.87359c-3.55163,.81889-6.82851,1.3657-10.38014,1.3657-8.87707,0-13.79439-4.77996-21.85257-17.20865Zm4.23448-53.12969c0-18.0282-12.42869-20.21346-22.67279-20.21346q-10.51617,0-10.51617,14.20384v26.08705c17.48206,0,33.18897-.68352,33.18897-20.07742Z" style="fill:#0da847;"/><path d="M4390.94536,32.64215h81.81144l-60.23227,88.77599h18.02887c21.57916,0,34.82808-1.77515,34.82808-19.80268h6.00829v26.63253h-80.4444l60.23094-88.77665h-30.18282c-18.71172,0-20.35083-1.50241-24.3119,18.43832h-5.73622v-25.26749Z" style="fill:#0da847;"/><path d="M4512.08476,28.54505c18.16491,0,27.04197,10.10673,27.04197,21.85257,0,34.14523-30.86701,25.81297-30.86701,48.75851h-5.46281c0-32.50545,19.94005-23.49168,19.94005-45.07084,0-10.10673-4.37051-14.75065-14.61328-14.75065-7.64873,0-15.98032,4.50722-18.30094,16.25306h-5.46414c0-17.61876,11.47243-27.04264,27.72616-27.04264Zm-6.69247,78.94266c6.00962,0,10.78958,4.91733,10.78958,10.92695,0,5.87225-4.77996,10.92562-10.78958,10.92562-5.87359,0-10.78958-4.37051-10.78958-10.92562,0-6.00962,4.91599-10.92695,10.78958-10.92695Z" style="fill:#0da847;"/><path d="M4559.47223,118.41466c0-6.00962,4.91733-10.92695,10.78958-10.92695,6.00962,0,10.78958,4.91733,10.78958,10.92695,0,5.87225-4.77996,10.92562-10.78958,10.92562-5.87225,0-10.78958-4.37051-10.78958-10.92562Zm21.44313-89.86961l-7.78477,70.61108h-5.46281l-7.92214-70.61108h21.16972Z" style="fill:#0da847;"/><path d="M4748.76471,73.8893c-.54681,1.50241-1.22967,3.00415-1.91252,4.64325-5.19074,12.70277-11.88188,29.22856-20.21346,50.80773h-6.82985c-10.92562-23.21827-18.30094-39.06122-23.35431-50.26091l-26.35912,50.26091h-5.46414l-27.58879-74.70885c-3.27689-8.74103,1.50307-15.1601,9.42388-15.1601v-.68285c-9.83332,.1367-15.02273,.1367-24.31057,.1367v-6.28303h39.88144l-.13737,6.14633h-3.8237c-6.69247,0-9.15047,4.50722-6.69247,11.19903l22.12598,59.9582,19.80402-38.10563c-6.96588-15.84295-7.5127-19.1205-7.5127-23.35431,0-7.23929,5.60018-15.84361,22.12598-15.84361h12.97551l-15.4335,29.5013c3.96107,9.69662,10.65355,24.85738,21.03235,49.16795,5.73622-16.25239,10.92695-31.13975,15.1601-43.15899l1.50307-3.8237c.13604-.68285,.40944-1.3657,.68285-2.04855,8.05818-20.35083,17.20865-29.63801,29.91075-29.63801l-.27341,38.65178h-6.14566v-19.80402c-8.05818,.95626-10.78958,4.37051-15.84295,15.97965l-2.7314,6.41973Zm-46.43788-19.39457l8.33158-15.97965c-6.2817,0-11.06299,.41011-11.06299,6.82918,0,1.63911,.68285,4.09711,2.7314,9.15047Z" style="fill:#0da847;"/><path d="M4791.50292,128.24798v-45.48162c0-9.28718-.41078-13.38428-2.18592-16.11569l-9.55992,7.51136-3.27822-4.50722,22.12598-16.25239c4.64392,5.32611,6.5551,9.28718,6.5551,23.62772v40.56429c4.23448-4.09711,10.51751-13.24758,12.83814-33.87182h5.46414c-2.7314,22.9462-8.8784,36.05774-17.61943,44.52536h-14.33987Zm7.10192-107.76112h16.38976l-13.52232,21.85257h-5.46281l2.59537-21.85257Z" style="fill:#0da847;"/><path d="M4858.83178,83.72262h5.46281c-2.7314,22.9462-8.87707,36.05774-17.61809,44.52536h-14.34121V63.9186c.13737-18.71106,1.77648-23.21827,20.35083-33.73445,9.42388-5.32677,21.85257-8.60499,35.51093-10.79025l1.0923,5.46348c-18.02887,3.55096-36.19378,11.60914-43.15966,18.16491l-.13604,18.0282v56.54394c4.23448-4.09711,10.51617-13.24758,12.83814-33.87182Z" style="fill:#0da847;"/><path d="M4902.12214,83.72262h5.46281c-2.7314,22.9462-8.87707,36.05774-17.61809,44.52536h-14.34121V63.9186c.13737-18.71106,1.77648-23.21827,20.35083-33.73445,9.42388-5.32677,21.85257-8.60499,35.51093-10.79025l1.0923,5.46348c-18.02887,3.55096-36.19378,11.60914-43.15966,18.16491l-.13604,18.0282v56.54394c4.23448-4.09711,10.51617-13.24758,12.83814-33.87182Z" style="fill:#0da847;"/><path d="M4950.73795,113.22392V61.3239h-9.28784v-4.64392l18.16491-14.61395h4.77996c0,8.46829-.40944,11.60914-2.04855,13.79439h17.07261v5.46348h-15.02406v50.53432c0,5.73622,1.63911,9.69729,7.92214,9.69729,4.09711,0,9.15047-4.64392,9.69729-5.05337l2.86744,4.23314c-3.00481,3.00481-8.87707,8.60499-19.2572,8.60499-11.60847,0-14.88669-8.33158-14.88669-16.11635Z" style="fill:#0da847;"/><path d="M5004.27241,28.27164v-.1367c-3.96107,1.36637-6.28303,1.36637-11.47377,1.36637v-5.19007c4.09844-.1367,13.38495-1.77581,18.16491-4.64392h6.14699v55.04154c5.46281-7.78544,14.20384-19.53128,26.63253-19.53128,16.11635,0,20.76028,7.78544,20.76028,25.67694l.13604,32.91623c0,7.6474-.54681,9.01444,11.06299,9.01444v5.46281h-35.783v-5.46281h12.42736c-1.0923,0-1.3657-2.59537-1.3657-5.60018v-34.69137c0-11.74584-5.46281-15.70691-13.24758-15.70691-8.33158,0-13.52099,6.00962-20.62291,18.02954v28.95449c0,7.6474-.54681,9.01444,11.06299,9.01444v5.46281h-35.78434v-5.46281h12.42869c-1.50174,0-1.3657-4.78129-1.3657-9.01444V35.64696c0-2.32196,0-5.59951,.82022-7.37533Z" style="fill:#0da847;"/><path d="M5120.0837,54.49472c8.46762,0,13.79439,1.77581,17.34469,5.19007,4.91733,4.64392,6.82985,13.11154,6.69247,23.08157v5.60018h-45.20688v.27341c0,25.4042,10.38014,30.18416,23.90112,30.18416,8.87707,0,14.75065-2.7314,18.71172-8.74103l4.09711,3.55029c-4.50788,8.60499-13.93176,15.70691-28.40901,15.70691-21.7152,0-32.64215-11.3364-32.64215-34.55467,0-30.32019,20.48687-40.29089,35.51093-40.29089Zm10.92562,28.40834c0-4.77996-1.0923-10.78958-3.68766-15.02339-2.32063-3.96107-6.00829-6.41907-11.33506-6.41907-14.20517,0-16.66317,8.60432-17.07261,21.44246h32.09534Z" style="fill:#0da847;"/><path d="M5156.54422,122.78517h12.42869c-1.50174,0-1.3657-4.78129-1.3657-9.01444v-42.61351c0-2.32129,0-5.59951,.82022-7.37533v-.13604c-3.96107,1.3657-6.28303,1.3657-11.47377,1.3657v-5.19007c4.09844-.1367,13.38495-1.77581,18.16491-4.64392h5.46414v2.73207l.13604,14.06713c2.86878-6.41907,8.8784-17.48206,22.39939-17.48206,2.86744,0,5.46281,.81955,7.10192,1.3657v16.6625h-5.46281c-.41078-3.41426-4.09844-5.59951-9.56125-5.59951-5.59885-.27274-9.96936,6.28303-14.33987,16.38976l.40944,30.45756c.13604,7.6474-.54681,9.01444,11.06299,9.01444h5.73622v5.46281h-41.52055v-5.46281Z" style="fill:#0da847;"/><path d="M5255.2869,54.49472c8.46762,0,13.79439,1.77581,17.34469,5.19007,4.91733,4.64392,6.82985,13.11154,6.69247,23.08157v5.60018h-45.20688v.27341c0,25.4042,10.38014,30.18416,23.90112,30.18416,8.87707,0,14.75065-2.7314,18.71172-8.74103l4.09711,3.55029c-4.50788,8.60499-13.93176,15.70691-28.40901,15.70691-21.7152,0-32.64215-11.3364-32.64215-34.55467,0-30.32019,20.48687-40.29089,35.51093-40.29089Zm10.92562,28.40834c0-4.77996-1.0923-10.78958-3.68766-15.02339-2.32196-3.96107-6.00829-6.41907-11.33506-6.41907-14.20517,0-16.66317,8.60432-17.07261,21.44246h32.09534Z" style="fill:#0da847;"/><path d="M5314.2815,24.31124c4.09711-.1367,9.83332-1.77581,18.16491-4.64392h13.52099V62.96301c0,4.37051-3.96107,9.15047-7.23796,14.88669h.68285l6.5551-10.24343c3.96107-6.69247,12.01925-13.79439,25.26683-13.79439,17.07261,0,29.5013,13.11154,29.5013,37.55948,0,24.58398-16.66184,37.96893-33.87182,37.96893-10.3788,0-15.84295-1.91252-20.89631-3.55163l-9.42388-3.27689v.68285l9.15047,3.14085-24.1732,3.00481h-.13737V38.37837c0-7.37466,6.96588-7.51136,12.7021-10.37947v-.68285c-6.41907,3.27755-14.88669,4.23381-19.80402,4.23381v-7.23862Zm46.0271,43.84118c-3.00481,0-9.97069,2.18592-14.34121,10.38014v26.08638c4.37051,13.52232,12.42869,16.38976,17.20865,16.38976,12.01925,0,12.97551-15.97898,12.97551-27.45142,0-15.57087-5.1894-25.40486-15.84295-25.40486Z" style="fill:#0da847;"/><path d="M5419.85136,90.4151h11.60847c0,18.16491,8.19555,27.04331,22.26201,27.04331,6.00962,0,14.0678-4.37051,20.35083-10.38014l5.60018,5.1894c-9.42388,12.15528-19.66798,17.07261-34.00919,17.07261-22.12464,0-39.47066-14.0678-39.47066-35.92037,0-30.32086,20.48687-40.29089,39.60803-40.29089,23.62772,0,32.23271,10.24343,32.23271,29.63734v6.96588h-58.18239v.68285Zm43.43173-8.87773v-.68285h-10.65355c-.27341-12.83814-3.27822-18.84776-11.19903-18.84776,2.59537-1.50241,6.41907-2.59537,9.42388-3.27822v-.68285c-14.0678,3.27822-18.16491,7.51203-19.12117,23.49168h31.54986Z" style="fill:#0da847;"/><path d="M5512.44438,109.26285c0-9.55992,4.77996-18.30094,16.5258-21.57916,8.46762-2.458,18.57569-3.8237,30.32153-4.09777h7.10192v-.68285h-7.10192v-3.68766c0-5.19007-3.00481-10.51617-13.52232-10.51617-9.96936,0-16.66184,2.7314-17.61809,8.87773h-10.92695c0-8.87773,4.78129-23.76509,32.09667-23.76509,29.91075,0,33.18897,13.24825,33.18897,25.40353v26.9066c0,6.5551,.95492,9.28784,3.27689,9.28784,.82022,0,2.04855-.68285,3.41426-1.77648l4.23448,5.19074c-1.91252,2.7314-9.28784,10.51617-20.62291,10.51617-8.46762,0-13.38495-5.73622-13.38495-10.24277,0-4.64392,1.77515-6.28303,4.77996-12.29265h-.68285l-4.23314,7.37533c-4.37185,6.41907-10.65355,15.1601-25.26816,15.1601-11.60847,0-21.57916-6.82851-21.57916-20.07742Zm30.5936,4.09711c6.00962,0,11.88188-1.91118,16.25372-15.02273v-6.69247c-10.10806,1.0923-24.3119,3.00481-24.3119,13.93043,0,4.23448,3.27822,7.78477,8.05818,7.78477Z" style="fill:#0da847;"/><path d="M5618.0129,62.14346v-.68285c-6.41907,3.27755-14.88669,4.23381-19.80402,4.23381v-7.23862c4.09711-.1367,9.83332-1.77581,18.16491-4.64392h13.52099v10.51684c0,4.37051-3.95974,9.15047-7.23796,14.88669h.68285l6.5551-10.24343c4.37051-6.41907,10.65355-15.1601,26.63386-15.1601,15.97898,0,23.62772,7.51203,23.62772,27.9989v33.32567c0,2.86744,1.77515,5.59885,10.65355,5.59885v7.5127h-42.2034v-7.5127h19.66798v-.68285c-12.29265,0-12.56606,0-12.7021-9.69595v-24.03849c0-10.24343-1.77515-17.48206-9.97069-17.48206-4.09711,0-9.96936,3.14085-15.70691,12.15528v34.14523c0,2.86744,1.77648,5.59885,10.65355,5.59885v7.5127h-42.20207v-7.5127h19.66665v-.68285c-12.56473,0-12.7021,0-12.7021-10.3788v-37.1507c0-7.37466,6.96588-7.51136,12.7021-10.37947Z" style="fill:#0da847;"/><path d="M5721.53153,110.49252c0-17.75546,12.83814-35.23752,33.0516-35.23752,2.32196,0,4.50788,.27274,6.69247,.81955,5.73622-14.88736,11.20036-28.95516,12.15662-31.9593l8.19421-12.56539h2.7314l26.22309,56.68065c6.28303-5.46414,12.15528-10.3808,17.34602-14.20517l3.27689,4.50722c-5.46281,4.23381-11.74584,9.42455-18.16491,15.02473l4.91733,10.65221c3.00481,6.41907,6.41907,15.84295,14.88669,15.84295v8.19555h-36.05641v-6.14699h25.54023v-.13604c-9.28784-.27341-15.84295-4.23448-20.21346-13.93043l-1.3657-3.00481c-7.78477,7.6474-15.02406,15.70558-19.94139,23.21827h-12.97417c1.22833-8.8784,5.46281-32.23271-3.14085-42.2034l-7.7861,20.07742c-4.64259,12.15528-10.10673,23.21827-19.12117,23.21827-10.3788,0-16.25239-8.05818-16.25239-18.84776Zm18.84776,6.82851c6.41907,0,12.01925-19.66665,15.1601-26.63253l3.27822-8.46829c-1.50174-.54615-3.14085-.81955-5.05337-.81955-15.02406,0-20.21346,12.83947-20.21346,26.36046,0,5.46281,2.59537,9.55992,6.82851,9.55992Zm42.2034-.68285c4.77996-5.87225,10.24277-11.47243,15.70558-16.93524l-20.89631-46.16381h-.13604l-9.69729,24.99342c10.51617,5.87292,17.48206,19.12183,15.02406,38.10563Z" style="fill:#0da847;"/><path d="M5957.25789,128.24798v.13604l-13.65836-.13604-.13604-46.71062c0-6.41907-.81889-15.1601-10.38014-15.1601-10.65355,0-20.76028,18.98446-20.89631,61.87072h-15.29747v-45.34492c0-7.78477-.81889-16.5258-10.3788-16.5258-13.52232,0-21.03368,25.26749-22.80883,37.01333,.13604,15.4335,4.77996,16.66184,12.7021,16.66184v8.19555h-34.41863v-5.46281h25.94968v-.27341c-14.75065,0-18.02754-11.3364-17.8915-22.67279l.13737-17.20865c.13604-8.74103-.13737-13.52165-1.77648-16.6625l-10.24277,8.05751-3.27822-4.50655,22.12598-16.25306,.13604,.1367,.13737-.1367c4.64259,5.32677,6.5551,9.28718,6.5551,23.62772l.13737,9.0151c2.32063-11.19969,11.47243-31.41382,25.67627-31.41382,21.44313,0,21.16972,17.07261,20.89631,27.86219l-.54681,17.61943c2.45933-27.04331,9.97069-45.48162,26.22309-45.48162,21.44313,0,21.03368,17.07261,21.03368,27.86219v35.23752c4.23448-4.09711,10.51617-13.24758,12.83814-33.87182h5.46281c-2.7314,22.9462-8.87707,36.05774-17.61809,44.52536h-.68285Z" style="fill:#0da847;"/><path d="M6017.34346,54.49472c8.74103,0,21.16972,3.41492,21.16972,13.11154,0,6.69247-5.87225,14.2045-24.03716,14.2045v.27274h27.58879v5.46414h-48.75851v.68285c.13604,28.95449,15.56954,30.32019,22.39805,30.32019,4.64392,0,22.67279-1.77515,26.7699-22.67279h5.46281c-3.27689,21.44313-15.56954,33.46237-35.64696,33.46237-20.3495,0-32.64215-11.19903-32.64215-31.14041,.40944-28.27164,12.56606-43.70514,37.69552-43.70514Zm-19.12117,27.58879c7.7861,0,24.99475-4.50655,24.99475-13.79439,0-3.41426-5.46281-6.14566-14.75065-6.14566-8.05818,0-13.79439,1.50241-14.88669,19.94005h4.64259Z" style="fill:#0da847;"/><path d="M6057.62901,122.78517h25.94968v-.27341c-14.75065,0-17.8915-11.3364-17.8915-22.67279v-17.20865c0-8.74103-.27341-13.38495-1.77648-16.52647l-10.10673,7.92147-3.27689-4.50655,22.12464-16.11635,.13737-.1367c4.64392,5.32677,6.5551,9.28718,6.5551,23.62772v4.37051c4.91733-17.34535,13.24891-26.76923,31.27645-26.76923l-.27207,38.65178h-5.46414v-25.26683c-12.01791,0-23.0809,12.97484-25.54023,29.09186v6.41907c.13737,15.4335,4.78129,16.66184,12.7021,16.66184h7.23929v8.19555h-41.65659v-5.46281Z" style="fill:#0da847;"/><path d="M6133.83493,128.24798v-45.48162c0-9.28718-.41078-13.38428-2.18592-16.11569l-9.55992,7.51136-3.27822-4.50722,22.12598-16.25239c4.64392,5.32611,6.5551,9.28718,6.5551,23.62772v40.56429c4.23448-4.09711,10.51751-13.24758,12.83947-33.87182h5.46281c-2.7314,22.9462-8.8784,36.05774-17.61943,44.52536h-14.33987Zm7.10192-107.76112h16.38976l-13.52232,21.85257h-5.46281l2.59537-21.85257Z" style="fill:#0da847;"/><path d="M6205.5343,54.49472c9.01444,0,20.89631,5.05337,20.89631,24.44794h.68285l1.09363-24.44794h5.59885l-2.59403,33.05293h-6.4204c-5.46281-15.70758-15.56954-26.36046-24.99342-26.36046-11.19903,0-14.33987,3.27822-14.20384,27.04331,.13604,26.22309,11.47243,30.32019,21.03235,30.32019,4.64392,0,18.57569-1.77515,22.67279-22.67279h5.46281c-3.27822,21.44313-14.20384,33.46237-32.91556,33.46237-17.61809,0-31.27645-9.83332-31.27645-31.14041,0-27.72549,10.78958-43.70514,34.96411-43.70514Z" style="fill:#0da847;"/><path d="M6244.31678,110.35648c0-12.97551,9.28784-15.4335,19.39457-19.12117,8.33158-3.00481,25.94968-8.60499,25.94968-15.16076,0-2.59537-1.77515-11.88254-14.47724-11.88254-12.15528,0-16.25239,11.06299-16.25239,24.85738h-7.5127l-7.78477-34.55467h5.60018l4.91599,25.54023h.68418c1.22833-23.21827,15.84295-25.54023,25.40286-25.54023,14.75065,0,22.39939,6.14633,22.39939,18.71172v44.38799c4.09711-4.23448,10.10673-13.52099,12.83814-33.87182h5.46281c-2.7314,22.9462-8.87707,36.05774-17.61809,44.52536h-13.65836v-28.95449c0,10.24277-11.74584,30.04678-25.94968,30.04678-12.29265,0-19.39457-7.37533-19.39457-18.9838Zm22.53542,7.10192c13.24891,0,20.76028-20.21346,22.67279-32.09667-8.05818,6.00962-18.71172,9.01444-24.99475,12.56606-5.32677,3.00481-5.87225,5.59885-5.87225,10.65221,0,4.23448,3.14085,8.8784,8.19421,8.8784Z" style="fill:#0da847;"/><path d="M6382.93824,128.24798v-45.34492c0-7.78477-1.3657-16.5258-10.3788-16.5258-13.52232,0-21.03368,25.26749-22.80883,37.01333,.13604,15.4335,4.77996,16.66184,12.7021,16.66184v8.19555h-34.41863v-5.46281h25.94968v-.27341c-14.75065,0-17.8915-11.3364-17.8915-22.67279v-17.20865c0-8.74103-.13604-13.52165-1.63911-16.52647l-10.24277,7.92147-3.27822-4.50655,22.12598-16.25306,.13604,.1367,.13737-.1367c4.64259,5.32677,6.5551,9.28718,6.5551,23.62772v9.0151c2.32196-11.19969,11.6098-31.41382,25.81364-31.41382,21.44313,0,21.30576,17.07261,21.16972,27.86219l-.27341,20.07742v15.1601c4.23448-4.09711,10.51617-13.24758,12.83814-33.87182h5.46414c-2.73274,22.9462-8.8784,36.05774-17.61943,44.52536h-14.34121Z" style="fill:#0da847;"/><path d="M6444.93632,110.49252c0-17.75546,12.83814-35.23752,33.0516-35.23752,2.32196,0,4.50788,.27274,6.69247,.81955,5.73622-14.88736,11.20036-28.95516,12.15528-31.9593l8.19555-12.56539h2.7314l26.22309,56.68065c6.28303-5.46414,12.15528-10.3808,17.34602-14.20517l3.27689,4.50722c-5.46281,4.23381-11.74584,9.42455-18.16491,15.02473l4.91733,10.65221c3.00481,6.41907,6.41907,15.84295,14.88669,15.84295v8.19555h-36.05641v-6.14699h25.54023v-.13604c-9.28784-.27341-15.84295-4.23448-20.21346-13.93043l-1.3657-3.00481c-7.78477,7.6474-15.02406,15.70558-19.94139,23.21827h-12.97417c1.22967-8.8784,5.46281-32.23271-3.14218-42.2034l-7.78477,20.07742c-4.64259,12.15528-10.10673,23.21827-19.12117,23.21827-10.3788,0-16.25239-8.05818-16.25239-18.84776Zm18.84776,6.82851c6.41907,0,12.01925-19.66665,15.1601-26.63253l3.27822-8.46829c-1.50174-.54615-3.14085-.81955-5.05337-.81955-15.02406,0-20.21346,12.83947-20.21346,26.36046,0,5.46281,2.59537,9.55992,6.82851,9.55992Zm42.2034-.68285c4.77996-5.87225,10.24277-11.47243,15.70558-16.93524l-20.89631-46.16381h-.13604l-9.69729,24.99342c10.51617,5.87292,17.48206,19.12183,15.02406,38.10563Z" style="fill:#0da847;"/><path d="M6620.29437,128.24798v-45.34492c0-7.78477-1.3657-16.5258-10.3788-16.5258-13.52232,0-21.03368,25.26749-22.80883,37.01333,.13604,15.4335,4.77996,16.66184,12.70076,16.66184v8.19555h-34.4173v-5.46281h25.94968v-.27341c-14.75065,0-17.8915-11.3364-17.8915-22.67279v-17.20865c0-8.74103-.13604-13.52165-1.63911-16.52647l-10.24277,7.92147-3.27822-4.50655,22.12598-16.25306,.13604,.1367,.13737-.1367c4.64259,5.32677,6.5551,9.28718,6.5551,23.62772v9.0151c2.32196-11.19969,11.6098-31.41382,25.81364-31.41382,21.44313,0,21.30576,17.07261,21.16972,27.86219l-.27341,20.07742v15.1601c4.23448-4.09711,10.51617-13.24758,12.83814-33.87182h5.46281c-2.7314,22.9462-8.87707,36.05774-17.61809,44.52536h-14.34121Z" style="fill:#0da847;"/><path d="M6654.9784,137.8079l40.01748-16.66184c-3.00481-.27341-6.41907-.41078-10.38014-.41078-6.2817,0-16.66184-.13604-24.72001,2.04989l-3.41426-9.56125,27.86086-10.65355c-15.43217-.95492-25.26683-8.05818-25.26683-20.89631,0-19.25787,13.52232-26.49649,31.41382-26.49649l35.37356-2.7314v5.46348l-18.16491,.40944c7.51136,3.41426,12.01925,9.69729,12.01925,18.84776,0,9.28718-3.96107,15.43417-9.83466,19.39524-.81889,.54548-1.63778,1.0923-2.59403,1.50174l-1.22967,.81889-39.88144,16.52713,.27341,.68285c13.38495-3.68766,28.40901-5.87359,37.55948-5.60018,9.28784,.27341,22.67146,3.41426,22.53542,18.43832-.27341,20.3495-22.26201,32.09534-40.70033,32.09534-15.84295,0-27.99823-5.87225-30.86701-23.21827Zm42.61285,14.88669c6.82851,0,15.97898-3.68633,15.97898-17.20865,0-5.87225-2.18459-10.24277-9.83332-12.70076l-34.82674,15.56954c5.46281,12.15528,20.62291,14.33987,28.68108,14.33987Zm-4.77996-54.90417c13.38362,0,11.88188-10.65355,11.88188-19.25787,0-13.65769-12.15528-18.57435-18.43832-18.57435-13.52099,0-12.15528,9.56058-12.15528,20.48687,0,12.42936,11.06299,17.34535,18.71172,17.34535Z" style="fill:#0da847;"/><path d="M6788.68386,128.24798v-27.58879c-2.7314,12.15528-10.51751,28.68108-25.94968,28.68108-18.16491,0-18.30228-15.84295-18.30228-26.63253v-20.07742c0-8.74103-.27341-13.38495-1.77515-16.52647l-10.10673,7.92147-3.27822-4.50655,22.12598-16.11635,.13604-.1367c4.64392,5.32677,6.55644,9.28718,6.55644,23.62772v24.03916c0,7.78477,.40944,15.70558,8.33025,15.70558,16.25372,0,20.48687-20.07609,22.26335-31.9593v-2.04855c0-8.60499-.27341-13.38495-1.63911-16.38976l-10.10673,7.78477-3.27822-4.50655,22.12598-16.25306c4.64392,5.32677,6.5551,9.28718,6.5551,23.62772v40.701c4.23448-4.09711,10.51751-13.24758,12.83947-33.87182h5.46281c-2.7314,22.9462-8.8784,36.05774-17.61943,44.52536h-14.33987Z" style="fill:#0da847;"/><path d="M6835.66055,128.24798v-45.48162c0-9.28718-.41078-13.38428-2.18592-16.11569l-9.55992,7.51136-3.27822-4.50722,22.12598-16.25239c4.64392,5.32611,6.5551,9.28718,6.5551,23.62772v40.56429c4.23448-4.09711,10.51751-13.24758,12.83814-33.87182h5.46414c-2.7314,22.9462-8.8784,36.05774-17.61943,44.52536h-14.33987Zm7.10192-107.76112h16.38976l-13.52232,21.85257h-5.46281l2.59537-21.85257Z" style="fill:#0da847;"/><path d="M6902.98941,83.72262h5.46281c-2.7314,22.9462-8.87707,36.05774-17.61809,44.52536h-14.34121V63.9186c.13737-18.71106,1.77648-23.21827,20.35083-33.73445,9.42388-5.32677,21.85257-8.60499,35.51093-10.79025l1.0923,5.46348c-18.02887,3.55096-36.19378,11.60914-43.15966,18.16491l-.13604,18.0282v56.54394c4.23448-4.09711,10.51617-13.24758,12.83814-33.87182Z" style="fill:#0da847;"/><path d="M6946.27978,83.72262h5.46281c-2.7314,22.9462-8.87707,36.05774-17.61809,44.52536h-14.34121V63.9186c.13737-18.71106,1.77648-23.21827,20.35083-33.73445,9.42388-5.32677,21.85257-8.60499,35.51093-10.79025l1.0923,5.46348c-18.02887,3.55096-36.19378,11.60914-43.15966,18.16491l-.13604,18.0282v56.54394c4.23448-4.09711,10.51617-13.24758,12.83814-33.87182Z" style="fill:#0da847;"/><path d="M7004.32079,99.29349c0,10.24277-11.74584,30.04678-25.94968,30.04678-12.29265,0-19.39457-7.37533-19.39457-18.9838,0-12.97551,9.28784-15.4335,19.39457-19.12117,8.33158-3.00481,25.94968-8.60499,25.94968-15.16076,0-2.59537-1.77515-11.88254-14.47724-11.88254-12.15528,0-16.25239,11.06299-16.25239,24.85738h-7.5127l-7.78477-34.55467h5.60018l4.91599,25.54023h.68418c1.22833-23.21827,15.84295-25.54023,25.40286-25.54023,14.75065,0,22.39939,6.14633,22.39939,18.71172v41.65659c20.3495-6.00962,26.90594-31.68656,30.18282-60.0949h5.46414c-4.23448,33.05293-6.55644,73.47985-48.62247,73.47985v-28.95449Zm-22.80883,18.16491c13.24891,0,20.76028-20.21346,22.67279-32.09667-8.05818,6.00962-18.71172,9.01444-24.99475,12.56606-5.32677,3.00481-5.87225,5.59885-5.87225,10.65221,0,4.23448,3.14085,8.8784,8.19421,8.8784Z" style="fill:#0da847;"/><path d="M7090.22,38.78848v-6.14633h36.73926c10.2441,14.75065,21.30709,46.30051,18.71172,85.77251h.68285c5.73622-21.44313,11.74584-66.92475,26.63253-85.77251h37.83289v6.14633c-11.88321,0-14.47724,2.458-14.47724,12.01858v46.98336c0,24.44794-11.74584,36.32982-21.16972,43.56911l.27207,.40944,32.77952-18.30094,2.59537,5.59885-47.25677,24.99475-3.41426-6.55644c16.38976-13.38495,20.76028-22.80883,21.03368-60.36831l.27207-48.3484c-14.75065,21.30642-26.35912,67.74297-31.54852,90.27839h-14.47858c-1.91118-37.96893-9.83332-70.06493-21.7152-90.27839h-.68285l-4.23448,51.90002c-1.91118,23.76509-7.10192,28.54505-11.88188,30.72964v.68285h22.53542v6.14699h-40.56429v-6.14699c8.33158,0,20.21346-4.23314,22.12598-25.26683l5.32677-58.04568h-16.11635Z" style="fill:#0da847;"/><path d="M7215.58987,110.35648c0-12.97551,9.28784-15.4335,19.39457-19.12117,8.33158-3.00481,25.94968-8.60499,25.94968-15.16076,0-2.59537-1.77515-11.88254-14.47724-11.88254-12.15528,0-16.25239,11.06299-16.25239,24.85738h-7.5127l-7.78477-34.55467h5.60018l4.91599,25.54023h.68418c1.22833-23.21827,15.84295-25.54023,25.40286-25.54023,14.75065,0,22.39939,6.14633,22.39939,18.71172v44.38799c4.09711-4.23448,10.10673-13.52099,12.83814-33.87182h5.46281c-2.7314,22.9462-8.87707,36.05774-17.61809,44.52536h-13.65836v-28.95449c0,10.24277-11.74584,30.04678-25.94968,30.04678-12.29265,0-19.39457-7.37533-19.39457-18.9838Zm22.53542,7.10192c13.24891,0,20.76028-20.21346,22.67279-32.09667-8.05818,6.00962-18.71172,9.01444-24.99475,12.56606-5.32677,3.00481-5.87225,5.59885-5.87225,10.65221,0,4.23448,3.14085,8.8784,8.19421,8.8784Z" style="fill:#0da847;"/><path d="M7294.93664,137.8079l40.01748-16.66184c-3.00481-.27341-6.41907-.41078-10.38014-.41078-6.2817,0-16.66184-.13604-24.72001,2.04989l-3.41426-9.56125,27.86086-10.65355c-15.43217-.95492-25.26683-8.05818-25.26683-20.89631,0-19.25787,13.52232-26.49649,31.41382-26.49649l35.37356-2.7314v5.46348l-18.16491,.40944c7.51136,3.41426,12.01925,9.69729,12.01925,18.84776,0,9.28718-3.96107,15.43417-9.83466,19.39524-.81889,.54548-1.63778,1.0923-2.59403,1.50174l-1.22967,.81889-39.88144,16.52713,.27341,.68285c13.38495-3.68766,28.40901-5.87359,37.55948-5.60018,9.28784,.27341,22.67146,3.41426,22.53542,18.43832-.27341,20.3495-22.26201,32.09534-40.70033,32.09534-15.84295,0-27.99823-5.87225-30.86701-23.21827Zm42.61285,14.88669c6.82851,0,15.97898-3.68633,15.97898-17.20865,0-5.87225-2.18459-10.24277-9.83332-12.70076l-34.82674,15.56954c5.46281,12.15528,20.62291,14.33987,28.68108,14.33987Zm-4.77996-54.90417c13.38362,0,11.88188-10.65355,11.88188-19.25787,0-13.65769-12.15528-18.57435-18.43832-18.57435-13.52099,0-12.15528,9.56058-12.15528,20.48687,0,12.42936,11.06299,17.34535,18.71172,17.34535Z" style="fill:#0da847;"/><path d="M7374.01001,110.35648c0-12.97551,9.28784-15.4335,19.39457-19.12117,8.33158-3.00481,25.94968-8.60499,25.94968-15.16076,0-2.59537-1.77515-11.88254-14.47724-11.88254-12.15528,0-16.25239,11.06299-16.25239,24.85738h-7.5127l-7.78477-34.55467h5.60018l4.91599,25.54023h.68285c1.22967-23.21827,15.84428-25.54023,25.4042-25.54023,14.75065,0,22.39939,6.14633,22.39939,18.71172v44.38799c4.09711-4.23448,10.10673-13.52099,12.83814-33.87182h5.46281c-2.7314,22.9462-8.87707,36.05774-17.61809,44.52536h-13.65836v-28.95449c0,10.24277-11.74584,30.04678-25.94968,30.04678-12.29265,0-19.39457-7.37533-19.39457-18.9838Zm22.53542,7.10192c13.24891,0,20.76028-20.21346,22.67279-32.09667-8.05818,6.00962-18.71172,9.01444-24.99475,12.56606-5.32544,3.00481-5.87225,5.59885-5.87225,10.65221,0,4.23448,3.14085,8.8784,8.19421,8.8784Z" style="fill:#0da847;"/><path d="M7470.42939,89.04939h-6.14566l-11.6098-34.55467h5.46281l8.46895,25.67694h.68285c-1.36704-24.72068,11.47243-24.31124,21.03235-24.31124h30.45756v4.09777l-38.65178,54.90483c-2.59537,3.8237-6.00962,7.92214-9.42388,7.92214h11.74584c20.21346,0,28.27164-4.91733,33.18763-35.10148h5.46414l-6.96588,40.56429h-57.09009v-5.46281l38.65178-53.13035c3.00481-4.09711,6.14566-8.33092,10.38014-8.33092-5.05337,0-8.05818,0-14.61462,.1367-12.29132,0-21.16839,13.79439-21.03235,27.58879Z" style="fill:#0da847;"/><path d="M7539.53206,128.24798v-45.48162c0-9.28718-.41078-13.38428-2.18592-16.11569l-9.55992,7.51136-3.27822-4.50722,22.12598-16.25239c4.64392,5.32611,6.5551,9.28718,6.5551,23.62772v40.56429c4.23448-4.09711,10.51751-13.24758,12.83947-33.87182h5.46281c-2.7314,22.9462-8.8784,36.05774-17.61943,44.52536h-14.33987Zm7.10192-107.76112h16.38976l-13.52232,21.85257h-5.46281l2.59537-21.85257Z" style="fill:#0da847;"/><path d="M7633.49345,128.24798v-45.34492c0-7.78477-1.3657-16.5258-10.3788-16.5258-13.52232,0-21.03368,25.26749-22.80883,37.01333,.13604,15.4335,4.77996,16.66184,12.70076,16.66184v8.19555h-34.4173v-5.46281h25.94968v-.27341c-14.75065,0-17.8915-11.3364-17.8915-22.67279v-17.20865c0-8.74103-.13604-13.52165-1.63911-16.52647l-10.24277,7.92147-3.27822-4.50655,22.12598-16.25306,.13604,.1367,.13737-.1367c4.64259,5.32677,6.5551,9.28718,6.5551,23.62772v9.0151c2.32196-11.19969,11.6098-31.41382,25.81364-31.41382,21.44313,0,21.30576,17.07261,21.16972,27.86219l-.27341,20.07742v15.1601c4.23448-4.09711,10.51617-13.24758,12.83814-33.87182h5.46281c-2.7314,22.9462-8.87707,36.05774-17.61809,44.52536h-14.34121Z" style="fill:#0da847;"/><path d="M7707.92156,54.49472c8.74103,0,21.16972,3.41492,21.16972,13.11154,0,7.10259-6.82851,11.88254-28.13427,11.88254v.68285h31.68589v5.46348h-48.07566v2.59537c.13604,27.58879,17.61809,28.95449,24.44794,28.95449,30.72964,0,45.61632-28.81845,54.08395-61.32457h5.46414c-7.64873,33.05293-20.89631,73.47985-62.96368,73.47985-20.3495,0-35.64696-11.19903-35.37356-32.50612,.40944-26.90594,12.56606-42.33944,37.69552-42.33944Zm-19.12117,24.31124c6.00962,0,24.99475-4.09711,24.99475-10.51684,0-3.41426-5.46281-6.14566-14.75065-6.14566-8.19421,0-12.7021,1.229-14.0678,16.6625h3.8237Z" style="fill:#0da847;"/><path d="M7801.33213,94.78561c0-30.32019,20.89631-40.29089,35.78434-40.29089,21.03235,0,33.0516,9.83399,33.0516,34.55467,0,30.32019-20.89631,40.29089-35.783,40.29089-21.03368,0-33.05293-9.83332-33.05293-34.55467Zm38.65178,26.63253c15.02406,0,15.84295-10.24277,15.84295-26.22309,0-27.58879-13.24758-33.1883-23.90112-33.1883-15.4335,0-16.25239,11.06299-16.25239,26.6332,0,27.58879,13.65836,32.77819,24.31057,32.77819Z" style="fill:#0da847;"/><path d="M7881.08968,122.78517h12.42869c-1.50174,0-1.3657-4.78129-1.3657-9.01444v-42.61351c0-2.32129,0-5.59951,.82022-7.37533v-.13604c-3.96107,1.3657-6.28303,1.3657-11.47377,1.3657v-5.19007c4.09844-.1367,13.38495-1.77581,18.16624-4.64392h5.46281v2.73207l.13604,14.06713c2.86878-6.41907,8.8784-17.48206,22.39939-17.48206,2.86744,0,5.46281,.81955,7.10192,1.3657v16.6625h-5.46281c-.41078-3.41426-4.09844-5.59951-9.56125-5.59951-5.59885-.27274-9.96936,6.28303-14.33987,16.38976l.40944,30.45756c.13604,7.6474-.54681,9.01444,11.06299,9.01444h5.73622v5.46281h-41.52055v-5.46281Z" style="fill:#0da847;"/><path d="M7990.07379,62.14346v-.68285c-6.41907,3.27755-14.88669,4.23381-19.80402,4.23381v-7.23862c4.09711-.1367,9.83332-1.77581,18.16491-4.64392h13.52099v10.51684c0,4.37051-3.95974,9.15047-7.23796,14.88669h.68285l6.5551-10.24343c4.37051-6.41907,10.65355-15.1601,26.63386-15.1601,15.97898,0,23.62772,7.51203,23.62772,27.9989v33.32567c0,2.86744,1.77515,5.59885,10.65355,5.59885v7.5127h-42.2034v-7.5127h19.66798v-.68285c-12.29265,0-12.56606,0-12.7021-9.69595v-24.03849c0-10.24343-1.77515-17.48206-9.97069-17.48206-4.09711,0-9.97069,3.14085-15.70691,12.15528v34.14523c0,2.86744,1.77648,5.59885,10.65355,5.59885v7.5127h-42.20207v-7.5127h19.66665v-.68285c-12.56473,0-12.7021,0-12.7021-10.3788v-37.1507c0-7.37466,6.96588-7.51136,12.7021-10.37947Z" style="fill:#0da847;"/><path d="M8065.59553,93.41991c0-30.32086,21.30576-40.29089,40.29089-40.29089,22.94487,0,37.55948,14.0678,37.55948,35.92037,0,30.32019-21.30709,40.29089-40.29089,40.29089-22.94487,0-37.55948-14.0678-37.55948-35.92037Zm43.43173,27.04331c-2.59403,1.50174-6.41907,2.59403-9.42388,3.27689v.68285c16.25372-3.8237,19.25854-8.87707,19.25854-27.86086,0-21.44379-9.56125-32.37008-18.84909-34.55534,2.59537-1.50241,6.4204-2.59537,9.42388-3.27822v-.68285c-16.25239,3.82437-19.53061,8.87773-19.53061,27.86286,0,21.44313,9.83466,32.36875,19.12117,34.55467Z" style="fill:#0da847;"/><path d="M8172.25768,53.81187v.68285h24.85738v9.56058h-15.02406v47.80292c0,4.64392,3.14085,6.00962,7.37533,6.00962,3.00481,.13604,6.5551-.54681,10.10673-.95626v9.55992c-4.50788,1.63911-12.83814,2.86878-20.35083,2.86878-14.33987,0-21.7152-8.33158-21.7152-16.11635v-49.16862h-9.28784v-8.74103l18.16491-14.61395h15.70691v8.60432c0,3.55163-.13737,4.50722-9.83332,4.50722Z" style="fill:#0da847;"/><path d="M8205.16791,118.41466c0-6.00962,4.91599-10.92695,10.78958-10.92695,6.00962,0,10.78958,4.91733,10.78958,10.92695,0,5.87225-4.77996,10.92562-10.78958,10.92562-5.87359,0-10.78958-4.37051-10.78958-10.92562Z" style="fill:#0da847;"/><path d="M8236.57906,118.41466c0-6.00962,4.91599-10.92695,10.78958-10.92695,6.00962,0,10.78958,4.91733,10.78958,10.92695,0,5.87225-4.77996,10.92562-10.78958,10.92562-5.87359,0-10.78958-4.37051-10.78958-10.92562Z" style="fill:#0da847;"/><path d="M8267.99021,118.41466c0-6.00962,4.91599-10.92695,10.78958-10.92695,6.00962,0,10.78958,4.91733,10.78958,10.92695,0,5.87225-4.77996,10.92562-10.78958,10.92562-5.87359,0-10.78958-4.37051-10.78958-10.92562Z" style="fill:#0da847;"/><path d="M8324.52949,122.10099h9.15047V38.78848h-9.15047v-6.14633h69.38141l3.27822,17.20932h-5.87225c-4.91733-8.46829-10.2441-11.06299-32.09667-11.06299-10.78958,0-10.51617,0-10.51617,14.20384v21.98927h22.94487c8.8784,0,8.74103-4.50722,8.74103-12.70143h6.00962v31.54919h-6.00962c0-8.33025,.13737-12.70143-8.74103-12.70143h-22.94487v27.72549c0,12.29265,.40944,13.24758,10.51617,13.24758h13.38495c14.20384,0,17.75546-4.50655,21.16972-16.38843h5.87359l-2.45933,22.53542h-72.65963v-6.14699Z" style="fill:#0da847;"/><path d="M8418.35217,28.27164v-.1367c-3.95974,1.36637-6.2817,1.36637-11.47243,1.36637v-5.19007c4.09844-.1367,13.38495-1.77581,18.16491-4.64392h6.14699V113.77074c0,7.6474-.54681,9.01444,11.06299,9.01444v5.46281h-35.78434v-5.46281h12.42869c-1.50174,0-1.3657-4.78129-1.3657-9.01444V35.64696c0-2.32196,0-5.59951,.81889-7.37533Z" style="fill:#0da847;"/><path d="M8488.68718,54.49472c8.46762,0,13.79439,1.77581,17.34469,5.19007,4.91733,4.64392,6.82985,13.11154,6.69247,23.08157v5.60018h-45.20688v.27341c0,25.4042,10.38014,30.18416,23.90112,30.18416,8.87707,0,14.75065-2.7314,18.71172-8.74103l4.09711,3.55029c-4.50788,8.60499-13.93176,15.70691-28.40901,15.70691-21.7152,0-32.64215-11.3364-32.64215-34.55467,0-30.32019,20.48687-40.29089,35.51093-40.29089Zm10.92562,28.40834c0-4.77996-1.0923-10.78958-3.68766-15.02339-2.32063-3.96107-6.00829-6.41907-11.33506-6.41907-14.20517,0-16.66317,8.60432-17.07261,21.44246h32.09534Z" style="fill:#0da847;"/><path d="M8573.22335,111.44878l-11.74584-24.3119c-4.09711,3.14218-8.74103,6.4204-13.65702,9.97069v16.66317c0,7.6474-.54681,9.01444,11.06299,9.01444v5.46281h-35.78434v-5.46281h12.42869c-1.50174,0-1.3657-4.78129-1.3657-9.01444V35.64696c0-2.32196,0-5.59951,.81889-7.37533v-.1367c-3.95974,1.36637-6.2817,1.36637-11.47243,1.36637v-5.19007c4.09844-.1367,13.38495-1.77581,18.16491-4.64392h6.14699V90.6885l35.783-29.3646h-13.11154v-5.46348h29.2279v5.46348c-2.86744,0-10.78958,5.73622-26.35912,17.07195l.68285-.27274,16.25239,35.10082c1.91252,3.14085,2.86878,4.91733,4.91733,6.55644,3.00481,2.458,6.69247,2.7314,9.42388,2.7314v5.46281c-3.68766,.81889-7.10192,1.3657-10.78958,1.3657-9.28784,0-13.93176-4.23448-20.62424-17.8915Z" style="fill:#0da847;"/><path d="M8619.38115,113.22392V61.3239h-9.28784v-4.64392l18.16491-14.61395h4.77996c0,8.46829-.40944,11.60914-2.04855,13.79439h17.07261v5.46348h-15.02406v50.53432c0,5.73622,1.63911,9.69729,7.92214,9.69729,4.09711,0,9.15047-4.64392,9.69729-5.05337l2.86744,4.23314c-3.00481,3.00481-8.87707,8.60499-19.2572,8.60499-11.60847,0-14.88669-8.33158-14.88669-16.11635Z" style="fill:#0da847;"/><path d="M8663.08096,122.78517h12.42869c-1.50174,0-1.3657-4.78129-1.3657-9.01444v-42.61351c0-2.32129,0-5.59951,.82022-7.37533v-.13604c-3.96107,1.3657-6.28303,1.3657-11.47377,1.3657v-5.19007c4.09844-.1367,13.38495-1.77581,18.16491-4.64392h5.46414v2.73207l.13604,14.06713c2.86878-6.41907,8.8784-17.48206,22.39939-17.48206,2.86744,0,5.46281,.81955,7.10192,1.3657v16.6625h-5.46281c-.41078-3.41426-4.09844-5.59951-9.56125-5.59951-5.59885-.27274-9.96936,6.28303-14.33987,16.38976l.40944,30.45756c.13604,7.6474-.54681,9.01444,11.06299,9.01444h5.73622v5.46281h-41.52055v-5.46281Z" style="fill:#0da847;"/><path d="M8726.31271,122.78517h12.42869c-1.50174,0-1.3657-4.78129-1.3657-9.01444v-42.61351c0-2.32129,0-5.59951,.82022-7.37533v-.13604c-3.96107,1.3657-6.28303,1.3657-11.47377,1.3657v-5.19007c4.09844-.1367,13.38495-1.77581,18.16624-4.64392h6.14566v58.59316c0,7.6474-.54681,9.01444,11.06299,9.01444v5.46281h-35.78434v-5.46281Zm9.69729-89.32347c0-5.05337,3.96107-9.01444,9.01444-9.01444s9.15047,3.96107,9.15047,9.01444c0,4.91666-4.09711,8.87773-9.15047,8.87773s-9.01444-3.96107-9.01444-8.87773Z" style="fill:#0da847;"/><path d="M8770.97011,94.78561c0-30.32019,20.48687-40.29089,35.51093-40.29089,9.42388,0,15.56954,1.63911,21.7152,4.64392v17.07195h-6.00829c0-3.68766-2.04989-7.23862-4.91733-9.69662-4.23448-3.82437-11.88188-5.05337-14.88669-5.05337-16.25372,0-17.07261,11.19903-17.07261,27.17934,0,25.4042,10.38014,30.18416,23.90112,30.18416,8.87707,0,14.75065-2.7314,18.71172-8.74103l4.09711,3.55029c-4.50788,8.60499-13.93176,15.70691-28.40901,15.70691-21.7152,0-32.64215-11.3364-32.64215-34.55467Zm29.09186-52.30947h9.01444l16.11635-19.66731h-15.4335l-4.09844,13.79439h-2.18459l-4.09711-13.79439h-15.4335l16.11635,19.66731Z" style="fill:#0da847;"/><path d="M8854.82477,63.7819v-.13604c-3.96107,1.3657-6.28303,1.3657-11.47377,1.3657v-5.19007c4.09844-.1367,13.38495-1.77581,18.16624-4.64392h6.14566v19.53128c5.46281-7.78544,14.20384-19.53128,26.63253-19.53128,16.11635,0,20.76028,7.78544,20.76028,25.67694l.13604,32.91623c0,7.6474-.54548,9.01444,11.06299,9.01444v5.46281h-35.783v-5.46281h12.42869c-1.09363,0-1.3657-2.59537-1.3657-5.60018v-34.69137c0-11.74584-5.46414-15.70691-13.24891-15.70691-8.33158,0-13.52099,6.00962-20.62291,18.02954v28.95449c0,7.6474-.54681,9.01444,11.06299,9.01444v5.46281h-35.78434v-5.46281h12.42869c-1.50174,0-1.3657-4.78129-1.3657-9.01444v-42.61351c0-2.32129,0-5.59951,.82022-7.37533Z" style="fill:#0da847;"/><path d="M8979.23972,118.96014v-7.51136c-2.7314,6.41907-8.74103,17.8915-22.53542,17.8915-17.20865,0-21.57916-10.78958-21.57916-20.07742,0-9.55992,4.77996-16.93524,16.5258-20.21346,8.19555-2.32196,19.25854-3.27822,27.58879-3.96107v-4.91666c0-7.78477-1.63778-14.47724-13.52099-14.47724-13.79439,0-18.16491,1.0923-20.3495,11.88254h-5.46414c0-15.02406,5.73755-22.39939,29.36527-22.39939,18.43832,0,23.62772,9.97069,23.62772,22.12598v34.28126c0,6.55644,0,9.97069,3.00481,9.97069,4.09711,0,9.15047-4.64392,9.69729-5.05337l2.86744,4.23314c-3.00481,3.00481-9.42388,8.60499-18.43698,8.60499-5.73622,0-10.79092-2.7314-10.79092-10.38014Zm-20.3495-.13604c10.10673,.40944,15.97898-8.46762,20.3495-19.12117v-9.15047c-10.51617,1.0923-17.75413,2.04855-22.39805,3.95974-7.64873,3.00481-7.78477,8.33158-7.78477,13.79439,0,5.46414,3.27689,10.2441,9.83332,10.51751Z" style="fill:#0da847;"/><path d="M9033.72911,122.10099c0,3.41559-3.41426,7.23929-8.19421,7.23929-5.87359,0-10.2441-4.37051-10.2441-10.92562,0-6.00962,4.64392-10.92695,10.51751-10.92695,8.87707,0,13.79439,6.82851,13.79439,18.02887,0,12.01791-6.82985,20.3495-23.08224,21.57916v-5.60018c17.48206-1.77515,18.30094-12.42869,17.20865-19.39457Z" style="fill:#0da847;"/><path d="M9129.60168,122.78517v5.46281h-50.80706v-5.46281h19.66798c-1.50307,0-1.3657-4.78129-1.3657-9.01444v-42.47681c0-1.0923,0-3.14152,1.3657-3.14152h-19.94139v-5.46281c15.02406,0,24.17453-5.05337,27.99957-9.56058h6.2817c-.40944,6.41907-.68285,16.11635-.68285,23.08157v37.56015c0,7.6474,5.87359,9.01444,17.48206,9.01444Z" style="fill:#0da847;"/><path d="M9163.05871,76.89344c-11.88188-6.5551-16.5258-15.29613-16.5258-22.53542,0-14.74999,14.34121-25.81297,31.9593-25.81297,17.34602,0,29.09186,10.38014,29.09186,24.72068,0,7.78477-5.87359,16.5258-17.61943,21.71587,14.20517,7.51203,21.71653,14.20517,21.71653,26.63386,0,15.1601-14.75065,27.72482-36.05641,27.72482-19.94139,0-33.05293-11.19903-33.05293-26.90594,0-11.47243,7.10192-20.07742,20.48687-25.5409Zm14.34121,46.98403c12.42869,0,20.3495-8.05818,20.3495-19.25854,0-12.29132-18.84776-20.89631-29.63734-25.53957-8.33158,5.05403-11.19903,13.38428-11.19903,22.53609,0,13.24758,7.37533,22.26201,20.48687,22.26201Zm.13604-54.9055l7.5127,3.68766c6.96455-4.37051,8.19421-11.60914,8.19421-20.35016,0-12.97484-7.78477-18.57435-15.84295-18.57435-8.60499,0-16.38976,7.51136-16.38976,17.34535,0,6.96522,3.8237,12.01858,16.5258,17.8915Z" style="fill:#0da847;"/><path d="M9287.06689,128.24798h-63.78257v-11.20036c5.46281-6.14566,21.16972-10.78958,32.91556-19.39324,12.01925-8.8784,12.97551-13.65836,12.97551-21.57983,0-7.37533-4.91733-13.11154-15.84295-13.11154-10.92695,0-18.57569,4.64325-18.57569,19.94005h-5.46281v-8.60432c0-12.56539,10.51617-21.16972,27.86219-21.16972,16.79921,0,26.35912,7.78477,26.35912,22.94553,0,11.74651-6.2817,17.61876-21.98861,26.9066-9.69729,5.59885-18.57435,9.42388-26.7699,12.29132h52.31013v12.97551Z" style="fill:#0da847;"/><path d="M9327.89792,62.96301c-10.92562,0-18.57435,4.64325-18.57435,19.94005h-5.46281v-8.60432c0-12.56539,10.51617-21.16972,27.86219-21.16972,16.79921,0,26.35912,8.74103,26.35912,23.90112,0,13.52232-12.42869,21.85257-20.48687,23.76509,12.7021,1.3657,23.76509,7.64873,23.76509,24.72135,0,15.4335-9.69729,29.91075-33.59841,29.91075-17.48206,0-30.5936-9.15181-28.1356-28.68242h5.19074c0,12.29265,10.78958,19.12117,23.21827,19.12117,10.92562,0,18.9838-6.96588,18.9838-18.30094,0-16.25372-7.78477-23.08224-24.99342-23.08224h-1.50307v-5.46281h4.78129c11.60847,0,18.43698-8.33158,18.43698-21.17039,0-7.37533-4.91599-14.88669-15.84295-14.88669Z" style="fill:#0da847;"/><path d="M9391.94856,55.86043c6.00962,0,10.78958,4.91733,10.78958,10.92629,0,5.87292-4.77996,10.92629-10.78958,10.92629-5.87359,0-10.78958-4.37051-10.78958-10.92629,0-6.00896,4.91599-10.92629,10.78958-10.92629Zm7.6474,66.24056c0,3.41559-3.41426,7.23929-8.19421,7.23929-5.87225,0-10.24277-4.37051-10.24277-10.92562,0-6.00962,4.64259-10.92695,10.51617-10.92695,8.87707,0,13.79439,6.82851,13.79439,18.02887,0,12.01791-6.82851,20.3495-23.08224,21.57916v-5.60018c17.48206-1.77515,18.30228-12.42869,17.20865-19.39457Z" style="fill:#0da847;"/><path d="M9448.48517,118.68673h22.26201v-.68285c-11.19903,.13737-12.70076,.13737-12.70076-9.01444V47.80225c0-9.15047,1.50174-9.01377,12.70076-9.01377v-.68285h-22.26201v-9.56058h80.03496l3.41426,21.30642h-9.55992c-5.05337-10.10673-11.74584-11.74584-27.45275-11.74584q-10.92562,0-10.92562,12.97484v19.25787h-10.78958v.68285h26.63253c6.5551,0,6.41907-3.00481,6.41907-11.6098h9.55992v32.91623h-9.55992c0-8.60499,.13604-11.74651-6.41907-11.74651h-15.84295v24.03783c0,13.11154,.40944,14.0678,10.92562,14.0678,14.88802,0,25.81364,.13737,30.04812-15.29613h9.55992l-2.59537,24.85738h-83.44921v-9.56125Zm44.11459-115.54522h24.58531l-21.5805,19.53061h-9.55992l6.5551-19.53061Z" style="fill:#0da847;"/><path d="M9560.47409,27.9989v-.68285c-6.41907,3.27755-14.88669,4.23381-19.80402,4.23381v-7.23862c4.09711-.1367,9.83332-1.77581,18.16491-4.64392h13.52099V115.13644c0,2.86744,1.77648,5.59885,10.65355,5.59885v7.5127h-42.20207v-7.5127h19.66665v-.68285c-12.56473,0-12.7021-.40944-12.7021-10.3788V38.37837c0-7.37466,6.96588-7.51136,12.7021-10.37947Z" style="fill:#0da847;"/><path d="M9600.76098,90.4151h11.60847c0,18.16491,8.19555,27.04331,22.26201,27.04331,6.00962,0,14.0678-4.37051,20.35083-10.38014l5.60018,5.1894c-9.42388,12.15528-19.66798,17.07261-34.00786,17.07261-22.12598,0-39.472-14.0678-39.472-35.92037,0-30.32086,20.48687-40.29089,39.60803-40.29089,23.62772,0,32.23271,10.24343,32.23271,29.63734v6.96588h-58.18239v.68285Zm43.43173-8.87773v-.68285h-10.65355c-.27341-12.83814-3.27822-18.84776-11.19903-18.84776,2.59537-1.50241,6.41907-2.59537,9.42388-3.27822v-.68285c-14.0678,3.27822-18.16491,7.51203-19.12117,23.49168h31.54986Z" style="fill:#0da847;"/><path d="M9727.08977,107.07826l5.59885,5.1894c-9.42388,12.15528-19.66665,17.07261-31.27645,17.07261-22.12464,0-36.73926-11.3364-36.73926-33.18897,0-30.32019,20.48687-43.02229,39.60803-43.02229,9.83332,0,18.57435,2.18526,24.44794,4.64392v18.43765h-10.92695c-3.14085-10.37947-10.78958-14.20384-18.71172-14.20384,2.59537-1.50241,6.4204-2.59537,9.42388-3.27822v-.68285c-16.25239,3.82437-19.2572,8.87773-19.2572,27.86286,0,20.62291,6.28303,32.50612,22.67279,31.54986-2.32196,.95626-5.05337,1.63911-7.23929,2.18459v.68285c10.2441-2.458,16.11635-5.46281,22.39939-13.24758Z" style="fill:#0da847;"/><path d="M9759.45318,53.81187v.68285h24.85738v9.56058h-15.02406v47.80292c0,4.64392,3.14085,6.00962,7.37533,6.00962,3.00481,.13604,6.5551-.54681,10.10673-.95626v9.55992c-4.50788,1.63911-12.83814,2.86878-20.35083,2.86878-14.33987,0-21.7152-8.33158-21.7152-16.11635v-49.16862h-9.28784v-8.74103l18.16491-14.61395h15.70691v8.60432c0,3.55163-.13737,4.50722-9.83332,4.50722Z" style="fill:#0da847;"/><path d="M9791.68056,120.73529h19.66665v-.68285c-12.56473,0-12.7021-1.91118-12.7021-10.3788v-37.1507c0-7.37466,6.96588-7.51136,12.7021-10.37947v-.68285c-6.41907,3.27755-14.88669,4.23381-19.80402,4.23381v-7.23862c4.09711-.1367,9.83332-1.77581,18.16491-4.64392h13.52099v10.51684c0,4.37051-3.95974,9.15047-7.23796,14.88669h.68285l6.5551-10.24343c2.73274-3.9604,9.56125-15.1601,23.35564-15.1601,2.86744,0,4.64392,.68285,5.73622,1.3657v22.80883h-8.19421c-.68285-6.28236-16.79921-9.28718-20.89765,2.7314v34.41863c0,2.86744,1.77648,5.59885,10.65355,5.59885v7.5127h-42.20207v-7.5127Z" style="fill:#0da847;"/><path d="M9859.14412,58.45579c4.09711-.1367,9.83332-1.77581,18.16491-4.64392h13.52099v61.32457c0,2.86744,1.77648,5.59885,10.65355,5.59885v7.5127h-42.20207v-7.5127h19.66665v-.68285c-12.56473,0-12.7021,0-12.7021-10.3788v-36.8773c0-7.37533,6.96588-7.51203,12.7021-10.38014v-.68285c-6.41907,3.27822-14.88669,4.23448-19.80402,4.23448v-7.51203Zm7.78477-29.63801c0-7.37466,5.87359-13.11154,13.24891-13.11154s13.38495,5.73688,13.38495,13.11154c0,7.37533-6.00962,12.97551-13.38495,12.97551s-13.24891-5.73622-13.24891-12.97551Z" style="fill:#0da847;"/><path d="M9928.52153,120.73529v-.68285c-10.65221,0-12.29132,0-12.56473-6.2817h-.13604v-49.71543h-8.8784v-9.56058c7.92214,0,8.8784-2.5947,8.8784-6.82851,0-14.75065,11.74584-23.21894,30.18282-23.21894,5.19074,0,9.56125,.68352,15.70691,2.73207v16.5258h-9.69729c-1.22833-4.77996-5.46281-10.92629-9.83332-10.92629-1.91252,0-1.77515,3.96107-1.77515,16.5258,0,4.50722-.54681,4.50722-12.42869,4.50722v.68285h27.04197v9.56058h-14.61328v51.08113c0,2.86744,1.77515,5.59885,10.65221,5.59885h3.96107v7.5127h-46.16314v-7.5127h19.66665Z" style="fill:#0da847;"/><path d="M9965.80227,58.45579c4.09711-.1367,9.83332-1.77581,18.16491-4.64392h13.52099v61.32457c0,2.86744,1.77648,5.59885,10.65355,5.59885v7.5127h-42.20207v-7.5127h19.66665v-.68285c-12.56473,0-12.7021,0-12.7021-10.3788v-36.8773c0-7.37533,6.96588-7.51203,12.7021-10.38014v-.68285c-6.41907,3.27822-14.88669,4.23448-19.80402,4.23448v-7.51203Zm7.78477-29.63801c0-7.37466,5.87359-13.11154,13.24891-13.11154s13.38495,5.73688,13.38495,13.11154c0,7.37533-6.00962,12.97551-13.38495,12.97551s-13.24891-5.73622-13.24891-12.97551Z" style="fill:#0da847;"/><path d="M10050.47715,53.12902c23.62772,0,32.23271,10.24343,32.23271,29.63734v6.96588h-58.18239v.68285h11.60847c0,18.16491,8.19555,27.04331,22.26201,27.04331,6.00962,0,14.0678-4.37051,20.35083-10.38014l5.60018,5.1894c-9.42388,12.15528-19.66798,17.07261-34.00919,17.07261-22.12464,0-39.47066-14.0678-39.47066-35.92037,0-30.32086,20.48687-40.29089,39.60803-40.29089Zm17.48206,28.40834v-.68285h-10.65355c-.27341-12.83814-3.27822-18.84776-11.19903-18.84776,2.59537-1.50241,6.41907-2.59537,9.42388-3.27822v-.68285c-14.0678,3.27822-18.16491,7.51203-19.12117,23.49168h31.54986Zm-14.61462-39.19792h-9.55992l6.5551-19.53061h24.58531l-21.5805,19.53061Z" style="fill:#0da847;"/><path d="M10112.61527,119.9164c0,4.37051-3.8237,9.42388-10.24277,9.42388-6.69247,0-12.01925-4.91733-12.01925-11.74584,0-6.00962,5.32677-11.88188,13.24758-11.88188,14.88669,0,18.71172,12.42869,18.30228,21.7152-.41078,13.79439-8.74103,21.98994-26.7699,26.08705v-8.60499c9.69729-2.32196,20.89631-6.96455,17.48206-24.99342Z" style="fill:#0da847;"/><path d="M10153.31027,81.40066c-.81889-31.54919,17.8915-53.94858,51.35388-53.94858,30.86701,0,50.9431,15.2968,51.76332,47.93962,.81889,31.54919-17.8915,53.67517-51.35388,53.67517-30.86701,0-50.9431-15.02273-51.76332-47.66621Zm56.40724,37.96893c-3.00481,1.22967-8.33158,2.32196-10.92695,2.7314v.68418c24.17453-3.41559,29.91075-16.79921,30.32153-37.15004,.68285-31.41315-16.93658-48.21236-29.09186-48.48577,3.00481-1.229,8.33158-2.32196,10.92695-2.7314v-.68285c-24.17453,3.41426-29.91075,18.57435-30.32153,40.29022-.54548,29.63867,16.93658,45.07218,29.09186,45.34425Zm-27.58879-111.038h44.52403v12.29199h-44.52403V8.33158Z" style="fill:#0da847;"/><path d="M10312.14385,111.44878c-3.68766-5.87359-9.28784-16.11635-11.47243-22.12598l8.60366-5.87292-.40944-.41011c-4.50788,2.86878-9.42388,6.14699-14.61462,9.83466v22.26201c0,2.86744,1.77648,5.59885,10.65355,5.59885v7.5127h-42.20207v-7.5127h19.66665v-.68285c-12.56473,0-12.7021-1.91118-12.7021-10.3788V38.37837c0-7.37466,6.96588-7.51136,12.7021-10.37947v-.68285c-6.41907,3.27755-14.88669,4.23381-19.80402,4.23381v-7.23862c4.09711-.1367,9.83332-1.77581,18.16491-4.64392h13.52099v57.90965c0,3.00415-3.95974,5.32611-10.10673,9.42388h.95626l3.68766-2.32196,32.64215-21.30642h9.97069v-.68285h-14.47724v-8.19488h31.9593v8.19488c-2.59537,0-12.01925,3.41426-28.27164,12.97484,5.87225,11.20036,12.7021,23.08224,19.66665,34.28126,1.91252,3.14218,6.41907,10.65355,13.52232,10.78958v7.5127c-5.05337,.81889-8.05818,1.0923-16.25372,1.0923-9.28651,0-17.07261-4.91733-25.40286-17.8915Z" style="fill:#0da847;"/><path d="M10369.50068,90.4151h11.60847c0,18.16491,8.19555,27.04331,22.26201,27.04331,6.00962,0,14.0678-4.37051,20.35083-10.38014l5.60018,5.1894c-9.42388,12.15528-19.66798,17.07261-34.00919,17.07261-22.12464,0-39.47066-14.0678-39.47066-35.92037,0-30.32086,20.48687-40.29089,39.60803-40.29089,23.62772,0,32.23271,10.24343,32.23271,29.63734v6.96588h-58.18239v.68285Zm43.43173-8.87773v-.68285h-10.65355c-.27341-12.83814-3.27822-18.84776-11.19903-18.84776,2.59537-1.50241,6.41907-2.59537,9.42388-3.27822v-.68285c-14.0678,3.27822-18.16491,7.51203-19.12117,23.49168h31.54986Z" style="fill:#0da847;"/><path d="M10434.77965,109.26285c0-9.55992,4.77996-18.30094,16.5258-21.57916,8.46762-2.458,18.57569-3.8237,30.32153-4.09777h7.10192v-.68285h-7.10192v-3.68766c0-5.19007-3.00481-10.51617-13.52232-10.51617-9.96936,0-16.66184,2.7314-17.61809,8.87773h-10.92695c0-8.87773,4.78129-23.76509,32.09667-23.76509,29.91075,0,33.18897,13.24825,33.18897,25.40353v26.9066c0,6.5551,.95492,9.28784,3.27689,9.28784,.82022,0,2.04855-.68285,3.41426-1.77648l4.23448,5.19074c-1.91252,2.7314-9.28784,10.51617-20.62291,10.51617-8.46762,0-13.38495-5.73622-13.38495-10.24277,0-4.64392,1.77515-6.28303,4.77996-12.29265h-.68285l-4.23314,7.37533c-4.37185,6.41907-10.65355,15.1601-25.26816,15.1601-11.60847,0-21.57916-6.82851-21.57916-20.07742Zm30.5936,4.09711c6.00962,0,11.88188-1.91118,16.25372-15.02273v-6.69247c-10.10806,1.0923-24.3119,3.00481-24.3119,13.93043,0,4.23448,3.27822,7.78477,8.05818,7.78477Z" style="fill:#0da847;"/><path d="M10540.34817,62.14346v-.68285c-6.41907,3.27755-14.88669,4.23381-19.80402,4.23381v-7.23862c4.09711-.1367,9.83332-1.77581,18.16491-4.64392h13.52099v10.51684c0,4.37051-3.95974,9.15047-7.23796,14.88669h.68285l6.5551-10.24343c4.37051-6.41907,10.65355-15.1601,26.63386-15.1601,15.97898,0,23.62772,7.51203,23.62772,27.9989v33.32567c0,2.86744,1.77515,5.59885,10.65355,5.59885v7.5127h-42.2034v-7.5127h19.66798v-.68285c-12.29265,0-12.56606,0-12.7021-9.69595v-24.03849c0-10.24343-1.77515-17.48206-9.97069-17.48206-4.09711,0-9.96936,3.14085-15.70691,12.15528v34.14523c0,2.86744,1.77648,5.59885,10.65355,5.59885v7.5127h-42.20207v-7.5127h19.66665v-.68285c-12.56473,0-12.7021,0-12.7021-10.3788v-37.1507c0-7.37466,6.96588-7.51136,12.7021-10.37947Z" style="fill:#0da847;"/><path d="M10656.16079,53.12902c22.94487,0,37.55948,14.0678,37.55948,35.92037,0,30.32019-21.30709,40.29089-40.29089,40.29089-22.94487,0-37.55948-14.0678-37.55948-35.92037,0-30.32086,21.30576-40.29089,40.29089-40.29089Zm3.14085,67.33419c-2.59403,1.50174-6.41907,2.59403-9.42388,3.27689v.68285c16.25372-3.8237,19.25854-8.87707,19.25854-27.86086,0-21.44379-9.56125-32.37008-18.84909-34.55534,2.59537-1.50241,6.4204-2.59537,9.42521-3.27822v-.68285c-16.25372,3.82437-19.53194,8.87773-19.53194,27.86286,0,21.44313,9.83466,32.36875,19.12117,34.55467Zm-2.04855-78.12377h-9.55992l6.5551-19.53061h24.58398l-21.57916,19.53061Z" style="fill:#0da847;"/><path d="M10742.60815,111.99426c0-5.46281-8.60366-7.92081-17.34469-11.60847-12.01925-5.19074-24.72135-10.51617-24.72135-24.1752,0-13.24758,13.65836-23.08157,32.64215-23.08157,11.3364,0,20.62424,2.32196,27.17934,5.46348v18.0282h-9.55992c-1.63911-8.46829-9.42388-13.11154-16.66317-14.75065-2.32196-.40944-4.64392-.68285-6.5551-.27274,4.23314-1.36637,7.78477-2.18592,10.78958-2.86878v-.68285c-8.05818,1.91252-17.75546,3.68766-17.75546,8.87773,0,6.28303,6.14566,9.15114,19.53061,14.47724,12.29265,4.91733,23.62772,9.97069,23.62772,21.71653,0,14.0678-7.6474,26.22309-35.23619,26.22309-12.15662,0-23.08224-2.7314-27.86219-4.77996v-18.02887h9.55992c4.09711,10.38014,15.70691,15.56954,25.4042,13.52099-4.23448,1.3657-7.7861,2.18592-10.78958,2.86878v.68285c8.05684-1.91252,17.75413-3.68766,17.75413-11.6098Z" style="fill:#0da847;"/><path d="M10787.40025,54.49472c6.69247,0,12.15528,5.19007,12.15528,11.88254s-5.46281,11.88254-12.15528,11.88254-12.01925-5.32677-12.01925-11.88254c0-6.69247,5.32677-11.88254,12.01925-11.88254Zm10.2441,65.42168c0,4.37051-3.82503,9.42388-10.2441,9.42388-6.69247,0-12.01925-4.91733-12.01925-11.74584,0-6.00962,5.32677-11.88188,13.24891-11.88188,14.88669,0,18.71039,12.42869,18.30094,21.7152-.40944,13.79439-8.74103,21.98994-26.76857,26.08705v-8.60499c9.69595-2.32196,20.89631-6.96455,17.48206-24.99342Z" style="fill:#0da847;"/><path d="M10882.04449,86.04458v18.57435c0,13.11154,2.86744,14.0678,18.71172,14.0678v9.56125h-54.22265v-9.56125h22.26201v-.68285c-11.19903,.13737-12.70076,.13737-12.70076-9.01444V47.80225c0-9.15047,1.50174-9.01377,12.70076-9.01377v-.68285h-22.26201v-9.56058h52.31013c24.31057,0,33.46104,12.01858,33.46104,27.31538,0,22.53542-19.53061,30.18416-38.37837,30.18416h-11.88188Zm9.15047-9.56058c6.55644,0,13.79439-1.3657,13.79439-19.53061,0-13.9311-6.00962-18.84776-12.01925-18.84776q-10.92562,0-10.92562,12.97484v24.72068h-10.78958v.68285h19.94005Z" style="fill:#0da847;"/><path d="M10938.58243,120.73529h19.66665v-.68285c-12.56473,0-12.7021-1.91118-12.7021-10.3788v-37.1507c0-7.37466,6.96588-7.51136,12.7021-10.37947v-.68285c-6.41907,3.27755-14.88669,4.23381-19.80402,4.23381v-7.23862c4.09711-.1367,9.83332-1.77581,18.16491-4.64392h13.52099v10.51684c0,4.37051-3.95974,9.15047-7.23796,14.88669h.68285l6.5551-10.24343c2.73274-3.9604,9.56125-15.1601,23.35564-15.1601,2.86744,0,4.64392,.68285,5.73622,1.3657v22.80883h-8.19421c-.68285-6.28236-16.79921-9.28718-20.89765,2.7314v34.41863c0,2.86744,1.77648,5.59885,10.65355,5.59885v7.5127h-42.20207v-7.5127Z" style="fill:#0da847;"/><path d="M11017.6558,90.4151h11.60847c0,18.16491,8.19555,27.04331,22.26201,27.04331,6.00962,0,14.0678-4.37051,20.35083-10.38014l5.60018,5.1894c-9.42388,12.15528-19.66798,17.07261-34.00786,17.07261-22.12598,0-39.472-14.0678-39.472-35.92037,0-30.32086,20.48687-40.29089,39.60803-40.29089,23.62772,0,32.23271,10.24343,32.23271,29.63734v6.96588h-58.18239v.68285Zm43.43173-8.87773v-.68285h-10.65355c-.27341-12.83814-3.27822-18.84776-11.19903-18.84776,2.59537-1.50241,6.41907-2.59537,9.42388-3.27822v-.68285c-14.0678,3.27822-18.16491,7.51203-19.12117,23.49168h31.54986Z" style="fill:#0da847;"/><path d="M11112.43474,129.34028c-17.07261,0-29.5013-13.11154-29.5013-37.55948,0-24.58398,16.66317-37.96893,33.87182-37.96893,10.38014,0,15.84295,1.91252,20.89631,3.55096l9.42388,3.27822v-.68285l-9.42388-3.27822v-18.30161c0-7.37466,6.96588-7.51136,12.7021-10.37947v-.68285c-6.41907,3.27755-14.88669,4.23381-19.80402,4.23381v-7.23862c4.09711-.1367,9.83332-1.77581,18.16491-4.64392h13.52099V106.12201c0,6.5551,.95626,9.28784,3.27822,9.28784,.81889,0,2.04855-.68285,3.41426-1.77648l4.23448,5.19074c-1.91252,2.7314-9.28784,10.51617-20.62424,10.51617-9.83332,0-14.75065-4.37051-14.75065-8.87707,0-4.64392,1.77648-6.28303,4.78129-12.29265h-.68285l-4.23448,7.37533c-3.96107,6.69247-12.01925,13.79439-25.26683,13.79439Zm10.92562-14.34121c3.00481,0,9.97069-2.18459,14.34121-10.38014v-26.08638c-4.37051-13.52099-12.42869-16.38909-17.20865-16.38909-12.01925,0-12.97551,15.97965-12.97551,27.45275,0,15.56954,5.19074,25.40286,15.84295,25.40286Z" style="fill:#0da847;"/><path d="M11177.30293,109.26285c0-9.55992,4.77996-18.30094,16.5258-21.57916,8.46762-2.458,18.57569-3.8237,30.32153-4.09777h7.10192v-.68285h-7.10192v-3.68766c0-5.19007-3.00481-10.51617-13.52232-10.51617-9.96936,0-16.66184,2.7314-17.61809,8.87773h-10.92695c0-8.87773,4.78129-23.76509,32.09667-23.76509,29.91075,0,33.18897,13.24825,33.18897,25.40353v26.9066c0,6.5551,.95492,9.28784,3.27689,9.28784,.82022,0,2.04855-.68285,3.41426-1.77648l4.23448,5.19074c-1.91252,2.7314-9.28784,10.51617-20.62291,10.51617-8.46762,0-13.38495-5.73622-13.38495-10.24277,0-4.64392,1.77515-6.28303,4.77996-12.29265h-.68285l-4.23314,7.37533c-4.37185,6.41907-10.65355,15.1601-25.26816,15.1601-11.60847,0-21.57916-6.82851-21.57916-20.07742Zm30.5936,4.09711c6.00962,0,11.88188-1.91118,16.25372-15.02273v-6.69247c-10.10806,1.0923-24.3119,3.00481-24.3119,13.93043,0,4.23448,3.27822,7.78477,8.05818,7.78477Z" style="fill:#0da847;"/><path d="M11285.74023,53.81187v.68285h24.85738v9.56058h-15.02406v47.80292c0,4.64392,3.14085,6.00962,7.37533,6.00962,3.00481,.13604,6.5551-.54681,10.10673-.95626v9.55992c-4.50788,1.63911-12.83814,2.86878-20.35083,2.86878-14.33987,0-21.7152-8.33158-21.7152-16.11635v-49.16862h-9.28784v-8.74103l18.16491-14.61395h15.70691v8.60432c0,3.55163-.13737,4.50722-9.83332,4.50722Z" style="fill:#0da847;"/><path d="M11315.78168,93.41991c0-30.32086,21.30576-40.29089,40.29089-40.29089,22.94487,0,37.55948,14.0678,37.55948,35.92037,0,30.32019-21.30709,40.29089-40.29089,40.29089-22.94487,0-37.55948-14.0678-37.55948-35.92037Zm43.43173,27.04331c-2.59403,1.50174-6.41907,2.59403-9.42388,3.27689v.68285c16.25372-3.8237,19.25854-8.87707,19.25854-27.86086,0-21.44379-9.56125-32.37008-18.84909-34.55534,2.59537-1.50241,6.4204-2.59537,9.42521-3.27822v-.68285c-16.25372,3.82437-19.53194,8.87773-19.53194,27.86286,0,21.44313,9.83466,32.36875,19.12117,34.55467Z" style="fill:#0da847;"/><path d="M11399.90841,120.73529h19.66665v-.68285c-12.56473,0-12.7021-1.91118-12.7021-10.3788v-37.1507c0-7.37466,6.96588-7.51136,12.7021-10.37947v-.68285c-6.41907,3.27755-14.88669,4.23381-19.80402,4.23381v-7.23862c4.09711-.1367,9.83332-1.77581,18.16491-4.64392h13.52099v10.51684c0,4.37051-3.95974,9.15047-7.23796,14.88669h.68285l6.5551-10.24343c2.73274-3.9604,9.56125-15.1601,23.35564-15.1601,2.86744,0,4.64392,.68285,5.73622,1.3657v22.80883h-8.19421c-.68285-6.28236-16.79921-9.28718-20.89765,2.7314v34.41863c0,2.86744,1.77648,5.59885,10.65355,5.59885v7.5127h-42.20207v-7.5127Z" style="fill:#0da847;"/><path d="M11510.12219,111.99426c0-5.46281-8.60366-7.92081-17.34469-11.60847-12.01925-5.19074-24.72135-10.51617-24.72135-24.1752,0-13.24758,13.65836-23.08157,32.64215-23.08157,11.3364,0,20.62424,2.32196,27.17934,5.46348v18.0282h-9.55992c-1.63911-8.46829-9.42388-13.11154-16.66317-14.75065-2.32196-.40944-4.64392-.68285-6.5551-.27274,4.23314-1.36637,7.78477-2.18592,10.78958-2.86878v-.68285c-8.05818,1.91252-17.75546,3.68766-17.75546,8.87773,0,6.28303,6.14566,9.15114,19.53061,14.47724,12.29265,4.91733,23.62772,9.97069,23.62772,21.71653,0,14.0678-7.6474,26.22309-35.23619,26.22309-12.15662,0-23.08224-2.7314-27.86219-4.77996v-18.02887h9.55992c4.09711,10.38014,15.70691,15.56954,25.4042,13.52099-4.23448,1.3657-7.7861,2.18592-10.78958,2.86878v.68285c8.05684-1.91252,17.75413-3.68766,17.75413-11.6098Z" style="fill:#0da847;"/><path d="M11573.62601,28.54505l-9.15181,70.61108h-8.19421l-9.28784-70.61108h26.63386Zm-25.13079,89.04939c0-6.69247,5.32677-11.88188,12.01925-11.88188s12.15528,5.1894,12.15528,11.88188-5.46281,11.74584-12.15528,11.74584-12.01925-5.1894-12.01925-11.74584Z" style="fill:#0da847;"/></svg>