<?xml version="1.0" encoding="UTF-8"?><svg id="a" xmlns="http://www.w3.org/2000/svg" width="27.88968cm" height="6.97249cm" viewBox="0 0 790.57363 197.64535"><path d="M0,143.2233H11.27314L54.61642,33.60951l12.99132-16.99523h7.05932l46.78742,119.72852c1.71818,4.587,4.01168,6.8805,13.55887,6.8805v8.59091h-49.84283v-8.59091h16.23332l-14.70173-38.00214H39.15278l-10.1225,27.11773c-2.67446,6.87273-4.39264,10.88441-.38095,10.88441h12.02727v8.59091H0v-8.59091Zm83.26574-46.60083l-20.62596-53.46578h-.19436l-20.05064,53.46578h40.87096Z" style="fill:#e9e9e9;"/><path d="M164.11359,61.67574v-.18659c-5.5355,1.91255-8.7775,1.91255-16.03896,1.91255v-7.26146c5.72986-.18659,18.71341-2.48009,25.39955-6.49177h8.59091v27.3121c7.64241-10.89219,19.86405-27.3121,37.24023-27.3121,22.53073,0,29.03028,10.88441,29.03028,35.90301l.18659,46.01773c0,10.69782-.76191,12.61037,15.47141,12.61037v7.63464h-50.03719v-7.63464h17.37618c-1.52382,0-1.90477-3.63073-1.90477-7.83678v-48.49782c0-16.42769-7.64241-21.96319-18.52682-21.96319-11.64632,0-18.9,8.40432-28.83591,25.20519v40.48223c0,10.69782-.76191,12.61037,15.47141,12.61037v7.63464h-50.03719v-7.63464h17.38396c-2.09914,0-1.91255-6.68614-1.91255-12.61037v-59.5766c0-3.24977,0-7.829,1.14286-10.31687Z" style="fill:#e9e9e9;"/><path d="M277.03935,174.5393c0-8.59091,1.91255-17.57055,17.75714-25.20519l-.9485-.19436c-8.40432-1.52382-15.09046-4.57923-15.09046-15.27705,0-7.06709,5.72986-13.74546,20.82032-16.03896,3.242-.57532,7.05932-.95627,10.88441-1.91255-21.7766-.95627-33.99823-10.88441-33.99823-29.21687,0-26.92337,24.06232-37.04587,41.44628-37.04587h47.54933v8.20996h-18.33246c6.11082,5.15455,9.35282,12.60259,9.35282,22.5385,0,12.98355-7.06709,22.14978-15.27705,27.68528l-2.67446,1.71818c-5.72986,3.63073-16.41991,10.69782-35.89523,14.51514-6.11082,1.14286-7.06709,2.86105-7.06709,5.15455,0,3.63073,.95627,4.39264,11.26537,4.77359h34.18482c14.88832,0,24.82423,6.30518,24.82423,24.06232,0,25.7805-24.63764,39.33937-49.08092,39.33937-24.06232,0-39.72032-6.68614-39.72032-23.10605Zm44.30733-67.98092c18.9,0,16.41991-10.31687,16.41991-24.25669,0-19.09437-15.08268-23.487-25.7805-23.487-18.90778,0-16.99523,10.88441-16.99523,26.16146,0,17.37618,15.658,21.58223,26.35582,21.58223Zm-.38095,81.34542c11.26537,0,29.0225-4.77359,29.0225-19.47532,0-19.86405-10.69005-18.71341-29.97878-18.71341h-15.27705c-8.97964,5.5355-8.59868,14.12641-8.59868,21.57446,0,11.07878,8.97964,16.61428,24.83201,16.61428Z" style="fill:#e9e9e9;"/><path d="M389.38202,72.37356c0-3.24977,0-7.44805,1.15064-9.74155v-.18659c-5.54327,1.90477-8.78527,1.90477-16.04673,1.90477v-7.25368c5.72986-.19436,18.71341-2.48009,25.39955-6.49177h8.59091V116.48652c0,14.70173,7.64241,20.62596,16.61428,20.62596,15.47141,0,24.06232-14.51514,26.93114-24.82423v-40.49001c0-3.05541,.18659-6.87273,1.14286-9.16623v-.18659c-5.5355,1.90477-8.78527,1.90477-16.03896,1.90477v-7.25368c5.72986-.19436,18.71341-2.48009,25.39955-6.49177h8.59091v77.90906c0,9.16623,0,13.93982,4.19827,13.93982,5.72986,0,12.79696-6.49177,13.55887-7.05932l4.01168,5.91645c-4.19827,4.19827-13.17791,12.02727-25.7805,12.02727-8.02337,0-15.08268-3.81732-15.08268-14.50736v-10.69782c-3.82509,8.97964-14.89609,25.20519-33.42292,25.20519-18.13809,0-29.21687-6.87273-29.21687-32.83982v-48.12464Z" style="fill:#e9e9e9;"/><path d="M500.5896,144.17957h17.38396c-2.09914,0-1.91255-6.68614-1.91255-12.61037v-59.5766c0-3.24977,0-7.829,1.14286-10.31687v-.18659c-5.5355,1.91255-8.7775,1.91255-16.03896,1.91255v-7.26146c5.72986-.18659,18.71341-2.48009,25.39955-6.49177h8.59091v81.92074c0,10.69782-.76191,12.61037,15.47141,12.61037v7.63464h-50.03719v-7.63464Zm13.55887-124.89084c0-7.06709,5.54327-12.61037,12.61037-12.61037,7.05932,0,12.78918,5.54327,12.78918,12.61037,0,6.87273-5.72986,12.40823-12.78918,12.40823-7.06709,0-12.61037-5.5355-12.61037-12.40823Z" style="fill:#e9e9e9;"/><path d="M576.81935,12.02727v-.18659c-5.5355,1.90477-8.78527,1.90477-16.03896,1.90477V6.49177c5.72986-.19436,18.71341-2.48009,25.39955-6.49177h8.59091V131.5692c0,10.69782-.76191,12.61037,15.46364,12.61037v7.63464h-50.02942v-7.63464h17.37618c-2.09914,0-1.90477-6.68614-1.90477-12.61037V22.34414c0-3.24977,0-7.829,1.14286-10.31687Z" style="fill:#e9e9e9;"/><path d="M639.29587,12.02727v-.18659c-5.5355,1.90477-8.78527,1.90477-16.03896,1.90477V6.49177c5.72986-.19436,18.71341-2.48009,25.39955-6.49177h8.59091V131.5692c0,10.69782-.76191,12.61037,15.46364,12.61037v7.63464h-50.02942v-7.63464h17.37618c-2.09914,0-1.90477-6.68614-1.90477-12.61037V22.34414c0-3.24977,0-7.829,1.14286-10.31687Z" style="fill:#e9e9e9;"/><path d="M749.70267,138.83066v-10.50346c-3.81732,8.97186-12.22164,25.01082-31.51037,25.01082-24.06232,0-30.17314-15.08268-30.17314-28.06623,0-13.37228,6.68614-23.68137,23.11382-28.2606,11.45196-3.24977,26.92337-4.587,38.56969-5.54327v-6.87273c0-10.88441-2.2935-20.245-18.90778-20.245-19.28096,0-25.39178,1.53159-28.44719,16.61428h-7.64241c0-21.00691,8.02337-31.316,41.05755-31.316,25.7805,0,33.03419,13.93982,33.03419,30.93505v47.93028c0,9.16623,0,13.93982,4.20605,13.93982,5.72986,0,12.78918-6.49177,13.55887-7.05932l4.01168,5.91645c-4.20605,4.19827-13.17791,12.02727-25.7805,12.02727-8.02337,0-15.09046-3.81732-15.09046-14.50736Zm-28.45496-.19436c14.13418,.57532,22.34414-11.84068,28.45496-26.73678v-12.78918c-14.70173,1.52382-24.82423,2.86105-31.316,5.5355-10.69782,4.19827-10.88441,11.64632-10.88441,19.28873,0,7.63464,4.57923,14.32077,13.74546,14.70173Z" style="fill:#e9e9e9;"/></svg>