<?xml version="1.0" encoding="utf-8"?>
<!-- Generator: Adobe Illustrator 24.0.1, SVG Export Plug-In . SVG Version: 6.00 Build 0)  -->
<svg version="1.1" id="Layer_1" xmlns="http://www.w3.org/2000/svg" xmlns:xlink="http://www.w3.org/1999/xlink" x="0px" y="0px"
	 viewBox="0 0 10873.3 342.6" style="enable-background:new 0 0 10873.3 342.6;" xml:space="preserve">
<style type="text/css">
	.st0{fill:#FFD864;}
	.st1{fill:#6464FF;}
	.st2{fill:#FF6464;}
</style>
<g>
	<g id="a">
		<g>
			<path class="st0" d="M61.9,38.2c14.1,0,80.8,1.4,108.4-2.3c5.5,6,11.5,23,11.5,38.5c0,29.3-18.7,36.8-36.8,36.8
				c-3.4,0-6.6-0.3-9.8-0.6c-2.3,6.3-3.4,22.4-3.4,37.4c0,22.4,12.9,42.8,31.3,62.1c-3.2,27-26.2,46.8-60.4,46.8
				c-33.3,0-56.6-18.7-60.4-39.7c6.3-10.1,26.2-36.2,26.2-66.4c0-14.1-4.6-33.6-8-41.4c-1.4-0.3-2.9-0.3-4.6-0.3
				c-8,0-19,1.7-27.9,4.6c-7.8-7.8-13.2-18.4-13.2-33.9C15.1,59.4,28.9,38.2,61.9,38.2L61.9,38.2z"/>
			<path class="st0" d="M298.2,256.9c-18.4,0-31-4-40.5-10.1c-11.2,6.6-25,10.1-37.9,10.1c-30.5,0-47.4-14.1-50.3-27.6
				c9.2-15.8,12.9-49.1,12.9-71.6c0-39.7-24.4-83.1-40-90.8c6-32.8,33.9-46.8,54.3-46.8c34.2,0,49.7,16.4,53.5,22.7
				c-4.3,8.3-12.4,20.7-13.8,54.9c9.5-4,21.8-6.6,37.4-6.6c37.9,0,49.7,11.2,49.7,30.2c0,17.5-3.7,30.8-3.7,46.8
				c0,23.6,8.9,37.9,28.2,49.1C347.9,234.2,338.2,256.9,298.2,256.9z"/>
			<path class="st0" d="M468.1,141.9c0,9.8-2,22.1-8.9,31c5.2,2.3,10.6,6.9,14.7,11.5c0,46.3-30.8,72.4-78.2,72.4
				c-48.9,0-71-37.4-71-77.3c0-54,27.9-88.5,82.5-88.5C444.8,91.1,468.1,116.1,468.1,141.9z"/>
			<path class="st0" d="M508.9,256.9c-30.5,0-47.4-14.1-50.3-27.6c9.2-15.8,15.8-30.5,15.8-51.7c0-14.1-10.1-31.9-28.5-39.7
				c8.9-38.5,28.2-46.8,45.7-46.8c14.4,0,25,4,33.6,11.2c9.8-6.9,21.8-11.2,34.8-11.2c29.6,0,49.7,27.3,26.7,74.7
				c-8.9,6.3-18.7,11.2-28.2,11.2c-11.8,0-19.8-5.7-25.6-13.8c0.6,16.7,4.9,39.7,28.5,49.1C558,245.4,532.2,256.9,508.9,256.9z"/>
			<path class="st0" d="M726.2,141.9c0,9.8-2,22.1-8.9,31c5.2,2.3,10.6,6.9,14.7,11.5c0,46.3-30.8,72.4-78.2,72.4
				c-48.9,0-71-37.4-71-77.3c0-54,27.9-88.5,82.5-88.5C702.9,91.1,726.2,116.1,726.2,141.9z"/>
			<path class="st0" d="M804.1,176.1c-4-5.5-11.5-14.4-11.5-32.5c0-25.3,21.6-52.6,75.9-52.6c40.2,0,54.3,17,54.3,39.4
				c0,9.2-2.3,18.1-2.3,27.3c0,23.9,7.8,47.4,24.1,54.6c0,21.8-8.3,44.5-42,44.5c-15.8,0-26.7-4.9-33.9-9.8
				c-8.3,6-17.8,9.8-35.9,9.8c-25,0-44.5-13.5-44.5-41.7C788.2,198,796.6,183.6,804.1,176.1z"/>
			<path class="st0" d="M984.3,256.9c-30.5,0-47.4-14.1-50.3-27.6c9.2-15.8,15.8-30.5,15.8-51.7c0-14.1-10.1-31.9-28.5-39.7
				c8.9-38.5,28.2-46.8,45.7-46.8c14.4,0,25,4,33.6,11.2c9.8-6.9,21.8-11.2,34.8-11.2c29.6,0,49.7,27.3,26.7,74.7
				c-8.9,6.3-18.7,11.2-28.2,11.2c-11.8,0-19.8-5.7-25.6-13.8c0.6,16.7,4.9,39.7,28.5,49.1C1033.4,245.4,1007.5,256.9,984.3,256.9z"
				/>
			<path class="st0" d="M1201.6,141.9c0,9.8-2,22.1-8.9,31c5.2,2.3,10.6,6.9,14.7,11.5c0,46.3-30.8,72.4-78.2,72.4
				c-48.9,0-71-37.4-71-77.3c0-54,27.9-88.5,82.5-88.5C1178.3,91.1,1201.6,116.1,1201.6,141.9z"/>
			<path class="st0" d="M1282.3,91.4c4.9-18.7,18.7-28.5,53.7-35.1c0.9,6.3,1.1,19.5,1.4,35.1c21.6,0,39.4,0.3,48.3-0.3
				c0.9,31-20.1,56.6-40.2,57.2c-2.3,0-4.9,0.3-8,0.3c-0.3,14.4-0.6,26.2-0.6,30.5c8.3,9.8,28.5,19,49.1,23.9
				c-3.4,38.8-38.8,54-70.7,54c-33.6,0-53.2-23-56-39.4c8.3-8,16.7-21.8,19.5-67.3c-14.1,0-24.4-1.1-24.4-4.3
				C1254.4,125.6,1266.8,94.2,1282.3,91.4z"/>
			<path class="st0" d="M1512.2,167.2c0,54-27.9,89.7-82.5,89.7c-48.9,0-71-37.4-71-77.3c0-54,27.9-88.5,82.5-88.5
				C1490.1,91.1,1512.2,127.3,1512.2,167.2z"/>
			<path class="st0" d="M1657.7,167.2c0,54-27.9,89.7-82.5,89.7c-48.9,0-71-37.4-71-77.3c0-54,27.9-88.5,82.5-88.5
				C1635.5,91.1,1657.7,127.3,1657.7,167.2z"/>
			<path class="st0" d="M1757.7,91.1c14.9,0,23,4.6,27.6,9.8c9.8-5.5,24.1-9.8,43.7-9.8c18.7,0,31.3,2.9,38.8,7.8
				c9.5-4.6,23-7.8,40.2-7.8c37.9,0,49.7,11.2,49.7,30.2c0,17.5-3.7,30.8-3.7,46.8c0,23.6,8.9,37.9,28.2,49.1
				c0,17-9.8,39.7-49.7,39.7c-19.3,0-32.2-4.6-42-10.9c-7.8,6.6-19.5,10.9-37.1,10.9c-18.4,0-31-4-40.5-10.1
				c-11.2,6.6-25,10.1-37.9,10.1c-30.5,0-47.4-14.1-50.3-27.6c9.2-15.8,12.9-29.3,12.9-51.7c0-17-7.2-31.9-22.7-39.7
				C1718,105.1,1740.2,91.1,1757.7,91.1z"/>
			<path class="st0" d="M1979.3,176.1c-4-5.5-11.5-14.4-11.5-32.5c0-25.3,21.6-52.6,75.9-52.6c40.2,0,54.3,17,54.3,39.4
				c0,9.2-2.3,18.1-2.3,27.3c0,23.9,7.8,47.4,24.1,54.6c0,21.8-8.3,44.5-42,44.5c-15.8,0-26.7-4.9-33.9-9.8
				c-8.3,6-17.8,9.8-35.9,9.8c-25,0-44.5-13.5-44.5-41.7C1963.5,198,1971.8,183.6,1979.3,176.1z"/>
			<path class="st0" d="M2142.3,91.1c14.9,0,23,4.6,27.6,9.8c9.8-5.5,24.1-9.8,43.7-9.8c37.9,0,49.7,11.2,49.7,30.2
				c0,17.5-3.7,30.8-3.7,46.8c0,23.6,8.9,37.9,28.2,49.1c0,17-9.8,39.7-49.7,39.7c-18.4,0-31-4-40.5-10.1
				c-11.2,6.6-25,10.1-37.9,10.1c-30.5,0-47.4-14.1-50.3-27.6c9.2-15.8,12.9-29.3,12.9-51.7c0-17-7.2-31.9-22.7-39.7
				C2102.6,105.1,2124.7,91.1,2142.3,91.1z"/>
			<path class="st0" d="M2323,326.2c-42,0-60.4-28.7-54.6-69.3c12.6-0.6,24.7-4.6,35.1-10.3c-8-6.6-14.9-16.4-14.7-32.5
				c0-10.1,1.4-25.9,1.4-32.2c0-20.7-18.1-35.1-30.2-40c0-17,9.8-50.9,52.6-50.9c14.4,0,25.6,4,33.1,11.8
				c10.3-6.3,23.6-11.8,38.8-11.8c18.1,0,36.8,10.3,42.5,26.7c-14.1,27-19.8,68.7-27.9,108.1C2388,278.7,2371.9,326.7,2323,326.2z"
				/>
			<path class="st0" d="M2536.6,256.9c-27.6,0-42.8-11.5-48.6-27.9c8.9-13.5,12.9-33.6,12.9-49.1c0-19.8-7.5-34.5-23-42.2
				c2-22.1,14.4-37.9,25.6-43.1c-15.2-4.3-27.9-19-34.5-34.8c6-32.8,29.6-42.5,47.1-42.5c19.5,0,37.1,3.2,45.1,27.9
				c-1.4,24.4-13.8,41.4-25.6,46.8c18.7,3.2,28.5,12.4,31,21.3c-9.2,15.8-12.9,36.8-12.9,52.3c0,19.8,12.9,38.5,28.5,49.1
				C2582.3,238.5,2565.6,256.9,2536.6,256.9z"/>
			<path class="st0" d="M2626.9,256.9c-52,0-61.2-23.9-61.2-42c0-16.4,8.3-25.9,20.1-33.9c-7.8-9.5-17.2-22.7-17.2-41.7
				c0-36.8,40.5-48.3,72.7-48.3c34.8,0,64.1,9.8,55.5,66.4c-3.7,2-8,6.3-16.4,8.9c11.5,8.3,23.6,21.8,23.6,41.7
				C2703.9,242.2,2671.4,256.9,2626.9,256.9z"/>
			<path class="st0" d="M2758.8,256.9c-52,0-61.2-23.9-61.2-42c0-16.4,8.3-25.9,20.1-33.9c-7.8-9.5-17.2-22.7-17.2-41.7
				c0-36.8,40.5-48.3,72.7-48.3c34.8,0,64.1,9.8,55.5,66.4c-3.7,2-8,6.3-16.4,8.9c11.5,8.3,23.6,21.8,23.6,41.7
				C2835.8,242.2,2803.3,256.9,2758.8,256.9z"/>
			<path class="st0" d="M2960.8,256.9c-12.1,0-29.6-3.4-38.5-10.1c-8.9,5.7-21,10.1-38.5,10.1c-35.1,0-49.7-14.1-49.7-33.1
				c0-14.7,9.8-24.1,9.8-46c0-13.8-12.1-29.9-28.5-38.2c0-17,14.4-48.6,49.7-48.6c22.1,0,34.5,7.2,42.2,16.1
				c10.9-10.1,23.3-16.1,39.7-16.1c15.8,0,35.4,8.6,44,22.1c-9.2,15.8-12.9,36.8-12.9,52.3c0,19.8,12.9,32.8,28.5,43.4
				C3006.5,232.8,2989.9,256.9,2960.8,256.9z"/>
			<path class="st0" d="M3131.8,141.9c0,9.8-2,22.1-8.9,31c5.2,2.3,10.6,6.9,14.7,11.5c0,46.3-30.8,72.4-78.2,72.4
				c-48.9,0-71-37.4-71-77.3c0-54,27.9-88.5,82.5-88.5C3108.6,91.1,3131.8,116.1,3131.8,141.9z"/>
			<path class="st0" d="M3182.4,256.9c-52,0-61.2-23.9-61.2-42c0-16.4,8.3-25.9,20.1-33.9c-7.8-9.5-17.2-22.7-17.2-41.7
				c0-36.8,40.5-48.3,72.7-48.3c34.8,0,64.1,9.8,55.5,66.4c-3.7,2-8,6.3-16.4,8.9c11.5,8.3,23.6,21.8,23.6,41.7
				C3259.5,242.2,3227,256.9,3182.4,256.9z"/>
			<path class="st0" d="M3488,257.5l-3.7,0.3c-34.8-5.7-45.1-9.5-50.6-11.8l-0.9-0.6c-6.6,5.7-13.8,9.5-21.8,12.1l-3.7,0.3
				c-34.8-5.7-45.1-9.5-50.6-11.8c-11.8-5.2-20.1-20.1-19.8-31.9c0.3-10.1,1.4-25.9,1.4-32.2c0-20.7-18.1-35.1-30.2-40
				c0-17,9.8-50.9,52.6-50.9c14.4,0,25.6,4,33.1,11.8c10.6-6.6,19.8-11.8,38.8-11.8c19.3,0,30.8,4,38.2,11.8
				c10.3-6.3,23.6-11.8,38.8-11.8c18.1,0,36.8,10.3,42.5,26.7c-9.5,15.8-18.7,40.8-18.7,59.2C3533.4,229,3513.5,248.9,3488,257.5z"
				/>
			<path class="st0" d="M3590.3,256.9c-27.6,0-42.8-11.5-48.6-27.9c8.9-13.5,12.9-33.6,12.9-49.1c0-19.8-7.5-34.5-23-42.2
				c2-22.1,14.4-37.9,25.6-43.1c-15.2-4.3-27.9-19-34.5-34.8c6-32.8,29.6-42.5,47.1-42.5c19.5,0,37.1,3.2,45.1,27.9
				c-1.4,24.4-13.8,41.4-25.6,46.8c18.7,3.2,28.5,12.4,31,21.3c-9.2,15.8-12.9,36.8-12.9,52.3c0,19.8,12.9,38.5,28.5,49.1
				C3636,238.5,3619.3,256.9,3590.3,256.9z"/>
			<path class="st0" d="M3638.8,91.4c4.9-18.7,18.7-28.5,53.7-35.1c0.9,6.3,1.1,19.5,1.4,35.1c21.6,0,39.4,0.3,48.3-0.3
				c0.9,31-20.1,56.6-40.2,57.2c-2.3,0-4.9,0.3-8,0.3c-0.3,14.4-0.6,26.2-0.6,30.5c8.3,9.8,28.5,19,49.1,23.9
				c-3.4,38.8-38.8,54-70.7,54c-33.6,0-53.2-23-56-39.4c8.3-8,16.7-21.8,19.5-67.3c-14.1,0-24.4-1.1-24.4-4.3
				C3611,125.6,3623.3,94.2,3638.8,91.4z"/>
			<path class="st0" d="M3847.2,256.9c-18.4,0-31-4-40.5-10.1c-11.2,6.6-25,10.1-37.9,10.1c-30.5,0-47.4-14.1-50.3-27.6
				c9.2-15.8,12.9-49.1,12.9-71.6c0-39.7-24.4-83.1-40-90.8c6-32.8,33.9-46.8,54.3-46.8c34.2,0,49.7,16.4,53.5,22.7
				c-4.3,8.3-12.4,20.7-13.8,54.9c9.5-4,21.8-6.6,37.4-6.6c37.9,0,49.7,11.2,49.7,30.2c0,17.5-3.7,30.8-3.7,46.8
				c0,23.6,8.9,37.9,28.2,49.1C3896.9,234.2,3887.2,256.9,3847.2,256.9z"/>
			<path class="st0" d="M3966.5,91.4c4.9-18.7,18.7-28.5,53.7-35.1c0.9,6.3,1.2,19.5,1.4,35.1c21.6,0,39.4,0.3,48.3-0.3
				c0.9,31-20.1,56.6-40.2,57.2c-2.3,0-4.9,0.3-8,0.3c-0.3,14.4-0.6,26.2-0.6,30.5c8.3,9.8,28.5,19,49.1,23.9
				c-3.4,38.8-38.8,54-70.7,54c-33.6,0-53.2-23-56-39.4c8.3-8,16.7-21.8,19.5-67.3c-14.1,0-24.4-1.1-24.4-4.3
				C3938.6,125.6,3951,94.2,3966.5,91.4z"/>
			<path class="st0" d="M4174.9,256.9c-18.4,0-31-4-40.5-10.1c-11.2,6.6-25,10.1-37.9,10.1c-30.5,0-47.4-14.1-50.3-27.6
				c9.2-15.8,12.9-49.1,12.9-71.6c0-39.7-24.4-83.1-40-90.8c6-32.8,33.9-46.8,54.3-46.8c34.2,0,49.7,16.4,53.5,22.7
				c-4.3,8.3-12.4,20.7-13.8,54.9c9.5-4,21.8-6.6,37.4-6.6c37.9,0,49.7,11.2,49.7,30.2c0,17.5-3.7,30.8-3.7,46.8
				c0,23.6,8.9,37.9,28.2,49.1C4224.6,234.2,4214.8,256.9,4174.9,256.9z"/>
			<path class="st0" d="M4255.4,256.9c-27.6,0-42.8-11.5-48.6-27.9c8.9-13.5,12.9-33.6,12.9-49.1c0-19.8-7.5-34.5-23-42.2
				c2-22.1,14.4-37.9,25.6-43.1c-15.2-4.3-27.9-19-34.5-34.8c6-32.8,29.6-42.5,47.1-42.5c19.5,0,37.1,3.2,45.1,27.9
				c-1.4,24.4-13.8,41.4-25.6,46.8c18.7,3.2,28.5,12.4,31,21.3c-9.2,15.8-12.9,36.8-12.9,52.3c0,19.8,12.9,38.5,28.5,49.1
				C4301.1,238.5,4284.4,256.9,4255.4,256.9z"/>
			<path class="st0" d="M4345.6,256.9c-52,0-61.2-23.9-61.2-42c0-16.4,8.3-25.9,20.1-33.9c-7.8-9.5-17.2-22.7-17.2-41.7
				c0-36.8,40.5-48.3,72.7-48.3c34.8,0,64.1,9.8,55.5,66.4c-3.7,2-8,6.3-16.4,8.9c11.5,8.3,23.6,21.8,23.6,41.7
				C4422.6,242.2,4390.2,256.9,4345.6,256.9z"/>
			<path class="st0" d="M4556.6,256.9c-36.5,0-67.5-17.2-73.3-33.6c6.3-15.8,12.6-37.7,12.6-76.5c0-45.7-18.7-71.6-31.3-82.2
				c3.2-35.6,28.2-52.6,54-52.6c25,0,42,14.4,50.6,36.5c-8,6.6-13.8,22.7-16.7,46.6c10.3-2.3,21.8-4,28.7-4
				c35.1,0,63.2,32.2,63.2,83.6C4644.5,214.4,4622.7,256.9,4556.6,256.9z"/>
			<path class="st0" d="M4656,176.1c-4-5.5-11.5-14.4-11.5-32.5c0-25.3,21.6-52.6,75.9-52.6c40.2,0,54.3,17,54.3,39.4
				c0,9.2-2.3,18.1-2.3,27.3c0,23.9,7.8,47.4,24.1,54.6c0,21.8-8.3,44.5-42,44.5c-15.8,0-26.7-4.9-33.9-9.8
				c-8.3,6-17.8,9.8-35.9,9.8c-25,0-44.5-13.5-44.5-41.7C4640.2,198,4648.5,183.6,4656,176.1z"/>
			<path class="st0" d="M4819,91.1c14.9,0,23,4.6,27.6,9.8c9.8-5.5,24.1-9.8,43.7-9.8c37.9,0,49.7,11.2,49.7,30.2
				c0,17.5-3.7,30.8-3.7,46.8c0,23.6,8.9,37.9,28.2,49.1c0,17-9.8,39.7-49.7,39.7c-18.4,0-31-4-40.5-10.1
				c-11.2,6.6-25,10.1-37.9,10.1c-30.5,0-47.4-14.1-50.3-27.6c9.2-15.8,12.9-29.3,12.9-51.7c0-17-7.2-31.9-22.7-39.7
				C4779.3,105.1,4801.4,91.1,4819,91.1z"/>
			<path class="st0" d="M4979.4,91.1c14.9,0,23,4.6,27.6,9.8c9.8-5.5,24.1-9.8,43.7-9.8c37.9,0,49.7,11.2,49.7,30.2
				c0,17.5-3.7,30.8-3.7,46.8c0,23.6,8.9,37.9,28.2,49.1c0,17-9.8,39.7-49.7,39.7c-18.4,0-31-4-40.5-10.1
				c-11.2,6.6-25,10.1-37.9,10.1c-30.5,0-47.4-14.1-50.3-27.6c9.2-15.8,12.9-29.3,12.9-51.7c0-17-7.2-31.9-22.7-39.7
				C4939.7,105.1,4961.8,91.1,4979.4,91.1z"/>
			<path class="st0" d="M5247.5,141.9c0,9.8-2,22.1-8.9,31c5.2,2.3,10.6,6.9,14.7,11.5c0,46.3-30.8,72.4-78.2,72.4
				c-48.9,0-71-37.4-71-77.3c0-54,27.9-88.5,82.5-88.5C5224.2,91.1,5247.5,116.1,5247.5,141.9z"/>
			<path class="st0" d="M5288.3,256.9c-30.5,0-47.4-14.1-50.3-27.6c9.2-15.8,15.8-30.5,15.8-51.7c0-14.1-10.1-31.9-28.5-39.7
				c8.9-38.5,28.2-46.8,45.7-46.8c14.4,0,25,4,33.6,11.2c9.8-6.9,21.8-11.2,34.8-11.2c29.6,0,49.7,27.3,26.7,74.7
				c-8.9,6.3-18.7,11.2-28.2,11.2c-11.8,0-19.8-5.7-25.6-13.8c0.6,16.7,4.9,39.7,28.5,49.1C5337.5,245.4,5311.6,256.9,5288.3,256.9z
				"/>
		</g>
		<g>
			<path class="st1" d="M160.8,54.3c2.9,4.6,5.2,12.1,5.2,18.1c0,15.5-10.6,23-29,23.3c-33.6,0-74.7-4.3-99.2,3.2h-2.3
				c-0.9-2.6-3.4-7.5-3.4-16.1c0-11.5,4.9-27,30.5-27c31.3,0,89.1,4.3,96.6-1.4C159,54.3,160.8,54.3,160.8,54.3z M145.8,215.5v1.1
				c-3.2,15.5-21,29.6-45.7,29.6c-17.2,0-33.9-6.9-41.1-24.1v-1.7c11.2-4.9,25.3-17,33.6-33.1h2.6
				C109.6,202,129.7,212.6,145.8,215.5z"/>
			<path class="st1" d="M163.4,58.6c2-12.4,16.4-33.6,38.5-33.6c14.7,0,24.7,7.5,27.6,15.5v1.7c-10.9,13.8-18.1,33.1-23,47.4h-2.6
				c-10.1-14.1-20.4-21.8-40-30.2C163.9,59.4,163.4,58.6,163.4,58.6z M258.5,215.5v1.1c-3.2,15.5-23.9,29.6-42.8,29.6
				c-14.7,0-31.6-10.1-35.6-22.7c11.5-12.9,19.8-22.7,25.6-36.2h2.6C222.6,203.2,242.4,212.1,258.5,215.5z M272.6,101.7
				c22.4,0,33.9,7.8,37.1,15.8v2.6c-11.5,12.1-19.3,28.2-23.6,40.5h-2.6c-15.2-19.5-30.8-33.6-58.1-41.4
				C232.9,110.3,253.9,101.7,272.6,101.7z M334.7,215.5v1.1c-3.2,15.5-23.9,29.6-42.8,29.6c-14.7,0-29-10.1-33.1-22.7
				c11.5-10.3,19.8-22.7,25.6-36.2h2.6C301.3,202,318.6,212.6,334.7,215.5z"/>
			<path class="st1" d="M447.6,201.7h2.6c-1.4,22.1-15.2,44.5-54.3,44.5c-25,0-50-15.2-50-42.5c0-7.8,1.7-16.4,4.3-25.9h2.6
				c8.6,15.2,38.2,37.9,66.7,37.9C423.5,215.8,432.7,212.6,447.6,201.7z M349.3,146.2h-2.6c1.4-22.1,21-44.5,57.2-44.5
				c25,0,41.4,18.1,41.4,36.8c0,16.4-12.9,25-29.9,30.2l-2-1.7c0.6-2.3,0.9-4.6,0.9-6.9c0-16.7-17.2-27.9-39.7-27.9
				C370.6,132.2,364.3,132.5,349.3,146.2z"/>
			<path class="st1" d="M457.4,135.3c2-12.4,13.5-33.6,35.6-33.6c14.7,0,24.7,7.5,27.6,15.2c7.5-7.8,21.3-15.2,33.6-15.2
				c15.5,0,25.3,8.6,25.3,20.1c0,11.8-11.5,27.9-23.3,39.1h-2.6c-5.2-20.4-19.3-34.8-33.6-41.4c-10.6,13.5-17.5,27-22.4,41.1H495
				c-10.1-11.2-17.5-16.1-37.1-24.4L457.4,135.3z M552.2,215.5v1.1c-3.2,15.5-23.9,29.6-44.3,29.6c-13.2,0-33.3-10.1-37.4-22.7
				c11.5-10.3,19.8-22.7,25.6-36.2h2.6C513.1,202,536.1,212.6,552.2,215.5z"/>
			<path class="st1" d="M705.7,201.7h2.6c-1.4,22.1-15.2,44.5-54.3,44.5c-25,0-50-15.2-50-42.5c0-7.8,1.7-16.4,4.3-25.9h2.6
				c8.6,15.2,38.2,37.9,66.7,37.9C681.6,215.8,690.8,212.6,705.7,201.7z M607.4,146.2h-2.6c1.4-22.1,21-44.5,57.2-44.5
				c25,0,41.4,18.1,41.4,36.8c0,16.4-12.9,25-29.9,30.2l-2-1.7c0.6-2.3,0.9-4.6,0.9-6.9c0-16.7-17.2-27.9-39.7-27.9
				C628.7,132.2,622.4,132.5,607.4,146.2z"/>
			<path class="st1" d="M937.9,215.5v1.1c-3.2,15.5-21.6,29.6-40.5,29.6c-12.6,0-25-8-30.8-16.7c-8,9.8-22.1,17.2-38.8,17.2
				c-16.7,0-31.6-10.6-31.6-27.9c0-9.8,8-25,23.9-31.6l2.3,1.7c7.8,16.1,19.8,29.6,44,35.9c9.2-9.8,17.2-21.8,21.3-37.7h2.6
				C904.6,202,921.8,212.6,937.9,215.5z M900.3,125.8c0,7.5-5.7,22.4-11.5,34.8h-2.6c-4.3-17-10.6-26.7-20.4-26.7
				c-14.4,0-39.4,4.9-59.2,23.9H804c-1.4-4-2-8-2-11.8c0-23.9,23.9-44.3,56-44.3C878.4,101.7,900.3,108.9,900.3,125.8z"/>
			<path class="st1" d="M932.8,135.3c2-12.4,13.5-33.6,35.6-33.6c14.7,0,24.7,7.5,27.6,15.2c7.5-7.8,21.3-15.2,33.6-15.2
				c15.5,0,25.3,8.6,25.3,20.1c0,11.8-11.5,27.9-23.3,39.1h-2.6c-5.2-20.4-19.3-34.8-33.6-41.4c-10.6,13.5-17.5,27-22.4,41.1h-2.6
				c-10.1-11.2-17.5-16.1-37.1-24.4L932.8,135.3z M1027.6,215.5v1.1c-3.2,15.5-23.9,29.6-44.3,29.6c-13.2,0-33.3-10.1-37.4-22.7
				c11.5-10.3,19.8-22.7,25.6-36.2h2.6C988.5,202,1011.5,212.6,1027.6,215.5z"/>
			<path class="st1" d="M1181.1,201.7h2.6c-1.4,22.1-15.2,44.5-54.3,44.5c-25,0-50-15.2-50-42.5c0-7.8,1.7-16.4,4.3-25.9h2.6
				c8.6,15.2,38.2,37.9,66.7,37.9C1157,215.8,1166.2,212.6,1181.1,201.7z M1082.8,146.2h-2.6c1.4-22.1,21-44.5,57.2-44.5
				c25,0,41.4,18.1,41.4,36.8c0,16.4-12.9,25-29.9,30.2l-2-1.7c0.6-2.3,0.9-4.6,0.9-6.9c0-16.7-17.2-27.9-39.7-27.9
				C1104.1,132.2,1097.7,132.5,1082.8,146.2z"/>
			<path class="st1" d="M1268.2,135c4.9-11.8,35.9-48.6,54-62.9h1.7v32.2c24.7,0.3,35.6,0.3,39.4-0.3c0,20.7-14.4,31-33.9,31
				c-5.5,0-1.4-0.3-12.1,0c-5.2,8.3-9.2,17-12.1,25.6h-2.6c-10.1-11.2-14.1-16.4-33.9-24.7L1268.2,135z M1368.8,210.9l0.9,0.9
				c-5.5,21.3-26.7,34.5-50,34.5c-17.2,0-37.7-11.8-41.1-22.7c11.5-12.9,19.8-25.3,25.6-38.8h2.6
				C1326,203.7,1344.6,206.9,1368.8,210.9z"/>
			<path class="st1" d="M1485.2,201.7h2.6c-1.4,25-18.1,44.5-57.2,44.5c-25,0-50-15.2-50-42.5c0-7.8,1.7-16.4,4.3-25.9h2.6
				c8.6,15.2,42,37.9,70.4,37.9C1464.2,215.8,1471.1,211.8,1485.2,201.7z M1384.6,146.2h-2.6c1.4-25,18.1-44.5,57.2-44.5
				c25,0,50,15.2,50,42.5c0,7.8-1.7,16.4-4.3,25.9h-2.6c-8.6-15.2-42-37.9-70.4-37.9C1405.6,132.2,1398.7,136.2,1384.6,146.2z"/>
			<path class="st1" d="M1630.6,201.7h2.6c-1.4,25-18.1,44.5-57.2,44.5c-25,0-50-15.2-50-42.5c0-7.8,1.7-16.4,4.3-25.9h2.6
				c8.6,15.2,42,37.9,70.4,37.9C1609.6,215.8,1616.5,211.8,1630.6,201.7z M1530,146.2h-2.6c1.4-25,18.1-44.5,57.2-44.5
				c25,0,50,15.2,50,42.5c0,7.8-1.7,16.4-4.3,25.9h-2.6c-8.6-15.2-42-37.9-70.4-37.9C1551,132.2,1544.1,136.2,1530,146.2z"/>
			<path class="st1" d="M1723.5,135.3c2-12.4,13.5-33.6,35.6-33.6c13.5,0,23.3,6.3,26.7,13.8c9.5-7.5,27.3-13.8,43.4-13.8
				c20.7,0,32.2,6.6,36.2,14.1c9.5-7.8,27.3-14.1,43.4-14.1c22.4,0,33.9,7.8,37.1,15.8v2.6c-11.5,12.1-19.3,28.2-23.6,40.5h-2.6
				c-14.4-18.4-29-32.2-53.7-40.2c-11.5,12.1-19,27.9-23.3,40.2h-2.6c-14.7-18.7-29.3-32.5-54.6-40.2
				c-10.3,13.2-17.2,26.4-21.8,40.2h-2.6c-10.1-11.2-17.5-16.1-37.1-24.4L1723.5,135.3z M1815.7,215.5v1.1
				c-3.2,15.5-23.9,29.6-42.8,29.6c-14.7,0-31.6-10.1-35.6-22.7c11.5-12.9,19.8-22.7,25.6-36.2h2.6
				C1779.8,203.2,1799.6,212.1,1815.7,215.5z M1894.5,215.5v1.1c-3.2,15.5-23.9,29.6-42.8,29.6c-14.7,0-31.6-10.1-35.6-22.7
				c11.5-12.9,19.8-22.7,25.6-36.2h2.6C1858.5,203.2,1878.4,212.1,1894.5,215.5z M1971.2,215.5v1.1c-3.2,15.5-23.9,29.6-42.8,29.6
				c-14.7,0-29-10.1-33.1-22.7c11.5-10.3,19.8-22.7,25.6-36.2h2.6C1937.9,202,1955.1,212.6,1971.2,215.5z"/>
			<path class="st1" d="M2113.2,215.5v1.1c-3.2,15.5-21.6,29.6-40.5,29.6c-12.6,0-25-8-30.8-16.7c-8,9.8-22.1,17.2-38.8,17.2
				c-16.7,0-31.6-10.6-31.6-27.9c0-9.8,8-25,23.9-31.6l2.3,1.7c7.8,16.1,19.8,29.6,44,35.9c9.2-9.8,17.2-21.8,21.3-37.7h2.6
				C2079.8,202,2097.1,212.6,2113.2,215.5z M2075.5,125.8c0,7.5-5.7,22.4-11.5,34.8h-2.6c-4.3-17-10.6-26.7-20.4-26.7
				c-14.4,0-39.4,4.9-59.2,23.9h-2.6c-1.4-4-2-8-2-11.8c0-23.9,23.9-44.3,56-44.3C2053.7,101.7,2075.5,108.9,2075.5,125.8z"/>
			<path class="st1" d="M2108,135.3c2-12.4,13.5-33.6,35.6-33.6c13.5,0,23.3,6.3,26.7,13.8c9.5-7.5,27.3-13.8,43.4-13.8
				c22.4,0,33.9,7.8,37.1,15.8v2.6c-11.5,12.1-19.3,28.2-23.6,40.5h-2.6c-14.7-18.7-29.3-32.5-54.6-40.2
				c-10.3,13.2-17.2,26.4-21.8,40.2h-2.6c-10.1-11.2-17.5-16.1-37.1-24.4L2108,135.3z M2199.7,215.5v1.1
				c-3.2,15.5-23.9,29.6-42.8,29.6c-14.7,0-31.6-10.1-35.6-22.7c11.5-12.9,19.8-22.7,25.6-36.2h2.6
				C2163.8,203.2,2183.6,212.1,2199.7,215.5z M2275.9,215.5v1.1c-3.2,15.5-23.9,29.6-42.8,29.6c-14.7,0-29-10.1-33.1-22.7
				c11.5-10.3,19.8-22.7,25.6-36.2h2.6C2242.5,202,2259.8,212.6,2275.9,215.5z"/>
			<path class="st1" d="M2270.7,135c2-12.4,13.5-33.6,35.6-33.6c14.7,0,24.7,7.5,27.6,15.5v1.7c-10.9,13.8-18.1,27.3-23,41.7h-2.6
				c-10.1-11.2-17.2-16.1-37.1-24.4L2270.7,135z M2285.9,275.9c15.8,4,55.5,0.3,72.4-12.6l2.3,1.4c5.5,26.7-12.6,53.5-40.5,53.5
				c-17.8,0-38.2-15.5-36.5-40.8L2285.9,275.9z M2389.7,183.9c2.3,17.2-22.7,61.8-32.2,61.8c-13.5-3.4-51.2-14.4-51.2-21
				c0-5.7,2-25.3,7.8-40.8h3.4c6.6,8,21,19.5,43.1,27.6c10.3-5.2,21.8-16.1,25.3-27.6H2389.7z M2350.6,135
				c2-12.4,13.5-33.6,35.6-33.6c14.7,0,24.7,7.5,27.6,15.5v1.7c-10.9,13.8-18.1,27.3-23,41.7h-2.6c-10.1-11.2-17.2-16.1-37.1-24.4
				L2350.6,135z"/>
			<path class="st1" d="M2484,59.2c2.6-12.1,17.2-33.9,39.1-33.9c14.7,0,24.1,8.6,24.1,19.5c0,13.8-10.9,27.6-22.4,33.9h-1.1
				c-12.9-5.5-28.5-10.6-39.7-19C2484,59.7,2484,59.2,2484,59.2z M2486,135.3c2-12.4,13.5-33.6,35.6-33.6c14.7,0,24.7,7.5,27.6,15.5
				v1.7c-10.9,13.8-18.1,27.3-23,41.7h-2.6c-10.1-11.2-17.5-16.1-37.1-24.4L2486,135.3z M2575.1,215.5v1.1
				c-3.2,15.5-23.9,29.6-42.8,29.6c-14.7,0-29-10.1-33.1-22.7c11.5-10.3,19.8-22.7,25.6-36.2h2.6
				C2541.7,202,2559,212.6,2575.1,215.5z"/>
			<path class="st1" d="M2666.8,183.3c12.4,8.6,19.8,18.1,19.8,31.9c0,23.6-35.6,31-55.8,31c-18.7,0-52-4.9-52-25.9
				c0-8.6,4.3-20.1,9.5-25.3h2.6c18.7,14.7,57.5,18.4,66.1,18.4c7.5,0,9.8-18.1,7.2-27.6L2666.8,183.3z M2603.2,164.6
				c-12.4-8.6-19.8-18.1-19.8-31.9c0-23.6,35.6-31,55.8-31c15.8,0,46.3,4.9,46.3,25.9c0,8.6-4,19.3-9.5,24.4h-2.6
				c-18.7-14.7-51.7-17.5-60.4-17.5c-7.5,0-9.8,18.1-7.2,27.6L2603.2,164.6z"/>
			<path class="st1" d="M2798.7,183.3c12.4,8.6,19.8,18.1,19.8,31.9c0,23.6-35.6,31-55.8,31c-18.7,0-52-4.9-52-25.9
				c0-8.6,4.3-20.1,9.5-25.3h2.6c18.7,14.7,57.5,18.4,66.1,18.4c7.5,0,9.8-18.1,7.2-27.6L2798.7,183.3z M2735.2,164.6
				c-12.4-8.6-19.8-18.1-19.8-31.9c0-23.6,35.6-31,55.8-31c15.8,0,46.3,4.9,46.3,25.9c0,8.6-4,19.3-9.5,24.4h-2.6
				c-18.7-14.7-51.7-17.5-60.4-17.5c-7.5,0-9.8,18.1-7.2,27.6L2735.2,164.6z"/>
			<path class="st1" d="M2829.4,135.3c2-12.4,13.5-33.6,35.6-33.6c14.7,0,24.7,7.5,27.6,15.5v1.7c-10.9,13.8-18.1,27.3-23,41.7h-2.6
				c-10.1-11.2-17.5-16.1-37.1-24.4L2829.4,135.3z M2998.1,215.5v1.1c-3.2,15.5-22.7,29.6-40.8,29.6c-13.5,0-25-8-30.5-17
				c-9.2,10.1-27.9,17.5-44.5,17.5c-22.4,0-33.9-11.2-37.1-19.3V225c11.5-12.1,19.3-25.3,23.6-37.7h2.6
				c14.7,17.8,29.6,28.7,55.2,37.7c9.5-9.8,17.2-21.8,21.3-37.7h2.6C2964.8,202,2982.1,212.6,2998.1,215.5z M2908.2,135.3
				c2-12.4,13.5-33.6,35.6-33.6c14.7,0,24.7,7.5,27.6,15.5v1.7c-10.9,13.8-18.1,27.3-23,41.7h-2.6c-10.1-11.2-17.5-16.1-37.1-24.4
				L2908.2,135.3z"/>
			<path class="st1" d="M3111.4,201.7h2.6c-1.4,22.1-15.2,44.5-54.3,44.5c-25,0-50-15.2-50-42.5c0-7.8,1.7-16.4,4.3-25.9h2.6
				c8.6,15.2,38.2,37.9,66.7,37.9C3087.2,215.8,3096.4,212.6,3111.4,201.7z M3013.1,146.2h-2.6c1.4-22.1,21-44.5,57.2-44.5
				c25,0,41.4,18.1,41.4,36.8c0,16.4-12.9,25-29.9,30.2l-2-1.7c0.6-2.3,0.9-4.6,0.9-6.9c0-16.7-17.2-27.9-39.7-27.9
				C3034.4,132.2,3028,132.5,3013.1,146.2z"/>
			<path class="st1" d="M3222.3,183.3c12.4,8.6,19.8,18.1,19.8,31.9c0,23.6-35.6,31-55.8,31c-18.7,0-52-4.9-52-25.9
				c0-8.6,4.3-20.1,9.5-25.3h2.6c18.7,14.7,57.5,18.4,66.1,18.4c7.5,0,9.8-18.1,7.2-27.6L3222.3,183.3z M3158.8,164.6
				c-12.4-8.6-19.8-18.1-19.8-31.9c0-23.6,35.6-31,55.8-31c15.8,0,46.3,4.9,46.3,25.9c0,8.6-4,19.3-9.5,24.4h-2.6
				c-18.7-14.7-51.7-17.5-60.4-17.5c-7.5,0-9.8,18.1-7.2,27.6L3158.8,164.6z"/>
			<path class="st1" d="M3318.6,135c2-12.4,13.5-33.6,35.6-33.6c14.7,0,24.7,7.5,27.6,15.5v1.7c-10.9,13.8-18.1,27.3-23,41.7h-2.6
				c-10.1-11.2-17.2-16.1-37.1-24.4L3318.6,135z M3514.6,183.9c2.3,17.2-22.7,61.8-32.2,61.8c-13.5-3.4-51.2-14.4-51.2-21
				c0-2.6,0.3-7.5,1.1-13.8c-8.3,17.2-21,34.8-27,34.8c-13.5-3.4-51.2-14.4-51.2-21c0-5.7,2-25.3,7.8-40.8h3.4
				c6.6,8,21,19.5,43.1,27.6c10.3-5.2,24.1-16.1,27.6-27.6h3.4c6.6,8,23.9,19.5,46,27.6c10.3-5.2,21.8-16.1,25.3-27.6H3514.6z
				 M3392.8,135c2-12.4,13.5-33.6,35.6-33.6c14.7,0,24.7,7.5,27.6,15.5v1.7c-10.9,13.8-18.1,27.3-23,41.7h-2.6
				c-10.1-11.2-17.2-16.1-37.1-24.4L3392.8,135z M3473.2,135c2-12.4,13.5-33.6,35.6-33.6c14.7,0,24.7,7.5,27.6,15.5v1.7
				c-10.9,13.8-18.1,27.3-23,41.7h-2.6c-10.1-11.2-17.2-16.1-37.1-24.4L3473.2,135z"/>
			<path class="st1" d="M3537.6,59.2c2.6-12.1,17.2-33.9,39.1-33.9c14.7,0,24.1,8.6,24.1,19.5c0,13.8-10.9,27.6-22.4,33.9h-1.1
				c-12.9-5.5-28.5-10.6-39.7-19C3537.6,59.7,3537.6,59.2,3537.6,59.2z M3539.6,135.3c2-12.4,13.5-33.6,35.6-33.6
				c14.7,0,24.7,7.5,27.6,15.5v1.7c-10.9,13.8-18.1,27.3-23,41.7h-2.6c-10.1-11.2-17.5-16.1-37.1-24.4L3539.6,135.3z M3628.7,215.5
				v1.1c-3.2,15.5-23.9,29.6-42.8,29.6c-14.7,0-29-10.1-33.1-22.7c11.5-10.3,19.8-22.7,25.6-36.2h2.6
				C3595.4,202,3612.6,212.6,3628.7,215.5z"/>
			<path class="st1" d="M3624.7,135c4.9-11.8,35.9-48.6,54-62.9h1.7v32.2c24.7,0.3,35.6,0.3,39.4-0.3c0,20.7-14.4,31-33.9,31
				c-5.5,0-1.4-0.3-12.1,0c-5.2,8.3-9.2,17-12.1,25.6h-2.6c-10.1-11.2-14.1-16.4-33.9-24.7L3624.7,135z M3725.3,210.9l0.9,0.9
				c-5.5,21.3-26.7,34.5-50,34.5c-17.2,0-37.7-11.8-41.1-22.7c11.5-12.9,19.8-25.3,25.6-38.8h2.6
				C3682.5,203.7,3701.2,206.9,3725.3,210.9z"/>
			<path class="st1" d="M3712.4,58.6c2-12.4,16.4-33.6,38.5-33.6c14.7,0,24.7,7.5,27.6,15.5v1.7c-10.9,13.8-18.1,33.1-23,47.4h-2.6
				c-10.1-14.1-20.4-21.8-40-30.2C3713,59.4,3712.4,58.6,3712.4,58.6z M3807.5,215.5v1.1c-3.2,15.5-23.9,29.6-42.8,29.6
				c-14.7,0-31.6-10.1-35.6-22.7c11.5-12.9,19.8-22.7,25.6-36.2h2.6C3771.6,203.2,3791.4,212.1,3807.5,215.5z M3821.6,101.7
				c22.4,0,33.9,7.8,37.1,15.8v2.6c-11.5,12.1-19.3,28.2-23.6,40.5h-2.6c-15.2-19.5-30.8-33.6-58.1-41.4
				C3781.9,110.3,3802.9,101.7,3821.6,101.7z M3883.7,215.5v1.1c-3.2,15.5-23.9,29.6-42.8,29.6c-14.7,0-29-10.1-33.1-22.7
				c11.5-10.3,19.8-22.7,25.6-36.2h2.6C3850.3,202,3867.6,212.6,3883.7,215.5z"/>
			<path class="st1" d="M3952.4,135c4.9-11.8,35.9-48.6,54-62.9h1.7v32.2c24.7,0.3,35.6,0.3,39.4-0.3c0,20.7-14.4,31-33.9,31
				c-5.5,0-1.4-0.3-12.1,0c-5.2,8.3-9.2,17-12.1,25.6h-2.6c-10.1-11.2-14.1-16.4-33.9-24.7L3952.4,135z M4053,210.9l0.9,0.9
				c-5.5,21.3-26.7,34.5-50,34.5c-17.2,0-37.7-11.8-41.1-22.7c11.5-12.9,19.8-25.3,25.6-38.8h2.6
				C4010.1,203.7,4028.8,206.9,4053,210.9z"/>
			<path class="st1" d="M4040,58.6c2-12.4,16.4-33.6,38.5-33.6c14.7,0,24.7,7.5,27.6,15.5v1.7c-10.9,13.8-18.1,33.1-23,47.4h-2.6
				c-10.1-14.1-20.4-21.8-40-30.2C4040.6,59.4,4040,58.6,4040,58.6z M4135.2,215.5v1.1c-3.2,15.5-23.9,29.6-42.8,29.6
				c-14.7,0-31.6-10.1-35.6-22.7c11.5-12.9,19.8-22.7,25.6-36.2h2.6C4099.2,203.2,4119.1,212.1,4135.2,215.5z M4149.2,101.7
				c22.4,0,33.9,7.8,37.1,15.8v2.6c-11.5,12.1-19.3,28.2-23.6,40.5h-2.6c-15.2-19.5-30.8-33.6-58.1-41.4
				C4109.6,110.3,4130.6,101.7,4149.2,101.7z M4211.3,215.5v1.1c-3.2,15.5-23.9,29.6-42.8,29.6c-14.7,0-29-10.1-33.1-22.7
				c11.5-10.3,19.8-22.7,25.6-36.2h2.6C4178,202,4195.2,212.6,4211.3,215.5z"/>
			<path class="st1" d="M4202.7,59.2c2.6-12.1,17.2-33.9,39.1-33.9c14.7,0,24.1,8.6,24.1,19.5c0,13.8-10.9,27.6-22.4,33.9h-1.1
				c-12.9-5.5-28.5-10.6-39.7-19C4202.7,59.7,4202.7,59.2,4202.7,59.2z M4204.7,135.3c2-12.4,13.5-33.6,35.6-33.6
				c14.7,0,24.7,7.5,27.6,15.5v1.7c-10.9,13.8-18.1,27.3-23,41.7h-2.6c-10.1-11.2-17.5-16.1-37.1-24.4L4204.7,135.3z M4293.8,215.5
				v1.1c-3.2,15.5-23.9,29.6-42.8,29.6c-14.7,0-29-10.1-33.1-22.7c11.5-10.3,19.8-22.7,25.6-36.2h2.6
				C4260.5,202,4277.7,212.6,4293.8,215.5z"/>
			<path class="st1" d="M4385.5,183.3c12.4,8.6,19.8,18.1,19.8,31.9c0,23.6-35.6,31-55.8,31c-18.7,0-52-4.9-52-25.9
				c0-8.6,4.3-20.1,9.5-25.3h2.6c18.7,14.7,57.5,18.4,66.1,18.4c7.5,0,9.8-18.1,7.2-27.6L4385.5,183.3z M4322,164.6
				c-12.4-8.6-19.8-18.1-19.8-31.9c0-23.6,35.6-31,55.8-31c15.8,0,46.3,4.9,46.3,25.9c0,8.6-4,19.3-9.5,24.4h-2.6
				c-18.7-14.7-51.7-17.5-60.4-17.5c-7.5,0-9.8,18.1-7.2,27.6L4322,164.6z"/>
			<path class="st1" d="M4480.1,58.6c2-12.4,16.4-33.6,38.5-33.6c14.7,0,24.7,7.5,27.6,15.5v1.7c-10.9,13.8-18.1,33.1-23,47.4h-2.6
				c-10.1-14.1-20.4-21.8-40-30.2C4480.6,59.4,4480.1,58.6,4480.1,58.6z M4618.3,201.7h2.6c-1.4,25-18.1,44.5-57.2,44.5
				c-25,0-50-15.2-50-42.5c0-7.8,1.7-16.4,4.3-25.9h2.6c8.6,15.2,42,37.9,70.4,37.9C4597.3,215.8,4604.2,211.8,4618.3,201.7z
				 M4517.7,146.2h-2.6c1.4-25,18.1-44.5,57.2-44.5c25,0,50,15.2,50,42.5c0,7.8-1.7,16.4-4.3,25.9h-2.6c-8.6-15.2-42-37.9-70.4-37.9
				C4538.7,132.2,4531.8,136.2,4517.7,146.2z"/>
			<path class="st1" d="M4789.9,215.5v1.1c-3.2,15.5-21.6,29.6-40.5,29.6c-12.6,0-25-8-30.8-16.7c-8,9.8-22.1,17.2-38.8,17.2
				c-16.7,0-31.6-10.6-31.6-27.9c0-9.8,8-25,23.9-31.6l2.3,1.7c7.8,16.1,19.8,29.6,44,35.9c9.2-9.8,17.2-21.8,21.3-37.7h2.6
				C4756.6,202,4773.8,212.6,4789.9,215.5z M4752.2,125.8c0,7.5-5.7,22.4-11.5,34.8h-2.6c-4.3-17-10.6-26.7-20.4-26.7
				c-14.4,0-39.4,4.9-59.2,23.9h-2.6c-1.4-4-2-8-2-11.8c0-23.9,23.9-44.3,56-44.3C4730.4,101.7,4752.2,108.9,4752.2,125.8z"/>
			<path class="st1" d="M4784.7,135.3c2-12.4,13.5-33.6,35.6-33.6c13.5,0,23.3,6.3,26.7,13.8c9.5-7.5,27.3-13.8,43.4-13.8
				c22.4,0,33.9,7.8,37.1,15.8v2.6c-11.5,12.1-19.3,28.2-23.6,40.5h-2.6c-14.7-18.7-29.3-32.5-54.6-40.2
				c-10.3,13.2-17.2,26.4-21.8,40.2h-2.6c-10.1-11.2-17.5-16.1-37.1-24.4L4784.7,135.3z M4876.4,215.5v1.1
				c-3.2,15.5-23.9,29.6-42.8,29.6c-14.7,0-31.6-10.1-35.6-22.7c11.5-12.9,19.8-22.7,25.6-36.2h2.6
				C4840.5,203.2,4860.3,212.1,4876.4,215.5z M4952.6,215.5v1.1c-3.2,15.5-23.9,29.6-42.8,29.6c-14.7,0-29-10.1-33.1-22.7
				c11.5-10.3,19.8-22.7,25.6-36.2h2.6C4919.2,202,4936.5,212.6,4952.6,215.5z"/>
			<path class="st1" d="M4945.1,135.3c2-12.4,13.5-33.6,35.6-33.6c13.5,0,23.3,6.3,26.7,13.8c9.5-7.5,27.3-13.8,43.4-13.8
				c22.4,0,33.9,7.8,37.1,15.8v2.6c-11.5,12.1-19.3,28.2-23.6,40.5h-2.6c-14.7-18.7-29.3-32.5-54.6-40.2
				c-10.3,13.2-17.2,26.4-21.8,40.2h-2.6c-10.1-11.2-17.5-16.1-37.1-24.4L4945.1,135.3z M5036.8,215.5v1.1
				c-3.2,15.5-23.9,29.6-42.8,29.6c-14.7,0-31.6-10.1-35.6-22.7c11.5-12.9,19.8-22.7,25.6-36.2h2.6
				C5000.9,203.2,5020.7,212.1,5036.8,215.5z M5113,215.5v1.1c-3.2,15.5-23.9,29.6-42.8,29.6c-14.7,0-29-10.1-33.1-22.7
				c11.5-10.3,19.8-22.7,25.6-36.2h2.6C5079.6,202,5096.9,212.6,5113,215.5z"/>
			<path class="st1" d="M5227.1,201.7h2.6c-1.4,22.1-15.2,44.5-54.3,44.5c-25,0-50-15.2-50-42.5c0-7.8,1.7-16.4,4.3-25.9h2.6
				c8.6,15.2,38.2,37.9,66.7,37.9C5202.9,215.8,5212.1,212.6,5227.1,201.7z M5128.8,146.2h-2.6c1.4-22.1,21-44.5,57.2-44.5
				c25,0,41.4,18.1,41.4,36.8c0,16.4-12.9,25-29.9,30.2l-2-1.7c0.6-2.3,0.9-4.6,0.9-6.9c0-16.7-17.2-27.9-39.7-27.9
				C5150,132.2,5143.7,132.5,5128.8,146.2z"/>
			<path class="st1" d="M5236.8,135.3c2-12.4,13.5-33.6,35.6-33.6c14.7,0,24.7,7.5,27.6,15.2c7.5-7.8,21.3-15.2,33.6-15.2
				c15.5,0,25.3,8.6,25.3,20.1c0,11.8-11.5,27.9-23.3,39.1h-2.6c-5.2-20.4-19.3-34.8-33.6-41.4c-10.6,13.5-17.5,27-22.4,41.1h-2.6
				c-10.1-11.2-17.5-16.1-37.1-24.4L5236.8,135.3z M5331.7,215.5v1.1c-3.2,15.5-23.9,29.6-44.3,29.6c-13.2,0-33.3-10.1-37.4-22.7
				c11.5-10.3,19.8-22.7,25.6-36.2h2.6C5292.6,202,5315.6,212.6,5331.7,215.5z"/>
		</g>
		<g>
			<path class="st2" d="M28.8,74.1c0.3-12.1,8.6-19.8,23.9-19.8c4.6-0.3,15.2,1.7,19,2.9V60c-10.3,11.8-20.4,24.7-27.9,40h-2.6
				C36.6,93.7,28.6,85,28.8,74.1z M123.1,239.4v0.9c-4.9,3.2-10.9,6-19.8,6c-11.8,0-22.7-9.2-22.7-29.9c0-10.1,0.3-54,0.3-58.9
				c0-5.5-0.3-41.4-0.3-42.5c0-16.1-0.6-37.9-0.9-51.7v-0.9c2.6-2.3,6.9-5.7,15.2-5.7c9.5,0,20.7,6,20.7,29.6
				c-0.3,12.6-0.3,51.2-0.3,55.5c0,3.4,0,32.5,0.3,43.1C115.6,200.9,117.1,225.6,123.1,239.4L123.1,239.4z M151.3,100
				c-6.6-15.2-17.5-31-27.9-40v-2.9c2.9-1.1,14.4-3.2,19-2.9c15.2,0,23.6,7.8,23.9,19.8c0.3,10.9-7.8,19.5-12.4,25.9
				C153.9,100,151.3,100,151.3,100z"/>
			<path class="st2" d="M224,185.1c0,16.1,1.4,40.8,7.5,54.6v0.9c-4.9,3.2-10.6,6-19.5,6c-11.8,0-20.7-9.2-20.7-29.9
				c0-10.1,0.3-62.7,0.3-67.5c0-5.5-0.3-50-0.3-51.2c0-16.1-1.4-40.8-7.5-54.6v-0.9c4.9-2.9,10.6-6,19.5-6
				c11.8,0,20.7,9.2,20.7,29.9c-0.3,12.6-0.3,62.7-0.3,67C223.7,136.8,223.7,174.4,224,185.1z M270.9,181.3c0-5.5-0.6-25-0.6-31.9
				c0-20.1-8.6-35.4-9.8-37.9v-0.6c3.2-3.2,9.5-8,21.6-8c17.2,0,22.4,15.8,22.4,29.9c0,17-1.7,35.4-1.7,52c0,16.1,1.7,40.8,7.8,54.6
				v0.9c-4.9,3.2-10.6,6-19.5,6c-11.8,0-20.7-9.2-20.7-29.9C270.3,206.3,270.9,186.2,270.9,181.3z"/>
			<path class="st2" d="M338.4,179.6c0-48,17.5-61.8,31-61.8c5.2,0,10.3,2.3,12.4,4l0.6,1.1c-4,8.6-10.6,29.6-10.6,52.3
				c0,26.7,15.2,49.4,27.6,59.2v1.7c-6,4.9-12.1,7.8-20.7,7.8C358.8,244,338.4,213.8,338.4,179.6z M405.7,105.7
				c25.9-1.1,42.2,11.8,42.2,33.3c0,23.9-19,33.6-35.9,33.6c-14.7,0-24.7-3.2-27.3-4.9v-3.2c11.5-1.1,24.7-7.2,31-11.2
				c0.9-6.6-7.5-37.7-10.6-45.4L405.7,105.7z"/>
			<path class="st2" d="M475.8,107.7c4.9-2.9,10.6-6,19.5-6c11.8,0,20.7,9.2,20.7,29.9c-0.3,12.6-0.3,29.6-0.3,33.9
				c0,3.4,0,8.6,0.3,19.3c0,16.1,1.4,40.8,7.5,54.6v0.9c-4.9,3.2-10.6,6-19.5,6c-11.8,0-20.7-9.2-20.7-29.9
				c0-10.1,0.3-30.2,0.3-35.1c0-5.5-0.3-17-0.3-18.1c0-16.1-1.4-40.8-7.5-54.6C475.8,108.6,475.8,107.7,475.8,107.7z M565.5,102.6
				c10.1,0,15.2,12.6,15.2,19.8c0,6-1.1,12.1-2.3,15.2l-0.6,0.6c-5.5,0-20.1,1.7-33.3,10.3l-0.9-0.6
				C543.6,129,547.9,102.6,565.5,102.6z"/>
			<path class="st2" d="M596.5,179.6c0-48,17.5-61.8,31-61.8c5.2,0,10.3,2.3,12.4,4l0.6,1.1c-4,8.6-10.6,29.6-10.6,52.3
				c0,26.7,15.2,49.4,27.6,59.2v1.7c-6,4.9-12.1,7.8-20.7,7.8C616.9,244,596.5,213.8,596.5,179.6z M663.7,105.7
				c25.9-1.1,42.2,11.8,42.2,33.3c0,23.9-19,33.6-35.9,33.6c-14.7,0-24.7-3.2-27.3-4.9v-3.2c11.5-1.1,24.7-7.2,31-11.2
				c0.9-6.6-7.5-37.7-10.6-45.4L663.7,105.7z"/>
			<path class="st2" d="M839.9,246c-25.9,1.1-42.2-11.8-42.2-33.3c0-23.9,19-33.6,35.9-33.6c14.7,0,24.7,3.2,27.3,4.9v3.2
				c-11.5,1.1-24.7,7.2-31,11.2c-0.9,6.6,7.5,37.7,10.6,45.4L839.9,246z M839.1,160.9c-4.6,2.9-12.1,4.9-19,4.9
				c-9.8,0-19-4.9-19-14.9c0-17.8,19-36.5,30.5-39.1l1.4,1.4c-1.7,11.5,1.7,38.5,6,46.8V160.9z M917.2,239.4v0.9
				c-4.9,3.2-10.6,6-19.5,6c-11.8,0-20.7-9.2-20.7-29.9c0-27.6-0.6-66.7-0.6-70.1c0-12.9-8-26.7-14.9-33.9v-1.4
				c3.2-3.2,14.9-6.6,23.6-6.6c16.4,0,25.9,9.5,25.6,32.2l-0.9,48.3C909.8,200.9,911.2,225.6,917.2,239.4z"/>
			<path class="st2" d="M951.2,107.7c4.9-2.9,10.6-6,19.5-6c11.8,0,20.7,9.2,20.7,29.9c-0.3,12.6-0.3,29.6-0.3,33.9
				c0,3.4,0,8.6,0.3,19.3c0,16.1,1.4,40.8,7.5,54.6v0.9c-4.9,3.2-10.6,6-19.5,6c-11.8,0-20.7-9.2-20.7-29.9
				c0-10.1,0.3-30.2,0.3-35.1c0-5.5-0.3-17-0.3-18.1c0-16.1-1.4-40.8-7.5-54.6C951.2,108.6,951.2,107.7,951.2,107.7z M1040.8,102.6
				c10.1,0,15.2,12.6,15.2,19.8c0,6-1.2,12.1-2.3,15.2l-0.6,0.6c-5.5,0-20.1,1.7-33.3,10.3l-0.9-0.6
				C1019,129,1023.3,102.6,1040.8,102.6z"/>
			<path class="st2" d="M1071.9,179.6c0-48,17.5-61.8,31-61.8c5.2,0,10.3,2.3,12.4,4l0.6,1.1c-4,8.6-10.6,29.6-10.6,52.3
				c0,26.7,15.2,49.4,27.6,59.2v1.7c-6,4.9-12.1,7.8-20.7,7.8C1092.3,244,1071.9,213.8,1071.9,179.6z M1139.1,105.7
				c25.9-1.1,42.2,11.8,42.2,33.3c0,23.9-19,33.6-35.9,33.6c-14.7,0-24.7-3.2-27.3-4.9v-3.2c11.5-1.1,24.7-7.2,31-11.2
				c0.9-6.6-7.5-37.7-10.6-45.4L1139.1,105.7z"/>
			<path class="st2" d="M1313.6,246.3c-20.4,0-24.1-17.8-24.1-47.1V133H1269v-1.7c14.9-21.6,32.8-39.4,53.2-52.9h2.3
				c0,43.4-0.9,74.4,0,106.3c0,21.6,10.9,43.4,17.8,50.6v0.9C1335.4,242.2,1325.4,246.3,1313.6,246.3z"/>
			<path class="st2" d="M1373.1,179.6c0-48,17.5-61.8,31-61.8c5.2,0,10.3,2.3,12.4,4l0.6,1.1c-4,8.6-10.6,29.6-10.6,52.3
				c0,26.7,15.2,49.4,27.6,59.2v1.7c-6,4.9-12.1,7.8-20.7,7.8C1393.5,244,1373.1,213.8,1373.1,179.6z M1496.7,169.2
				c0,48-17.5,61.8-31,61.8c-5.2,0-10.3-2.3-12.4-4l-0.6-1.1c4-8.6,10.6-29.6,10.6-52.3c0-26.7-15.2-49.4-27.6-59.2v-1.7
				c6-4.9,12.1-7.8,20.7-7.8C1476.3,104.9,1496.7,135,1496.7,169.2z"/>
			<path class="st2" d="M1518.5,179.6c0-48,17.5-61.8,31-61.8c5.2,0,10.3,2.3,12.4,4l0.6,1.1c-4,8.6-10.6,29.6-10.6,52.3
				c0,26.7,15.2,49.4,27.6,59.2v1.7c-6,4.9-12.1,7.8-20.7,7.8C1538.9,244,1518.5,213.8,1518.5,179.6z M1642.1,169.2
				c0,48-17.5,61.8-31,61.8c-5.2,0-10.3-2.3-12.4-4l-0.6-1.1c4-8.6,10.6-29.6,10.6-52.3c0-26.7-15.2-49.4-27.6-59.2v-1.7
				c6-4.9,12.1-7.8,20.7-7.8C1621.7,104.9,1642.1,135,1642.1,169.2z"/>
			<path class="st2" d="M1741.8,107.7c4.9-2.9,10.6-6,19.5-6c11.8,0,20.7,9.2,20.7,29.9c-0.3,12.6-0.3,29.6-0.3,33.9
				c0,3.4,0,8.6,0.3,19.3c0,16.1,1.4,40.8,7.5,54.6v0.9c-4.9,3.2-10.6,6-19.5,6c-11.8,0-20.7-9.2-20.7-29.9
				c0-10.1,0.3-30.2,0.3-35.1c0-5.5-0.3-17-0.3-18.1c0-16.1-1.4-40.8-7.5-54.6C1741.8,108.6,1741.8,107.7,1741.8,107.7z
				 M1828.6,181.3c0-5.5-0.6-25-0.6-31.9c0-20.1-8.6-35.4-9.8-37.9v-0.6c3.2-3.2,9.5-8,21.6-8c17.2,0,22.4,15.8,22.4,29.9
				c0,17-1.7,35.4-1.7,52c0,16.1,1.7,40.8,7.8,54.6v0.9c-4.9,3.2-10.6,6-19.5,6c-11.8,0-20.7-9.2-20.7-29.9
				C1828.1,206.3,1828.6,186.2,1828.6,181.3z M1907.4,181.3c0-5.5-0.6-25-0.6-31.9c0-20.1-8.6-35.4-9.8-37.9v-0.6
				c3.2-3.2,9.5-8,21.6-8c17.2,0,22.4,15.8,22.4,29.9c0,17-1.7,35.4-1.7,52c0,16.1,1.7,40.8,7.8,54.6v0.9c-4.9,3.2-10.6,6-19.5,6
				c-11.8,0-20.7-9.2-20.7-29.9C1906.8,206.3,1907.4,186.2,1907.4,181.3z"/>
			<path class="st2" d="M2015.2,246c-25.9,1.1-42.2-11.8-42.2-33.3c0-23.9,19-33.6,35.9-33.6c14.7,0,24.7,3.2,27.3,4.9v3.2
				c-11.5,1.1-24.7,7.2-31,11.2c-0.9,6.6,7.5,37.7,10.6,45.4L2015.2,246z M2014.3,160.9c-4.6,2.9-12.1,4.9-19,4.9
				c-9.8,0-19-4.9-19-14.9c0-17.8,19-36.5,30.5-39.1l1.4,1.4c-1.7,11.5,1.7,38.5,6,46.8V160.9z M2092.5,239.4v0.9
				c-4.9,3.2-10.6,6-19.5,6c-11.8,0-20.7-9.2-20.7-29.9c0-27.6-0.6-66.7-0.6-70.1c0-12.9-8-26.7-14.9-33.9v-1.4
				c3.2-3.2,14.9-6.6,23.6-6.6c16.4,0,25.9,9.5,25.6,32.2l-0.9,48.3C2085,200.9,2086.5,225.6,2092.5,239.4z"/>
			<path class="st2" d="M2126.4,107.7c4.9-2.9,10.6-6,19.5-6c11.8,0,20.7,9.2,20.7,29.9c-0.3,12.6-0.3,29.6-0.3,33.9
				c0,3.4,0,8.6,0.3,19.3c0,16.1,1.4,40.8,7.5,54.6v0.9c-4.9,3.2-10.6,6-19.5,6c-11.8,0-20.7-9.2-20.7-29.9
				c0-10.1,0.3-30.2,0.3-35.1c0-5.5-0.3-17-0.3-18.1c0-16.1-1.4-40.8-7.5-54.6C2126.4,108.6,2126.4,107.7,2126.4,107.7z
				 M2213.2,181.3c0-5.5-0.6-25-0.6-31.9c0-20.1-8.6-35.4-9.8-37.9v-0.6c3.2-3.2,9.5-8,21.6-8c17.2,0,22.4,15.8,22.4,29.9
				c0,17-1.7,35.4-1.7,52c0,16.1,1.7,40.8,7.8,54.6v0.9c-4.9,3.2-10.6,6-19.5,6c-11.8,0-20.7-9.2-20.7-29.9
				C2212.6,206.3,2213.2,186.2,2213.2,181.3z"/>
			<path class="st2" d="M2275,111.8c4-5.2,10.6-9.5,18.4-9.5c11.8,0,18.7,10.3,23.6,23.3c5.7,15.5,10.9,33.9,12.1,69.6
				c0.6,15.5-7.5,33.1-11.8,40.5l-2-0.6c-10.1-41.1-22.7-92-33.3-111.8c-2.6-4.9-5.7-9.5-6.9-10.3C2275,112.9,2275,111.8,2275,111.8
				z M2374.4,246.6c-8.9,26.4-24.4,63.8-47.7,63.8c-15.5,0-23.9-10.3-23-25.3l1.1-1.4c18.1,0.6,35.1-16.4,46.6-43.7
				c10.1-23.6,20.4-63.2,20.4-99.7c0-14.9-3.7-23.6-7.2-31.6v-0.9c4.9-2.9,10.6-6,19.5-6c9.8,0,21.6,6.9,21.8,22.4
				C2406.6,151.7,2385.4,213.8,2374.4,246.6L2374.4,246.6z"/>
			<path class="st2" d="M2523.6,78.4c-9.5-4.6-24.4-26.4-25.3-40.8v-1.7c4.6-6,12.6-12.1,27.3-12.1c8,0,18.7,6,19,16.1
				c0.3,13.8-14.1,30.8-19,38.5C2525.6,78.4,2523.6,78.4,2523.6,78.4z M2499.8,107.7c4.9-2.9,10.6-6,19.5-6
				c11.8,0,20.7,9.2,20.7,29.9c-0.3,12.6-0.3,29.6-0.3,33.9c0,3.4,0,8.6,0.3,19.3c0,16.1,1.4,40.8,7.5,54.6v0.9
				c-4.9,3.2-10.6,6-19.5,6c-11.8,0-20.7-9.2-20.7-29.9c0-10.1,0.3-30.2,0.3-35.1c0-5.5-0.3-17-0.3-18.1c0-16.1-1.4-40.8-7.5-54.6
				C2499.8,108.6,2499.8,107.7,2499.8,107.7z"/>
			<path class="st2" d="M2593.5,189.9c4.3,10.3,19.5,32.8,25.3,37.9v2c-4.6,6-13.2,9.8-21.3,9.5c-9.5,0-19-9.5-19.3-19.5
				c-0.3-13.5,8.3-22.1,13.2-29.9H2593.5z M2596.9,123.5c11.8,18.1,28.5,29.6,46.3,37.9c24.7,11.8,45.4,20.1,45.4,41.7
				c0,11.2-5.5,19.3-10.6,23h-1.4c-14.9-16.7-30.8-29.3-49.1-39.4c-24.1-13.2-43.7-20.4-44-42c0-8.6,6-18.4,11.8-21.3H2596.9z
				 M2671.4,157.5c-4.3-10.6-19.3-32.5-25.3-37.9v-1.7c4.6-6,14.1-9.2,23-9.2c8,0,17.2,6,17.5,16.1c0.3,13.8-8.3,25-13.2,32.8
				L2671.4,157.5L2671.4,157.5z"/>
			<path class="st2" d="M2725.4,189.9c4.3,10.3,19.5,32.8,25.3,37.9v2c-4.6,6-13.2,9.8-21.3,9.5c-9.5,0-19-9.5-19.3-19.5
				c-0.3-13.5,8.3-22.1,13.2-29.9H2725.4z M2728.8,123.5c11.8,18.1,28.5,29.6,46.3,37.9c24.7,11.8,45.4,20.1,45.4,41.7
				c0,11.2-5.5,19.3-10.6,23h-1.4c-14.9-16.7-30.8-29.3-49.1-39.4c-24.1-13.2-43.7-20.4-44-42c0-8.6,6-18.4,11.8-21.3H2728.8z
				 M2803.3,157.5c-4.3-10.6-19.3-32.5-25.3-37.9v-1.7c4.6-6,14.1-9.2,23-9.2c8,0,17.2,6,17.5,16.1c0.3,13.8-8.3,25-13.2,32.8
				L2803.3,157.5L2803.3,157.5z"/>
			<path class="st2" d="M2887.5,166.9c0,5.5,0.6,25,0.6,31.9c0,20.1,8.6,35.4,9.8,37.9v0.6c-3.2,3.2-9.5,8-21.6,8
				c-17.2,0-22.4-15.8-22.4-29.9c0-17,1.7-35.4,1.7-52c0-16.1-1.7-40.8-7.8-54.6V108c4.9-3.2,10.6-6,19.5-6
				c11.8,0,20.7,9.2,20.7,29.9C2888.1,141.9,2887.5,162.1,2887.5,166.9z M2974.3,240.5c-4.9,2.9-10.6,6-19.5,6
				c-11.8,0-20.7-9.2-20.7-29.9c0.3-12.6,0.3-29.6,0.3-33.9c0-3.4,0-8.6-0.3-19.3c0-16.1-1.4-40.8-7.5-54.6V108
				c4.9-3.2,10.6-6,19.5-6c11.8,0,20.7,9.2,20.7,29.9c0,10.1-0.3,30.2-0.3,35.1c0,5.5,0.3,17,0.3,18.1c0,16.1,1.4,40.8,7.5,54.6
				V240.5z"/>
			<path class="st2" d="M3002.2,179.6c0-48,17.5-61.8,31-61.8c5.2,0,10.3,2.3,12.4,4l0.6,1.1c-4,8.6-10.6,29.6-10.6,52.3
				c0,26.7,15.2,49.4,27.6,59.2v1.7c-6,4.9-12.1,7.8-20.7,7.8C3022.6,244,3002.2,213.8,3002.2,179.6z M3069.4,105.7
				c25.9-1.1,42.2,11.8,42.2,33.3c0,23.9-19,33.6-35.9,33.6c-14.7,0-24.7-3.2-27.3-4.9v-3.2c11.5-1.1,24.7-7.2,31-11.2
				c0.9-6.6-7.5-37.7-10.6-45.4L3069.4,105.7z"/>
			<path class="st2" d="M3149,189.9c4.3,10.3,19.5,32.8,25.3,37.9v2c-4.6,6-13.2,9.8-21.3,9.5c-9.5,0-19-9.5-19.3-19.5
				c-0.3-13.5,8.3-22.1,13.2-29.9H3149z M3152.5,123.5c11.8,18.1,28.5,29.6,46.3,37.9c24.7,11.8,45.4,20.1,45.4,41.7
				c0,11.2-5.5,19.3-10.6,23h-1.4c-14.9-16.7-30.8-29.3-49.1-39.4c-24.1-13.2-43.7-20.4-44-42c0-8.6,6-18.4,11.8-21.3H3152.5z
				 M3226.9,157.5c-4.3-10.6-19.3-32.5-25.3-37.9v-1.7c4.6-6,14.1-9.2,23-9.2c8,0,17.2,6,17.5,16.1c0.3,13.8-8.3,25-13.2,32.8
				L3226.9,157.5L3226.9,157.5z"/>
			<path class="st2" d="M3331.6,111.8c4-5.2,10.6-9.5,18.4-9.5c11.8,0,18.7,10.3,23.6,23.3c5.7,15.5,8,33.9,9.2,69.6
				c0.6,15.5-4.6,33.1-8.9,40.5l-2-0.6c-10.1-41.1-22.7-92-33.3-111.8c-2.6-4.9-5.7-9.5-6.9-10.3
				C3331.6,112.9,3331.6,111.8,3331.6,111.8z M3406,111.8c4-5.2,10.6-9.5,18.4-9.5c11.8,0,19.8,10.3,23.6,23.3
				c4.6,15.5,4,33.9,5.2,69.6c0.6,15.5-4.6,33.1-8.9,37.7l-2-0.6c-10.1-38.2-19.8-89.1-29.3-108.9c-2.3-4.9-5.7-9.5-6.9-10.3V111.8z
				 M3484.2,231.9l-2.6-2.3c8.9-29.6,19.3-58.6,19.3-89.4c0-14.9-3.7-23.6-7.2-31.6v-0.9c4.9-2.9,10.6-6,19.5-6
				c9.8,0,19.5,6.9,19.8,22.4C3533.6,151.7,3512,217.8,3484.2,231.9L3484.2,231.9z"/>
			<path class="st2" d="M3577.3,78.4c-9.5-4.6-24.4-26.4-25.3-40.8v-1.7c4.6-6,12.6-12.1,27.3-12.1c8,0,18.7,6,19,16.1
				c0.3,13.8-14.1,30.8-19,38.5C3579.3,78.4,3577.3,78.4,3577.3,78.4z M3553.4,107.7c4.9-2.9,10.6-6,19.5-6
				c11.8,0,20.7,9.2,20.7,29.9c-0.3,12.6-0.3,29.6-0.3,33.9c0,3.4,0,8.6,0.3,19.3c0,16.1,1.4,40.8,7.5,54.6v0.9
				c-4.9,3.2-10.6,6-19.5,6c-11.8,0-20.7-9.2-20.7-29.9c0-10.1,0.3-30.2,0.3-35.1c0-5.5-0.3-17-0.3-18.1c0-16.1-1.4-40.8-7.5-54.6
				C3553.4,108.6,3553.4,107.7,3553.4,107.7z"/>
			<path class="st2" d="M3670.1,246.3c-20.4,0-24.1-17.8-24.1-47.1V133h-20.4v-1.7c14.9-21.6,32.8-39.4,53.2-52.9h2.3
				c0,43.4-0.9,74.4,0,106.3c0,21.6,10.9,43.4,17.8,50.6v0.9C3692,242.2,3681.9,246.3,3670.1,246.3z"/>
			<path class="st2" d="M3773,185.1c0,16.1,1.4,40.8,7.5,54.6v0.9c-4.9,3.2-10.6,6-19.5,6c-11.8,0-20.7-9.2-20.7-29.9
				c0-10.1,0.3-62.7,0.3-67.5c0-5.5-0.3-50-0.3-51.2c0-16.1-1.4-40.8-7.5-54.6v-0.9c4.9-2.9,10.6-6,19.5-6
				c11.8,0,20.7,9.2,20.7,29.9c-0.3,12.6-0.3,62.7-0.3,67C3772.7,136.8,3772.7,174.4,3773,185.1z M3819.9,181.3
				c0-5.5-0.6-25-0.6-31.9c0-20.1-8.6-35.4-9.8-37.9v-0.6c3.2-3.2,9.5-8,21.6-8c17.2,0,22.4,15.8,22.4,29.9c0,17-1.7,35.4-1.7,52
				c0,16.1,1.7,40.8,7.8,54.6v0.9c-4.9,3.2-10.6,6-19.5,6c-11.8,0-20.7-9.2-20.7-29.9C3819.3,206.3,3819.9,186.2,3819.9,181.3z"/>
			<path class="st2" d="M3997.8,246.3c-20.4,0-24.1-17.8-24.1-47.1V133h-20.4v-1.7c14.9-21.6,32.8-39.4,53.2-52.9h2.3
				c0,43.4-0.9,74.4,0,106.3c0,21.6,10.9,43.4,17.8,50.6v0.9C4019.6,242.2,4009.6,246.3,3997.8,246.3z"/>
			<path class="st2" d="M4100.7,185.1c0,16.1,1.4,40.8,7.5,54.6v0.9c-4.9,3.2-10.6,6-19.5,6c-11.8,0-20.7-9.2-20.7-29.9
				c0-10.1,0.3-62.7,0.3-67.5c0-5.5-0.3-50-0.3-51.2c0-16.1-1.4-40.8-7.5-54.6v-0.9c4.9-2.9,10.6-6,19.5-6
				c11.8,0,20.7,9.2,20.7,29.9c-0.3,12.6-0.3,62.7-0.3,67C4100.4,136.8,4100.4,174.4,4100.7,185.1z M4147.5,181.3
				c0-5.5-0.6-25-0.6-31.9c0-20.1-8.6-35.4-9.8-37.9v-0.6c3.2-3.2,9.5-8,21.6-8c17.2,0,22.4,15.8,22.4,29.9c0,17-1.7,35.4-1.7,52
				c0,16.1,1.7,40.8,7.8,54.6v0.9c-4.9,3.2-10.6,6-19.5,6c-11.8,0-20.7-9.2-20.7-29.9C4146.9,206.3,4147.5,186.2,4147.5,181.3z"/>
			<path class="st2" d="M4242.4,78.4c-9.5-4.6-24.4-26.4-25.3-40.8v-1.7c4.6-6,12.6-12.1,27.3-12.1c8,0,18.7,6,19,16.1
				c0.3,13.8-14.1,30.8-19,38.5C4244.4,78.4,4242.4,78.4,4242.4,78.4z M4218.5,107.7c4.9-2.9,10.6-6,19.5-6
				c11.8,0,20.7,9.2,20.7,29.9c-0.3,12.6-0.3,29.6-0.3,33.9c0,3.4,0,8.6,0.3,19.3c0,16.1,1.4,40.8,7.5,54.6v0.9
				c-4.9,3.2-10.6,6-19.5,6c-11.8,0-20.7-9.2-20.7-29.9c0-10.1,0.3-30.2,0.3-35.1c0-5.5-0.3-17-0.3-18.1c0-16.1-1.4-40.8-7.5-54.6
				C4218.5,108.6,4218.5,107.7,4218.5,107.7z"/>
			<path class="st2" d="M4312.2,189.9c4.3,10.3,19.5,32.8,25.3,37.9v2c-4.6,6-13.2,9.8-21.3,9.5c-9.5,0-19-9.5-19.3-19.5
				c-0.3-13.5,8.3-22.1,13.2-29.9H4312.2z M4315.7,123.5c11.8,18.1,28.5,29.6,46.3,37.9c24.7,11.8,45.4,20.1,45.4,41.7
				c0,11.2-5.5,19.3-10.6,23h-1.4c-14.9-16.7-30.8-29.3-49.1-39.4c-24.1-13.2-43.7-20.4-44-42c0-8.6,6-18.4,11.8-21.3H4315.7z
				 M4390.1,157.5c-4.3-10.6-19.3-32.5-25.3-37.9v-1.7c4.6-6,14.1-9.2,23-9.2c8,0,17.2,6,17.5,16.1c0.3,13.8-8.3,25-13.2,32.8
				L4390.1,157.5L4390.1,157.5z"/>
			<path class="st2" d="M4501.6,43.4v-0.9c2-2.3,7.8-6,16.7-6c11.8,0,20.7,9.2,20.7,29.9c-0.6,25.3,0.9,81.9,0.9,108.9
				c0.3,27.3,12.1,49.4,21,62.7v2c-2.6,2-6.9,2.9-10.3,2.9c-18.1,0-45.1-10.3-44.5-61.8c0-6,0.3-44.5,0.3-54.3
				C4506.2,110.6,4504.8,57.2,4501.6,43.4z M4629.8,169.2c0,48-17.5,61.8-31,61.8c-5.2,0-10.3-2.3-12.4-4l-0.6-1.1
				c4-8.6,10.6-29.6,10.6-52.3c0-26.7-15.2-49.4-27.6-59.2v-1.7c6-4.9,12.1-7.8,20.7-7.8C4609.4,104.9,4629.8,135,4629.8,169.2z"/>
			<path class="st2" d="M4691.9,246c-25.9,1.1-42.2-11.8-42.2-33.3c0-23.9,19-33.6,35.9-33.6c14.7,0,24.7,3.2,27.3,4.9v3.2
				c-11.5,1.1-24.7,7.2-31,11.2c-0.9,6.6,7.5,37.7,10.6,45.4L4691.9,246z M4691,160.9c-4.6,2.9-12.1,4.9-19,4.9
				c-9.8,0-19-4.9-19-14.9c0-17.8,19-36.5,30.5-39.1l1.4,1.4c-1.7,11.5,1.7,38.5,6,46.8V160.9z M4769.2,239.4v0.9
				c-4.9,3.2-10.6,6-19.5,6c-11.8,0-20.7-9.2-20.7-29.9c0-27.6-0.6-66.7-0.6-70.1c0-12.9-8-26.7-14.9-33.9v-1.4
				c3.2-3.2,14.9-6.6,23.6-6.6c16.4,0,25.9,9.5,25.6,32.2l-0.9,48.3C4761.7,200.9,4763.2,225.6,4769.2,239.4z"/>
			<path class="st2" d="M4803.1,107.7c4.9-2.9,10.6-6,19.5-6c11.8,0,20.7,9.2,20.7,29.9c-0.3,12.6-0.3,29.6-0.3,33.9
				c0,3.4,0,8.6,0.3,19.3c0,16.1,1.4,40.8,7.5,54.6v0.9c-4.9,3.2-10.6,6-19.5,6c-11.8,0-20.7-9.2-20.7-29.9
				c0-10.1,0.3-30.2,0.3-35.1c0-5.5-0.3-17-0.3-18.1c0-16.1-1.4-40.8-7.5-54.6C4803.1,108.6,4803.1,107.7,4803.1,107.7z
				 M4889.9,181.3c0-5.5-0.6-25-0.6-31.9c0-20.1-8.6-35.4-9.8-37.9v-0.6c3.2-3.2,9.5-8,21.6-8c17.2,0,22.4,15.8,22.4,29.9
				c0,17-1.7,35.4-1.7,52c0,16.1,1.7,40.8,7.8,54.6v0.9c-4.9,3.2-10.6,6-19.5,6c-11.8,0-20.7-9.2-20.7-29.9
				C4889.3,206.3,4889.9,186.2,4889.9,181.3z"/>
			<path class="st2" d="M4963.5,107.7c4.9-2.9,10.6-6,19.5-6c11.8,0,20.7,9.2,20.7,29.9c-0.3,12.6-0.3,29.6-0.3,33.9
				c0,3.4,0,8.6,0.3,19.3c0,16.1,1.4,40.8,7.5,54.6v0.9c-4.9,3.2-10.6,6-19.5,6c-11.8,0-20.7-9.2-20.7-29.9
				c0-10.1,0.3-30.2,0.3-35.1c0-5.5-0.3-17-0.3-18.1c0-16.1-1.4-40.8-7.5-54.6C4963.5,108.6,4963.5,107.7,4963.5,107.7z
				 M5050.3,181.3c0-5.5-0.6-25-0.6-31.9c0-20.1-8.6-35.4-9.8-37.9v-0.6c3.2-3.2,9.5-8,21.6-8c17.2,0,22.4,15.8,22.4,29.9
				c0,17-1.7,35.4-1.7,52c0,16.1,1.7,40.8,7.8,54.6v0.9c-4.9,3.2-10.6,6-19.5,6c-11.8,0-20.7-9.2-20.7-29.9
				C5049.7,206.3,5050.3,186.2,5050.3,181.3z"/>
			<path class="st2" d="M5117.8,179.6c0-48,17.5-61.8,31-61.8c5.2,0,10.3,2.3,12.4,4l0.6,1.1c-4,8.6-10.6,29.6-10.6,52.3
				c0,26.7,15.2,49.4,27.6,59.2v1.7c-6,4.9-12.1,7.8-20.7,7.8C5138.3,244,5117.8,213.8,5117.8,179.6z M5185.1,105.7
				c25.9-1.1,42.2,11.8,42.2,33.3c0,23.9-19,33.6-35.9,33.6c-14.7,0-24.7-3.2-27.3-4.9v-3.2c11.5-1.1,24.7-7.2,31-11.2
				c0.9-6.6-7.5-37.7-10.6-45.4L5185.1,105.7z"/>
			<path class="st2" d="M5255.2,107.7c4.9-2.9,10.6-6,19.5-6c11.8,0,20.7,9.2,20.7,29.9c-0.3,12.6-0.3,29.6-0.3,33.9
				c0,3.4,0,8.6,0.3,19.3c0,16.1,1.4,40.8,7.5,54.6v0.9c-4.9,3.2-10.6,6-19.5,6c-11.8,0-20.7-9.2-20.7-29.9
				c0-10.1,0.3-30.2,0.3-35.1c0-5.5-0.3-17-0.3-18.1c0-16.1-1.4-40.8-7.5-54.6C5255.2,108.6,5255.2,107.7,5255.2,107.7z
				 M5344.9,102.6c10.1,0,15.2,12.6,15.2,19.8c0,6-1.1,12.1-2.3,15.2l-0.6,0.6c-5.5,0-20.1,1.7-33.3,10.3l-0.9-0.6
				C5323.1,129,5327.4,102.6,5344.9,102.6z"/>
		</g>
	</g>
</g>
<g>
	<g id="a_1_">
		<g>
			<path class="st0" d="M5499.7,38.2c14.1,0,80.8,1.4,108.4-2.3c5.5,6,11.5,23,11.5,38.5c0,29.3-18.7,36.8-36.8,36.8
				c-3.4,0-6.6-0.3-9.8-0.6c-2.3,6.3-3.4,22.4-3.4,37.4c0,22.4,12.9,42.8,31.3,62.1c-3.2,27-26.2,46.8-60.4,46.8
				c-33.3,0-56.6-18.7-60.4-39.7c6.3-10.1,26.2-36.2,26.2-66.4c0-14.1-4.6-33.6-8-41.4c-1.4-0.3-2.9-0.3-4.6-0.3
				c-8,0-19,1.7-27.9,4.6c-7.8-7.8-13.2-18.4-13.2-33.9C5452.9,59.4,5466.7,38.2,5499.7,38.2L5499.7,38.2z"/>
			<path class="st0" d="M5736,256.9c-18.4,0-31-4-40.5-10.1c-11.2,6.6-25,10.1-37.9,10.1c-30.5,0-47.4-14.1-50.3-27.6
				c9.2-15.8,12.9-49.1,12.9-71.6c0-39.7-24.4-83.1-40-90.8c6-32.8,33.9-46.8,54.3-46.8c34.2,0,49.7,16.4,53.5,22.7
				c-4.3,8.3-12.4,20.7-13.8,54.9c9.5-4,21.8-6.6,37.4-6.6c37.9,0,49.7,11.2,49.7,30.2c0,17.5-3.7,30.8-3.7,46.8
				c0,23.6,8.9,37.9,28.2,49.1C5785.7,234.2,5775.9,256.9,5736,256.9z"/>
			<path class="st0" d="M5905.8,141.9c0,9.8-2,22.1-8.9,31c5.2,2.3,10.6,6.9,14.7,11.5c0,46.3-30.8,72.4-78.2,72.4
				c-48.9,0-71-37.4-71-77.3c0-54,27.9-88.5,82.5-88.5C5882.6,91.1,5905.8,116.1,5905.8,141.9z"/>
			<path class="st0" d="M5946.7,256.9c-30.5,0-47.4-14.1-50.3-27.6c9.2-15.8,15.8-30.5,15.8-51.7c0-14.1-10.1-31.9-28.5-39.7
				c8.9-38.5,28.2-46.8,45.7-46.8c14.4,0,25,4,33.6,11.2c9.8-6.9,21.8-11.2,34.8-11.2c29.6,0,49.7,27.3,26.7,74.7
				c-8.9,6.3-18.7,11.2-28.2,11.2c-11.8,0-19.8-5.7-25.6-13.8c0.6,16.7,4.9,39.7,28.5,49.1C5995.8,245.4,5969.9,256.9,5946.7,256.9z
				"/>
			<path class="st0" d="M6163.9,141.9c0,9.8-2,22.1-8.9,31c5.2,2.3,10.6,6.9,14.7,11.5c0,46.3-30.8,72.4-78.2,72.4
				c-48.9,0-71-37.4-71-77.3c0-54,27.9-88.5,82.5-88.5C6140.7,91.1,6163.9,116.1,6163.9,141.9z"/>
			<path class="st0" d="M6241.8,176.1c-4-5.5-11.5-14.4-11.5-32.5c0-25.3,21.6-52.6,75.9-52.6c40.2,0,54.3,17,54.3,39.4
				c0,9.2-2.3,18.1-2.3,27.3c0,23.9,7.8,47.4,24.1,54.6c0,21.8-8.3,44.5-42,44.5c-15.8,0-26.7-4.9-33.9-9.8
				c-8.3,6-17.8,9.8-35.9,9.8c-25,0-44.5-13.5-44.5-41.7C6226,198,6234.4,183.6,6241.8,176.1z"/>
			<path class="st0" d="M6422,256.9c-30.5,0-47.4-14.1-50.3-27.6c9.2-15.8,15.8-30.5,15.8-51.7c0-14.1-10.1-31.9-28.5-39.7
				c8.9-38.5,28.2-46.8,45.7-46.8c14.4,0,25,4,33.6,11.2c9.8-6.9,21.8-11.2,34.8-11.2c29.6,0,49.7,27.3,26.7,74.7
				c-8.9,6.3-18.7,11.2-28.2,11.2c-11.8,0-19.8-5.7-25.6-13.8c0.6,16.7,4.9,39.7,28.5,49.1C6471.2,245.4,6445.3,256.9,6422,256.9z"
				/>
			<path class="st0" d="M6639.3,141.9c0,9.8-2,22.1-8.9,31c5.2,2.3,10.6,6.9,14.7,11.5c0,46.3-30.8,72.4-78.2,72.4
				c-48.9,0-71-37.4-71-77.3c0-54,27.9-88.5,82.5-88.5C6616,91.1,6639.3,116.1,6639.3,141.9z"/>
			<path class="st0" d="M6720.1,91.4c4.9-18.7,18.7-28.5,53.7-35.1c0.9,6.3,1.1,19.5,1.4,35.1c21.6,0,39.4,0.3,48.3-0.3
				c0.9,31-20.1,56.6-40.2,57.2c-2.3,0-4.9,0.3-8,0.3c-0.3,14.4-0.6,26.2-0.6,30.5c8.3,9.8,28.5,19,49.1,23.9
				c-3.4,38.8-38.8,54-70.7,54c-33.6,0-53.2-23-56-39.4c8.3-8,16.7-21.8,19.5-67.3c-14.1,0-24.4-1.1-24.4-4.3
				C6692.2,125.6,6704.6,94.2,6720.1,91.4z"/>
			<path class="st0" d="M6950,167.2c0,54-27.9,89.7-82.5,89.7c-48.9,0-71-37.4-71-77.3c0-54,27.9-88.5,82.5-88.5
				C6927.9,91.1,6950,127.3,6950,167.2z"/>
			<path class="st0" d="M7095.5,167.2c0,54-27.9,89.7-82.5,89.7c-48.9,0-71-37.4-71-77.3c0-54,27.9-88.5,82.5-88.5
				C7073.3,91.1,7095.5,127.3,7095.5,167.2z"/>
			<path class="st0" d="M7195.5,91.1c14.9,0,23,4.6,27.6,9.8c9.8-5.5,24.1-9.8,43.7-9.8c18.7,0,31.3,2.9,38.8,7.8
				c9.5-4.6,23-7.8,40.2-7.8c37.9,0,49.7,11.2,49.7,30.2c0,17.5-3.7,30.8-3.7,46.8c0,23.6,8.9,37.9,28.2,49.1
				c0,17-9.8,39.7-49.7,39.7c-19.3,0-32.2-4.6-42-10.9c-7.8,6.6-19.5,10.9-37.1,10.9c-18.4,0-31-4-40.5-10.1
				c-11.2,6.6-25,10.1-37.9,10.1c-30.5,0-47.4-14.1-50.3-27.6c9.2-15.8,12.9-29.3,12.9-51.7c0-17-7.2-31.9-22.7-39.7
				C7155.8,105.1,7177.9,91.1,7195.5,91.1z"/>
			<path class="st0" d="M7417.1,176.1c-4-5.5-11.5-14.4-11.5-32.5c0-25.3,21.6-52.6,75.9-52.6c40.2,0,54.3,17,54.3,39.4
				c0,9.2-2.3,18.1-2.3,27.3c0,23.9,7.8,47.4,24.1,54.6c0,21.8-8.3,44.5-42,44.5c-15.8,0-26.7-4.9-33.9-9.8
				c-8.3,6-17.8,9.8-35.9,9.8c-25,0-44.5-13.5-44.5-41.7C7401.3,198,7409.6,183.6,7417.1,176.1z"/>
			<path class="st0" d="M7580,91.1c14.9,0,23,4.6,27.6,9.8c9.8-5.5,24.1-9.8,43.7-9.8c37.9,0,49.7,11.2,49.7,30.2
				c0,17.5-3.7,30.8-3.7,46.8c0,23.6,8.9,37.9,28.2,49.1c0,17-9.8,39.7-49.7,39.7c-18.4,0-31-4-40.5-10.1
				c-11.2,6.6-25,10.1-37.9,10.1c-30.5,0-47.4-14.1-50.3-27.6c9.2-15.8,12.9-29.3,12.9-51.7c0-17-7.2-31.9-22.7-39.7
				C7540.4,105.1,7562.5,91.1,7580,91.1z"/>
			<path class="st0" d="M7760.8,326.2c-42,0-60.4-28.7-54.6-69.3c12.6-0.6,24.7-4.6,35.1-10.3c-8-6.6-14.9-16.4-14.7-32.5
				c0-10.1,1.4-25.9,1.4-32.2c0-20.7-18.1-35.1-30.2-40c0-17,9.8-50.9,52.6-50.9c14.4,0,25.6,4,33.1,11.8
				c10.3-6.3,23.6-11.8,38.8-11.8c18.1,0,36.8,10.3,42.5,26.7c-14.1,27-19.8,68.7-27.9,108.1
				C7825.8,278.7,7809.7,326.7,7760.8,326.2z"/>
			<path class="st0" d="M7974.4,256.9c-27.6,0-42.8-11.5-48.6-27.9c8.9-13.5,12.9-33.6,12.9-49.1c0-19.8-7.5-34.5-23-42.2
				c2-22.1,14.4-37.9,25.6-43.1c-15.2-4.3-27.9-19-34.5-34.8c6-32.8,29.6-42.5,47.1-42.5c19.5,0,37.1,3.2,45.1,27.9
				c-1.4,24.4-13.8,41.4-25.6,46.8c18.7,3.2,28.5,12.4,31,21.3c-9.2,15.8-12.9,36.8-12.9,52.3c0,19.8,12.9,38.5,28.5,49.1
				C8020.1,238.5,8003.4,256.9,7974.4,256.9z"/>
			<path class="st0" d="M8064.6,256.9c-52,0-61.2-23.9-61.2-42c0-16.4,8.3-25.9,20.1-33.9c-7.8-9.5-17.2-22.7-17.2-41.7
				c0-36.8,40.5-48.3,72.7-48.3c34.8,0,64.1,9.8,55.5,66.4c-3.7,2-8,6.3-16.4,8.9c11.5,8.3,23.6,21.8,23.6,41.7
				C8141.7,242.2,8109.2,256.9,8064.6,256.9z"/>
			<path class="st0" d="M8196.5,256.9c-52,0-61.2-23.9-61.2-42c0-16.4,8.3-25.9,20.1-33.9c-7.8-9.5-17.2-22.7-17.2-41.7
				c0-36.8,40.5-48.3,72.7-48.3c34.8,0,64.1,9.8,55.5,66.4c-3.7,2-8,6.3-16.4,8.9c11.5,8.3,23.6,21.8,23.6,41.7
				C8273.6,242.2,8241.1,256.9,8196.5,256.9z"/>
			<path class="st0" d="M8398.6,256.9c-12.1,0-29.6-3.4-38.5-10.1c-8.9,5.7-21,10.1-38.5,10.1c-35.1,0-49.7-14.1-49.7-33.1
				c0-14.7,9.8-24.1,9.8-46c0-13.8-12.1-29.9-28.5-38.2c0-17,14.4-48.6,49.7-48.6c22.1,0,34.5,7.2,42.2,16.1
				c10.9-10.1,23.3-16.1,39.7-16.1c15.8,0,35.4,8.6,44,22.1c-9.2,15.8-12.9,36.8-12.9,52.3c0,19.8,12.9,32.8,28.5,43.4
				C8444.3,232.8,8427.6,256.9,8398.6,256.9z"/>
			<path class="st0" d="M8569.6,141.9c0,9.8-2,22.1-8.9,31c5.2,2.3,10.6,6.9,14.7,11.5c0,46.3-30.8,72.4-78.2,72.4
				c-48.9,0-71-37.4-71-77.3c0-54,27.9-88.5,82.5-88.5C8546.3,91.1,8569.6,116.1,8569.6,141.9z"/>
			<path class="st0" d="M8620.2,256.9c-52,0-61.2-23.9-61.2-42c0-16.4,8.3-25.9,20.1-33.9c-7.8-9.5-17.2-22.7-17.2-41.7
				c0-36.8,40.5-48.3,72.7-48.3c34.8,0,64.1,9.8,55.5,66.4c-3.7,2-8,6.3-16.4,8.9c11.5,8.3,23.6,21.8,23.6,41.7
				C8697.2,242.2,8664.8,256.9,8620.2,256.9z"/>
			<path class="st0" d="M8925.7,257.5l-3.7,0.3c-34.8-5.7-45.1-9.5-50.6-11.8l-0.9-0.6c-6.6,5.7-13.8,9.5-21.8,12.1l-3.7,0.3
				c-34.8-5.7-45.1-9.5-50.6-11.8c-11.8-5.2-20.1-20.1-19.8-31.9c0.3-10.1,1.4-25.9,1.4-32.2c0-20.7-18.1-35.1-30.2-40
				c0-17,9.8-50.9,52.6-50.9c14.4,0,25.6,4,33.1,11.8c10.6-6.6,19.8-11.8,38.8-11.8c19.3,0,30.8,4,38.2,11.8
				c10.3-6.3,23.6-11.8,38.8-11.8c18.1,0,36.8,10.3,42.5,26.7c-9.5,15.8-18.7,40.8-18.7,59.2C8971.1,229,8951.3,248.9,8925.7,257.5z
				"/>
			<path class="st0" d="M9028,256.9c-27.6,0-42.8-11.5-48.6-27.9c8.9-13.5,12.9-33.6,12.9-49.1c0-19.8-7.5-34.5-23-42.2
				c2-22.1,14.4-37.9,25.6-43.1c-15.2-4.3-27.9-19-34.5-34.8c6-32.8,29.6-42.5,47.1-42.5c19.5,0,37.1,3.2,45.1,27.9
				c-1.4,24.4-13.8,41.4-25.6,46.8c18.7,3.2,28.5,12.4,31,21.3c-9.2,15.8-12.9,36.8-12.9,52.3c0,19.8,12.9,38.5,28.5,49.1
				C9073.7,238.5,9057.1,256.9,9028,256.9z"/>
			<path class="st0" d="M9076.6,91.4c4.9-18.7,18.7-28.5,53.7-35.1c0.9,6.3,1.1,19.5,1.4,35.1c21.6,0,39.4,0.3,48.3-0.3
				c0.9,31-20.1,56.6-40.2,57.2c-2.3,0-4.9,0.3-8,0.3c-0.3,14.4-0.6,26.2-0.6,30.5c8.3,9.8,28.5,19,49.1,23.9
				c-3.4,38.8-38.8,54-70.7,54c-33.6,0-53.2-23-56-39.4c8.3-8,16.7-21.8,19.5-67.3c-14.1,0-24.4-1.1-24.4-4.3
				C9048.7,125.6,9061.1,94.2,9076.6,91.4z"/>
			<path class="st0" d="M9285,256.9c-18.4,0-31-4-40.5-10.1c-11.2,6.6-25,10.1-37.9,10.1c-30.5,0-47.4-14.1-50.3-27.6
				c9.2-15.8,12.9-49.1,12.9-71.6c0-39.7-24.4-83.1-40-90.8c6-32.8,33.9-46.8,54.3-46.8c34.2,0,49.7,16.4,53.5,22.7
				c-4.3,8.3-12.4,20.7-13.8,54.9c9.5-4,21.8-6.6,37.4-6.6c37.9,0,49.7,11.2,49.7,30.2c0,17.5-3.7,30.8-3.7,46.8
				c0,23.6,8.9,37.9,28.2,49.1C9334.7,234.2,9324.9,256.9,9285,256.9z"/>
			<path class="st0" d="M9404.3,91.4c4.9-18.7,18.7-28.5,53.7-35.1c0.9,6.3,1.2,19.5,1.4,35.1c21.6,0,39.4,0.3,48.3-0.3
				c0.9,31-20.1,56.6-40.2,57.2c-2.3,0-4.9,0.3-8,0.3c-0.3,14.4-0.6,26.2-0.6,30.5c8.3,9.8,28.5,19,49.1,23.9
				c-3.4,38.8-38.8,54-70.7,54c-33.6,0-53.2-23-56-39.4c8.3-8,16.7-21.8,19.5-67.3c-14.1,0-24.4-1.1-24.4-4.3
				C9376.4,125.6,9388.8,94.2,9404.3,91.4z"/>
			<path class="st0" d="M9612.6,256.9c-18.4,0-31-4-40.5-10.1c-11.2,6.6-25,10.1-37.9,10.1c-30.5,0-47.4-14.1-50.3-27.6
				c9.2-15.8,12.9-49.1,12.9-71.6c0-39.7-24.4-83.1-40-90.8c6-32.8,33.9-46.8,54.3-46.8c34.2,0,49.7,16.4,53.5,22.7
				c-4.3,8.3-12.4,20.7-13.8,54.9c9.5-4,21.8-6.6,37.4-6.6c37.9,0,49.7,11.2,49.7,30.2c0,17.5-3.7,30.8-3.7,46.8
				c0,23.6,8.9,37.9,28.2,49.1C9662.4,234.2,9652.6,256.9,9612.6,256.9z"/>
			<path class="st0" d="M9693.1,256.9c-27.6,0-42.8-11.5-48.6-27.9c8.9-13.5,12.9-33.6,12.9-49.1c0-19.8-7.5-34.5-23-42.2
				c2-22.1,14.4-37.9,25.6-43.1c-15.2-4.3-27.9-19-34.5-34.8c6-32.8,29.6-42.5,47.1-42.5c19.5,0,37.1,3.2,45.1,27.9
				c-1.4,24.4-13.8,41.4-25.6,46.8c18.7,3.2,28.5,12.4,31,21.3c-9.2,15.8-12.9,36.8-12.9,52.3c0,19.8,12.9,38.5,28.5,49.1
				C9738.8,238.5,9722.2,256.9,9693.1,256.9z"/>
			<path class="st0" d="M9783.4,256.9c-52,0-61.2-23.9-61.2-42c0-16.4,8.3-25.9,20.1-33.9c-7.8-9.5-17.2-22.7-17.2-41.7
				c0-36.8,40.5-48.3,72.7-48.3c34.8,0,64.1,9.8,55.5,66.4c-3.7,2-8,6.3-16.4,8.9c11.5,8.3,23.6,21.8,23.6,41.7
				C9860.4,242.2,9827.9,256.9,9783.4,256.9z"/>
			<path class="st0" d="M9994.3,256.9c-36.5,0-67.5-17.2-73.3-33.6c6.3-15.8,12.6-37.7,12.6-76.5c0-45.7-18.7-71.6-31.3-82.2
				c3.2-35.6,28.2-52.6,54-52.6c25,0,42,14.4,50.6,36.5c-8,6.6-13.8,22.7-16.7,46.6c10.3-2.3,21.8-4,28.7-4
				c35.1,0,63.2,32.2,63.2,83.6C10082.3,214.4,10060.4,256.9,9994.3,256.9z"/>
			<path class="st0" d="M10093.8,176.1c-4-5.5-11.5-14.4-11.5-32.5c0-25.3,21.6-52.6,75.9-52.6c40.2,0,54.3,17,54.3,39.4
				c0,9.2-2.3,18.1-2.3,27.3c0,23.9,7.8,47.4,24.1,54.6c0,21.8-8.3,44.5-42,44.5c-15.8,0-26.7-4.9-33.9-9.8
				c-8.3,6-17.8,9.8-35.9,9.8c-25,0-44.5-13.5-44.5-41.7C10078,198,10086.3,183.6,10093.8,176.1z"/>
			<path class="st0" d="M10256.8,91.1c14.9,0,23,4.6,27.6,9.8c9.8-5.5,24.1-9.8,43.7-9.8c37.9,0,49.7,11.2,49.7,30.2
				c0,17.5-3.7,30.8-3.7,46.8c0,23.6,8.9,37.9,28.2,49.1c0,17-9.8,39.7-49.7,39.7c-18.4,0-31-4-40.5-10.1
				c-11.2,6.6-25,10.1-37.9,10.1c-30.5,0-47.4-14.1-50.3-27.6c9.2-15.8,12.9-29.3,12.9-51.7c0-17-7.2-31.9-22.7-39.7
				C10217.1,105.1,10239.2,91.1,10256.8,91.1z"/>
			<path class="st0" d="M10417.1,91.1c14.9,0,23,4.6,27.6,9.8c9.8-5.5,24.1-9.8,43.7-9.8c37.9,0,49.7,11.2,49.7,30.2
				c0,17.5-3.7,30.8-3.7,46.8c0,23.6,8.9,37.9,28.2,49.1c0,17-9.8,39.7-49.7,39.7c-18.4,0-31-4-40.5-10.1
				c-11.2,6.6-25,10.1-37.9,10.1c-30.5,0-47.4-14.1-50.3-27.6c9.2-15.8,12.9-29.3,12.9-51.7c0-17-7.2-31.9-22.7-39.7
				C10377.5,105.1,10399.6,91.1,10417.1,91.1z"/>
			<path class="st0" d="M10685.3,141.9c0,9.8-2,22.1-8.9,31c5.2,2.3,10.6,6.9,14.7,11.5c0,46.3-30.8,72.4-78.2,72.4
				c-48.9,0-71-37.4-71-77.3c0-54,27.9-88.5,82.5-88.5C10662,91.1,10685.3,116.1,10685.3,141.9z"/>
			<path class="st0" d="M10726.1,256.9c-30.5,0-47.4-14.1-50.3-27.6c9.2-15.8,15.8-30.5,15.8-51.7c0-14.1-10.1-31.9-28.5-39.7
				c8.9-38.5,28.2-46.8,45.7-46.8c14.4,0,25,4,33.6,11.2c9.8-6.9,21.8-11.2,34.8-11.2c29.6,0,49.7,27.3,26.7,74.7
				c-8.9,6.3-18.7,11.2-28.2,11.2c-11.8,0-19.8-5.7-25.6-13.8c0.6,16.7,4.9,39.7,28.5,49.1
				C10775.2,245.4,10749.4,256.9,10726.1,256.9z"/>
		</g>
		<g>
			<path class="st1" d="M5598.5,54.3c2.9,4.6,5.2,12.1,5.2,18.1c0,15.5-10.6,23-29,23.3c-33.6,0-74.7-4.3-99.2,3.2h-2.3
				c-0.9-2.6-3.4-7.5-3.4-16.1c0-11.5,4.9-27,30.5-27c31.3,0,89.1,4.3,96.6-1.4C5596.8,54.3,5598.5,54.3,5598.5,54.3z M5583.6,215.5
				v1.1c-3.2,15.5-21,29.6-45.7,29.6c-17.2,0-33.9-6.9-41.1-24.1v-1.7c11.2-4.9,25.3-17,33.6-33.1h2.6
				C5547.4,202,5567.5,212.6,5583.6,215.5z"/>
			<path class="st1" d="M5601.1,58.6c2-12.4,16.4-33.6,38.5-33.6c14.7,0,24.7,7.5,27.6,15.5v1.7c-10.9,13.8-18.1,33.1-23,47.4h-2.6
				c-10.1-14.1-20.4-21.8-40-30.2C5601.7,59.4,5601.1,58.6,5601.1,58.6z M5696.3,215.5v1.1c-3.2,15.5-23.9,29.6-42.8,29.6
				c-14.7,0-31.6-10.1-35.6-22.7c11.5-12.9,19.8-22.7,25.6-36.2h2.6C5660.3,203.2,5680.2,212.1,5696.3,215.5z M5710.4,101.7
				c22.4,0,33.9,7.8,37.1,15.8v2.6c-11.5,12.1-19.3,28.2-23.6,40.5h-2.6c-15.2-19.5-30.8-33.6-58.1-41.4
				C5670.7,110.3,5691.7,101.7,5710.4,101.7z M5772.4,215.5v1.1c-3.2,15.5-23.9,29.6-42.8,29.6c-14.7,0-29-10.1-33.1-22.7
				c11.5-10.3,19.8-22.7,25.6-36.2h2.6C5739.1,202,5756.3,212.6,5772.4,215.5z"/>
			<path class="st1" d="M5885.4,201.7h2.6c-1.4,22.1-15.2,44.5-54.3,44.5c-25,0-50-15.2-50-42.5c0-7.8,1.7-16.4,4.3-25.9h2.6
				c8.6,15.2,38.2,37.9,66.7,37.9C5861.2,215.8,5870.4,212.6,5885.4,201.7z M5787.1,146.2h-2.6c1.4-22.1,21-44.5,57.2-44.5
				c25,0,41.4,18.1,41.4,36.8c0,16.4-12.9,25-29.9,30.2l-2-1.7c0.6-2.3,0.9-4.6,0.9-6.9c0-16.7-17.2-27.9-39.7-27.9
				C5808.4,132.2,5802,132.5,5787.1,146.2z"/>
			<path class="st1" d="M5895.2,135.3c2-12.4,13.5-33.6,35.6-33.6c14.7,0,24.7,7.5,27.6,15.2c7.5-7.8,21.3-15.2,33.6-15.2
				c15.5,0,25.3,8.6,25.3,20.1c0,11.8-11.5,27.9-23.3,39.1h-2.6c-5.2-20.4-19.3-34.8-33.6-41.4c-10.6,13.5-17.5,27-22.4,41.1h-2.6
				c-10.1-11.2-17.5-16.1-37.1-24.4L5895.2,135.3z M5990,215.5v1.1c-3.2,15.5-23.9,29.6-44.3,29.6c-13.2,0-33.3-10.1-37.4-22.7
				c11.5-10.3,19.8-22.7,25.6-36.2h2.6C5950.9,202,5973.9,212.6,5990,215.5z"/>
			<path class="st1" d="M6143.5,201.7h2.6c-1.4,22.1-15.2,44.5-54.3,44.5c-25,0-50-15.2-50-42.5c0-7.8,1.7-16.4,4.3-25.9h2.6
				c8.6,15.2,38.2,37.9,66.7,37.9C6119.3,215.8,6128.5,212.6,6143.5,201.7z M6045.2,146.2h-2.6c1.4-22.1,21-44.5,57.2-44.5
				c25,0,41.4,18.1,41.4,36.8c0,16.4-12.9,25-29.9,30.2l-2-1.7c0.6-2.3,0.9-4.6,0.9-6.9c0-16.7-17.2-27.9-39.7-27.9
				C6066.5,132.2,6060.1,132.5,6045.2,146.2z"/>
			<path class="st1" d="M6375.7,215.5v1.1c-3.2,15.5-21.6,29.6-40.5,29.6c-12.6,0-25-8-30.8-16.7c-8,9.8-22.1,17.2-38.8,17.2
				c-16.7,0-31.6-10.6-31.6-27.9c0-9.8,8-25,23.9-31.6l2.3,1.7c7.8,16.1,19.8,29.6,44,35.9c9.2-9.8,17.2-21.8,21.3-37.7h2.6
				C6342.4,202,6359.6,212.6,6375.7,215.5z M6338.1,125.8c0,7.5-5.7,22.4-11.5,34.8h-2.6c-4.3-17-10.6-26.7-20.4-26.7
				c-14.4,0-39.4,4.9-59.2,23.9h-2.6c-1.4-4-2-8-2-11.8c0-23.9,23.9-44.3,56-44.3C6316.2,101.7,6338.1,108.9,6338.1,125.8z"/>
			<path class="st1" d="M6370.5,135.3c2-12.4,13.5-33.6,35.6-33.6c14.7,0,24.7,7.5,27.6,15.2c7.5-7.8,21.3-15.2,33.6-15.2
				c15.5,0,25.3,8.6,25.3,20.1c0,11.8-11.5,27.9-23.3,39.1h-2.6c-5.2-20.4-19.3-34.8-33.6-41.4c-10.6,13.5-17.5,27-22.4,41.1h-2.6
				c-10.1-11.2-17.5-16.1-37.1-24.4L6370.5,135.3z M6465.4,215.5v1.1c-3.2,15.5-23.9,29.6-44.3,29.6c-13.2,0-33.3-10.1-37.4-22.7
				c11.5-10.3,19.8-22.7,25.6-36.2h2.6C6426.3,202,6449.3,212.6,6465.4,215.5z"/>
			<path class="st1" d="M6618.9,201.7h2.6c-1.4,22.1-15.2,44.5-54.3,44.5c-25,0-50-15.2-50-42.5c0-7.8,1.7-16.4,4.3-25.9h2.6
				c8.6,15.2,38.2,37.9,66.7,37.9C6594.7,215.8,6603.9,212.6,6618.9,201.7z M6520.6,146.2h-2.6c1.4-22.1,21-44.5,57.2-44.5
				c25,0,41.4,18.1,41.4,36.8c0,16.4-12.9,25-29.9,30.2l-2-1.7c0.6-2.3,0.9-4.6,0.9-6.9c0-16.7-17.2-27.9-39.7-27.9
				C6541.8,132.2,6535.5,132.5,6520.6,146.2z"/>
			<path class="st1" d="M6706,135c4.9-11.8,35.9-48.6,54-62.9h1.7v32.2c24.7,0.3,35.6,0.3,39.4-0.3c0,20.7-14.4,31-33.9,31
				c-5.5,0-1.4-0.3-12.1,0c-5.2,8.3-9.2,17-12.1,25.6h-2.6c-10.1-11.2-14.1-16.4-33.9-24.7L6706,135z M6806.6,210.9l0.9,0.9
				c-5.5,21.3-26.7,34.5-50,34.5c-17.2,0-37.7-11.8-41.1-22.7c11.5-12.9,19.8-25.3,25.6-38.8h2.6
				C6763.7,203.7,6782.4,206.9,6806.6,210.9z"/>
			<path class="st1" d="M6923,201.7h2.6c-1.4,25-18.1,44.5-57.2,44.5c-25,0-50-15.2-50-42.5c0-7.8,1.7-16.4,4.3-25.9h2.6
				c8.6,15.2,42,37.9,70.4,37.9C6902,215.8,6908.9,211.8,6923,201.7z M6822.4,146.2h-2.6c1.4-25,18.1-44.5,57.2-44.5
				c25,0,50,15.2,50,42.5c0,7.8-1.7,16.4-4.3,25.9h-2.6c-8.6-15.2-42-37.9-70.4-37.9C6843.3,132.2,6836.4,136.2,6822.4,146.2z"/>
			<path class="st1" d="M7068.4,201.7h2.6c-1.4,25-18.1,44.5-57.2,44.5c-25,0-50-15.2-50-42.5c0-7.8,1.7-16.4,4.3-25.9h2.6
				c8.6,15.2,42,37.9,70.4,37.9C7047.4,215.8,7054.3,211.8,7068.4,201.7z M6967.8,146.2h-2.6c1.4-25,18.1-44.5,57.2-44.5
				c25,0,50,15.2,50,42.5c0,7.8-1.7,16.4-4.3,25.9h-2.6c-8.6-15.2-42-37.9-70.4-37.9C6988.8,132.2,6981.9,136.2,6967.8,146.2z"/>
			<path class="st1" d="M7161.2,135.3c2-12.4,13.5-33.6,35.6-33.6c13.5,0,23.3,6.3,26.7,13.8c9.5-7.5,27.3-13.8,43.4-13.8
				c20.7,0,32.2,6.6,36.2,14.1c9.5-7.8,27.3-14.1,43.4-14.1c22.4,0,33.9,7.8,37.1,15.8v2.6c-11.5,12.1-19.3,28.2-23.6,40.5h-2.6
				c-14.4-18.4-29-32.2-53.7-40.2c-11.5,12.1-19,27.9-23.3,40.2h-2.6c-14.7-18.7-29.3-32.5-54.6-40.2
				c-10.3,13.2-17.2,26.4-21.8,40.2h-2.6c-10.1-11.2-17.5-16.1-37.1-24.4L7161.2,135.3z M7253.5,215.5v1.1
				c-3.2,15.5-23.9,29.6-42.8,29.6c-14.7,0-31.6-10.1-35.6-22.7c11.5-12.9,19.8-22.7,25.6-36.2h2.6
				C7217.6,203.2,7237.4,212.1,7253.5,215.5z M7332.2,215.5v1.1c-3.2,15.5-23.9,29.6-42.8,29.6c-14.7,0-31.6-10.1-35.6-22.7
				c11.5-12.9,19.8-22.7,25.6-36.2h2.6C7296.3,203.2,7316.1,212.1,7332.2,215.5z M7409,215.5v1.1c-3.2,15.5-23.9,29.6-42.8,29.6
				c-14.7,0-29-10.1-33.1-22.7c11.5-10.3,19.8-22.7,25.6-36.2h2.6C7375.6,202,7392.9,212.6,7409,215.5z"/>
			<path class="st1" d="M7551,215.5v1.1c-3.2,15.5-21.6,29.6-40.5,29.6c-12.6,0-25-8-30.8-16.7c-8,9.8-22.1,17.2-38.8,17.2
				c-16.7,0-31.6-10.6-31.6-27.9c0-9.8,8-25,23.9-31.6l2.3,1.7c7.8,16.1,19.8,29.6,44,35.9c9.2-9.8,17.2-21.8,21.3-37.7h2.6
				C7517.6,202,7534.9,212.6,7551,215.5z M7513.3,125.8c0,7.5-5.7,22.4-11.5,34.8h-2.6c-4.3-17-10.6-26.7-20.4-26.7
				c-14.4,0-39.4,4.9-59.2,23.9h-2.6c-1.4-4-2-8-2-11.8c0-23.9,23.9-44.3,56-44.3C7491.5,101.7,7513.3,108.9,7513.3,125.8z"/>
			<path class="st1" d="M7545.8,135.3c2-12.4,13.5-33.6,35.6-33.6c13.5,0,23.3,6.3,26.7,13.8c9.5-7.5,27.3-13.8,43.4-13.8
				c22.4,0,33.9,7.8,37.1,15.8v2.6c-11.5,12.1-19.3,28.2-23.6,40.5h-2.6c-14.7-18.7-29.3-32.5-54.6-40.2
				c-10.3,13.2-17.2,26.4-21.8,40.2h-2.6c-10.1-11.2-17.5-16.1-37.1-24.4L7545.8,135.3z M7637.5,215.5v1.1
				c-3.2,15.5-23.9,29.6-42.8,29.6c-14.7,0-31.6-10.1-35.6-22.7c11.5-12.9,19.8-22.7,25.6-36.2h2.6
				C7601.5,203.2,7621.4,212.1,7637.5,215.5z M7713.6,215.5v1.1c-3.2,15.5-23.9,29.6-42.8,29.6c-14.7,0-29-10.1-33.1-22.7
				c11.5-10.3,19.8-22.7,25.6-36.2h2.6C7680.3,202,7697.5,212.6,7713.6,215.5z"/>
			<path class="st1" d="M7708.5,135c2-12.4,13.5-33.6,35.6-33.6c14.7,0,24.7,7.5,27.6,15.5v1.7c-10.9,13.8-18.1,27.3-23,41.7h-2.6
				c-10.1-11.2-17.2-16.1-37.1-24.4L7708.5,135z M7723.7,275.9c15.8,4,55.5,0.3,72.4-12.6l2.3,1.4c5.5,26.7-12.6,53.5-40.5,53.5
				c-17.8,0-38.2-15.5-36.5-40.8L7723.7,275.9z M7827.5,183.9c2.3,17.2-22.7,61.8-32.2,61.8c-13.5-3.4-51.2-14.4-51.2-21
				c0-5.7,2-25.3,7.8-40.8h3.4c6.6,8,21,19.5,43.1,27.6c10.3-5.2,21.8-16.1,25.3-27.6H7827.5z M7788.4,135
				c2-12.4,13.5-33.6,35.6-33.6c14.7,0,24.7,7.5,27.6,15.5v1.7c-10.9,13.8-18.1,27.3-23,41.7h-2.6c-10.1-11.2-17.2-16.1-37.1-24.4
				L7788.4,135z"/>
			<path class="st1" d="M7921.7,59.2c2.6-12.1,17.2-33.9,39.1-33.9c14.7,0,24.1,8.6,24.1,19.5c0,13.8-10.9,27.6-22.4,33.9h-1.1
				c-12.9-5.5-28.5-10.6-39.7-19C7921.7,59.7,7921.7,59.2,7921.7,59.2z M7923.7,135.3c2-12.4,13.5-33.6,35.6-33.6
				c14.7,0,24.7,7.5,27.6,15.5v1.7c-10.9,13.8-18.1,27.3-23,41.7h-2.6c-10.1-11.2-17.5-16.1-37.1-24.4L7923.7,135.3z M8012.8,215.5
				v1.1c-3.2,15.5-23.9,29.6-42.8,29.6c-14.7,0-29-10.1-33.1-22.7c11.5-10.3,19.8-22.7,25.6-36.2h2.6
				C7979.5,202,7996.7,212.6,8012.8,215.5z"/>
			<path class="st1" d="M8104.5,183.3c12.4,8.6,19.8,18.1,19.8,31.9c0,23.6-35.6,31-55.8,31c-18.7,0-52-4.9-52-25.9
				c0-8.6,4.3-20.1,9.5-25.3h2.6c18.7,14.7,57.5,18.4,66.1,18.4c7.5,0,9.8-18.1,7.2-27.6L8104.5,183.3z M8041,164.6
				c-12.4-8.6-19.8-18.1-19.8-31.9c0-23.6,35.6-31,55.8-31c15.8,0,46.3,4.9,46.3,25.9c0,8.6-4,19.3-9.5,24.4h-2.6
				c-18.7-14.7-51.7-17.5-60.4-17.5c-7.5,0-9.8,18.1-7.2,27.6L8041,164.6z"/>
			<path class="st1" d="M8236.5,183.3c12.4,8.6,19.8,18.1,19.8,31.9c0,23.6-35.6,31-55.8,31c-18.7,0-52-4.9-52-25.9
				c0-8.6,4.3-20.1,9.5-25.3h2.6c18.7,14.7,57.5,18.4,66.1,18.4c7.5,0,9.8-18.1,7.2-27.6L8236.5,183.3z M8172.9,164.6
				c-12.4-8.6-19.8-18.1-19.8-31.9c0-23.6,35.6-31,55.8-31c15.8,0,46.3,4.9,46.3,25.9c0,8.6-4,19.3-9.5,24.4h-2.6
				c-18.7-14.7-51.7-17.5-60.4-17.5c-7.5,0-9.8,18.1-7.2,27.6L8172.9,164.6z"/>
			<path class="st1" d="M8267.2,135.3c2-12.4,13.5-33.6,35.6-33.6c14.7,0,24.7,7.5,27.6,15.5v1.7c-10.9,13.8-18.1,27.3-23,41.7h-2.6
				c-10.1-11.2-17.5-16.1-37.1-24.4L8267.2,135.3z M8435.9,215.5v1.1c-3.2,15.5-22.7,29.6-40.8,29.6c-13.5,0-25-8-30.5-17
				c-9.2,10.1-27.9,17.5-44.5,17.5c-22.4,0-33.9-11.2-37.1-19.3V225c11.5-12.1,19.3-25.3,23.6-37.7h2.6
				c14.7,17.8,29.6,28.7,55.2,37.7c9.5-9.8,17.2-21.8,21.3-37.7h2.6C8402.6,202,8419.8,212.6,8435.9,215.5z M8346,135.3
				c2-12.4,13.5-33.6,35.6-33.6c14.7,0,24.7,7.5,27.6,15.5v1.7c-10.9,13.8-18.1,27.3-23,41.7h-2.6c-10.1-11.2-17.5-16.1-37.1-24.4
				L8346,135.3z"/>
			<path class="st1" d="M8549.2,201.7h2.6c-1.4,22.1-15.2,44.5-54.3,44.5c-25,0-50-15.2-50-42.5c0-7.8,1.7-16.4,4.3-25.9h2.6
				c8.6,15.2,38.2,37.9,66.7,37.9C8525,215.8,8534.2,212.6,8549.2,201.7z M8450.9,146.2h-2.6c1.4-22.1,21-44.5,57.2-44.5
				c25,0,41.4,18.1,41.4,36.8c0,16.4-12.9,25-29.9,30.2l-2-1.7c0.6-2.3,0.9-4.6,0.9-6.9c0-16.7-17.2-27.9-39.7-27.9
				C8472.1,132.2,8465.8,132.5,8450.9,146.2z"/>
			<path class="st1" d="M8660.1,183.3c12.4,8.6,19.8,18.1,19.8,31.9c0,23.6-35.6,31-55.8,31c-18.7,0-52-4.9-52-25.9
				c0-8.6,4.3-20.1,9.5-25.3h2.6c18.7,14.7,57.5,18.4,66.1,18.4c7.5,0,9.8-18.1,7.2-27.6L8660.1,183.3z M8596.6,164.6
				c-12.4-8.6-19.8-18.1-19.8-31.9c0-23.6,35.6-31,55.8-31c15.8,0,46.3,4.9,46.3,25.9c0,8.6-4,19.3-9.5,24.4h-2.6
				c-18.7-14.7-51.7-17.5-60.4-17.5c-7.5,0-9.8,18.1-7.2,27.6L8596.6,164.6z"/>
			<path class="st1" d="M8756.4,135c2-12.4,13.5-33.6,35.6-33.6c14.7,0,24.7,7.5,27.6,15.5v1.7c-10.9,13.8-18.1,27.3-23,41.7h-2.6
				c-10.1-11.2-17.2-16.1-37.1-24.4L8756.4,135z M8952.4,183.9c2.3,17.2-22.7,61.8-32.2,61.8c-13.5-3.4-51.2-14.4-51.2-21
				c0-2.6,0.3-7.5,1.1-13.8c-8.3,17.2-21,34.8-27,34.8c-13.5-3.4-51.2-14.4-51.2-21c0-5.7,2-25.3,7.8-40.8h3.4
				c6.6,8,21,19.5,43.1,27.6c10.3-5.2,24.1-16.1,27.6-27.6h3.4c6.6,8,23.9,19.5,46,27.6c10.3-5.2,21.8-16.1,25.3-27.6H8952.4z
				 M8830.5,135c2-12.4,13.5-33.6,35.6-33.6c14.7,0,24.7,7.5,27.6,15.5v1.7c-10.9,13.8-18.1,27.3-23,41.7h-2.6
				c-10.1-11.2-17.2-16.1-37.1-24.4L8830.5,135z M8911,135c2-12.4,13.5-33.6,35.6-33.6c14.7,0,24.7,7.5,27.6,15.5v1.7
				c-10.9,13.8-18.1,27.3-23,41.7h-2.6c-10.1-11.2-17.2-16.1-37.1-24.4L8911,135z"/>
			<path class="st1" d="M8975.4,59.2c2.6-12.1,17.2-33.9,39.1-33.9c14.7,0,24.1,8.6,24.1,19.5c0,13.8-10.9,27.6-22.4,33.9h-1.1
				c-12.9-5.5-28.5-10.6-39.7-19C8975.4,59.7,8975.4,59.2,8975.4,59.2z M8977.4,135.3c2-12.4,13.5-33.6,35.6-33.6
				c14.7,0,24.7,7.5,27.6,15.5v1.7c-10.9,13.8-18.1,27.3-23,41.7h-2.6c-10.1-11.2-17.5-16.1-37.1-24.4L8977.4,135.3z M9066.5,215.5
				v1.1c-3.2,15.5-23.9,29.6-42.8,29.6c-14.7,0-29-10.1-33.1-22.7c11.5-10.3,19.8-22.7,25.6-36.2h2.6
				C9033.2,202,9050.4,212.6,9066.5,215.5z"/>
			<path class="st1" d="M9062.5,135c4.9-11.8,35.9-48.6,54-62.9h1.7v32.2c24.7,0.3,35.6,0.3,39.4-0.3c0,20.7-14.4,31-33.9,31
				c-5.5,0-1.4-0.3-12.1,0c-5.2,8.3-9.2,17-12.1,25.6h-2.6c-10.1-11.2-14.1-16.4-33.9-24.7L9062.5,135z M9163.1,210.9l0.9,0.9
				c-5.5,21.3-26.7,34.5-50,34.5c-17.2,0-37.7-11.8-41.1-22.7c11.5-12.9,19.8-25.3,25.6-38.8h2.6
				C9120.3,203.7,9138.9,206.9,9163.1,210.9z"/>
			<path class="st1" d="M9150.2,58.6c2-12.4,16.4-33.6,38.5-33.6c14.7,0,24.7,7.5,27.6,15.5v1.7c-10.9,13.8-18.1,33.1-23,47.4h-2.6
				c-10.1-14.1-20.4-21.8-40-30.2C9150.7,59.4,9150.2,58.6,9150.2,58.6z M9245.3,215.5v1.1c-3.2,15.5-23.9,29.6-42.8,29.6
				c-14.7,0-31.6-10.1-35.6-22.7c11.5-12.9,19.8-22.7,25.6-36.2h2.6C9209.4,203.2,9229.2,212.1,9245.3,215.5z M9259.4,101.7
				c22.4,0,33.9,7.8,37.1,15.8v2.6c-11.5,12.1-19.3,28.2-23.6,40.5h-2.6c-15.2-19.5-30.8-33.6-58.1-41.4
				C9219.7,110.3,9240.7,101.7,9259.4,101.7z M9321.4,215.5v1.1c-3.2,15.5-23.9,29.6-42.8,29.6c-14.7,0-29-10.1-33.1-22.7
				c11.5-10.3,19.8-22.7,25.6-36.2h2.6C9288.1,202,9305.4,212.6,9321.4,215.5z"/>
			<path class="st1" d="M9390.1,135c4.9-11.8,35.9-48.6,54-62.9h1.7v32.2c24.7,0.3,35.6,0.3,39.4-0.3c0,20.7-14.4,31-33.9,31
				c-5.5,0-1.4-0.3-12.1,0c-5.2,8.3-9.2,17-12.1,25.6h-2.6c-10.1-11.2-14.1-16.4-33.9-24.7L9390.1,135z M9490.7,210.9l0.9,0.9
				c-5.5,21.3-26.7,34.5-50,34.5c-17.2,0-37.7-11.8-41.1-22.7c11.5-12.9,19.8-25.3,25.6-38.8h2.6
				C9447.9,203.7,9466.6,206.9,9490.7,210.9z"/>
			<path class="st1" d="M9477.8,58.6c2-12.4,16.4-33.6,38.5-33.6c14.7,0,24.7,7.5,27.6,15.5v1.7c-10.9,13.8-18.1,33.1-23,47.4h-2.6
				c-10.1-14.1-20.4-21.8-40-30.2C9478.4,59.4,9477.8,58.6,9477.8,58.6z M9572.9,215.5v1.1c-3.2,15.5-23.9,29.6-42.8,29.6
				c-14.7,0-31.6-10.1-35.6-22.7c11.5-12.9,19.8-22.7,25.6-36.2h2.6C9537,203.2,9556.8,212.1,9572.9,215.5z M9587,101.7
				c22.4,0,33.9,7.8,37.1,15.8v2.6c-11.5,12.1-19.3,28.2-23.6,40.5h-2.6c-15.2-19.5-30.8-33.6-58.1-41.4
				C9547.4,110.3,9568.3,101.7,9587,101.7z M9649.1,215.5v1.1c-3.2,15.5-23.9,29.6-42.8,29.6c-14.7,0-29-10.1-33.1-22.7
				c11.5-10.3,19.8-22.7,25.6-36.2h2.6C9615.8,202,9633,212.6,9649.1,215.5z"/>
			<path class="st1" d="M9640.5,59.2c2.6-12.1,17.2-33.9,39.1-33.9c14.7,0,24.1,8.6,24.1,19.5c0,13.8-10.9,27.6-22.4,33.9h-1.1
				c-12.9-5.5-28.5-10.6-39.7-19C9640.5,59.7,9640.5,59.2,9640.5,59.2z M9642.5,135.3c2-12.4,13.5-33.6,35.6-33.6
				c14.7,0,24.7,7.5,27.6,15.5v1.7c-10.9,13.8-18.1,27.3-23,41.7h-2.6c-10.1-11.2-17.5-16.1-37.1-24.4L9642.5,135.3z M9731.6,215.5
				v1.1c-3.2,15.5-23.9,29.6-42.8,29.6c-14.7,0-29-10.1-33.1-22.7c11.5-10.3,19.8-22.7,25.6-36.2h2.6
				C9698.3,202,9715.5,212.6,9731.6,215.5z"/>
			<path class="st1" d="M9823.3,183.3c12.4,8.6,19.8,18.1,19.8,31.9c0,23.6-35.6,31-55.8,31c-18.7,0-52-4.9-52-25.9
				c0-8.6,4.3-20.1,9.5-25.3h2.6c18.7,14.7,57.5,18.4,66.1,18.4c7.5,0,9.8-18.1,7.2-27.6L9823.3,183.3z M9759.8,164.6
				c-12.4-8.6-19.8-18.1-19.8-31.9c0-23.6,35.6-31,55.8-31c15.8,0,46.3,4.9,46.3,25.9c0,8.6-4,19.3-9.5,24.4h-2.6
				c-18.7-14.7-51.7-17.5-60.4-17.5c-7.5,0-9.8,18.1-7.2,27.6L9759.8,164.6z"/>
			<path class="st1" d="M9917.8,58.6c2-12.4,16.4-33.6,38.5-33.6c14.7,0,24.7,7.5,27.6,15.5v1.7c-10.9,13.8-18.1,33.1-23,47.4h-2.6
				c-10.1-14.1-20.4-21.8-40-30.2C9918.4,59.4,9917.8,58.6,9917.8,58.6z M10056.1,201.7h2.6c-1.4,25-18.1,44.5-57.2,44.5
				c-25,0-50-15.2-50-42.5c0-7.8,1.7-16.4,4.3-25.9h2.6c8.6,15.2,42,37.9,70.4,37.9C10035.1,215.8,10042,211.8,10056.1,201.7z
				 M9955.5,146.2h-2.6c1.4-25,18.1-44.5,57.2-44.5c25,0,50,15.2,50,42.5c0,7.8-1.7,16.4-4.3,25.9h-2.6c-8.6-15.2-42-37.9-70.4-37.9
				C9976.5,132.2,9969.6,136.2,9955.5,146.2z"/>
			<path class="st1" d="M10227.7,215.5v1.1c-3.2,15.5-21.6,29.6-40.5,29.6c-12.6,0-25-8-30.8-16.7c-8,9.8-22.1,17.2-38.8,17.2
				c-16.7,0-31.6-10.6-31.6-27.9c0-9.8,8-25,23.9-31.6l2.3,1.7c7.8,16.1,19.8,29.6,44,35.9c9.2-9.8,17.2-21.8,21.3-37.7h2.6
				C10194.3,202,10211.6,212.6,10227.7,215.5z M10190,125.8c0,7.5-5.7,22.4-11.5,34.8h-2.6c-4.3-17-10.6-26.7-20.4-26.7
				c-14.4,0-39.4,4.9-59.2,23.9h-2.6c-1.4-4-2-8-2-11.8c0-23.9,23.9-44.3,56-44.3C10168.2,101.7,10190,108.9,10190,125.8z"/>
			<path class="st1" d="M10222.5,135.3c2-12.4,13.5-33.6,35.6-33.6c13.5,0,23.3,6.3,26.7,13.8c9.5-7.5,27.3-13.8,43.4-13.8
				c22.4,0,33.9,7.8,37.1,15.8v2.6c-11.5,12.1-19.3,28.2-23.6,40.5h-2.6c-14.7-18.7-29.3-32.5-54.6-40.2
				c-10.3,13.2-17.2,26.4-21.8,40.2h-2.6c-10.1-11.2-17.5-16.1-37.1-24.4L10222.5,135.3z M10314.2,215.5v1.1
				c-3.2,15.5-23.9,29.6-42.8,29.6c-14.7,0-31.6-10.1-35.6-22.7c11.5-12.9,19.8-22.7,25.6-36.2h2.6
				C10278.3,203.2,10298.1,212.1,10314.2,215.5z M10390.4,215.5v1.1c-3.2,15.5-23.9,29.6-42.8,29.6c-14.7,0-29-10.1-33.1-22.7
				c11.5-10.3,19.8-22.7,25.6-36.2h2.6C10357,202,10374.3,212.6,10390.4,215.5z"/>
			<path class="st1" d="M10382.9,135.3c2-12.4,13.5-33.6,35.6-33.6c13.5,0,23.3,6.3,26.7,13.8c9.5-7.5,27.3-13.8,43.4-13.8
				c22.4,0,33.9,7.8,37.1,15.8v2.6c-11.5,12.1-19.3,28.2-23.6,40.5h-2.6c-14.7-18.7-29.3-32.5-54.6-40.2
				c-10.3,13.2-17.2,26.4-21.8,40.2h-2.6c-10.1-11.2-17.5-16.1-37.1-24.4L10382.9,135.3z M10474.6,215.5v1.1
				c-3.2,15.5-23.9,29.6-42.8,29.6c-14.7,0-31.6-10.1-35.6-22.7c11.5-12.9,19.8-22.7,25.6-36.2h2.6
				C10438.6,203.2,10458.5,212.1,10474.6,215.5z M10550.7,215.5v1.1c-3.2,15.5-23.9,29.6-42.8,29.6c-14.7,0-29-10.1-33.1-22.7
				c11.5-10.3,19.8-22.7,25.6-36.2h2.6C10517.4,202,10534.6,212.6,10550.7,215.5z"/>
			<path class="st1" d="M10664.8,201.7h2.6c-1.4,22.1-15.2,44.5-54.3,44.5c-25,0-50-15.2-50-42.5c0-7.8,1.7-16.4,4.3-25.9h2.6
				c8.6,15.2,38.2,37.9,66.7,37.9C10640.7,215.8,10649.9,212.6,10664.8,201.7z M10566.5,146.2h-2.6c1.4-22.1,21-44.5,57.2-44.5
				c25,0,41.4,18.1,41.4,36.8c0,16.4-12.9,25-29.9,30.2l-2-1.7c0.6-2.3,0.9-4.6,0.9-6.9c0-16.7-17.2-27.9-39.7-27.9
				C10587.8,132.2,10581.5,132.5,10566.5,146.2z"/>
			<path class="st1" d="M10674.6,135.3c2-12.4,13.5-33.6,35.6-33.6c14.7,0,24.7,7.5,27.6,15.2c7.5-7.8,21.3-15.2,33.6-15.2
				c15.5,0,25.3,8.6,25.3,20.1c0,11.8-11.5,27.9-23.3,39.1h-2.6c-5.2-20.4-19.3-34.8-33.6-41.4c-10.6,13.5-17.5,27-22.4,41.1h-2.6
				c-10.1-11.2-17.5-16.1-37.1-24.4L10674.6,135.3z M10769.5,215.5v1.1c-3.2,15.5-23.9,29.6-44.3,29.6c-13.2,0-33.3-10.1-37.4-22.7
				c11.5-10.3,19.8-22.7,25.6-36.2h2.6C10730.4,202,10753.4,212.6,10769.5,215.5z"/>
		</g>
		<g>
			<path class="st2" d="M5466.6,74.1c0.3-12.1,8.6-19.8,23.9-19.8c4.6-0.3,15.2,1.7,19,2.9V60c-10.3,11.8-20.4,24.7-27.9,40h-2.6
				C5474.4,93.7,5466.3,85,5466.6,74.1z M5560.9,239.4v0.9c-4.9,3.2-10.9,6-19.8,6c-11.8,0-22.7-9.2-22.7-29.9
				c0-10.1,0.3-54,0.3-58.9c0-5.5-0.3-41.4-0.3-42.5c0-16.1-0.6-37.9-0.9-51.7v-0.9c2.6-2.3,6.9-5.7,15.2-5.7
				c9.5,0,20.7,6,20.7,29.6c-0.3,12.6-0.3,51.2-0.3,55.5c0,3.4,0,32.5,0.3,43.1C5553.4,200.9,5554.9,225.6,5560.9,239.4
				L5560.9,239.4z M5589.1,100c-6.6-15.2-17.5-31-27.9-40v-2.9c2.9-1.1,14.4-3.2,19-2.9c15.2,0,23.6,7.8,23.9,19.8
				c0.3,10.9-7.8,19.5-12.4,25.9C5591.6,100,5589.1,100,5589.1,100z"/>
			<path class="st2" d="M5661.8,185.1c0,16.1,1.4,40.8,7.5,54.6v0.9c-4.9,3.2-10.6,6-19.5,6c-11.8,0-20.7-9.2-20.7-29.9
				c0-10.1,0.3-62.7,0.3-67.5c0-5.5-0.3-50-0.3-51.2c0-16.1-1.4-40.8-7.5-54.6v-0.9c4.9-2.9,10.6-6,19.5-6
				c11.8,0,20.7,9.2,20.7,29.9c-0.3,12.6-0.3,62.7-0.3,67C5661.5,136.8,5661.5,174.4,5661.8,185.1z M5708.6,181.3
				c0-5.5-0.6-25-0.6-31.9c0-20.1-8.6-35.4-9.8-37.9v-0.6c3.2-3.2,9.5-8,21.6-8c17.2,0,22.4,15.8,22.4,29.9c0,17-1.7,35.4-1.7,52
				c0,16.1,1.7,40.8,7.8,54.6v0.9c-4.9,3.2-10.6,6-19.5,6c-11.8,0-20.7-9.2-20.7-29.9C5708.1,206.3,5708.6,186.2,5708.6,181.3z"/>
			<path class="st2" d="M5776.2,179.6c0-48,17.5-61.8,31-61.8c5.2,0,10.3,2.3,12.4,4l0.6,1.1c-4,8.6-10.6,29.6-10.6,52.3
				c0,26.7,15.2,49.4,27.6,59.2v1.7c-6,4.9-12.1,7.8-20.7,7.8C5796.6,244,5776.2,213.8,5776.2,179.6z M5843.4,105.7
				c25.9-1.1,42.2,11.8,42.2,33.3c0,23.9-19,33.6-35.9,33.6c-14.7,0-24.7-3.2-27.3-4.9v-3.2c11.5-1.1,24.7-7.2,31-11.2
				c0.9-6.6-7.5-37.7-10.6-45.4L5843.4,105.7z"/>
			<path class="st2" d="M5913.6,107.7c4.9-2.9,10.6-6,19.5-6c11.8,0,20.7,9.2,20.7,29.9c-0.3,12.6-0.3,29.6-0.3,33.9
				c0,3.4,0,8.6,0.3,19.3c0,16.1,1.4,40.8,7.5,54.6v0.9c-4.9,3.2-10.6,6-19.5,6c-11.8,0-20.7-9.2-20.7-29.9
				c0-10.1,0.3-30.2,0.3-35.1c0-5.5-0.3-17-0.3-18.1c0-16.1-1.4-40.8-7.5-54.6C5913.6,108.6,5913.6,107.7,5913.6,107.7z
				 M6003.2,102.6c10.1,0,15.2,12.6,15.2,19.8c0,6-1.1,12.1-2.3,15.2l-0.6,0.6c-5.5,0-20.1,1.7-33.3,10.3l-0.9-0.6
				C5981.4,129,5985.7,102.6,6003.2,102.6z"/>
			<path class="st2" d="M6034.3,179.6c0-48,17.5-61.8,31-61.8c5.2,0,10.3,2.3,12.4,4l0.6,1.1c-4,8.6-10.6,29.6-10.6,52.3
				c0,26.7,15.2,49.4,27.6,59.2v1.7c-6,4.9-12.1,7.8-20.7,7.8C6054.7,244,6034.3,213.8,6034.3,179.6z M6101.5,105.7
				c25.9-1.1,42.2,11.8,42.2,33.3c0,23.9-19,33.6-35.9,33.6c-14.7,0-24.7-3.2-27.3-4.9v-3.2c11.5-1.1,24.7-7.2,31-11.2
				c0.9-6.6-7.5-37.7-10.6-45.4L6101.5,105.7z"/>
			<path class="st2" d="M6277.7,246c-25.9,1.1-42.2-11.8-42.2-33.3c0-23.9,19-33.6,35.9-33.6c14.7,0,24.7,3.2,27.3,4.9v3.2
				c-11.5,1.1-24.7,7.2-31,11.2c-0.9,6.6,7.5,37.7,10.6,45.4L6277.7,246z M6276.8,160.9c-4.6,2.9-12.1,4.9-19,4.9
				c-9.8,0-19-4.9-19-14.9c0-17.8,19-36.5,30.5-39.1l1.4,1.4c-1.7,11.5,1.7,38.5,6,46.8V160.9z M6355,239.4v0.9
				c-4.9,3.2-10.6,6-19.5,6c-11.8,0-20.7-9.2-20.7-29.9c0-27.6-0.6-66.7-0.6-70.1c0-12.9-8-26.7-14.9-33.9v-1.4
				c3.2-3.2,14.9-6.6,23.6-6.6c16.4,0,25.9,9.5,25.6,32.2l-0.9,48.3C6347.5,200.9,6349,225.6,6355,239.4z"/>
			<path class="st2" d="M6388.9,107.7c4.9-2.9,10.6-6,19.5-6c11.8,0,20.7,9.2,20.7,29.9c-0.3,12.6-0.3,29.6-0.3,33.9
				c0,3.4,0,8.6,0.3,19.3c0,16.1,1.4,40.8,7.5,54.6v0.9c-4.9,3.2-10.6,6-19.5,6c-11.8,0-20.7-9.2-20.7-29.9
				c0-10.1,0.3-30.2,0.3-35.1c0-5.5-0.3-17-0.3-18.1c0-16.1-1.4-40.8-7.5-54.6C6388.9,108.6,6388.9,107.7,6388.9,107.7z
				 M6478.6,102.6c10.1,0,15.2,12.6,15.2,19.8c0,6-1.2,12.1-2.3,15.2l-0.6,0.6c-5.5,0-20.1,1.7-33.3,10.3l-0.9-0.6
				C6456.8,129,6461.1,102.6,6478.6,102.6z"/>
			<path class="st2" d="M6509.7,179.6c0-48,17.5-61.8,31-61.8c5.2,0,10.3,2.3,12.4,4l0.6,1.1c-4,8.6-10.6,29.6-10.6,52.3
				c0,26.7,15.2,49.4,27.6,59.2v1.7c-6,4.9-12.1,7.8-20.7,7.8C6530.1,244,6509.7,213.8,6509.7,179.6z M6576.9,105.7
				c25.9-1.1,42.2,11.8,42.2,33.3c0,23.9-19,33.6-35.9,33.6c-14.7,0-24.7-3.2-27.3-4.9v-3.2c11.5-1.1,24.7-7.2,31-11.2
				c0.9-6.6-7.5-37.7-10.6-45.4L6576.9,105.7z"/>
			<path class="st2" d="M6751.4,246.3c-20.4,0-24.1-17.8-24.1-47.1V133h-20.4v-1.7c14.9-21.6,32.8-39.4,53.2-52.9h2.3
				c0,43.4-0.9,74.4,0,106.3c0,21.6,10.9,43.4,17.8,50.6v0.9C6773.2,242.2,6763.2,246.3,6751.4,246.3z"/>
			<path class="st2" d="M6810.9,179.6c0-48,17.5-61.8,31-61.8c5.2,0,10.3,2.3,12.4,4l0.6,1.1c-4,8.6-10.6,29.6-10.6,52.3
				c0,26.7,15.2,49.4,27.6,59.2v1.7c-6,4.9-12.1,7.8-20.7,7.8C6831.3,244,6810.9,213.8,6810.9,179.6z M6934.4,169.2
				c0,48-17.5,61.8-31,61.8c-5.2,0-10.3-2.3-12.4-4l-0.6-1.1c4-8.6,10.6-29.6,10.6-52.3c0-26.7-15.2-49.4-27.6-59.2v-1.7
				c6-4.9,12.1-7.8,20.7-7.8C6914,104.9,6934.4,135,6934.4,169.2z"/>
			<path class="st2" d="M6956.3,179.6c0-48,17.5-61.8,31-61.8c5.2,0,10.3,2.3,12.4,4l0.6,1.1c-4,8.6-10.6,29.6-10.6,52.3
				c0,26.7,15.2,49.4,27.6,59.2v1.7c-6,4.9-12.1,7.8-20.7,7.8C6976.7,244,6956.3,213.8,6956.3,179.6z M7079.9,169.2
				c0,48-17.5,61.8-31,61.8c-5.2,0-10.3-2.3-12.4-4l-0.6-1.1c4-8.6,10.6-29.6,10.6-52.3c0-26.7-15.2-49.4-27.6-59.2v-1.7
				c6-4.9,12.1-7.8,20.7-7.8C7059.5,104.9,7079.9,135,7079.9,169.2z"/>
			<path class="st2" d="M7179.6,107.7c4.9-2.9,10.6-6,19.5-6c11.8,0,20.7,9.2,20.7,29.9c-0.3,12.6-0.3,29.6-0.3,33.9
				c0,3.4,0,8.6,0.3,19.3c0,16.1,1.4,40.8,7.5,54.6v0.9c-4.9,3.2-10.6,6-19.5,6c-11.8,0-20.7-9.2-20.7-29.9
				c0-10.1,0.3-30.2,0.3-35.1c0-5.5-0.3-17-0.3-18.1c0-16.1-1.4-40.8-7.5-54.6C7179.6,108.6,7179.6,107.7,7179.6,107.7z
				 M7266.4,181.3c0-5.5-0.6-25-0.6-31.9c0-20.1-8.6-35.4-9.8-37.9v-0.6c3.2-3.2,9.5-8,21.6-8c17.2,0,22.4,15.8,22.4,29.9
				c0,17-1.7,35.4-1.7,52c0,16.1,1.7,40.8,7.8,54.6v0.9c-4.9,3.2-10.6,6-19.5,6c-11.8,0-20.7-9.2-20.7-29.9
				C7265.8,206.3,7266.4,186.2,7266.4,181.3z M7345.2,181.3c0-5.5-0.6-25-0.6-31.9c0-20.1-8.6-35.4-9.8-37.9v-0.6
				c3.2-3.2,9.5-8,21.6-8c17.2,0,22.4,15.8,22.4,29.9c0,17-1.7,35.4-1.7,52c0,16.1,1.7,40.8,7.8,54.6v0.9c-4.9,3.2-10.6,6-19.5,6
				c-11.8,0-20.7-9.2-20.7-29.9C7344.6,206.3,7345.2,186.2,7345.2,181.3z"/>
			<path class="st2" d="M7453,246c-25.9,1.1-42.2-11.8-42.2-33.3c0-23.9,19-33.6,35.9-33.6c14.7,0,24.7,3.2,27.3,4.9v3.2
				c-11.5,1.1-24.7,7.2-31,11.2c-0.9,6.6,7.5,37.7,10.6,45.4L7453,246z M7452.1,160.9c-4.6,2.9-12.1,4.9-19,4.9
				c-9.8,0-19-4.9-19-14.9c0-17.8,19-36.5,30.5-39.1l1.4,1.4c-1.7,11.5,1.7,38.5,6,46.8V160.9z M7530.3,239.4v0.9
				c-4.9,3.2-10.6,6-19.5,6c-11.8,0-20.7-9.2-20.7-29.9c0-27.6-0.6-66.7-0.6-70.1c0-12.9-8-26.7-14.9-33.9v-1.4
				c3.2-3.2,14.9-6.6,23.6-6.6c16.4,0,25.9,9.5,25.6,32.2l-0.9,48.3C7522.8,200.9,7524.2,225.6,7530.3,239.4z"/>
			<path class="st2" d="M7564.2,107.7c4.9-2.9,10.6-6,19.5-6c11.8,0,20.7,9.2,20.7,29.9c-0.3,12.6-0.3,29.6-0.3,33.9
				c0,3.4,0,8.6,0.3,19.3c0,16.1,1.4,40.8,7.5,54.6v0.9c-4.9,3.2-10.6,6-19.5,6c-11.8,0-20.7-9.2-20.7-29.9
				c0-10.1,0.3-30.2,0.3-35.1c0-5.5-0.3-17-0.3-18.1c0-16.1-1.4-40.8-7.5-54.6C7564.2,108.6,7564.2,107.7,7564.2,107.7z M7651,181.3
				c0-5.5-0.6-25-0.6-31.9c0-20.1-8.6-35.4-9.8-37.9v-0.6c3.2-3.2,9.5-8,21.6-8c17.2,0,22.4,15.8,22.4,29.9c0,17-1.7,35.4-1.7,52
				c0,16.1,1.7,40.8,7.8,54.6v0.9c-4.9,3.2-10.6,6-19.5,6c-11.8,0-20.7-9.2-20.7-29.9C7650.4,206.3,7651,186.2,7651,181.3z"/>
			<path class="st2" d="M7712.8,111.8c4-5.2,10.6-9.5,18.4-9.5c11.8,0,18.7,10.3,23.6,23.3c5.7,15.5,10.9,33.9,12.1,69.6
				c0.6,15.5-7.5,33.1-11.8,40.5l-2-0.6c-10.1-41.1-22.7-92-33.3-111.8c-2.6-4.9-5.7-9.5-6.9-10.3
				C7712.8,112.9,7712.8,111.8,7712.8,111.8z M7812.2,246.6c-8.9,26.4-24.4,63.8-47.7,63.8c-15.5,0-23.9-10.3-23-25.3l1.1-1.4
				c18.1,0.6,35.1-16.4,46.6-43.7c10.1-23.6,20.4-63.2,20.4-99.7c0-14.9-3.7-23.6-7.2-31.6v-0.9c4.9-2.9,10.6-6,19.5-6
				c9.8,0,21.6,6.9,21.8,22.4C7844.4,151.7,7823.1,213.8,7812.2,246.6L7812.2,246.6z"/>
			<path class="st2" d="M7961.4,78.4c-9.5-4.6-24.4-26.4-25.3-40.8v-1.7c4.6-6,12.6-12.1,27.3-12.1c8,0,18.7,6,19,16.1
				c0.3,13.8-14.1,30.8-19,38.5C7963.4,78.4,7961.4,78.4,7961.4,78.4z M7937.5,107.7c4.9-2.9,10.6-6,19.5-6
				c11.8,0,20.7,9.2,20.7,29.9c-0.3,12.6-0.3,29.6-0.3,33.9c0,3.4,0,8.6,0.3,19.3c0,16.1,1.4,40.8,7.5,54.6v0.9
				c-4.9,3.2-10.6,6-19.5,6c-11.8,0-20.7-9.2-20.7-29.9c0-10.1,0.3-30.2,0.3-35.1c0-5.5-0.3-17-0.3-18.1c0-16.1-1.4-40.8-7.5-54.6
				C7937.5,108.6,7937.5,107.7,7937.5,107.7z"/>
			<path class="st2" d="M8031.2,189.9c4.3,10.3,19.5,32.8,25.3,37.9v2c-4.6,6-13.2,9.8-21.3,9.5c-9.5,0-19-9.5-19.3-19.5
				c-0.3-13.5,8.3-22.1,13.2-29.9H8031.2z M8034.7,123.5c11.8,18.1,28.5,29.6,46.3,37.9c24.7,11.8,45.4,20.1,45.4,41.7
				c0,11.2-5.5,19.3-10.6,23h-1.4c-14.9-16.7-30.8-29.3-49.1-39.4c-24.1-13.2-43.7-20.4-44-42c0-8.6,6-18.4,11.8-21.3H8034.7z
				 M8109.1,157.5c-4.3-10.6-19.3-32.5-25.3-37.9v-1.7c4.6-6,14.1-9.2,23-9.2c8,0,17.2,6,17.5,16.1c0.3,13.8-8.3,25-13.2,32.8
				L8109.1,157.5L8109.1,157.5z"/>
			<path class="st2" d="M8163.2,189.9c4.3,10.3,19.5,32.8,25.3,37.9v2c-4.6,6-13.2,9.8-21.3,9.5c-9.5,0-19-9.5-19.3-19.5
				c-0.3-13.5,8.3-22.1,13.2-29.9H8163.2z M8166.6,123.5c11.8,18.1,28.5,29.6,46.3,37.9c24.7,11.8,45.4,20.1,45.4,41.7
				c0,11.2-5.5,19.3-10.6,23h-1.4c-14.9-16.7-30.8-29.3-49.1-39.4c-24.1-13.2-43.7-20.4-44-42c0-8.6,6-18.4,11.8-21.3H8166.6z
				 M8241.1,157.5c-4.3-10.6-19.3-32.5-25.3-37.9v-1.7c4.6-6,14.1-9.2,23-9.2c8,0,17.2,6,17.5,16.1c0.3,13.8-8.3,25-13.2,32.8
				L8241.1,157.5L8241.1,157.5z"/>
			<path class="st2" d="M8325.3,166.9c0,5.5,0.6,25,0.6,31.9c0,20.1,8.6,35.4,9.8,37.9v0.6c-3.2,3.2-9.5,8-21.6,8
				c-17.2,0-22.4-15.8-22.4-29.9c0-17,1.7-35.4,1.7-52c0-16.1-1.7-40.8-7.8-54.6V108c4.9-3.2,10.6-6,19.5-6
				c11.8,0,20.7,9.2,20.7,29.9C8325.8,141.9,8325.3,162.1,8325.3,166.9z M8412.1,240.5c-4.9,2.9-10.6,6-19.5,6
				c-11.8,0-20.7-9.2-20.7-29.9c0.3-12.6,0.3-29.6,0.3-33.9c0-3.4,0-8.6-0.3-19.3c0-16.1-1.4-40.8-7.5-54.6V108
				c4.9-3.2,10.6-6,19.5-6c11.8,0,20.7,9.2,20.7,29.9c0,10.1-0.3,30.2-0.3,35.1c0,5.5,0.3,17,0.3,18.1c0,16.1,1.4,40.8,7.5,54.6
				V240.5z"/>
			<path class="st2" d="M8439.9,179.6c0-48,17.5-61.8,31-61.8c5.2,0,10.3,2.3,12.4,4l0.6,1.1c-4,8.6-10.6,29.6-10.6,52.3
				c0,26.7,15.2,49.4,27.6,59.2v1.7c-6,4.9-12.1,7.8-20.7,7.8C8460.4,244,8439.9,213.8,8439.9,179.6z M8507.2,105.7
				c25.9-1.1,42.2,11.8,42.2,33.3c0,23.9-19,33.6-35.9,33.6c-14.7,0-24.7-3.2-27.3-4.9v-3.2c11.5-1.1,24.7-7.2,31-11.2
				c0.9-6.6-7.5-37.7-10.6-45.4L8507.2,105.7z"/>
			<path class="st2" d="M8586.8,189.9c4.3,10.3,19.5,32.8,25.3,37.9v2c-4.6,6-13.2,9.8-21.3,9.5c-9.5,0-19-9.5-19.3-19.5
				c-0.3-13.5,8.3-22.1,13.2-29.9H8586.8z M8590.3,123.5c11.8,18.1,28.5,29.6,46.3,37.9c24.7,11.8,45.4,20.1,45.4,41.7
				c0,11.2-5.5,19.3-10.6,23h-1.4c-14.9-16.7-30.8-29.3-49.1-39.4c-24.1-13.2-43.7-20.4-44-42c0-8.6,6-18.4,11.8-21.3H8590.3z
				 M8664.7,157.5c-4.3-10.6-19.3-32.5-25.3-37.9v-1.7c4.6-6,14.1-9.2,23-9.2c8,0,17.2,6,17.5,16.1c0.3,13.8-8.3,25-13.2,32.8
				L8664.7,157.5L8664.7,157.5z"/>
			<path class="st2" d="M8769.3,111.8c4-5.2,10.6-9.5,18.4-9.5c11.8,0,18.7,10.3,23.6,23.3c5.7,15.5,8,33.9,9.2,69.6
				c0.6,15.5-4.6,33.1-8.9,40.5l-2-0.6c-10.1-41.1-22.7-92-33.3-111.8c-2.6-4.9-5.7-9.5-6.9-10.3
				C8769.3,112.9,8769.3,111.8,8769.3,111.8z M8843.8,111.8c4-5.2,10.6-9.5,18.4-9.5c11.8,0,19.8,10.3,23.6,23.3
				c4.6,15.5,4,33.9,5.2,69.6c0.6,15.5-4.6,33.1-8.9,37.7l-2-0.6c-10.1-38.2-19.8-89.1-29.3-108.9c-2.3-4.9-5.7-9.5-6.9-10.3V111.8z
				 M8921.9,231.9l-2.6-2.3c8.9-29.6,19.3-58.6,19.3-89.4c0-14.9-3.7-23.6-7.2-31.6v-0.9c4.9-2.9,10.6-6,19.5-6
				c9.8,0,19.5,6.9,19.8,22.4C8971.4,151.7,8949.8,217.8,8921.9,231.9L8921.9,231.9z"/>
			<path class="st2" d="M9015.1,78.4c-9.5-4.6-24.4-26.4-25.3-40.8v-1.7c4.6-6,12.6-12.1,27.3-12.1c8,0,18.7,6,19,16.1
				c0.3,13.8-14.1,30.8-19,38.5C9017.1,78.4,9015.1,78.4,9015.1,78.4z M8991.2,107.7c4.9-2.9,10.6-6,19.5-6
				c11.8,0,20.7,9.2,20.7,29.9c-0.3,12.6-0.3,29.6-0.3,33.9c0,3.4,0,8.6,0.3,19.3c0,16.1,1.4,40.8,7.5,54.6v0.9
				c-4.9,3.2-10.6,6-19.5,6c-11.8,0-20.7-9.2-20.7-29.9c0-10.1,0.3-30.2,0.3-35.1c0-5.5-0.3-17-0.3-18.1c0-16.1-1.4-40.8-7.5-54.6
				C8991.2,108.6,8991.2,107.7,8991.2,107.7z"/>
			<path class="st2" d="M9107.9,246.3c-20.4,0-24.1-17.8-24.1-47.1V133h-20.4v-1.7c14.9-21.6,32.8-39.4,53.2-52.9h2.3
				c0,43.4-0.9,74.4,0,106.3c0,21.6,10.9,43.4,17.8,50.6v0.9C9129.7,242.2,9119.7,246.3,9107.9,246.3z"/>
			<path class="st2" d="M9210.8,185.1c0,16.1,1.4,40.8,7.5,54.6v0.9c-4.9,3.2-10.6,6-19.5,6c-11.8,0-20.7-9.2-20.7-29.9
				c0-10.1,0.3-62.7,0.3-67.5c0-5.5-0.3-50-0.3-51.2c0-16.1-1.4-40.8-7.5-54.6v-0.9c4.9-2.9,10.6-6,19.5-6
				c11.8,0,20.7,9.2,20.7,29.9c-0.3,12.6-0.3,62.7-0.3,67C9210.5,136.8,9210.5,174.4,9210.8,185.1z M9257.6,181.3
				c0-5.5-0.6-25-0.6-31.9c0-20.1-8.6-35.4-9.8-37.9v-0.6c3.2-3.2,9.5-8,21.6-8c17.2,0,22.4,15.8,22.4,29.9c0,17-1.7,35.4-1.7,52
				c0,16.1,1.7,40.8,7.8,54.6v0.9c-4.9,3.2-10.6,6-19.5,6c-11.8,0-20.7-9.2-20.7-29.9C9257.1,206.3,9257.6,186.2,9257.6,181.3z"/>
			<path class="st2" d="M9435.6,246.3c-20.4,0-24.1-17.8-24.1-47.1V133H9391v-1.7c14.9-21.6,32.8-39.4,53.2-52.9h2.3
				c0,43.4-0.9,74.4,0,106.3c0,21.6,10.9,43.4,17.8,50.6v0.9C9457.4,242.2,9447.3,246.3,9435.6,246.3z"/>
			<path class="st2" d="M9538.4,185.1c0,16.1,1.4,40.8,7.5,54.6v0.9c-4.9,3.2-10.6,6-19.5,6c-11.8,0-20.7-9.2-20.7-29.9
				c0-10.1,0.3-62.7,0.3-67.5c0-5.5-0.3-50-0.3-51.2c0-16.1-1.4-40.8-7.5-54.6v-0.9c4.9-2.9,10.6-6,19.5-6
				c11.8,0,20.7,9.2,20.7,29.9c-0.3,12.6-0.3,62.7-0.3,67C9538.2,136.8,9538.2,174.4,9538.4,185.1z M9585.3,181.3
				c0-5.5-0.6-25-0.6-31.9c0-20.1-8.6-35.4-9.8-37.9v-0.6c3.2-3.2,9.5-8,21.6-8c17.2,0,22.4,15.8,22.4,29.9c0,17-1.7,35.4-1.7,52
				c0,16.1,1.7,40.8,7.8,54.6v0.9c-4.9,3.2-10.6,6-19.5,6c-11.8,0-20.7-9.2-20.7-29.9C9584.7,206.3,9585.3,186.2,9585.3,181.3z"/>
			<path class="st2" d="M9680.1,78.4c-9.5-4.6-24.4-26.4-25.3-40.8v-1.7c4.6-6,12.6-12.1,27.3-12.1c8,0,18.7,6,19,16.1
				c0.3,13.8-14.1,30.8-19,38.5C9682.2,78.4,9680.1,78.4,9680.1,78.4z M9656.3,107.7c4.9-2.9,10.6-6,19.5-6
				c11.8,0,20.7,9.2,20.7,29.9c-0.3,12.6-0.3,29.6-0.3,33.9c0,3.4,0,8.6,0.3,19.3c0,16.1,1.4,40.8,7.5,54.6v0.9
				c-4.9,3.2-10.6,6-19.5,6c-11.8,0-20.7-9.2-20.7-29.9c0-10.1,0.3-30.2,0.3-35.1c0-5.5-0.3-17-0.3-18.1c0-16.1-1.4-40.8-7.5-54.6
				C9656.3,108.6,9656.3,107.7,9656.3,107.7z"/>
			<path class="st2" d="M9750,189.9c4.3,10.3,19.5,32.8,25.3,37.9v2c-4.6,6-13.2,9.8-21.3,9.5c-9.5,0-19-9.5-19.3-19.5
				c-0.3-13.5,8.3-22.1,13.2-29.9H9750z M9753.4,123.5c11.8,18.1,28.5,29.6,46.3,37.9c24.7,11.8,45.4,20.1,45.4,41.7
				c0,11.2-5.5,19.3-10.6,23h-1.4c-14.9-16.7-30.8-29.3-49.1-39.4c-24.1-13.2-43.7-20.4-44-42c0-8.6,6-18.4,11.8-21.3H9753.4z
				 M9827.9,157.5c-4.3-10.6-19.3-32.5-25.3-37.9v-1.7c4.6-6,14.1-9.2,23-9.2c8,0,17.2,6,17.5,16.1c0.3,13.8-8.3,25-13.2,32.8
				L9827.9,157.5L9827.9,157.5z"/>
			<path class="st2" d="M9939.4,43.4v-0.9c2-2.3,7.8-6,16.7-6c11.8,0,20.7,9.2,20.7,29.9c-0.6,25.3,0.9,81.9,0.9,108.9
				c0.3,27.3,12.1,49.4,21,62.7v2c-2.6,2-6.9,2.9-10.3,2.9c-18.1,0-45.1-10.3-44.5-61.8c0-6,0.3-44.5,0.3-54.3
				C9944,110.6,9942.6,57.2,9939.4,43.4z M10067.6,169.2c0,48-17.5,61.8-31,61.8c-5.2,0-10.3-2.3-12.4-4l-0.6-1.1
				c4-8.6,10.6-29.6,10.6-52.3c0-26.7-15.2-49.4-27.6-59.2v-1.7c6-4.9,12.1-7.8,20.7-7.8C10047.2,104.9,10067.6,135,10067.6,169.2z"
				/>
			<path class="st2" d="M10129.7,246c-25.9,1.1-42.2-11.8-42.2-33.3c0-23.9,19-33.6,35.9-33.6c14.7,0,24.7,3.2,27.3,4.9v3.2
				c-11.5,1.1-24.7,7.2-31,11.2c-0.9,6.6,7.5,37.7,10.6,45.4L10129.7,246z M10128.8,160.9c-4.6,2.9-12.1,4.9-19,4.9
				c-9.8,0-19-4.9-19-14.9c0-17.8,19-36.5,30.5-39.1l1.4,1.4c-1.7,11.5,1.7,38.5,6,46.8V160.9z M10207,239.4v0.9
				c-4.9,3.2-10.6,6-19.5,6c-11.8,0-20.7-9.2-20.7-29.9c0-27.6-0.6-66.7-0.6-70.1c0-12.9-8-26.7-14.9-33.9v-1.4
				c3.2-3.2,14.9-6.6,23.6-6.6c16.4,0,25.9,9.5,25.6,32.2l-0.9,48.3C10199.5,200.9,10200.9,225.6,10207,239.4z"/>
			<path class="st2" d="M10240.9,107.7c4.9-2.9,10.6-6,19.5-6c11.8,0,20.7,9.2,20.7,29.9c-0.3,12.6-0.3,29.6-0.3,33.9
				c0,3.4,0,8.6,0.3,19.3c0,16.1,1.4,40.8,7.5,54.6v0.9c-4.9,3.2-10.6,6-19.5,6c-11.8,0-20.7-9.2-20.7-29.9
				c0-10.1,0.3-30.2,0.3-35.1c0-5.5-0.3-17-0.3-18.1c0-16.1-1.4-40.8-7.5-54.6C10240.9,108.6,10240.9,107.7,10240.9,107.7z
				 M10327.7,181.3c0-5.5-0.6-25-0.6-31.9c0-20.1-8.6-35.4-9.8-37.9v-0.6c3.2-3.2,9.5-8,21.6-8c17.2,0,22.4,15.8,22.4,29.9
				c0,17-1.7,35.4-1.7,52c0,16.1,1.7,40.8,7.8,54.6v0.9c-4.9,3.2-10.6,6-19.5,6c-11.8,0-20.7-9.2-20.7-29.9
				C10327.1,206.3,10327.7,186.2,10327.7,181.3z"/>
			<path class="st2" d="M10401.3,107.7c4.9-2.9,10.6-6,19.5-6c11.8,0,20.7,9.2,20.7,29.9c-0.3,12.6-0.3,29.6-0.3,33.9
				c0,3.4,0,8.6,0.3,19.3c0,16.1,1.4,40.8,7.5,54.6v0.9c-4.9,3.2-10.6,6-19.5,6c-11.8,0-20.7-9.2-20.7-29.9
				c0-10.1,0.3-30.2,0.3-35.1c0-5.5-0.3-17-0.3-18.1c0-16.1-1.4-40.8-7.5-54.6C10401.3,108.6,10401.3,107.7,10401.3,107.7z
				 M10488.1,181.3c0-5.5-0.6-25-0.6-31.9c0-20.1-8.6-35.4-9.8-37.9v-0.6c3.2-3.2,9.5-8,21.6-8c17.2,0,22.4,15.8,22.4,29.9
				c0,17-1.7,35.4-1.7,52c0,16.1,1.7,40.8,7.8,54.6v0.9c-4.9,3.2-10.6,6-19.5,6c-11.8,0-20.7-9.2-20.7-29.9
				C10487.5,206.3,10488.1,186.2,10488.1,181.3z"/>
			<path class="st2" d="M10555.6,179.6c0-48,17.5-61.8,31-61.8c5.2,0,10.3,2.3,12.4,4l0.6,1.1c-4,8.6-10.6,29.6-10.6,52.3
				c0,26.7,15.2,49.4,27.6,59.2v1.7c-6,4.9-12.1,7.8-20.7,7.8C10576,244,10555.6,213.8,10555.6,179.6z M10622.9,105.7
				c25.9-1.1,42.2,11.8,42.2,33.3c0,23.9-19,33.6-35.9,33.6c-14.7,0-24.7-3.2-27.3-4.9v-3.2c11.5-1.1,24.7-7.2,31-11.2
				c0.9-6.6-7.5-37.7-10.6-45.4L10622.9,105.7z"/>
			<path class="st2" d="M10693,107.7c4.9-2.9,10.6-6,19.5-6c11.8,0,20.7,9.2,20.7,29.9c-0.3,12.6-0.3,29.6-0.3,33.9
				c0,3.4,0,8.6,0.3,19.3c0,16.1,1.4,40.8,7.5,54.6v0.9c-4.9,3.2-10.6,6-19.5,6c-11.8,0-20.7-9.2-20.7-29.9
				c0-10.1,0.3-30.2,0.3-35.1c0-5.5-0.3-17-0.3-18.1c0-16.1-1.4-40.8-7.5-54.6C10693,108.6,10693,107.7,10693,107.7z M10782.7,102.6
				c10.1,0,15.2,12.6,15.2,19.8c0,6-1.1,12.1-2.3,15.2l-0.6,0.6c-5.5,0-20.1,1.7-33.3,10.3l-0.9-0.6
				C10760.8,129,10765.1,102.6,10782.7,102.6z"/>
		</g>
	</g>
</g>
</svg>
