<?xml version="1.0" encoding="UTF-8"?><svg xmlns="http://www.w3.org/2000/svg" width="1981.32262" height="397.28685" viewBox="0 0 1981.32262 397.28685"><g style="isolation:isolate;"><g id="a"><g><path d="M122.20632,397.28685C24.16244,397.28685,0,352.67919,0,309.46553c0-39.96099,28.80908-60.87075,54.83019-66.9115C31.59707,221.64427,0,184.47125,0,138.93421,0,65.51757,65.51746,44.14306,131.49956,44.14306c91.07396,0,120.3477,29.27368,120.3477,75.74002,0,36.24373-13.4752,61.8002-27.8798,71.09336-6.50524-4.18196-36.70834-15.7984-45.53694-14.86922l-.92932,1.85879c19.51582,9.29316,87.82129,40.42558,87.82129,124.9942,0,55.29493-48.32494,94.32663-143.11617,94.32663Z" style="fill:#fed764;"/><path d="M474.88944,395.89286c-19.51582,0-47.86022-5.57595-62.26479-16.26326-14.40452,9.29332-33.9204,16.26326-62.26484,16.26326-56.68887,0-80.38671-22.76858-80.38671-53.43638,0-23.69763,15.79856-39.03157,15.79856-74.34603,0-22.30375-19.51585-48.32476-46.00161-61.80004,0-27.41521,23.23312-78.5281,80.38663-78.5281,35.77913,0,55.7596,11.6166,68.30549,26.02112,17.65719-16.2631,37.63771-26.02112,64.12348-26.02112,25.55642,0,57.15359,13.93987,71.09341,35.77913-14.86916,25.55642-20.90981,59.47676-20.90981,84.56864,0,32.06166,20.90981,52.97155,46.00159,70.16407,0,38.567-26.95046,77.5987-73.88139,77.5987Z" style="fill:#fed764;"/><path d="M604.99529,395.89286c-49.25431,0-76.66942-22.76858-81.31602-44.60765,14.86927-25.55645,25.55647-49.25428,25.55647-83.63935,0-22.76844-16.2632-51.57764-46.00159-64.12342,14.40452-62.26495,45.53689-75.74013,73.88139-75.74013,23.23309,0,40.42564,6.50524,54.36551,18.12194,15.79856-11.15201,35.31438-18.12194,56.22425-18.12194,47.86022,0,80.38668,44.14295,43.21361,120.81247-14.40452,10.2225-30.20313,18.12178-45.53694,18.12178-19.05118,0-32.06171-9.29327-41.35498-22.30385,.92929,26.95051,7.89928,64.12353,46.00159,79.45736-5.57595,53.43627-47.39557,72.02278-85.03329,72.02278Z" style="fill:#fed764;"/><path d="M809.90964,395.89286c-49.25431,0-76.66936-22.76858-81.31597-44.60765,14.86916-25.55645,25.55642-49.25428,25.55642-83.63935,0-22.76844-16.2632-51.57764-46.00164-64.12342,14.40457-62.26495,45.53694-75.74013,73.88139-75.74013,23.23314,0,40.4258,6.50524,54.36556,18.12194,15.79856-11.15201,35.31438-18.12194,56.2243-18.12194,47.86016,0,80.38657,44.14295,43.2135,120.81247-14.40457,10.2225-30.20313,18.12178-45.53689,18.12178-19.05123,0-32.06182-9.29327-41.35514-22.30385,.9294,26.95051,7.89933,64.12353,46.0018,79.45736-5.57595,53.43627-47.39568,72.02278-85.03334,72.02278Z" style="fill:#fed764;"/><path d="M1176.52663,250.91806c0,87.35659-45.0724,144.9748-133.3582,144.9748-78.9928,0-114.77177-60.40629-114.77177-124.99433,0-87.35667,45.0723-143.11622,133.3582-143.11622,78.99269,0,114.77177,58.54747,114.77177,123.13575Z" style="fill:#fed764;"/><path d="M1379.11887,395.89286c-19.51582,0-47.86016-5.57595-62.26484-16.26326-14.40457,9.29332-33.9204,16.26326-62.26484,16.26326-56.68879,0-80.38657-22.76858-80.38657-53.43638,0-23.69763,15.79856-39.03157,15.79856-74.34603,0-22.30375-19.51593-48.32476-46.00169-61.80004,0-27.41521,23.23319-78.5281,80.38657-78.5281,35.77919,0,55.7596,11.6166,68.30549,26.02112,17.65725-16.2631,37.63777-26.02112,64.12353-26.02112,25.55647,0,57.15349,13.93987,71.09325,35.77913-14.86906,25.55642-20.90971,59.47676-20.90971,84.56864,0,32.06166,20.90971,52.97155,46.00169,70.16407,0,38.567-26.95057,77.5987-73.88144,77.5987Z" style="fill:#fed764;"/><path d="M1481.34497,127.78231c24.16238,0,37.17296,7.43464,44.6076,15.79856,15.79856-8.82862,39.03175-15.79856,70.62866-15.79856,61.33545,0,80.38679,18.12194,80.38679,48.78961,0,28.3445-6.04065,49.71896-6.04065,75.74013,0,38.10228,14.40457,61.33545,45.53678,79.45726,0,27.41513-15.79845,64.12355-80.38647,64.12355-29.73854,0-50.18365-6.50535-65.51752-16.26326-18.12184,10.68731-40.42564,16.26326-61.33555,16.26326-49.25415,0-76.66942-22.76858-81.31608-44.60765,14.86927-25.55645,20.91002-47.3956,20.91002-83.63935,0-27.4151-11.6167-51.57764-36.70837-64.12342,5.11125-52.97168,40.89033-75.74013,69.23478-75.74013Z" style="fill:#fed764;"/><path d="M1801.03322,123.60045c7.89923,0,15.79867,.46459,24.62729,1.85858-10.68741-13.47528-33.92061-33.45575-54.36583-42.28437,.9294-48.78945,56.68889-83.17465,94.32666-83.17465,49.25415,0,76.66942,23.23319,90.60929,59.01233-19.51582,16.2631-30.20324,65.982-30.20324,142.18672,0,73.41674,30.20324,106.87249,55.29522,119.41838-9.75802,52.97155-59.47708,75.74002-87.82153,75.74002-22.3038,0-37.63777-6.04054-52.50704-13.47518-8.36371,6.50524-28.80893,13.47518-56.68868,13.47518-78.99269,0-100.83179-61.33547-100.83179-139.86344,0-64.12348,39.96104-132.89356,117.55964-132.89356Z" style="fill:#fed764;"/></g><g><path d="M56.688,178.43352c-20.44501-13.01069-32.52588-28.34402-32.52588-50.64782,0-38.10183,48.32433-64.12321,99.43685-64.12321,58.08214,0,105.4775,20.90971,105.4775,54.8301,0,13.93924-6.50535,32.0616-10.6872,35.77834h-2.32349c-35.77876-13.93924-71.0924-24.16174-110.12405-24.16174-30.20281,0-46.46554,13.00984-46.46554,35.31364,0,3.25289,0,6.50492,.9294,9.75781l-3.71758,3.25289Z" style="fill:#6464ff;"/><path d="M197.01487,263.93029c20.90971,13.01069,32.99058,28.34402,32.99058,50.64782,0,38.10183-48.32433,64.12321-99.43685,64.12321-58.08214,0-105.47707-20.90971-105.47707-54.8301,0-13.94009,6.50492-32.0616,10.6872-35.77834h2.32306c35.77876,13.93924,71.09283,24.16174,110.12405,24.16174,30.20281,0,46.46554-13.00984,46.46554-35.31364,0-3.25289,0-6.50577-.92897-9.75781l3.25246-3.25289Z" style="fill:#6464ff;"/><path d="M263.46072,199.34323c3.25289-19.98031,21.8391-54.3654,57.61786-54.3654,23.69747,0,39.96062,12.0813,44.60717,25.09199v2.78734c-17.65725,22.3038-29.27342,44.1429-37.17286,67.37525h-4.18186c-16.26315-18.12152-28.34402-26.02053-59.94093-39.49592l-.9294-1.39324Z" style="fill:#6464ff;"/><path d="M536.21501,328.98289v1.85794c-5.11125,25.09199-36.70773,47.86048-65.98115,47.86048-21.8391,0-40.42532-13.01069-49.25373-27.41548-14.86906,16.26358-45.07187,28.34402-72.02222,28.34402-36.24304,0-54.82968-18.12152-59.94093-31.13136v-4.18228c18.58664-19.51561,31.13221-40.89002,38.10225-60.87032h4.18186c23.69747,28.80872,47.85963,46.46554,89.21435,60.87032,15.33376-15.79803,27.87932-35.31364,34.38467-60.87032h4.18186c23.23277,23.69789,51.11252,40.89002,77.13305,45.53699Z" style="fill:#6464ff;"/><path d="M390.77732,199.34323c3.25246-19.98031,21.83868-54.3654,57.61744-54.3654,23.69747,0,39.96062,12.0813,44.60717,25.09199v2.78734c-17.65682,22.3038-29.27342,44.1429-37.17243,67.37525h-4.18228c-16.26273-18.12152-28.34402-26.02053-59.9405-39.49592l-.9294-1.39324Z" style="fill:#6464ff;"/><path d="M522.7426,199.34323c3.25289-19.98031,21.8391-54.3654,57.61786-54.3654,23.69747,0,39.96062,12.0813,44.60717,24.62729,12.08087-12.54599,34.38467-24.62729,54.36498-24.62729,25.09156,0,40.89002,13.94009,40.89002,32.5263,0,19.05091-18.58664,45.07145-37.63755,63.19296h-4.18186c-8.36371-32.99015-31.13221-56.22335-54.36498-66.91055-17.19212,21.8391-28.34402,43.6782-36.24346,66.44585h-4.18186c-16.26315-18.12152-28.34402-26.02053-59.94093-39.49592l-.9294-1.39324Z" style="fill:#6464ff;"/><path d="M676.08015,328.98289v1.85794c-5.11125,25.09199-38.56695,47.86048-71.55753,47.86048-21.3744,0-53.90028-16.26358-60.40563-36.70858,18.58622-16.72742,32.0616-36.70773,41.35471-58.54684h4.18186c23.23277,23.69789,60.40563,40.89002,86.42658,45.53699Z" style="fill:#6464ff;"/><path d="M727.65694,199.34323c3.25289-19.98031,21.8391-54.3654,57.61786-54.3654,23.69747,0,39.96062,12.0813,44.60717,24.62729,12.08087-12.54599,34.38467-24.62729,54.36498-24.62729,25.09156,0,40.89002,13.94009,40.89002,32.5263,0,19.05091-18.58664,45.07145-37.63755,63.19296h-4.18186c-8.36371-32.99015-31.13221-56.22335-54.36498-66.91055-17.19255,21.8391-28.34402,43.6782-36.24346,66.44585h-4.18186c-16.26315-18.12152-28.34402-26.02053-59.94093-39.49592l-.9294-1.39324Z" style="fill:#6464ff;"/><path d="M880.9945,328.98289v1.85794c-5.11125,25.09199-38.56695,47.86048-71.55753,47.86048-21.3744,0-53.90028-16.26358-60.40563-36.70858,18.58622-16.72742,32.0616-36.70773,41.35471-58.54684h4.18186c23.23277,23.69789,60.40563,40.89002,86.42658,45.53699Z" style="fill:#6464ff;"/><path d="M1133.76848,306.6791h4.18228c-2.32349,40.42532-29.27427,72.02222-92.46723,72.02222-40.42532,0-80.85063-24.62729-80.85063-68.77019,0-12.54514,2.78776-26.48523,6.97004-41.81856h4.18186c13.93966,24.62644,67.83994,61.33502,113.84079,61.33502,10.2225,0,21.3744-6.50577,44.1429-22.7685Z" style="fill:#6464ff;"/><path d="M971.13824,217.00005h-4.18186c2.32306-40.42532,29.27342-72.02222,92.46638-72.02222,40.42532,0,80.85063,24.62729,80.85063,68.76934,0,12.54599-2.78734,26.48523-6.96962,41.81941h-4.18228c-13.93924-24.62729-67.83994-61.33502-113.84079-61.33502-10.2225,0-21.3744,6.50492-44.14248,22.7685Z" style="fill:#6464ff;"/><path d="M1167.68973,199.34323c3.25289-19.98031,21.8391-54.3654,57.61744-54.3654,23.69789,0,39.96062,12.0813,44.6076,25.09199v2.78734c-17.65682,22.3038-29.27342,44.1429-37.17243,67.37525h-4.18228c-16.26273-18.12152-28.34402-26.02053-59.94093-39.49592l-.9294-1.39324Z" style="fill:#6464ff;"/><path d="M1440.44444,328.98289v1.85794c-5.11168,25.09199-36.70858,47.86048-65.982,47.86048-21.83825,0-40.42532-13.01069-49.25373-27.41548-14.86863,16.26358-45.07145,28.34402-72.02137,28.34402-36.24389,0-54.8301-18.12152-59.94093-31.13136v-4.18228c18.58622-19.51561,31.13221-40.89002,38.10183-60.87032h4.18143c23.69789,28.80872,47.86048,46.46554,89.21435,60.87032,15.33418-15.79803,27.88017-35.31364,34.38509-60.87032h4.18143c23.23319,23.69789,51.11252,40.89002,77.1339,45.53699Z" style="fill:#6464ff;"/><path d="M1295.0059,199.34323c3.25289-19.98031,21.8391-54.3654,57.61829-54.3654,23.69704,0,39.96062,12.0813,44.60675,25.09199v2.78734c-17.65682,22.3038-29.27342,44.1429-37.17243,67.37525h-4.18228c-16.26273-18.12152-28.34402-26.02053-59.94093-39.49592l-.9294-1.39324Z" style="fill:#6464ff;"/><path d="M1426.97245,199.34323c3.25289-19.98031,21.8391-54.3654,57.61744-54.3654,21.8391,0,37.63798,10.2225,43.2135,22.3038,15.33418-12.0813,44.1429-22.3038,70.16343-22.3038,36.24304,0,54.82925,12.54599,59.94093,25.55668v4.18143c-18.58622,19.51561-31.13221,45.53699-38.10183,65.51645h-4.18228c-23.69704-30.20196-47.39494-52.50576-88.28495-65.05176-16.72742,21.3744-27.87932,42.74881-35.31364,65.05176h-4.18228c-16.26273-18.12152-28.34402-26.02053-59.94093-39.49592l-.9294-1.39324Z" style="fill:#6464ff;"/><path d="M1575.19833,328.98289v1.85794c-5.11083,25.09199-38.56653,47.86048-69.23404,47.86048-23.69704,0-51.11252-16.26358-57.61744-36.70858,18.58622-20.90971,32.0616-36.70773,41.35471-58.54684h4.18143c23.23319,25.55668,55.2948,39.96062,81.31533,45.53699Z" style="fill:#6464ff;"/><path d="M1698.33308,328.98289v1.85794c-5.11168,25.09199-38.56653,47.86048-69.23404,47.86048-23.69789,0-46.93024-16.26358-53.43601-36.70858,18.58622-16.72742,32.0616-36.70773,41.35471-58.54684h4.18228c23.23235,23.69789,51.11167,40.89002,77.13305,45.53699Z" style="fill:#6464ff;"/><path d="M1960.40314,328.98289v1.85794c-4.64698,25.09199-36.70858,47.86048-72.02222,47.86048-21.3744,0-36.70773-13.01069-45.0723-26.95078-13.00984,15.79888-35.31364,26.95078-58.08214,26.95078-35.77834,0-66.91055-33.9204-66.91055-73.41632,0-12.54599,2.78819-21.8391,9.29311-37.17243h4.18228c13.47454,23.69704,65.05176,73.41547,110.12405,77.13305,15.79803-15.79803,30.20196-35.31449,37.17243-61.79972h4.18143c23.23319,23.69789,51.11252,40.89002,77.1339,45.53699Z" style="fill:#6464ff;"/><path d="M1724.35616,217.00005h-4.18143c2.32349-40.42532,29.27342-72.02222,92.46638-72.02222,40.42532,0,80.85063,24.62729,80.85063,68.76934,0,12.54599-2.78734,26.48523-6.96962,41.81941h-4.18228c-13.93924-24.62729-67.83994-61.33502-113.84079-61.33502-10.2225,0-21.3744,6.50492-44.1429,22.7685Z" style="fill:#6464ff;"/><path d="M1807.06558,75.27909c3.25289-19.98031,26.48523-54.36455,62.26442-54.36455,23.69704,0,39.96062,12.08045,44.60675,25.09114v2.78819c-17.65682,22.3038-29.27342,53.43516-37.17243,76.66835h-4.18228c-16.26273-22.7685-32.99015-35.31364-64.58706-48.78903l-.9294-1.39409Z" style="fill:#6464ff;"/></g><g style="mix-blend-mode:multiply;"><path d="M52.5069,260.21138c8.82858,19.0511,35.31438,67.37599,46.00161,78.0633v1.85858c-7.89925,10.68728-23.69779,16.26323-39.49633,16.26323-14.40456,0-32.06174-10.6872-32.5264-37.63761-.46467-29.27382,14.86922-44.60762,23.69779-58.5475h2.32333Z" style="fill:#fe6464;"/><path d="M211.88626,336.41599c-23.69781-46.46623-58.08285-81.31597-93.39722-103.61982-46.46628-29.73843-87.35663-53.90097-87.35663-107.80184,0-21.83905,13.01057-32.99105,21.83915-39.0316h1.85865c26.4858,52.97147,64.58816,80.85127,103.15516,105.47845,42.28432,26.48581,79.45736,59.47687,79.92201,101.29654,0,23.23317-12.08124,38.567-23.69779,43.67826h-2.32333Z" style="fill:#fe6464;"/><path d="M205.84564,170.06668c-8.8286-18.58648-35.77906-67.37609-46.00161-77.5987v-2.78808c8.36392-10.68704,23.69779-17.19239,37.63771-16.72769,17.19249,0,33.92037,16.72769,34.38504,34.84974,.46467,28.34439-14.86922,48.32492-23.23317,62.26474h-2.78797Z" style="fill:#fe6464;"/><path d="M357.32974,250.45336c0,8.82862,.9294,40.42558,.9294,51.57759,0,32.52646,13.93987,57.15351,15.79851,61.33558v.92929c-5.11125,5.11123-15.33391,13.01056-34.84974,13.01056-27.87975,0-36.2437-25.55655-36.2437-48.32502,0-27.415,2.78797-57.15338,2.78797-84.10394,0-26.02112-2.78797-65.98221-12.54589-88.28596v-1.39399c7.89925-5.11125,17.19252-9.75781,31.59709-9.75781,19.05115,0,33.45575,14.86916,33.45575,48.32481,0,16.2632-.9294,48.78956-.9294,56.68889Z" style="fill:#fe6464;"/><path d="M497.65804,369.40704c-7.89933,4.64666-17.1926,9.75802-31.59712,9.75802-19.05118,0-33.45575-14.86924-33.45575-48.32502,.46464-20.44519,.46464-47.8603,.46464-54.83021,0-5.57595,0-13.93987-.46464-31.13242,0-26.02112-2.32333-65.98221-12.08119-88.28596v-1.39399c7.89923-5.11125,17.19249-9.75781,31.59707-9.75781,19.05113,0,33.4557,14.86916,33.4557,48.32481,0,16.2632-.4647,48.78956-.4647,56.68889,0,8.82862,.4647,27.41513,.4647,29.27371,0,26.02114,2.32333,65.98221,12.0813,88.28609v1.39388Z" style="fill:#fe6464;"/><path d="M552.48841,154.73287c7.89928-4.64666,17.19255-9.75791,31.59707-9.75791,19.05118,0,33.4557,14.86916,33.4557,48.32492-.46459,20.44506-.46459,47.86027-.46459,54.83021,0,5.57584,0,13.93987,.46459,31.1324,0,26.02104,2.32333,65.98211,12.0813,88.28599v1.39388c-7.89928,5.11136-17.19249,9.75802-31.59707,9.75802-19.05123,0-33.45575-14.86924-33.45575-48.32492,0-16.26323,.4647-48.78969,.4647-56.68889,0-8.82862-.4647-27.41516-.4647-29.27384,0-26.02112-2.32333-65.982-12.08124-88.28585v-1.39399Z" style="fill:#fe6464;"/><path d="M697.46321,146.36884c16.26326,0,24.62718,20.44517,24.62718,32.06187,0,9.75781-1.85869,19.51572-3.71732,24.62702l-.92929,.9294c-8.82868,0-32.52641,2.78787-53.90097,16.72774l-1.39399-.92918c0-30.66778,6.96999-73.41685,35.31438-73.41685Z" style="fill:#fe6464;"/><path d="M757.40276,154.73287c7.89928-4.64666,17.19249-9.75791,31.59707-9.75791,19.05123,0,33.4558,14.86916,33.4558,48.32492-.4647,20.44506-.4647,47.86027-.4647,54.83021,0,5.57584,0,13.93987,.4647,31.1324,0,26.02104,2.32328,65.98211,12.08119,88.28599v1.39388c-7.89933,5.11136-17.19255,9.75802-31.59712,9.75802-19.05118,0-33.45565-14.86924-33.45565-48.32492,0-16.26323,.46464-48.78969,.46464-56.68889,0-8.82862-.46464-27.41516-.46464-29.27384,0-26.02112-2.32333-65.982-12.0813-88.28585v-1.39399Z" style="fill:#fe6464;"/><path d="M902.37761,146.36884c16.26326,0,24.62718,20.44517,24.62718,32.06187,0,9.75781-1.85869,19.51572-3.71737,24.62702l-.92929,.9294c-8.82862,0-32.52641,2.78787-53.90102,16.72774l-1.39378-.92918c0-30.66778,6.96983-73.41685,35.31428-73.41685Z" style="fill:#fe6464;"/><path d="M952.55904,270.89858c0-77.5987,28.34455-99.9025,50.18376-99.9025,8.36392,0,16.72785,3.71726,19.98031,6.50524l.9294,1.85858c-6.50513,13.93998-17.19244,47.86043-17.19244,84.56875,0,43.21364,24.62708,79.92198,44.6076,95.72052v2.78797c-9.75802,7.89931-19.51582,12.54597-33.45559,12.54597-32.06192,0-65.05303-48.78972-65.05303-104.08452Z" style="fill:#fe6464;"/><path d="M1152.36139,249.92219c6.68105,77.31056-19.63796,101.9719-41.39607,103.8522-8.33276,.7201-16.98557-2.26326-20.46631-4.76082l-1.08586-1.77167c5.281-14.44828,13.00806-49.16281,9.84756-85.73493-3.72057-43.05309-31.4167-77.50488-52.68335-91.5245l-.24004-2.77762c9.04158-8.70997,18.3633-14.17952,32.25141-15.37971,31.94255-2.76042,69.01192,43.00757,73.77266,98.09704Z" style="fill:#fe6464;"/><path d="M1261.55923,250.45336c0,8.82862,.92929,40.42558,.92929,51.57759,0,32.52646,13.93987,57.15351,15.79856,61.33558v.92929c-5.11125,5.11123-15.33386,13.01056-34.84969,13.01056-27.87975,0-36.24367-25.55655-36.24367-48.32502,0-27.415,2.78797-57.15338,2.78797-84.10394,0-26.02112-2.78797-65.98221-12.54589-88.28596v-1.39399c7.89923-5.11125,17.19255-9.75781,31.59701-9.75781,19.05123,0,33.4557,14.86916,33.4557,48.32481,0,16.2632-.92929,48.78956-.92929,56.68889Z" style="fill:#fe6464;"/><path d="M1401.88758,369.40704c-7.89933,4.64666-17.19265,9.75802-31.59723,9.75802-19.05123,0-33.4558-14.86924-33.4558-48.32502,.4647-20.44519,.4647-47.8603,.4647-54.83021,0-5.57595,0-13.93987-.4647-31.13242,0-26.02112-2.32328-65.98221-12.08108-88.28596v-1.39399c7.89912-5.11125,17.19244-9.75781,31.59701-9.75781,19.05123,0,33.4558,14.86916,33.4558,48.32481,0,16.2632-.4647,48.78956-.4647,56.68889,0,8.82862,.4647,27.41513,.4647,29.27371,0,26.02114,2.32328,65.98221,12.0813,88.28609v1.39388Z" style="fill:#fe6464;"/><path d="M1456.7179,154.73287c7.89923-4.64666,17.19255-9.75791,31.59701-9.75791,19.05123,0,33.4557,14.86916,33.4557,48.32492-.46459,20.44506-.46459,47.86027-.46459,54.83021,0,5.57584,0,13.93987,.46459,31.1324,0,26.02104,2.32328,65.98211,12.0813,88.28599v1.39388c-7.89923,5.11136-17.19255,9.75802-31.59712,9.75802-19.05102,0-33.4557-14.86924-33.4557-48.32492,0-16.26323,.4647-48.78969,.4647-56.68889,0-8.82862-.4647-27.41516-.4647-29.27384,0-26.02112-2.32328-65.982-12.08119-88.28585v-1.39399Z" style="fill:#fe6464;"/><path d="M1597.04604,273.68655c0-8.82862-.92929-40.42569-.92929-51.57759,0-32.52636-13.93987-57.15364-15.79867-61.33555v-.92929c5.11136-5.11125,15.33397-13.01058,34.84979-13.01058,27.87975,0,36.24367,25.55642,36.24367,48.32492,0,27.41521-2.78797,57.15359-2.78797,84.10402,0,26.02104,2.78797,65.98211,12.54599,88.28599v1.39388c-7.89933,5.11136-17.19265,9.75802-31.59712,9.75802-19.05123,0-33.4557-14.86924-33.4557-48.32492,0-16.26323,.92929-48.78969,.92929-56.68889Z" style="fill:#fe6464;"/><path d="M1706.24207,270.89858c0-77.5987,28.34445-99.9025,50.18376-99.9025,8.36392,0,16.72785,3.71726,19.98031,6.50524l.9294,1.85858c-6.50535,13.93998-17.19255,47.86043-17.19255,84.56875,0,43.21364,24.62708,79.92198,44.6076,95.72052v2.78797c-9.75781,7.89931-19.51582,12.54597-33.4557,12.54597-32.06182,0-65.05282-48.78972-65.05282-104.08452Z" style="fill:#fe6464;"/><path d="M1900.93583,279.72707c0,26.02114,2.32328,65.98221,12.0813,88.28609v1.39388c-7.89923,5.11136-17.19255,9.75802-31.59712,9.75802-19.05113,0-33.4557-14.86924-33.4557-48.32502,0-16.26323,.4647-101.29644,.4647-109.19577,0-8.82862-.4647-80.85127-.4647-82.71006,0-26.02112-2.32349-65.982-12.0813-88.28591v-1.39388c7.89923-4.64671,17.19255-9.75797,31.59712-9.75797,19.05113,0,33.4557,14.86911,33.4557,48.32486-.4647,20.44522-.4647,101.2966-.4647,108.26653,0,5.5759,0,66.44681,.4647,83.63922Z" style="fill:#fe6464;"/></g></g></g></svg>