<?xml version="1.0" encoding="utf-8"?>
<!-- Generator: Adobe Illustrator 24.0.1, SVG Export Plug-In . SVG Version: 6.00 Build 0)  -->
<svg version="1.1" id="a" xmlns="http://www.w3.org/2000/svg" xmlns:xlink="http://www.w3.org/1999/xlink" x="0px" y="0px"
	 viewBox="0 0 13576.8 342.3" style="enable-background:new 0 0 13576.8 342.3;" xml:space="preserve">
<path d="M167,240.5h98.5l2.3-5.2L110.5,81.1h-3.9L3.7,78.8l-1,4.2l56.5,47.7l103.1,109.9L167,240.5L167,240.5z M417.6,240.5h65.7
	l-27.2-77.9l-3.4-1.6l-15.4,11.9l-42.6-48.6h44.6l1.9-3.3l-25.8-28.6l-3.7-0.3h-43.5L348,68h-26.6L294,117l2.1,3l18.1,7.5l98.4,113
	L417.6,240.5L417.6,240.5z M561.3,240.5h65.3l12.5-15.6l-22.3-77.9h8.6l68.9,91.4l8.1,2.2h68.9l5.3-4.4l-28.1-72.6l-3.4-1.6
	l-15.4,11.4l-49-67l-4.9-2.4l-60.5,2.2l-25.9,28l8.8,41h-6.3l-34.8-48l-49.1-72.8l-4.8-0.5l-94.6,3.7l-2.4,4.8l52.2,50.2l98.2,128
	L561.3,240.5L561.3,240.5z M757,141.5l60.1,85l51.1,16.7l103.3-2.7l31.2-37.1L946.8,128l-5.8-5.6l-47.8-18.8l-96.9,5.9L757,141.5
	L757,141.5z M810,140.9l6-9.5l57.4,10.9l63.9,71.4l-5.1,5.8l-59.3-22.1L842.3,154L810,140.9L810,140.9z M1065.6,239.5l78.3,1.6
	l10.6-9.2l-13.3-44.4l4.9,0.1l43.5,52.8h57.2l2.6-3.9l-17.5-71.3l-3.2-1.6l-15.5,10.6l-40.9-68.1h-82.2l-3.6,3.9l25.3,37.8
	l13.5,44.2l-19.5,5.1l-56.5-91.6h-4.6l-76.7-1.3l-2.7,4l97.9,131.1L1065.6,239.5L1065.6,239.5z M1464.7,332.1l69.4-25.2l3.1-1.1
	l-81.4-131l-36.9-70.7l-4.4-0.7l-52.1,7.8l-76.3-7.8l-59.9,21.8l53.7,96.4l62.1,25.4l29.9-7.2l-17.9-5l-31.8,33.4l26.7,42.3
	L1464.7,332.1L1464.7,332.1z M1352.9,205.8l-15.6-5.3l-43.8-72.9l54,13L1352.9,205.8L1352.9,205.8z M1434.6,301.6l-26-20.5
	l-44.2-118.7h5.5l46.5,66.5l42.3,72.8L1434.6,301.6L1434.6,301.6z M1530.9,240.5h58.2l10.2-11.9l-9.9-80.8h7.9l51.4,87.7l9.3,5.1
	h57.8l4.8-3.3l-16.8-69.9l-3.1-1.7l-15.6,9.7l-35.5-66.4l-7.3-5.7l-51.7,1.7l-21.1,21.4l-0.7,49h-5.9l-26.7-54.3l-36.4-83l-4.3-1
	l-82.9,5.1l-2.2,4.3l41,50l75.2,144.2L1530.9,240.5L1530.9,240.5z M1772.8,240.5h55.4l-11.6-72.4l-2.9-1.7l-15.6,9.3l-28.8-53.6
	h38.5l1.4-3.2l-16.1-28l-2.4-1.1h-37.3l-13.5-28h-24.1l-29.7,50.1l1.4,3.5l16.6,9l64.6,116.1H1772.8L1772.8,240.5z M1889,132.4
	l35.9,91.9l45.3,18.8l77.8-2.9l30.2-31.5l-33.3-82.2l-4.8-5.7l-45.6-18.5l-69.2,4.8L1889,132.4L1889,132.4z M1934.2,135.8l8.4-5.9
	l44,13.2l40.3,72.3l-5.8,3.6l-46-21.1l-19.1-46.7L1934.2,135.8L1934.2,135.8z M2152.9,326.1l86.3,15l43.3-31.3l-17.8-65.9
	l-56.6-77.8l-61.6-11.4l-1.7-3.9l63.6-18.7l-1.4-5.3L2193,93.2l-5.2-1.6l-45.9,32.6l-15.4-49.4l-12.8-58l-4.5-1.6l-68,4.7l-3.6,3.3
	L2073,90l16,60.2l-16.8,13.6l25.2,11.9L2152.9,326.1L2152.9,326.1z M2210.3,310.6l-34.2-89.9l-26.5-33.3h10.6l60.6,72.8l-0.3,50.4
	H2210.3z M2350,240.5h46.8l1.5-67.6l-2.4-1.8l-15.8,7.1l-17.3-57.7h33.3l0.9-3.1l-8-27.6l-1.3-1.8h-32.1l-7.9-31.2h-21.9l-31.8,50.9
	l0.8,3.9l15.3,10.2l36.5,118.7L2350,240.5L2350,240.5z M2444.4,240.5h45.7l6.1-5.6l11.8-86h6.8l20.9,81.4l11.2,10.2h38.2l3.9-1.6
	l2.9-65.2l-2.5-1.8l-15.8,6.7l-11.9-65.5l-11.5-11.4l-36.3,0.7l-12.7,9.9l-17,62.9h-5.4l-12.3-65.4l-13.9-101l-3.3-2l-62.4,7.7
	l-1.9,3.5l21.3,49.7l34.7,172.6L2444.4,240.5L2444.4,240.5z M2645.8,243.3l42.2-2.8l6.2-71.3h5.3l20.1,71.3h40.5l3.4-1.3l6.7-64.5
	l-2.5-1.8l-15.9,6.3l-6.1-75.5l-3.8-1.9l-40.3,9.7l-50-9.7l-42.4,15.6l4.4,93.5L2645.8,243.3L2645.8,243.3z M2671.4,209.1l-12-8.1
	l-10.4-73.7l39,16L2671.4,209.1L2671.4,209.1z M2803.7,240.5h41.6l9.3-64.9l-2.1-1.8l-15.9,5.8l-10.5-60.2h30.3l0.6-3l-3.1-27.3
	l-0.6-2.3h-29.1l-4.5-33.1h-20.6l-33,51.5l0.5,4.1l14.5,10.9l19.6,120.2H2803.7L2803.7,240.5z M2961.8,243.1h3.1l31.9-2.6l2.6-0.7
	l40.4-101.6l-31.8,2.2l-11.6,59.5h-4.4l-31.8-96.3h-44.8l-2.6,0.6L2961.8,243.1L2961.8,243.1z M3041.1,242.8h3.1l30.9-2.6l2.6-0.7
	l40.6-103.3l1.2-35.5h-3.1l-43.9,2.6h-2.9l0.1,9.1l14.7,37.5l-8.7,49.7h-4.4l-31.5-96.3h-44.8l-2.6,0.6L3041.1,242.8L3041.1,242.8z
	 M3141.9,240.5h36.7l3.1-0.9l27.2-89.7h5.8l-0.8,76.8l12.7,13.8h24.2l3.2-0.3l16.8-61.8l-2.1-1.8l-16,4.5l4.9-64.9l-14.4-15.6
	l-25.3,0.1l-6.7,1.7l-28.8,72.9h-5l-2-73.3l2.2-98.8l-2.7-2.7l-47.8,9.4l-1.6,3l7.2,49.5l5.7,177.9L3141.9,240.5L3141.9,240.5z
	 M3290.4,240.5h34.7l19.7-61.2l-1.9-1.9l-20.4,5.2l8.5-79.6h-43.6v137.4L3290.4,240.5L3290.4,240.5z M3290.4,83.2h40.7l5.5-28.8
	l-5.7-4.6l-40.4,7.5l-3.9,0.7L3290.4,83.2z M3359.3,240.5h36.9L3419,180l-1.9-1.9l-16.8,4l3-80.1l6.3-98.7l-2.5-3l-45.2,9.4
	l-1.8,2.7l3,50.5l-6.8,177.1L3359.3,240.5L3359.3,240.5z M3452.1,240.5l59.1,0.3l33.8-41.5l-3-3.9l-16.4,6.8l-41.7,3.3l-10.5-27.5
	l14.1-58.2l18.5,9.3l2.4,29.3l-37.8,15.3l-4,11l60.5-6.4l20.6-20.4l2.1-42.5l-31-14.2l-49.7,4.3L3438,141l-5.6,68.6L3452.1,240.5
	L3452.1,240.5z M3605.3,179.2l51.8-40.4l15.3,2l-38,50.2l-7.6,30.9l11.9,18.6l35.6,0.6h3.2l33.1-59.1l-1.5-2.2l-23.6,3.6l16.8-35.2
	l12-21.8l-9.4-22.6l-43.8,0.9l6.6-20.7l-5-4.3l-45.3,9.8l6.6,36.9l-23.4,48.4L3605.3,179.2L3605.3,179.2z M3720.9,240.5h47.8
	l35.1-57.9l-1.3-2.4l-24.1,3.9l25.8-77.7l-2.6-1.3h-52.4L3718,239.2L3720.9,240.5L3720.9,240.5z M3755.6,86.4h48.5l14.4-29.5
	l-5.8-5.9l-51,7.4l-4.4,0.7L3755.6,86.4L3755.6,86.4z M3828.6,243.1l51.4-2.6l47.2-72.2h5.8l-23.1,70.6l2.8,1.6h47l38.2-57.3
	l-1.5-2.4l-20,2.9l17.9-74.6l24.3-97.7l-2.6-3.5l-57.8,8.6l-4.4,0.9l-4.2,57.9l-6.1,36.6l-28.8-8.8l-63.1,10.5l-41.3,91.3
	L3828.6,243.1L3828.6,243.1z M3875.1,208.9l-9.9-11.7l26.6-69.9l34.3,18L3875.1,208.9L3875.1,208.9z M4003.1,240.5h53.1l41.3-56.6
	l-1.1-2.6l-25.4,3.3l32.7-76.9l-2.6-1.8h-56.9l-43.6,132.8L4003.1,240.5L4003.1,240.5z M4051.6,87.7h51.6l18-29.8l-5.9-6.5
	l-55.2,7.3l-4.5,0.7L4051.6,87.7L4051.6,87.7z M4097.2,238.5l2.8,2h53.4l75.9-88.4h6.9l-25.6,68.3l10.7,20.1h38.4l44.3-56l-1.1-2.7
	l-23.5,2.5l25.5-59l-16.8-19.2h-35.5l-65.2,66.4h-6.6l25.7-64.3l-2.6-2h-56.7L4097.2,238.5L4097.2,238.5z M4334.5,341.9l104.1-11.1
	l3.8-0.6l55.2-145.8l42.3-75.6l-2.6-3.8l-56.1,10.1l-46.5-11.3l-70.1,9.5l-53.7,90l22.7,39.2l38.1-1.9l2.9-8.6l-64.9,35.4
	l-13.9,43.5L4334.5,341.9L4334.5,341.9z M4381.6,207.4l-9.3-12.1l35.2-67.7l38.5,17.7L4381.6,207.4L4381.6,207.4z M4378.6,311.4
	l-17-31l82.6-111.6h7.3l-35,63l-24.6,79.7L4378.6,311.4L4378.6,311.4z M4554.2,237.6l3,2.9h61.1l91.9-87.6h7.4l-33.4,65.3l10,22.2
	h41.2l94.3-87.6h7.6l-33.5,65.3l10.1,22.2h43.5l53.6-54.1l-0.9-3l-26.3,1.9l33-57.2l-17.4-20.7h-39.1l-77.9,64.1h-6.9l21.8-43.4
	l-17.4-20.7h-39.1l-76.6,64.1h-7.2l33.2-61.4l-2.6-2.9h-64.4L4554.2,237.6L4554.2,237.6z M4918,336.1l119.5-10.5l5.5-0.6l73.6-138.8
	l50.8-76.9l-2.6-3.2l-73.5,1.6h-2.7l-17.8,27.8l-67.9,63.9l-17.6-3l58.9-87.1l-2.3-3.2l-65.8,1.6h-3.3l-58.9,108.7l3.5,3.6
	l38.5,17.1l-56.9,27.4l-18.5,40.5L4918,336.1L4918,336.1z M4973.5,305.5l-16.5-31.2l101.2-104.6h7.6l-44.8,63.7l-32.8,72
	L4973.5,305.5z M5187.7,240.5h64.4l17-11.7l50.6,14.2l49.1-5.4l59.8-44.6l24.2-81.3l-2.6-4l-66-1h-4.8l-62.6,50.7h-7.6l22.1-36.7
	l51.4-78.8l-1.9-4.4l-82.9,4.8l-4.1,0.7l-15.9,40.7L5184.3,237L5187.7,240.5L5187.7,240.5z M5297.8,200.1l74.3-56.6h7.5l-27.9,57.6
	l-17.1,7.9L5297.8,200.1L5297.8,200.1z M5425.9,330.2l136.1-9.9l5.8-0.5l91.9-132.8l62.8-76.1l-2.6-3.9l-83.3,1.9h-2.7l-20.8,26
	l-80.2,62.9l-18-2.7l71.2-84.3l-2.2-3.9l-73.8,1.9h-3.4l-73.1,104.4l2.6,4l39.2,18.8l-62.9,24.5l-23.1,38.5L5425.9,330.2
	L5425.9,330.2z M5493,299.6l-15.8-27.1l119.7-102.7h8l-54.6,64.4l-41,65.4H5493L5493,299.6z M5716.6,243.1l91.4-2.6l62.2-36.6
	l-4.3-8.8l-30.6,8.4l-54-1.9l-13.6-18.2l29.6-47.6l19.1,3.8l20.9,24.5l39,4.1l36.6-36.1l-26.6-25.3l-90.6,4.1l-63.4,19.3l-54.2,71.1
	L5716.6,243.1L5716.6,243.1z M5865,240.5h79.2l72.1-50.2l-0.1-3.8l-32.6,0.7l67.1-73.2l-2.6-4.4h-80l-106,126.3L5865,240.5
	L5865,240.5z M5973.2,94.2h67.4l36.1-31.2l-6.1-9.1l-76.4,7l-5.5,0.6L5973.2,94.2L5973.2,94.2z M6066.9,243.1l97.7-2.6l66.6-35.9
	l-4.4-9.4l-33,8.6l-57.4-2.7l-13.8-18.5l33.3-45.5l19.7,4.1l21.9,25.2l41.4,4.3l39.6-36.2l-27.4-26.8l-96.6,4.3l-67.2,18l-61.2,69.8
	L6066.9,243.1L6066.9,243.1z M6224.5,240.5h77.3l78-48.9l-0.1-3.8l-28.6,0.2l56.6-60.4l69-64.9l-1.4-5.1l-98.1,3l-5,0.2l-22.4,37
	l-127.8,137.8L6224.5,240.5L6224.5,240.5z M6406.6,240.5l122.4,2.6l83.7-29.8l0.6-15.6l-42.5,7l-76.7-2l-4.6-21l59-54.7l21.8,10.6
	l-13.2,24.9l-69.4,8.3l-18.4,17.1l125.1-3.1l38.9-12.2l39.9-42l-34.4-22.3l-83.7,0.3L6449.2,134l-55.2,55.7L6406.6,240.5
	L6406.6,240.5z"/>
<path d="M6979.2,240.5h98.5l2.3-5.2L6922.6,81.1h-3.9l-102.9-2.3l-1,4.2l56.5,47.7l103.1,109.9L6979.2,240.5L6979.2,240.5z
	 M7229.7,240.5h65.7l-27.2-77.9l-3.4-1.6l-15.4,11.9l-42.6-48.6h44.6l1.8-3.3l-25.8-28.6l-3.7-0.3h-43.5L7160.1,68h-26.7l-27.3,49
	l2.1,3l18.1,7.5l98.4,113L7229.7,240.5L7229.7,240.5z M7373.4,240.5h65.3l12.5-15.6l-22.3-77.9h8.6l68.9,91.4l8.1,2.2h68.9l5.3-4.4
	l-28.1-72.6l-3.4-1.6l-15.4,11.4l-49-67l-4.9-2.4l-60.5,2.2l-25.9,28l8.8,41h-6.3l-34.8-48L7320,54.2l-4.8-0.5l-94.6,3.7l-2.4,4.8
	l52.2,50.2l98.2,128L7373.4,240.5L7373.4,240.5z M7569.1,141.5l60.1,85l51.1,16.7l103.3-2.7l31.2-37.1l-55.9-75.3l-5.8-5.6
	l-47.8-18.8l-96.9,5.9L7569.1,141.5L7569.1,141.5z M7622.1,140.9l6-9.5l57.4,10.9l63.9,71.4l-5.1,5.8l-59.3-22.1l-30.4-43.4
	L7622.1,140.9L7622.1,140.9z M7877.7,239.5l78.3,1.6l10.5-9.2l-13.3-44.4l4.9,0.1l43.5,52.8h57.2l2.6-3.9l-17.5-71.3l-3.2-1.6
	l-15.5,10.6l-40.9-68.1h-82.2l-3.6,3.9l25.3,37.8l13.5,44.2l-19.5,5.1l-56.5-91.6h-4.6l-76.7-1.3l-2.7,4l97.9,131.1L7877.7,239.5
	L7877.7,239.5z M8276.8,332.1l69.4-25.2l3-1.1l-81.4-131l-36.9-70.7l-4.4-0.7l-52.1,7.8l-76.3-7.8l-59.9,21.8l53.7,96.4l62.1,25.4
	l29.9-7.2l-18-5l-31.8,33.4l26.6,42.3L8276.8,332.1L8276.8,332.1z M8165,205.8l-15.5-5.3l-43.8-72.9l54,13L8165,205.8L8165,205.8z
	 M8246.8,301.6l-26-20.5l-44.1-118.7h5.5l46.5,66.5l42.3,72.8L8246.8,301.6L8246.8,301.6z M8343,240.5h58.2l10.2-11.9l-9.9-80.8h7.9
	l51.4,87.7l9.3,5.1h57.8l4.8-3.3l-16.8-69.9l-3.1-1.7l-15.5,9.7l-35.5-66.4l-7.3-5.7l-51.7,1.7l-21.1,21.4l-0.7,49h-5.9l-26.7-54.3
	l-36.4-83l-4.3-1l-82.9,5.1l-2.2,4.3l41,50l75.2,144.2L8343,240.5L8343,240.5z M8584.9,240.5h55.4l-11.6-72.4l-2.9-1.7l-15.6,9.3
	l-28.8-53.6h38.5l1.4-3.2l-16.1-28l-2.4-1.1h-37.3l-13.5-28H8528l-29.7,50.1l1.4,3.5l16.6,9l64.6,116.1H8584.9L8584.9,240.5z
	 M8701.1,132.4l35.9,91.9l45.3,18.8l77.8-2.9l30.2-31.5l-33.3-82.2l-4.8-5.7l-45.6-18.5l-69.2,4.8L8701.1,132.4L8701.1,132.4z
	 M8746.3,135.8l8.4-5.9l44,13.2l40.3,72.3l-5.8,3.6l-46-21.1l-19.1-46.7L8746.3,135.8L8746.3,135.8z M8965.1,326.1l86.3,15
	l43.3-31.3l-17.8-65.9l-56.6-77.8l-61.6-11.4l-1.7-3.9l63.6-18.7l-1.4-5.3l-14.1-33.6l-5.2-1.6l-45.9,32.6l-15.4-49.4l-12.8-58
	l-4.5-1.6l-68,4.7l-3.6,3.3l35.3,66.7l16,60.2l-16.8,13.6l25.2,11.9L8965.1,326.1L8965.1,326.1z M9022.4,310.6l-34.2-89.9
	l-26.5-33.3h10.6l60.6,72.8l-0.3,50.4H9022.4z M9162.1,240.5h46.8l1.5-67.6l-2.4-1.8l-15.8,7.1l-17.3-57.7h33.3l0.9-3.1l-8-27.6
	l-1.3-1.8h-32.1l-7.9-31.2h-21.9l-31.8,50.9l0.8,3.9l15.3,10.2l36.5,118.7L9162.1,240.5L9162.1,240.5z M9256.5,240.5h45.7l6.1-5.6
	l11.8-86h6.8l20.9,81.4l11.2,10.2h38.2l3.9-1.6l2.9-65.2l-2.5-1.8l-15.8,6.7l-11.9-65.5l-11.5-11.4l-36.3,0.7l-12.7,9.9l-17,62.9
	h-5.4l-12.3-65.4l-13.9-101l-3.3-2l-62.4,7.7l-1.8,3.5l21.3,49.7l34.7,172.6L9256.5,240.5L9256.5,240.5z M9457.9,243.3l42.2-2.8
	l6.2-71.3h5.3l20.1,71.3h40.5l3.4-1.3l6.7-64.5l-2.5-1.8l-15.9,6.3l-6.1-75.5l-3.8-1.9l-40.3,9.7l-50-9.7l-42.4,15.6l4.4,93.5
	L9457.9,243.3L9457.9,243.3z M9483.5,209.1l-12-8.1l-10.4-73.7l39,16L9483.5,209.1L9483.5,209.1z M9615.8,240.5h41.7l9.3-64.9
	l-2.1-1.8l-15.9,5.8l-10.5-60.2h30.3l0.7-3l-3.2-27.3l-0.6-2.3h-29.1l-4.5-33.1h-20.6l-33,51.5l0.5,4.1l14.5,10.9l19.6,120.2H9615.8
	L9615.8,240.5z M9774,243.1h3l31.9-2.6l2.6-0.7l40.3-101.6l-31.8,2.2l-11.6,59.5h-4.4l-31.8-96.3h-44.8l-2.6,0.6L9774,243.1
	L9774,243.1z M9853.2,242.8h3l30.9-2.6l2.6-0.7l40.6-103.3l1.2-35.5h-3l-43.9,2.6h-2.9l0.1,9.1l14.7,37.5l-8.7,49.7h-4.4l-31.5-96.3
	h-44.8l-2.6,0.6L9853.2,242.8L9853.2,242.8z M9954,240.5h36.7l3.1-0.9l27.2-89.7h5.8l-0.8,76.8l12.7,13.8h24.2l3.2-0.3l16.8-61.8
	l-2.1-1.8l-16,4.5l4.9-64.9l-14.4-15.6l-25.3,0.1l-6.7,1.7l-28.8,72.9h-5l-2-73.3l2.2-98.8l-2.7-2.7l-47.8,9.4l-1.6,3l7.2,49.5
	l5.7,177.9L9954,240.5L9954,240.5z M10102.5,240.5h34.7l19.7-61.2l-1.8-1.9l-20.5,5.2l8.5-79.6h-43.6v137.4L10102.5,240.5
	L10102.5,240.5z M10102.5,83.2h40.7l5.5-28.8l-5.7-4.6l-40.4,7.5l-3.9,0.7L10102.5,83.2z M10171.4,240.5h36.9l22.8-60.5l-1.9-1.9
	l-16.8,4l3-80.1l6.3-98.7l-2.5-3l-45.2,9.4l-1.8,2.7l3,50.5l-6.8,177.1L10171.4,240.5L10171.4,240.5z M10264.2,240.5l59.1,0.3
	l33.8-41.5l-3-3.9l-16.4,6.8l-41.7,3.3l-10.5-27.5l14.1-58.2l18.5,9.3l2.4,29.3l-37.8,15.3l-4,11l60.5-6.4l20.6-20.4l2.1-42.5
	l-31-14.2l-49.7,4.3l-31.3,35.5l-5.6,68.6L10264.2,240.5L10264.2,240.5z M10417.4,179.2l51.8-40.4l15.3,2l-38,50.2l-7.6,30.9
	l11.9,18.6l35.6,0.6h3.2l33.1-59.1l-1.5-2.2l-23.6,3.6l16.8-35.2l12-21.8l-9.4-22.6l-43.8,0.9l6.6-20.7l-5-4.3l-45.3,9.8l6.6,36.9
	l-23.4,48.4L10417.4,179.2L10417.4,179.2z M10533,240.5h47.8l35.1-57.9l-1.3-2.4l-24.1,3.9l25.8-77.7l-2.6-1.3h-52.4l-31.2,134.1
	L10533,240.5L10533,240.5z M10567.7,86.4h48.5l14.4-29.5l-5.8-5.9l-51,7.4l-4.4,0.7L10567.7,86.4L10567.7,86.4z M10640.7,243.1
	l51.4-2.6l47.2-72.2h5.8l-23.1,70.6l2.8,1.6h47l38.2-57.3l-1.5-2.4l-20,2.9l17.9-74.6l24.3-97.7l-2.6-3.5l-57.8,8.6l-4.4,0.9
	l-4.2,57.9l-6.1,36.6l-28.8-8.8l-63.1,10.5l-41.3,91.3L10640.7,243.1L10640.7,243.1z M10687.3,208.9l-9.9-11.7l26.6-69.9l34.3,18
	L10687.3,208.9L10687.3,208.9z M10815.3,240.5h53.1l41.3-56.6l-1.1-2.6l-25.4,3.3l32.7-76.9l-2.6-1.8h-56.9l-43.6,132.8
	L10815.3,240.5L10815.3,240.5z M10863.8,87.7h51.6l18-29.8l-5.9-6.5l-55.2,7.3l-4.5,0.7L10863.8,87.7L10863.8,87.7z M10909.3,238.5
	l2.8,2h53.4l75.9-88.4h6.9l-25.6,68.3l10.7,20.1h38.4l44.3-56l-1.1-2.7l-23.5,2.5l25.5-59l-16.8-19.2h-35.5l-65.2,66.4h-6.6
	l25.7-64.3l-2.6-2h-56.7L10909.3,238.5L10909.3,238.5z M11146.6,341.9l104.1-11.1l3.8-0.6l55.2-145.8l42.3-75.6l-2.6-3.8l-56.1,10.1
	l-46.5-11.3l-70.2,9.5l-53.7,90l22.7,39.2l38.1-1.9l2.9-8.6l-64.9,35.4l-13.9,43.5L11146.6,341.9L11146.6,341.9z M11193.7,207.4
	l-9.3-12.1l35.2-67.7l38.5,17.7L11193.7,207.4L11193.7,207.4z M11190.7,311.4l-17-31l82.6-111.6h7.3l-35,63l-24.6,79.7
	L11190.7,311.4L11190.7,311.4z M11366.3,237.6l3,2.9h61.1l91.9-87.6h7.4l-33.4,65.3l10,22.2h41.2l94.3-87.6h7.6l-33.5,65.3
	l10.1,22.2h43.5l53.6-54.1l-0.9-3l-26.3,1.9l33-57.2l-17.4-20.7h-39.1l-77.9,64.1h-6.9l21.8-43.4l-17.4-20.7h-39.1l-76.6,64.1h-7.2
	l33.2-61.4l-2.6-2.9h-64.4L11366.3,237.6L11366.3,237.6z M11730.1,336.1l119.5-10.5l5.5-0.6l73.6-138.8l50.8-76.9l-2.6-3.2
	l-73.5,1.6h-2.7l-17.8,27.8l-67.9,63.9l-17.6-3l58.9-87.1l-2.3-3.2l-65.8,1.6h-3.3l-58.9,108.7l3.5,3.6l38.5,17.1l-56.9,27.4
	l-18.5,40.5L11730.1,336.1L11730.1,336.1z M11785.6,305.5l-16.5-31.2l101.2-104.6h7.6l-44.8,63.7l-32.8,72L11785.6,305.5z
	 M11999.8,240.5h64.4l17-11.7l50.6,14.2l49.1-5.4l59.8-44.6l24.2-81.3l-2.6-4l-66-1h-4.8l-62.6,50.7h-7.6l22.1-36.7l51.4-78.8
	l-1.8-4.4l-82.9,4.8l-4.1,0.7l-15.9,40.7l-93.8,153.1L11999.8,240.5L11999.8,240.5z M12109.9,200.1l74.3-56.6h7.5l-27.9,57.6
	l-17.1,7.9L12109.9,200.1L12109.9,200.1z M12238.1,330.2l136.1-9.9l5.8-0.5l91.9-132.8l62.8-76.1l-2.6-3.9l-83.3,1.9h-2.7l-20.8,26
	l-80.2,62.9l-18-2.7l71.2-84.3l-2.2-3.9l-73.8,1.9h-3.4l-73.1,104.4l2.6,4l39.2,18.8l-62.9,24.5l-23.1,38.5L12238.1,330.2
	L12238.1,330.2z M12305.1,299.6l-15.8-27.1l119.7-102.7h8l-54.6,64.4l-41,65.4H12305.1L12305.1,299.6z M12528.7,243.1l91.4-2.6
	l62.2-36.6l-4.3-8.8l-30.6,8.4l-54-1.9l-13.6-18.2l29.6-47.6l19.1,3.8l20.9,24.5l39,4.1l36.6-36.1l-26.6-25.3l-90.6,4.1l-63.4,19.3
	l-54.2,71.1L12528.7,243.1L12528.7,243.1z M12677.1,240.5h79.2l72.1-50.2l-0.1-3.8l-32.6,0.7l67.1-73.2l-2.6-4.4h-80l-106,126.3
	L12677.1,240.5L12677.1,240.5z M12785.3,94.2h67.4l36.1-31.2l-6.1-9.1l-76.3,7l-5.5,0.6L12785.3,94.2L12785.3,94.2z M12879,243.1
	l97.7-2.6l66.6-35.9l-4.3-9.4l-33,8.6l-57.4-2.7l-13.8-18.5l33.3-45.5l19.7,4.1l21.9,25.2l41.4,4.3l39.6-36.2l-27.4-26.8l-96.6,4.3
	l-67.2,18l-61.2,69.8L12879,243.1L12879,243.1z M13036.6,240.5h77.3l78-48.9l-0.1-3.8l-28.6,0.2l56.6-60.4l69-64.9l-1.4-5.1l-98.1,3
	l-5,0.2l-22.4,37l-127.8,137.8L13036.6,240.5L13036.6,240.5z M13218.7,240.5l122.3,2.6l83.7-29.8l0.6-15.6l-42.5,7l-76.7-2l-4.6-21
	l59-54.7l21.8,10.6l-13.2,24.9l-69.4,8.3l-18.4,17.1l125.1-3.1l38.9-12.2l39.9-42l-34.4-22.3l-83.7,0.3l-105.7,25.4l-55.2,55.7
	L13218.7,240.5L13218.7,240.5z"/>
</svg>
