<svg xmlns="http://www.w3.org/2000/svg" width="35.89161cm" height="3.99027cm" viewBox="0 0 1017.39993 113.11"><title>lena-menu</title><polygon points="178.76 42.46 123.84 49.32 100.71 26.74 196.47 32.06 197.55 30.17 169.55 2.71 166.3 0 33.11 1.81 0.62 1.81 0 3.97 29.49 38.62 30.57 38.62 40.77 35.91 66.41 57.93 116.97 112.92 120.41 112.92 183.46 112.92 184 109.66 143.17 69.01 202.89 71.09 204.24 69.01 181.65 44.99 178.76 42.46" style="fill:#f4f4f4"/><polygon points="357.8 1.81 297.99 1 297.26 3.43 335.02 35.05 372.97 74.43 366.29 87.08 350.03 87.08 265.84 1.81 261.86 1.81 185.8 0.18 184.54 2.71 223.56 35.05 267.47 82.74 333.29 113.11 417.42 112.72 441.63 81.66 361.05 1.81 357.8 1.81" style="fill:#f4f4f4"/><path d="M612.04,104.3,586.39,75.03l-64.32-17.16-112.01,1.63h-22.4l-1.45,2.17,30.65,33.92h1.45l11.56-2.53,24.94,22.57,50.45,54.99h65.58l1.45-2.17-31.98-32.34,24.82-.22,42.03,34.73h70.64l.63-2.42-77.7-44.14,11.31-19.75Zm-65.22,10.12-25.84.18-30.17-29.63,38.36-1.88,20.72,19.95-3.07,11.38Z" transform="translate(-2.03 -57.69001)" style="fill:#f4f4f4"/><polygon points="771.7 19.87 755.81 1.81 752.37 1.81 703.41 0 702.51 1.81 754 61.06 744.24 61.06 657.52 1.81 654.63 1.81 582.19 0 581.74 2.61 699.26 78.41 733.58 112.92 741.35 112.92 803.86 112.92 804.95 110.94 780.87 85.21 771.7 19.87" style="fill:#f4f4f4"/><path d="M874.91,59.5l-85.4-1.72-1.32,1.91,48.85,110.92h60.99l-24.34-27.29,40.65.95,36.62,26.33h67.39l1.08-2.61-144.53-108.5Zm-12.44,71.08-32.9-40.91h8.85l51.55,37.07-27.5,3.84Z" transform="translate(-2.03 -57.69001)" style="fill:#f4f4f4"/></svg>