<?xml version="1.0" encoding="utf-8"?>
<!-- Generator: Adobe Illustrator 24.0.1, SVG Export Plug-In . SVG Version: 6.00 Build 0)  -->
<svg version="1.1" id="Layer_1" xmlns="http://www.w3.org/2000/svg" xmlns:xlink="http://www.w3.org/1999/xlink" x="0px" y="0px"
	 viewBox="0 0 3092.1 127.2" style="enable-background:new 0 0 3092.1 127.2;" xml:space="preserve">
<style type="text/css">
	.st0{fill:#E6611A;}
</style>
<title>lukas_overview_c2</title>
<path class="st0" d="M49.4,122.1c0.4-0.9,0.7-1.9,0.8-2.9c0.3-2.4,0.4-4.9,0.4-7.4V104h1.7v7.9c0.1,3.1-0.2,6.2-0.8,9.3
	c-0.3,1.8-1.3,3.3-2.8,4.3c-1.6,0.9-3.5,1.3-5.3,1.2c-3.3,0-5.9-0.6-7.6-1.9c-1.9-1.4-3.1-3.5-3.3-5.9c-1.2-6.6-2.2-12.3-3.2-16.9
	c-0.9-4.7-1.8-8.5-2.6-11.5c-0.5-2.3-1.3-4.5-2.3-6.6c-0.8-1.4-1.6-2.1-2.4-2.1h-3.4v-1.9h3.4c3.6,0,7,1.5,10.2,4.5
	s6.1,7.4,8.7,13.3c2.9,7,5,14.4,6.4,21.9c0.1,0.9,0.4,1.8,0.9,2.5c0.3,0.3,0.6,0.5,0.8,0.5C48.9,122.7,49.2,122.5,49.4,122.1
	 M37.4,41.3c3.1,0.9,5.7,3.1,7.2,6c1.4,2.9,2.2,7,2.2,12.2v0.1c0,5.3-0.9,9.6-2.7,12.7c-1.8,3.2-4.7,5.6-8.2,6.9
	c-4.4,1.5-9.1,2.3-13.8,2.1l-0.2-1.4c2.1,0.1,4.2-0.5,6.1-1.6c1.7-1,3-3,3.8-5.7c1-3.9,1.4-7.9,1.3-12v0.1c0.1-4-0.3-8-1.2-11.9
	c-0.8-2.8-1.9-4.7-3.4-5.8c-1.5-1.1-3.3-1.7-5.2-1.6h-4.1v77.8c0,0.9,0.1,1.7,0.4,2.5c0.3,0.7,0.9,1.2,1.6,1.4
	c1.2,0.4,2.4,0.8,3.6,0.9l-0.2,1.4c-1.3-0.1-3-0.2-5.2-0.2c-2.2-0.1-4.5-0.1-7-0.1c-2.5,0-4.8,0-7,0.1c-2.2,0.1-3.9,0.1-5.2,0.2
	L0,124.2c2.4-0.4,4-0.9,4.7-1.5c0.7-0.6,1-1.8,1-3.6V45.7c0-0.9-0.1-1.7-0.4-2.5C5,42.5,4.5,42,3.8,41.7c-1.2-0.4-2.4-0.8-3.6-0.9
	l0.2-1.4c1.3,0.1,2.9,0.2,4.9,0.2c2,0,4.1,0,6.4,0h12.1C29.5,39.6,34,40.1,37.4,41.3 M52.7,73.2c0.4-1.5,1.2-2.8,2.5-3.7
	c1.5-1,3.2-1.6,5-1.8c2.7-0.4,5.5-0.5,8.3-0.5h6.3l0.1,1.7L68.2,69c-1.5,0.1-2.5,0.6-2.9,1.3c-0.4,0.8-0.6,2.5-0.6,5v6.4
	c0,3.8,0.3,6.4,0.9,7.7c0.4,1.2,1.6,2,2.9,2c0.7,0,1.4-0.2,2-0.6c0.8-0.7,1.5-1.6,1.9-2.6c0.7-1.8,1.2-3.7,1.4-5.6
	c0.4-3.3,0.6-6.6,0.5-9.9l1.5,0.3c0.1,3.8-0.2,7.6-0.7,11.4c-0.3,2.3-1,4.5-2.1,6.4c-0.8,1.4-2.1,2.4-3.6,2.9
	c-1.6,0.5-3.4,0.8-5.1,0.7h-0.1c-2.3,0.1-4.6-0.5-6.6-1.6c-1.9-1.2-3.4-2.9-4.2-5c-1.1-2.7-1.5-5.6-1.4-8.5
	C51.9,77.4,52.2,75.2,52.7,73.2 M73.6,45c-0.2-1.3-0.8-2.5-1.7-3.5c-0.7-0.6-1.6-1-2.6-1c-1,0-1.9,0.3-2.7,0.9
	c-1,0.9-1.8,2.1-2.1,3.4c-0.6,2.4-0.9,4.9-0.8,7.3v6.4c0.1,0.7-0.1,1.4-0.5,2c-0.3,0.4-0.9,0.6-1.4,0.6c-1.6,0-3.2-0.2-4.8-0.7
	c-1.3-0.4-2.3-1.3-3-2.5c-0.8-1.5-1.1-3.3-1-5c-0.1-2.6,0.5-5.1,1.7-7.4c1.2-2.2,3.2-4,5.5-5c3.1-1.3,6.4-1.9,9.7-1.8
	c2.6-0.1,5.2,0.3,7.6,1c2.1,0.6,3.9,1.9,5.3,3.5c1.5,2,2.6,4.3,3.1,6.8c0.7,3.5,1.1,7.1,1,10.7v3.3c0,1.2,0,2.6,0,4.1
	c0,1.6-0.1,3.3-0.1,5c-0.1,1.8-0.1,3.5-0.2,5.2c-0.1,1.7-0.1,3.1-0.1,4.4c0,1.3,0,2.3,0,2.9c0,3.1,0.5,4.6,1.6,4.6
	c0.4,0,0.8-0.3,1.1-0.8c0.5-0.9,0.8-1.8,0.9-2.8c0.2-1.9,0.4-3.8,0.3-5.7v-4.5h1.5v4.5c0.1,2.8-0.2,5.6-0.8,8.3
	c-0.4,1.6-1.3,3.1-2.7,4c-1.5,0.8-3.1,1.2-4.8,1.1c-2.5,0.1-5-0.8-6.8-2.6c-1.7-1.6-2.6-3.8-2.6-6.2V52.1
	C74.3,49.7,74.1,47.3,73.6,45 M114.3,89.8c0.2,0.6,0.7,1.2,1.3,1.4c1,0.4,2.1,0.7,3.2,0.8l-0.2,1.4c-1.1-0.1-2.6-0.2-4.6-0.2
	c-2-0.1-4.2-0.1-6.5-0.1c-2.3,0-4.5,0-6.6,0.1c-2.1,0.1-3.8,0.1-5.1,0.2l-0.2-1.4c2.4-0.4,4-0.9,4.7-1.5c0.7-0.6,1-1.8,1-3.6V52.9
	c0-3.8,0-6.9,0.1-9.5c0.1-2.6,0.2-5,0.2-7.3c0.1-2.3,0.1-4.8,0.1-7.7c0-3.1-0.6-4.6-1.8-4.6c-0.4,0-0.8,0.3-1.2,0.9
	c-0.5,1-0.9,2.1-1,3.2c-0.3,2.2-0.4,4.4-0.4,6.7v7.8l-1.5,0.1v-7.9c-0.1-3.1,0.2-6.3,0.8-9.3c0.3-1.8,1.3-3.3,2.7-4.4
	c1.4-0.8,3.1-1.2,4.8-1.2c2.7-0.1,5.2,0.8,7.2,2.7c1.7,1.6,2.7,3.9,2.7,6.2v58.7C114,88.1,114.1,89,114.3,89.8 M124.9,34.9
	c0.1-2.7-0.1-5.4-0.6-8.1c-0.2-1.3-0.8-2.5-1.7-3.4c-0.7-0.5-1.5-0.8-2.4-0.8c-0.8,0-1.7,0.2-2.4,0.6c-0.9,0.6-1.6,1.5-2,2.6
	c-0.7,1.8-1.1,3.7-1.3,5.6c-0.4,3.3-0.5,6.6-0.5,9.9l-1.5-0.3c0-3.6,0.1-7.3,0.6-10.9c0.2-2.3,0.9-4.5,1.9-6.5
	c0.8-1.4,2-2.5,3.5-3.1c1.8-0.6,3.7-0.9,5.6-0.8c4.8,0,8.2,1.2,10.4,3.5c2.1,2.3,3.2,5.8,3.2,10.3v24.7c0,3.8,0,7-0.1,9.6
	c-0.1,2.6-0.1,4.9-0.2,6.9c-0.1,2-0.1,3.8-0.2,5.6c-0.1,1.7-0.1,3.6-0.1,5.5c0,3.1,0.5,4.6,1.5,4.6c0.4,0,0.8-0.3,1.1-0.9
	c0.5-1,0.8-2.1,0.9-3.3c0.3-2.2,0.4-4.4,0.4-6.6v-7.9h1.5v7.9c0.1,3.1-0.2,6.3-0.8,9.3c-0.3,1.7-1.2,3.3-2.6,4.4
	c-1.3,0.8-2.9,1.2-4.5,1.2c-1.8,0-3.5-0.4-5.1-1.2c-1.6-1-2.9-2.5-3.5-4.3c-0.9-2.8-1.4-5.7-1.2-8.7L124.9,34.9z M149.7,63
	c1.5-3.6,4.1-6.7,7.5-8.7c3.6-1.9,7.6-2.9,11.6-2.8c2.2-0.1,4.4,0.3,6.5,1.1c1.7,0.7,3.3,1.5,4.9,2.4l-0.9,2.3
	c-1.6-1.1-3.3-2.1-5-2.9c-1.8-0.8-3.8-1.2-5.8-1.2c-1.2,0-2.4,0.3-3.5,0.8c-1.2,0.7-2.1,1.8-2.7,3c-0.9,2-1.5,4.1-1.7,6.3
	c-0.4,3.5-0.6,7-0.6,10.6v12.9c-0.1,3.7,0.2,7.3,0.7,11c0.5,2.5,1.2,4.3,2,5.2c0.8,0.9,1.9,1.4,3.1,1.4c0.8,0,1.7-0.2,2.4-0.6
	c1-0.6,1.7-1.5,2.2-2.6c0.8-1.8,1.3-3.7,1.6-5.6c0.5-3.3,0.7-6.6,0.6-9.9l1.5,0.3c0.1,3.6-0.2,7.3-0.6,10.9c-0.3,2.3-1,4.5-2.1,6.5
	c-0.8,1.4-2.1,2.6-3.7,3.1c-1.8,0.6-3.6,0.9-5.5,0.8c-3,0.1-5.9-0.6-8.5-2.2c-2.5-1.7-4.3-4.2-5.1-7.1c-1.2-3.3-1.7-7.7-1.7-13.3
	v-6.4C147.1,72.1,148,66.9,149.7,63 M185.4,84.1c-0.1,2.3-0.1,4.3-0.2,6c-0.1,1.7-0.1,3.3-0.2,4.6c-0.1,1.4-0.1,2.7-0.1,4
	c0,3.1,0.5,4.6,1.6,4.6c0.5-0.1,1-0.4,1.2-0.8c0.5-0.9,0.7-1.9,0.8-2.9c0.2-1.9,0.4-3.8,0.3-5.6v-4.5h1.5V94
	c0.1,2.8-0.2,5.6-0.8,8.3c-0.4,1.6-1.3,3.1-2.7,4c-1.5,0.8-3.1,1.2-4.8,1.1c-2.5,0.1-5-0.8-6.8-2.6c-1.7-1.6-2.6-3.8-2.6-6.2V35.1
	c0-0.9-0.1-1.8-0.4-2.7c-0.4-0.8-1-1.4-1.9-1.7c-1.4-0.5-3-0.8-4.5-0.8l0.1-1.3c2.3,0.1,4.4,0.1,6.2,0.1h5.6c3,0,5,0.6,6,1.9
	c1.1,1.3,1.6,3.3,1.6,6v39.4C185.5,79.2,185.5,81.9,185.4,84.1 M221.9,73.2c0.1-4.2-0.2-8.4-1-12.5c-0.6-2.8-1.5-4.8-2.6-5.8
	c-0.9-0.9-2.1-1.5-3.4-1.5c-0.9,0-1.8,0.3-2.6,0.8c-1,0.8-1.8,1.8-2.2,3c-0.8,1.9-1.3,4-1.5,6.1c-0.4,3.4-0.6,6.8-0.6,10.2v32.2
	c0,3.4,0.1,6.8,0.6,10.2c0.2,2,0.7,4,1.6,5.9c0.5,1.1,1.2,2,2.2,2.7c0.7,0.5,1.6,0.7,2.4,0.7c1.4,0,2.8-0.7,3.7-1.8
	c1.1-1.2,1.9-3.2,2.5-6.1c0.7-3.9,1-8,0.9-12L221.9,73.2z M194.9,82.3c0-7.4,0.9-13.3,2.7-17.8c1.8-4.5,4.3-7.7,7.4-9.7
	c3-2,6.6-3,10.2-3c2.9-0.1,5.8,0.4,8.5,1.3c2.5,0.9,4.6,2.4,6.2,4.5c1.9,2.6,3.2,5.6,3.8,8.8c0.9,4.7,1.4,9.4,1.3,14.2v16.1
	c0,7.3-0.9,13.2-2.7,17.6c-1.8,4.4-4.2,7.6-7.3,9.7c-3.1,2-6.6,3.1-10.3,3c-2.9,0.1-5.8-0.4-8.5-1.3c-2.4-0.9-4.6-2.4-6.2-4.4
	c-1.9-2.6-3.2-5.5-3.8-8.7c-1-4.7-1.4-9.4-1.3-14.2V82.3z M268.7,45.2c0.1-2.7-0.1-5.4-0.6-8.1c-0.2-1.3-0.8-2.5-1.7-3.4
	c-0.7-0.5-1.5-0.8-2.3-0.8c-0.8,0-1.6,0.2-2.3,0.6c-0.9,0.7-1.5,1.5-1.9,2.6c-0.7,1.8-1.1,3.7-1.2,5.6c-0.3,3.3-0.5,6.6-0.4,9.9
	l-1.5-0.3c0-3.6,0.1-7.3,0.5-10.9c0.2-2.3,0.8-4.5,1.8-6.5c0.7-1.4,1.9-2.5,3.4-3.1c1.8-0.6,3.7-0.9,5.6-0.8c4.7,0,8.1,1.2,10.3,3.5
	c2.1,2.3,3.2,5.8,3.2,10.3v43.8c-0.1,1.1,0.1,2.2,0.8,3.2c0.5,0.6,1.7,1,3.6,1.2l-0.1,1.3c-1.5-0.1-2.9-0.1-4.3-0.1h-4.3
	c-3,0-5.1-0.6-6.4-1.9c-1.3-1.3-2-3.3-2-6L268.7,45.2z M292,45.2c0.1-2.7-0.1-5.4-0.6-8.1c-0.2-1.3-0.7-2.5-1.6-3.4
	c-0.7-0.5-1.5-0.8-2.3-0.8c-0.8,0-1.6,0.2-2.3,0.6c-0.9,0.6-1.6,1.5-1.9,2.6c-0.7,1.8-1.1,3.7-1.3,5.6c-0.3,3.3-0.5,6.6-0.4,9.9
	l-1.5-0.3c0-3.6,0.1-7.3,0.5-10.9c0.2-2.3,0.8-4.5,1.8-6.5c0.8-1.4,2-2.5,3.5-3.1c1.8-0.6,3.6-0.9,5.5-0.8c4.7,0,8.1,1.2,10.3,3.5
	c2.1,2.3,3.2,5.8,3.2,10.3v16.6c0,3.4,0,6.4-0.1,8.9c-0.1,2.5-0.1,4.7-0.2,6.6c-0.1,1.9-0.1,3.6-0.2,5.2c-0.1,1.6-0.1,3.2-0.1,4.8
	c0,3.1,0.5,4.6,1.5,4.6c0.4,0,0.8-0.3,1.1-0.8c0.5-1,0.8-2,0.9-3.1c0.3-2,0.4-4,0.4-6.1v-6.1h1.5v6.1c0.1,2.9-0.2,5.9-0.8,8.8
	c-0.3,1.7-1.2,3.2-2.6,4.2c-1.3,0.8-2.9,1.2-4.5,1.1c-1.8,0-3.5-0.4-5.1-1.2c-1.6-1-2.9-2.5-3.5-4.3c-0.9-2.8-1.4-5.7-1.2-8.7
	L292,45.2z M258.6,89.8c0.2,0.6,0.6,1.2,1.2,1.4c1,0.5,2.1,0.7,3.2,0.8l-0.2,1.4c-1.1-0.1-2.6-0.2-4.6-0.2c-2-0.1-4.2-0.1-6.5-0.1
	c-2.3,0-4.5,0-6.6,0.1c-2.1,0.1-3.8,0.1-5.1,0.2l-0.2-1.4c2.4-0.4,4-0.9,4.7-1.5c0.7-0.6,1-1.8,1-3.6V60.7c0-3.3,0-6.2,0.1-8.6
	c0.1-2.4,0.2-4.6,0.2-6.7c0.1-2.1,0.1-4.3,0.1-6.7c0-3.1-0.6-4.6-1.8-4.6c-0.5,0-1,0.4-1.3,0.8c-0.5,0.9-0.8,2-0.9,3
	c-0.3,2-0.4,4.1-0.4,6.1v6l-1.5,0.1v-6.1c-0.1-2.9,0.2-5.9,0.8-8.8c0.3-1.7,1.3-3.2,2.7-4.2c1.5-0.8,3.1-1.2,4.8-1.1
	c2.6-0.1,5.2,0.8,7.1,2.7c1.7,1.6,2.7,3.8,2.7,6.2v48.4C258.2,88.1,258.3,89,258.6,89.8 M331,80.4c0,3.3,0,6.2-0.1,8.7
	c-0.1,2.5-0.1,4.6-0.2,6.5c-0.1,1.9-0.1,3.6-0.2,5.1c-0.1,1.6-0.1,3.1-0.1,4.6c0,3.1,0.5,4.6,1.5,4.6c0.5-0.1,1-0.4,1.2-0.8
	c0.5-0.9,0.8-2,0.9-3c0.2-2,0.4-4,0.3-6v-5.6h1.5v5.6c0.1,2.9-0.2,5.8-0.8,8.7c-0.3,1.6-1.2,3.1-2.6,4.1c-1.3,0.8-2.9,1.2-4.5,1.1
	c-1.8,0-3.5-0.4-5.1-1.2c-1.6-1-2.9-2.5-3.5-4.3c-0.9-2.8-1.4-5.7-1.2-8.6v-18c0-3.2,0-6,0.1-8.3c0.1-2.3,0.2-4.5,0.2-6.5
	c0.1-2,0.1-4.2,0.1-6.5c0-3.1-0.6-4.6-1.8-4.6c-0.5,0-1,0.4-1.3,0.8c-0.5,0.9-0.8,1.9-0.9,3c-0.3,2-0.4,4-0.4,6v5.6l-1.5,0.1v-5.6
	c-0.1-2.9,0.2-5.8,0.9-8.7c0.4-1.7,1.3-3.1,2.7-4.1c1.4-0.8,3.1-1.2,4.7-1.1c2-0.1,3.9,0.3,5.6,1.2c1.6,1,2.7,2.5,3.2,4.3
	c0.8,2.8,1.1,5.7,1,8.5L331,80.4z M330.4,39.3c0.1,1.8-0.7,3.6-2.1,4.7c-1.5,1-3.3,1.6-5.1,1.5c-1.9,0.1-3.7-0.5-5.1-1.6
	c-1.2-1.2-1.9-2.8-1.8-4.5c-0.1-1.8,0.6-3.5,1.9-4.8c1.5-1.3,3.4-1.9,5.4-1.8c1.8-0.1,3.6,0.5,5,1.8
	C329.8,35.9,330.5,37.6,330.4,39.3 M364.4,92.6V81c-0.1-3.6,0.3-7.3,1.3-10.8c0.6-2.2,1.8-4.1,3.5-5.6c1.3-1.1,2.9-1.6,4.5-1.6
	c1.3,0,1.9,0.6,1.9,1.7l-0.7,27.8c0,0.7-0.4,1-1.1,1c-2.3-0.1-5.2-0.2-8.8-0.2h-23.9l-0.5-2L362.7,22l4.5,0.6h-18.8l2.7-0.1
	l-0.2,11.5c0.1,3.5-0.4,7-1.4,10.3c-0.6,2-1.7,3.9-3.3,5.2c-1.3,1-2.9,1.5-4.5,1.5c-1.1,0-1.6-0.5-1.6-1.5l0.6-27.9
	c-0.1-0.5,0.3-1,0.8-1c0.1,0,0.2,0,0.3,0c2.4,0.1,5.3,0.1,8.8,0.1c3.5,0,7.6,0,12.3,0h11l0.8,2l-21.4,69.4l-11.4-0.6h31.6
	L364.4,92.6z M390.1,118c-3.2-1.7-5.7-4.6-6.9-8c-1.6-3.8-2.3-9.1-2.3-15.9V81.2c0-7.2,0.8-13,2.4-17.4c1.6-4.3,3.8-7.4,6.6-9.3
	c2.9-1.9,6.3-2.9,9.7-2.8c4.3,0,7.7,0.7,10.3,2.2c2.7,1.6,4.7,4.1,5.7,7c1.3,4,1.9,8.2,1.8,12.5V80c0,1.8-0.2,3-0.7,3.5
	c-0.5,0.5-1.5,0.7-3.2,0.7h-23.9l0.1-2l15.8-0.2l-1.2,0.9V64c0-3.9-0.4-6.7-1.2-8.2c-0.7-1.5-2.2-2.4-3.8-2.3
	c-0.8,0-1.6,0.2-2.3,0.6c-0.8,0.6-1.4,1.5-1.7,2.5c-0.6,1.8-0.9,3.7-1,5.7c-0.2,2.5-0.4,6-0.4,10.3v25.8c-0.1,4.3,0.2,8.6,0.8,12.8
	c0.5,3,1.3,5,2.4,6c1.2,1.1,2.7,1.7,4.3,1.6c1.4,0,2.8-0.2,4-0.8c1.2-0.6,2.1-1.7,2.5-2.9c0.7-2,1.1-4.1,1.1-6.2V95.9
	c0-1.7,1-2.6,2.9-2.6c0.8,0,1.6,0.2,2.2,0.7c0.8,0.7,1.3,1.7,1.4,2.7c0.4,2,0.6,4.1,0.5,6.1c0.1,3.4-0.4,6.7-1.4,9.9
	c-0.8,2.4-2.5,4.5-4.7,5.8c-2.7,1.4-5.7,2-8.7,1.9C397.5,120.5,393.6,119.7,390.1,118 M425.4,38.1c1.8-4.4,4.3-7.6,7.5-9.5
	c3.5-2,7.6-3,11.6-2.9c2.2-0.1,4.4,0.3,6.5,1.1c1.7,0.7,3.3,1.5,4.9,2.4l-0.9,2.3c-1.6-1.1-3.3-2.1-5-2.9c-1.8-0.8-3.8-1.2-5.8-1.2
	c-1.2,0-2.4,0.3-3.5,0.8c-1.2,0.7-2.1,1.8-2.7,3c-0.9,2-1.5,4.1-1.7,6.3c-0.4,3.5-0.6,7-0.6,10.6V74c-0.1,3.7,0.2,7.3,0.7,11
	c0.5,2.5,1.2,4.3,2,5.2c0.8,0.9,1.9,1.4,3.1,1.4c0.8,0,1.7-0.2,2.4-0.6c1-0.6,1.7-1.5,2.2-2.6c0.8-1.8,1.3-3.7,1.6-5.6
	c0.5-3.3,0.7-6.6,0.6-9.9l1.5,0.3c0.1,3.6-0.2,7.3-0.6,10.9c-0.3,2.3-1,4.5-2.1,6.5c-0.8,1.4-2.1,2.6-3.7,3.1
	c-1.8,0.6-3.6,0.9-5.5,0.8c-3,0.1-5.9-0.7-8.5-2.3c-2.3-1.5-4-4.2-5.1-7.9c-1.2-3.8-1.7-9-1.7-15.6V55.8
	C422.7,48.4,423.6,42.5,425.4,38.1 M461.1,69c-0.1,2.6-0.1,4.8-0.2,6.6c-0.1,1.9-0.1,3.6-0.2,5.3c-0.1,1.6-0.1,3.3-0.1,5
	c0,3.1,0.5,4.6,1.6,4.6c0.4,0,0.8-0.3,1.2-0.9c0.5-1,0.7-2,0.8-3.1c0.2-2.1,0.4-4.2,0.3-6.3v-6.8h1.5v6.8c0.1,3-0.2,6-0.8,9
	c-0.3,1.7-1.3,3.2-2.7,4.3c-1.5,0.8-3.1,1.2-4.8,1.2c-2.5,0.1-5-0.8-6.8-2.6c-1.7-1.6-2.6-3.8-2.6-6.2V9.3c0-0.9-0.1-1.8-0.4-2.7
	c-0.4-0.8-1-1.4-1.9-1.7c-1.4-0.5-3-0.8-4.5-0.8l0.1-1.3c2.3,0.1,4.4,0.1,6.2,0.1h5.6c3,0,5,0.6,6,1.9c1.1,1.3,1.6,3.3,1.6,6V60
	C461.2,63.4,461.1,66.5,461.1,69 M491.3,120.3c0.1,1.8-0.6,3.5-1.9,4.8c-1.4,1.1-3.1,1.7-4.9,1.6c-2.5,0-4.3-0.6-5.6-1.7
	c-1.3-1.2-1.9-2.9-1.9-4.6v-0.1c-0.1-1.8,0.6-3.5,2-4.7c1.4-1.1,3.2-1.7,5-1.6c1.9-0.1,3.7,0.5,5.2,1.8
	C490.6,116.8,491.3,118.6,491.3,120.3L491.3,120.3z M485.5,32c3.1,0,6.1,0.8,8.8,2.5c2.6,1.6,4.7,4.4,6.3,8.3
	c1.6,3.9,2.4,9.2,2.4,16v8.1c0.1,6.6-0.5,13.2-1.9,19.7c-0.9,4.6-2.6,9-4.9,13.1c-1.7,2.9-4,5.5-6.8,7.4c-2.2,1.5-4.8,2.3-7.5,2.3
	l-2.3-0.1v-2h2.1c1,0,2-0.1,2.9-0.4c1.1-0.5,1.9-1.3,2.3-2.4c0.9-2,1.4-4.1,1.7-6.3c0.6-4,0.9-8,1-12c0.2-5.1,0.4-11.7,0.4-19.7
	V50.2c0-5.7-0.5-9.9-1.4-12.8c-0.9-2.8-2.2-4.2-3.8-4.2c-2.3,0-3.7,1.5-4.4,4.4c-0.8,4.1-1.1,8.4-1,12.6v24.2
	c0.1,0.9-0.1,1.7-0.4,2.5c-0.3,0.4-0.9,0.6-1.9,0.6c-1.1,0-2.2-0.2-3.2-0.7c-1.1-0.6-2.1-1.5-2.7-2.7c-0.9-1.8-1.5-3.7-1.8-5.7
	c-0.5-3.2-0.7-6.4-0.7-9.7c-0.1-4.5,0.5-8.9,1.7-13.2c0.8-3,2.2-5.7,4.1-8.1c1.4-1.8,3.2-3.2,5.3-4.1C481.8,32.5,483.6,32,485.5,32"
	/>
<path class="st0" d="M557.6,89.9c0.4-0.9,0.7-1.8,0.8-2.8c0.3-2.3,0.4-4.6,0.4-7v-6.8h1.7v6.8c0.1,3-0.2,6-0.8,8.9
	c-0.3,1.7-1.3,3.2-2.8,4.2c-1.6,0.9-3.5,1.3-5.3,1.2c-3.3,0-5.9-0.6-7.7-1.9c-1.9-1.4-3.1-3.5-3.2-5.9c-0.6-6.7-1.1-12.3-1.6-16.7
	c-0.5-4.4-0.9-7.9-1.3-10.5c-0.4-2.6-0.8-4.6-1.1-5.9c-0.2-0.9-0.5-1.9-1-2.7c-0.2-0.4-0.6-0.6-1-0.8c-0.4-0.1-0.7-0.2-1-0.4
	l0.7-1.3c1.6,0.3,3.1,0.5,4.6,0.7c1.5,0.2,2.9,0.6,4.3,1.2c1.5,0.7,2.8,1.8,3.8,3.1c1.5,1.9,2.6,4,3.3,6.3c1.2,3.5,2.2,7.2,2.8,10.8
	c0.9,4.5,1.6,10,2.2,16.7c0,0.9,0.2,1.8,0.8,2.5c0.2,0.3,0.6,0.5,0.9,0.5C557.2,90.5,557.4,90.3,557.6,89.9 M540,43.6
	c0.5-0.7,0.7-1.4,0.8-2.3c0.2-1.7,0.4-3.4,0.4-5.1c0.1-2.3,0.1-5.3,0.1-9.3v-5.6c0-2.2,0.7-4.3,2.2-5.9c1.5-1.7,3.7-2.6,6-2.5
	c2.2-0.1,4.3,0.6,5.8,2.1c1.3,1.3,2.1,3,2.1,4.8c0.1,0.9-0.2,1.9-0.9,2.5c-0.7,0.5-1.6,0.7-2.5,0.6l0.5-0.3v3.2
	c0.1,3.8-0.3,7.6-1.4,11.3c-0.8,2.6-2.4,4.8-4.7,6.2c-2.9,1.5-6,2.5-9.2,2.7c-1.3,0.2-2.4,0.9-3.2,1.9c-0.9,1.1-1.7,2.4-2.2,3.8
	c-0.6,1.6-1.2,3.1-1.7,4.7c-0.5,1.7-1,3.2-1.4,4.7c-0.4,1.2-0.9,2.4-1.6,3.5c-0.4,0.8-1.3,1.3-2.2,1.4h-3.5v-1.9h3.5
	c0.5,0,1-0.4,1.4-1.2c0.5-1.1,0.9-2.2,1.2-3.3c0.4-1.4,0.9-2.9,1.4-4.5c0.5-1.6,1.1-3.1,1.8-4.6c0.6-1.4,1.4-2.7,2.5-3.9
	c0.9-1.1,2.1-1.9,3.5-2.3C539.2,44.2,539.7,43.9,540,43.6 M525.6,35.4c1.2,1.5,1.9,3.4,1.9,5.4v46.4c0,0.9,0.1,1.7,0.4,2.6
	c0.3,0.7,0.9,1.2,1.6,1.4c1.2,0.4,2.4,0.8,3.6,0.9l-0.2,1.4c-1.3-0.1-3-0.2-5.2-0.2c-2.2-0.1-4.5-0.1-7-0.1c-2.5,0-4.8,0-7,0.1
	c-2.2,0.1-3.9,0.1-5.2,0.2l-0.2-1.4c2.4-0.4,4-0.9,4.7-1.5c0.7-0.6,1-1.8,1-3.6V39.3c0-0.9-0.1-1.7-0.4-2.5
	c-0.3-0.7-0.9-1.2-1.6-1.4c-1.2-0.4-2.4-0.8-3.6-0.9l0.2-1.4c0.9,0.1,2,0.1,3.4,0.2c1.4,0.1,2.8,0.1,4.2,0.1h3.7
	C522.4,33.2,524.4,33.9,525.6,35.4 M517.2,14.5c0.9-1.4,2.2-2.5,3.7-3.2c2.1-0.9,4.3-1.3,6.5-1.2c2.3,0,4.6,0.4,6.7,1.4
	c2.2,1,4,2.6,5.3,4.6c1.6,2.7,2.7,5.7,3,8.9h-1.1c0.1-1.6-0.7-3.1-2-4c-1.5-0.9-3.2-1.4-5-1.3c-2.4,0-4.1,0.5-5.2,1.5
	c-1.1,1-1.7,2.7-1.7,5c0,1.4,0.2,2.9,0.7,4.2c0.5,1.4,0.9,2.8,1.3,4.2c0.4,1.2,0.6,2.6,0.6,3.9c0.1,1-0.3,2-0.9,2.8
	c-0.5,0.7-1.4,1.1-2.3,1v-2.1c0.7,0.1,1.4-0.4,1.5-1.1c0-0.1,0-0.3,0-0.4c0-1.5-0.4-3.1-1.2-4.3c-0.9-1.3-1.9-2.4-3.1-3.5
	c-1.2-1.1-2.5-2.2-3.7-3.3c-1.2-1.1-2.3-2.4-3.1-3.8c-0.9-1.6-1.3-3.3-1.2-5.1C516,17.3,516.4,15.8,517.2,14.5 M577.8,90.6
	c-0.1,4.6-3.8,8.3-8.5,8.3c0,0,0,0-0.1,0c-2.3,0-3.8-0.4-4.6-1.1c-0.8-0.9-1.2-2-1.1-3.2c-0.1-1,0.2-2.1,0.8-2.9
	c0.6-0.7,1.7-1,3.3-1h0.9l-0.6,1.4c0.1-0.5,0.1-1.2,0.1-2c0-0.8,0-1.5,0-2c-0.1-2.1,0.2-4.2,0.9-6.2c0.5-1.3,1.6-2.3,3-2.7
	c1.9-0.5,3.8-0.7,5.7-0.6c1,0,1.9,0.2,2.7,0.7c0.8,0.5,1.4,1.1,2,1.8c0.6,0.7,1.1,1.5,1.5,2.3c0.5,0.8,0.9,1.6,1.2,2.3
	c0.3,0.6,0.7,1.2,1.2,1.7c0.3,0.4,0.8,0.6,1.3,0.5l-0.2,1.9c-0.5,0-1.1-0.2-1.4-0.6c-0.5-0.4-0.9-1-1.2-1.5
	c-0.4-0.6-0.8-1.3-1.1-2.1c-0.4-0.7-0.7-1.4-1.2-2c-0.4-0.6-0.8-1.1-1.3-1.6c-0.5-0.4-1.1-0.7-1.8-0.6c-0.6-0.1-1.1,0.3-1.4,0.8
	c-0.3,0.8-0.4,1.7-0.3,2.5L577.8,90.6z M571.5,105.9c0-1.1,0.2-2.1,0.7-3.1c0.5-0.9,1.1-1.7,1.8-2.5c0.7-0.8,1.4-1.5,2.1-2.3
	c0.7-0.8,1.3-1.7,1.8-2.6c0.5-1,0.7-2.1,0.7-3.2c0-1-0.5-1.5-1.4-1.5v-1.9c0.8,0,1.6,0.3,2.1,0.9c0.6,0.8,0.8,1.7,0.8,2.7
	c0,0.7-0.1,1.3-0.2,2c-0.1,0.6-0.3,1.3-0.4,1.9c-0.2,0.7-0.2,1.5-0.2,2.2c0,0.8,0.2,1.7,0.6,2.4c0.6,0.7,1.6,1,2.5,0.9
	c1,0,2-0.3,2.8-0.9c0.7-0.6,1.2-1.5,1.1-2.5h0.9c0,2.6-0.5,5.1-1.5,7.6c-0.6,1.6-1.7,3.1-3.1,4.1c-1.3,0.8-2.9,1.3-4.5,1.2
	c-1.8,0.1-3.6-0.4-5-1.6C572.1,108.8,571.4,107.3,571.5,105.9 M592.6,54.1c0,1.1-0.2,2.3-0.7,3.3c-0.5,1-1.1,1.9-1.8,2.7
	c-0.7,0.8-1.5,1.7-2.2,2.5c-0.7,0.8-1.3,1.7-1.8,2.6c-0.5,1-0.7,2.1-0.7,3.2c0,1,0.5,1.5,1.4,1.5v1.9c-0.8,0-1.6-0.3-2.1-0.9
	c-0.6-0.8-0.8-1.7-0.8-2.7c0-0.7,0.1-1.4,0.2-2c0.2-0.6,0.3-1.3,0.4-2.1c0.1-0.9,0.2-1.8,0.2-2.7c0.1-1-0.2-2.1-0.7-2.9
	c-0.6-0.7-1.5-1-2.4-0.9c-1.1-0.1-2.1,0.3-2.9,0.9c-0.7,0.6-1.1,1.5-1.1,2.4h-0.9c0-2.6,0.5-5.1,1.4-7.6c0.6-1.6,1.7-3.1,3.1-4.1
	c1.4-0.8,2.9-1.3,4.5-1.2c1.8-0.1,3.6,0.5,5,1.6C592.1,50.8,592.7,52.4,592.6,54.1 M576.6,67.7c-0.6,1.6-1.8,2.9-3.2,3.7
	c-1.5,0.7-3.1,1.1-4.7,1c-0.9,0-1.7-0.1-2.5-0.2c-0.7-0.1-1.4-0.3-2.1-0.5l0.2-1c0.3,0.1,0.6,0.1,0.9,0.1c0.3,0,0.6,0,0.9,0
	c0.7,0.1,1.3-0.2,1.7-0.7c0.4-1,0.6-2,0.5-3.1v-1.5c0-0.7,0-1.5,0-2.4c0-0.9-0.1-1.7-0.1-2.5c0-0.8,0-1.3,0-1.5l0.6,1.4h-0.9
	c-1.2,0.1-2.3-0.1-3.3-0.6c-0.7-0.7-1-1.6-0.8-2.5c0-1.4,0.5-2.8,1.6-3.7c1.1-1,2.6-1.5,4.1-1.4c4.6-0.1,8.5,3.6,8.5,8.2
	c0,0,0,0,0,0.1C577.9,62.9,577.5,65.4,576.6,67.7 M598.4,88.4c-0.1,2.4-0.2,4.5-0.2,6.1c-0.1,1.6-0.1,3-0.1,4.2
	c0,3.1,0.5,4.6,1.6,4.6c0.5,0,0.9-0.4,1.2-0.8c0.5-0.9,0.7-1.9,0.8-2.9c0.2-1.9,0.4-3.8,0.3-5.7v-4.5h1.5V94
	c0.1,2.8-0.1,5.6-0.6,8.3c-0.2,1.6-1.1,3-2.3,4c-1.5,0.8-3.2,1.2-4.8,1.1c-2.5,0.1-5-0.8-6.8-2.6c-1.7-1.6-2.6-3.8-2.6-6.2V70.2
	c0-2.3,0.9-4.6,2.6-6.2c1.8-1.8,4.2-2.8,6.7-2.7c2.5,0,4.3,0.5,5.2,1.5c1,1.1,1.5,2.6,1.4,4.1c0.1,1.4-0.3,2.9-1,4.1
	c-0.7,1-2,1.5-3.2,1.3l0.5-0.6v7.6C598.5,83,598.5,86,598.4,88.4 M627.1,89.8c0.2,0.6,0.7,1.2,1.3,1.4c1,0.4,2.1,0.7,3.2,0.8
	l-0.2,1.4c-1.1-0.1-2.6-0.2-4.6-0.2c-2-0.1-4.2-0.1-6.5-0.1c-2.3,0-4.5,0-6.6,0.1c-2.1,0.1-3.8,0.1-5.1,0.2l-0.2-1.4
	c2.4-0.4,4-0.9,4.7-1.5c0.7-0.6,1-1.8,1-3.6v-9.9c0-3.6,0.1-6.8,0.2-9.3c0.2-2.6,0.2-5,0.2-7.2c0-3.1-0.6-4.6-1.8-4.6
	c-0.6,0-1.2,0.6-1.8,1.9c-0.5,1.2-0.8,3.4-0.8,6.5v2.2l-1.5,0.1v-2.3c-0.1-2.6,0.2-5.1,0.8-7.6c0.4-1.6,1.4-2.9,2.7-3.8
	c1.5-0.8,3.1-1.2,4.8-1.1c2.6-0.1,5.1,0.7,7.2,2.3c1.8,1.7,2.8,4.1,2.7,6.5v26.5C626.8,88.1,626.9,89,627.1,89.8 M618.3,27.5
	c2.1-2,5-3.1,7.9-2.9c3.8,0,6.7,1.1,8.8,3.4c2.2,2.6,3.5,5.8,3.7,9.3h-1c0-1.2-0.4-2.3-1.2-3.1c-0.8-0.9-2.2-1.3-4.1-1.3
	c-2.1,0-3.6,0.6-4.4,1.8c-0.9,1.2-1.3,3.3-1.3,6.2c0,2.1,0.1,4.3,0.4,6.4c0.2,1.5,0.5,3.1,0.8,4.6c0.3,1.3,0.6,2.4,0.9,3.5
	c0.3,1,0.4,2.1,0.4,3.1c0.1,1-0.2,1.9-0.8,2.7c-0.5,0.6-1.3,1-2.1,0.9v-1.9c0.9,0,1.4-0.5,1.4-1.5c0-1.5-0.4-2.9-1.2-4.1
	c-0.9-1.3-1.9-2.4-3.1-3.5c-1.2-1.1-2.4-2.4-3.7-3.7c-1.3-1.4-2.4-3.1-3.1-4.9c-0.9-2.3-1.3-4.7-1.2-7.2
	C615.2,32.3,616.3,29.5,618.3,27.5 M650.5,57.6c0,3.9,0,7.3-0.1,10.1c-0.1,2.8-0.1,5.3-0.2,7.4c-0.1,2.1-0.1,4-0.2,5.7
	c-0.1,1.7-0.1,3.4-0.1,5.2c0,3.1,0.5,4.6,1.5,4.6c0.4,0,0.7-0.3,1.1-0.9c0.5-1,0.8-2,0.9-3.1c0.3-2.1,0.4-4.2,0.4-6.3v-6.8h1.5v6.8
	c0.1,3-0.2,6-0.8,9c-0.3,1.7-1.2,3.2-2.6,4.3c-1.3,0.8-2.9,1.2-4.5,1.2c-1.8,0-3.5-0.4-5.1-1.2c-1.6-1-2.9-2.5-3.5-4.3
	c-0.9-2.8-1.4-5.7-1.2-8.7V34.6c0-2.2,0.8-4.3,2.3-5.9c1.5-1.6,3.5-2.5,5.7-2.5c2.6,0,4.5,0.7,5.7,2.1c1.2,1.3,1.9,3,1.9,4.8
	c0.1,0.9-0.2,1.8-0.9,2.5c-0.7,0.5-1.6,0.7-2.5,0.6l0.5-0.3L650.5,57.6z M662.4,62l0.5,0.3c-0.9,0.2-1.8,0-2.5-0.6
	c-0.7-0.7-1-1.6-0.9-2.5c0-1.8,0.7-3.5,1.9-4.8c1.4-1.4,3.3-2.2,5.2-2.1c2.2-0.1,4.3,0.8,5.7,2.5c1.4,1.6,2.2,3.7,2.2,5.9v25.4
	c0,2.3-0.9,4.6-2.6,6.2c-1.8,1.8-4.2,2.8-6.7,2.7c-2,0-3.5-0.5-4.4-1.5c-1-1.1-1.5-2.6-1.4-4.1c-0.1-1.4,0.2-2.8,0.9-4.1
	c0.5-0.9,1.5-1.4,2.5-1.3l-0.5,0.6V62z M661,114.7c-0.1-2.9,0.4-5.8,1.4-8.5c0.9-2.1,2.1-4.1,3.6-5.8c1.3-1.5,2.8-2.9,4.3-4.2
	c1.3-1.1,2.6-2.4,3.6-3.8c1-1.3,1.5-2.9,1.5-4.5c0-1-0.5-1.5-1.4-1.5v-1.9c0.8,0,1.6,0.3,2.1,0.9c0.6,0.8,0.8,1.7,0.8,2.7
	c0,1.3-0.2,2.7-0.5,3.9c-0.3,1.3-0.7,2.7-1.1,4.3c-0.4,1.6-0.8,3.5-1.1,5.7c-0.4,2.6-0.5,5.3-0.5,8c0,3.5,0.5,5.9,1.5,7.4
	c1,1.4,2.7,2.1,5,2.1c1.5,0.1,2.9-0.3,4.1-1.2c0.8-0.7,1.3-1.8,1.2-2.9h1c-0.2,3.1-1.6,6-3.8,8.3c-2.2,2.2-5.3,3.3-9.3,3.3
	c-6.5,0.4-12-4.4-12.5-10.9C661,115.8,661,115.3,661,114.7 M673.9,60.9c1.1-0.2,2.2,0.3,2.8,1.2c1,1.3,1.8,2.8,2.3,4.3
	c0.8,2,1.4,4.1,1.9,6.2c0.6,2.3,1.1,4.5,1.6,6.8c0.5,2.3,1,4.4,1.5,6.4c0.4,1.6,0.9,3.2,1.6,4.7c0.6,1.2,1.2,1.8,1.8,1.8V94
	c-1,0.2-2-0.3-2.5-1.2c-0.9-1.3-1.6-2.8-2.1-4.3c-0.6-1.9-1.2-3.9-1.8-6.2c-0.6-2.3-1.1-4.5-1.6-6.8c-0.5-2.3-1.1-4.4-1.7-6.4
	c-0.4-1.6-1-3.2-1.8-4.7c-0.6-1.2-1.3-1.8-2.1-1.8L673.9,60.9z M698.2,97.7c-0.1,3.5-0.2,6.9-0.2,10.2c-0.1,3.2-0.1,6.7-0.1,10.3
	c0,3.1,0.6,4.6,1.8,4.6c0.4,0,0.8-0.3,1.1-0.9c0.4-1,0.7-2.1,0.8-3.2c0.2-2.2,0.3-4.5,0.3-6.7v-7.8l1.5-0.1v7.9
	c0.1,3.1-0.2,6.3-0.8,9.3c-0.5,2.1-1.3,3.6-2.5,4.4c-1.4,0.8-3,1.2-4.6,1.2c-2.7,0.1-5.2-0.8-7.2-2.7c-1.7-1.6-2.7-3.9-2.7-6.2V35.1
	c0-0.9-0.1-1.8-0.4-2.7c-0.4-0.8-1-1.4-1.9-1.7c-1.4-0.5-3-0.8-4.5-0.8l0.1-1.3c2.3,0.1,4.4,0.1,6.2,0.1h5.6c2.9,0,5,0.6,6,1.9
	c1.1,1.3,1.6,3.3,1.6,6v48.9C698.3,90.1,698.2,94.1,698.2,97.7 M710.1,62.5c-1,0.1-2-0.4-2.5-1.3c-0.7-1.3-1-2.7-0.9-4.1
	c-0.1-1.5,0.4-2.9,1.4-4.1c0.9-1,2.4-1.5,4.4-1.5c2.5-0.1,4.9,0.9,6.7,2.7c1.7,1.6,2.6,3.9,2.6,6.2v25.4c0,2.2-0.7,4.3-2.2,5.9
	c-1.4,1.6-3.5,2.5-5.7,2.5c-3.8,0.1-7-2.9-7.2-6.7c0-0.1,0-0.1,0-0.2c-0.1-0.9,0.2-1.8,0.9-2.5c0.7-0.5,1.6-0.7,2.5-0.6l-0.5,0.3
	V61.8L710.1,62.5z M744.5,77.3c1-0.1,2,0.4,2.5,1.3c0.7,1.3,1,2.7,0.9,4.1c0.1,1.5-0.4,2.9-1.4,4.1c-0.9,1-2.4,1.5-4.4,1.5
	c-2.5,0.1-4.9-0.9-6.7-2.7c-1.7-1.6-2.6-3.9-2.6-6.2V53.9c0-2.2,0.7-4.3,2.2-5.9c1.4-1.6,3.5-2.5,5.7-2.5c2-0.1,3.9,0.7,5.2,2.1
	c1.2,1.3,1.9,3,1.9,4.8c0.1,0.9-0.2,1.8-0.9,2.5c-0.7,0.5-1.6,0.7-2.5,0.6l0.5-0.3v22.7L744.5,77.3z M718.2,41.7
	c1.3-1,2.9-1.5,4.6-1.4c3-0.1,5.9,1.5,7.4,4.1c1.8,2.7,3,6.8,3.5,12.1h-0.9c0-1.5-0.4-2.9-1.3-4.1c-0.9-1.2-2.5-1.8-4.7-1.8
	c-0.9-0.1-1.9,0.2-2.5,0.9c-0.5,0.7-0.8,1.6-0.8,2.5c0,0.5,0,1.1,0.1,1.6c0.1,0.4,0.2,0.8,0.2,1.1c0.1,0.3,0.1,0.6,0.2,0.9
	c0.2,1.2,0,2.5-0.7,3.5c-0.5,0.6-1.3,1-2.1,0.9v-1.9c0.9,0,1.4-0.5,1.4-1.5c0-1-0.2-2-0.6-2.9c-0.4-0.9-0.9-1.7-1.5-2.4
	c-0.6-0.8-1.2-1.5-1.9-2.3c-0.6-0.8-1.1-1.6-1.5-2.5c-0.4-1-0.6-2-0.6-3.1C716.5,43.9,717.1,42.6,718.2,41.7 M736.5,98.1
	c-1.3,1-3,1.5-4.6,1.4c-3,0.1-5.9-1.5-7.4-4.1c-1.8-2.7-3-6.8-3.5-12.1h0.9c0,1.5,0.4,2.9,1.3,4.1c0.9,1.2,2.5,1.8,4.7,1.8
	c0.9,0.1,1.9-0.2,2.5-0.9c0.5-0.7,0.8-1.6,0.8-2.5c0-0.5,0-1.1-0.1-1.6c-0.1-0.4-0.2-0.8-0.2-1.1c-0.1-0.3-0.1-0.6-0.2-0.9
	c-0.2-1.2,0-2.5,0.7-3.5c0.5-0.6,1.3-1,2.1-0.9v1.9c-0.9,0-1.4,0.5-1.4,1.5c0,1,0.2,2,0.6,2.9c0.4,0.9,0.9,1.7,1.5,2.4
	c0.6,0.8,1.2,1.5,1.9,2.3c0.6,0.8,1.1,1.6,1.5,2.5c0.4,1,0.6,2,0.6,3.1C738.1,95.8,737.5,97.2,736.5,98.1 M781.5,44.5
	c-0.1-2,0.5-4,1.6-5.6c1-1.4,2.6-2.2,4.3-2.1c1.8,0,3.5,0.7,4.8,2c1.4,1.6,2.2,3.7,2,5.9v43c-0.1,1.1,0.2,2.2,0.8,3.2
	c0.5,0.6,1.7,1,3.6,1.2l-0.1,1.3c-1.5-0.1-2.9-0.1-4.2-0.1H790c-3,0-5.1-0.6-6.4-1.9c-1.3-1.3-2-3.3-2-6V44.5z M771.3,89.8
	c0.2,0.6,0.7,1.2,1.3,1.4c1,0.4,2.1,0.7,3.2,0.8l-0.2,1.4c-1.1-0.1-2.6-0.2-4.6-0.2c-2-0.1-4.2-0.1-6.5-0.1c-2.3,0-4.5,0-6.6,0.1
	c-2.1,0.1-3.8,0.1-5.1,0.2l-0.2-1.4c2.4-0.4,4-0.9,4.7-1.5c0.7-0.6,1-1.8,1-3.6v-9.9c0-3.6,0.1-6.8,0.2-9.3c0.2-2.6,0.2-5,0.2-7.2
	c0-3.1-0.6-4.6-1.8-4.6c-0.6,0-1.2,0.6-1.8,1.9c-0.7,2.1-0.9,4.3-0.8,6.5v2.2l-1.5,0.1v-2.3c-0.1-2.6,0.2-5.1,0.8-7.6
	c0.4-1.6,1.4-2.9,2.7-3.8c1.5-0.8,3.1-1.2,4.8-1.1c2.7-0.1,5.2,0.8,7.2,2.7c1.7,1.6,2.7,3.9,2.7,6.2v26.5
	C771,88.1,771.1,89,771.3,89.8 M785.7,21.1c1.5-1.2,3.9-1.8,7.2-1.8c3.9,0,6.9,1.1,9.1,3.3c2.2,2.2,3.5,5.2,3.7,8.3h-1
	c0-1.1-0.4-2.1-1.2-2.9c-1-0.9-2.3-1.3-3.7-1.2c-1.3-0.1-2.5,0.3-3.4,1.2c-0.8,1-1.2,2.2-1.1,3.5c0,1.6,0.2,3.1,0.6,4.7
	c0.4,2,0.6,4,0.6,6c0.1,1-0.2,1.9-0.8,2.7c-0.5,0.6-1.3,1-2.1,0.9V44c0.9,0,1.4-0.5,1.4-1.5c0-1.5-0.4-2.9-1.2-4.1
	c-0.8-1.2-1.8-2.4-2.9-3.3c-1.2-1-2.4-2-3.5-2.9c-1.1-0.9-2.1-1.9-2.9-3.1c-0.8-1.1-1.2-2.3-1.2-3.7
	C783.4,23.7,784.3,22.1,785.7,21.1 M762.5,37.2c1.5-1.2,3.9-1.8,7.2-1.8c3.9,0,7,1.1,9.1,3.3c2.2,2.2,3.5,5.2,3.7,8.3h-1
	c0-1.1-0.4-2.1-1.2-2.9c-1-0.9-2.3-1.3-3.7-1.2c-1.3-0.1-2.5,0.3-3.4,1.2c-0.8,1-1.2,2.2-1.1,3.5c0,1.6,0.2,3.1,0.6,4.7
	c0.4,2,0.6,4,0.6,6c0.1,1-0.2,1.9-0.8,2.7c-0.5,0.6-1.3,1-2.1,0.9v-1.9c0.9,0,1.4-0.5,1.4-1.5c0-1.5-0.4-2.9-1.2-4.1
	c-0.8-1.2-1.8-2.4-2.9-3.3c-1.2-1-2.4-2-3.5-2.9c-1.1-0.9-2.1-1.9-2.9-3.1c-0.8-1.1-1.2-2.3-1.2-3.7
	C760.2,39.8,761.1,38.2,762.5,37.2 M817.5,55.5c0,4.2,0,7.8-0.1,10.8c-0.1,3-0.1,5.6-0.2,7.9c-0.1,2.3-0.1,4.3-0.2,6.2
	c-0.1,1.9-0.1,3.7-0.1,5.7c0,3.1,0.5,4.6,1.5,4.6c0.4,0,0.8-0.3,1.2-0.9c0.5-1,0.8-2.1,0.9-3.3c0.3-2.2,0.4-4.4,0.4-6.6v-7.9h1.5
	v7.9c0.1,3.1-0.2,6.3-0.8,9.3c-0.3,1.7-1.2,3.3-2.6,4.4c-1.3,0.8-2.9,1.2-4.5,1.2c-1.8,0-3.5-0.4-5.1-1.2c-1.6-1-2.9-2.5-3.5-4.3
	c-0.9-2.8-1.4-5.7-1.2-8.7V28.2c0-2.2,0.8-4.3,2.3-5.9c1.5-1.6,3.5-2.5,5.7-2.5c2.6,0,4.5,0.7,5.7,2.1c1.2,1.3,1.9,3,1.9,4.8
	c0.1,0.9-0.2,1.8-0.9,2.5c-0.7,0.5-1.6,0.7-2.5,0.6l0.5-0.3L817.5,55.5z M842.6,64.1c-0.9,1.8-2.2,3.4-3.6,4.9
	c-1.4,1.4-2.9,2.7-4.3,4c-1.3,1.1-2.5,2.4-3.6,3.8c-1,1.2-1.5,2.8-1.4,4.3c0,1,0.5,1.5,1.4,1.5v1.9c-0.8,0-1.6-0.3-2.1-0.9
	c-0.6-0.8-0.8-1.7-0.8-2.7c0-1.4,0.1-2.8,0.4-4.1c0.3-1.4,0.6-2.9,0.9-4.5c0.3-1.6,0.7-3.4,0.9-5.4c0.3-2.3,0.4-4.5,0.4-6.8
	c0-1.4,0-2.7-0.2-4.1c-0.1-0.7-0.2-1.3-0.6-1.9c-0.2-0.3-0.5-0.5-0.8-0.5c-0.3,0-0.7,0.3-1,0.8c-0.4,0.8-0.7,1.7-0.8,2.6
	c-0.2,1.7-0.3,3.4-0.3,5.2v4.8h-1.5v-4.8c-0.1-2.7,0.2-5.3,1-7.9c0.5-1.6,1.5-2.9,3-3.7c1.6-0.7,3.4-1.1,5.2-1
	c2.5-0.1,4.9,0.6,6.8,2.1c1.7,1.6,2.6,3.8,2.5,6.2C844.1,59.8,843.6,62.1,842.6,64.1 M830.5,82.9c0-2.4,1-4.6,2.7-6.2
	c1.9-1.8,4.5-2.8,7.1-2.7c2.2,0,3.8,0.6,4.7,1.7c1,1.2,1.5,2.7,1.4,4.2c0.1,1.4-0.2,2.7-1,3.9c-0.6,0.9-1.7,1.3-2.7,1.2l0.5-0.6v1.5
	c0,3.3,0,6.1-0.1,8.6c-0.1,2.5-0.2,4.6-0.2,6.3c-0.1,1.7-0.1,3.2-0.1,4.5c0,3.1,0.5,4.6,1.5,4.6c0.5-0.1,1-0.4,1.2-0.8
	c0.5-0.9,0.8-2,0.9-3c0.3-2,0.4-4,0.4-6v-5.6h1.5v5.6c0.1,2.9-0.2,5.8-0.8,8.7c-0.3,1.6-1.2,3.1-2.6,4.1c-1.3,0.8-2.9,1.2-4.5,1.1
	c-1.8,0-3.5-0.4-5.1-1.2c-1.6-1-2.9-2.5-3.5-4.3c-0.9-2.8-1.4-5.7-1.2-8.6V82.9z M843,38.4c0.1,1.8-0.7,3.6-2.1,4.8
	c-1.5,1-3.3,1.6-5.1,1.5c-1.9,0.1-3.7-0.5-5.1-1.7c-1.2-1.2-1.9-2.8-1.8-4.5c-0.1-1.8,0.6-3.5,1.9-4.8c1.5-1.3,3.4-1.9,5.4-1.8
	c1.8-0.1,3.7,0.5,5,1.8C842.4,34.9,843.1,36.6,843,38.4 M876.8,63.8c1.9-1.4,4.2-2.1,6.6-2c0.9,0,1.7,0.1,2.5,0.2
	c0.7,0.1,1.4,0.3,2.1,0.5l-0.2,1c-0.3-0.1-0.6-0.1-0.9-0.1c-0.3,0-0.6,0-0.9,0c-0.7-0.1-1.3,0.2-1.7,0.7c-0.4,1-0.6,2-0.5,3.1
	c0,0.5,0,1.2,0,2c0,0.8,0.1,1.5,0.1,2l-0.6-1.4h0.9c1.7,0,2.8,0.3,3.3,1c0.6,0.8,0.9,1.9,0.8,2.9c0.1,1.2-0.3,2.3-1.1,3.2
	c-0.8,0.8-2.3,1.1-4.6,1.1c-4.6,0.1-8.5-3.6-8.5-8.2c0,0,0,0,0-0.1C874.1,67.5,875.1,65.3,876.8,63.8 M866,85.8
	c0.1,2.2-0.7,4.3-2.1,5.9c-1.3,1.6-3.2,2.5-5.2,2.5c-1.9,0.1-3.7-0.7-5-2.1c-1.2-1.3-1.9-3-1.9-4.8c-0.1-0.9,0.2-1.8,0.9-2.5
	c0.7-0.5,1.6-0.7,2.5-0.6l-0.5,0.3v-2.4c-0.1-3.8,0.3-7.5,1-11.2c0.6-2.7,1.5-5.4,2.8-7.8c1.1-2,2.4-4,3.9-5.8
	c1.4-1.7,2.8-3.3,4.2-4.9c1.4-1.6,2.7-3.4,3.9-5.3c1.3-2.1,2.2-4.5,2.8-6.9c0.8-3.2,1.1-6.4,1-9.7v-2.4c-0.1-2.2,0.7-4.3,2.1-5.9
	c1.3-1.6,3.2-2.5,5.2-2.5c1.9-0.1,3.7,0.7,5,2.1c1.2,1.3,1.9,3,1.9,4.8c0.1,0.9-0.2,1.8-0.9,2.5c-0.7,0.5-1.6,0.7-2.5,0.6l0.5-0.3
	v2.4c0.1,3.8-0.3,7.5-1,11.2c-0.6,2.7-1.5,5.4-2.8,7.8c-1.1,2-2.4,4-3.9,5.8c-1.4,1.7-2.8,3.3-4.2,4.9c-1.4,1.6-2.7,3.4-3.9,5.3
	c-1.3,2.1-2.2,4.5-2.8,6.9c-0.8,3.2-1.1,6.4-1,9.7L866,85.8z M883.4,93c-1.3,1.1-3.5,1.7-6.6,1.7c-3,0.1-6-1.1-8.1-3.3
	c-2.1-2.2-3.4-5.2-3.7-8.3h1c0,1,0.3,2,0.9,2.9c0.8,0.9,1.9,1.3,3.1,1.2c1.7,0,2.8-0.3,3.3-1c0.6-0.8,0.9-1.7,0.8-2.7
	c0-1.2-0.2-2.5-0.6-3.7c-0.4-1.2-0.7-2.5-1.1-3.8c-0.4-1.5-0.5-3.1-0.5-4.7c-0.1-1,0.2-1.9,0.8-2.7c0.5-0.6,1.3-1,2.1-0.9v1.9
	c-0.9,0-1.4,0.5-1.4,1.5c-0.1,1.5,0.4,3.1,1.2,4.3c0.8,1.2,1.8,2.3,3,3.1c1.2,0.9,2.4,1.8,3.5,2.8c1.2,0.9,2.2,2,3,3.2
	c0.8,1.3,1.3,2.9,1.2,4.5C885.3,90.6,884.6,92,883.4,93 M856.9,21c1.3-1.1,3.5-1.7,6.6-1.7c3.1-0.1,6,1.1,8.1,3.3
	c2.1,2.2,3.4,5.2,3.6,8.3h-1c0-1-0.3-2-0.9-2.9c-0.8-0.9-1.9-1.3-3.1-1.2c-1.7,0-2.8,0.3-3.3,1c-0.6,0.8-0.9,1.7-0.8,2.7
	c0,1.2,0.2,2.5,0.5,3.7c0.4,1.2,0.7,2.5,1.1,3.8c0.4,1.5,0.6,3.1,0.6,4.7c0.1,1-0.2,1.9-0.8,2.7c-0.5,0.6-1.3,1-2.1,0.9v-1.9
	c0.9,0,1.4-0.5,1.4-1.5c0.1-1.5-0.4-3.1-1.2-4.3c-0.8-1.2-1.8-2.3-3-3.1c-1.2-0.9-2.4-1.8-3.5-2.8c-1.2-0.9-2.2-2-3-3.2
	c-0.8-1.3-1.3-2.9-1.2-4.5C855,23.4,855.7,22,856.9,21 M863.4,50.2c-1.9,1.4-4.2,2.1-6.6,2c-0.9,0-1.7-0.1-2.6-0.2
	c-0.6-0.1-1.3-0.3-2.1-0.5l0.2-1c0.3,0.1,0.6,0.1,0.9,0.1c0.3,0,0.6,0,0.9,0c0.7,0.1,1.3-0.2,1.7-0.7c0.4-1,0.6-2,0.5-3.1
	c0-0.5,0-1.2,0-2c0-0.8-0.1-1.5-0.1-2l0.6,1.4h-0.9c-1.7,0-2.8-0.3-3.4-1c-0.6-0.8-0.9-1.9-0.8-2.9c-0.1-1.2,0.3-2.3,1.1-3.2
	c0.7-0.8,2.3-1.1,4.6-1.1c4.6-0.1,8.5,3.6,8.5,8.2c0,0,0,0,0,0.1C866.1,46.5,865.2,48.7,863.4,50.2 M916.5,72.9
	c0-4.6,3.8-8.3,8.5-8.3c0,0,0,0,0.1,0c2.3,0,3.8,0.4,4.6,1.1c0.8,0.9,1.2,2,1.1,3.2c0.1,1-0.2,2.1-0.8,2.9c-0.6,0.7-1.7,1-3.3,1
	h-0.9l0.6-1.4c-0.1,0.5-0.1,1.2-0.1,2c0,0.8,0,1.5,0,2c0.1,2.2-0.2,4.5-0.9,6.6c-0.5,1.3-1.5,2.3-2.8,2.7c-1.6,0.4-3.2,0.6-4.8,0.6
	c-1.3,0.1-2.5-0.3-3.6-1c-1-0.7-1.7-1.6-2.3-2.7c-0.6-1.1-1.1-2.3-1.5-3.5c-0.4-1.2-0.8-2.3-1.1-3.4c-0.2-0.9-0.6-1.8-1.1-2.6
	c-0.3-0.6-0.9-0.9-1.5-0.8l0.2-1.9c0.7,0,1.3,0.3,1.7,0.9c0.5,0.7,1,1.5,1.2,2.3c0.3,1,0.7,2,1,3.1c0.3,1,0.7,2,1.2,3
	c0.4,0.9,0.9,1.6,1.5,2.3c0.5,0.6,1.3,0.9,2.1,0.9c0.3,0,0.6-0.1,0.8-0.4c0.2-0.4,0.2-0.8,0.2-1.2V72.9z M895.8,61.7l0.5,0.3
	c-0.9,0.2-1.8,0-2.5-0.6c-0.7-0.7-1-1.6-0.9-2.5c0-3.8,3.1-6.9,7-6.9c0.1,0,0.1,0,0.2,0c2.2-0.1,4.3,0.8,5.7,2.5
	c1.4,1.6,2.2,3.7,2.2,5.9v30.3c0,2.3-0.9,4.6-2.6,6.2c-1.8,1.8-4.2,2.8-6.7,2.7c-2,0-3.5-0.5-4.4-1.5c-1-1.1-1.5-2.6-1.4-4.1
	c-0.1-1.4,0.2-2.8,0.9-4.1c0.5-0.9,1.5-1.4,2.5-1.3l-0.5,0.6L895.8,61.7z M924.4,55.8c0,1.3-0.3,2.6-0.9,3.7c-0.6,1.1-1.3,2-2.2,2.9
	c-0.9,0.9-1.8,1.7-2.6,2.6c-0.8,0.9-1.6,1.8-2.2,2.9c-0.6,1.1-0.9,2.3-0.9,3.5c0,1,0.5,1.5,1.4,1.5v1.9c-0.8,0-1.6-0.3-2.1-0.9
	c-0.6-0.8-0.8-1.7-0.8-2.7c0-1,0.1-2,0.3-3c0.2-0.9,0.4-1.9,0.6-2.9c0.2-1.1,0.3-2.2,0.3-3.3c0.1-1-0.2-2-0.7-2.9
	c-0.5-0.7-1.4-1-2.9-1c-1,0-2,0.2-2.9,0.8c-0.7,0.5-1.1,1.3-1.1,2.2h-1c0.1-2.3,0.6-4.6,1.6-6.8c0.7-1.6,1.8-2.9,3.3-3.9
	c1.4-0.9,3.1-1.3,4.8-1.2c2.6,0,4.6,0.6,5.8,1.9C923.8,52.3,924.5,54,924.4,55.8 M900.2,109c0-1.4,0.3-2.8,0.9-4.1
	c0.6-1.2,1.3-2.2,2.2-3.2c0.9-0.9,1.7-1.9,2.6-2.8c0.8-0.9,1.6-1.9,2.2-2.9c0.6-1.1,0.9-2.3,0.9-3.5c0-1-0.5-1.5-1.4-1.5v-1.9
	c0.8,0,1.6,0.3,2.1,0.9c0.6,0.8,0.8,1.7,0.8,2.7c0,1-0.1,2.1-0.3,3.1c-0.2,1-0.4,2-0.6,3.1c-0.3,1.3-0.4,2.7-0.4,4.1
	c-0.1,1.3,0.2,2.6,0.8,3.7c0.7,0.8,1.8,1.2,2.8,1.1c1,0.1,2-0.2,2.9-0.8c0.6-0.5,1-1.3,1-2.1h1c-0.1,2.3-0.6,4.6-1.5,6.8
	c-0.7,1.6-1.8,2.9-3.2,3.9c-1.5,0.9-3.2,1.3-4.9,1.2c-2.1,0.1-4.2-0.6-5.7-2.1C900.8,113.1,900.1,111.1,900.2,109 M917.7,96.7
	c0.5-1.7,1.7-3.2,3.2-4.1c1.4-0.8,3.1-1.2,4.7-1.1c0.8,0,1.7,0.1,2.5,0.2c0.7,0.1,1.4,0.3,2.1,0.5l-0.2,1c-0.3-0.1-0.6-0.1-0.9-0.1
	c-0.3,0-0.6,0-0.9,0c-0.7-0.1-1.3,0.2-1.7,0.7c-0.4,1-0.6,2-0.5,3.1v1.8c0,0.9,0,2,0,3.1c0,1.1,0.1,2.2,0.1,3.1c0,0.9,0,1.5,0,1.8
	l-0.6-1.4h0.9c1.2-0.1,2.3,0.1,3.3,0.6c0.7,0.7,1,1.6,0.8,2.5c0,1.4-0.5,2.8-1.6,3.7c-1.1,1-2.6,1.5-4.1,1.4
	c-4.6,0.1-8.4-3.6-8.5-8.2c0,0,0,0,0-0.1C916.4,102.3,916.8,99.4,917.7,96.7 M938.3,62l0.5,0.3c-0.9,0.2-1.8,0-2.5-0.6
	c-0.7-0.7-1-1.6-0.9-2.5c0-1.8,0.7-3.5,1.9-4.8c1.4-1.4,3.3-2.2,5.2-2.1c2.2-0.1,4.3,0.8,5.7,2.5c1.4,1.6,2.2,3.7,2.2,5.9v25.4
	c0,2.3-0.9,4.6-2.6,6.2c-1.8,1.8-4.2,2.8-6.7,2.7c-2,0-3.5-0.5-4.4-1.5c-1-1.1-1.5-2.6-1.4-4.1c-0.1-1.4,0.2-2.8,0.9-4.1
	c0.5-0.9,1.5-1.4,2.5-1.3l-0.5,0.6L938.3,62z M936.9,114.7c-0.1-2.9,0.4-5.8,1.4-8.5c0.9-2.1,2.1-4.1,3.6-5.8
	c1.3-1.5,2.8-2.9,4.3-4.2c1.3-1.1,2.6-2.4,3.6-3.8c1-1.3,1.5-2.9,1.5-4.5c0-1-0.5-1.5-1.4-1.5v-1.9c0.8,0,1.6,0.3,2.1,0.9
	c0.6,0.8,0.8,1.7,0.8,2.7c0,1.3-0.2,2.7-0.5,3.9c-0.3,1.3-0.7,2.7-1.1,4.3c-0.4,1.6-0.8,3.5-1.1,5.7c-0.4,2.6-0.5,5.3-0.5,8
	c0,3.5,0.5,5.9,1.5,7.4c1,1.4,2.7,2.1,5,2.1c1.5,0.1,2.9-0.3,4.1-1.2c0.8-0.7,1.3-1.8,1.2-2.9h1c-0.2,3.1-1.6,6-3.8,8.3
	c-2.2,2.2-5.3,3.3-9.3,3.3c-6.5,0.4-12-4.4-12.5-10.9C936.9,115.8,936.9,115.3,936.9,114.7 M949.8,60.9c1.1-0.2,2.2,0.3,2.8,1.2
	c1,1.3,1.8,2.8,2.3,4.3c0.8,2,1.4,4.1,1.9,6.2c0.6,2.3,1.1,4.5,1.6,6.8c0.5,2.3,1,4.4,1.5,6.4c0.4,1.6,0.9,3.2,1.6,4.7
	c0.6,1.2,1.2,1.8,1.8,1.8V94c-1,0.2-2-0.3-2.5-1.2c-0.9-1.3-1.6-2.8-2.1-4.3c-0.6-1.9-1.2-3.9-1.8-6.2c-0.6-2.3-1.1-4.5-1.6-6.8
	c-0.5-2.3-1.1-4.4-1.7-6.4c-0.4-1.6-1-3.2-1.8-4.7c-0.6-1.2-1.3-1.8-2.1-1.8V60.9z M974.1,97.7c-0.1,3.5-0.2,6.9-0.2,10.2
	c-0.1,3.2-0.1,6.7-0.1,10.3c0,3.1,0.6,4.6,1.8,4.6c0.4,0,0.8-0.3,1.1-0.9c0.4-1,0.7-2.1,0.8-3.2c0.2-2.2,0.3-4.5,0.3-6.7v-7.8
	l1.5-0.1v7.9c0.1,3.1-0.2,6.3-0.8,9.3c-0.5,2.1-1.3,3.6-2.5,4.4c-1.4,0.8-3,1.2-4.6,1.2c-2.7,0.1-5.2-0.8-7.2-2.7
	c-1.7-1.6-2.7-3.9-2.7-6.2V35.1c0-0.9-0.1-1.8-0.4-2.7c-0.4-0.8-1-1.4-1.9-1.7c-1.4-0.5-3-0.8-4.5-0.8l0.1-1.3
	c2.3,0.1,4.4,0.1,6.2,0.1h5.6c2.9,0,5,0.6,6,1.9c1.1,1.3,1.6,3.3,1.6,6v48.9C974.2,90.1,974.1,94.1,974.1,97.7 M996,2.7
	c1,2.4,1.4,4.9,1.3,7.4c0,7.7-0.2,14.5-0.6,20.6c-0.4,6-0.9,11.4-1.4,16.1c-0.6,4.7-1.1,9-1.7,12.8c-0.6,3.8-1.1,7.4-1.5,10.7
	c-0.4,3.2-0.6,6.4-0.6,9.6h-1.6c0-3.2-0.2-6.4-0.6-9.6c-0.4-3.3-0.9-6.8-1.5-10.7c-0.6-3.8-1.2-8.1-1.7-12.9
	c-0.6-4.8-1-10.1-1.4-16.2c-0.4-6-0.6-12.9-0.6-20.6c-0.1-2.6,0.4-5.2,1.6-7.4c1.1-1.8,2.9-2.7,5.4-2.7h0.1
	C993.5,0,995.2,0.9,996,2.7 M998.2,88.1c0.1,1.8-0.6,3.5-1.9,4.8c-1.4,1.1-3.1,1.7-4.9,1.6c-2.5,0-4.3-0.6-5.6-1.7
	c-1.3-1.2-1.9-2.9-1.9-4.6v-0.1c-0.1-1.8,0.6-3.5,2-4.7c1.4-1.1,3.2-1.7,5-1.6c1.9-0.1,3.7,0.5,5.2,1.8
	C997.5,84.7,998.2,86.4,998.2,88.1L998.2,88.1z"/>
<path class="st0" d="M1078.9,122.1c0.4-0.9,0.7-1.9,0.8-2.9c0.3-2.4,0.4-4.9,0.4-7.4V104h1.7v7.9c0.1,3.1-0.2,6.2-0.8,9.3
	c-0.3,1.8-1.3,3.3-2.8,4.3c-1.6,0.9-3.5,1.3-5.3,1.2c-3.3,0-5.9-0.6-7.6-1.9c-1.9-1.4-3.1-3.5-3.3-5.9c-1.2-6.6-2.2-12.3-3.2-16.9
	c-0.9-4.7-1.8-8.5-2.6-11.5c-0.5-2.3-1.3-4.5-2.3-6.6c-0.8-1.4-1.6-2.1-2.4-2.1h-3.4v-1.9h3.4c3.6,0,7,1.5,10.2,4.5
	s6.1,7.4,8.7,13.3c2.9,7,5,14.4,6.4,21.9c0.1,0.9,0.4,1.8,0.9,2.5c0.3,0.3,0.6,0.5,0.8,0.5C1078.4,122.7,1078.6,122.5,1078.9,122.1
	 M1066.8,41.3c3.1,0.9,5.7,3.1,7.2,6c1.4,2.9,2.2,7,2.2,12.2v0.1c0,5.3-0.9,9.6-2.7,12.7c-1.8,3.2-4.7,5.6-8.2,6.9
	c-4.4,1.5-9.1,2.3-13.8,2.1l-0.2-1.4c2.1,0.1,4.2-0.5,6.1-1.6c1.7-1,3-3,3.8-5.7c1-3.9,1.4-7.9,1.3-12v0.1c0.1-4-0.3-8-1.2-11.9
	c-0.8-2.8-1.9-4.7-3.4-5.8c-1.5-1.1-3.3-1.7-5.2-1.6h-4.1v77.8c0,0.9,0.1,1.7,0.4,2.5c0.3,0.7,0.9,1.2,1.6,1.4
	c1.2,0.4,2.4,0.8,3.6,0.9l-0.2,1.4c-1.3-0.1-3-0.2-5.2-0.2c-2.2-0.1-4.5-0.1-7-0.1c-2.5,0-4.8,0-7,0.1c-2.2,0.1-3.9,0.1-5.2,0.2
	l-0.2-1.4c2.4-0.4,4-0.9,4.7-1.5c0.7-0.6,1-1.8,1-3.6V45.7c0-0.9-0.1-1.7-0.4-2.5c-0.3-0.7-0.9-1.2-1.6-1.4
	c-1.2-0.4-2.4-0.8-3.6-0.9l0.2-1.4c1.3,0.1,2.9,0.2,4.9,0.2c2,0,4.1,0,6.4,0h12.1C1059,39.6,1063.5,40.1,1066.8,41.3 M1082.2,73.2
	c0.4-1.5,1.2-2.8,2.5-3.7c1.5-1,3.2-1.6,5-1.8c2.7-0.4,5.5-0.5,8.3-0.5h6.3l0.1,1.7l-6.6,0.2c-1.5,0.1-2.5,0.6-2.9,1.3
	c-0.4,0.8-0.6,2.5-0.6,5v6.4c0,3.8,0.3,6.4,0.9,7.7c0.4,1.2,1.6,2,2.9,2c0.7,0,1.4-0.2,2-0.6c0.8-0.7,1.5-1.6,1.9-2.6
	c0.7-1.8,1.2-3.7,1.4-5.6c0.4-3.3,0.6-6.6,0.5-9.9l1.5,0.3c0.1,3.8-0.2,7.6-0.7,11.4c-0.3,2.3-1,4.5-2.1,6.4
	c-0.8,1.4-2.1,2.4-3.6,2.9c-1.6,0.5-3.4,0.8-5.1,0.7h-0.1c-2.3,0.1-4.6-0.5-6.6-1.6c-1.9-1.2-3.4-2.9-4.2-5
	c-1.1-2.7-1.5-5.6-1.4-8.5C1081.4,77.4,1081.6,75.2,1082.2,73.2 M1103.1,45c-0.2-1.3-0.8-2.5-1.7-3.5c-0.7-0.6-1.6-1-2.6-1
	c-1,0-1.9,0.3-2.7,0.9c-1,0.9-1.8,2.1-2.1,3.4c-0.6,2.4-0.9,4.9-0.8,7.3v6.4c0.1,0.7-0.1,1.4-0.5,2c-0.3,0.4-0.9,0.6-1.4,0.6
	c-1.6,0-3.2-0.2-4.8-0.7c-1.3-0.4-2.3-1.3-3-2.5c-0.8-1.5-1.1-3.3-1-5c-0.1-2.6,0.5-5.1,1.7-7.4c1.2-2.2,3.2-4,5.5-5
	c3.1-1.3,6.4-1.9,9.7-1.8c2.6-0.1,5.2,0.3,7.6,1c2.1,0.6,3.9,1.9,5.3,3.5c1.5,2,2.6,4.3,3.1,6.8c0.7,3.5,1.1,7.1,1,10.7v3.3
	c0,1.2,0,2.6,0,4.1c0,1.6-0.1,3.3-0.1,5c-0.1,1.8-0.1,3.5-0.2,5.2c-0.1,1.7-0.1,3.1-0.1,4.4c0,1.3,0,2.3,0,2.9
	c0,3.1,0.5,4.6,1.6,4.6c0.4,0,0.8-0.3,1.1-0.8c0.5-0.9,0.8-1.8,0.9-2.8c0.2-1.9,0.4-3.8,0.3-5.7v-4.5h1.5v4.5
	c0.1,2.8-0.2,5.6-0.8,8.3c-0.4,1.6-1.3,3.1-2.7,4c-1.5,0.8-3.1,1.2-4.8,1.1c-2.5,0.1-5-0.8-6.8-2.6c-1.7-1.6-2.6-3.8-2.6-6.2V52.1
	C1103.8,49.7,1103.6,47.3,1103.1,45 M1143.7,89.8c0.2,0.6,0.7,1.2,1.3,1.4c1,0.4,2.1,0.7,3.2,0.8l-0.2,1.4c-1.1-0.1-2.6-0.2-4.6-0.2
	c-2-0.1-4.2-0.1-6.5-0.1c-2.3,0-4.5,0-6.6,0.1c-2.1,0.1-3.8,0.1-5.1,0.2l-0.2-1.4c2.4-0.4,4-0.9,4.7-1.5c0.7-0.6,1-1.8,1-3.6V52.9
	c0-3.8,0-6.9,0.1-9.5c0.1-2.6,0.2-5,0.2-7.3c0.1-2.3,0.1-4.8,0.1-7.7c0-3.1-0.6-4.6-1.8-4.6c-0.4,0-0.8,0.3-1.2,0.9
	c-0.5,1-0.9,2.1-1,3.2c-0.3,2.2-0.4,4.4-0.4,6.7v7.8l-1.5,0.1v-7.9c-0.1-3.1,0.2-6.3,0.8-9.3c0.3-1.8,1.3-3.3,2.7-4.4
	c1.4-0.8,3.1-1.2,4.8-1.2c2.7-0.1,5.2,0.8,7.2,2.7c1.7,1.6,2.7,3.9,2.7,6.2v58.7C1143.4,88.1,1143.5,89,1143.7,89.8 M1154.4,34.9
	c0.1-2.7-0.1-5.4-0.6-8.1c-0.2-1.3-0.8-2.5-1.7-3.4c-0.7-0.5-1.5-0.8-2.4-0.8c-0.8,0-1.7,0.2-2.4,0.6c-0.9,0.6-1.6,1.5-2,2.6
	c-0.7,1.8-1.1,3.7-1.3,5.6c-0.4,3.3-0.5,6.6-0.5,9.9l-1.5-0.3c0-3.6,0.1-7.3,0.6-10.9c0.2-2.3,0.9-4.5,1.9-6.5
	c0.8-1.4,2-2.5,3.5-3.1c1.8-0.6,3.7-0.9,5.6-0.8c4.8,0,8.2,1.2,10.4,3.5c2.1,2.3,3.2,5.8,3.2,10.3v24.7c0,3.8,0,7-0.1,9.6
	c-0.1,2.6-0.1,4.9-0.2,6.9c-0.1,2-0.1,3.8-0.2,5.6c-0.1,1.7-0.1,3.6-0.1,5.5c0,3.1,0.5,4.6,1.5,4.6c0.4,0,0.8-0.3,1.1-0.9
	c0.5-1,0.8-2.1,0.9-3.3c0.3-2.2,0.4-4.4,0.4-6.6v-7.9h1.5v7.9c0.1,3.1-0.2,6.3-0.8,9.3c-0.3,1.7-1.2,3.3-2.6,4.4
	c-1.3,0.8-2.9,1.2-4.5,1.2c-1.8,0-3.5-0.4-5.1-1.2c-1.6-1-2.9-2.5-3.5-4.3c-0.9-2.8-1.4-5.7-1.2-8.7L1154.4,34.9z M1179.2,63
	c1.5-3.6,4.1-6.7,7.5-8.7c3.6-1.9,7.6-2.9,11.6-2.8c2.2-0.1,4.4,0.3,6.5,1.1c1.7,0.7,3.3,1.5,4.9,2.4l-0.9,2.3
	c-1.6-1.1-3.3-2.1-5-2.9c-1.8-0.8-3.8-1.2-5.8-1.2c-1.2,0-2.4,0.3-3.5,0.8c-1.2,0.7-2.1,1.8-2.7,3c-0.9,2-1.5,4.1-1.7,6.3
	c-0.4,3.5-0.6,7-0.6,10.6v12.9c-0.1,3.7,0.2,7.3,0.7,11c0.5,2.5,1.2,4.3,2,5.2c0.8,0.9,1.9,1.4,3.1,1.4c0.8,0,1.7-0.2,2.4-0.6
	c1-0.6,1.7-1.5,2.2-2.6c0.8-1.8,1.3-3.7,1.6-5.6c0.5-3.3,0.7-6.6,0.6-9.9l1.5,0.3c0.1,3.6-0.2,7.3-0.6,10.9c-0.3,2.3-1,4.5-2.1,6.5
	c-0.8,1.4-2.1,2.6-3.7,3.1c-1.8,0.6-3.6,0.9-5.5,0.8c-3,0.1-5.9-0.6-8.5-2.2c-2.5-1.7-4.3-4.2-5.1-7.1c-1.2-3.3-1.7-7.7-1.7-13.3
	v-6.4C1176.6,72.1,1177.4,66.9,1179.2,63 M1214.9,84.1c-0.1,2.3-0.1,4.3-0.2,6c-0.1,1.7-0.1,3.3-0.2,4.6c-0.1,1.4-0.1,2.7-0.1,4
	c0,3.1,0.5,4.6,1.6,4.6c0.5-0.1,1-0.4,1.2-0.8c0.5-0.9,0.7-1.9,0.8-2.9c0.2-1.9,0.4-3.8,0.3-5.6v-4.5h1.5V94
	c0.1,2.8-0.2,5.6-0.8,8.3c-0.4,1.6-1.3,3.1-2.7,4c-1.5,0.8-3.1,1.2-4.8,1.1c-2.5,0.1-5-0.8-6.8-2.6c-1.7-1.6-2.6-3.8-2.6-6.2V35.1
	c0-0.9-0.1-1.8-0.4-2.7c-0.4-0.8-1-1.4-1.9-1.7c-1.4-0.5-3-0.8-4.5-0.8l0.1-1.3c2.3,0.1,4.4,0.1,6.2,0.1h5.6c3,0,5,0.6,6,1.9
	c1.1,1.3,1.6,3.3,1.6,6v39.4C1215,79.2,1214.9,81.9,1214.9,84.1 M1251.3,73.2c0.1-4.2-0.2-8.4-1-12.5c-0.6-2.8-1.5-4.8-2.6-5.8
	c-0.9-0.9-2.1-1.5-3.4-1.5c-0.9,0-1.8,0.3-2.6,0.8c-1,0.8-1.8,1.8-2.2,3c-0.8,1.9-1.3,4-1.5,6.1c-0.4,3.4-0.6,6.8-0.6,10.2v32.2
	c0,3.4,0.1,6.8,0.6,10.2c0.2,2,0.7,4,1.6,5.9c0.5,1.1,1.2,2,2.2,2.7c0.7,0.5,1.6,0.7,2.4,0.7c1.4,0,2.8-0.7,3.7-1.8
	c1.1-1.2,1.9-3.2,2.5-6.1c0.7-3.9,1-8,0.9-12L1251.3,73.2z M1224.4,82.3c0-7.4,0.9-13.3,2.7-17.8c1.8-4.5,4.3-7.7,7.4-9.7
	c3-2,6.6-3,10.2-3c2.9-0.1,5.8,0.4,8.5,1.3c2.5,0.9,4.6,2.4,6.2,4.5c1.9,2.6,3.2,5.6,3.8,8.8c0.9,4.7,1.4,9.4,1.3,14.2v16.1
	c0,7.3-0.9,13.2-2.7,17.6c-1.8,4.4-4.2,7.6-7.3,9.7c-3.1,2-6.6,3.1-10.3,3c-2.9,0.1-5.8-0.4-8.5-1.3c-2.4-0.9-4.6-2.4-6.2-4.4
	c-1.9-2.6-3.2-5.5-3.8-8.7c-1-4.7-1.4-9.4-1.3-14.2V82.3z M1298.2,45.2c0.1-2.7-0.1-5.4-0.6-8.1c-0.2-1.3-0.8-2.5-1.7-3.4
	c-0.7-0.5-1.5-0.8-2.3-0.8c-0.8,0-1.6,0.2-2.3,0.6c-0.9,0.7-1.5,1.5-1.9,2.6c-0.7,1.8-1.1,3.7-1.2,5.6c-0.3,3.3-0.5,6.6-0.4,9.9
	l-1.5-0.3c0-3.6,0.1-7.3,0.5-10.9c0.2-2.3,0.8-4.5,1.8-6.5c0.7-1.4,1.9-2.5,3.4-3.1c1.8-0.6,3.7-0.9,5.6-0.8c4.7,0,8.1,1.2,10.3,3.5
	c2.1,2.3,3.2,5.8,3.2,10.3v43.8c-0.1,1.1,0.1,2.2,0.8,3.2c0.5,0.6,1.7,1,3.6,1.2l-0.1,1.3c-1.5-0.1-2.9-0.1-4.3-0.1h-4.3
	c-3,0-5.1-0.6-6.4-1.9c-1.3-1.3-2-3.3-2-6V45.2z M1321.5,45.2c0.1-2.7-0.1-5.4-0.6-8.1c-0.2-1.3-0.7-2.5-1.6-3.4
	c-0.7-0.5-1.5-0.8-2.3-0.8c-0.8,0-1.6,0.2-2.3,0.6c-0.9,0.6-1.6,1.5-1.9,2.6c-0.7,1.8-1.1,3.7-1.3,5.6c-0.3,3.3-0.5,6.6-0.4,9.9
	l-1.5-0.3c0-3.6,0.1-7.3,0.5-10.9c0.2-2.3,0.8-4.5,1.8-6.5c0.8-1.4,2-2.5,3.5-3.1c1.8-0.6,3.6-0.9,5.5-0.8c4.7,0,8.1,1.2,10.3,3.5
	c2.1,2.3,3.2,5.8,3.2,10.3v16.6c0,3.4,0,6.4-0.1,8.9c-0.1,2.5-0.1,4.7-0.2,6.6c-0.1,1.9-0.1,3.6-0.2,5.2c-0.1,1.6-0.1,3.2-0.1,4.8
	c0,3.1,0.5,4.6,1.5,4.6c0.4,0,0.8-0.3,1.1-0.8c0.5-1,0.8-2,0.9-3.1c0.3-2,0.4-4,0.4-6.1v-6.1h1.5v6.1c0.1,2.9-0.2,5.9-0.8,8.8
	c-0.3,1.7-1.2,3.2-2.6,4.2c-1.3,0.8-2.9,1.2-4.5,1.1c-1.8,0-3.5-0.4-5.1-1.2c-1.6-1-2.9-2.5-3.5-4.3c-0.9-2.8-1.4-5.7-1.2-8.7
	L1321.5,45.2z M1288,89.8c0.2,0.6,0.6,1.2,1.2,1.4c1,0.5,2.1,0.7,3.2,0.8l-0.2,1.4c-1.1-0.1-2.6-0.2-4.6-0.2c-2-0.1-4.2-0.1-6.5-0.1
	c-2.3,0-4.5,0-6.6,0.1c-2.1,0.1-3.8,0.1-5.1,0.2l-0.2-1.4c2.4-0.4,4-0.9,4.7-1.5c0.7-0.6,1-1.8,1-3.6V60.7c0-3.3,0-6.2,0.1-8.6
	c0.1-2.4,0.2-4.6,0.2-6.7c0.1-2.1,0.1-4.3,0.1-6.7c0-3.1-0.6-4.6-1.8-4.6c-0.5,0-1,0.4-1.3,0.8c-0.5,0.9-0.8,2-0.9,3
	c-0.3,2-0.4,4.1-0.4,6.1v6l-1.5,0.1v-6.1c-0.1-2.9,0.2-5.9,0.8-8.8c0.3-1.7,1.3-3.2,2.7-4.2c1.5-0.8,3.1-1.2,4.8-1.1
	c2.6-0.1,5.2,0.8,7.1,2.7c1.7,1.6,2.7,3.8,2.7,6.2v48.4C1287.7,88.1,1287.8,89,1288,89.8 M1360.5,80.4c0,3.3,0,6.2-0.1,8.7
	c-0.1,2.5-0.1,4.6-0.2,6.5c-0.1,1.9-0.1,3.6-0.2,5.1c-0.1,1.6-0.1,3.1-0.1,4.6c0,3.1,0.5,4.6,1.5,4.6c0.5-0.1,1-0.4,1.2-0.8
	c0.5-0.9,0.8-2,0.9-3c0.2-2,0.4-4,0.3-6v-5.6h1.5v5.6c0.1,2.9-0.2,5.8-0.8,8.7c-0.3,1.6-1.2,3.1-2.6,4.1c-1.3,0.8-2.9,1.2-4.5,1.1
	c-1.8,0-3.5-0.4-5.1-1.2c-1.6-1-2.9-2.5-3.5-4.3c-0.9-2.8-1.4-5.7-1.2-8.6v-18c0-3.2,0-6,0.1-8.3c0.1-2.3,0.2-4.5,0.2-6.5
	c0.1-2,0.1-4.2,0.1-6.5c0-3.1-0.6-4.6-1.8-4.6c-0.5,0-1,0.4-1.3,0.8c-0.5,0.9-0.8,1.9-0.9,3c-0.3,2-0.4,4-0.4,6v5.6l-1.5,0.1v-5.6
	c-0.1-2.9,0.2-5.8,0.9-8.7c0.4-1.7,1.3-3.1,2.7-4.1c1.4-0.8,3.1-1.2,4.7-1.1c2-0.1,3.9,0.3,5.6,1.2c1.6,1,2.7,2.5,3.2,4.3
	c0.8,2.8,1.1,5.7,1,8.5L1360.5,80.4z M1359.9,39.3c0.1,1.8-0.7,3.6-2.1,4.7c-1.5,1-3.3,1.6-5.1,1.5c-1.9,0.1-3.7-0.5-5.1-1.6
	c-1.2-1.2-1.9-2.8-1.8-4.5c-0.1-1.8,0.6-3.5,1.9-4.8c1.5-1.3,3.4-1.9,5.4-1.8c1.8-0.1,3.6,0.5,5,1.8
	C1359.3,35.9,1359.9,37.6,1359.9,39.3 M1393.8,92.6V81c-0.1-3.6,0.3-7.3,1.3-10.8c0.6-2.2,1.8-4.1,3.5-5.6c1.3-1.1,2.9-1.6,4.5-1.6
	c1.3,0,1.9,0.6,1.9,1.7l-0.7,27.8c0,0.7-0.4,1-1.1,1c-2.3-0.1-5.2-0.2-8.8-0.2h-23.9l-0.5-2l22.1-69.4l4.5,0.6h-18.8l2.7-0.1
	l-0.2,11.5c0.1,3.5-0.4,7-1.4,10.3c-0.6,2-1.7,3.9-3.3,5.2c-1.3,1-2.9,1.5-4.5,1.5c-1.1,0-1.6-0.5-1.6-1.5l0.6-27.9
	c-0.1-0.5,0.3-1,0.8-1c0.1,0,0.2,0,0.3,0c2.4,0.1,5.3,0.1,8.8,0.1c3.5,0,7.6,0,12.3,0h11l0.8,2l-21.4,69.4l-11.4-0.6h31.6
	L1393.8,92.6z M1419.6,118c-3.2-1.7-5.7-4.6-6.9-8c-1.6-3.8-2.3-9.1-2.3-15.9V81.2c0-7.2,0.8-13,2.4-17.4c1.6-4.3,3.8-7.4,6.6-9.3
	c2.9-1.9,6.3-2.9,9.7-2.8c4.3,0,7.7,0.7,10.3,2.2c2.7,1.6,4.7,4.1,5.7,7c1.3,4,1.9,8.2,1.8,12.5V80c0,1.8-0.2,3-0.7,3.5
	c-0.5,0.5-1.5,0.7-3.2,0.7h-23.9l0.1-2l15.8-0.2l-1.2,0.9V64c0-3.9-0.4-6.7-1.2-8.2c-0.7-1.5-2.2-2.4-3.8-2.3
	c-0.8,0-1.6,0.2-2.3,0.6c-0.8,0.6-1.4,1.5-1.7,2.5c-0.6,1.8-0.9,3.7-1,5.7c-0.2,2.5-0.4,6-0.4,10.3v25.8c-0.1,4.3,0.2,8.6,0.8,12.8
	c0.5,3,1.3,5,2.4,6c1.2,1.1,2.7,1.7,4.3,1.6c1.4,0,2.8-0.2,4-0.8c1.2-0.6,2.1-1.7,2.5-2.9c0.7-2,1.1-4.1,1.1-6.2V95.9
	c0-1.7,1-2.6,2.9-2.6c0.8,0,1.6,0.2,2.2,0.7c0.8,0.7,1.3,1.7,1.4,2.7c0.4,2,0.6,4.1,0.5,6.1c0.1,3.4-0.4,6.7-1.4,9.9
	c-0.8,2.4-2.5,4.5-4.7,5.8c-2.7,1.4-5.7,2-8.7,1.9C1427,120.5,1423.1,119.7,1419.6,118 M1454.9,38.1c1.8-4.4,4.3-7.6,7.5-9.5
	c3.5-2,7.6-3,11.6-2.9c2.2-0.1,4.4,0.3,6.5,1.1c1.7,0.7,3.3,1.5,4.9,2.4l-0.9,2.3c-1.6-1.1-3.3-2.1-5-2.9c-1.8-0.8-3.8-1.2-5.8-1.2
	c-1.2,0-2.4,0.3-3.5,0.8c-1.2,0.7-2.1,1.8-2.7,3c-0.9,2-1.5,4.1-1.7,6.3c-0.4,3.5-0.6,7-0.6,10.6V74c-0.1,3.7,0.2,7.3,0.7,11
	c0.5,2.5,1.2,4.3,2,5.2c0.8,0.9,1.9,1.4,3.1,1.4c0.8,0,1.7-0.2,2.4-0.6c1-0.6,1.7-1.5,2.2-2.6c0.8-1.8,1.3-3.7,1.6-5.6
	c0.5-3.3,0.7-6.6,0.6-9.9l1.5,0.3c0.1,3.6-0.2,7.3-0.6,10.9c-0.3,2.3-1,4.5-2.1,6.5c-0.8,1.4-2.1,2.6-3.7,3.1
	c-1.8,0.6-3.6,0.9-5.5,0.8c-3,0.1-5.9-0.7-8.5-2.3c-2.3-1.5-4-4.2-5.1-7.9c-1.2-3.8-1.7-9-1.7-15.6V55.8
	C1452.2,48.4,1453.1,42.5,1454.9,38.1 M1490.5,69c-0.1,2.6-0.1,4.8-0.2,6.6c-0.1,1.9-0.1,3.6-0.2,5.3c-0.1,1.6-0.1,3.3-0.1,5
	c0,3.1,0.5,4.6,1.6,4.6c0.4,0,0.8-0.3,1.2-0.9c0.5-1,0.7-2,0.8-3.1c0.2-2.1,0.4-4.2,0.3-6.3v-6.8h1.5v6.8c0.1,3-0.2,6-0.8,9
	c-0.3,1.7-1.3,3.2-2.7,4.3c-1.5,0.8-3.1,1.2-4.8,1.2c-2.5,0.1-5-0.8-6.8-2.6c-1.7-1.6-2.6-3.8-2.6-6.2V9.3c0-0.9-0.1-1.8-0.4-2.7
	c-0.4-0.8-1-1.4-1.9-1.7c-1.4-0.5-3-0.8-4.5-0.8l0.1-1.3c2.3,0.1,4.4,0.1,6.2,0.1h5.6c3,0,5,0.6,6,1.9c1.1,1.3,1.6,3.3,1.6,6V60
	C1490.6,63.4,1490.6,66.5,1490.5,69 M1520.7,120.3c0.1,1.8-0.6,3.5-1.9,4.8c-1.4,1.1-3.1,1.7-4.9,1.6c-2.5,0-4.3-0.6-5.6-1.7
	c-1.3-1.2-1.9-2.9-1.9-4.6v-0.1c-0.1-1.8,0.6-3.5,2-4.7c1.4-1.1,3.2-1.7,5-1.6c1.9-0.1,3.7,0.5,5.2,1.8
	C1520.1,116.8,1520.8,118.6,1520.7,120.3L1520.7,120.3z M1515,32c3.1,0,6.1,0.8,8.8,2.5c2.6,1.6,4.7,4.4,6.3,8.3
	c1.6,3.9,2.4,9.2,2.4,16v8.1c0.1,6.6-0.5,13.2-1.9,19.7c-0.9,4.6-2.6,9-4.9,13.1c-1.7,2.9-4,5.5-6.8,7.4c-2.2,1.5-4.8,2.3-7.5,2.3
	l-2.3-0.1v-2h2.1c1,0,2-0.1,2.9-0.4c1.1-0.5,1.9-1.3,2.3-2.4c0.9-2,1.4-4.1,1.7-6.3c0.6-4,0.9-8,1-12c0.2-5.1,0.4-11.7,0.4-19.7
	V50.2c0-5.7-0.5-9.9-1.4-12.8c-0.9-2.8-2.2-4.2-3.8-4.2c-2.3,0-3.7,1.5-4.4,4.4c-0.8,4.1-1.1,8.4-1,12.6v24.2
	c0.1,0.9-0.1,1.7-0.4,2.5c-0.3,0.4-0.9,0.6-1.9,0.6c-1.1,0-2.2-0.2-3.2-0.7c-1.1-0.6-2.1-1.5-2.7-2.7c-0.9-1.8-1.5-3.7-1.8-5.7
	c-0.5-3.2-0.7-6.4-0.7-9.7c-0.1-4.5,0.5-8.9,1.7-13.2c0.8-3,2.2-5.7,4.1-8.1c1.4-1.8,3.2-3.2,5.3-4.1C1511.2,32.5,1513.1,32,1515,32
	"/>
<path class="st0" d="M1587.1,89.9c0.4-0.9,0.7-1.8,0.8-2.8c0.3-2.3,0.4-4.6,0.4-7v-6.8h1.7v6.8c0.1,3-0.2,6-0.8,8.9
	c-0.3,1.7-1.3,3.2-2.8,4.2c-1.6,0.9-3.5,1.3-5.3,1.2c-3.3,0-5.9-0.6-7.7-1.9c-1.9-1.4-3.1-3.5-3.2-5.9c-0.6-6.7-1.1-12.3-1.6-16.7
	c-0.5-4.4-0.9-7.9-1.3-10.5c-0.4-2.6-0.8-4.6-1.1-5.9c-0.2-0.9-0.5-1.9-1-2.7c-0.2-0.4-0.6-0.6-1-0.8c-0.4-0.1-0.7-0.2-1-0.4
	l0.7-1.3c1.6,0.3,3.1,0.5,4.6,0.7c1.5,0.2,2.9,0.6,4.3,1.2c1.5,0.7,2.8,1.8,3.8,3.1c1.5,1.9,2.6,4,3.3,6.3c1.2,3.5,2.2,7.2,2.8,10.8
	c0.9,4.5,1.6,10,2.2,16.7c0,0.9,0.2,1.8,0.8,2.5c0.2,0.3,0.6,0.5,0.9,0.5C1586.6,90.5,1586.8,90.3,1587.1,89.9 M1569.5,43.6
	c0.5-0.7,0.7-1.4,0.8-2.3c0.2-1.7,0.4-3.4,0.4-5.1c0.1-2.3,0.1-5.3,0.1-9.3v-5.6c0-2.2,0.7-4.3,2.2-5.9c1.5-1.7,3.7-2.6,6-2.5
	c2.2-0.1,4.3,0.6,5.8,2.1c1.3,1.3,2.1,3,2.1,4.8c0.1,0.9-0.2,1.9-0.9,2.5c-0.7,0.5-1.6,0.7-2.5,0.6l0.5-0.3v3.2
	c0.1,3.8-0.3,7.6-1.4,11.3c-0.8,2.6-2.4,4.8-4.7,6.2c-2.9,1.5-6,2.5-9.2,2.7c-1.3,0.2-2.4,0.9-3.2,1.9c-0.9,1.1-1.7,2.4-2.2,3.8
	c-0.6,1.6-1.2,3.1-1.7,4.7c-0.5,1.7-1,3.2-1.4,4.7c-0.4,1.2-0.9,2.4-1.6,3.5c-0.4,0.8-1.3,1.3-2.2,1.4h-3.5v-1.9h3.5
	c0.5,0,1-0.4,1.4-1.2c0.5-1.1,0.9-2.2,1.2-3.3c0.4-1.4,0.9-2.9,1.4-4.5c0.5-1.6,1.1-3.1,1.8-4.6c0.6-1.4,1.4-2.7,2.5-3.9
	c0.9-1.1,2.1-1.9,3.5-2.3C1568.6,44.2,1569.1,43.9,1569.5,43.6 M1555.1,35.4c1.2,1.5,1.9,3.4,1.9,5.4v46.4c0,0.9,0.1,1.7,0.4,2.6
	c0.3,0.7,0.9,1.2,1.6,1.4c1.2,0.4,2.4,0.8,3.6,0.9l-0.2,1.4c-1.3-0.1-3-0.2-5.2-0.2c-2.2-0.1-4.5-0.1-7-0.1c-2.5,0-4.8,0-7,0.1
	c-2.2,0.1-3.9,0.1-5.2,0.2l-0.2-1.4c2.4-0.4,4-0.9,4.7-1.5c0.7-0.6,1-1.8,1-3.6V39.3c0-0.9-0.1-1.7-0.4-2.5
	c-0.3-0.7-0.9-1.2-1.6-1.4c-1.2-0.4-2.4-0.8-3.6-0.9l0.2-1.4c0.9,0.1,2,0.1,3.4,0.2c1.4,0.1,2.8,0.1,4.2,0.1h3.7
	C1551.9,33.2,1553.8,33.9,1555.1,35.4 M1546.7,14.5c0.9-1.4,2.2-2.5,3.7-3.2c2.1-0.9,4.3-1.3,6.5-1.2c2.3,0,4.6,0.4,6.7,1.4
	c2.2,1,4,2.6,5.3,4.6c1.6,2.7,2.7,5.7,3,8.9h-1.1c0.1-1.6-0.7-3.1-2-4c-1.5-0.9-3.2-1.4-5-1.3c-2.4,0-4.1,0.5-5.2,1.5
	c-1.1,1-1.7,2.7-1.7,5c0,1.4,0.2,2.9,0.7,4.2c0.5,1.4,0.9,2.8,1.3,4.2c0.4,1.2,0.6,2.6,0.6,3.9c0.1,1-0.3,2-0.9,2.8
	c-0.5,0.7-1.4,1.1-2.3,1v-2.1c0.7,0.1,1.4-0.4,1.5-1.1c0-0.1,0-0.3,0-0.4c0-1.5-0.4-3.1-1.2-4.3c-0.9-1.3-1.9-2.4-3.1-3.5
	c-1.2-1.1-2.5-2.2-3.7-3.3c-1.2-1.1-2.3-2.4-3.1-3.8c-0.9-1.6-1.3-3.3-1.2-5.1C1545.5,17.3,1545.9,15.8,1546.7,14.5 M1607.2,90.6
	c-0.1,4.6-3.8,8.3-8.5,8.3c0,0,0,0-0.1,0c-2.3,0-3.8-0.4-4.6-1.1c-0.8-0.9-1.2-2-1.1-3.2c-0.1-1,0.2-2.1,0.8-2.9
	c0.6-0.7,1.7-1,3.3-1h0.9l-0.6,1.4c0.1-0.5,0.1-1.2,0.1-2c0-0.8,0-1.5,0-2c-0.1-2.1,0.2-4.2,0.9-6.2c0.5-1.3,1.6-2.3,3-2.7
	c1.9-0.5,3.8-0.7,5.7-0.6c1,0,1.9,0.2,2.7,0.7c0.8,0.5,1.4,1.1,2,1.8c0.6,0.7,1.1,1.5,1.5,2.3c0.5,0.8,0.9,1.6,1.2,2.3
	c0.3,0.6,0.7,1.2,1.2,1.7c0.3,0.4,0.8,0.6,1.3,0.5l-0.2,1.9c-0.5,0-1.1-0.2-1.4-0.6c-0.5-0.4-0.9-1-1.2-1.5
	c-0.4-0.6-0.8-1.3-1.1-2.1c-0.4-0.7-0.7-1.4-1.2-2c-0.4-0.6-0.8-1.1-1.3-1.6c-0.5-0.4-1.1-0.7-1.8-0.6c-0.6-0.1-1.1,0.3-1.4,0.8
	c-0.3,0.8-0.4,1.7-0.3,2.5L1607.2,90.6z M1601,105.9c0-1.1,0.2-2.1,0.7-3.1c0.5-0.9,1.1-1.7,1.8-2.5c0.7-0.8,1.4-1.5,2.1-2.3
	c0.7-0.8,1.3-1.7,1.8-2.6c0.5-1,0.7-2.1,0.7-3.2c0-1-0.5-1.5-1.4-1.5v-1.9c0.8,0,1.6,0.3,2.1,0.9c0.6,0.8,0.8,1.7,0.8,2.7
	c0,0.7-0.1,1.3-0.2,2c-0.1,0.6-0.3,1.3-0.4,1.9c-0.2,0.7-0.2,1.5-0.2,2.2c0,0.8,0.2,1.7,0.6,2.4c0.6,0.7,1.6,1,2.5,0.9
	c1,0,2-0.3,2.8-0.9c0.7-0.6,1.2-1.5,1.1-2.5h0.9c0,2.6-0.5,5.1-1.5,7.6c-0.6,1.6-1.7,3.1-3.1,4.1c-1.3,0.8-2.9,1.3-4.5,1.2
	c-1.8,0.1-3.6-0.4-5-1.6C1601.5,108.8,1600.9,107.3,1601,105.9 M1622,54.1c0,1.1-0.2,2.3-0.7,3.3c-0.5,1-1.1,1.9-1.8,2.7
	c-0.7,0.8-1.5,1.7-2.2,2.5c-0.7,0.8-1.3,1.7-1.8,2.6c-0.5,1-0.7,2.1-0.7,3.2c0,1,0.5,1.5,1.4,1.5v1.9c-0.8,0-1.6-0.3-2.1-0.9
	c-0.6-0.8-0.8-1.7-0.8-2.7c0-0.7,0.1-1.4,0.2-2c0.2-0.6,0.3-1.3,0.4-2.1c0.1-0.9,0.2-1.8,0.2-2.7c0.1-1-0.2-2.1-0.7-2.9
	c-0.6-0.7-1.5-1-2.4-0.9c-1.1-0.1-2.1,0.3-2.9,0.9c-0.7,0.6-1.1,1.5-1.1,2.4h-0.9c0-2.6,0.5-5.1,1.4-7.6c0.6-1.6,1.7-3.1,3.1-4.1
	c1.4-0.8,2.9-1.3,4.5-1.2c1.8-0.1,3.6,0.5,5,1.6C1621.5,50.8,1622.1,52.4,1622,54.1 M1606.1,67.7c-0.6,1.6-1.8,2.9-3.2,3.7
	c-1.5,0.7-3.1,1.1-4.7,1c-0.9,0-1.7-0.1-2.5-0.2c-0.7-0.1-1.4-0.3-2.1-0.5l0.2-1c0.3,0.1,0.6,0.1,0.9,0.1c0.3,0,0.6,0,0.9,0
	c0.7,0.1,1.3-0.2,1.7-0.7c0.4-1,0.6-2,0.5-3.1v-1.5c0-0.7,0-1.5,0-2.4c0-0.9-0.1-1.7-0.1-2.5c0-0.8,0-1.3,0-1.5l0.6,1.4h-0.9
	c-1.2,0.1-2.3-0.1-3.3-0.6c-0.7-0.7-1-1.6-0.8-2.5c0-1.4,0.5-2.8,1.6-3.7c1.1-1,2.6-1.5,4.1-1.4c4.6-0.1,8.5,3.6,8.5,8.2
	c0,0,0,0,0,0.1C1607.3,62.9,1606.9,65.4,1606.1,67.7 M1627.9,88.4c-0.1,2.4-0.2,4.5-0.2,6.1c-0.1,1.6-0.1,3-0.1,4.2
	c0,3.1,0.5,4.6,1.6,4.6c0.5,0,0.9-0.4,1.2-0.8c0.5-0.9,0.7-1.9,0.8-2.9c0.2-1.9,0.4-3.8,0.3-5.7v-4.5h1.5V94
	c0.1,2.8-0.1,5.6-0.6,8.3c-0.2,1.6-1.1,3-2.3,4c-1.5,0.8-3.2,1.2-4.8,1.1c-2.5,0.1-5-0.8-6.8-2.6c-1.7-1.6-2.6-3.8-2.6-6.2V70.2
	c0-2.3,0.9-4.6,2.6-6.2c1.8-1.8,4.2-2.8,6.7-2.7c2.5,0,4.3,0.5,5.2,1.5c1,1.1,1.5,2.6,1.4,4.1c0.1,1.4-0.3,2.9-1,4.1
	c-0.7,1-2,1.5-3.2,1.3l0.5-0.6v7.6C1628,83,1628,86,1627.9,88.4 M1656.5,89.8c0.2,0.6,0.7,1.2,1.3,1.4c1,0.4,2.1,0.7,3.2,0.8
	l-0.2,1.4c-1.1-0.1-2.6-0.2-4.6-0.2c-2-0.1-4.2-0.1-6.5-0.1c-2.3,0-4.5,0-6.6,0.1c-2.1,0.1-3.8,0.1-5.1,0.2l-0.2-1.4
	c2.4-0.4,4-0.9,4.7-1.5c0.7-0.6,1-1.8,1-3.6v-9.9c0-3.6,0.1-6.8,0.2-9.3c0.2-2.6,0.2-5,0.2-7.2c0-3.1-0.6-4.6-1.8-4.6
	c-0.6,0-1.2,0.6-1.8,1.9c-0.5,1.2-0.8,3.4-0.8,6.5v2.2l-1.5,0.1v-2.3c-0.1-2.6,0.2-5.1,0.8-7.6c0.4-1.6,1.4-2.9,2.7-3.8
	c1.5-0.8,3.1-1.2,4.8-1.1c2.6-0.1,5.1,0.7,7.2,2.3c1.8,1.7,2.8,4.1,2.7,6.5v26.5C1656.2,88.1,1656.3,89,1656.5,89.8 M1647.8,27.5
	c2.1-2,5-3.1,7.9-2.9c3.8,0,6.7,1.1,8.8,3.4c2.2,2.6,3.5,5.8,3.7,9.3h-1c0-1.2-0.4-2.3-1.2-3.1c-0.8-0.9-2.2-1.3-4.1-1.3
	c-2.1,0-3.6,0.6-4.4,1.8c-0.9,1.2-1.3,3.3-1.3,6.2c0,2.1,0.1,4.3,0.4,6.4c0.2,1.5,0.5,3.1,0.8,4.6c0.3,1.3,0.6,2.4,0.9,3.5
	c0.3,1,0.4,2.1,0.4,3.1c0.1,1-0.2,1.9-0.8,2.7c-0.5,0.6-1.3,1-2.1,0.9v-1.9c0.9,0,1.4-0.5,1.4-1.5c0-1.5-0.4-2.9-1.2-4.1
	c-0.9-1.3-1.9-2.4-3.1-3.5c-1.2-1.1-2.4-2.4-3.7-3.7c-1.3-1.4-2.4-3.1-3.1-4.9c-0.9-2.3-1.3-4.7-1.2-7.2
	C1644.7,32.3,1645.8,29.5,1647.8,27.5 M1679.9,57.6c0,3.9,0,7.3-0.1,10.1c-0.1,2.8-0.1,5.3-0.2,7.4c-0.1,2.1-0.1,4-0.2,5.7
	c-0.1,1.7-0.1,3.4-0.1,5.2c0,3.1,0.5,4.6,1.5,4.6c0.4,0,0.7-0.3,1.1-0.9c0.5-1,0.8-2,0.9-3.1c0.3-2.1,0.4-4.2,0.4-6.3v-6.8h1.5v6.8
	c0.1,3-0.2,6-0.8,9c-0.3,1.7-1.2,3.2-2.6,4.3c-1.3,0.8-2.9,1.2-4.5,1.2c-1.8,0-3.5-0.4-5.1-1.2c-1.6-1-2.9-2.5-3.5-4.3
	c-0.9-2.8-1.4-5.7-1.2-8.7V34.6c0-2.2,0.8-4.3,2.3-5.9c1.5-1.6,3.5-2.5,5.7-2.5c2.6,0,4.5,0.7,5.7,2.1c1.2,1.3,1.9,3,1.9,4.8
	c0.1,0.9-0.2,1.8-0.9,2.5c-0.7,0.5-1.6,0.7-2.5,0.6l0.5-0.3L1679.9,57.6z M1691.8,62l0.5,0.3c-0.9,0.2-1.8,0-2.5-0.6
	c-0.7-0.7-1-1.6-0.9-2.5c0-1.8,0.7-3.5,1.9-4.8c1.4-1.4,3.3-2.2,5.2-2.1c2.2-0.1,4.3,0.8,5.7,2.5c1.4,1.6,2.2,3.7,2.2,5.9v25.4
	c0,2.3-0.9,4.6-2.6,6.2c-1.8,1.8-4.2,2.8-6.7,2.7c-2,0-3.5-0.5-4.4-1.5c-1-1.1-1.5-2.6-1.4-4.1c-0.1-1.4,0.2-2.8,0.9-4.1
	c0.5-0.9,1.5-1.4,2.5-1.3l-0.5,0.6V62z M1690.5,114.7c-0.1-2.9,0.4-5.8,1.4-8.5c0.9-2.1,2.1-4.1,3.6-5.8c1.3-1.5,2.8-2.9,4.3-4.2
	c1.3-1.1,2.6-2.4,3.6-3.8c1-1.3,1.5-2.9,1.5-4.5c0-1-0.5-1.5-1.4-1.5v-1.9c0.8,0,1.6,0.3,2.1,0.9c0.6,0.8,0.8,1.7,0.8,2.7
	c0,1.3-0.2,2.7-0.5,3.9c-0.3,1.3-0.7,2.7-1.1,4.3c-0.4,1.6-0.8,3.5-1.1,5.7c-0.4,2.6-0.5,5.3-0.5,8c0,3.5,0.5,5.9,1.5,7.4
	c1,1.4,2.7,2.1,5,2.1c1.5,0.1,2.9-0.3,4.1-1.2c0.8-0.7,1.3-1.8,1.2-2.9h1c-0.2,3.1-1.6,6-3.8,8.3c-2.2,2.2-5.3,3.3-9.3,3.3
	c-6.5,0.4-12-4.4-12.5-10.9C1690.4,115.8,1690.4,115.3,1690.5,114.7 M1703.4,60.9c1.1-0.2,2.2,0.3,2.8,1.2c1,1.3,1.8,2.8,2.3,4.3
	c0.8,2,1.4,4.1,1.9,6.2c0.6,2.3,1.1,4.5,1.6,6.8c0.5,2.3,1,4.4,1.5,6.4c0.4,1.6,0.9,3.2,1.6,4.7c0.6,1.2,1.2,1.8,1.8,1.8V94
	c-1,0.2-2-0.3-2.5-1.2c-0.9-1.3-1.6-2.8-2.1-4.3c-0.6-1.9-1.2-3.9-1.8-6.2c-0.6-2.3-1.1-4.5-1.6-6.8c-0.5-2.3-1.1-4.4-1.7-6.4
	c-0.4-1.6-1-3.2-1.8-4.7c-0.6-1.2-1.3-1.8-2.1-1.8L1703.4,60.9z M1727.6,97.7c-0.1,3.5-0.2,6.9-0.2,10.2c-0.1,3.2-0.1,6.7-0.1,10.3
	c0,3.1,0.6,4.6,1.8,4.6c0.4,0,0.8-0.3,1.1-0.9c0.4-1,0.7-2.1,0.8-3.2c0.2-2.2,0.3-4.5,0.3-6.7v-7.8l1.5-0.1v7.9
	c0.1,3.1-0.2,6.3-0.8,9.3c-0.5,2.1-1.3,3.6-2.5,4.4c-1.4,0.8-3,1.2-4.6,1.2c-2.7,0.1-5.2-0.8-7.2-2.7c-1.7-1.6-2.7-3.9-2.7-6.2V35.1
	c0-0.9-0.1-1.8-0.4-2.7c-0.4-0.8-1-1.4-1.9-1.7c-1.4-0.5-3-0.8-4.5-0.8l0.1-1.3c2.3,0.1,4.4,0.1,6.2,0.1h5.6c2.9,0,5,0.6,6,1.9
	c1.1,1.3,1.6,3.3,1.6,6v48.9C1727.7,90.1,1727.7,94.1,1727.6,97.7 M1739.6,62.5c-1,0.1-2-0.4-2.5-1.3c-0.7-1.3-1-2.7-0.9-4.1
	c-0.1-1.5,0.4-2.9,1.4-4.1c0.9-1,2.4-1.5,4.4-1.5c2.5-0.1,4.9,0.9,6.7,2.7c1.7,1.6,2.6,3.9,2.6,6.2v25.4c0,2.2-0.7,4.3-2.2,5.9
	c-1.4,1.6-3.5,2.5-5.7,2.5c-3.8,0.1-7-2.9-7.2-6.7c0-0.1,0-0.1,0-0.2c-0.1-0.9,0.2-1.8,0.9-2.5c0.7-0.5,1.6-0.7,2.5-0.6l-0.5,0.3
	V61.8L1739.6,62.5z M1774,77.3c1-0.1,2,0.4,2.5,1.3c0.7,1.3,1,2.7,0.9,4.1c0.1,1.5-0.4,2.9-1.4,4.1c-0.9,1-2.4,1.5-4.4,1.5
	c-2.5,0.1-4.9-0.9-6.7-2.7c-1.7-1.6-2.6-3.9-2.6-6.2V53.9c0-2.2,0.7-4.3,2.2-5.9c1.4-1.6,3.5-2.5,5.7-2.5c2-0.1,3.9,0.7,5.2,2.1
	c1.2,1.3,1.9,3,1.9,4.8c0.1,0.9-0.2,1.8-0.9,2.5c-0.7,0.5-1.6,0.7-2.5,0.6l0.5-0.3v22.7L1774,77.3z M1747.6,41.7
	c1.3-1,2.9-1.5,4.6-1.4c3-0.1,5.9,1.5,7.4,4.1c1.8,2.7,3,6.8,3.5,12.1h-0.9c0-1.5-0.4-2.9-1.3-4.1c-0.9-1.2-2.5-1.8-4.7-1.8
	c-0.9-0.1-1.9,0.2-2.5,0.9c-0.5,0.7-0.8,1.6-0.8,2.5c0,0.5,0,1.1,0.1,1.6c0.1,0.4,0.2,0.8,0.2,1.1c0.1,0.3,0.1,0.6,0.2,0.9
	c0.2,1.2,0,2.5-0.7,3.5c-0.5,0.6-1.3,1-2.1,0.9v-1.9c0.9,0,1.4-0.5,1.4-1.5c0-1-0.2-2-0.6-2.9c-0.4-0.9-0.9-1.7-1.5-2.4
	c-0.6-0.8-1.2-1.5-1.9-2.3c-0.6-0.8-1.1-1.6-1.5-2.5c-0.4-1-0.6-2-0.6-3.1C1746,43.9,1746.6,42.6,1747.6,41.7 M1766,98.1
	c-1.3,1-3,1.5-4.6,1.4c-3,0.1-5.9-1.5-7.4-4.1c-1.8-2.7-3-6.8-3.5-12.1h0.9c0,1.5,0.4,2.9,1.3,4.1c0.9,1.2,2.5,1.8,4.7,1.8
	c0.9,0.1,1.9-0.2,2.5-0.9c0.5-0.7,0.8-1.6,0.8-2.5c0-0.5,0-1.1-0.1-1.6c-0.1-0.4-0.2-0.8-0.2-1.1c-0.1-0.3-0.1-0.6-0.2-0.9
	c-0.2-1.2,0-2.5,0.7-3.5c0.5-0.6,1.3-1,2.1-0.9v1.9c-0.9,0-1.4,0.5-1.4,1.5c0,1,0.2,2,0.6,2.9c0.4,0.9,0.9,1.7,1.5,2.4
	c0.6,0.8,1.2,1.5,1.9,2.3c0.6,0.8,1.1,1.6,1.5,2.5c0.4,1,0.6,2,0.6,3.1C1767.6,95.8,1767,97.2,1766,98.1 M1811,44.5
	c-0.1-2,0.5-4,1.6-5.6c1-1.4,2.6-2.2,4.3-2.1c1.8,0,3.5,0.7,4.8,2c1.4,1.6,2.2,3.7,2,5.9v43c-0.1,1.1,0.2,2.2,0.8,3.2
	c0.5,0.6,1.7,1,3.6,1.2l-0.1,1.3c-1.5-0.1-2.9-0.1-4.2-0.1h-4.3c-3,0-5.1-0.6-6.4-1.9c-1.3-1.3-2-3.3-2-6V44.5z M1800.8,89.8
	c0.2,0.6,0.7,1.2,1.3,1.4c1,0.4,2.1,0.7,3.2,0.8l-0.2,1.4c-1.1-0.1-2.6-0.2-4.6-0.2c-2-0.1-4.2-0.1-6.5-0.1c-2.3,0-4.5,0-6.6,0.1
	c-2.1,0.1-3.8,0.1-5.1,0.2l-0.2-1.4c2.4-0.4,4-0.9,4.7-1.5c0.7-0.6,1-1.8,1-3.6v-9.9c0-3.6,0.1-6.8,0.2-9.3c0.2-2.6,0.2-5,0.2-7.2
	c0-3.1-0.6-4.6-1.8-4.6c-0.6,0-1.2,0.6-1.8,1.9c-0.7,2.1-0.9,4.3-0.8,6.5v2.2l-1.5,0.1v-2.3c-0.1-2.6,0.2-5.1,0.8-7.6
	c0.4-1.6,1.4-2.9,2.7-3.8c1.5-0.8,3.1-1.2,4.8-1.1c2.7-0.1,5.2,0.8,7.2,2.7c1.7,1.6,2.7,3.9,2.7,6.2v26.5
	C1800.5,88.1,1800.6,89,1800.8,89.8 M1815.1,21.1c1.5-1.2,3.9-1.8,7.2-1.8c3.9,0,6.9,1.1,9.1,3.3c2.2,2.2,3.5,5.2,3.7,8.3h-1
	c0-1.1-0.4-2.1-1.2-2.9c-1-0.9-2.3-1.3-3.7-1.2c-1.3-0.1-2.5,0.3-3.4,1.2c-0.8,1-1.2,2.2-1.1,3.5c0,1.6,0.2,3.1,0.6,4.7
	c0.4,2,0.6,4,0.6,6c0.1,1-0.2,1.9-0.8,2.7c-0.5,0.6-1.3,1-2.1,0.9V44c0.9,0,1.4-0.5,1.4-1.5c0-1.5-0.4-2.9-1.2-4.1
	c-0.8-1.2-1.8-2.4-2.9-3.3c-1.2-1-2.4-2-3.5-2.9c-1.1-0.9-2.1-1.9-2.9-3.1c-0.8-1.1-1.2-2.3-1.2-3.7
	C1812.9,23.7,1813.7,22.1,1815.1,21.1 M1792,37.2c1.5-1.2,3.9-1.8,7.2-1.8c3.9,0,7,1.1,9.1,3.3c2.2,2.2,3.5,5.2,3.7,8.3h-1
	c0-1.1-0.4-2.1-1.2-2.9c-1-0.9-2.3-1.3-3.7-1.2c-1.3-0.1-2.5,0.3-3.4,1.2c-0.8,1-1.2,2.2-1.1,3.5c0,1.6,0.2,3.1,0.6,4.7
	c0.4,2,0.6,4,0.6,6c0.1,1-0.2,1.9-0.8,2.7c-0.5,0.6-1.3,1-2.1,0.9v-1.9c0.9,0,1.4-0.5,1.4-1.5c0-1.5-0.4-2.9-1.2-4.1
	c-0.8-1.2-1.8-2.4-2.9-3.3c-1.2-1-2.4-2-3.5-2.9c-1.1-0.9-2.1-1.9-2.9-3.1c-0.8-1.1-1.2-2.3-1.2-3.7
	C1789.7,39.8,1790.5,38.2,1792,37.2 M1847,55.5c0,4.2,0,7.8-0.1,10.8c-0.1,3-0.1,5.6-0.2,7.9c-0.1,2.3-0.1,4.3-0.2,6.2
	c-0.1,1.9-0.1,3.7-0.1,5.7c0,3.1,0.5,4.6,1.5,4.6c0.4,0,0.8-0.3,1.2-0.9c0.5-1,0.8-2.1,0.9-3.3c0.3-2.2,0.4-4.4,0.4-6.6v-7.9h1.5
	v7.9c0.1,3.1-0.2,6.3-0.8,9.3c-0.3,1.7-1.2,3.3-2.6,4.4c-1.3,0.8-2.9,1.2-4.5,1.2c-1.8,0-3.5-0.4-5.1-1.2c-1.6-1-2.9-2.5-3.5-4.3
	c-0.9-2.8-1.4-5.7-1.2-8.7V28.2c0-2.2,0.8-4.3,2.3-5.9c1.5-1.6,3.5-2.5,5.7-2.5c2.6,0,4.5,0.7,5.7,2.1c1.2,1.3,1.9,3,1.9,4.8
	c0.1,0.9-0.2,1.8-0.9,2.5c-0.7,0.5-1.6,0.7-2.5,0.6l0.5-0.3L1847,55.5z M1872,64.1c-0.9,1.8-2.2,3.4-3.6,4.9c-1.4,1.4-2.9,2.7-4.3,4
	c-1.3,1.1-2.5,2.4-3.6,3.8c-1,1.2-1.5,2.8-1.4,4.3c0,1,0.5,1.5,1.4,1.5v1.9c-0.8,0-1.6-0.3-2.1-0.9c-0.6-0.8-0.8-1.7-0.8-2.7
	c0-1.4,0.1-2.8,0.4-4.1c0.3-1.4,0.6-2.9,0.9-4.5c0.3-1.6,0.7-3.4,0.9-5.4c0.3-2.3,0.4-4.5,0.4-6.8c0-1.4,0-2.7-0.2-4.1
	c-0.1-0.7-0.2-1.3-0.6-1.9c-0.2-0.3-0.5-0.5-0.8-0.5c-0.3,0-0.7,0.3-1,0.8c-0.4,0.8-0.7,1.7-0.8,2.6c-0.2,1.7-0.3,3.4-0.3,5.2v4.8
	h-1.5v-4.8c-0.1-2.7,0.2-5.3,1-7.9c0.5-1.6,1.5-2.9,3-3.7c1.6-0.7,3.4-1.1,5.2-1c2.5-0.1,4.9,0.6,6.8,2.1c1.7,1.6,2.6,3.8,2.5,6.2
	C1873.5,59.8,1873,62.1,1872,64.1 M1859.9,82.9c0-2.4,1-4.6,2.7-6.2c1.9-1.8,4.5-2.8,7.1-2.7c2.2,0,3.8,0.6,4.7,1.7
	c1,1.2,1.5,2.7,1.4,4.2c0.1,1.4-0.2,2.7-1,3.9c-0.6,0.9-1.7,1.3-2.7,1.2l0.5-0.6v1.5c0,3.3,0,6.1-0.1,8.6c-0.1,2.5-0.2,4.6-0.2,6.3
	c-0.1,1.7-0.1,3.2-0.1,4.5c0,3.1,0.5,4.6,1.5,4.6c0.5-0.1,1-0.4,1.2-0.8c0.5-0.9,0.8-2,0.9-3c0.3-2,0.4-4,0.4-6v-5.6h1.5v5.6
	c0.1,2.9-0.2,5.8-0.8,8.7c-0.3,1.6-1.2,3.1-2.6,4.1c-1.3,0.8-2.9,1.2-4.5,1.1c-1.8,0-3.5-0.4-5.1-1.2c-1.6-1-2.9-2.5-3.5-4.3
	c-0.9-2.8-1.4-5.7-1.2-8.6V82.9z M1872.5,38.4c0.1,1.8-0.7,3.6-2.1,4.8c-1.5,1-3.3,1.6-5.1,1.5c-1.9,0.1-3.7-0.5-5.1-1.7
	c-1.2-1.2-1.9-2.8-1.8-4.5c-0.1-1.8,0.6-3.5,1.9-4.8c1.5-1.3,3.4-1.9,5.4-1.8c1.8-0.1,3.7,0.5,5,1.8
	C1871.9,34.9,1872.6,36.6,1872.5,38.4 M1906.3,63.8c1.9-1.4,4.2-2.1,6.6-2c0.9,0,1.7,0.1,2.5,0.2c0.7,0.1,1.4,0.3,2.1,0.5l-0.2,1
	c-0.3-0.1-0.6-0.1-0.9-0.1c-0.3,0-0.6,0-0.9,0c-0.7-0.1-1.3,0.2-1.7,0.7c-0.4,1-0.6,2-0.5,3.1c0,0.5,0,1.2,0,2c0,0.8,0.1,1.5,0.1,2
	l-0.6-1.4h0.9c1.7,0,2.8,0.3,3.3,1c0.6,0.8,0.9,1.9,0.8,2.9c0.1,1.2-0.3,2.3-1.1,3.2c-0.8,0.8-2.3,1.1-4.6,1.1
	c-4.6,0.1-8.5-3.6-8.5-8.2c0,0,0,0,0-0.1C1903.6,67.5,1904.5,65.3,1906.3,63.8 M1895.4,85.8c0.1,2.2-0.7,4.3-2.1,5.9
	c-1.3,1.6-3.2,2.5-5.2,2.5c-1.9,0.1-3.7-0.7-5-2.1c-1.2-1.3-1.9-3-1.9-4.8c-0.1-0.9,0.2-1.8,0.9-2.5c0.7-0.5,1.6-0.7,2.5-0.6
	l-0.5,0.3v-2.4c-0.1-3.8,0.3-7.5,1-11.2c0.6-2.7,1.5-5.4,2.8-7.8c1.1-2,2.4-4,3.9-5.8c1.4-1.7,2.8-3.3,4.2-4.9
	c1.4-1.6,2.7-3.4,3.9-5.3c1.3-2.1,2.2-4.5,2.8-6.9c0.8-3.2,1.1-6.4,1-9.7v-2.4c-0.1-2.2,0.7-4.3,2.1-5.9c1.3-1.6,3.2-2.5,5.2-2.5
	c1.9-0.1,3.7,0.7,5,2.1c1.2,1.3,1.9,3,1.9,4.8c0.1,0.9-0.2,1.8-0.9,2.5c-0.7,0.5-1.6,0.7-2.5,0.6l0.5-0.3v2.4
	c0.1,3.8-0.3,7.5-1,11.2c-0.6,2.7-1.5,5.4-2.8,7.8c-1.1,2-2.4,4-3.9,5.8c-1.4,1.7-2.8,3.3-4.2,4.9c-1.4,1.6-2.7,3.4-3.9,5.3
	c-1.3,2.1-2.2,4.5-2.8,6.9c-0.8,3.2-1.1,6.4-1,9.7L1895.4,85.8z M1912.9,93c-1.3,1.1-3.5,1.7-6.6,1.7c-3,0.1-6-1.1-8.1-3.3
	c-2.1-2.2-3.4-5.2-3.7-8.3h1c0,1,0.3,2,0.9,2.9c0.8,0.9,1.9,1.3,3.1,1.2c1.7,0,2.8-0.3,3.3-1c0.6-0.8,0.9-1.7,0.8-2.7
	c0-1.2-0.2-2.5-0.6-3.7c-0.4-1.2-0.7-2.5-1.1-3.8c-0.4-1.5-0.5-3.1-0.5-4.7c-0.1-1,0.2-1.9,0.8-2.7c0.5-0.6,1.3-1,2.1-0.9v1.9
	c-0.9,0-1.4,0.5-1.4,1.5c-0.1,1.5,0.4,3.1,1.2,4.3c0.8,1.2,1.8,2.3,3,3.1c1.2,0.9,2.4,1.8,3.5,2.8c1.2,0.9,2.2,2,3,3.2
	c0.8,1.3,1.3,2.9,1.2,4.5C1914.8,90.6,1914.1,92,1912.9,93 M1886.4,21c1.3-1.1,3.5-1.7,6.6-1.7c3.1-0.1,6,1.1,8.1,3.3
	c2.1,2.2,3.4,5.2,3.6,8.3h-1c0-1-0.3-2-0.9-2.9c-0.8-0.9-1.9-1.3-3.1-1.2c-1.7,0-2.8,0.3-3.3,1c-0.6,0.8-0.9,1.7-0.8,2.7
	c0,1.2,0.2,2.5,0.5,3.7c0.4,1.2,0.7,2.5,1.1,3.8c0.4,1.5,0.6,3.1,0.6,4.7c0.1,1-0.2,1.9-0.8,2.7c-0.5,0.6-1.3,1-2.1,0.9v-1.9
	c0.9,0,1.4-0.5,1.4-1.5c0.1-1.5-0.4-3.1-1.2-4.3c-0.8-1.2-1.8-2.3-3-3.1c-1.2-0.9-2.4-1.8-3.5-2.8c-1.2-0.9-2.2-2-3-3.2
	c-0.8-1.3-1.3-2.9-1.2-4.5C1884.4,23.4,1885.1,22,1886.4,21 M1892.9,50.2c-1.9,1.4-4.2,2.1-6.6,2c-0.9,0-1.7-0.1-2.6-0.2
	c-0.6-0.1-1.3-0.3-2.1-0.5l0.2-1c0.3,0.1,0.6,0.1,0.9,0.1c0.3,0,0.6,0,0.9,0c0.7,0.1,1.3-0.2,1.7-0.7c0.4-1,0.6-2,0.5-3.1
	c0-0.5,0-1.2,0-2c0-0.8-0.1-1.5-0.1-2l0.6,1.4h-0.9c-1.7,0-2.8-0.3-3.4-1c-0.6-0.8-0.9-1.9-0.8-2.9c-0.1-1.2,0.3-2.3,1.1-3.2
	c0.7-0.8,2.3-1.1,4.6-1.1c4.6-0.1,8.5,3.6,8.5,8.2c0,0,0,0,0,0.1C1895.6,46.5,1894.7,48.7,1892.9,50.2 M1946,72.9
	c0-4.6,3.8-8.3,8.5-8.3c0,0,0,0,0.1,0c2.3,0,3.8,0.4,4.6,1.1c0.8,0.9,1.2,2,1.1,3.2c0.1,1-0.2,2.1-0.8,2.9c-0.6,0.7-1.7,1-3.3,1
	h-0.9l0.6-1.4c-0.1,0.5-0.1,1.2-0.1,2c0,0.8,0,1.5,0,2c0.1,2.2-0.2,4.5-0.9,6.6c-0.5,1.3-1.5,2.3-2.8,2.7c-1.6,0.4-3.2,0.6-4.8,0.6
	c-1.3,0.1-2.5-0.3-3.6-1c-1-0.7-1.7-1.6-2.3-2.7c-0.6-1.1-1.1-2.3-1.5-3.5c-0.4-1.2-0.8-2.3-1.1-3.4c-0.2-0.9-0.6-1.8-1.1-2.6
	c-0.3-0.6-0.9-0.9-1.5-0.8l0.2-1.9c0.7,0,1.3,0.3,1.7,0.9c0.5,0.7,1,1.5,1.2,2.3c0.3,1,0.7,2,1,3.1c0.3,1,0.7,2,1.2,3
	c0.4,0.9,0.9,1.6,1.5,2.3c0.5,0.6,1.3,0.9,2.1,0.9c0.3,0,0.6-0.1,0.8-0.4c0.2-0.4,0.2-0.8,0.2-1.2V72.9z M1925.3,61.7l0.5,0.3
	c-0.9,0.2-1.8,0-2.5-0.6c-0.7-0.7-1-1.6-0.9-2.5c0-3.8,3.1-6.9,7-6.9c0.1,0,0.1,0,0.2,0c2.2-0.1,4.3,0.8,5.7,2.5
	c1.4,1.6,2.2,3.7,2.2,5.9v30.3c0,2.3-0.9,4.6-2.6,6.2c-1.8,1.8-4.2,2.8-6.7,2.7c-2,0-3.5-0.5-4.4-1.5c-1-1.1-1.5-2.6-1.4-4.1
	c-0.1-1.4,0.2-2.8,0.9-4.1c0.5-0.9,1.5-1.4,2.5-1.3l-0.5,0.6L1925.3,61.7z M1953.9,55.8c0,1.3-0.3,2.6-0.9,3.7
	c-0.6,1.1-1.3,2-2.2,2.9c-0.9,0.9-1.8,1.7-2.6,2.6c-0.8,0.9-1.6,1.8-2.2,2.9c-0.6,1.1-0.9,2.3-0.9,3.5c0,1,0.5,1.5,1.4,1.5v1.9
	c-0.8,0-1.6-0.3-2.1-0.9c-0.6-0.8-0.8-1.7-0.8-2.7c0-1,0.1-2,0.3-3c0.2-0.9,0.4-1.9,0.6-2.9c0.2-1.1,0.3-2.2,0.3-3.3
	c0.1-1-0.2-2-0.7-2.9c-0.5-0.7-1.4-1-2.9-1c-1,0-2,0.2-2.9,0.8c-0.7,0.5-1.1,1.3-1.1,2.2h-1c0.1-2.3,0.6-4.6,1.6-6.8
	c0.7-1.6,1.8-2.9,3.3-3.9c1.4-0.9,3.1-1.3,4.8-1.2c2.6,0,4.6,0.6,5.8,1.9C1953.3,52.3,1953.9,54,1953.9,55.8 M1929.7,109
	c0-1.4,0.3-2.8,0.9-4.1c0.6-1.2,1.3-2.2,2.2-3.2c0.9-0.9,1.7-1.9,2.6-2.8c0.8-0.9,1.6-1.9,2.2-2.9c0.6-1.1,0.9-2.3,0.9-3.5
	c0-1-0.5-1.5-1.4-1.5v-1.9c0.8,0,1.6,0.3,2.1,0.9c0.6,0.8,0.8,1.7,0.8,2.7c0,1-0.1,2.1-0.3,3.1c-0.2,1-0.4,2-0.6,3.1
	c-0.3,1.3-0.4,2.7-0.4,4.1c-0.1,1.3,0.2,2.6,0.8,3.7c0.7,0.8,1.8,1.2,2.8,1.1c1,0.1,2-0.2,2.9-0.8c0.6-0.5,1-1.3,1-2.1h1
	c-0.1,2.3-0.6,4.6-1.5,6.8c-0.7,1.6-1.8,2.9-3.2,3.9c-1.5,0.9-3.2,1.3-4.9,1.2c-2.1,0.1-4.2-0.6-5.7-2.1
	C1930.3,113.1,1929.5,111.1,1929.7,109 M1947.2,96.7c0.5-1.7,1.7-3.2,3.2-4.1c1.4-0.8,3.1-1.2,4.7-1.1c0.8,0,1.7,0.1,2.5,0.2
	c0.7,0.1,1.4,0.3,2.1,0.5l-0.2,1c-0.3-0.1-0.6-0.1-0.9-0.1c-0.3,0-0.6,0-0.9,0c-0.7-0.1-1.3,0.2-1.7,0.7c-0.4,1-0.6,2-0.5,3.1v1.8
	c0,0.9,0,2,0,3.1c0,1.1,0.1,2.2,0.1,3.1c0,0.9,0,1.5,0,1.8l-0.6-1.4h0.9c1.2-0.1,2.3,0.1,3.3,0.6c0.7,0.7,1,1.6,0.8,2.5
	c0,1.4-0.5,2.8-1.6,3.7c-1.1,1-2.6,1.5-4.1,1.4c-4.6,0.1-8.4-3.6-8.5-8.2c0,0,0,0,0-0.1C1945.9,102.3,1946.3,99.4,1947.2,96.7
	 M1967.7,62l0.5,0.3c-0.9,0.2-1.8,0-2.5-0.6c-0.7-0.7-1-1.6-0.9-2.5c0-1.8,0.7-3.5,1.9-4.8c1.4-1.4,3.3-2.2,5.2-2.1
	c2.2-0.1,4.3,0.8,5.7,2.5c1.4,1.6,2.2,3.7,2.2,5.9v25.4c0,2.3-0.9,4.6-2.6,6.2c-1.8,1.8-4.2,2.8-6.7,2.7c-2,0-3.5-0.5-4.4-1.5
	c-1-1.1-1.5-2.6-1.4-4.1c-0.1-1.4,0.2-2.8,0.9-4.1c0.5-0.9,1.5-1.4,2.5-1.3l-0.5,0.6L1967.7,62z M1966.4,114.7
	c-0.1-2.9,0.4-5.8,1.4-8.5c0.9-2.1,2.1-4.1,3.6-5.8c1.3-1.5,2.8-2.9,4.3-4.2c1.3-1.1,2.6-2.4,3.6-3.8c1-1.3,1.5-2.9,1.5-4.5
	c0-1-0.5-1.5-1.4-1.5v-1.9c0.8,0,1.6,0.3,2.1,0.9c0.6,0.8,0.8,1.7,0.8,2.7c0,1.3-0.2,2.7-0.5,3.9c-0.3,1.3-0.7,2.7-1.1,4.3
	c-0.4,1.6-0.8,3.5-1.1,5.7c-0.4,2.6-0.5,5.3-0.5,8c0,3.5,0.5,5.9,1.5,7.4c1,1.4,2.7,2.1,5,2.1c1.5,0.1,2.9-0.3,4.1-1.2
	c0.8-0.7,1.3-1.8,1.2-2.9h1c-0.2,3.1-1.6,6-3.8,8.3c-2.2,2.2-5.3,3.3-9.3,3.3c-6.5,0.4-12-4.4-12.5-10.9
	C1966.3,115.8,1966.3,115.3,1966.4,114.7 M1979.3,60.9c1.1-0.2,2.2,0.3,2.8,1.2c1,1.3,1.8,2.8,2.3,4.3c0.8,2,1.4,4.1,1.9,6.2
	c0.6,2.3,1.1,4.5,1.6,6.8c0.5,2.3,1,4.4,1.5,6.4c0.4,1.6,0.9,3.2,1.6,4.7c0.6,1.2,1.2,1.8,1.8,1.8V94c-1,0.2-2-0.3-2.5-1.2
	c-0.9-1.3-1.6-2.8-2.1-4.3c-0.6-1.9-1.2-3.9-1.8-6.2c-0.6-2.3-1.1-4.5-1.6-6.8c-0.5-2.3-1.1-4.4-1.7-6.4c-0.4-1.6-1-3.2-1.8-4.7
	c-0.6-1.2-1.3-1.8-2.1-1.8V60.9z M2003.5,97.7c-0.1,3.5-0.2,6.9-0.2,10.2c-0.1,3.2-0.1,6.7-0.1,10.3c0,3.1,0.6,4.6,1.8,4.6
	c0.4,0,0.8-0.3,1.1-0.9c0.4-1,0.7-2.1,0.8-3.2c0.2-2.2,0.3-4.5,0.3-6.7v-7.8l1.5-0.1v7.9c0.1,3.1-0.2,6.3-0.8,9.3
	c-0.5,2.1-1.3,3.6-2.5,4.4c-1.4,0.8-3,1.2-4.6,1.2c-2.7,0.1-5.2-0.8-7.2-2.7c-1.7-1.6-2.7-3.9-2.7-6.2V35.1c0-0.9-0.1-1.8-0.4-2.7
	c-0.4-0.8-1-1.4-1.9-1.7c-1.4-0.5-3-0.8-4.5-0.8l0.1-1.3c2.3,0.1,4.4,0.1,6.2,0.1h5.6c2.9,0,5,0.6,6,1.9c1.1,1.3,1.6,3.3,1.6,6v48.9
	C2003.7,90.1,2003.6,94.1,2003.5,97.7 M2025.5,2.7c1,2.4,1.4,4.9,1.3,7.4c0,7.7-0.2,14.5-0.6,20.6c-0.4,6-0.9,11.4-1.4,16.1
	c-0.6,4.7-1.1,9-1.7,12.8c-0.6,3.8-1.1,7.4-1.5,10.7c-0.4,3.2-0.6,6.4-0.6,9.6h-1.6c0-3.2-0.2-6.4-0.6-9.6
	c-0.4-3.3-0.9-6.8-1.5-10.7c-0.6-3.8-1.2-8.1-1.7-12.9c-0.6-4.8-1-10.1-1.4-16.2c-0.4-6-0.6-12.9-0.6-20.6c-0.1-2.6,0.4-5.2,1.6-7.4
	c1.1-1.8,2.9-2.7,5.4-2.7h0.1C2023,0,2024.6,0.9,2025.5,2.7 M2027.6,88.1c0.1,1.8-0.6,3.5-1.9,4.8c-1.4,1.1-3.1,1.7-4.9,1.6
	c-2.5,0-4.3-0.6-5.6-1.7c-1.3-1.2-1.9-2.9-1.9-4.6v-0.1c-0.1-1.8,0.6-3.5,2-4.7c1.4-1.1,3.2-1.7,5-1.6c1.9-0.1,3.7,0.5,5.2,1.8
	C2027,84.7,2027.7,86.4,2027.6,88.1L2027.6,88.1z"/>
<path class="st0" d="M2108.4,122.1c0.4-0.9,0.7-1.9,0.8-2.9c0.3-2.4,0.4-4.9,0.4-7.4V104h1.7v7.9c0.1,3.1-0.2,6.2-0.8,9.3
	c-0.3,1.8-1.3,3.3-2.8,4.3c-1.6,0.9-3.5,1.3-5.3,1.2c-3.3,0-5.9-0.6-7.6-1.9c-1.9-1.4-3.1-3.5-3.3-5.9c-1.2-6.6-2.2-12.3-3.2-16.9
	c-0.9-4.7-1.8-8.5-2.6-11.5c-0.5-2.3-1.3-4.5-2.3-6.6c-0.8-1.4-1.6-2.1-2.4-2.1h-3.4v-1.9h3.4c3.6,0,7,1.5,10.2,4.5
	c3.2,3,6.1,7.4,8.7,13.3c2.9,7,5,14.4,6.4,21.9c0.1,0.9,0.4,1.8,0.9,2.5c0.3,0.3,0.6,0.5,0.8,0.5
	C2107.9,122.7,2108.1,122.5,2108.4,122.1 M2096.3,41.3c3.1,0.9,5.7,3.1,7.2,6c1.4,2.9,2.2,7,2.2,12.2v0.1c0,5.3-0.9,9.6-2.7,12.7
	c-1.8,3.2-4.7,5.6-8.2,6.9c-4.4,1.5-9.1,2.3-13.8,2.1l-0.2-1.4c2.1,0.1,4.2-0.5,6.1-1.6c1.7-1,3-3,3.8-5.7c1-3.9,1.4-7.9,1.3-12v0.1
	c0.1-4-0.3-8-1.2-11.9c-0.8-2.8-1.9-4.7-3.4-5.8c-1.5-1.1-3.3-1.7-5.2-1.6h-4.1v77.8c0,0.9,0.1,1.7,0.4,2.5c0.3,0.7,0.9,1.2,1.6,1.4
	c1.2,0.4,2.4,0.8,3.6,0.9l-0.2,1.4c-1.3-0.1-3-0.2-5.2-0.2c-2.2-0.1-4.5-0.1-7-0.1c-2.5,0-4.8,0-7,0.1c-2.2,0.1-3.9,0.1-5.2,0.2
	l-0.2-1.4c2.4-0.4,4-0.9,4.7-1.5c0.7-0.6,1-1.8,1-3.6V45.7c0-0.9-0.1-1.7-0.4-2.5c-0.3-0.7-0.9-1.2-1.6-1.4
	c-1.2-0.4-2.4-0.8-3.6-0.9l0.2-1.4c1.3,0.1,2.9,0.2,4.9,0.2c2,0,4.1,0,6.4,0h12.1C2088.4,39.6,2093,40.1,2096.3,41.3 M2111.6,73.2
	c0.4-1.5,1.2-2.8,2.5-3.7c1.5-1,3.2-1.6,5-1.8c2.7-0.4,5.5-0.5,8.3-0.5h6.3l0.1,1.7l-6.6,0.2c-1.5,0.1-2.5,0.6-2.9,1.3
	c-0.4,0.8-0.6,2.5-0.6,5v6.4c0,3.8,0.3,6.4,0.9,7.7c0.4,1.2,1.6,2,2.9,2c0.7,0,1.4-0.2,2-0.6c0.8-0.7,1.5-1.6,1.9-2.6
	c0.7-1.8,1.2-3.7,1.4-5.6c0.4-3.3,0.6-6.6,0.5-9.9l1.5,0.3c0.1,3.8-0.2,7.6-0.7,11.4c-0.3,2.3-1,4.5-2.1,6.4
	c-0.8,1.4-2.1,2.4-3.6,2.9c-1.6,0.5-3.4,0.8-5.1,0.7h-0.1c-2.3,0.1-4.6-0.5-6.6-1.6c-1.9-1.2-3.4-2.9-4.2-5
	c-1.1-2.7-1.5-5.6-1.4-8.5C2110.9,77.4,2111.1,75.2,2111.6,73.2 M2132.6,45c-0.2-1.3-0.8-2.5-1.7-3.5c-0.7-0.6-1.6-1-2.6-1
	c-1,0-1.9,0.3-2.7,0.9c-1,0.9-1.8,2.1-2.1,3.4c-0.6,2.4-0.9,4.9-0.8,7.3v6.4c0.1,0.7-0.1,1.4-0.5,2c-0.3,0.4-0.9,0.6-1.4,0.6
	c-1.6,0-3.2-0.2-4.8-0.7c-1.3-0.4-2.3-1.3-3-2.5c-0.8-1.5-1.1-3.3-1-5c-0.1-2.6,0.5-5.1,1.7-7.4c1.2-2.2,3.2-4,5.5-5
	c3.1-1.3,6.4-1.9,9.7-1.8c2.6-0.1,5.2,0.3,7.6,1c2.1,0.6,3.9,1.9,5.3,3.5c1.5,2,2.6,4.3,3.1,6.8c0.7,3.5,1.1,7.1,1,10.7v3.3
	c0,1.2,0,2.6,0,4.1c0,1.6-0.1,3.3-0.1,5c-0.1,1.8-0.1,3.5-0.2,5.2c-0.1,1.7-0.1,3.1-0.1,4.4c0,1.3,0,2.3,0,2.9
	c0,3.1,0.5,4.6,1.6,4.6c0.4,0,0.8-0.3,1.1-0.8c0.5-0.9,0.8-1.8,0.9-2.8c0.2-1.9,0.4-3.8,0.3-5.7v-4.5h1.5v4.5
	c0.1,2.8-0.2,5.6-0.8,8.3c-0.4,1.6-1.3,3.1-2.7,4c-1.4,0.8-3.1,1.2-4.8,1.1c-2.5,0.1-5-0.8-6.8-2.6c-1.7-1.6-2.6-3.8-2.6-6.2V52.1
	C2133.2,49.7,2133,47.3,2132.6,45 M2173.2,89.8c0.2,0.6,0.7,1.2,1.3,1.4c1,0.4,2.1,0.7,3.2,0.8l-0.2,1.4c-1.1-0.1-2.6-0.2-4.6-0.2
	c-2-0.1-4.2-0.1-6.5-0.1c-2.3,0-4.5,0-6.6,0.1c-2.1,0.1-3.8,0.1-5.1,0.2l-0.2-1.4c2.4-0.4,4-0.9,4.7-1.5c0.7-0.6,1-1.8,1-3.6V52.9
	c0-3.8,0-6.9,0.1-9.5c0.1-2.6,0.2-5,0.2-7.3c0.1-2.3,0.1-4.8,0.1-7.7c0-3.1-0.6-4.6-1.8-4.6c-0.4,0-0.8,0.3-1.2,0.9
	c-0.5,1-0.9,2.1-1,3.2c-0.3,2.2-0.4,4.4-0.4,6.7v7.8l-1.5,0.1v-7.9c-0.1-3.1,0.2-6.3,0.8-9.3c0.3-1.8,1.3-3.3,2.7-4.4
	c1.4-0.8,3.1-1.2,4.8-1.2c2.7-0.1,5.2,0.8,7.2,2.7c1.7,1.6,2.7,3.9,2.7,6.2v58.7C2172.9,88.1,2173,89,2173.2,89.8 M2183.9,34.9
	c0.1-2.7-0.1-5.4-0.6-8.1c-0.2-1.3-0.8-2.5-1.7-3.4c-0.7-0.5-1.5-0.8-2.4-0.8c-0.8,0-1.7,0.2-2.4,0.6c-0.9,0.6-1.6,1.5-2,2.6
	c-0.7,1.8-1.1,3.7-1.3,5.6c-0.4,3.3-0.5,6.6-0.5,9.9l-1.5-0.3c0-3.6,0.1-7.3,0.6-10.9c0.2-2.3,0.9-4.5,1.9-6.5
	c0.8-1.4,2-2.5,3.5-3.1c1.8-0.6,3.7-0.9,5.6-0.8c4.8,0,8.2,1.2,10.4,3.5c2.1,2.3,3.2,5.8,3.2,10.3v24.7c0,3.8,0,7-0.1,9.6
	c-0.1,2.6-0.1,4.9-0.2,6.9c-0.1,2-0.1,3.8-0.2,5.6c-0.1,1.7-0.1,3.6-0.1,5.5c0,3.1,0.5,4.6,1.5,4.6c0.4,0,0.8-0.3,1.1-0.9
	c0.5-1,0.8-2.1,0.9-3.3c0.3-2.2,0.4-4.4,0.4-6.6v-7.9h1.5v7.9c0.1,3.1-0.2,6.3-0.8,9.3c-0.3,1.7-1.2,3.3-2.6,4.4
	c-1.3,0.8-2.9,1.2-4.5,1.2c-1.8,0-3.5-0.4-5.1-1.2c-1.6-1-2.9-2.5-3.5-4.3c-0.9-2.8-1.4-5.7-1.2-8.7L2183.9,34.9z M2208.7,63
	c1.5-3.6,4.1-6.7,7.5-8.7c3.6-1.9,7.6-2.9,11.6-2.8c2.2-0.1,4.4,0.3,6.5,1.1c1.7,0.7,3.3,1.5,4.9,2.4l-0.9,2.3
	c-1.6-1.1-3.3-2.1-5-2.9c-1.8-0.8-3.8-1.2-5.8-1.2c-1.2,0-2.4,0.3-3.5,0.8c-1.2,0.7-2.1,1.8-2.7,3c-0.9,2-1.5,4.1-1.7,6.3
	c-0.4,3.5-0.6,7-0.6,10.6v12.9c-0.1,3.7,0.2,7.3,0.7,11c0.5,2.5,1.2,4.3,2,5.2c0.8,0.9,1.9,1.4,3.1,1.4c0.8,0,1.7-0.2,2.4-0.6
	c1-0.6,1.7-1.5,2.2-2.6c0.8-1.8,1.3-3.7,1.6-5.6c0.5-3.3,0.7-6.6,0.6-9.9l1.5,0.3c0.1,3.6-0.2,7.3-0.6,10.9c-0.3,2.3-1,4.5-2.1,6.5
	c-0.8,1.4-2.1,2.6-3.7,3.1c-1.8,0.6-3.6,0.9-5.5,0.8c-3,0.1-5.9-0.6-8.5-2.2c-2.5-1.7-4.3-4.2-5.1-7.1c-1.2-3.3-1.7-7.7-1.7-13.3
	v-6.4C2206,72.1,2206.9,66.9,2208.7,63 M2244.3,84.1c-0.1,2.3-0.1,4.3-0.2,6c-0.1,1.7-0.1,3.3-0.2,4.6c-0.1,1.4-0.1,2.7-0.1,4
	c0,3.1,0.5,4.6,1.6,4.6c0.5-0.1,1-0.4,1.2-0.8c0.5-0.9,0.7-1.9,0.8-2.9c0.2-1.9,0.4-3.8,0.3-5.6v-4.5h1.5V94
	c0.1,2.8-0.2,5.6-0.8,8.3c-0.4,1.6-1.3,3.1-2.7,4c-1.5,0.8-3.1,1.2-4.8,1.1c-2.5,0.1-5-0.8-6.8-2.6c-1.7-1.6-2.6-3.8-2.6-6.2V35.1
	c0-0.9-0.1-1.8-0.4-2.7c-0.4-0.8-1-1.4-1.9-1.7c-1.4-0.5-3-0.8-4.5-0.8l0.1-1.3c2.3,0.1,4.4,0.1,6.2,0.1h5.6c3,0,5,0.6,6,1.9
	c1.1,1.3,1.6,3.3,1.6,6v39.4C2244.4,79.2,2244.4,81.9,2244.3,84.1 M2280.8,73.2c0.1-4.2-0.2-8.4-1-12.5c-0.6-2.8-1.5-4.8-2.6-5.8
	c-0.9-0.9-2.1-1.5-3.4-1.5c-0.9,0-1.8,0.3-2.6,0.8c-1,0.8-1.8,1.8-2.2,3c-0.8,1.9-1.3,4-1.5,6.1c-0.4,3.4-0.6,6.8-0.6,10.2v32.2
	c0,3.4,0.1,6.8,0.6,10.2c0.2,2,0.7,4,1.6,5.9c0.5,1.1,1.2,2,2.2,2.7c0.7,0.5,1.6,0.7,2.4,0.7c1.4,0,2.8-0.7,3.7-1.8
	c1.1-1.2,1.9-3.2,2.5-6.1c0.7-3.9,1-8,0.9-12L2280.8,73.2z M2253.8,82.3c0-7.4,0.9-13.3,2.7-17.8c1.8-4.5,4.3-7.7,7.4-9.7
	c3-2,6.6-3,10.2-3c2.9-0.1,5.8,0.4,8.5,1.3c2.5,0.9,4.6,2.4,6.2,4.5c1.9,2.6,3.2,5.6,3.8,8.8c0.9,4.7,1.4,9.4,1.3,14.2v16.1
	c0,7.3-0.9,13.2-2.7,17.6c-1.8,4.4-4.2,7.6-7.3,9.7c-3.1,2-6.6,3.1-10.3,3c-2.9,0.1-5.8-0.4-8.5-1.3c-2.4-0.9-4.6-2.4-6.2-4.4
	c-1.9-2.6-3.2-5.5-3.8-8.7c-1-4.7-1.4-9.4-1.3-14.2V82.3z M2327.7,45.2c0.1-2.7-0.1-5.4-0.6-8.1c-0.2-1.3-0.8-2.5-1.7-3.4
	c-0.7-0.5-1.5-0.8-2.3-0.8c-0.8,0-1.6,0.2-2.3,0.6c-0.9,0.7-1.5,1.5-1.9,2.6c-0.7,1.8-1.1,3.7-1.2,5.6c-0.3,3.3-0.5,6.6-0.4,9.9
	l-1.5-0.3c0-3.6,0.1-7.3,0.5-10.9c0.2-2.3,0.8-4.5,1.8-6.5c0.7-1.4,1.9-2.5,3.4-3.1c1.8-0.6,3.7-0.9,5.6-0.8c4.7,0,8.1,1.2,10.3,3.5
	c2.1,2.3,3.2,5.8,3.2,10.3v43.8c-0.1,1.1,0.1,2.2,0.8,3.2c0.5,0.6,1.7,1,3.6,1.2l-0.1,1.3c-1.5-0.1-2.9-0.1-4.3-0.1h-4.3
	c-3,0-5.1-0.6-6.4-1.9c-1.3-1.3-2-3.3-2-6V45.2z M2350.9,45.2c0.1-2.7-0.1-5.4-0.6-8.1c-0.2-1.3-0.7-2.5-1.6-3.4
	c-0.7-0.5-1.5-0.8-2.3-0.8c-0.8,0-1.6,0.2-2.3,0.6c-0.9,0.6-1.6,1.5-1.9,2.6c-0.7,1.8-1.1,3.7-1.3,5.6c-0.3,3.3-0.5,6.6-0.4,9.9
	l-1.5-0.3c0-3.6,0.1-7.3,0.5-10.9c0.2-2.3,0.8-4.5,1.8-6.5c0.8-1.4,2-2.5,3.5-3.1c1.8-0.6,3.6-0.9,5.5-0.8c4.7,0,8.1,1.2,10.3,3.5
	c2.1,2.3,3.2,5.8,3.2,10.3v16.6c0,3.4,0,6.4-0.1,8.9c-0.1,2.5-0.1,4.7-0.2,6.6c-0.1,1.9-0.1,3.6-0.2,5.2c-0.1,1.6-0.1,3.2-0.1,4.8
	c0,3.1,0.5,4.6,1.5,4.6c0.4,0,0.8-0.3,1.1-0.8c0.5-1,0.8-2,0.9-3.1c0.3-2,0.4-4,0.4-6.1v-6.1h1.5v6.1c0.1,2.9-0.2,5.9-0.8,8.8
	c-0.3,1.7-1.2,3.2-2.6,4.2c-1.3,0.8-2.9,1.2-4.5,1.1c-1.8,0-3.5-0.4-5.1-1.2c-1.6-1-2.9-2.5-3.5-4.3c-0.9-2.8-1.4-5.7-1.2-8.7V45.2z
	 M2317.5,89.8c0.2,0.6,0.6,1.2,1.2,1.4c1,0.5,2.1,0.7,3.2,0.8l-0.2,1.4c-1.1-0.1-2.6-0.2-4.6-0.2c-2-0.1-4.2-0.1-6.5-0.1
	c-2.3,0-4.5,0-6.6,0.1c-2.1,0.1-3.8,0.1-5.1,0.2l-0.2-1.4c2.4-0.4,4-0.9,4.7-1.5c0.7-0.6,1-1.8,1-3.6V60.7c0-3.3,0-6.2,0.1-8.6
	c0.1-2.4,0.2-4.6,0.2-6.7c0.1-2.1,0.1-4.3,0.1-6.7c0-3.1-0.6-4.6-1.8-4.6c-0.5,0-1,0.4-1.3,0.8c-0.5,0.9-0.8,2-0.9,3
	c-0.3,2-0.4,4.1-0.4,6.1v6l-1.5,0.1v-6.1c-0.1-2.9,0.2-5.9,0.8-8.8c0.3-1.7,1.3-3.2,2.7-4.2c1.5-0.8,3.1-1.2,4.8-1.1
	c2.6-0.1,5.2,0.8,7.1,2.7c1.7,1.6,2.7,3.8,2.7,6.2v48.4C2317.2,88.1,2317.3,89,2317.5,89.8 M2390,80.4c0,3.3,0,6.2-0.1,8.7
	c-0.1,2.5-0.1,4.6-0.2,6.5c-0.1,1.9-0.1,3.6-0.2,5.1c-0.1,1.6-0.1,3.1-0.1,4.6c0,3.1,0.5,4.6,1.5,4.6c0.5-0.1,1-0.4,1.2-0.8
	c0.5-0.9,0.8-2,0.9-3c0.2-2,0.4-4,0.3-6v-5.6h1.5v5.6c0.1,2.9-0.2,5.8-0.8,8.7c-0.3,1.6-1.2,3.1-2.6,4.1c-1.3,0.8-2.9,1.2-4.5,1.1
	c-1.8,0-3.5-0.4-5.1-1.2c-1.6-1-2.9-2.5-3.5-4.3c-0.9-2.8-1.4-5.7-1.2-8.6v-18c0-3.2,0-6,0.1-8.3c0.1-2.3,0.2-4.5,0.2-6.5
	c0.1-2,0.1-4.2,0.1-6.5c0-3.1-0.6-4.6-1.8-4.6c-0.5,0-1,0.4-1.3,0.8c-0.5,0.9-0.8,1.9-0.9,3c-0.3,2-0.4,4-0.4,6v5.6l-1.5,0.1v-5.6
	c-0.1-2.9,0.2-5.8,0.9-8.7c0.4-1.7,1.3-3.1,2.7-4.1c1.4-0.8,3.1-1.2,4.7-1.1c2-0.1,3.9,0.3,5.6,1.2c1.6,1,2.7,2.5,3.2,4.3
	c0.8,2.8,1.1,5.7,1,8.5L2390,80.4z M2389.3,39.3c0.1,1.8-0.7,3.6-2.1,4.7c-1.5,1-3.3,1.6-5.1,1.5c-1.9,0.1-3.7-0.5-5.1-1.6
	c-1.2-1.2-1.9-2.8-1.8-4.5c-0.1-1.8,0.6-3.5,1.9-4.8c1.5-1.3,3.4-1.9,5.4-1.8c1.8-0.1,3.6,0.5,5,1.8
	C2388.7,35.9,2389.4,37.6,2389.3,39.3 M2423.3,92.6V81c-0.1-3.6,0.3-7.3,1.3-10.8c0.6-2.2,1.8-4.1,3.5-5.6c1.3-1.1,2.9-1.6,4.5-1.6
	c1.3,0,1.9,0.6,1.9,1.7l-0.7,27.8c0,0.7-0.4,1-1.1,1c-2.3-0.1-5.2-0.2-8.8-0.2H2400l-0.5-2l22.1-69.4l4.5,0.6h-18.8l2.7-0.1
	l-0.2,11.5c0.1,3.5-0.4,7-1.4,10.3c-0.6,2-1.7,3.9-3.3,5.2c-1.3,1-2.9,1.5-4.5,1.5c-1.1,0-1.6-0.5-1.6-1.5l0.6-27.9
	c-0.1-0.5,0.3-1,0.8-1c0.1,0,0.2,0,0.3,0c2.4,0.1,5.3,0.1,8.8,0.1c3.5,0,7.6,0,12.3,0h11l0.8,2l-21.4,69.4l-11.4-0.6h31.6
	L2423.3,92.6z M2449,118c-3.2-1.7-5.7-4.6-6.9-8c-1.6-3.8-2.3-9.1-2.3-15.9V81.2c0-7.2,0.8-13,2.4-17.4c1.6-4.3,3.8-7.4,6.6-9.3
	c2.9-1.9,6.3-2.9,9.7-2.8c4.3,0,7.7,0.7,10.3,2.2c2.7,1.6,4.7,4.1,5.7,7c1.3,4,1.9,8.2,1.8,12.5V80c0,1.8-0.2,3-0.7,3.5
	c-0.5,0.5-1.5,0.7-3.2,0.7h-23.9l0.1-2l15.8-0.2l-1.2,0.9V64c0-3.9-0.4-6.7-1.2-8.2c-0.7-1.5-2.2-2.4-3.8-2.3
	c-0.8,0-1.6,0.2-2.3,0.6c-0.8,0.6-1.4,1.5-1.7,2.5c-0.6,1.8-0.9,3.7-1,5.7c-0.2,2.5-0.4,6-0.4,10.3v25.8c-0.1,4.3,0.2,8.6,0.8,12.8
	c0.5,3,1.3,5,2.4,6c1.2,1.1,2.7,1.7,4.3,1.6c1.4,0,2.8-0.2,4-0.8c1.2-0.6,2.1-1.7,2.5-2.9c0.7-2,1.1-4.1,1.1-6.2V95.9
	c0-1.7,1-2.6,2.9-2.6c0.8,0,1.6,0.2,2.2,0.7c0.8,0.7,1.3,1.7,1.4,2.7c0.4,2,0.6,4.1,0.5,6.1c0.1,3.4-0.4,6.7-1.4,9.9
	c-0.8,2.4-2.5,4.5-4.7,5.8c-2.7,1.4-5.7,2-8.7,1.9C2456.4,120.5,2452.6,119.7,2449,118 M2484.3,38.1c1.8-4.4,4.3-7.6,7.5-9.5
	c3.5-2,7.6-3,11.6-2.9c2.2-0.1,4.4,0.3,6.5,1.1c1.7,0.7,3.3,1.5,4.9,2.4l-0.9,2.3c-1.6-1.1-3.3-2.1-5-2.9c-1.8-0.8-3.8-1.2-5.8-1.2
	c-1.2,0-2.4,0.3-3.5,0.8c-1.2,0.7-2.1,1.8-2.7,3c-0.9,2-1.5,4.1-1.7,6.3c-0.4,3.5-0.6,7-0.6,10.6V74c-0.1,3.7,0.2,7.3,0.7,11
	c0.5,2.5,1.2,4.3,2,5.2c0.8,0.9,1.9,1.4,3.1,1.4c0.8,0,1.7-0.2,2.4-0.6c1-0.6,1.7-1.5,2.2-2.6c0.8-1.8,1.3-3.7,1.6-5.6
	c0.5-3.3,0.7-6.6,0.6-9.9l1.5,0.3c0.1,3.6-0.2,7.3-0.6,10.9c-0.3,2.3-1,4.5-2.1,6.5c-0.8,1.4-2.1,2.6-3.7,3.1
	c-1.8,0.6-3.6,0.9-5.5,0.8c-3,0.1-5.9-0.7-8.5-2.3c-2.3-1.5-4-4.2-5.1-7.9c-1.2-3.8-1.7-9-1.7-15.6V55.8
	C2481.7,48.4,2482.6,42.5,2484.3,38.1 M2520,69c-0.1,2.6-0.1,4.8-0.2,6.6c-0.1,1.9-0.1,3.6-0.2,5.3c-0.1,1.6-0.1,3.3-0.1,5
	c0,3.1,0.5,4.6,1.6,4.6c0.4,0,0.8-0.3,1.2-0.9c0.5-1,0.7-2,0.8-3.1c0.2-2.1,0.4-4.2,0.3-6.3v-6.8h1.5v6.8c0.1,3-0.2,6-0.8,9
	c-0.3,1.7-1.3,3.2-2.7,4.3c-1.5,0.8-3.1,1.2-4.8,1.2c-2.5,0.1-5-0.8-6.8-2.6c-1.7-1.6-2.6-3.8-2.6-6.2V9.3c0-0.9-0.1-1.8-0.4-2.7
	c-0.4-0.8-1-1.4-1.9-1.7c-1.4-0.5-3-0.8-4.5-0.8l0.1-1.3c2.3,0.1,4.4,0.1,6.2,0.1h5.6c3,0,5,0.6,6,1.9c1.1,1.3,1.6,3.3,1.6,6V60
	C2520.1,63.4,2520.1,66.5,2520,69 M2550.2,120.3c0.1,1.8-0.6,3.5-1.9,4.8c-1.4,1.1-3.1,1.7-4.9,1.6c-2.5,0-4.3-0.6-5.6-1.7
	c-1.3-1.2-1.9-2.9-1.9-4.6v-0.1c-0.1-1.8,0.6-3.5,2-4.7c1.4-1.1,3.2-1.7,5-1.6c1.9-0.1,3.7,0.5,5.2,1.8
	C2549.5,116.8,2550.3,118.6,2550.2,120.3L2550.2,120.3z M2544.5,32c3.1,0,6.1,0.8,8.8,2.5c2.6,1.6,4.7,4.4,6.3,8.3
	c1.6,3.9,2.4,9.2,2.4,16v8.1c0.1,6.6-0.5,13.2-1.9,19.7c-0.9,4.6-2.6,9-4.9,13.1c-1.7,2.9-4,5.5-6.8,7.4c-2.2,1.5-4.8,2.3-7.5,2.3
	l-2.3-0.1v-2h2.1c1,0,2-0.1,2.9-0.4c1.1-0.5,1.9-1.3,2.3-2.4c0.9-2,1.4-4.1,1.7-6.3c0.6-4,0.9-8,1-12c0.2-5.1,0.4-11.7,0.4-19.7
	V50.2c0-5.7-0.5-9.9-1.4-12.8c-0.9-2.8-2.2-4.2-3.8-4.2c-2.3,0-3.7,1.5-4.4,4.4c-0.8,4.1-1.1,8.4-1,12.6v24.2
	c0.1,0.9-0.1,1.7-0.4,2.5c-0.3,0.4-0.9,0.6-1.9,0.6c-1.1,0-2.2-0.2-3.2-0.7c-1.1-0.6-2.1-1.5-2.7-2.7c-0.9-1.8-1.5-3.7-1.8-5.7
	c-0.5-3.2-0.7-6.4-0.7-9.7c-0.1-4.5,0.5-8.9,1.7-13.2c0.8-3,2.2-5.7,4.1-8.1c1.4-1.8,3.2-3.2,5.3-4.1
	C2540.7,32.5,2542.6,32,2544.5,32"/>
<path class="st0" d="M2616.6,89.9c0.4-0.9,0.7-1.8,0.8-2.8c0.3-2.3,0.4-4.6,0.4-7v-6.8h1.7v6.8c0.1,3-0.2,6-0.8,8.9
	c-0.3,1.7-1.3,3.2-2.8,4.2c-1.6,0.9-3.5,1.3-5.3,1.2c-3.3,0-5.9-0.6-7.7-1.9c-1.9-1.4-3.1-3.5-3.2-5.9c-0.6-6.7-1.1-12.3-1.6-16.7
	c-0.5-4.4-0.9-7.9-1.3-10.5c-0.4-2.6-0.8-4.6-1.1-5.9c-0.2-0.9-0.5-1.9-1-2.7c-0.2-0.4-0.6-0.6-1-0.8c-0.4-0.1-0.7-0.2-1-0.4
	l0.7-1.3c1.6,0.3,3.1,0.5,4.6,0.7c1.5,0.2,2.9,0.6,4.3,1.2c1.5,0.7,2.8,1.8,3.8,3.1c1.5,1.9,2.6,4,3.3,6.3c1.2,3.5,2.2,7.2,2.8,10.8
	c0.9,4.5,1.6,10,2.2,16.7c0,0.9,0.2,1.8,0.8,2.5c0.2,0.3,0.6,0.5,0.9,0.5C2616.1,90.5,2616.3,90.3,2616.6,89.9 M2599,43.6
	c0.5-0.7,0.7-1.4,0.8-2.3c0.2-1.7,0.4-3.4,0.4-5.1c0.1-2.3,0.1-5.3,0.1-9.3v-5.6c0-2.2,0.7-4.3,2.2-5.9c1.5-1.7,3.7-2.6,6-2.5
	c2.2-0.1,4.3,0.6,5.8,2.1c1.3,1.3,2.1,3,2.1,4.8c0.1,0.9-0.2,1.9-0.9,2.5c-0.7,0.5-1.6,0.7-2.5,0.6l0.5-0.3v3.2
	c0.1,3.8-0.3,7.6-1.4,11.3c-0.8,2.6-2.4,4.8-4.7,6.2c-2.9,1.5-6,2.5-9.2,2.7c-1.3,0.2-2.4,0.9-3.2,1.9c-0.9,1.1-1.7,2.4-2.2,3.8
	c-0.6,1.6-1.2,3.1-1.7,4.7c-0.5,1.7-1,3.2-1.4,4.7c-0.4,1.2-0.9,2.4-1.6,3.5c-0.4,0.8-1.3,1.3-2.2,1.4h-3.5v-1.9h3.5
	c0.5,0,1-0.4,1.4-1.2c0.5-1.1,0.9-2.2,1.2-3.3c0.4-1.4,0.9-2.9,1.4-4.5c0.5-1.6,1.1-3.1,1.8-4.6c0.6-1.4,1.4-2.7,2.5-3.9
	c0.9-1.1,2.1-1.9,3.5-2.3C2598.1,44.2,2598.6,43.9,2599,43.6 M2584.5,35.4c1.2,1.5,1.9,3.4,1.9,5.4v46.4c0,0.9,0.1,1.7,0.4,2.6
	c0.3,0.7,0.9,1.2,1.6,1.4c1.2,0.4,2.4,0.8,3.6,0.9l-0.2,1.4c-1.3-0.1-3-0.2-5.2-0.2c-2.2-0.1-4.5-0.1-7-0.1c-2.5,0-4.8,0-7,0.1
	c-2.2,0.1-3.9,0.1-5.2,0.2l-0.2-1.4c2.4-0.4,4-0.9,4.7-1.5c0.7-0.6,1-1.8,1-3.6V39.3c0-0.9-0.1-1.7-0.4-2.5
	c-0.3-0.7-0.9-1.2-1.6-1.4c-1.2-0.4-2.4-0.8-3.6-0.9l0.2-1.4c0.9,0.1,2,0.1,3.4,0.2s2.8,0.1,4.2,0.1h3.7
	C2581.4,33.2,2583.3,33.9,2584.5,35.4 M2576.2,14.5c0.9-1.4,2.2-2.5,3.7-3.2c2.1-0.9,4.3-1.3,6.5-1.2c2.3,0,4.6,0.4,6.7,1.4
	c2.2,1,4,2.6,5.3,4.6c1.6,2.7,2.7,5.7,3,8.9h-1.1c0.1-1.6-0.7-3.1-2-4c-1.5-0.9-3.2-1.4-5-1.3c-2.4,0-4.1,0.5-5.2,1.5
	c-1.1,1-1.7,2.7-1.7,5c0,1.4,0.2,2.9,0.7,4.2c0.5,1.4,0.9,2.8,1.3,4.2c0.4,1.2,0.6,2.6,0.6,3.9c0.1,1-0.3,2-0.9,2.8
	c-0.5,0.7-1.4,1.1-2.3,1v-2.1c0.7,0.1,1.4-0.4,1.5-1.1c0-0.1,0-0.3,0-0.4c0-1.5-0.4-3.1-1.2-4.3c-0.9-1.3-1.9-2.4-3.1-3.5
	c-1.2-1.1-2.5-2.2-3.7-3.3c-1.2-1.1-2.3-2.4-3.1-3.8c-0.9-1.6-1.3-3.3-1.2-5.1C2574.9,17.3,2575.4,15.8,2576.2,14.5 M2636.7,90.6
	c-0.1,4.6-3.8,8.3-8.5,8.3c0,0,0,0-0.1,0c-2.3,0-3.8-0.4-4.6-1.1c-0.8-0.9-1.2-2-1.1-3.2c-0.1-1,0.2-2.1,0.8-2.9
	c0.6-0.7,1.7-1,3.3-1h0.9l-0.6,1.4c0.1-0.5,0.1-1.2,0.1-2c0-0.8,0-1.5,0-2c-0.1-2.1,0.2-4.2,0.9-6.2c0.5-1.3,1.6-2.3,3-2.7
	c1.9-0.5,3.8-0.7,5.7-0.6c1,0,1.9,0.2,2.7,0.7c0.8,0.5,1.4,1.1,2,1.8c0.6,0.7,1.1,1.5,1.5,2.3c0.5,0.8,0.9,1.6,1.2,2.3
	c0.3,0.6,0.7,1.2,1.2,1.7c0.3,0.4,0.8,0.6,1.3,0.5l-0.2,1.9c-0.5,0-1.1-0.2-1.4-0.6c-0.5-0.4-0.9-1-1.2-1.5
	c-0.4-0.6-0.8-1.3-1.1-2.1c-0.4-0.7-0.7-1.4-1.2-2c-0.4-0.6-0.8-1.1-1.3-1.6c-0.5-0.4-1.1-0.7-1.8-0.6c-0.6-0.1-1.1,0.3-1.4,0.8
	c-0.3,0.8-0.4,1.7-0.3,2.5L2636.7,90.6z M2630.4,105.9c0-1.1,0.2-2.1,0.7-3.1c0.5-0.9,1.1-1.7,1.8-2.5c0.7-0.8,1.4-1.5,2.1-2.3
	c0.7-0.8,1.3-1.7,1.8-2.6c0.5-1,0.7-2.1,0.7-3.2c0-1-0.5-1.5-1.4-1.5v-1.9c0.8,0,1.6,0.3,2.1,0.9c0.6,0.8,0.8,1.7,0.8,2.7
	c0,0.7-0.1,1.3-0.2,2c-0.1,0.6-0.3,1.3-0.4,1.9c-0.2,0.7-0.2,1.5-0.2,2.2c0,0.8,0.2,1.7,0.6,2.4c0.6,0.7,1.6,1,2.5,0.9
	c1,0,2-0.3,2.8-0.9c0.7-0.6,1.2-1.5,1.1-2.5h0.9c0,2.6-0.5,5.1-1.5,7.6c-0.6,1.6-1.7,3.1-3.1,4.1c-1.3,0.8-2.9,1.3-4.5,1.2
	c-1.8,0.1-3.6-0.4-5-1.6C2631,108.8,2630.4,107.3,2630.4,105.9 M2651.5,54.1c0,1.1-0.2,2.3-0.7,3.3c-0.5,1-1.1,1.9-1.8,2.7
	c-0.7,0.8-1.5,1.7-2.2,2.5c-0.7,0.8-1.3,1.7-1.8,2.6c-0.5,1-0.7,2.1-0.7,3.2c0,1,0.5,1.5,1.4,1.5v1.9c-0.8,0-1.6-0.3-2.1-0.9
	c-0.6-0.8-0.8-1.7-0.8-2.7c0-0.7,0.1-1.4,0.2-2c0.2-0.6,0.3-1.3,0.4-2.1c0.1-0.9,0.2-1.8,0.2-2.7c0.1-1-0.2-2.1-0.7-2.9
	c-0.6-0.7-1.5-1-2.4-0.9c-1.1-0.1-2.1,0.3-2.9,0.9c-0.7,0.6-1.1,1.5-1.1,2.4h-0.9c0-2.6,0.5-5.1,1.4-7.6c0.6-1.6,1.7-3.1,3.1-4.1
	c1.4-0.8,2.9-1.3,4.6-1.2c1.8-0.1,3.6,0.5,5,1.6C2651,50.8,2651.6,52.4,2651.5,54.1 M2635.5,67.7c-0.6,1.6-1.8,2.9-3.2,3.7
	c-1.5,0.7-3.1,1.1-4.7,1c-0.9,0-1.7-0.1-2.5-0.2c-0.7-0.1-1.4-0.3-2.1-0.5l0.2-1c0.3,0.1,0.6,0.1,0.9,0.1c0.3,0,0.6,0,0.9,0
	c0.7,0.1,1.3-0.2,1.7-0.7c0.4-1,0.6-2,0.5-3.1v-1.5c0-0.7,0-1.5,0-2.4c0-0.9-0.1-1.7-0.1-2.5c0-0.8,0-1.3,0-1.5l0.6,1.4h-0.9
	c-1.2,0.1-2.3-0.1-3.3-0.6c-0.7-0.7-1-1.6-0.8-2.5c0-1.4,0.5-2.8,1.6-3.7c1.1-1,2.6-1.5,4.1-1.4c4.6-0.1,8.5,3.6,8.5,8.2
	c0,0,0,0,0,0.1C2636.8,62.9,2636.4,65.4,2635.5,67.7 M2657.3,88.4c-0.1,2.4-0.2,4.5-0.2,6.1c-0.1,1.6-0.1,3-0.1,4.2
	c0,3.1,0.5,4.6,1.6,4.6c0.5,0,0.9-0.4,1.2-0.8c0.5-0.9,0.7-1.9,0.8-2.9c0.2-1.9,0.4-3.8,0.3-5.7v-4.5h1.5V94
	c0.1,2.8-0.1,5.6-0.6,8.3c-0.2,1.6-1.1,3-2.3,4c-1.5,0.8-3.2,1.2-4.8,1.1c-2.5,0.1-5-0.8-6.8-2.6c-1.7-1.6-2.6-3.8-2.6-6.2V70.2
	c0-2.3,0.9-4.6,2.6-6.2c1.8-1.8,4.2-2.8,6.7-2.7c2.5,0,4.3,0.5,5.2,1.5c1,1.1,1.5,2.6,1.4,4.1c0.1,1.4-0.3,2.9-1,4.1
	c-0.7,1-2,1.5-3.2,1.3l0.5-0.6v7.6C2657.5,83,2657.4,86,2657.3,88.4 M2686,89.8c0.2,0.6,0.7,1.2,1.3,1.4c1,0.4,2.1,0.7,3.2,0.8
	l-0.2,1.4c-1.1-0.1-2.6-0.2-4.6-0.2c-2-0.1-4.2-0.1-6.5-0.1c-2.3,0-4.5,0-6.6,0.1c-2.1,0.1-3.8,0.1-5.1,0.2l-0.2-1.4
	c2.4-0.4,4-0.9,4.7-1.5c0.7-0.6,1-1.8,1-3.6v-9.9c0-3.6,0.1-6.8,0.2-9.3c0.2-2.6,0.2-5,0.2-7.2c0-3.1-0.6-4.6-1.8-4.6
	c-0.6,0-1.2,0.6-1.8,1.9c-0.5,1.2-0.8,3.4-0.8,6.5v2.2l-1.5,0.1v-2.3c-0.1-2.6,0.2-5.1,0.8-7.6c0.4-1.6,1.4-2.9,2.7-3.8
	c1.5-0.8,3.1-1.2,4.8-1.1c2.6-0.1,5.1,0.7,7.2,2.3c1.8,1.7,2.8,4.1,2.7,6.5v26.5C2685.7,88.1,2685.8,89,2686,89.8 M2677.2,27.5
	c2.1-2,5-3.1,7.9-2.9c3.8,0,6.7,1.1,8.8,3.4c2.2,2.6,3.5,5.8,3.7,9.3h-1c0-1.2-0.4-2.3-1.2-3.1c-0.8-0.9-2.2-1.3-4.1-1.3
	c-2.1,0-3.6,0.6-4.4,1.8c-0.9,1.2-1.3,3.3-1.3,6.2c0,2.1,0.1,4.3,0.4,6.4c0.2,1.5,0.5,3.1,0.8,4.6c0.3,1.3,0.6,2.4,0.9,3.5
	c0.3,1,0.4,2.1,0.4,3.1c0.1,1-0.2,1.9-0.8,2.7c-0.5,0.6-1.3,1-2.1,0.9v-1.9c0.9,0,1.4-0.5,1.4-1.5c0-1.5-0.4-2.9-1.2-4.1
	c-0.9-1.3-1.9-2.4-3.1-3.5c-1.2-1.1-2.4-2.4-3.7-3.7c-1.3-1.4-2.4-3.1-3.1-4.9c-0.9-2.3-1.3-4.7-1.2-7.2
	C2674.2,32.3,2675.2,29.5,2677.2,27.5 M2709.4,57.6c0,3.9,0,7.3-0.1,10.1c-0.1,2.8-0.1,5.3-0.2,7.4c-0.1,2.1-0.1,4-0.2,5.7
	c-0.1,1.7-0.1,3.4-0.1,5.2c0,3.1,0.5,4.6,1.5,4.6c0.4,0,0.7-0.3,1.1-0.9c0.5-1,0.8-2,0.9-3.1c0.3-2.1,0.4-4.2,0.4-6.3v-6.8h1.5v6.8
	c0.1,3-0.2,6-0.8,9c-0.3,1.7-1.2,3.2-2.6,4.3c-1.3,0.8-2.9,1.2-4.5,1.2c-1.8,0-3.5-0.4-5.1-1.2c-1.6-1-2.9-2.5-3.5-4.3
	c-0.9-2.8-1.4-5.7-1.2-8.7V34.6c0-2.2,0.8-4.3,2.3-5.9c1.5-1.6,3.5-2.5,5.7-2.5c2.6,0,4.5,0.7,5.7,2.1c1.2,1.3,1.9,3,1.9,4.8
	c0.1,0.9-0.2,1.8-0.9,2.5c-0.7,0.5-1.6,0.7-2.5,0.6l0.5-0.3L2709.4,57.6z M2721.3,62l0.5,0.3c-0.9,0.2-1.8,0-2.5-0.6
	c-0.7-0.7-1-1.6-0.9-2.5c0-1.8,0.7-3.5,1.9-4.8c1.4-1.4,3.3-2.2,5.2-2.1c2.2-0.1,4.3,0.8,5.7,2.5c1.4,1.6,2.2,3.7,2.2,5.9v25.4
	c0,2.3-0.9,4.6-2.6,6.2c-1.8,1.8-4.2,2.8-6.7,2.7c-2,0-3.5-0.5-4.4-1.5c-1-1.1-1.5-2.6-1.4-4.1c-0.1-1.4,0.2-2.8,0.9-4.1
	c0.5-0.9,1.5-1.4,2.5-1.3l-0.5,0.6V62z M2719.9,114.7c-0.1-2.9,0.4-5.8,1.4-8.5c0.9-2.1,2.1-4.1,3.6-5.8c1.3-1.5,2.8-2.9,4.3-4.2
	c1.3-1.1,2.6-2.4,3.6-3.8c1-1.3,1.5-2.9,1.5-4.5c0-1-0.5-1.5-1.4-1.5v-1.9c0.8,0,1.6,0.3,2.1,0.9c0.6,0.8,0.8,1.7,0.8,2.7
	c0,1.3-0.2,2.7-0.5,3.9c-0.3,1.3-0.7,2.7-1.1,4.3c-0.4,1.6-0.8,3.5-1.1,5.7c-0.4,2.6-0.5,5.3-0.5,8c0,3.5,0.5,5.9,1.5,7.4
	c1,1.4,2.7,2.1,5,2.1c1.5,0.1,2.9-0.3,4.1-1.2c0.8-0.7,1.3-1.8,1.2-2.9h1c-0.2,3.1-1.6,6-3.8,8.3c-2.2,2.2-5.3,3.3-9.3,3.3
	c-6.5,0.4-12-4.4-12.5-10.9C2719.9,115.8,2719.9,115.3,2719.9,114.7 M2732.8,60.9c1.1-0.2,2.2,0.3,2.8,1.2c1,1.3,1.8,2.8,2.3,4.3
	c0.8,2,1.4,4.1,1.9,6.2c0.6,2.3,1.1,4.5,1.6,6.8c0.5,2.3,1,4.4,1.5,6.4c0.4,1.6,0.9,3.2,1.6,4.7c0.6,1.2,1.2,1.8,1.8,1.8V94
	c-1,0.2-2-0.3-2.5-1.2c-0.9-1.3-1.6-2.8-2.1-4.3c-0.6-1.9-1.2-3.9-1.8-6.2s-1.1-4.5-1.6-6.8c-0.5-2.3-1.1-4.4-1.7-6.4
	c-0.4-1.6-1-3.2-1.8-4.7c-0.6-1.2-1.3-1.8-2.1-1.8L2732.8,60.9z M2757.1,97.7c-0.1,3.5-0.2,6.9-0.2,10.2c-0.1,3.2-0.1,6.7-0.1,10.3
	c0,3.1,0.6,4.6,1.8,4.6c0.4,0,0.8-0.3,1.1-0.9c0.4-1,0.7-2.1,0.8-3.2c0.2-2.2,0.3-4.5,0.3-6.7v-7.8l1.5-0.1v7.9
	c0.1,3.1-0.2,6.3-0.8,9.3c-0.5,2.1-1.3,3.6-2.5,4.4c-1.4,0.8-3,1.2-4.6,1.2c-2.7,0.1-5.2-0.8-7.2-2.7c-1.7-1.6-2.7-3.9-2.7-6.2V35.1
	c0-0.9-0.1-1.8-0.4-2.7c-0.4-0.8-1-1.4-1.9-1.7c-1.4-0.5-3-0.8-4.5-0.8l0.1-1.3c2.3,0.1,4.4,0.1,6.2,0.1h5.6c2.9,0,5,0.6,6,1.9
	c1.1,1.3,1.6,3.3,1.6,6v48.9C2757.2,90.1,2757.2,94.1,2757.1,97.7 M2769.1,62.5c-1,0.1-2-0.4-2.5-1.3c-0.7-1.3-1-2.7-0.9-4.1
	c-0.1-1.5,0.4-2.9,1.4-4.1c0.9-1,2.4-1.5,4.4-1.5c2.5-0.1,4.9,0.9,6.7,2.7c1.7,1.6,2.6,3.9,2.6,6.2v25.4c0,2.2-0.7,4.3-2.2,5.9
	c-1.4,1.6-3.5,2.5-5.7,2.5c-3.8,0.1-7-2.9-7.2-6.7c0-0.1,0-0.1,0-0.2c-0.1-0.9,0.2-1.8,0.9-2.5c0.7-0.5,1.6-0.7,2.5-0.6l-0.5,0.3
	V61.8L2769.1,62.5z M2803.4,77.3c1-0.1,2,0.4,2.5,1.3c0.7,1.3,1,2.7,0.9,4.1c0.1,1.5-0.4,2.9-1.4,4.1c-0.9,1-2.4,1.5-4.4,1.5
	c-2.5,0.1-4.9-0.9-6.7-2.7c-1.7-1.6-2.6-3.9-2.6-6.2V53.9c0-2.2,0.7-4.3,2.2-5.9c1.4-1.6,3.5-2.5,5.7-2.5c2-0.1,3.9,0.7,5.2,2.1
	c1.2,1.3,1.9,3,1.9,4.8c0.1,0.9-0.2,1.8-0.9,2.5c-0.7,0.5-1.6,0.7-2.5,0.6l0.5-0.3v22.7L2803.4,77.3z M2777.1,41.7
	c1.3-1,2.9-1.5,4.6-1.4c3-0.1,5.9,1.5,7.4,4.1c1.8,2.7,3,6.8,3.5,12.1h-0.9c0-1.5-0.4-2.9-1.3-4.1c-0.9-1.2-2.5-1.8-4.7-1.8
	c-0.9-0.1-1.9,0.2-2.5,0.9c-0.5,0.7-0.8,1.6-0.8,2.5c0,0.5,0,1.1,0.1,1.6c0.1,0.4,0.2,0.8,0.2,1.1c0.1,0.3,0.1,0.6,0.2,0.9
	c0.2,1.2,0,2.5-0.7,3.5c-0.5,0.6-1.3,1-2.1,0.9v-1.9c0.9,0,1.4-0.5,1.4-1.5c0-1-0.2-2-0.6-2.9c-0.4-0.9-0.9-1.7-1.5-2.4
	c-0.6-0.8-1.2-1.5-1.9-2.3c-0.6-0.8-1.1-1.6-1.5-2.5c-0.4-1-0.6-2-0.6-3.1C2775.4,43.9,2776,42.6,2777.1,41.7 M2795.4,98.1
	c-1.3,1-3,1.5-4.6,1.4c-3,0.1-5.9-1.5-7.4-4.1c-1.8-2.7-3-6.8-3.5-12.1h0.9c0,1.5,0.4,2.9,1.3,4.1c0.9,1.2,2.5,1.8,4.7,1.8
	c0.9,0.1,1.9-0.2,2.5-0.9c0.5-0.7,0.8-1.6,0.8-2.5c0-0.5,0-1.1-0.1-1.6c-0.1-0.4-0.2-0.8-0.2-1.1c-0.1-0.3-0.1-0.6-0.2-0.9
	c-0.2-1.2,0-2.5,0.7-3.5c0.5-0.6,1.3-1,2.1-0.9v1.9c-0.9,0-1.4,0.5-1.4,1.5c0,1,0.2,2,0.6,2.9c0.4,0.9,0.9,1.7,1.5,2.4
	c0.6,0.8,1.2,1.5,1.9,2.3c0.6,0.8,1.1,1.6,1.5,2.5c0.4,1,0.6,2,0.6,3.1C2797,95.8,2796.5,97.2,2795.4,98.1 M2840.5,44.5
	c-0.1-2,0.5-4,1.6-5.6c1-1.4,2.6-2.2,4.3-2.1c1.8,0,3.5,0.7,4.8,2c1.4,1.6,2.2,3.7,2,5.9v43c-0.1,1.1,0.2,2.2,0.8,3.2
	c0.5,0.6,1.7,1,3.6,1.2l-0.1,1.3c-1.5-0.1-2.9-0.1-4.2-0.1h-4.3c-3,0-5.1-0.6-6.4-1.9c-1.3-1.3-2-3.3-2-6V44.5z M2830.3,89.8
	c0.2,0.6,0.7,1.2,1.3,1.4c1,0.4,2.1,0.7,3.2,0.8l-0.2,1.4c-1.1-0.1-2.6-0.2-4.6-0.2c-2-0.1-4.2-0.1-6.5-0.1c-2.3,0-4.5,0-6.6,0.1
	c-2.1,0.1-3.8,0.1-5.1,0.2l-0.2-1.4c2.4-0.4,4-0.9,4.7-1.5c0.7-0.6,1-1.8,1-3.6v-9.9c0-3.6,0.1-6.8,0.2-9.3c0.2-2.6,0.2-5,0.2-7.2
	c0-3.1-0.6-4.6-1.8-4.6c-0.6,0-1.2,0.6-1.8,1.9c-0.7,2.1-0.9,4.3-0.8,6.5v2.2l-1.5,0.1v-2.3c-0.1-2.6,0.2-5.1,0.8-7.6
	c0.4-1.6,1.4-2.9,2.7-3.8c1.5-0.8,3.1-1.2,4.8-1.1c2.7-0.1,5.2,0.8,7.2,2.7c1.7,1.6,2.7,3.9,2.7,6.2v26.5
	C2830,88.1,2830.1,89,2830.3,89.8 M2844.6,21.1c1.5-1.2,3.9-1.8,7.2-1.8c3.9,0,6.9,1.1,9.1,3.3c2.2,2.2,3.5,5.2,3.7,8.3h-1
	c0-1.1-0.4-2.1-1.2-2.9c-1-0.9-2.3-1.3-3.7-1.2c-1.3-0.1-2.5,0.3-3.4,1.2c-0.8,1-1.2,2.2-1.1,3.5c0,1.6,0.2,3.1,0.6,4.7
	c0.4,2,0.6,4,0.6,6c0.1,1-0.2,1.9-0.8,2.7c-0.5,0.6-1.3,1-2.1,0.9V44c0.9,0,1.4-0.5,1.4-1.5c0-1.5-0.4-2.9-1.2-4.1
	c-0.8-1.2-1.8-2.4-2.9-3.3c-1.2-1-2.4-2-3.5-2.9c-1.1-0.9-2.1-1.9-2.9-3.1c-0.8-1.1-1.2-2.3-1.2-3.7
	C2842.3,23.7,2843.2,22.1,2844.6,21.1 M2821.4,37.2c1.5-1.2,3.9-1.8,7.2-1.8c3.9,0,7,1.1,9.1,3.3c2.2,2.2,3.5,5.2,3.7,8.3h-1
	c0-1.1-0.4-2.1-1.2-2.9c-1-0.9-2.3-1.3-3.7-1.2c-1.3-0.1-2.5,0.3-3.4,1.2c-0.8,1-1.2,2.2-1.1,3.5c0,1.6,0.2,3.1,0.6,4.7
	c0.4,2,0.6,4,0.6,6c0.1,1-0.2,1.9-0.8,2.7c-0.5,0.6-1.3,1-2.1,0.9v-1.9c0.9,0,1.4-0.5,1.4-1.5c0-1.5-0.4-2.9-1.2-4.1
	c-0.8-1.2-1.8-2.4-2.9-3.3c-1.2-1-2.4-2-3.5-2.9c-1.1-0.9-2.1-1.9-2.9-3.1c-0.8-1.1-1.2-2.3-1.2-3.7
	C2819.2,39.8,2820,38.2,2821.4,37.2 M2876.5,55.5c0,4.2,0,7.8-0.1,10.8c-0.1,3-0.1,5.6-0.2,7.9c-0.1,2.3-0.1,4.3-0.2,6.2
	c-0.1,1.9-0.1,3.7-0.1,5.7c0,3.1,0.5,4.6,1.5,4.6c0.4,0,0.8-0.3,1.2-0.9c0.5-1,0.8-2.1,0.9-3.3c0.3-2.2,0.4-4.4,0.4-6.6v-7.9h1.5
	v7.9c0.1,3.1-0.2,6.3-0.8,9.3c-0.3,1.7-1.2,3.3-2.6,4.4c-1.3,0.8-2.9,1.2-4.5,1.2c-1.8,0-3.5-0.4-5.1-1.2c-1.6-1-2.9-2.5-3.5-4.3
	c-0.9-2.8-1.4-5.7-1.2-8.7V28.2c0-2.2,0.8-4.3,2.3-5.9c1.5-1.6,3.5-2.5,5.7-2.5c2.6,0,4.5,0.7,5.7,2.1c1.2,1.3,1.9,3,1.9,4.8
	c0.1,0.9-0.2,1.8-0.9,2.5c-0.7,0.5-1.6,0.7-2.5,0.6l0.5-0.3V55.5z M2901.5,64.1c-0.9,1.8-2.2,3.4-3.6,4.9c-1.4,1.4-2.9,2.7-4.3,4
	c-1.3,1.1-2.5,2.4-3.6,3.8c-1,1.2-1.5,2.8-1.4,4.3c0,1,0.5,1.5,1.4,1.5v1.9c-0.8,0-1.6-0.3-2.1-0.9c-0.6-0.8-0.8-1.7-0.8-2.7
	c0-1.4,0.1-2.8,0.4-4.1c0.3-1.4,0.6-2.9,0.9-4.5c0.3-1.6,0.7-3.4,0.9-5.4c0.3-2.3,0.4-4.5,0.4-6.8c0-1.4,0-2.7-0.2-4.1
	c-0.1-0.7-0.2-1.3-0.6-1.9c-0.2-0.3-0.5-0.5-0.8-0.5c-0.3,0-0.7,0.3-1,0.8c-0.4,0.8-0.7,1.7-0.8,2.6c-0.2,1.7-0.3,3.4-0.3,5.2v4.8
	h-1.5v-4.8c-0.1-2.7,0.2-5.3,1-7.9c0.5-1.6,1.5-2.9,3-3.7c1.6-0.7,3.4-1.1,5.2-1c2.5-0.1,4.9,0.6,6.8,2.1c1.7,1.6,2.6,3.8,2.5,6.2
	C2903,59.8,2902.5,62.1,2901.5,64.1 M2889.4,82.9c0-2.4,1-4.6,2.7-6.2c1.9-1.8,4.5-2.8,7.1-2.7c2.2,0,3.8,0.6,4.7,1.7
	c1,1.2,1.5,2.7,1.4,4.2c0.1,1.4-0.2,2.7-1,3.9c-0.6,0.9-1.7,1.3-2.7,1.2l0.5-0.6v1.5c0,3.3,0,6.1-0.1,8.6c-0.1,2.5-0.2,4.6-0.2,6.3
	c-0.1,1.7-0.1,3.2-0.1,4.5c0,3.1,0.5,4.6,1.5,4.6c0.5-0.1,1-0.4,1.2-0.8c0.5-0.9,0.8-2,0.9-3c0.3-2,0.4-4,0.4-6v-5.6h1.5v5.6
	c0.1,2.9-0.2,5.8-0.8,8.7c-0.3,1.6-1.2,3.1-2.6,4.1c-1.3,0.8-2.9,1.2-4.5,1.1c-1.8,0-3.5-0.4-5.1-1.2c-1.6-1-2.9-2.5-3.5-4.3
	c-0.9-2.8-1.4-5.7-1.2-8.6V82.9z M2902,38.4c0.1,1.8-0.7,3.6-2.1,4.8c-1.5,1-3.3,1.6-5.1,1.5c-1.9,0.1-3.7-0.5-5.1-1.7
	c-1.2-1.2-1.9-2.8-1.8-4.5c-0.1-1.8,0.6-3.5,1.9-4.8c1.5-1.3,3.4-1.9,5.4-1.8c1.8-0.1,3.7,0.5,5,1.8
	C2901.4,34.9,2902,36.6,2902,38.4 M2935.7,63.8c1.9-1.4,4.2-2.1,6.6-2c0.9,0,1.7,0.1,2.5,0.2c0.7,0.1,1.4,0.3,2.1,0.5l-0.2,1
	c-0.3-0.1-0.6-0.1-0.9-0.1c-0.3,0-0.6,0-0.9,0c-0.7-0.1-1.3,0.2-1.7,0.7c-0.4,1-0.6,2-0.5,3.1c0,0.5,0,1.2,0,2c0,0.8,0.1,1.5,0.1,2
	l-0.6-1.4h0.9c1.7,0,2.8,0.3,3.3,1c0.6,0.8,0.9,1.9,0.8,2.9c0.1,1.2-0.3,2.3-1.1,3.2c-0.8,0.8-2.3,1.1-4.6,1.1
	c-4.6,0.1-8.5-3.6-8.5-8.2c0,0,0,0,0-0.1C2933,67.5,2934,65.3,2935.7,63.8 M2924.9,85.8c0.1,2.2-0.7,4.3-2.1,5.9
	c-1.3,1.6-3.2,2.5-5.2,2.5c-1.9,0.1-3.7-0.7-5-2.1c-1.2-1.3-1.9-3-1.9-4.8c-0.1-0.9,0.2-1.8,0.9-2.5c0.7-0.5,1.6-0.7,2.5-0.6
	l-0.5,0.3v-2.4c-0.1-3.8,0.3-7.5,1-11.2c0.6-2.7,1.5-5.4,2.8-7.8c1.1-2,2.4-4,3.9-5.8c1.4-1.7,2.8-3.3,4.2-4.9
	c1.4-1.6,2.7-3.4,3.9-5.3c1.3-2.1,2.2-4.5,2.8-6.9c0.8-3.2,1.1-6.4,1-9.7v-2.4c-0.1-2.2,0.7-4.3,2.1-5.9c1.3-1.6,3.2-2.5,5.2-2.5
	c1.9-0.1,3.7,0.7,5,2.1c1.2,1.3,1.9,3,1.9,4.8c0.1,0.9-0.2,1.8-0.9,2.5c-0.7,0.5-1.6,0.7-2.5,0.6l0.5-0.3v2.4
	c0.1,3.8-0.3,7.5-1,11.2c-0.6,2.7-1.5,5.4-2.8,7.8c-1.1,2-2.4,4-3.9,5.8c-1.4,1.7-2.8,3.3-4.2,4.9c-1.4,1.6-2.7,3.4-3.9,5.3
	c-1.3,2.1-2.2,4.5-2.8,6.9c-0.8,3.2-1.1,6.4-1,9.7V85.8z M2942.3,93c-1.3,1.1-3.5,1.7-6.6,1.7c-3,0.1-6-1.1-8.1-3.3
	c-2.1-2.2-3.4-5.2-3.7-8.3h1c0,1,0.3,2,0.9,2.9c0.8,0.9,1.9,1.3,3.1,1.2c1.7,0,2.8-0.3,3.3-1c0.6-0.8,0.9-1.7,0.8-2.7
	c0-1.2-0.2-2.5-0.6-3.7c-0.4-1.2-0.7-2.5-1.1-3.8c-0.4-1.5-0.5-3.1-0.5-4.7c-0.1-1,0.2-1.9,0.8-2.7c0.5-0.6,1.3-1,2.1-0.9v1.9
	c-0.9,0-1.4,0.5-1.4,1.5c-0.1,1.5,0.4,3.1,1.2,4.3c0.8,1.2,1.8,2.3,3,3.1c1.2,0.9,2.4,1.8,3.5,2.8c1.2,0.9,2.2,2,3,3.2
	c0.8,1.3,1.3,2.9,1.2,4.5C2944.2,90.6,2943.5,92,2942.3,93 M2915.8,21c1.3-1.1,3.5-1.7,6.6-1.7c3.1-0.1,6,1.1,8.1,3.3
	c2.1,2.2,3.4,5.2,3.6,8.3h-1c0-1-0.3-2-0.9-2.9c-0.8-0.9-1.9-1.3-3.1-1.2c-1.7,0-2.8,0.3-3.3,1c-0.6,0.8-0.9,1.7-0.8,2.7
	c0,1.2,0.2,2.5,0.5,3.7c0.4,1.2,0.7,2.5,1.1,3.8c0.4,1.5,0.6,3.1,0.6,4.7c0.1,1-0.2,1.9-0.8,2.7c-0.5,0.6-1.3,1-2.1,0.9v-1.9
	c0.9,0,1.4-0.5,1.4-1.5c0.1-1.5-0.4-3.1-1.2-4.3c-0.8-1.2-1.8-2.3-3-3.1c-1.2-0.9-2.4-1.8-3.5-2.8c-1.2-0.9-2.2-2-3-3.2
	c-0.8-1.3-1.3-2.9-1.2-4.5C2913.9,23.4,2914.6,22,2915.8,21 M2922.4,50.2c-1.9,1.4-4.2,2.1-6.6,2c-0.9,0-1.7-0.1-2.6-0.2
	c-0.6-0.1-1.3-0.3-2.1-0.5l0.2-1c0.3,0.1,0.6,0.1,0.9,0.1c0.3,0,0.6,0,0.9,0c0.7,0.1,1.3-0.2,1.7-0.7c0.4-1,0.6-2,0.5-3.1
	c0-0.5,0-1.2,0-2c0-0.8-0.1-1.5-0.1-2l0.6,1.4h-0.9c-1.7,0-2.8-0.3-3.4-1c-0.6-0.8-0.9-1.9-0.8-2.9c-0.1-1.2,0.3-2.3,1.1-3.2
	c0.7-0.8,2.3-1.1,4.6-1.1c4.6-0.1,8.5,3.6,8.5,8.2c0,0,0,0,0,0.1C2925.1,46.5,2924.1,48.7,2922.4,50.2 M2975.5,72.9
	c0-4.6,3.8-8.3,8.5-8.3c0,0,0,0,0.1,0c2.3,0,3.8,0.4,4.6,1.1c0.8,0.9,1.2,2,1.1,3.2c0.1,1-0.2,2.1-0.8,2.9c-0.6,0.7-1.7,1-3.3,1
	h-0.9l0.6-1.4c-0.1,0.5-0.1,1.2-0.1,2c0,0.8,0,1.5,0,2c0.1,2.2-0.2,4.5-0.9,6.6c-0.5,1.3-1.5,2.3-2.8,2.7c-1.6,0.4-3.2,0.6-4.8,0.6
	c-1.3,0.1-2.5-0.3-3.6-1c-1-0.7-1.7-1.6-2.3-2.7c-0.6-1.1-1.1-2.3-1.5-3.5c-0.4-1.2-0.8-2.3-1.1-3.4c-0.2-0.9-0.6-1.8-1.1-2.6
	c-0.3-0.6-0.9-0.9-1.5-0.8l0.2-1.9c0.7,0,1.3,0.3,1.7,0.9c0.5,0.7,1,1.5,1.2,2.3c0.3,1,0.7,2,1,3.1c0.3,1,0.7,2,1.2,3
	c0.4,0.9,0.9,1.6,1.5,2.3c0.5,0.6,1.3,0.9,2.1,0.9c0.3,0,0.6-0.1,0.8-0.4c0.2-0.4,0.2-0.8,0.2-1.2V72.9z M2954.8,61.7l0.5,0.3
	c-0.9,0.2-1.8,0-2.5-0.6c-0.7-0.7-1-1.6-0.9-2.5c0-3.8,3.1-6.9,7-6.9c0.1,0,0.1,0,0.2,0c2.2-0.1,4.3,0.8,5.7,2.5
	c1.4,1.6,2.2,3.7,2.2,5.9v30.3c0,2.3-0.9,4.6-2.6,6.2c-1.8,1.8-4.2,2.8-6.7,2.7c-2,0-3.5-0.5-4.4-1.5c-1-1.1-1.5-2.6-1.4-4.1
	c-0.1-1.4,0.2-2.8,0.9-4.1c0.5-0.9,1.5-1.4,2.5-1.3l-0.5,0.6V61.7z M2983.4,55.8c0,1.3-0.3,2.6-0.9,3.7c-0.6,1.1-1.3,2-2.2,2.9
	c-0.9,0.9-1.8,1.7-2.6,2.6c-0.8,0.9-1.6,1.8-2.2,2.9c-0.6,1.1-0.9,2.3-0.9,3.5c0,1,0.5,1.5,1.4,1.5v1.9c-0.8,0-1.6-0.3-2.1-0.9
	c-0.6-0.8-0.8-1.7-0.8-2.7c0-1,0.1-2,0.3-3c0.2-0.9,0.4-1.9,0.6-2.9c0.2-1.1,0.3-2.2,0.3-3.3c0.1-1-0.2-2-0.7-2.9
	c-0.5-0.7-1.4-1-2.9-1c-1,0-2,0.2-2.9,0.8c-0.7,0.5-1.1,1.3-1.1,2.2h-1c0.1-2.3,0.6-4.6,1.6-6.8c0.7-1.6,1.8-2.9,3.3-3.9
	c1.4-0.9,3.1-1.3,4.8-1.2c2.6,0,4.6,0.6,5.8,1.9C2982.7,52.3,2983.4,54,2983.4,55.8 M2959.1,109c0-1.4,0.3-2.8,0.9-4.1
	c0.6-1.2,1.3-2.2,2.2-3.2c0.9-0.9,1.7-1.9,2.6-2.8c0.8-0.9,1.6-1.9,2.2-2.9c0.6-1.1,0.9-2.3,0.9-3.5c0-1-0.5-1.5-1.4-1.5v-1.9
	c0.8,0,1.6,0.3,2.1,0.9c0.6,0.8,0.8,1.7,0.8,2.7c0,1-0.1,2.1-0.3,3.1c-0.2,1-0.4,2-0.6,3.1c-0.3,1.3-0.4,2.7-0.4,4.1
	c-0.1,1.3,0.2,2.6,0.8,3.7c0.7,0.8,1.8,1.2,2.8,1.1c1,0.1,2-0.2,2.9-0.8c0.6-0.5,1-1.3,1-2.1h1c-0.1,2.3-0.6,4.6-1.5,6.8
	c-0.7,1.6-1.8,2.9-3.2,3.9c-1.5,0.9-3.2,1.3-4.9,1.2c-2.1,0.1-4.2-0.6-5.7-2.1C2959.7,113.1,2959,111.1,2959.1,109 M2976.6,96.7
	c0.5-1.7,1.7-3.2,3.2-4.1c1.4-0.8,3.1-1.2,4.7-1.1c0.8,0,1.7,0.1,2.5,0.2c0.7,0.1,1.4,0.3,2.1,0.5l-0.2,1c-0.3-0.1-0.6-0.1-0.9-0.1
	c-0.3,0-0.6,0-0.9,0c-0.7-0.1-1.3,0.2-1.7,0.7c-0.4,1-0.6,2-0.5,3.1v1.8c0,0.9,0,2,0,3.1c0,1.1,0.1,2.2,0.1,3.1c0,0.9,0,1.5,0,1.8
	l-0.6-1.4h0.9c1.2-0.1,2.3,0.1,3.3,0.6c0.7,0.7,1,1.6,0.8,2.5c0,1.4-0.5,2.8-1.6,3.7c-1.1,1-2.6,1.5-4.1,1.4
	c-4.6,0.1-8.4-3.6-8.5-8.2c0,0,0,0,0-0.1C2975.4,102.3,2975.8,99.4,2976.6,96.7 M2997.2,62l0.5,0.3c-0.9,0.2-1.8,0-2.5-0.6
	c-0.7-0.7-1-1.6-0.9-2.5c0-1.8,0.7-3.5,1.9-4.8c1.4-1.4,3.3-2.2,5.2-2.1c2.2-0.1,4.3,0.8,5.7,2.5c1.4,1.6,2.2,3.7,2.2,5.9v25.4
	c0,2.3-0.9,4.6-2.6,6.2c-1.8,1.8-4.2,2.8-6.7,2.7c-2,0-3.5-0.5-4.4-1.5c-1-1.1-1.5-2.6-1.4-4.1c-0.1-1.4,0.2-2.8,0.9-4.1
	c0.5-0.9,1.5-1.4,2.5-1.3l-0.5,0.6L2997.2,62z M2995.8,114.7c-0.1-2.9,0.4-5.8,1.4-8.5c0.9-2.1,2.1-4.1,3.6-5.8
	c1.3-1.5,2.8-2.9,4.3-4.2c1.3-1.1,2.6-2.4,3.6-3.8c1-1.3,1.5-2.9,1.5-4.5c0-1-0.5-1.5-1.4-1.5v-1.9c0.8,0,1.6,0.3,2.1,0.9
	c0.6,0.8,0.8,1.7,0.8,2.7c0,1.3-0.2,2.7-0.5,3.9c-0.3,1.3-0.7,2.7-1.1,4.3c-0.4,1.6-0.8,3.5-1.1,5.7c-0.4,2.6-0.5,5.3-0.5,8
	c0,3.5,0.5,5.9,1.5,7.4c1,1.4,2.7,2.1,5,2.1c1.5,0.1,2.9-0.3,4.1-1.2c0.8-0.7,1.3-1.8,1.2-2.9h1c-0.2,3.1-1.6,6-3.8,8.3
	c-2.2,2.2-5.3,3.3-9.3,3.3c-6.5,0.4-12-4.4-12.5-10.9C2995.8,115.8,2995.8,115.3,2995.8,114.7 M3008.7,60.9c1.1-0.2,2.2,0.3,2.8,1.2
	c1,1.3,1.8,2.8,2.3,4.3c0.8,2,1.4,4.1,1.9,6.2c0.6,2.3,1.1,4.5,1.6,6.8c0.5,2.3,1,4.4,1.5,6.4c0.4,1.6,0.9,3.2,1.6,4.7
	c0.6,1.2,1.2,1.8,1.8,1.8V94c-1,0.2-2-0.3-2.5-1.2c-0.9-1.3-1.6-2.8-2.1-4.3c-0.6-1.9-1.2-3.9-1.8-6.2c-0.6-2.3-1.1-4.5-1.6-6.8
	c-0.5-2.3-1.1-4.4-1.7-6.4c-0.4-1.6-1-3.2-1.8-4.7c-0.6-1.2-1.3-1.8-2.1-1.8V60.9z M3033,97.7c-0.1,3.5-0.2,6.9-0.2,10.2
	c-0.1,3.2-0.1,6.7-0.1,10.3c0,3.1,0.6,4.6,1.8,4.6c0.4,0,0.8-0.3,1.1-0.9c0.4-1,0.7-2.1,0.8-3.2c0.2-2.2,0.3-4.5,0.3-6.7v-7.8
	l1.5-0.1v7.9c0.1,3.1-0.2,6.3-0.8,9.3c-0.5,2.1-1.3,3.6-2.5,4.4c-1.4,0.8-3,1.2-4.6,1.2c-2.7,0.1-5.2-0.8-7.2-2.7
	c-1.7-1.6-2.7-3.9-2.7-6.2V35.1c0-0.9-0.1-1.8-0.4-2.7c-0.4-0.8-1-1.4-1.9-1.7c-1.4-0.5-3-0.8-4.5-0.8l0.1-1.3
	c2.3,0.1,4.4,0.1,6.2,0.1h5.6c2.9,0,5,0.6,6,1.9c1.1,1.3,1.6,3.3,1.6,6v48.9C3033.1,90.1,3033.1,94.1,3033,97.7 M3055,2.7
	c1,2.4,1.4,4.9,1.3,7.4c0,7.7-0.2,14.5-0.6,20.6c-0.4,6-0.9,11.4-1.4,16.1c-0.6,4.7-1.1,9-1.7,12.8c-0.6,3.8-1.1,7.4-1.5,10.7
	c-0.4,3.2-0.6,6.4-0.6,9.6h-1.6c0-3.2-0.2-6.4-0.6-9.6c-0.4-3.3-0.9-6.8-1.5-10.7c-0.6-3.8-1.2-8.1-1.7-12.9
	c-0.6-4.8-1-10.1-1.4-16.2c-0.4-6-0.6-12.9-0.6-20.6c-0.1-2.6,0.4-5.2,1.6-7.4c1.1-1.8,2.9-2.7,5.4-2.7h0.1
	C3052.4,0,3054.1,0.9,3055,2.7 M3057.1,88.1c0.1,1.8-0.6,3.5-1.9,4.8c-1.4,1.1-3.1,1.7-4.9,1.6c-2.5,0-4.3-0.6-5.6-1.7
	c-1.3-1.2-1.9-2.9-1.9-4.6v-0.1c-0.1-1.8,0.6-3.5,2-4.7c1.4-1.1,3.2-1.7,5-1.6c1.9-0.1,3.7,0.5,5.2,1.8
	C3056.5,84.7,3057.2,86.4,3057.1,88.1L3057.1,88.1z"/>
</svg>
