<svg xmlns="http://www.w3.org/2000/svg" width="35.99991cm" height="8.11749cm" viewBox="0 0 1020.46997 230.10218"><title>neva_menu</title><path d="M220.88188,223.50331c29.95763-3.16857,55.30616,2.59211,72.013,2.59211,35.71831,0,53.28923-21.02707,39.7509-73.45224l-5.4731,1.15162c8.35407,36.58233-10.9462,43.20834-27.94066,43.20834-17.57092,0-34.56668-4.03261-53.57807-5.4731,13.53833-27.94194,32.26214-38.88686,53.57807-85.26376,16.99446-36.87119,12.67429-57.03422,36.58235-83.82325L333.22228,17.834s-9.21811,3.45616-30.82163,3.45616c-25.925,0-37.73527-3.45616-57.6107-3.45616-15.26638,0-26.50145,7.48877-26.50145,25.061,0,13.53831,7.20118,29.38114,7.20118,29.38114l5.18552-1.1529C226.93015,56.43323,233.26729,45.487,264.089,45.487a425.01049,425.01049,0,0,1,46.37688,2.59211c-13.53829,16.4193-33.41376,33.70263-43.7835,53.86566-13.25074,25.34855-17.8598,58.18714-30.82163,89.00878-3.74505,0-8.06652,0-12.09911.28759-2.59213,10.65861-4.0326,21.60481-2.87972,32.26214m142.29673-84.11085c-3.45746-12.09911-4.89793-20.73949-4.32147-29.09357,2.881-3.745,10.9462-5.76068,18.43493-5.76068,16.99576,0,24.48453,10.08087,27.3655,23.62047a273.90807,273.90807,0,0,1-43.49592,27.94066c-9.79328,5.4731-14.97879,12.67427-14.97879,25.925,0,22.46755,13.53829,43.207,26.789,43.207,12.3867,0,23.90805-10.36974,33.12618-46.088v2.017c0,28.51711,7.48875,44.64754,23.62046,44.64754,12.09783,0,23.33161-10.65733,24.19565-35.14184.57644-16.99574-3.16857-30.24648-7.48877-44.36124l-5.18551,1.15291c3.745,13.25073,7.77762,28.8047,4.89793,47.52852-9.21811-.57645-17.28334-2.8797-15.84284-25.061l2.59211-41.76655c2.30453-37.15878-7.77762-51.27355-48.969-51.27355-24.48453,0-33.70264,9.79329-33.70264,29.9576,0,8.35281,4.32147,24.77209,7.77765,33.99021Zm10.36974,29.38115c0-10.65733,10.08086-16.99575,32.54972-31.97455v.28886c1.72807,35.43071-7.77763,54.15325-19.87543,54.15325-7.49007,0-12.67429-12.09782-12.67429-22.46756m84.97232,55.01856c1.1529-.28886,12.96185-2.01694,34.85425.28759,25.061,2.59211,34.27907-19.299,34.85424-36.58233l-4.0326-.864c-1.4405,6.62472-4.32019,10.36975-16.41929,10.36975a53.952,53.952,0,0,1-9.7933-.864c.57646-15.84284,8.35409-46.66577,8.35409-77.19854,0-35.43072-12.0991-78.639,3.74374-110.32472l-4.03262-3.45615A18.527,18.527,0,0,1,494.8154,9.1923c-10.6586,0-14.97879-3.45615-27.07662-3.45615-10.65861,0-18.14736,5.76068-18.14736,17.5709,0,12.09782,6.33714,22.18,15.554,34.56668l4.60905-2.5934c-8.06521-13.24946-7.20118-21.89111,6.626-21.89111a51.84259,51.84259,0,0,1,12.67427,1.43919s-11.23506,42.63189-11.23506,79.50308c0,30.82165,9.21811,56.45907,11.23506,80.07825a96.05535,96.05535,0,0,0-26.789-.864c-3.16857,9.5057-4.03259,20.74077-3.745,30.24647m71.97323,0c1.1529-.28886,21.02835-2.01694,42.92075.28759,25.9237,2.59211,34.27776-19.299,34.85422-36.58233l-4.03259-.864c-1.44051,6.62472-5.18552,10.65733-16.4193,10.36975-5.18551,0-10.08215-1.15291-16.13042-2.017,9.21682-38.59927,8.92923-67.11639,2.30325-98.51449,15.84284-3.45614,28.70327-8.96006,37.34492-17.02528l-2.87967-4.0326s-7.38733,8.38361-36.48092,12.99267c-4.03259-16.41929-11.23378-34.56667-6.33714-53.57808,24.19565-4.60776,33.41376,2.881,31.68567,24.77339l4.60906.864A127.45418,127.45418,0,0,1,621.8072,16.96993c-5.4731-6.33715-13.8272-12.96316-28.806-12.96316-17.8585,0-25.92369,8.64167-27.94066,23.04531-19.01139,0-28.2295,13.53831-28.2295,27.07662,0,16.13042,11.235,26.789,26.50141,35.4307a284.57127,284.57127,0,0,1-29.67,1.72808,25.36418,25.36418,0,0,0,1.72936,10.36974,197.95905,197.95905,0,0,0,30.82034-3.45616c-6.91231,10.94492-14.9775,28.80471-14.9775,45.80046,0,17.57092,7.77631,33.70134,11.8102,49.54418a119.20637,119.20637,0,0,0-28.806,0c-3.16855,9.5057-4.03259,20.74077-3.745,30.24647M650.60932,58.73775c14.69121,0,18.435-11.23505,18.435-23.044,0-12.09912-4.89664-20.45191-16.418-20.45191-14.69124,0-19.3003,11.52136-19.3003,21.02708,0,14.69121,6.33714,22.46883,17.28334,22.46883M616.04268,223.79217c1.15288-.28886,12.96312-2.01694,34.85422.28759,25.061,2.59211,34.2791-19.299,34.85556-36.58233l-4.03263-.864c-1.44047,6.62472-4.32148,10.36975-16.4193,10.36975a47.3638,47.3638,0,0,1-6.626-.57646c1.44046-11.81023,7.77761-24.19692,7.77761-46.3769,0-21.31593-9.5057-41.76784,6.04956-68.5556l-4.0326-3.45743a16.62913,16.62913,0,0,1-11.23378,4.03261c-8.64169,0-18.72384-3.16857-26.50145-3.16857-10.65732,0-18.14739,5.762-18.14739,17.57091,0,12.09911,4.0326,24.19693,10.9462,39.46332l5.18422-1.43921c-6.62472-19.01141-3.16855-28.51711,10.65862-28.51711a58.81084,58.81084,0,0,1,14.11475,2.01566c-6.04952,16.99575-13.82717,25.925-13.82717,46.66448,0,16.4193,7.77765,31.11052,10.36974,40.32735a95.73891,95.73891,0,0,0-30.24517-1.44049c-3.16859,9.5057-4.03263,20.74077-3.745,30.24647M711.386,139.39246c-3.45743-12.09911-4.89664-20.73949-4.32147-29.09357,2.881-3.745,10.9462-5.76068,18.43626-5.76068,16.99446,0,24.48449,10.08087,27.3642,23.62047a273.85271,273.85271,0,0,1-43.49591,27.94066c-9.79328,5.4731-14.9788,12.67427-14.9788,25.925,0,22.46755,13.53829,43.207,26.789,43.207,12.38666,0,23.90932-10.36974,33.12617-46.088v2.017c0,28.51711,7.49,44.64754,23.62045,44.64754,12.09782,0,23.3329-10.65733,24.19694-35.14184.57517-16.99574-3.16859-30.24648-7.49006-44.36124l-5.18423,1.15291c3.74376,13.25073,7.77765,28.8047,4.89664,47.52852-9.21811-.57645-17.28334-2.8797-15.84283-25.061l2.59213-41.76655c2.30451-37.15878-7.77765-51.27355-48.969-51.27355-24.48452,0-33.70263,9.79329-33.70263,29.9576,0,8.35281,4.32147,24.77209,7.7776,33.99021Zm10.36978,29.38115c0-10.65733,10.08215-16.99575,32.54971-31.97455v.28886c1.72805,35.43071-7.77764,54.15325-19.87547,54.15325-7.48877,0-12.67424-12.09782-12.67424-22.46756" style="fill:#e9e9e9"/></svg>