<svg xmlns="http://www.w3.org/2000/svg" width="305.34637cm" height="12.07462cm" viewBox="0 0 8655.48757 342.27271"><title>neva_overview</title><path d="M98.96054,69.05756c-20.4728,95.64319,6.72213,146.97839,39.4176,146.97839,22.30653,0,34.83493-19.2512,34.83493-53.16826h6.11133c3.36107,64.168-23.22306,85.86372-51.02946,85.86372-37.27947,0-62.3356-35.44506-62.3356-92.89226,0-35.75146,9.16667-71.19652,24.44533-82.50266-3.6668-21.08426,15.278-47.05759,48.2792-47.05759a63.5041,63.5041,0,0,1,43.69586,17.4168c-11.6112,10.08453-18.9448,31.16879-16.19453,57.44719l-6.41707.91654C155.48987,72.42,144.7952,57.75276,124.93387,57.75276,109.04374,57.75276,98.96054,69.05756,98.96054,69.05756Z"/><path d="M210.1848,157.67222c-3.6668-9.77813-8.25013-27.19493-8.25013-36.05653,0-21.38933,9.77813-31.77893,35.75146-31.77893,43.69586,0,54.39053,14.97227,51.946,54.39119l-2.75026,44.30667c-1.52734,23.5288,7.02853,25.97333,16.80666,26.58479,3.05534-19.86133-1.22226-36.36292-5.1948-50.41866l5.49987-1.22293c4.584,14.9736,8.55653,29.02933,7.94507,47.0576-.91654,25.97333-12.83414,37.27946-25.6676,37.27946-17.11173,0-25.05613-17.11173-25.05613-47.36266v-2.13947c-9.77814,37.89093-22.0008,48.89066-35.14067,48.89066-14.05573,0-28.41719-22.0008-28.41719-45.83466,0-14.05573,5.49986-21.69573,15.88879-27.50133A290.47329,290.47329,0,0,0,259.68693,144.228c-3.056-14.36213-11.0004-25.05679-29.02933-25.05679-7.9444,0-16.50027,2.13946-19.55627,6.11066-.6108,8.8616.9172,18.0296,4.584,30.8624Zm29.94586,53.47466c12.83347,0,22.91733-19.86133,21.08427-57.44719v-.30507c-23.83453,15.8888-34.5292,22.61226-34.5292,33.9184C226.68573,198.31275,232.1856,211.14688,240.13066,211.14688Z"/><path d="M330.27132,213.59141a79.293,79.293,0,0,1,24.75107.61147c-1.528-16.5016-7.02854-29.94586-7.02854-49.80853,0-20.47279,2.75027-35.44506,3.6668-42.47359a69.77206,69.77206,0,0,0-11.0004-.91654c-14.66719,0-15.58373,9.16667-7.02786,23.22373l-4.88907,2.7496c-9.77813-13.13919-16.50093-23.83386-16.50093-36.668,0-12.52773,7.94507-18.63973,19.2512-18.63973,12.83346,0,17.4168,3.66746,28.72293,3.66746a16.45222,16.45222,0,0,0,11.30613-4.584l5.1948,3.056c-8.2508,18.02827-3.97253,39.4176-1.22227,58.05733l1.83307.30507c12.5284-45.52827,23.83453-64.4744,40.3348-64.4744,22.918,0,28.72359,18.02827,28.72359,43.69653,0,25.36187-12.83413,74.25253-12.83413,74.25253s9.77814,8.55653,14.6672,8.55653c9.77813,0,9.16733-27.50133,2.44453-49.80853l4.88907-1.2216s7.02853,20.16773,7.02853,39.4176c0,27.80773-8.2508,48.89066-39.724,45.22453-3.36107-10.69467-7.94507-38.196-6.72214-62.64133,2.44454-51.64026-.9172-58.97386-12.22266-58.97386-9.47307,0-25.36253,26.88986-38.50173,89.83626a67.65865,67.65865,0,0,0,11.61186,1.2216c10.69467,0,15.8888-3.9712,17.4168-10.99973l4.27827.91653c-.61147,18.33466-10.3896,41.55706-36.97373,38.80746-23.22307-2.44453-34.22346-.61146-35.44573-.3064C325.99306,235.59221,326.90959,223.67461,330.27132,213.59141Z"/><path d="M569.83024,322.3738c-20.77853,0-38.8068-9.168-38.8068-23.22373,0-14.97226,16.50027-45.83466,16.50027-45.83466l4.2776,2.44453s-3.05534,9.77814-3.05534,16.80534c0,12.22266,7.3336,18.33466,25.05613,18.33466,17.41747,0,34.5292-4.88907,34.5292-15.27866,0-9.77814-21.38933-22.0008-38.8068-40.64053C553.32931,217.869,535.301,189.75755,535.301,162.56129c0-18.02827,6.41707-30.25093,13.44493-39.724a41.62843,41.62843,0,0,0-13.1392-1.83307c-14.66719,0-16.50093,9.16667-10.08386,23.22373l-4.88907,2.13814c-7.63933-13.1392-13.44493-23.2224-13.44493-36.05653,0-12.52773,7.9444-18.63973,19.25053-18.63973,12.83413,0,17.41747,3.66746,28.7236,3.66746a16.45159,16.45159,0,0,0,11.30547-4.584l5.19479,3.056c-14.36146,35.44507-7.63933,92.89226,16.806,122.53173h1.528c6.41707-7.94374,11.0004-14.6672,15.27867-26.2784,9.4724-25.97333,1.528-57.4472-16.50093-82.80906,10.69533-9.77813,24.13959-15.58373,37.89026-18.9448,11.0004,38.50106.61147,72.72453-16.1952,107.25439-5.19413,10.69467-10.0832,21.6944-16.19453,32.69546,13.1392,16.80667,21.38933,32.3904,21.38933,47.97413C615.6649,306.78874,595.1921,322.3738,569.83024,322.3738Z"/><path d="M706.41436,90.14183c30.2516,0,48.27986,26.58479,48.27986,66.91892,0,23.22373-9.16733,48.892-25.97333,55.00267,3.056,18.63973-10.08386,36.36292-34.22346,36.36292-28.4172,0-47.6684-26.58479-47.6684-66.91892,0-22.3072,8.55587-48.892,25.36187-55.00266C669.13557,107.865,682.27476,90.14183,706.41436,90.14183Zm19.862,86.17012c0-43.08506-8.86093-58.97386-45.52893-54.39119-3.056,12.83413-5.1948,24.75173-5.1948,40.64053,0,42.78,8.86093,59.58532,45.22386,54.39119C723.52609,204.72982,726.27636,192.20208,726.27636,176.312Z"/><path d="M781.58009,195.56315c0-26.27973,9.77813-56.83573,14.97293-73.94746a73.96554,73.96554,0,0,0-11.30613-.61147c-14.6672,0-15.58373,9.16667-7.02786,23.22373l-4.88907,2.7496c-9.77813-13.13919-16.50093-23.83386-16.50093-36.668,0-12.52773,7.94506-18.63973,19.2512-18.63973,12.83346,0,17.41679,3.66746,28.72293,3.66746a16.45419,16.45419,0,0,0,11.30613-4.584l5.19413,3.056C799.30262,149.42209,803.58089,212.98,826.19249,212.98c10.69533,0,25.0568-16.50027,24.44533-60.50186-.30507-15.27867-6.72213-31.77893-16.19453-45.22453,10.38893-9.77813,23.83386-15.58373,37.89026-18.9448,8.55587,38.50106,4.58333,68.752-1.528,117.644,0,0,7.63933,6.72213,12.5284,6.72213,9.77813,0,9.16667-25.97333,2.44453-48.28053l4.88907-1.2216s7.02786,20.16773,7.02786,39.4176c0,27.80773-8.86159,47.0576-40.33479,43.39146,1.22226-28.72426,1.528-50.72373-.6108-69.66986l-2.13947-.30507c-5.8056,50.41867-18.334,73.03093-39.11253,73.03093C796.85809,249.03781,781.58009,229.17515,781.58009,195.56315Z"/><path d="M955.75141,213.59141c12.52773-1.528,20.4728-.91653,26.88986,0-1.528-31.77893-12.52839-52.55812-12.52839-88.61465,0-44.0016,13.75066-79.1416,13.75066-79.1416a64.60854,64.60854,0,0,0-15.27866-2.13946c-14.6672,0-15.58374,9.168-7.02787,23.22373l-4.88907,2.7496c-9.77813-13.1392-16.50026-23.83387-16.50026-36.668,0-12.52773,7.9444-18.63973,19.25053-18.63973,12.83347,0,17.41747,3.66747,28.72293,3.66747a16.45416,16.45416,0,0,0,11.30613-4.584l5.1948,3.056c-14.97293,34.22346-5.50053,93.19732-5.50053,135.36585l2.13947.61147c12.52773-45.5296,23.52813-64.7808,40.02906-64.7808,22.91733,0,28.72293,18.02827,28.72293,43.69653,0,25.36187-12.83347,74.25253-12.83347,74.25253s9.77814,8.55653,14.6672,8.55653c9.77814,0,9.16667-27.50133,2.44454-49.80853l4.88906-1.2216s7.02787,20.16773,7.02787,39.4176c0,27.80773-6.41707,47.0576-37.89026,43.39146-3.36107-10.69466-7.3336-35.44639-7.3336-59.89173,0-52.25172-2.1388-59.89039-13.44494-59.89039-9.4724,0-25.66759,25.972-33.91773,89.83626a53.79066,53.79066,0,0,0,10.38894,1.2216c12.83413,0,15.88946-3.9712,17.41746-10.99973l4.27827.91653c-.61147,18.33466-10.3896,41.55706-36.97373,38.80746-23.22307-2.44453-35.75147-.61146-36.97373-.3064C951.47314,235.59221,952.39034,223.67461,955.75141,213.59141Z"/><path d="M1183.093,165.92235c-16.1952,6.41707-37.27946,6.72347-58.97386,5.19547,2.13813,32.3904,14.97226,46.75119,35.14,46.75119,16.19386,0,27.5-10.08319,31.16746-37.27813l4.88907.61014c.30506,39.41893-15.58374,67.53039-49.50213,67.53039-30.556,0-49.50213-25.97333-49.50213-65.08586,0-25.0568,9.77813-51.33519,25.0568-57.14079-3.36107-16.50027,1.2216-36.97307,29.63946-36.97307,27.50133,0,40.9456,19.86133,40.33546,41.25067A92.85772,92.85772,0,0,1,1183.093,165.92235Zm-59.28026-1.83306c17.4168.61146,25.36186.30506,35.4464-3.056,3.97253-28.41787-2.44587-47.97413-28.41787-42.77867-4.584,11.91627-7.02853,29.94587-7.02853,43.08507Z"/><path d="M1220.37112,157.67222c-3.66747-9.77813-8.25146-27.19493-8.25146-36.05653,0-21.38933,9.77813-31.77893,35.75146-31.77893,43.69653,0,54.39119,14.97227,51.94666,54.39119l-2.7496,44.30667c-1.528,23.5288,7.0272,25.97333,16.80533,26.58479,3.056-19.86133-1.2216-36.36292-5.19413-50.41866l5.50053-1.22293c4.58267,14.9736,8.5552,29.02933,7.94507,47.0576-.91787,25.97333-12.83413,37.27946-25.66827,37.27946-17.11173,0-25.05679-17.11173-25.05679-47.36266v-2.13947c-9.77814,37.89093-22.0008,48.89066-35.14,48.89066-14.05573,0-28.41786-22.0008-28.41786-45.83466,0-14.05573,5.50053-21.69573,15.89013-27.50133a290.53965,290.53965,0,0,0,46.13973-29.63947c-3.05467-14.36213-10.99974-25.05679-29.028-25.05679-7.94507,0-16.50027,2.13946-19.55627,6.11066-.61146,8.8616.91654,18.0296,4.58267,30.8624Zm29.94453,53.47466c12.83413,0,22.91867-19.86133,21.08427-57.44719v-.30507c-23.83387,15.8888-34.52853,22.61226-34.52853,33.9184C1236.87139,198.31275,1242.37192,211.14688,1250.31565,211.14688Z"/><path d="M1341.06844,213.59141c10.99974-1.22293,19.86134-.30506,27.5.61147-1.83306-16.5016-8.86026-29.94586-8.86026-49.80853,0-20.47279,3.05466-35.44506,3.9712-42.47359a38.86453,38.86453,0,0,0-11.30614-1.528c-12.8328,0-14.05573,9.77813-5.4992,23.83519l-4.88906,2.7496c-9.77813-13.13919-16.50027-23.83386-16.50027-36.668s9.77813-18.9448,21.6944-18.9448c13.1392,0,25.66826,6.11067,32.69546-.61147l5.50054,3.36107c-8.25014,18.02826-8.25014,42.16853-5.50054,60.80826l1.83307.30507c6.72347-43.39013,19.2512-67.5304,35.75146-67.5304,20.47414,0,21.39067,21.08427,11.61254,43.39147l-4.27894.61013c-3.36106-2.13813-9.16666-3.36107-14.3608-3.36107-20.16773,0-22.61226,19.86267-25.36186,48.89067-1.22293,13.75066-3.97253,25.05679-7.64,38.50239,5.50053.61014,10.3896,1.52667,15.27867,1.52667,10.69466,0,15.89013-3.9712,17.4168-10.99973l4.27893.91653c-.61147,18.33466-10.3896,41.55706-36.9744,38.80746-23.2224-2.44453-39.11253-.61146-40.33413-.3064C1336.78951,235.59221,1337.70605,223.67461,1341.06844,213.59141Z"/><path d="M1525.31963,106.64342a84.76981,84.76981,0,0,0,34.22347-10.08453l2.44453,4.88907c-8.8616,6.72213-20.7792,11.30613-35.14,13.1392a154.49067,154.49067,0,0,1,2.7496,28.41786c0,21.08427-7.3336,47.364-22.30586,61.7248,4.58266,4.584,17.11173,11.91759,33.30693,11.91759,15.8888,0,19.86133-20.16773,10.38826-53.77972l5.50054-1.22294c16.19519,55.9192,1.22293,87.39306-25.66694,87.39306-17.41813,0-37.89092-13.4456-34.83493-44.61306,5.8056-56.53066,3.97254-65.39226,1.528-88.92106-8.55653-.61013-15.89013-.30507-23.83519,3.97253l-3.05467-6.41706c24.7504-12.52773,35.44506-24.44533,46.13973-51.94533l6.112,1.2216C1520.43057,80.67009,1522.8751,93.50289,1525.31963,106.64342Z"/><path d="M1573.90123,213.59141c12.52773-1.528,20.4728-.91653,26.88986,0-1.528-31.77893-12.52773-52.55812-12.52773-88.61465,0-44.0016,13.74934-79.1416,13.74934-79.1416a64.60336,64.60336,0,0,0-15.27734-2.13946c-14.6672,0-15.58506,9.168-7.02853,23.22373l-4.88907,2.7496c-9.77813-13.1392-16.50026-23.83387-16.50026-36.668,0-12.52773,7.94373-18.63973,19.24986-18.63973,12.83414,0,17.41814,3.66747,28.72427,3.66747a16.45614,16.45614,0,0,0,11.30613-4.584l5.19413,3.056c-14.97226,34.22346-5.50053,93.19732-5.50053,135.36585l2.13947.61147c12.52773-45.5296,23.52879-64.7808,40.02906-64.7808,22.91733,0,28.72293,18.02827,28.72293,43.69653,0,25.36187-12.83413,74.25253-12.83413,74.25253s9.77813,8.55653,14.6672,8.55653c9.77813,0,9.168-27.50133,2.44453-49.80853l4.88907-1.2216s7.02853,20.16773,7.02853,39.4176c0,27.80773-6.41707,47.0576-37.8896,43.39146-3.3624-10.69466-7.33493-35.44639-7.33493-59.89173,0-52.25172-2.13813-59.89039-13.44427-59.89039-9.47306,0-25.66826,25.972-33.91839,89.83626a53.79761,53.79761,0,0,0,10.3896,1.2216c12.83413,0,15.89013-3.9712,17.4168-10.99973l4.27893.91653c-.61147,18.33466-10.3896,41.55706-36.9744,38.80746-23.2224-2.44453-35.75146-.61146-36.97306-.3064C1569.62363,235.59221,1570.54016,223.67461,1573.90123,213.59141Z"/><path d="M1773.13,90.14183c30.25093,0,48.2792,26.58479,48.2792,66.91892,0,23.22373-9.16667,48.892-25.97333,55.00267,3.056,18.63973-10.0832,36.36292-34.22347,36.36292-28.41786,0-47.66773-26.58479-47.66773-66.91892,0-22.3072,8.5552-48.892,25.36187-55.00266C1735.85055,107.865,1748.98975,90.14183,1773.13,90.14183Zm19.86133,86.17012c0-43.08506-8.86159-58.97386-45.52959-54.39119-3.05467,12.83413-5.19413,24.75173-5.19413,40.64053,0,42.78,8.86159,59.58532,45.22319,54.39119C1790.24174,204.72982,1792.99134,192.20208,1792.99134,176.312Z"/><path d="M1891.07374,216.341c12.52773,0,21.08426-5.8056,23.5288-14.6672-5.19547-9.16667-31.47387-9.16667-50.72373-15.27734a38.407,38.407,0,0,1-26.88987-36.36293c0-16.50026,9.16667-27.80639,20.77787-31.47386-1.2216-14.05573,11.9176-29.028,32.3904-29.028,14.3608,0,26.58479,4.58267,32.39039,10.69467-9.47306,12.22266-12.83413,24.7504-8.8616,48.27919l-4.88906,1.2216c-6.112-22.91733-18.02827-31.47253-30.25093-31.47253a29.19856,29.19856,0,0,0-21.39067,9.47174c0,12.52906,11.61253,22.91866,27.50133,30.55733,22.61227,10.99973,36.05653,22.00079,36.05653,41.55706,0,28.1128-18.02826,48.2792-43.08373,48.2792-18.94613,0-33.30693-7.0272-46.14106-14.3608,2.7496-11.61254,6.72213-22.91734,1.528-41.55707l4.88907-1.528C1848.29508,209.92528,1873.04547,216.341,1891.07374,216.341Z"/><path d="M2019.4084,165.92235c-16.1952,6.41707-37.27813,6.72347-58.97386,5.19547,2.13946,32.3904,14.97226,46.75119,35.14,46.75119,16.1952,0,27.50133-10.08319,31.16747-37.27813l4.88906.61014c.3064,39.41893-15.58373,67.53039-49.50079,67.53039-30.55733,0-49.50213-25.97333-49.50213-65.08586,0-25.0568,9.77813-51.33519,25.0568-57.14079-3.3624-16.50027,1.2216-36.97307,29.63946-36.97307,27.50133,0,40.9456,19.86133,40.33413,41.25067A92.80747,92.80747,0,0,1,2019.4084,165.92235Zm-59.28026-1.83306c17.41813.61146,25.36319.30506,35.44639-3.056,3.97254-28.41787-2.44453-47.97413-28.41786-42.77867-4.58267,11.91627-7.02853,29.94587-7.02853,43.08507Z"/><path d="M2175.94244,223.56538l5.45125-.60481,29.67809-49.36358,23.62072-67.23066-37.855,2.11949.30373-6.66219,23.92446-6.96459,48.75611,3.028.60614,6.66218-20.29029,5.75365-12.11343,25.13672-22.10737,47.84891-29.9805,62.38422h-18.47321L2140.8131,173.597l-38.7635-65.716-16.05132-1.21227V99.70415l21.19883-2.72562,55.11723,1.51467-.3024,7.57073-41.79286,7.87313Z"/><path d="M2327.96309,91.22488l81.46357,6.35978,14.83905,7.87313,16.35373,44.21475-17.56467,37.855-45.72809,55.41963-63.5965,3.93789-11.50862-13.6281-1.51334-60.26474-8.4806-32.70745,8.783-29.07329Zm-12.11342,142.63818,63.59649-8.783,33.00986-37.24882,8.17553-44.21474-3.93657-32.10132-17.86707-7.57072-72.37949,5.75364-22.40978,29.3757Z"/><path d="M2495.734,230.22889l13.93051,1.51335,5.45124-98.1197-8.47927-26.9538-19.38175,2.72562-17.56467,20.594-5.14884-2.42322,13.022-31.19277,46.33423-3.028,4.2403,4.54271-7.26832,76.01365,3.33175,59.3562,5.14751.60614,31.49518-8.17687,1.81708,4.84511L2535.406,245.67275h-63.8989v-5.45124Zm19.38175-207.1432,12.71957,8.78166.90854,10.90249-5.45125,9.99394L2507.545,55.4894l-5.75364-10.29634-.60614-13.62811Z"/><path d="M2614.74746,101.52123l61.17328-10.60008,36.644,9.38914,9.994,13.022-11.50863,46.63663-6.35978-1.21094-.90854-40.58058-39.97444-16.05-43.0038,12.71823-18.47321,28.16475-2.42189,59.96233,36.03788,36.03788,55.722-3.93656,22.40978-40.58058,6.96592.90854-8.17686,37.24882-20.8951,12.71957-54.51242,3.63416-51.17933-30.58664,1.81708-62.68795Z"/><path d="M2832.18169,171.17377l-62.08182-1.21094,1.21094,9.99394,5.45125,34.2208,41.18671,24.22686,45.72809-6.66219,24.22686-33.61466,5.14884,1.51334-11.20489,41.18672-69.95627,8.17687-39.06591-14.53665-14.83905-36.94642.60481-54.20869,30.28423-46.33422,49.96839-8.17687,42.39766,10.60008,12.71957,19.38176L2880.333,160.575Zm-62.99036-9.08407,54.51109-3.33176,49.96839-6.35978-2.42322-38.15737L2839.45,98.4932l-48.455,13.022-23.31832,39.06591Z"/><path d="M2951.49755,102.12737l45.42568-10.60009,44.51715,3.63417,16.35373,29.07329-12.41583,31.19144-5.45124-.6048.90854-33.31226-24.833-21.805-57.23671,8.47926-7.26832,23.01592,9.0854,20.29029,95.39408,41.48912-5.75365,44.51714-39.36964,9.994-55.41963-2.11948L2938.778,228.10808l-10.29634-25.1354,4.8451-1.51468,18.17081,17.26227,15.44518,17.26227,49.666,1.81708,19.078-13.022,6.35978-21.19883-39.36964-26.04394-54.81349-17.26226-14.83905-31.79892Z"/><path d="M3176.50383,230.22889l13.93051,1.51335,5.45124-98.1197-8.47926-26.9538-19.38175,2.72562-17.56467,20.594-5.14884-2.42322,13.022-31.19277,46.33422-3.028,4.2403,4.54271-7.26832,76.01365,3.33176,59.3562,5.1475.60614,31.49651-8.17687,1.81575,4.84511-27.25488,15.14145H3152.277v-5.45124Zm19.38175-207.1432,12.71957,8.78166.90854,10.90249-5.45124,9.99394-15.74759,2.72562-5.75365-10.29634-.60614-13.62811Z"/><path d="M3260.99276,240.22151l24.22819-9.99262,13.62677,1.21095,4.84644-94.48687-1.81708-30.58664-21.19884,3.028-17.56467,20.594-5.14884-2.42322,13.022-31.19277,46.33556-3.028,4.239,4.54271-10.90249,29.67809V198.43l59.96234-76.92086,36.34161-29.0733,21.50124,6.66219-.30241,41.18672,1.51335,84.18919,40.27818-1.51335.60613,5.75365-46.94036,18.77561-5.755-2.11948,2.42322-93.2746-6.66218-31.19277-14.53665-7.26832-42.70006,38.7635-45.72943,64.80743v15.44519l21.50257,2.12082,17.86707,3.33042v6.96592l-89.03562.60481Z"/><path d="M3509.92349,102.12737l45.42569-10.60009,44.51715,3.63417,16.35372,29.07329-12.41583,31.19144-5.45124-.6048.90854-33.31226-24.833-21.805-57.23671,8.47926-7.26833,23.01592,9.08541,20.29029,95.39407,41.48912-5.75364,44.51714-39.36964,9.994-55.41963-2.11948-16.65613-17.26227-10.29635-25.1354,4.84511-1.51468,18.1708,17.26227,15.44519,17.26227,49.666,1.81708,19.078-13.022,6.35978-21.19883-39.36963-26.04394-54.8135-17.26226-14.83905-31.79892Z"/><path d="M3675.27251,230.22889l13.93051,1.51335,5.45124-98.1197-8.47926-26.9538-19.38175,2.72562-17.56467,20.594-5.14884-2.42322,13.022-31.19277,46.33422-3.028,4.2403,4.54271-7.26832,76.01365,3.33176,59.3562,5.14751.60614,31.49517-8.17687,1.81708,4.84511-27.25487,15.14145h-63.8989v-5.45124Zm19.38175-207.1432,12.71957,8.78166.90854,10.90249-5.45124,9.99394-15.74759,2.72562-5.75365-10.29634-.60613-13.62811Z"/><path d="M3877.869,245.97648V239.6167l16.05133-6.05738,4.239-94.78927-53.29881,82.67584-32.70745,23.92446-33.31226-2.72563-16.05-32.40371,9.3878-66.32212,14.53665-41.79152,52.39027-10.29768,60.56847,3.93789.90854-63.90023-34.2208-.6048L3846.07144,50.6443l-5.14884-2.42322,15.14279-30.28423,58.14525,5.755,3.028,4.54137-10.90248,86.61241,1.21227,117.80518,36.64269-13.022,1.81708,4.84511-27.25488,21.19883Zm-73.5891-11.811,35.12934-23.62205,59.35619-89.94283.60614-8.17687-67.83679-11.20488L3792.46889,120.903l-16.05,49.05985,5.44991,49.96838Z"/><path d="M4042.917,171.17377l-62.08181-1.21094,1.21094,9.99394,5.45124,34.2208,41.18672,24.22686,45.72809-6.66219,24.22685-33.61466,5.14884,1.51334L4092.583,240.82764l-69.95628,8.17687-39.0659-14.53665-14.839-36.94642.6048-54.20869,30.28424-46.33422,49.96839-8.17687,42.39766,10.60008,12.71956,19.38176-13.6281,41.79152Zm-62.99035-9.08407,54.51109-3.33176,49.96838-6.35978-2.42321-38.15737L4050.18529,98.4932l-48.455,13.022-23.31831,39.06591Z"/><path d="M4225.52426,230.22889l13.93051,1.51335,4.5427-81.16116-1.51468-44.21475-24.22685,3.028-17.56467,29.67943-5.14884-2.42322,13.0233-40.27818,49.36225-3.028,4.2403,4.54271-10.90249,29.67809v67.53439l31.49518-61.477,50.87693-41.18672,21.805,11.20489-.60614,36.644-.3024,47.24277.6048,7.87446,39.67205-74.80138,35.73547-28.16476,24.833,4.84511,4.8451,44.82088-.3024,81.16116,41.48912-9.69021,1.81708,4.84511-49.96839,27.861-7.57072-2.11949,6.056-89.64176-6.66218-35.73414L4420.55271,112.12l-34.2208,42.39766-29.6781,59.65993v-.3024l2.42322,31.49518h-18.77694l7.26832-90.85271-7.26832-39.672-15.44386-3.028-40.88431,39.36963-32.70613,64.80744v16.95987l7.87313.90854,31.49651-8.17687,1.81575,4.84511-27.25488,15.14145h-63.89889v-5.45124Z"/><path d="M4593.77619,308.96684l-37.855,14.23291-36.94642-5.75364-3.93657-38.4611,3.93657-1.81708,14.83905,31.79891,50.57452-6.66219,9.38781-41.48912-34.5232-89.64176-29.072-47.54517-28.16475-22.40977,3.028-7.26833h58.449l1.51334,5.45124-28.76956,8.47927,60.87088,118.71372,3.63416-.60614,26.95247-51.78546,28.46716-63.90023-20.89643-6.96459-30.58664,8.17686-1.81708-6.05738,24.22819-15.14145,50.57319,7.26832,2.12082,5.14751-22.41111,27.55862-49.05985,104.17707Z"/><path d="M4783.04566,230.22889h.60614l6.05738-139.61015-1.81708-60.87087-24.22819,3.028-14.53531,20.594-5.14884-2.42322,9.99394-31.19277,49.36225-3.028,4.2403,4.54271-10.90248,59.96233.3024,120.8332,52.69534-76.92219L4892.674,92.43582l18.77561,4.84511,2.42322,43.0038,1.51468,82.97824,42.09393-9.69021,1.81708,4.84511-49.96839,27.861-5.75364-2.11949,2.42321-92.06365-6.66351-31.19277-14.53532-7.26832-38.7635,32.40371L4796.97617,220.235v12.41583l7.57206,1.21228,31.49518-8.17687,1.81708,4.84511-27.25621,15.14145H4749.7334v-5.45124Z"/><path d="M5053.48163,171.17377l-62.08182-1.21094,1.21095,9.99394,5.45124,34.2208,41.18672,24.22686,45.72809-6.66219,24.22685-33.61466,5.14884,1.51334-11.20488,41.18672-69.95628,8.17687-39.0659-14.53665-14.839-36.94642.6048-54.20869,30.28424-46.33422,49.96839-8.17687,42.39766,10.60008L5115.261,118.7835l-13.6281,41.79152Zm-62.99036-9.08407,54.51109-3.33176,49.96839-6.35978-2.42322-38.15737L5060.75,98.4932l-48.455,13.022-23.31831,39.06591Z"/><path d="M5158.56458,123.6286l10.90115-23.01591,50.27213-9.69154,46.33422,7.87446,18.77562,19.68415-6.05605,61.77941,1.21094,49.666,16.05133,3.63416,15.74759-35.73548.90854-31.19277,5.1475-.60481,7.87446,33.31226-23.622,43.0038-22.71217,4.239-13.62811-7.87313,4.5427-62.99036L5242.45,220.235l-32.1,25.1354h-36.03788l-19.07935-24.53059-2.11948-26.64875,29.9805-27.25621,89.03562-16.05132,1.21095-16.3524-24.22686-31.49517-72.37949,6.35845-6.05605,43.3062h-6.05738Zm52.39028,108.71978,60.26606-66.92826.30241-5.45124-78.43555,16.65746-25.74153,15.44386,4.84511,30.89037Z"/><path d="M5462.91761,245.97648V239.6167l16.05133-6.05738,4.239-94.78927-53.29881,82.67584-32.70745,23.92446-33.31226-2.72563-16.05-32.40371,9.3878-66.32212,14.53665-41.79152,52.39027-10.29768,60.56847,3.93789.90854-63.90023-34.2208-.6048L5431.12,50.6443l-5.14884-2.42322L5441.114,17.93685l58.14525,5.755,3.028,4.54137-10.90248,86.61241,1.21227,117.80518,36.64269-13.022,1.81708,4.84511-27.25488,21.19883Zm-73.5891-11.811,35.12934-23.62205,59.35619-89.94283.60614-8.17687-67.83679-11.20488L5377.51748,120.903l-16.05,49.05985,5.44991,49.96838Z"/><path d="M5699.34859,165.92235c-16.1952,6.41707-37.27813,6.72347-58.97386,5.19547,2.13947,32.3904,14.97227,46.75119,35.14,46.75119,16.1952,0,27.50133-10.08319,31.16746-37.27813l4.88907.61014c.3064,39.41893-15.58373,67.53039-49.5008,67.53039-30.55733,0-49.50213-25.97333-49.50213-65.08586,0-25.0568,9.77814-51.33519,25.0568-57.14079-3.3624-16.50027,1.2216-36.97307,29.63946-36.97307,27.50134,0,40.9456,19.86133,40.33413,41.25067A92.80709,92.80709,0,0,1,5699.34859,165.92235Zm-59.28026-1.83306c17.41813.61146,25.3632.30506,35.4464-3.056,3.97253-28.41787-2.44454-47.97413-28.41787-42.77867-4.58266,11.91627-7.02853,29.94587-7.02853,43.08507Z"/><path d="M5821.88031,107.865c-10.08453,14.6672-19.55626,29.63947-23.22373,53.47467l-4.88906-.61147c1.8344-26.88986-6.11067-47.97413-35.75147-42.4736-4.58266,11.91627-7.33359,29.94587-7.33359,43.39013,0,35.4464,11.91759,55.9192,33.91839,55.9192,16.1952,0,29.3344-9.77813,33.00053-36.97307l4.88907.61014c.61147,39.41893-15.58373,67.53039-49.5008,67.53039-30.55733,0-50.41866-25.97333-50.41866-65.08586,0-25.0568,10.69467-51.33519,25.97333-57.14079-4.27893-18.33467,7.3336-36.97307,35.75146-36.97307C5800.18458,89.53169,5815.46325,99.30983,5821.88031,107.865Z"/><path d="M5832.571,213.59141c12.52774-1.528,20.4728-.91653,26.88987,0-1.528-31.77893-12.52773-52.55812-12.52773-88.61465,0-44.0016,13.74933-79.1416,13.74933-79.1416a64.60329,64.60329,0,0,0-15.27733-2.13946c-14.6672,0-15.58507,9.168-7.02854,23.22373l-4.88906,2.7496c-9.77813-13.1392-16.50027-23.83387-16.50027-36.668,0-12.52773,7.94374-18.63973,19.24987-18.63973,12.83413,0,17.41813,3.66747,28.72426,3.66747a16.45614,16.45614,0,0,0,11.30613-4.584l5.19414,3.056c-14.97227,34.22346-5.50054,93.19732-5.50054,135.36585l2.13947.61147c12.52773-45.5296,23.5288-64.7808,40.02906-64.7808,22.91733,0,28.72293,18.02827,28.72293,43.69653,0,25.36187-12.83413,74.25253-12.83413,74.25253s9.77813,8.55653,14.6672,8.55653c9.77813,0,9.168-27.50133,2.44453-49.80853l4.88907-1.2216s7.02853,20.16773,7.02853,39.4176c0,27.80773-6.41706,47.0576-37.88959,43.39146-3.3624-10.69466-7.33494-35.44639-7.33494-59.89173,0-52.25172-2.13813-59.89039-13.44426-59.89039-9.47307,0-25.66827,25.972-33.9184,89.83626a53.7978,53.7978,0,0,0,10.3896,1.2216c12.83413,0,15.89013-3.9712,17.4168-10.99973l4.27893.91653c-.61147,18.33466-10.3896,41.55706-36.9744,38.80746-23.22239-2.44453-35.75146-.61146-36.97306-.3064C5828.29338,235.59221,5829.20992,223.67461,5832.571,213.59141Z"/><path d="M6031.79977,90.14183c30.25093,0,48.27919,26.58479,48.27919,66.91892,0,23.22373-9.16666,48.892-25.97333,55.00267,3.056,18.63973-10.0832,36.36292-34.22346,36.36292-28.41787,0-47.66773-26.58479-47.66773-66.91892,0-22.3072,8.5552-48.892,25.36186-55.00266C5994.5203,107.865,6007.6595,90.14183,6031.79977,90.14183ZM6051.6611,176.312c0-43.08506-8.8616-58.97386-45.5296-54.39119-3.05466,12.83413-5.19413,24.75173-5.19413,40.64053,0,42.78,8.8616,59.58532,45.2232,54.39119C6048.9115,204.72982,6051.6611,192.20208,6051.6611,176.312Z"/><path d="M6178.46642,165.92235c-16.19519,6.41707-37.27813,6.72347-58.97386,5.19547,2.13947,32.3904,14.97227,46.75119,35.14,46.75119,16.1952,0,27.50133-10.08319,31.16746-37.27813l4.88907.61014c.3064,39.41893-15.58373,67.53039-49.5008,67.53039-30.55733,0-49.50213-25.97333-49.50213-65.08586,0-25.0568,9.77814-51.33519,25.0568-57.14079-3.3624-16.50027,1.2216-36.97307,29.63947-36.97307,27.50133,0,40.94559,19.86133,40.33413,41.25067A92.80727,92.80727,0,0,1,6178.46642,165.92235Zm-59.28026-1.83306c17.41813.61146,25.3632.30506,35.4464-3.056,3.97253-28.41787-2.44453-47.97413-28.41786-42.77867-4.58267,11.91627-7.02854,29.94587-7.02854,43.08507Z"/><path d="M6258.82962,216.341c12.52773,0,21.08426-5.8056,23.5288-14.6672-5.19547-9.16667-31.47387-9.16667-50.72373-15.27734a38.407,38.407,0,0,1-26.88987-36.36293c0-16.50026,9.16667-27.80639,20.77787-31.47386-1.2216-14.05573,11.9176-29.028,32.39039-29.028,14.3608,0,26.5848,4.58267,32.3904,10.69467-9.47306,12.22266-12.83413,24.7504-8.8616,48.27919l-4.88906,1.2216c-6.112-22.91733-18.02827-31.47253-30.25094-31.47253a29.19855,29.19855,0,0,0-21.39066,9.47174c0,12.52906,11.61253,22.91866,27.50133,30.55733,22.61227,10.99973,36.05653,22.00079,36.05653,41.55706,0,28.1128-18.02826,48.2792-43.08373,48.2792-18.94613,0-33.30693-7.0272-46.14106-14.3608,2.7496-11.61254,6.72213-22.91734,1.528-41.55707l4.88907-1.528C6216.051,209.92528,6240.80135,216.341,6258.82962,216.341Z"/><path d="M6388.68828,90.14183c30.25093,0,48.27919,26.58479,48.27919,66.91892,0,23.22373-9.16666,48.892-25.97333,55.00267,3.056,18.63973-10.0832,36.36292-34.22346,36.36292-28.41786,0-47.66773-26.58479-47.66773-66.91892,0-22.3072,8.5552-48.892,25.36187-55.00266C6351.40882,107.865,6364.548,90.14183,6388.68828,90.14183Zm19.86133,86.17012c0-43.08506-8.8616-58.97386-45.5296-54.39119-3.05466,12.83413-5.19413,24.75173-5.19413,40.64053,0,42.78,8.8616,59.58532,45.2232,54.39119C6405.8,204.72982,6408.54961,192.20208,6408.54961,176.312Z"/><path d="M6447.96321,213.59141a126.39157,126.39157,0,0,1,30.55733,0c-4.27893-16.80666-12.52906-33.91839-12.52906-52.55812,0-18.02827,8.55653-36.97307,15.89013-48.58427a210.03734,210.03734,0,0,1-32.69547,3.66614,26.90541,26.90541,0,0,1-1.8344-10.99974,301.49026,301.49026,0,0,0,31.47387-1.83439c-16.1952-9.16667-28.1128-20.4728-28.1128-37.58453,0-14.3608,9.77813-28.72294,29.94586-28.72294,2.13947-15.27866,10.69467-24.44533,29.63947-24.44533,15.89013,0,24.75173,7.02854,30.55733,13.75067-10.0832,14.6672-16.50027,28.11146-21.08427,46.14106l-4.88906-.91786c1.83306-23.2224-7.94507-31.16747-33.612-26.2784-5.19546,20.16773,2.44453,39.41893,6.72213,56.83573,30.8624-4.88907,40.33547-14.05574,40.33547-14.05574l3.05466,4.2776c-9.16666,8.5552-24.44533,14.6672-41.25066,18.33334,7.0272,33.30693,7.3336,63.55919-2.44453,104.50478,6.41706.91654,11.6112,2.13814,17.11173,2.13814,11.91626.3064,15.8888-3.9712,17.4168-10.99973l4.2776.91653c-.61014,18.33466-9.47174,41.55706-36.97307,38.80746-23.22373-2.44453-44.30666-.61146-45.52959-.3064C6443.68561,235.59221,6444.60214,223.67461,6447.96321,213.59141Z"/><path d="M6619.68533,106.64342a84.77616,84.77616,0,0,0,34.22347-10.08453l2.44453,4.88907c-8.8616,6.72213-20.7792,11.30613-35.14,13.1392a154.49067,154.49067,0,0,1,2.7496,28.41786c0,21.08427-7.3336,47.364-22.30586,61.7248,4.58267,4.584,17.11173,11.91759,33.30693,11.91759,15.8888,0,19.86133-20.16773,10.38827-53.77972l5.50053-1.22294c16.1952,55.9192,1.22293,87.39306-25.66693,87.39306-17.41813,0-37.89093-13.4456-34.83493-44.61306,5.8056-56.53066,3.97253-65.39226,1.528-88.92106-8.55654-.61013-15.89013-.30507-23.83387,3.97253l-3.056-6.41706c24.7504-12.52773,35.44507-24.44533,46.13973-51.94533l6.112,1.2216C6614.79627,80.67009,6617.2408,93.50289,6619.68533,106.64342Z"/><path d="M6668.26693,213.59141c12.52774-1.528,20.4728-.91653,26.88987,0-1.528-31.77893-12.52907-52.55812-12.52907-88.61465,0-44.0016,13.75067-79.1416,13.75067-79.1416a64.59451,64.59451,0,0,0-15.27734-2.13946c-14.66719,0-15.58373,9.168-7.02853,23.22373l-4.88906,2.7496c-9.77814-13.1392-16.50027-23.83387-16.50027-36.668,0-12.52773,7.94507-18.63973,19.24987-18.63973,12.83413,0,17.41813,3.66747,28.72426,3.66747a16.451,16.451,0,0,0,11.3048-4.584l5.19546,3.056c-14.97359,34.22346-5.50053,93.19732-5.50053,135.36585l2.13947.61147c12.52773-45.5296,23.5288-64.7808,40.02906-64.7808,22.91733,0,28.72293,18.02827,28.72293,43.69653,0,25.36187-12.83413,74.25253-12.83413,74.25253s9.77813,8.55653,14.6672,8.55653c9.77813,0,9.168-27.50133,2.44453-49.80853l4.88907-1.2216s7.02853,20.16773,7.02853,39.4176c0,27.80773-6.41707,47.0576-37.89093,43.39146-3.36107-10.69466-7.33227-35.44639-7.33227-59.89173,0-52.25172-2.13946-59.89039-13.44559-59.89039-9.47307,0-25.66694,25.972-33.9184,89.83626a53.81044,53.81044,0,0,0,10.3896,1.2216c12.83413,0,15.89013-3.9712,17.41813-10.99973l4.2776.91653c-.61147,18.33466-10.3896,41.55706-36.9744,38.80746-23.2224-2.44453-35.75013-.61146-36.97306-.3064C6663.98933,235.59221,6664.90587,223.67461,6668.26693,213.59141Z"/><path d="M6809.74345,213.59141a101.527,101.527,0,0,1,32.084,1.528c-2.7496-9.77813-10.99973-25.36186-10.99973-42.78,0-22.0008,8.25013-31.47253,14.6672-49.50213a62.47,62.47,0,0,0-14.9736-2.13813c-14.6672,0-18.33333,10.0832-11.30613,30.25093l-5.4992,1.528c-7.3336-16.1952-11.6112-29.02933-11.6112-41.86346,0-12.52774,7.94373-18.6384,19.24986-18.6384,8.25014,0,18.9448,3.36106,28.1128,3.36106a17.63655,17.63655,0,0,0,11.91627-4.27893l4.27893,3.66747c-16.5016,28.41786-6.41707,50.11226-6.41707,72.72452,0,23.5288-6.72346,36.668-8.25013,49.19706a50.20889,50.20889,0,0,0,7.0272.61014c12.83413,0,15.89013-3.9712,17.41813-10.99973l4.2776.91653c-.61147,18.33466-10.3896,41.55706-36.9744,38.80746-23.22239-2.44453-35.75013-.61146-36.97306-.3064C6805.46585,235.59221,6806.38239,223.67461,6809.74345,213.59141Zm14.3608-166.83971c0-10.0832,4.88907-22.30587,20.47413-22.30587,12.22267,0,17.4168,8.8616,17.4168,21.6944,0,12.52907-3.97253,24.44533-19.55626,24.44533C6830.82772,70.58556,6824.10425,62.33543,6824.10425,46.7517Z"/><path d="M6900.79865,213.59141a79.28861,79.28861,0,0,1,24.7504.61147c-1.528-16.5016-7.0272-29.94586-7.0272-49.80853,0-20.47279,2.7496-35.44506,3.66613-42.47359a69.76393,69.76393,0,0,0-10.99973-.91654c-14.6672,0-15.58373,9.16667-7.02854,23.22373l-4.88906,2.7496c-9.77813-13.13919-16.50027-23.83386-16.50027-36.668,0-12.52773,7.94507-18.63973,19.24987-18.63973,12.83413,0,17.41813,3.66746,28.72426,3.66746a16.451,16.451,0,0,0,11.3048-4.584l5.19547,3.056c-8.25014,18.02827-3.97254,39.4176-1.22294,58.05733l1.8344.30507c12.52774-45.52827,23.83387-64.4744,40.33413-64.4744,22.91734,0,28.72294,18.02827,28.72294,43.69653,0,25.36187-12.8328,74.25253-12.8328,74.25253s9.77813,8.55653,14.66719,8.55653c9.77814,0,9.16667-27.50133,2.44454-49.80853l4.88906-1.2216s7.0272,20.16773,7.0272,39.4176c0,27.80773-8.25013,48.89066-39.72266,45.22453-3.3624-10.69467-7.94507-38.196-6.72347-62.64133,2.44454-51.64026-.91653-58.97386-12.22266-58.97386-9.47173,0-25.36187,26.88986-38.50106,89.83626a67.66486,67.66486,0,0,0,11.61119,1.2216c10.69467,0,15.89014-3.9712,17.41814-10.99973l4.2776.91653c-.61147,18.33466-10.3896,41.55706-36.9744,38.80746-23.2224-2.44453-34.22346-.61146-35.44506-.3064C6896.52105,235.59221,6897.43758,223.67461,6900.79865,213.59141Z"/><path d="M7143.41623,289.98341c0-9.77813-14.05707-13.1392-40.33546-17.11173-18.63974-2.75094-33.612-9.47307-33.612-27.50133,0-10.3896,7.02853-20.4728,14.05573-27.50134-21.38933-.91653-40.64053-19.24986-40.64053-53.47466,0-18.02826,8.8616-38.19466,21.08427-45.52826-1.528-17.7232,11.00106-28.41786,29.33439-28.41786a41.30667,41.30667,0,0,1,24.44533,8.25013c18.63974-3.36107,27.8064-11.6112,31.16747-16.50027,11.30613,11.3048,9.47306,32.38907-6.41707,32.38907a40.85848,40.85848,0,0,1-11.91626-2.13814,58.19492,58.19492,0,0,1,9.16666,32.084c0,18.33467-6.72213,36.36293-22.30586,45.22453-2.13947,14.6672-11.9176,25.0568-25.97333,27.5-3.056,11.61253,5.19413,18.94613,23.52879,24.75173,29.3344,9.16666,37.27814,20.77786,37.27814,39.11253,0,24.13893-21.38934,44.30666-56.52933,44.30666-21.69573,0-42.4736-4.2776-55.9192-9.47173-.30507-14.9736,2.75093-32.08533,11.9176-47.36266l3.36107.61013c8.55653,14.9736,30.86239,32.3904,62.64132,32.3904C7134.8597,301.59461,7143.41623,297.317,7143.41623,289.98341Zm-29.3344-129.25519c0-25.97333-16.5016-44.91813-42.16853-44.91813-3.66746,10.0832-4.88906,19.24987-4.88906,32.3904,0,28.11146,16.19519,45.22319,43.39013,45.22319A130.26642,130.26642,0,0,0,7114.08183,160.72822Z"/><path d="M7217.36236,216.341c12.52773,0,21.08426-5.8056,23.52879-14.6672-5.19413-9.16667-31.47386-9.16667-50.72373-15.27734a38.407,38.407,0,0,1-26.88986-36.36293c0-16.50026,9.16667-27.80639,20.77787-31.47386-1.22161-14.05573,11.91759-29.028,32.39039-29.028,14.36213,0,26.58347,4.58267,32.3904,10.69467-9.47307,12.22266-12.83413,24.7504-8.8616,48.27919l-4.88907,1.2216c-6.112-22.91733-18.02826-31.47253-30.25093-31.47253a29.19852,29.19852,0,0,0-21.39066,9.47174c0,12.52906,11.61253,22.91866,27.50133,30.55733,22.61226,10.99973,36.05653,22.00079,36.05653,41.55706,0,28.1128-18.02827,48.2792-43.08506,48.2792-18.9448,0-33.3056-7.0272-46.13973-14.3608,2.7496-11.61254,6.72213-22.91734,1.528-41.55707l4.88906-1.528C7174.58236,209.92528,7199.33409,216.341,7217.36236,216.341Z"/><path d="M7328.58129,106.64342a84.77616,84.77616,0,0,0,34.22346-10.08453l2.44453,4.88907c-8.8616,6.72213-20.7792,11.30613-35.14,13.1392a154.49061,154.49061,0,0,1,2.74961,28.41786c0,21.08427-7.3336,47.364-22.30587,61.7248,4.58267,4.584,17.11173,11.91759,33.30693,11.91759,15.8888,0,19.86133-20.16773,10.38827-53.77972l5.50053-1.22294c16.1952,55.9192,1.22293,87.39306-25.66693,87.39306-17.41813,0-37.89093-13.4456-34.83493-44.61306,5.8056-56.53066,3.97253-65.39226,1.528-88.92106-8.55653-.61013-15.89013-.30507-23.83387,3.97253l-3.056-6.41706c24.7504-12.52773,35.44507-24.44533,46.13973-51.94533l6.112,1.2216C7323.69222,80.67009,7326.13675,93.50289,7328.58129,106.64342Z"/><path d="M7377.16288,213.59141c12.52774-1.528,20.4728-.91653,26.88987,0-1.528-31.77893-12.52907-52.55812-12.52907-88.61465,0-44.0016,13.75067-79.1416,13.75067-79.1416A64.59451,64.59451,0,0,0,7389.997,43.6957c-14.6672,0-15.58374,9.168-7.02854,23.22373l-4.88906,2.7496c-9.77814-13.1392-16.50027-23.83387-16.50027-36.668,0-12.52773,7.94507-18.63973,19.24987-18.63973,12.83413,0,17.41813,3.66747,28.72426,3.66747a16.451,16.451,0,0,0,11.3048-4.584l5.19547,3.056c-14.9736,34.22346-5.50054,93.19732-5.50054,135.36585l2.13947.61147c12.52773-45.5296,23.5288-64.7808,40.02906-64.7808,22.91733,0,28.72293,18.02827,28.72293,43.69653,0,25.36187-12.83413,74.25253-12.83413,74.25253s9.77813,8.55653,14.6672,8.55653c9.77813,0,9.168-27.50133,2.44453-49.80853l4.88907-1.2216s7.02853,20.16773,7.02853,39.4176c0,27.80773-6.41706,47.0576-37.89093,43.39146-3.36106-10.69466-7.33226-35.44639-7.33226-59.89173,0-52.25172-2.13947-59.89039-13.4456-59.89039-9.47307,0-25.66693,25.972-33.9184,89.83626a53.81044,53.81044,0,0,0,10.3896,1.2216c12.83413,0,15.89013-3.9712,17.41813-10.99973l4.2776.91653c-.61147,18.33466-10.3896,41.55706-36.9744,38.80746-23.22239-2.44453-35.75013-.61146-36.97306-.3064C7372.88528,235.59221,7373.80182,223.67461,7377.16288,213.59141Z"/><path d="M7532.69514,157.67222c-3.66614-9.77813-8.25014-27.19493-8.25014-36.05653,0-21.38933,9.77814-31.77893,35.75147-31.77893,43.69653,0,54.39119,14.97227,51.94666,54.39119l-2.75093,44.30667c-1.528,23.5288,7.02853,25.97333,16.80666,26.58479,3.056-19.86133-1.22293-36.36292-5.19546-50.41866l5.50053-1.22293c4.584,14.9736,8.55653,29.02933,7.94506,47.0576-.91653,25.97333-12.83413,37.27946-25.66693,37.27946-17.11306,0-25.05679-17.11173-25.05679-47.36266v-2.13947c-9.77814,37.89093-22.0008,48.89066-35.14,48.89066-14.05707,0-28.41787-22.0008-28.41787-45.83466,0-14.05573,5.50054-21.69573,15.8888-27.50133a290.47329,290.47329,0,0,0,46.14107-29.63947c-3.056-14.36213-11.00107-25.05679-29.02933-25.05679-7.94374,0-16.50027,2.13946-19.55627,6.11066-.61147,8.8616.91653,18.0296,4.584,30.8624Zm29.94586,53.47466c12.83413,0,22.91733-19.86133,21.08427-57.44719v-.30507c-23.83387,15.8888-34.52987,22.61226-34.52987,33.9184C7549.1954,198.31275,7554.69594,211.14688,7562.641,211.14688Z"/><path d="M7684.56126,106.64342a84.77616,84.77616,0,0,0,34.22346-10.08453l2.44453,4.88907c-8.8616,6.72213-20.77919,11.30613-35.14,13.1392a154.49067,154.49067,0,0,1,2.7496,28.41786c0,21.08427-7.3336,47.364-22.30587,61.7248,4.58267,4.584,17.11173,11.91759,33.30693,11.91759,15.8888,0,19.86133-20.16773,10.38827-53.77972l5.50053-1.22294c16.1952,55.9192,1.22293,87.39306-25.66693,87.39306-17.41813,0-37.89093-13.4456-34.83493-44.61306,5.8056-56.53066,3.97253-65.39226,1.528-88.92106-8.55653-.61013-15.89013-.30507-23.83387,3.97253l-3.056-6.41706c24.75039-12.52773,35.44506-24.44533,46.13972-51.94533l6.112,1.2216C7679.67219,80.67009,7682.11672,93.50289,7684.56126,106.64342Z"/><path d="M7810.44605,322.3738c-20.77786,0-38.80613-9.168-38.80613-23.22373,0-14.97226,16.50027-45.83466,16.50027-45.83466l4.2776,2.44453s-3.05467,9.77814-3.05467,16.80534c0,12.22266,7.33227,18.33466,25.05547,18.33466,17.41813,0,34.52986-4.88907,34.52986-15.27866,0-9.77814-21.39067-22.0008-38.80746-40.64053-16.1952-17.11174-34.22347-45.2232-34.22347-72.41946,0-18.02827,6.41707-30.25093,13.4456-39.724a41.64487,41.64487,0,0,0-13.14053-1.83307c-14.6672,0-16.50027,9.16667-10.0832,23.22373l-4.88907,2.13814c-7.63866-13.1392-13.44559-23.2224-13.44559-36.05653,0-12.52773,7.94506-18.63973,19.25119-18.63973,12.83414,0,17.41813,3.66746,28.72293,3.66746a16.45223,16.45223,0,0,0,11.30614-4.584l5.19546,3.056c-14.36213,35.44507-7.64,92.89226,16.80533,122.53173h1.528c6.41707-7.94374,11.00107-14.6672,15.27867-26.2784,9.47173-25.97333,1.528-57.4472-16.50027-82.80906,10.69467-9.77813,24.13894-15.58373,37.8896-18.9448,11.00107,38.50106.61147,72.72453-16.1952,107.25439-5.19413,10.69467-10.0832,21.6944-16.1952,32.69546,13.14054,16.80667,21.39067,32.3904,21.39067,47.97413C7856.28205,306.78874,7835.80792,322.3738,7810.44605,322.3738Z"/><path d="M7947.03084,90.14183c30.25093,0,48.2792,26.58479,48.2792,66.91892,0,23.22373-9.16667,48.892-25.97333,55.00267,3.056,18.63973-10.0832,36.36292-34.22346,36.36292-28.41787,0-47.66773-26.58479-47.66773-66.91892,0-22.3072,8.5552-48.892,25.36186-55.00266C7909.75138,107.865,7922.89058,90.14183,7947.03084,90.14183Zm19.86134,86.17012c0-43.08506-8.8616-58.97386-45.5296-54.39119-3.056,12.83413-5.19413,24.75173-5.19413,40.64053,0,42.78,8.8616,59.58532,45.22319,54.39119C7964.14258,204.72982,7966.89218,192.20208,7966.89218,176.312Z"/><path d="M8022.19457,195.56315c0-26.27973,9.77814-56.83573,14.9736-73.94746a73.96554,73.96554,0,0,0-11.30613-.61147c-14.6672,0-15.58373,9.16667-7.02853,23.22373l-4.88907,2.7496c-9.77813-13.13919-16.50026-23.83386-16.50026-36.668,0-12.52773,7.94506-18.63973,19.25119-18.63973,12.83414,0,17.4168,3.66746,28.72294,3.66746a16.45222,16.45222,0,0,0,11.30613-4.584l5.19413,3.056c-22.0008,55.6128-17.72186,119.17066,4.88907,119.17066,10.69466,0,25.05679-16.50027,24.44533-60.50186-.30507-15.27867-6.72213-31.77893-16.1952-45.22453,10.3896-9.77813,23.8352-15.58373,37.89093-18.9448,8.5552,38.50106,4.584,68.752-1.528,117.644,0,0,7.63867,6.72213,12.52773,6.72213,9.77813,0,9.168-25.97333,2.44454-48.28053l4.88906-1.2216s7.02853,20.16773,7.02853,39.4176c0,27.80773-8.8616,47.0576-40.33413,43.39146,1.2216-28.72426,1.52667-50.72373-.61146-69.66986l-2.13947-.30507c-5.8056,50.41867-18.33333,73.03093-39.11253,73.03093C8037.47324,249.03781,8022.19457,229.17515,8022.19457,195.56315Z"/><path d="M8235.47643,216.341c12.52773,0,21.08426-5.8056,23.52879-14.6672-5.19413-9.16667-31.47386-9.16667-50.72373-15.27734a38.407,38.407,0,0,1-26.88986-36.36293c0-16.50026,9.16667-27.80639,20.77787-31.47386-1.22161-14.05573,11.91759-29.028,32.39039-29.028,14.36213,0,26.58347,4.58267,32.3904,10.69467-9.47307,12.22266-12.83413,24.7504-8.8616,48.27919l-4.88907,1.2216c-6.112-22.91733-18.02826-31.47253-30.25093-31.47253a29.19852,29.19852,0,0,0-21.39066,9.47174c0,12.52906,11.61253,22.91866,27.50133,30.55733,22.61226,10.99973,36.05653,22.00079,36.05653,41.55706,0,28.1128-18.02827,48.2792-43.08506,48.2792-18.9448,0-33.3056-7.0272-46.13973-14.3608,2.7496-11.61254,6.72213-22.91734,1.528-41.55707l4.88906-1.528C8192.69643,209.92528,8217.44816,216.341,8235.47643,216.341Z"/><path d="M8292.00309,157.67222c-3.66613-9.77813-8.25013-27.19493-8.25013-36.05653,0-21.38933,9.77813-31.77893,35.75146-31.77893,43.69653,0,54.39119,14.97227,51.94666,54.39119l-2.75093,44.30667c-1.528,23.5288,7.02853,25.97333,16.80666,26.58479,3.056-19.86133-1.22293-36.36292-5.19546-50.41866l5.50053-1.22293c4.584,14.9736,8.55653,29.02933,7.94507,47.0576-.91654,25.97333-12.83414,37.27946-25.66693,37.27946-17.11307,0-25.0568-17.11173-25.0568-47.36266v-2.13947c-9.77813,37.89093-22.0008,48.89066-35.14,48.89066-14.05706,0-28.41786-22.0008-28.41786-45.83466,0-14.05573,5.50053-21.69573,15.8888-27.50133a290.47379,290.47379,0,0,0,46.14106-29.63947c-3.056-14.36213-11.00107-25.05679-29.02933-25.05679-7.94374,0-16.50027,2.13946-19.55627,6.11066-.61146,8.8616.91654,18.0296,4.584,30.8624Zm29.94586,53.47466c12.83413,0,22.91733-19.86133,21.08427-57.44719v-.30507c-23.83387,15.8888-34.52987,22.61226-34.52987,33.9184C8308.50335,198.31275,8314.00389,211.14688,8321.949,211.14688Z"/><path d="M8404.75668,213.59141a101.527,101.527,0,0,1,32.084,1.528c-2.7496-9.77813-10.99974-25.36186-10.99974-42.78,0-22.0008,8.25014-31.47253,14.6672-49.50213a62.46991,62.46991,0,0,0-14.9736-2.13813c-14.66719,0-18.33333,10.0832-11.30613,30.25093l-5.4992,1.528c-7.3336-16.1952-11.6112-29.02933-11.6112-41.86346,0-12.52774,7.94374-18.6384,19.24987-18.6384,8.25013,0,18.9448,3.36106,28.1128,3.36106a17.63654,17.63654,0,0,0,11.91626-4.27893l4.27893,3.66747c-16.50159,28.41786-6.41706,50.11226-6.41706,72.72452,0,23.5288-6.72347,36.668-8.25013,49.19706a50.20875,50.20875,0,0,0,7.0272.61014c12.83413,0,15.89013-3.9712,17.41813-10.99973l4.2776.91653c-.61147,18.33466-10.3896,41.55706-36.9744,38.80746-23.2224-2.44453-35.75013-.61146-36.97306-.3064C8400.47908,235.59221,8401.39561,223.67461,8404.75668,213.59141Zm14.3608-166.83971c0-10.0832,4.88907-22.30587,20.47413-22.30587,12.22266,0,17.4168,8.8616,17.4168,21.6944,0,12.52907-3.97253,24.44533-19.55627,24.44533C8425.84094,70.58556,8419.11748,62.33543,8419.11748,46.7517Z"/><path d="M8574.03693,43.6957c-14.66719,0-15.58373,9.168-7.02853,23.22373l-4.88906,2.7496c-9.77814-13.1392-16.50027-23.83387-16.50027-36.668,0-12.52773,7.94507-18.63973,19.2512-18.63973,14.05573.61147,17.4168,3.66747,28.72293,3.66747a17.39353,17.39353,0,0,0,11.30613-4.584l5.19413,3.056C8586.2596,48.89116,8596.3428,102.976,8596.3428,144.533c0,25.36187-8.8616,61.11333-8.8616,61.11333s9.77813,8.55653,14.6672,8.55653c9.77813,0,9.168-27.50133,2.44453-49.80853l4.88907-1.2216s7.02853,20.16773,7.02853,39.4176c0,27.80773-9.47307,47.0576-40.9456,43.39146-.3064-25.0568-4.584-46.75253-7.02853-75.78052-2.7496,54.69626-18.63973,78.83652-44.61306,78.83652-30.8624,0-42.1672-43.39146-16.80533-89.53252-9.77814-11.3048-12.83414-24.7504-12.83414-36.97307,0-20.77786,10.69467-33.00053,32.084-33.00053,14.36213,0,29.94587,6.41574,43.08506,16.80534,5.50054-36.668,19.2512-60.50187,19.86267-60.50187A64.613,64.613,0,0,0,8574.03693,43.6957ZM8536.146,211.452c16.80667,0,28.41787-29.028,31.1688-67.83546v-7.94507c0-6.72213.30507-13.44426.91653-19.55626-24.14026-.30507-44.91813,9.16666-54.39119,27.50133C8513.84014,183.03408,8520.25721,211.452,8536.146,211.452Z"/></svg>