<?xml version="1.0" encoding="utf-8"?>
<!-- Generator: Adobe Illustrator 24.0.1, SVG Export Plug-In . SVG Version: 6.00 Build 0)  -->
<svg version="1.1" id="Layer_1" xmlns="http://www.w3.org/2000/svg" xmlns:xlink="http://www.w3.org/1999/xlink" x="0px" y="0px"
	 viewBox="0 0 11515.2 342.3" style="enable-background:new 0 0 11515.2 342.3;" xml:space="preserve">
<g>
	<path d="M44.4,253.1V65.5H99v141.4h57.4v46.2H44.4z"/>
	<path d="M318.8,219.5l5.6,33.6h-53.2l-4.2-30.8h-2.8l-14,30.8h-78.4V132.7l53.2-30.8l93.8,11.2V219.5z M225,213.9h40.6v-67.2
		L225,142V213.9z"/>
	<path d="M433.6,107.5v39.2h-25.2v106.4h-53.2V146.7h-16.8v-39.2h16.8V85.1l53.2-14v36.4L433.6,107.5L433.6,107.5z"/>
	<path d="M475.6,96.3l-35-35l35-35l35,35L475.6,96.3z M449,253.1V107.5h53.2v145.6H449z"/>
	<path d="M601.6,103.3l77,9.8v140h-53.2v-105l-39.2-5v110H533V107.5h51.8v26.6h2.8L601.6,103.3z"/>
	<path d="M874.6,221.5l16.8,20.4L869,258.7l-21-25.2h-1.4l-14,19.6h-74.2v-68l11.2-2.2v-55.7l36.4-22.4l68.6,11.2V221.5z
		 M786.4,227.9h60.2v-38.4l-60.2,12.3V227.9z M846.6,136.7l-50.4-7v47.9l50.4-10.4V136.7z"/>
	<path d="M953,106.1l72.8,8.4v138.6h-28v-117l-58.8-7v124h-28V110.3h26.6v12.6h1.4L953,106.1z"/>
	<path d="M1175.6,221.5l16.8,20.4l-22.4,16.8l-21-25.2h-1.4l-14,19.6h-74.2V129.9l36.4-25.2l51.8,7.3V48.7l28-5.6V221.5z
		 M1087.4,227.9h60.2v-90.7l-60.2-8.4V227.9z"/>
	<path d="M1340.8,253.1c-56.8,0-95.2-37.8-95.2-93.8c0-56,39.2-93.8,95.2-93.8h39.2v49h-29.4c-24.6,0-49,11.8-49,44.8
		c0,31.1,23,44.8,50.1,44.8h28.3v49H1340.8z"/>
	<path d="M1494.8,107.5h53.2v165.2l-47.6,33.6h-95.2v-39.2h89.6v-44.8h-2.8l-14,30.8h-64.4l-16.8-145.6h51.8l12.3,106.4h33.9V107.5z
		"/>
	<path d="M1668.4,146.7l-36.4,4.8v101.6h-53.2v-140l86.8-11.2L1668.4,146.7z"/>
	<path d="M1709,96.3l-35-35l35-35l35,35L1709,96.3z M1682.4,253.1V107.5h53.2v145.6H1682.4z"/>
	<path d="M1766.4,253.1V51.5l53.2-8.4v210H1766.4z"/>
	<path d="M1850.4,253.1V51.5l53.2-8.4v210H1850.4z"/>
	<path d="M1961,96.3l-35-35l35-35l35,35L1961,96.3z M1934.4,253.1V107.5h53.2v145.6H1934.4z"/>
	<path d="M2068.8,213.9h50.4l-8.4,39.2h-95.2v-112l42-33.6h58.8v39.2h-47.6V213.9z"/>
	<path d="M2306.8,221.5l16.8,20.4l-22.4,16.8l-21-25.2h-1.4l-14,19.6h-74.2v-68l11.2-2.2v-55.7l36.4-22.4l68.6,11.2V221.5z
		 M2218.6,227.9h60.2v-38.4l-60.2,12.3V227.9z M2278.8,136.7l-50.4-7v47.9l50.4-10.4V136.7z"/>
	<path d="M2407.6,129.9l-36.4,5.9v117.3h-28V114.5l61.6-9.8L2407.6,129.9z"/>
	<path d="M2451,227.9h84l-8.4,25.2H2423V129.9l36.4-25.2l74.2,10.9v70.3l-82.6,16.8V227.9z M2505.6,136.4l-54.6-7.8v51.8l54.6-11.2
		V136.4z"/>
	<path d="M2658.2,106.1l72.8,8.4v113.4l-30.8,25.2h-85.4V48.7l28-5.6v79.8h1.4L2658.2,106.1z M2642.8,227.9h60.2v-91.8l-60.2-6.7
		V227.9z"/>
	<path d="M2780,93.5l-22.4-22.4l22.4-22.4l22.4,22.4L2780,93.5z M2766,253.1V110.3h28v142.8H2766z"/>
	<path d="M2857,227.9h64.4l-8.4,25.2h-84V138.3l28-28h61.6v25.2H2857V227.9z"/>
	<path d="M3054.4,221.5l16.8,20.4l-22.4,16.8l-21-25.2h-1.4l-14,19.6h-72.8V129.9l36.4-25.2l78.4,11.2V221.5z M2967.6,227.9h58.8
		v-90.7l-58.8-8.4V227.9z"/>
	<path d="M3218.2,106.1l68.6,8.4v138.6h-28V135.8l-56-6.7v124h-28V135.8l-56-6.7v124h-28V110.3h26.6v12.6h1.4l14-16.8l70,8.4v8.4
		h1.4L3218.2,106.1z"/>
	<path d="M3348.4,227.9h84l-8.4,25.2h-103.6V129.9l36.4-25.2l74.2,10.9v70.3l-82.6,16.8V227.9z M3403,136.4l-54.6-7.8v51.8
		l54.6-11.2V136.4z"/>
	<path d="M3529,129.9l-36.4,5.9v117.3h-28V114.5l61.6-9.8L3529,129.9z"/>
	<path d="M3659.2,221.5l16.8,20.4l-22.4,16.8l-21-25.2h-1.4l-14,19.6h-72.8V129.9l36.4-25.2l78.4,11.2V221.5z M3572.4,227.9h58.8
		v-90.7l-58.8-8.4V227.9z"/>
	<path d="M3695.6,253.1V48.7l28-5.6v210H3695.6z"/>
	<path d="M3771.2,260.1l-25.2-25.2l25.2-25.2l25.2,25.2L3771.2,260.1z"/>
</g>
<g>
	<path d="M3889.2,253.1V65.5h54.6v141.4h57.4v46.2H3889.2z"/>
	<path d="M4163.6,219.5l5.6,33.6H4116l-4.2-30.8h-2.8l-14,30.8h-78.4V132.7l53.2-30.8l93.8,11.2V219.5z M4069.8,213.9h40.6v-67.2
		l-40.6-4.8V213.9z"/>
	<path d="M4278.4,107.5v39.2h-25.2v106.4H4200V146.7h-16.8v-39.2h16.8V85.1l53.2-14v36.4L4278.4,107.5L4278.4,107.5z"/>
	<path d="M4320.4,96.3l-35-35l35-35l35,35L4320.4,96.3z M4293.8,253.1V107.5h53.2v145.6H4293.8z"/>
	<path d="M4446.4,103.3l77,9.8v140h-53.2v-105l-39.2-5v110h-53.2V107.5h51.8v26.6h2.8L4446.4,103.3z"/>
	<path d="M4719.4,221.5l16.8,20.4l-22.4,16.8l-21-25.2h-1.4l-14,19.6h-74.2v-68l11.2-2.2v-55.7l36.4-22.4l68.6,11.2V221.5z
		 M4631.2,227.9h60.2v-38.4l-60.2,12.3V227.9z M4691.4,136.7l-50.4-7v47.9l50.4-10.4V136.7z"/>
	<path d="M4797.8,106.1l72.8,8.4v138.6h-28v-117l-58.8-7v124h-28V110.3h26.6v12.6h1.4L4797.8,106.1z"/>
	<path d="M5020.4,221.5l16.8,20.4l-22.4,16.8l-21-25.2h-1.4l-14,19.6h-74.2V129.9l36.4-25.2l51.8,7.3V48.7l28-5.6V221.5z
		 M4932.2,227.9h60.2v-90.7l-60.2-8.4V227.9z"/>
	<path d="M5185.6,253.1c-56.8,0-95.2-37.8-95.2-93.8c0-56,39.2-93.8,95.2-93.8h39.2v49h-29.4c-24.6,0-49,11.8-49,44.8
		c0,31.1,23,44.8,50.1,44.8h28.3v49H5185.6z"/>
	<path d="M5339.6,107.5h53.2v165.2l-47.6,33.6H5250v-39.2h89.6v-44.8h-2.8l-14,30.8h-64.4l-16.8-145.6h51.8l12.3,106.4h33.9V107.5z"
		/>
	<path d="M5513.2,146.7l-36.4,4.8v101.6h-53.2v-140l86.8-11.2L5513.2,146.7z"/>
	<path d="M5553.8,96.3l-35-35l35-35l35,35L5553.8,96.3z M5527.2,253.1V107.5h53.2v145.6H5527.2z"/>
	<path d="M5611.2,253.1V51.5l53.2-8.4v210H5611.2z"/>
	<path d="M5695.2,253.1V51.5l53.2-8.4v210H5695.2z"/>
	<path d="M5805.8,96.3l-35-35l35-35l35,35L5805.8,96.3z M5779.2,253.1V107.5h53.2v145.6H5779.2z"/>
	<path d="M5913.6,213.9h50.4l-8.4,39.2h-95.2v-112l42-33.6h58.8v39.2h-47.6V213.9z"/>
	<path d="M6151.6,221.5l16.8,20.4l-22.4,16.8l-21-25.2h-1.4l-14,19.6h-74.2v-68l11.2-2.2v-55.7l36.4-22.4l68.6,11.2V221.5z
		 M6063.4,227.9h60.2v-38.4l-60.2,12.3V227.9z M6123.6,136.7l-50.4-7v47.9l50.4-10.4V136.7z"/>
	<path d="M6252.4,129.9l-36.4,5.9v117.3h-28V114.5l61.6-9.8L6252.4,129.9z"/>
	<path d="M6295.8,227.9h84l-8.4,25.2h-103.6V129.9l36.4-25.2l74.2,10.9v70.3l-82.6,16.8V227.9z M6350.4,136.4l-54.6-7.8v51.8
		l54.6-11.2V136.4z"/>
	<path d="M6503,106.1l72.8,8.4v113.4l-30.8,25.2h-85.4V48.7l28-5.6v79.8h1.4L6503,106.1z M6487.6,227.9h60.2v-91.8l-60.2-6.7V227.9z
		"/>
	<path d="M6624.8,93.5l-22.4-22.4l22.4-22.4l22.4,22.4L6624.8,93.5z M6610.8,253.1V110.3h28v142.8H6610.8z"/>
	<path d="M6701.8,227.9h64.4l-8.4,25.2h-84V138.3l28-28h61.6v25.2h-61.6V227.9z"/>
	<path d="M6899.2,221.5l16.8,20.4l-22.4,16.8l-21-25.2h-1.4l-14,19.6h-72.8V129.9l36.4-25.2l78.4,11.2V221.5z M6812.4,227.9h58.8
		v-90.7l-58.8-8.4V227.9z"/>
	<path d="M7063,106.1l68.6,8.4v138.6h-28V135.8l-56-6.7v124h-28V135.8l-56-6.7v124h-28V110.3h26.6v12.6h1.4l14-16.8l70,8.4v8.4h1.4
		L7063,106.1z"/>
	<path d="M7193.2,227.9h84l-8.4,25.2h-103.6V129.9l36.4-25.2l74.2,10.9v70.3l-82.6,16.8V227.9z M7247.8,136.4l-54.6-7.8v51.8
		l54.6-11.2V136.4z"/>
	<path d="M7373.8,129.9l-36.4,5.9v117.3h-28V114.5l61.6-9.8L7373.8,129.9z"/>
	<path d="M7504,221.5l16.8,20.4l-22.4,16.8l-21-25.2h-1.4l-14,19.6h-72.8V129.9l36.4-25.2l78.4,11.2V221.5z M7417.2,227.9h58.8
		v-90.7l-58.8-8.4V227.9z"/>
	<path d="M7540.4,253.1V48.7l28-5.6v210H7540.4z"/>
	<path d="M7616,260.1l-25.2-25.2l25.2-25.2l25.2,25.2L7616,260.1z"/>
</g>
<g>
	<path d="M7730.2,253.1V65.5h54.6v141.4h57.4v46.2H7730.2z"/>
	<path d="M8004.6,219.5l5.6,33.6H7957l-4.2-30.8h-2.8l-14,30.8h-78.4V132.7l53.2-30.8l93.8,11.2V219.5z M7910.8,213.9h40.6v-67.2
		l-40.6-4.8V213.9z"/>
	<path d="M8119.4,107.5v39.2h-25.2v106.4H8041V146.7h-16.8v-39.2h16.8V85.1l53.2-14v36.4L8119.4,107.5L8119.4,107.5z"/>
	<path d="M8161.4,96.3l-35-35l35-35l35,35L8161.4,96.3z M8134.8,253.1V107.5h53.2v145.6H8134.8z"/>
	<path d="M8287.4,103.3l77,9.8v140h-53.2v-105l-39.2-5v110h-53.2V107.5h51.8v26.6h2.8L8287.4,103.3z"/>
	<path d="M8560.4,221.5l16.8,20.4l-22.4,16.8l-21-25.2h-1.4l-14,19.6h-74.2v-68l11.2-2.2v-55.7l36.4-22.4l68.6,11.2V221.5z
		 M8472.2,227.9h60.2v-38.4l-60.2,12.3V227.9z M8532.4,136.7l-50.4-7v47.9l50.4-10.4V136.7z"/>
	<path d="M8638.8,106.1l72.8,8.4v138.6h-28v-117l-58.8-7v124h-28V110.3h26.6v12.6h1.4L8638.8,106.1z"/>
	<path d="M8861.4,221.5l16.8,20.4l-22.4,16.8l-21-25.2h-1.4l-14,19.6h-74.2V129.9l36.4-25.2l51.8,7.3V48.7l28-5.6V221.5z
		 M8773.2,227.9h60.2v-90.7l-60.2-8.4V227.9z"/>
	<path d="M9026.6,253.1c-56.8,0-95.2-37.8-95.2-93.8c0-56,39.2-93.8,95.2-93.8h39.2v49h-29.4c-24.6,0-49,11.8-49,44.8
		c0,31.1,23,44.8,50.1,44.8h28.3v49H9026.6z"/>
	<path d="M9180.6,107.5h53.2v165.2l-47.6,33.6H9091v-39.2h89.6v-44.8h-2.8l-14,30.8h-64.4l-16.8-145.6h51.8l12.3,106.4h33.9V107.5z"
		/>
	<path d="M9354.2,146.7l-36.4,4.8v101.6h-53.2v-140l86.8-11.2L9354.2,146.7z"/>
	<path d="M9394.8,96.3l-35-35l35-35l35,35L9394.8,96.3z M9368.2,253.1V107.5h53.2v145.6H9368.2z"/>
	<path d="M9452.2,253.1V51.5l53.2-8.4v210H9452.2z"/>
	<path d="M9536.2,253.1V51.5l53.2-8.4v210H9536.2z"/>
	<path d="M9646.8,96.3l-35-35l35-35l35,35L9646.8,96.3z M9620.2,253.1V107.5h53.2v145.6H9620.2z"/>
	<path d="M9754.6,213.9h50.4l-8.4,39.2h-95.2v-112l42-33.6h58.8v39.2h-47.6V213.9z"/>
	<path d="M9992.6,221.5l16.8,20.4l-22.4,16.8l-21-25.2h-1.4l-14,19.6h-74.2v-68l11.2-2.2v-55.7l36.4-22.4l68.6,11.2V221.5z
		 M9904.4,227.9h60.2v-38.4l-60.2,12.3V227.9z M9964.6,136.7l-50.4-7v47.9l50.4-10.4V136.7z"/>
	<path d="M10093.4,129.9l-36.4,5.9v117.3h-28V114.5l61.6-9.8L10093.4,129.9z"/>
	<path d="M10136.8,227.9h84l-8.4,25.2h-103.6V129.9l36.4-25.2l74.2,10.9v70.3l-82.6,16.8V227.9z M10191.4,136.4l-54.6-7.8v51.8
		l54.6-11.2V136.4z"/>
	<path d="M10344,106.1l72.8,8.4v113.4l-30.8,25.2h-85.4V48.7l28-5.6v79.8h1.4L10344,106.1z M10328.6,227.9h60.2v-91.8l-60.2-6.7
		V227.9z"/>
	<path d="M10465.8,93.5l-22.4-22.4l22.4-22.4l22.4,22.4L10465.8,93.5z M10451.8,253.1V110.3h28v142.8H10451.8z"/>
	<path d="M10542.8,227.9h64.4l-8.4,25.2h-84V138.3l28-28h61.6v25.2h-61.6V227.9z"/>
	<path d="M10740.2,221.5l16.8,20.4l-22.4,16.8l-21-25.2h-1.4l-14,19.6h-72.8V129.9l36.4-25.2l78.4,11.2V221.5z M10653.4,227.9h58.8
		v-90.7l-58.8-8.4V227.9z"/>
	<path d="M10904,106.1l68.6,8.4v138.6h-28V135.8l-56-6.7v124h-28V135.8l-56-6.7v124h-28V110.3h26.6v12.6h1.4l14-16.8l70,8.4v8.4h1.4
		L10904,106.1z"/>
	<path d="M11034.2,227.9h84l-8.4,25.2h-103.6V129.9l36.4-25.2l74.2,10.9v70.3l-82.6,16.8V227.9z M11088.8,136.4l-54.6-7.8v51.8
		l54.6-11.2V136.4z"/>
	<path d="M11214.8,129.9l-36.4,5.9v117.3h-28V114.5l61.6-9.8L11214.8,129.9z"/>
	<path d="M11345,221.5l16.8,20.4l-22.4,16.8l-21-25.2h-1.4l-14,19.6h-72.8V129.9l36.4-25.2l78.4,11.2V221.5z M11258.2,227.9h58.8
		v-90.7l-58.8-8.4V227.9z"/>
	<path d="M11381.4,253.1V48.7l28-5.6v210H11381.4z"/>
	<path d="M11457,260.1l-25.2-25.2l25.2-25.2l25.2,25.2L11457,260.1z"/>
</g>
</svg>
