<?xml version="1.0" encoding="utf-8"?>
<!-- Generator: Adobe Illustrator 16.0.0, SVG Export Plug-In . SVG Version: 6.00 Build 0)  -->
<!DOCTYPE svg PUBLIC "-//W3C//DTD SVG 1.1//EN" "http://www.w3.org/Graphics/SVG/1.1/DTD/svg11.dtd">
<svg version="1.1" id="Layer_1" xmlns="http://www.w3.org/2000/svg" xmlns:xlink="http://www.w3.org/1999/xlink" x="0px" y="0px"
	 width="1020.46973px" height="230.10205px" viewBox="0 0 1020.46973 230.10205" enable-background="new 0 0 1020.46973 230.10205"
	 xml:space="preserve">
<g>
	<path fill="#E9E9E9" d="M23.67139,171.10205V30.39746h49.35156c33.18115,0,55.65186,17.43066,55.65186,49.56152
		c0,31.92139-22.4707,48.93213-55.65186,48.93213H53.9126v42.21094H23.67139z M53.9126,102.8501h17.01025
		c17.01074,0,26.88086-8.19043,26.88086-22.89111c0-14.7002-8.81982-23.52051-26.88086-23.52051H53.9126V102.8501z"/>
	<path fill="#E9E9E9" d="M179.0708,58.9585l64.68164,8.40039v87.15234l-33.81104,20.79102l-64.68213-8.40039V79.53906
		L179.0708,58.9585z M174.66064,146.7417l39.69092,5.04004V87.51953l-39.69092-5.25049V146.7417z"/>
	<path fill="#E9E9E9" d="M294.56982,101.7998l51.66162,8.19043v40.11084l-27.51074,21.00098h-53.55176v-23.52051h51.66162v-17.43066
		l-51.66162-8.19043V79.53906l28.771-20.58057l50.19141,4.2002V86.6792l-49.56152-4.2002V101.7998z"/>
	<path fill="#E9E9E9" d="M424.13965,63.15869V86.6792H402.9292v84.42285h-29.40088V86.6792h-14.91064V63.15869h14.91064v-19.3208
		l29.40088-7.97998v27.30078H424.13965z"/>
	<path fill="#E9E9E9" d="M470.33838,58.9585l64.47217,8.40039v120.75391l-27.51074,22.89062h-66.57227v-23.52051h64.68213v-34.86133
		h-1.47021l-10.50049,18.48047h-56.07178V79.53906L470.33838,58.9585z M466.76855,147.58154h38.64111V87.30957l-38.64111-5.04053
		V147.58154z"/>
	<path fill="#E9E9E9" d="M593.1875,58.9585l64.68164,8.40039v87.15234l-33.81055,20.79102l-64.68262-8.40039V79.53906
		L593.1875,58.9585z M588.77734,146.7417l39.69141,5.04004V87.51953l-39.69141-5.25049V146.7417z"/>
	<path fill="#E9E9E9" d="M740.60742,63.15869V86.6792h-21.21094v84.42285h-29.40039V86.6792h-14.91016V63.15869h14.91016v-19.3208
		l29.40039-7.97998v27.30078H740.60742z"/>
	<path fill="#E9E9E9" d="M796.88672,60.0083l54.81152,6.72021v104.37354h-29.40137V87.09912l-37.38086-4.40967v88.4126h-29.40039
		V18.63721l29.40039-5.04004V77.229h1.4707L796.88672,60.0083z"/>
	<path fill="#E9E9E9" d="M893.48438,52.23828l-21.00195-21.00049l21.00195-21.00098l21,21.00098L893.48438,52.23828z
		 M878.7832,171.10205V63.15869h29.40137v107.94336H878.7832z"/>
	<path fill="#E9E9E9" d="M963.41309,147.58154h43.68164l-6.2998,23.52051H934.0127v-85.2627l25.83008-22.68066h45.15234V86.6792
		h-41.58203V147.58154z"/>
</g>
</svg>
