<?xml version="1.0" encoding="UTF-8"?><svg id="a" xmlns="http://www.w3.org/2000/svg" viewBox="0 0 10644.87109 335.70996"><path d="M103.83936,142.19092l-.88477,6.48975,1.47461,63.12988,16.52002,.88477,20.35498-2.06445,7.08008-24.48535,42.47949,2.65527-2.06494,32.74512,3.24512,36.87402-94.69434-1.47461-87.31982,1.47461-.29492-39.5293,59.29492-4.71973-49.85498-6.78516,4.72021-48.97021-2.36035-50.73975,44.25-8.55469-56.93457-4.12988-.29492-43.95508,55.45947,2.06494,65.48975-3.53955,4.71973,33.03955,9.14502-47.19971,42.7749-.29492-3.24512,35.69482,2.35986,35.69482-75.51953-4.42529-2.65479,17.7002,62.83447-3.83496-1.77002,61.6543-53.98486,4.13037-10.32471-39.52979Z" style="fill:#8a00ff;"/><path d="M191.15771,225.9707l5.60498-25.66504,28.0249-4.71973,27.43457-27.73047-28.0249,11.7998-16.22461-12.68457-18.58496-50.73975,32.15479-3.54004,41.00488-8.55518,7.07959,33.62988,14.75,18.87988-2.35986-50.44434,42.47949,.58984,34.81006,8.55469-4.12988,15.04492-22.125,32.74512-14.45508,27.72949,35.10498,47.49512-21.83008,16.51953-26.84473,1.17969-23.30469,4.42578-10.03027-20.35547,3.83496-40.41406-12.09473,22.41992-7.08008,35.39941-31.26953-1.77051-21.53516,.59082-12.38965-30.38477Z" style="fill:#8a00ff;"/><path d="M458.42676,223.90527l-33.33496,38.64453-64.89941-8.55469-1.4751-24.48438-11.20996-28.02539,7.08008-29.79492,46.02002-5.60498-24.78027-4.4248-33.33447-1.18018,11.50488-46.31445-3.54004-42.18506,43.65967-.58984,36.28467-6.19482,2.9502,31.56494-29.20508,1.76953-14.15967,4.72021,64.01465,2.65479-2.9502,52.50977-19.76465,.88525-3.24512,19.46973,2.35986,28.61523,11.80029,4.71973,12.97949,.88477,3.24512,10.91504Z" style="fill:#8a00ff;"/><path d="M503.85547,108.26611l22.125-5.60498,5.90039,59.88428h.58984l5.01465-56.34424,14.16016-3.24512,28.31934,1.77002-7.96484,66.37451,2.9502,32.15527-19.1748-.58984-17.40527,1.76953,2.06543,52.80469-77.87988,1.17969,5.01514-51.62402-3.83496-29.50049,45.7251-9.43994-49.85498-.29492,3.24512-61.65479,41.00439,2.36035Z" style="fill:#8a00ff;"/><path d="M615.06641,105.61084l35.40039,1.4751,1.47461,36.875,12.38965-35.3999,50.15039-4.42529,20.35449,30.68018-7.08008,35.69482,4.4248,29.5-49.55957,9.43945,26.25488,2.36035,25.37012-2.36035-.58984,48.37988-33.04004-1.47461-25.95996,2.06445-7.96484-56.93457-12.09473,57.81934-28.32031-1.76953-29.2041,4.4248-11.80078-15.92969-.88477-43.36426,15.33984-25.37061,44.25,4.12988,18.29004-6.78467-2.06543-10.3252-17.69922,4.42529-32.15527-2.36035-19.1748-4.12988,2.9502-15.33984-5.01562-37.16992,25.95996-4.12988Z" style="fill:#8a00ff;"/><path d="M745.45312,104.13574l34.51465,2.36035,35.98926-1.4751,5.31055,91.44971,9.43945-32.74512,2.06543-55.45947,36.875-7.96533,34.80957,6.78516,15.33984,35.69482-3.24512,53.98486-56.63965-3.24512,53.68945,17.99512-15.92969,22.41992-11.7998,24.48438-42.47949,.88477-27.43555-28.31934,2.06543,38.05469-47.2002,8.55469,56.0498,2.65527,1.77051,46.60938-61.06445,2.06543-23.01074-7.375,6.49023-59,.29492-96.46436,47.2002-10.32471-54.28027-1.18018,1.18066-50.44482Z" style="fill:#8a00ff;"/><path d="M1081.45703,209.74512l-.58984,37.16992-33.04004,4.12988-37.46484,11.50488,5.90039-62.53906-9.14551-48.97021-4.12988,.29492-4.71973,46.31494,1.17969,64.89941-38.34961-2.06445-33.04004-21.53516-3.54004-39.82422,11.7998-35.69531-8.55469-39.23486,66.375-21.53467,59.58984,2.65479,29.49902,19.1748,2.06543,35.10498-42.18457-3.83496,48.37988,19.1748-10.03027,34.80957Z" style="fill:#8a00ff;"/><path d="M1181.75684,37.46631l-9.73535,122.71924,4.4248,43.07031-58.11426,5.30957,60.76953,6.19531-1.17969,45.42969-42.77539,.58984-41.2998-7.66992,4.4248-38.64453,.88574-7.66992-2.65527-61.9502,5.30957-48.96973,48.08496-3.54004-52.50977-6.48975-.58984-48.37988h84.95996Z" style="fill:#8a00ff;"/><path d="M1217.74219,105.61084l35.40039,1.4751,1.47461,36.875,12.38965-35.3999,50.15039-4.42529,20.35449,30.68018-7.08008,35.69482,4.4248,29.5-49.55957,9.43945,26.25488,2.36035,25.37012-2.36035-.58984,48.37988-33.04004-1.47461-25.95996,2.06445-7.96484-56.93457-12.09473,57.81934-28.32031-1.76953-29.2041,4.4248-11.80078-15.92969-.88477-43.36426,15.33984-25.37061,44.25,4.12988,18.29004-6.78467-2.06543-10.3252-17.69922,4.42529-32.15527-2.36035-19.1748-4.12988,2.9502-15.33984-5.01562-37.16992,25.95996-4.12988Z" style="fill:#8a00ff;"/><path d="M1455.21289,223.90527l-33.33496,38.64453-64.89941-8.55469-1.47461-24.48438-11.20996-28.02539,7.08008-29.79492,46.01953-5.60498-24.78027-4.4248-33.33496-1.18018,11.50488-46.31445-3.54004-42.18506,43.66016-.58984,36.28516-6.19482,2.94922,31.56494-29.2041,1.76953-14.16016,4.72021,64.01465,2.65479-2.9502,52.50977-19.76465,.88525-3.24512,19.46973,2.36035,28.61523,11.7998,4.71973,12.97949,.88477,3.24512,10.91504Z" style="fill:#8a00ff;"/><path d="M1540.17285,53.10107l-2.36035,35.69482-26.84473,7.66992-33.04004,2.9502-20.64941-9.14502,3.83496-18.87988-.88574-25.36963h25.0752l29.20508-8.26025,25.66504,15.33984Zm.58984,46.31494l-4.4248,104.42969,3.54004,54.2793h-79.65039l5.01562-71.09473-3.24512-24.18945,54.57422-3.54004-58.40918-8.55518,.29492-38.34961,82.30469-12.97998Z" style="fill:#8a00ff;"/><path d="M1703.89355,209.74512l-.58984,37.16992-33.04004,4.12988-37.46484,11.50488,5.90039-62.53906-9.14551-48.97021-4.12988,.29492-4.71973,46.31494,1.17969,64.89941-38.34961-2.06445-33.04004-21.53516-3.54004-39.82422,11.7998-35.69531-8.55469-39.23486,66.375-21.53467,59.58984,2.65479,29.49902,19.1748,2.06543,35.10498-42.18457-3.83496,48.37988,19.1748-10.03027,34.80957Z" style="fill:#8a00ff;"/><path d="M1813.33789,207.09082l-5.60547-20.06055-5.60449-20.6499-3.83496,.59033-2.06543,.29492,2.65527,40.12012-.88477,50.73926h-45.42969l-30.67969,1.47461,5.01465-50.14941-4.71973-47.19971,40.11914-8.25977-42.18457-3.24512v-42.18457l37.75977,1.4751,38.94043-2.9502-1.77051,34.51465,26.25488-39.82471,30.97461,10.3252,37.46484,4.71973-12.97949,42.18506,7.96484,45.42969-38.64453,10.3252,39.5293,2.6543-2.36035,41.88965-29.49902-1.76953-42.77539,.58984,2.36035-51.03418Z" style="fill:#8a00ff;"/><path d="M1902.4248,249.57031l-6.49023-33.9248,7.96582-15.33984,23.89453-8.55469h20.64941l28.02539,7.08008-5.01562,15.33984-1.47461,20.35449-41.00488,5.90039,36.28516,10.91406-3.54004,11.7998-30.67969,14.45508-25.0752,23.89453-16.22461-8.25977,12.68457-43.65918Z" style="fill:#8a00ff;"/><path d="M2085.02246,180.24561l61.06445-5.8999c0-20.6499-1.47461-29.20508-3.54004-36.875-8.25977-2.35986-21.83008-4.4248-34.80957-5.31006l-8.25977,.59033-19.4707,30.38477-13.27441-1.4751-.58984-36.57959,42.77441-15.93018c12.98047-1.18018,43.36523-1.4751,56.93457,6.49023,11.20996,6.48975,14.16016,30.08936,14.16016,54.2793v67.8501l22.125,7.08008v13.27441h-50.14941l-4.42578-20.05957-44.54395,21.8291c-22.71484,0-30.08984-2.6543-37.16992-10.61914-6.78516-7.375-8.55566-20.65039-7.96484-33.04004,5.30957-16.51953,17.4043-27.13965,27.13965-35.98975Zm10.0293,49.56006c7.375,2.9502,17.11035,2.9502,28.61523,2.9502l22.41992-7.6709v-33.92383l-51.625,7.37402c-1.17969,8.26074-1.76953,21.53516,.58984,31.27051Z" style="fill:#8a00ff;"/><path d="M2315.41113,133.63574c-2.36035,13.86475,1.17969,23.00977,18.58496,29.5l26.25488,9.73486c26.84473,10.02979,32.74414,25.96045,33.33398,41.30029,.2959,12.97949-5.30957,26.5498-14.15918,34.80957l-23.30469,9.73438c-5.01562,.88477-11.50586,1.17969-18.29004,1.17969-18.29004,0-40.70996-2.35938-54.28027-5.01465l2.36035-49.85449h13.27441l14.45508,28.61523c9.73535,2.9502,21.24023,6.48926,34.51465,8.25977l13.27539-7.96484c2.9502-15.33984,1.76953-28.32031-18.87988-35.69531l-24.78027-8.84961c-19.1748-6.78516-32.74414-16.2251-33.33398-37.16992-.2959-10.3252,3.53906-20.35498,9.43945-28.90967l25.66504-15.34033c7.96484-1.17969,19.46973-1.47461,30.38477-1.47461,15.63477,0,28.91016,1.47461,40.41504,4.4248l-1.18066,48.08496-13.27441,.29492-15.92969-27.72998c-8.26074-2.35986-19.17578-5.8999-31.56543-6.78516l-12.97949,8.8501Z" style="fill:#8a00ff;"/><path d="M2492.7041,244.85059v13.27441h-77.87988v-13.27441l21.53516-5.01562V62.24609h-25.0752v-13.2749l46.61035-12.09473h13.27441V169.92041h22.71484l32.4502-41.00439-22.41992-5.01514v-13.2749h74.63477v13.2749l-20.35547,5.31006-39.82422,41.2998,43.36426,69.0293,23.60059,5.31055v13.27441l-55.16504,1.17969-6.19531-17.99414-32.74414-55.16504-20.06055,1.77051v51.91895l21.53516,5.01562Z" style="fill:#8a00ff;"/><path d="M2643.74121,226.26562c11.20996,9.14453,32.74512,9.43945,44.83984,7.66992l27.43457-16.81543,9.73535,9.14551-33.33496,32.1543c-6.49023,1.77051-16.51953,2.36035-25.37012,2.36035-16.51953,0-31.26953-1.47559-44.54395-8.84961-16.52051-9.14551-26.25488-33.33496-26.25488-59.29492,0-24.78027,6.78418-48.97021,24.18945-68.43994,13.86523-7.96484,28.91016-13.86475,45.13477-17.69971,26.84473,0,41.00488,4.4248,47.19922,11.7998,12.0957,14.45508,11.80078,39.23486,9.73535,58.99951l-30.08984,9.43994-61.94922-1.76953c.58984,20.05957,4.12988,33.9248,13.27441,41.2998Zm-3.83496-91.44971c-3.24512,5.60498-6.78516,19.76465-8.55469,31.85986h59.29492c.58984-9.14502-.29492-20.35498-4.42578-30.9751-7.375-2.94971-14.4541-4.71973-25.95898-4.71973-9.44043,0-15.34082,2.35986-20.35547,3.83496Z" style="fill:#8a00ff;"/><path d="M2780.03027,70.21094h17.7002v40.41504h43.66016v18.87988h-43.95508l-.88477,54.87012c-.29492,22.71484,1.47461,37.75977,5.30957,46.01953,2.9502,.58984,12.68555,2.06445,16.52051,2.65527l26.84473-3.83496,2.35938,13.27441-29.5,16.81445c-14.15918,1.47559-32.44922-.58984-42.18457-6.78418-10.91504-6.78516-13.27441-30.67969-12.97949-54.87012l.88477-68.14453h-22.125v-15.04492l23.00977-3.83496,15.33984-40.41504Z" style="fill:#8a00ff;"/><path d="M2886.81934,126.26074c12.97949-8.55469,30.08984-15.63477,46.01953-19.76465,25.07422-.29492,42.47949,2.06494,54.2793,7.07959l-3.54004,59.88477-13.27441,1.4751-15.33984-39.23486c-7.08008-2.06494-14.16016-3.24512-24.19043-3.24512-6.48926,0-15.63477,.88525-23.30469,3.24512-5.01465,9.73486-8.84961,27.72998-8.84961,41.59473,0,18.58545,4.12988,37.76025,13.86426,50.44482,14.45508,2.9502,28.61523,5.31055,41.00488,5.60547l29.20508-16.52051,10.03027,9.14551-30.97559,31.26953c-7.0791,2.35938-15.92969,3.54004-26.5498,3.54004-14.4541,0-32.1543-2.06543-44.24902-8.25977-16.22559-8.55566-27.13965-32.4502-27.13965-59.88477,0-21.53516,8.55469-49.56006,23.00977-66.375Z" style="fill:#8a00ff;"/><path d="M3082.10547,244.85059v13.27441h-77.87988v-13.27441l22.125-5.31055V62.24609h-23.89453v-13.2749l45.42969-12.09473h13.27441v92.62939l43.36523-21.53516c16.81445,0,33.33496,2.06543,42.18457,7.67041,10.91504,6.78467,12.68457,30.08936,12.68457,54.2793v69.61963l22.125,5.31055v13.27441h-77.87891v-13.27441l20.94434-5.01562v-57.22949c0-22.71484-1.47461-34.80957-5.30957-43.06982-9.73535-2.35986-21.83008-3.24512-33.33496-3.24512-6.19531,1.4751-17.40527,5.31006-24.78027,7.375v96.16943l20.94531,5.01562Z" style="fill:#8a00ff;"/><path d="M3277.09668,244.85059v13.27441h-77.87988v-13.27441l21.53516-5.01562v-105.31396h-25.0752v-13.2749l46.61035-12.09521h13.27441V239.83496l21.53516,5.01562Zm-64.30957-181.71924c0-6.19531,2.35938-11.20996,4.71973-14.45508,5.01465-3.83496,10.03027-7.08008,17.99512-9.14502,12.68457-.29492,23.00977,7.375,23.00977,19.76514,0,6.48975-2.65527,11.20996-5.01465,14.45459-4.7207,4.13037-10.03027,7.08008-17.99512,9.14502-12.38965,.29492-22.71484-7.08008-22.71484-19.76465Z" style="fill:#8a00ff;"/><path d="M3372.67285,244.85059v13.27441h-77.87988v-13.27441l22.125-5.31055v-105.01904h-23.89551v-13.2749l41.59473-12.09521h13.27539l3.83496,20.06006,43.36426-21.24023c16.81543,0,33.33496,2.06543,42.18555,7.67041,10.91504,6.78467,12.68457,30.08936,12.68457,54.2793v69.91455l21.53516,5.01562v13.27441h-77.87988v-13.27441l21.53516-5.01562v-57.22949c0-22.71484-1.47559-34.80957-5.31055-43.06982-9.73438-2.35986-21.8291-3.24512-33.33398-3.24512-6.19531,1.4751-17.40527,5.31006-24.78027,7.375v96.16943l20.94531,5.01562Z" style="fill:#8a00ff;"/><path d="M3505.42188,126.85059c10.3252-7.07959,31.56543-17.10986,42.77539-19.1748,11.50488,0,24.7793,.88525,35.69434,3.83496l37.46484-3.54004h13.27539v18.87988h-26.5498c5.60449,7.375,8.84961,16.52002,8.84961,26.84521,0,18.87988-4.4248,27.43457-15.33984,38.05518-10.3252,7.08008-31.56543,16.22461-42.77539,18.29004-7.0791,0-14.74902-.2959-22.12402-1.18066l-6.78516,24.48535,43.9541,3.24512c33.9248,2.35938,55.16504,9.43945,55.45996,42.18359,0,16.22559-6.78516,31.56543-19.46973,42.18555-15.92969,5.30957-37.16992,9.73438-56.34473,13.27441-37.16992,0-70.20996-9.14453-70.20996-34.21973,0-4.71973,.88574-12.97949,2.65527-17.40527l27.43457-25.07422c-11.20996-6.78516-17.10938-12.09473-15.33984-24.7793l23.00977-27.14062c-4.71973-1.17969-8.55469-2.94922-11.7998-5.01465-11.7998-8.25977-19.1748-19.47021-19.1748-37.46484,0-16.2251,4.4248-25.66504,15.33984-36.28516Zm10.91504,170.21387c11.7998,8.85059,33.9248,14.16016,51.91992,14.16016,9.14453,0,16.51953-1.17969,25.37012-3.54004,3.54004-7.66992,7.08008-26.5498,0-39.5293-9.44043-3.54004-23.30469-4.42578-36.58008-5.31055l-26.5498-2.06445-13.86523,23.30469-.29492,12.97949Zm12.39062-163.72363c-3.83496,9.14502-4.7207,13.56982-4.7207,23.59961,0,12.09521,3.54004,20.6499,6.78516,25.0752,6.49023,3.54004,17.40527,6.78516,28.02441,6.78516,6.19531,0,13.86523-1.47559,19.4707-4.12988,2.6543-9.14551,4.12988-14.45557,4.12988-24.48535,0-12.09473-2.9502-20.05957-6.19531-24.48486-6.49023-3.54004-17.40527-6.78467-28.02441-6.78467-6.19531,0-13.86523,1.76953-19.46973,4.4248Z" style="fill:#8a00ff;"/><path d="M3788.02539,244.85059v13.27441h-77.87988v-13.27441l22.125-5.31055v-105.01904h-23.89551v-13.2749l41.59473-12.09521h13.27539l3.83496,19.46973,41.59473-20.6499c16.81445,0,34.21973,2.06543,43.06934,7.67041,4.12988,2.65479,7.08008,7.96484,9.14551,14.74951l45.13477-22.41992c16.81445,0,34.21973,2.06543,43.06934,7.67041,10.91504,6.78467,12.68555,30.08936,12.68555,54.2793v69.61963l22.12402,5.31055v13.27441h-77.87891v-13.27441l20.94434-5.01562v-57.22949c0-22.71484-1.47461-34.80957-5.30957-43.06982-9.73535-2.35986-22.71484-3.24512-34.21973-3.24512-5.60547,1.4751-15.63477,4.72021-24.19043,7.375,.88574,7.96533,1.18066,17.10986,1.18066,26.25488v69.61963l22.125,5.31055v13.27441h-77.87988v-13.27441l20.94531-5.01562v-57.22949c0-22.71484-1.47559-34.80957-5.31055-43.06982-9.73438-2.35986-22.71484-3.24512-34.21973-3.24512-5.60449,1.18018-14.75,4.42529-23.00977,7.08008v96.46436l20.94531,5.01562Z" style="fill:#8a00ff;"/><path d="M4050.57324,226.26562c11.20996,9.14453,32.74512,9.43945,44.83984,7.66992l27.43457-16.81543,9.73535,9.14551-33.33496,32.1543c-6.49023,1.77051-16.51953,2.36035-25.37012,2.36035-16.51953,0-31.26953-1.47559-44.54395-8.84961-16.52051-9.14551-26.25488-33.33496-26.25488-59.29492,0-24.78027,6.78418-48.97021,24.18945-68.43994,13.86523-7.96484,28.91016-13.86475,45.13477-17.69971,26.84473,0,41.00488,4.4248,47.19922,11.7998,12.0957,14.45508,11.80078,39.23486,9.73535,58.99951l-30.08984,9.43994-61.94922-1.76953c.58984,20.05957,4.12988,33.9248,13.27441,41.2998Zm-3.83496-91.44971c-3.24512,5.60498-6.78516,19.76465-8.55469,31.85986h59.29492c.58984-9.14502-.29492-20.35498-4.42578-30.9751-7.375-2.94971-14.4541-4.71973-25.95898-4.71973-9.44043,0-15.34082,2.35986-20.35547,3.83496Z" style="fill:#8a00ff;"/><path d="M4186.86133,70.21094h17.7002v40.41504h43.66016v18.87988h-43.95508l-.88477,54.87012c-.29492,22.71484,1.47461,37.75977,5.30957,46.01953,2.9502,.58984,12.68555,2.06445,16.52051,2.65527l26.84473-3.83496,2.35938,13.27441-29.5,16.81445c-14.15918,1.47559-32.44922-.58984-42.18457-6.78418-10.91504-6.78516-13.27441-30.67969-12.97949-54.87012l.88477-68.14453h-22.125v-15.04492l23.00977-3.83496,15.33984-40.41504Z" style="fill:#8a00ff;"/><path d="M4339.96484,244.85059v13.27441h-77.87988v-13.27441l22.125-5.31055V62.24609h-23.89453v-13.2749l45.42969-12.09473h13.27441v92.62939l43.36523-21.53516c16.81445,0,33.33496,2.06543,42.18457,7.67041,10.91504,6.78467,12.68457,30.08936,12.68457,54.2793v69.61963l22.125,5.31055v13.27441h-77.87891v-13.27441l20.94434-5.01562v-57.22949c0-22.71484-1.47461-34.80957-5.30957-43.06982-9.73535-2.35986-21.83008-3.24512-33.33496-3.24512-6.19531,1.4751-17.40527,5.31006-24.78027,7.375v96.16943l20.94531,5.01562Z" style="fill:#8a00ff;"/><path d="M4484.80664,124.1958c15.92969-9.43994,25.66406-13.2749,42.47949-17.69971,23.89453-1.77002,43.9541,2.06494,54.57422,9.73486,17.11035,12.38965,24.19043,32.15479,25.37012,58.99951,.88477,29.5-8.55469,47.49512-25.66504,67.55469-15.92969,9.44043-25.95996,13.27441-42.77441,17.7002-23.89453,1.76953-43.95508-2.06543-54.5752-9.73535-17.10938-12.38965-24.18945-31.85938-25.36914-58.7041-.88574-29.50049,8.84961-47.79004,25.95996-67.8501Zm16.81445,15.93018c-5.01465,12.97949-7.375,28.02441-6.78516,43.95508,.58984,20.05957,4.71973,33.62988,13.86523,44.54395,8.84961,5.90039,17.99512,8.55566,29.5,8.55566,6.78418-.58984,10.0293-.88574,16.81445-2.9502l9.44043-7.375c5.01465-12.97949,7.375-27.72949,6.78418-43.66016-.58984-20.05957-4.71973-33.9248-13.86426-44.83936-8.85059-5.90039-17.99512-8.55518-29.5-8.55518-6.78516,.58984-10.03027,.88477-16.81543,2.9502l-9.43945,7.375Z" style="fill:#8a00ff;"/><path d="M4659.73828,125.37598c19.1748-9.43994,32.15527-15.93018,51.625-19.47021l31.56445,3.54004V62.24609h-28.02441v-13.2749l45.42969-12.09473h16.81445V238.9502l22.41992,5.90039v13.27441h-48.96973l-5.01465-20.05957-40.70996,23.30469c-20.64941,.29492-37.16992-2.9502-48.96973-11.50488-14.16016-10.62012-20.64941-30.67969-20.94434-55.16504-.59082-24.48486,6.19434-48.96973,24.7793-69.32422Zm22.125,101.77441c5.90039,3.83496,17.99512,6.78516,34.21973,6.78516l26.84473-11.20996v-84.07471c-15.04492-6.19531-37.16992-10.3252-54.86914-5.8999l-9.73535,8.84961c-5.60449,12.68506-8.25977,24.77979-7.66992,43.07031,.29492,18.87988,2.9502,32.44922,11.20996,42.47949Z" style="fill:#8a00ff;"/><path d="M4909.59668,63.72119v45.72461h41.59473v20.6499h-41.00488v44.83984c-.29492,10.91504-.58984,30.67969,3.54004,46.61035,5.30957,2.6543,12.38965,3.53906,17.99512,4.4248l17.99414-1.47559,4.4248,13.57031-40.41406,23.30469c-12.39062-.29492-33.04004-3.24512-42.77539-12.68457-10.0293-9.73535-11.50488-26.84473-11.50488-39.8252v-78.76465h-20.94434v-17.10986l22.125-3.54004,23.00977-45.72461h25.95996Z" style="fill:#8a00ff;"/><path d="M4964.46582,188.50586c0-29.5,13.57031-48.37988,24.78027-60.18018,12.68457-9.14502,25.66504-16.22461,44.25-22.12451,31.56445-3.24512,54.86914,0,70.20898,11.20947,17.99512,13.2749,23.89551,34.51514,23.89551,61.35986,0,29.5-13.57031,48.37988-24.78027,60.17969-12.68457,9.14551-25.66504,16.22461-44.25,22.125-31.56445,3.24512-54.86914,0-70.20898-11.20996-17.99512-13.27441-23.89551-34.51465-23.89551-61.35938Zm53.09961-9.14551c0,20.35547,2.65527,33.9248,9.44043,44.25,6.78516,3.54004,12.97949,5.60547,23.59961,5.60547,4.12988,0,9.14551-.88574,13.27539-2.06543l6.48926-5.01465c2.36035-8.85059,4.42578-18.29004,4.13086-34.21973,0-20.35547-2.65527-33.92529-9.44043-44.25049-6.78516-3.53955-13.57031-5.60498-24.18945-5.60498-4.12988,0-8.55566,.88525-12.68555,2.06543l-6.48926,5.01465c-2.36035,8.8501-4.42578,18.29004-4.13086,34.21973Z" style="fill:#8a00ff;"/><path d="M5272.44141,107.38086c26.84473-1.4751,51.03516,2.9502,61.9502,5.8999l-12.0957,61.35986h-14.75l-19.46973-32.15479c-5.01465-1.4751-8.55469-2.35986-14.75-2.35986-7.0791,0-13.27441,1.47461-17.99414,3.24463-3.83496,7.66992-5.90039,22.125-5.90039,34.51514,0,20.94531,6.49023,33.9248,12.38965,42.47949,13.86523,4.4248,23.89551,5.90039,39.8252,5.60547l25.66504-15.04492,10.91504,10.32422-29.79492,36.875c-6.78516,2.06543-18.29004,3.54004-28.91016,3.54004-19.1748,0-39.5293-2.36035-52.80469-9.73438-16.51953-9.14551-28.31934-33.33496-28.31934-59.29492,0-24.78027,6.19434-41.59521,19.1748-59,12.97949-9.14502,38.64453-22.41992,54.86914-26.25488Z" style="fill:#8a00ff;"/><path d="M5451.79785,258.125h-100.00488v-14.75l18.58496-5.60449v-100.59473h-21.53516v-14.75l53.39453-15.04492h14.75l4.12988,24.48486,28.32031-25.07471c11.50488-.29492,24.78027,.58984,33.04004,2.65479l-5.60547,47.19971-51.62402-8.55469-3.24512,.88477v87.31934l29.79492,7.08008v14.75Z" style="fill:#8a00ff;"/><path d="M5566.25391,262.5498c-53.09961,0-74.04395-24.7793-74.04395-71.68457,0-24.77979,6.19434-41.88965,19.1748-59.29443,12.97949-9.14502,38.64453-22.41992,54.86914-26.25488,26.84473-.88477,48.96973,4.12988,57.82031,14.75,13.27441,15.92969,13.56934,41.2998,11.50488,61.06445l-43.95508,10.62061-48.08496-.88574c2.06543,25.37012,10.91504,36.58008,36.28516,36.58008,7.08008,0,18.58496-1.17969,25.95996-3.24512l22.71484-13.27441,10.91504,10.32422-31.56543,34.80957c-9.14453,3.24512-28.02441,5.31055-41.59473,6.49023Zm-22.71484-92.33447h46.61035c.58984-9.14453,0-18.58447-4.13086-29.20459-3.83496-2.06494-12.97949-3.54004-19.1748-3.54004-7.08008,0-12.97949,1.4751-17.69922,3.24512-2.9502,6.19482-5.01562,18.58496-5.60547,29.49951Z" style="fill:#8a00ff;"/><path d="M5745.31445,171.98535c-.88477-12.09473-2.35938-21.82959-4.4248-27.72949-8.25977-2.36035-16.22461-4.12988-26.84473-4.72021l-13.86523,1.77002-20.35449,23.00977-14.75-1.47461v-35.10498l46.90527-20.35498c33.03906-.88477,54.57422,2.06494,66.37402,9.43994,10.91504,6.78516,17.7002,28.90967,17.7002,53.09961v68.43994l16.51953,5.01465v14.75h-62.24414l-3.54004-22.125h-.29492l-35.40039,25.0752c-22.71484,0-36.5791-2.65527-44.83984-11.7998-6.78418-7.375-9.73438-20.05957-7.96484-34.51465,7.08008-12.39062,20.35547-28.02539,35.40039-38.05518l51.62402-4.72021Zm-16.51953,53.09961l16.81445-2.6543v-32.15527l-36.87402,3.54004c-1.18066,8.25977-1.77051,17.40527,.58984,27.13965,7.375,2.9502,11.50488,3.54004,19.46973,4.12988Z" style="fill:#8a00ff;"/><path d="M5888.3877,63.72119v45.72461h41.59473v20.6499h-41.00488v44.83984c-.29492,10.91504-.58984,30.67969,3.54004,46.61035,5.30957,2.6543,12.38965,3.53906,17.99512,4.4248l17.99414-1.47559,4.4248,13.57031-40.41406,23.30469c-12.39062-.29492-33.04004-3.24512-42.77539-12.68457-10.0293-9.73535-11.50488-26.84473-11.50488-39.8252v-78.76465h-20.94434v-17.10986l22.125-3.54004,23.00977-45.72461h25.95996Z" style="fill:#8a00ff;"/><path d="M6017.89062,262.5498c-53.09961,0-74.04395-24.7793-74.04395-71.68457,0-24.77979,6.19434-41.88965,19.1748-59.29443,12.97949-9.14502,38.64453-22.41992,54.86914-26.25488,26.84473-.88477,48.96973,4.12988,57.82031,14.75,13.27441,15.92969,13.56934,41.2998,11.50488,61.06445l-43.95508,10.62061-48.08496-.88574c2.06543,25.37012,10.91504,36.58008,36.28516,36.58008,7.08008,0,18.58496-1.17969,25.95996-3.24512l22.71484-13.27441,10.91504,10.32422-31.56543,34.80957c-9.14453,3.24512-28.02441,5.31055-41.59473,6.49023Zm-22.71484-92.33447h46.61035c.58984-9.14453,0-18.58447-4.13086-29.20459-3.83496-2.06494-12.97949-3.54004-19.1748-3.54004-7.08008,0-12.97949,1.4751-17.69922,3.24512-2.9502,6.19482-5.01562,18.58496-5.60547,29.49951Z" style="fill:#8a00ff;"/><path d="M6207.86426,107.38086h14.74902v65.48975c0,22.71533,1.47559,37.46533,5.31055,45.7251,7.96484,2.35938,15.63477,3.54004,23.30469,3.83496,5.01465-.58984,12.09473-1.47559,18.87988-2.9502v-82.30469h-21.53516v-14.75l58.41016-15.04492h14.75V238.36035l17.10938,5.01465v14.75h-63.4248l-4.4248-21.83008-39.5293,24.78027c-16.81543,0-38.94043-3.24512-47.79004-8.84961-10.91504-6.78516-12.68457-30.08984-12.68457-54.28027v-60.76953h-21.53516v-14.75l58.41016-15.04492Z" style="fill:#8a00ff;"/><path d="M6441.49902,258.125h-87.90918v-14.75l18.58496-5.60449v-100.59473h-20.05957v-14.75l51.91895-15.04492h14.75l4.12988,24.18994,39.53027-24.77979c16.81445,0,40.12012,3.24512,48.96973,8.8501,10.91504,6.78467,12.68457,30.08936,12.68457,54.2793v67.55518l19.76465,5.89941v14.75h-87.90918v-14.75l16.52051-5.01465v-43.36426c0-22.71533-1.47559-37.46533-5.31055-45.72559-8.84961-2.65479-12.97949-3.54004-24.48438-3.83496-5.01562,.59033-12.0957,1.4751-18.87988,2.9502v89.67969l17.69922,5.30957v14.75Z" style="fill:#8a00ff;"/><path d="M6629.70508,262.5498c-53.09961,0-74.04395-24.7793-74.04395-71.68457,0-24.77979,6.19434-41.88965,19.1748-59.29443,12.97949-9.14502,38.64453-22.41992,54.86914-26.25488,26.84473-.88477,48.96973,4.12988,57.82031,14.75,13.27441,15.92969,13.56934,41.2998,11.50488,61.06445l-43.95508,10.62061-48.08496-.88574c2.06543,25.37012,10.91504,36.58008,36.28516,36.58008,7.08008,0,18.58496-1.17969,25.95996-3.24512l22.71484-13.27441,10.91504,10.32422-31.56543,34.80957c-9.14453,3.24512-28.02441,5.31055-41.59473,6.49023Zm-22.71484-92.33447h46.61035c.58984-9.14453,0-18.58447-4.13086-29.20459-3.83496-2.06494-12.97949-3.54004-19.1748-3.54004-7.08008,0-12.97949,1.4751-17.69922,3.24512-2.9502,6.19482-5.01562,18.58496-5.60547,29.49951Z" style="fill:#8a00ff;"/><path d="M6719.97168,240.42578l44.54492-54.28027-41.2998-56.0498-14.16016-4.71973v-14.75h85.84473v14.75l-13.57031,3.83496,22.41992,30.08984,13.86523-30.9751-7.66992-2.94971v-14.75h60.76953v14.75l-14.75,5.8999-38.93945,46.01953,45.42969,61.65479,13.56934,4.4248v14.75h-88.2041v-14.75l15.63477-4.4248-25.66504-34.80957-17.99512,36.58008,12.98047,2.6543v14.75h-63.4248v-14.75l10.62012-2.94922Z" style="fill:#8a00ff;"/><path d="M6897.55859,311.22461V137.17578h-19.76465v-14.75l51.91992-15.04492h14.75l2.94922,17.10986,36.28516-17.69971c4.71973-.88525,9.14453-1.4751,13.57031-1.4751,38.05469,0,57.22949,23.6001,57.22949,65.19482,0,38.64453-12.98047,55.45996-23.59961,67.84961-13.57031,10.03027-37.16992,17.10938-54.5752,23.30469-9.73438,.58984-18.87988,.29492-27.72949-.58984v49.26465l31.56445,2.06445v19.4707h-104.13379v-14.75l21.53418-5.90039Zm51.03516-167.26367v80.53418c6.78516,2.36035,15.33984,4.7207,22.71484,4.7207,8.84961,0,12.09473-.59082,17.4043-2.06543l6.49023-5.01465c4.4248-8.55566,6.19531-25.0752,6.19531-38.64551,0-12.09473-1.77051-28.02441-10.03027-39.23438-6.49023-2.36035-15.33984-3.54004-25.0752-3.83496l-17.69922,3.54004Z" style="fill:#8a00ff;"/><path d="M7147.41992,262.5498c-53.09961,0-74.04395-24.7793-74.04395-71.68457,0-24.77979,6.19434-41.88965,19.1748-59.29443,12.97949-9.14502,38.64453-22.41992,54.86914-26.25488,26.84473-.88477,48.96973,4.12988,57.82031,14.75,13.27441,15.92969,13.56934,41.2998,11.50488,61.06445l-43.95508,10.62061-48.08496-.88574c2.06543,25.37012,10.91504,36.58008,36.28516,36.58008,7.08008,0,18.58496-1.17969,25.95996-3.24512l22.71484-13.27441,10.91504,10.32422-31.56543,34.80957c-9.14453,3.24512-28.02441,5.31055-41.59473,6.49023Zm-22.71484-92.33447h46.61035c.58984-9.14453,0-18.58447-4.13086-29.20459-3.83496-2.06494-12.97949-3.54004-19.1748-3.54004-7.08008,0-12.97949,1.4751-17.69922,3.24512-2.9502,6.19482-5.01562,18.58496-5.60547,29.49951Z" style="fill:#8a00ff;"/><path d="M7310.8457,107.38086c26.84473-1.4751,51.03516,2.9502,61.9502,5.8999l-12.0957,61.35986h-14.75l-19.46973-32.15479c-5.01465-1.4751-8.55469-2.35986-14.75-2.35986-7.0791,0-13.27441,1.47461-17.99414,3.24463-3.83496,7.66992-5.90039,22.125-5.90039,34.51514,0,20.94531,6.49023,33.9248,12.38965,42.47949,13.86523,4.4248,23.89551,5.90039,39.8252,5.60547l25.66504-15.04492,10.91504,10.32422-29.79492,36.875c-6.78516,2.06543-18.29004,3.54004-28.91016,3.54004-19.1748,0-39.5293-2.36035-52.80469-9.73438-16.51953-9.14551-28.31934-33.33496-28.31934-59.29492,0-24.78027,6.19434-41.59521,19.1748-59,12.97949-9.14502,38.64453-22.41992,54.86914-26.25488Z" style="fill:#8a00ff;"/><path d="M7452.7373,63.72119v45.72461h41.59473v20.6499h-41.00488v44.83984c-.29492,10.91504-.58984,30.67969,3.54004,46.61035,5.30957,2.6543,12.38965,3.53906,17.99512,4.4248l17.99414-1.47559,4.4248,13.57031-40.41406,23.30469c-12.39062-.29492-33.04004-3.24512-42.77539-12.68457-10.0293-9.73535-11.50488-26.84473-11.50488-39.8252v-78.76465h-20.94434v-17.10986l22.125-3.54004,23.00977-45.72461h25.95996Z" style="fill:#8a00ff;"/><path d="M7582.24023,262.5498c-53.09961,0-74.04395-24.7793-74.04395-71.68457,0-24.77979,6.19434-41.88965,19.1748-59.29443,12.97949-9.14502,38.64453-22.41992,54.86914-26.25488,26.84473-.88477,48.96973,4.12988,57.82031,14.75,13.27441,15.92969,13.56934,41.2998,11.50488,61.06445l-43.95508,10.62061-48.08496-.88574c2.06543,25.37012,10.91504,36.58008,36.28516,36.58008,7.08008,0,18.58496-1.17969,25.95996-3.24512l22.71484-13.27441,10.91504,10.32422-31.56543,34.80957c-9.14453,3.24512-28.02441,5.31055-41.59473,6.49023Zm-22.71484-92.33447h46.61035c.58984-9.14453,0-18.58447-4.13086-29.20459-3.83496-2.06494-12.97949-3.54004-19.1748-3.54004-7.08008,0-12.97949,1.4751-17.69922,3.24512-2.9502,6.19482-5.01562,18.58496-5.60547,29.49951Z" style="fill:#8a00ff;"/><path d="M7813.2207,36.87646h14.75V238.65527l16.51953,4.71973v14.75h-62.83398l-3.24512-19.46973-31.86035,21.23926c-6.19434,1.47559-12.38965,2.06543-15.63477,2.06543-40.41406,0-59.58984-20.35449-59.58984-65.19434,0-38.64502,12.98047-53.98486,23.60059-66.375,13.56934-10.02979,37.16992-17.10986,54.57422-23.30469,10.91504-.58984,19.76465-.58984,27.43457,0v-40.41455h-24.18945v-14.75l60.47461-15.04492Zm-53.98438,189.979l17.69922-3.54004v-80.82959c-6.78418-1.4751-15.33984-2.9502-22.71484-2.9502-8.84961,0-11.7998,.59033-17.10938,2.06494l-6.49023,5.01514c-4.4248,8.55469-6.19434,25.07471-6.19434,38.64502,0,12.09473,1.76953,26.5498,10.0293,37.75977,6.49023,2.36035,15.04492,3.54004,24.78027,3.83496Z" style="fill:#8a00ff;"/><path d="M7975.17285,156.94043l20.94531,8.26025c30.97461,11.7998,43.06934,24.18994,42.77441,45.13525,.29492,12.97949-4.71973,22.12402-10.03027,30.97461-10.91504,7.66992-19.1748,14.15918-32.1543,18.87988-6.78516,.88477-22.41992,1.76953-33.9248,1.47461-17.7002-.58984-35.99023-1.77051-48.08496-4.71973l1.47461-49.85449,14.45508-1.47559,21.24023,25.66504c11.50488,5.31055,24.18945,9.14551,32.1543,10.3252l8.55566-5.01465c4.4248-13.57031-2.06543-22.41992-17.7002-28.32031l-20.35449-7.66992c-23.89551-8.84961-41.00488-22.125-41.00488-43.66016-.29492-11.50488,3.83496-20.05957,8.84961-27.72949,10.91504-8.55518,16.81445-12.09521,30.38477-18.58496,13.27539-2.35986,33.33496-4.12988,44.25-3.83496,15.63477,0,26.5498,1.17969,38.05469,3.24512l-2.06543,49.26465-14.45508,2.06494-24.18945-25.95996c-7.66992-1.77002-21.53516-5.31006-28.02441-6.19482l-7.96484,5.31006c-3.24512,9.43994,6.48926,18.28955,16.81445,22.41943Z" style="fill:#8a00ff;"/><path d="M8146.56543,258.125h-87.90918v-14.75l18.58496-5.60449V66.67139h-21.53516v-14.75l58.41016-15.04492h14.75v94.69434l38.64453-24.77979c16.81445,0,40.12012,3.24512,48.96973,8.8501,10.91504,6.78467,12.68457,30.08936,12.68457,54.2793v67.55518l19.76465,5.89941v14.75h-87.90918v-14.75l16.52051-5.01465v-43.36426c0-22.71533-1.47559-36.87549-5.31055-45.13525-8.84961-2.65527-12.97949-3.54004-24.48438-3.83496-5.01562,.58984-12.0957,1.47461-18.87988,2.94971v89.08984l17.69922,5.30957v14.75Z" style="fill:#8a00ff;"/><path d="M8350.40527,171.98535c-.88477-12.09473-2.35938-21.82959-4.4248-27.72949-8.25977-2.36035-16.22461-4.12988-26.84473-4.72021l-13.86523,1.77002-20.35449,23.00977-14.75-1.47461v-35.10498l46.9043-20.35498c33.04004-.88477,54.5752,2.06494,66.375,9.43994,10.91504,6.78516,17.7002,28.90967,17.7002,53.09961v68.43994l16.51953,5.01465v14.75h-62.24414l-3.54004-22.125h-.29492l-35.40039,25.0752c-22.71484,0-36.5791-2.65527-44.83984-11.7998-6.78418-7.375-9.73438-20.05957-7.96484-34.51465,7.08008-12.39062,20.35547-28.02539,35.40039-38.05518l51.62402-4.72021Zm-16.51953,53.09961l16.81445-2.6543v-32.15527l-36.87402,3.54004c-1.18066,8.25977-1.77051,17.40527,.58984,27.13965,7.375,2.9502,11.50488,3.54004,19.46973,4.12988Z" style="fill:#8a00ff;"/><path d="M8446.57324,311.22461V137.17578h-19.76465v-14.75l51.91992-15.04492h14.75l2.94922,17.10986,36.28516-17.69971c4.71973-.88525,9.14453-1.4751,13.57031-1.4751,38.05469,0,57.22949,23.6001,57.22949,65.19482,0,38.64453-12.98047,55.45996-23.59961,67.84961-13.57031,10.03027-37.16992,17.10938-54.5752,23.30469-9.73438,.58984-18.87988,.29492-27.72949-.58984v49.26465l31.56445,2.06445v19.4707h-104.13379v-14.75l21.53418-5.90039Zm51.03516-167.26367v80.53418c6.78516,2.36035,15.33984,4.7207,22.71484,4.7207,8.84961,0,12.09473-.59082,17.4043-2.06543l6.49023-5.01465c4.4248-8.55566,6.19531-25.0752,6.19531-38.64551,0-12.09473-1.77051-28.02441-10.03027-39.23438-6.49023-2.36035-15.33984-3.54004-25.0752-3.83496l-17.69922,3.54004Z" style="fill:#8a00ff;"/><path d="M8696.43555,262.5498c-53.10059,0-74.04492-24.7793-74.04492-71.68457,0-24.77979,6.19434-41.88965,19.1748-59.29443,12.97949-9.14502,38.64355-22.41992,54.87012-26.25488,26.84375-.88477,48.96875,4.12988,57.81836,14.75,13.27539,15.92969,13.57031,41.2998,11.50586,61.06445l-43.95508,10.62061-48.08398-.88574c2.06445,25.37012,10.91406,36.58008,36.2832,36.58008,7.08008,0,18.58594-1.17969,25.96094-3.24512l22.71484-13.27441,10.91406,10.32422-31.56445,34.80957c-9.14453,3.24512-28.02539,5.31055-41.59375,6.49023Zm-22.71484-92.33447h46.60938c.58984-9.14453,0-18.58447-4.13086-29.20459-3.83398-2.06494-12.98047-3.54004-19.17383-3.54004-7.08008,0-12.98047,1.4751-17.70117,3.24512-2.94922,6.19482-5.01367,18.58496-5.60352,29.49951Z" style="fill:#8a00ff;"/><path d="M8847.76367,156.94043l20.94531,8.26025c30.97461,11.7998,43.07031,24.18994,42.77539,45.13525,.29492,12.97949-4.7207,22.12402-10.0293,30.97461-10.91602,7.66992-19.17578,14.15918-32.15625,18.87988-6.78516,.88477-22.41992,1.76953-33.92383,1.47461-17.69922-.58984-35.99023-1.77051-48.08594-4.71973l1.47656-49.85449,14.45508-1.47559,21.23828,25.66504c11.50586,5.31055,24.19141,9.14551,32.15625,10.3252l8.55469-5.01465c4.42383-13.57031-2.06445-22.41992-17.70117-28.32031l-20.35352-7.66992c-23.89453-8.84961-41.00586-22.125-41.00586-43.66016-.29492-11.50488,3.83594-20.05957,8.84961-27.72949,10.91602-8.55518,16.81641-12.09521,30.38672-18.58496,13.27344-2.35986,33.33398-4.12988,44.24805-3.83496,15.63477,0,26.55078,1.17969,38.05469,3.24512l-2.06445,49.26465-14.45508,2.06494-24.18945-25.95996c-7.66992-1.77002-21.53516-5.31006-28.02539-6.19482l-7.96484,5.31006c-3.24414,9.43994,6.49023,18.28955,16.81445,22.41943Z" style="fill:#8a00ff;"/><path d="M8975.49414,219.48047c0-23.30469,5.60352-44.54492,15.92969-65.78467,11.79883-15.04492,28.91016-30.38477,49.85352-42.7749,9.44141-2.65479,15.92969-4.71973,27.14062-4.71973,13.57031,0,22.125,1.17969,33.03906,2.35986l7.66992-10.62012,12.0957,1.77002-25.07422,138.05957,22.41992,.29492,1.17969,7.96484-25.37109,14.45508c-11.50391-.29492-20.64844-1.77051-31.26953-4.12988l7.66992-42.18457h-2.94922c-21.83008,23.59961-33.92578,37.46484-52.21484,46.9043-26.25586,.29492-40.11914-10.91504-40.11914-41.59473Zm107.96875-84.95947c-11.80078-2.9502-26.55078-6.78516-41.5957-4.42529l-10.32422,6.49023c-12.68555,16.81494-22.41992,41.2998-22.41992,70.50488,0,8.84961,.88477,18.87988,3.24609,25.95996l8.55469,1.76953c16.22461-7.375,35.39844-22.41992,53.39453-47.19922l9.14453-53.1001Z" style="fill:#8a00ff;"/><path d="M9295.56641,246.03027l-25.36914,14.45508c-11.50586-.29492-22.71484-1.77051-33.33594-4.12988l10.91602-56.0498c5.01367-25.0752,8.55469-46.60986,10.0293-64.60498l-7.66992-3.54004c-16.22461,7.66992-34.21875,20.6499-55.75391,47.49463l-8.84961,47.79004-3.83594,30.67969h-32.74414l20.35352-112.68945-11.20898-29.20459,40.41406-8.55518,7.66992,3.54004-7.66992,39.82471h2.65625c22.125-23.59961,37.46484-36.87451,53.39453-45.13477,26.54883-.29492,41.00391,4.42529,35.39844,36.58008-5.01367,28.31982-15.04492,77.58447-18.58398,95.57959h23.00977l1.17969,7.96484Z" style="fill:#8a00ff;"/><path d="M9356.92773,261.37012c-23.59961,0-37.16992-14.75-37.16992-41.88965,0-23.30469,5.60547-44.54492,15.92969-65.78467,11.80078-15.04492,28.91016-30.38477,49.85547-42.7749,9.43945-2.65479,19.17383-4.71973,33.03906-4.71973,6.49023,0,11.79883,.29492,17.4043,.88477l6.19531-34.80957-10.91406-29.20508,40.41406-8.55469,7.66992,3.53955-35.99023,200.00928h23.30469l1.17969,7.96484-25.36914,14.45508c-11.50391-.29492-21.24023-1.77051-31.85938-4.12988l7.375-41.2998v-.88477h-2.6543c-19.4707,24.48438-28.61523,36.5791-46.90625,46.01953-2.6543,.58984-7.08008,1.17969-11.50391,1.17969Zm14.16016-26.5498c16.22461-7.375,33.33398-24.7793,51.0332-48.96973l9.14648-51.625c-11.80078-3.83496-29.79492-5.30957-44.54492-4.12988l-10.62109,6.49023c-12.68359,16.81494-22.71484,41.88965-22.71484,70.50488,0,8.84961,1.17969,19.1748,4.13086,25.95996l13.57031,1.76953Z" style="fill:#8a00ff;"/><path d="M9587.02148,189.98047c-23.59961-11.7998-27.14062-21.23975-27.14062-34.21973,0-8.8501,4.13086-16.81494,7.96484-23.30518,7.375-7.66992,15.93164-14.45459,25.96094-21.53467,9.43945-3.24512,23.00977-5.01514,33.03906-5.01514,10.62109,0,17.11133,1.18018,25.37109,2.9502-.29492,12.09473-2.36133,23.59961-6.78516,35.10498-7.66992-5.31006-22.125-12.97998-36.28516-12.97998-5.01562,0-5.90039,0-9.14453,.58984l-11.21094,6.78516c-3.53906,10.61963-2.6543,19.1748,20.65039,30.38477,25.95898,12.68457,29.79492,25.66455,29.79492,37.76025,0,5.89941-1.47461,13.86426-4.13086,18.87988-7.375,9.43945-15.33984,17.10938-23.89453,24.7793-9.14453,4.71973-20.94531,9.73438-37.46484,9.73438-9.73438,0-23.59961-2.35938-32.74414-7.66895,.29492-12.0957,2.35938-23.60059,6.78516-35.10547,10.32422,10.3252,24.48438,17.99512,38.64453,17.99512,5.01562,0,8.55469,0,11.79883-.58984l11.21094-6.78516c4.12891-16.51953,3.83398-24.7793-22.41992-37.75977Z" style="fill:#8a00ff;"/><path d="M9649.26562,331.875c-5.90039-5.90039-16.51953-25.66504-18.88086-35.10547l48.9707-25.07422c10.91406-9.44043,15.04492-13.57031,20.06055-19.76465l-20.35547-106.49512-11.21094-29.20459,40.41602-8.55518,7.66992,3.54004-4.13086,31.56494,13.27539,83.48486c19.17383-25.95996,30.67969-49.85498,36.875-73.45508l-.29492-39.52979,33.92383-5.60498,7.66992,3.24512-10.32422,41.00488c-18.58594,39.23535-46.31445,70.7998-68.73438,96.75977-16.81445,19.46973-50.74023,58.11426-74.92969,83.18945Z" style="fill:#8a00ff;"/><path d="M9843.96289,189.98047c-23.59961-11.7998-27.14062-21.23975-27.14062-34.21973,0-8.8501,4.13086-16.81494,7.96484-23.30518,7.375-7.66992,15.93164-14.45459,25.96094-21.53467,9.43945-3.24512,23.00977-5.01514,33.03906-5.01514,10.62109,0,17.11133,1.18018,25.37109,2.9502-.29492,12.09473-2.36133,23.59961-6.78516,35.10498-7.66992-5.31006-22.125-12.97998-36.28516-12.97998-5.01562,0-5.90039,0-9.14453,.58984l-11.21094,6.78516c-3.53906,10.61963-2.6543,19.1748,20.65039,30.38477,25.95898,12.68457,29.79492,25.66455,29.79492,37.76025,0,5.89941-1.47461,13.86426-4.13086,18.87988-7.375,9.43945-15.33984,17.10938-23.89453,24.7793-9.14453,4.71973-20.94531,9.73438-37.46484,9.73438-9.73438,0-23.59961-2.35938-32.74414-7.66895,.29492-12.0957,2.35938-23.60059,6.78516-35.10547,10.32422,10.3252,24.48438,17.99512,38.64453,17.99512,5.01562,0,8.55469,0,11.79883-.58984l11.21094-6.78516c4.12891-16.51953,3.83398-24.7793-22.41992-37.75977Z" style="fill:#8a00ff;"/><path d="M9951.93164,110.62598l5.31055-29.79492,33.92383-11.50488-7.375,41.2998h36.28516l-1.76953,14.75h-37.16992l-19.17578,108.55957,9.73633,.88477c9.14453-5.89941,21.82812-20.05957,31.26953-29.20508l9.43945,6.19531c-13.86523,23.59961-30.67969,38.34961-43.66016,48.37988-24.48438,0-42.18359-4.42578-36.58008-36.58008l17.11133-98.23438h-19.76562l1.76953-14.75h20.65039Z" style="fill:#8a00ff;"/><path d="M10144.26758,217.41504c-21.53516,23.60059-36.28516,34.81055-55.75586,43.66016-37.16797,2.9502-56.34375-12.68457-56.34375-43.36426,0-23.30566,6.19531-42.77539,16.51953-64.01514,11.80078-15.04492,28.61523-30.38477,49.56055-42.7749,9.73438-2.9502,19.17383-4.71973,26.84375-4.71973,8.84961,0,20.65039,1.76953,26.25586,3.24463,5.30859,14.16016,7.66992,28.61475,8.84961,42.7749-5.60547,6.48975-20.35547,18.87988-31.26953,25.07471-8.55469,2.06494-48.08594,6.78564-60.47461,8.26025-1.17969,6.78516-1.76953,14.16016-1.76953,21.53516,0,8.84961,1.47461,17.99414,3.83398,25.07422l22.41992,3.24512c16.22461-7.375,26.55078-12.68457,42.77539-26.25488l8.55469,8.25977Zm-72.27539-46.31445c20.94531-4.12988,45.13477-8.55518,51.625-11.20996,1.76953-4.4248,.29492-25.66504,0-29.79492-6.19531-1.77002-15.33984-2.06494-23.59961-1.17969l-10.61914,6.48975c-7.08008,9.43994-13.27539,21.53467-17.40625,35.69482Z" style="fill:#8a00ff;"/><path d="M10285.57031,135.70068l-8.84961-3.54004c-16.22461,7.66992-34.81055,21.24023-53.09961,46.02002l-8.84961,49.26465-3.54102,30.67969h-33.62891l20.35352-112.68945-11.20898-29.20459,40.41406-8.55518,7.66992,3.54004-7.66992,40.70996h2.65625c22.125-23.6001,32.44922-37.16992,51.33008-46.02002,26.54883-.29492,41.88867,4.42529,36.2832,36.58008-.58984,2.94971-1.17969,5.8999-1.76953,9.43994h2.6543c22.125-23.6001,31.27148-37.16992,50.15039-46.02002,26.55078-.29492,42.77539,4.42529,37.16992,36.58008-5.01562,28.31982-14.75,77.58447-18.28906,95.57959h23.00977l1.17969,7.96484-25.37109,14.45508c-11.50391-.29492-23.89453-1.77051-34.51367-4.12988l11.50391-56.0498c5.01562-25.0752,8.25977-46.60986,9.73633-64.60498l-8.85156-3.54004c-16.22461,7.66992-33.92383,23.00977-52.80469,45.7251-2.35938,12.97949-5.01367,28.91016-8.84961,49.55957l-3.53906,30.67969h-33.63086c15.93164-85.84424,18.88086-105.60938,20.35547-122.42432Z" style="fill:#8a00ff;"/><path d="M10472.89453,189.98047c-23.59961-11.7998-27.14062-21.23975-27.14062-34.21973,0-8.8501,4.13086-16.81494,7.96484-23.30518,7.375-7.66992,15.93164-14.45459,25.96094-21.53467,9.43945-3.24512,23.00977-5.01514,33.03906-5.01514,10.62109,0,17.11133,1.18018,25.37109,2.9502-.29492,12.09473-2.36133,23.59961-6.78516,35.10498-7.66992-5.31006-22.125-12.97998-36.28516-12.97998-5.01562,0-5.90039,0-9.14453,.58984l-11.21094,6.78516c-3.53906,10.61963-2.6543,19.1748,20.65039,30.38477,25.95898,12.68457,29.79492,25.66455,29.79492,37.76025,0,5.89941-1.47461,13.86426-4.13086,18.87988-7.375,9.43945-15.33984,17.10938-23.89453,24.7793-9.14453,4.71973-20.94531,9.73438-37.46484,9.73438-9.73438,0-23.59961-2.35938-32.74414-7.66895,.29492-12.0957,2.35938-23.60059,6.78516-35.10547,10.32422,10.3252,24.48438,17.99512,38.64453,17.99512,5.01562,0,8.55469,0,11.79883-.58984l11.21094-6.78516c4.12891-16.51953,3.83398-24.7793-22.41992-37.75977Z" style="fill:#8a00ff;"/><path d="M10563.45898,225.08496l10.0293-7.0791c2.35938-.29492,5.31055-.59082,7.08008-.59082,16.81445,0,20.65039,9.14551,18.87891,21.53516-.88477,6.19531-4.12891,10.91504-7.08008,14.16016l-10.61914,6.48926c-1.76953,1.18066-4.42578,1.47559-7.08008,1.47559-16.51953,0-20.35547-9.14453-17.99414-22.125,.88477-6.19434,3.83398-10.91504,6.78516-13.86523Z" style="fill:#8a00ff;"/></svg>