<?xml version="1.0" encoding="UTF-8"?><svg id="a" xmlns="http://www.w3.org/2000/svg" viewBox="0 0 514.33887 233.29004"><path d="M47.76562,134.88965L3.89502,123.20459l2.87012-46.12549,21.5249-16.40039,21.52539-22.95996,34.23535,1.43506,7.99512,33.21045,2.66504-39.97559,45.92041,1.43506-4.91992,43.66553,1.84473,36.90039-42.43506,12.2998-12.71045-21.11523-5.94482-27.06006h-3.28027l-4.30469,27.47021,6.76465,29.52002,24.39551,3.27979,32.59521-12.2998,11.68506,20.2959-28.29004,30.75-37.31055,6.35449-46.12549-7.37988-19.4751-14.55469-5.53516-27.26562,40.18066,.20508Z" style="fill:#e9e9e9;"/><path d="M192.49268,68.05908l-46.53564-6.35498,1.0249-34.03027,26.85547,1.22998,34.03027-1.22998-4.71484,40.18018-1.02539,27.88037,16.40039-25.01025,21.5249,7.1748,26.03564,3.28027-9.02002,29.31494,5.53467,31.57031-26.24023,6.96973,6.56006,.20508,22.75537-2.66406-.41016,32.7998-17.4248,2.45996-38.33545-2.45996,1.43506-29.72559-1.84521-19.67969-3.89502-14.3501-2.66504,.40967-1.22998,.20508-.41016,11.89014,2.66504,51.25049h-55.35059l3.28027-34.23535-2.0498-76.26074,43.05029-.81982Z" style="fill:#e9e9e9;"/><path d="M378.2207,145.75488l-.40967,25.83008-22.96045,2.87012-26.03516,7.99512,4.1001-43.46094-6.35498-34.02979-2.87012,.20508-3.28027,32.18506,.82031,45.10059-26.65039-1.43555-22.95996-14.96484-2.46045-27.67578,8.2002-24.80469-5.94482-27.26514,46.125-14.96533,41.41064,1.84521,20.5,13.3252,1.43506,24.39502-29.31494-2.66504,33.62012,13.3252-6.97021,24.19043Z" style="fill:#e9e9e9;"/><path d="M390.72461,72.36426l23.98486,1.63965,25.01025-1.0249,3.68994,63.55078,6.56006-22.75537,1.43506-38.54053,25.62549-5.53467,24.19043,4.71484,10.66016,24.80518-2.25586,37.51514-39.35986-2.25488,37.31006,12.50586-11.07031,15.58008-8.19922,17.01465-29.52051,.61523-19.06543-19.68066,1.43506,26.44531-32.80029,5.94531,38.9502,1.84473,1.23047,32.39062-42.43555,1.43457-15.99023-5.125,4.51025-41,.20459-67.03564,32.80029-7.17529-37.72021-.81982,.82031-35.05518Z" style="fill:#e9e9e9;"/></svg>