<?xml version="1.0" encoding="utf-8"?>
<!-- Generator: Adobe Illustrator 24.0.1, SVG Export Plug-In . SVG Version: 6.00 Build 0)  -->
<svg version="1.1" id="Layer_1" xmlns="http://www.w3.org/2000/svg" xmlns:xlink="http://www.w3.org/1999/xlink" x="0px" y="0px"
	 viewBox="0 0 12090 329.2" style="enable-background:new 0 0 12090 329.2;" xml:space="preserve">
<path d="M180.8,97l-63.6,155.6h-10.7L27.1,36.9L0,36.2V19.8c15.1,0.6,35.6,0.6,45,0.6h8.8c9.4,0,29.9,0,45-0.6v16.4l-29.3,0.6
	l54.8,149.6l47.3-115l-12.6-34.7l-23.3-0.6V19.8c15.1,0.6,35.6,0.6,45,0.6h9.5c9.5,0,29.9,0,45-0.6v16.4l-31.2,0.6h-2.5L253.3,183
	l55.1-146.2h-2.2L275,36.2V19.8c12.6,0.6,29.3,0.6,40,0.6c10.4,0,27.1,0,39.7-0.6v16.4l-25.2,0.6l-82.2,215.8h-10.7L180.8,97z"/>
<path d="M429.3,224.3h-2.5c-8.5,13.5-23,28.4-45.4,28.4c-23.6,0-44.4-16.4-44.7-43.5c0-31.5,26.8-53.2,88.5-53.9v-21.4
	c0-21.4-13.2-29.3-32.1-29.3c-4.4,0-8.7,0.5-12.9,1.6l-12.6,42.2c-18.3,6-27.7-3.1-27.7-14.8c0-25.2,38.7-45.7,74.3-45.7
	c28.7,0,49.1,14.2,49.1,39.4v94.8h34c-5.7,16.4-20.5,29.9-39.1,29.9C443.5,252,431.6,243.2,429.3,224.3z M402.3,228.1
	c10.1,0,17.6-5,23-14.2v-45.4c-37.8-2.8-49.1,15.1-49.1,32.4S387.8,228.1,402.3,228.1z"/>
<path d="M503.7,233.7l22-0.6V44.7l-25.2-23.3v-4.1L563.9,0v233.1l21.7,0.6v14.2c-15.1-0.3-34.7-0.6-41-0.6c-6.3,0-25.8,0.3-41,0.6
	V233.7z"/>
<path d="M719.1,235.3l-55.4-77.2h-0.3v75l21.7,0.6v14.2c-15.1-0.3-34.7-0.6-41-0.6c-6.3,0-25.8,0.3-41,0.6v-14.2l22-0.6V44.7
	l-25.2-23.3v-4.1L663.4,0v151.8l27.1-2.2l33.7-40.6l-25.5-1.6V93.2c15.1,0.6,30.2,0.6,39.1,0.6c6.3,0,12.3,0,27.4-0.6v14.2
	l-20.8,1.9l-39.1,46.6l56.4,77.2l18.9,0.6v14.2c-15.1-0.3-29.3-0.6-35.6-0.6h-25.8V235.3z"/>
<path d="M790.7,233.4l21.7-0.6V130.4l-23.3-22v-2.8l59.2-17.3l2.2,1.9v142.7l21.4,0.6v14.5c-15.1-0.3-34.3-0.6-40.6-0.6
	c-6.3,0-25.5,0.3-40.6,0.6V233.4z M830.3,4.4c14.2,0,24.6,9.4,24.6,24.9c0,15.1-10.4,24.9-24.6,24.9s-24.6-9.8-24.6-24.9
	C805.8,13.9,816.2,4.4,830.3,4.4z"/>
<path d="M892.1,233.4l21.7-0.6V130.4l-23.3-22v-2.8l59.2-17.3l2.2,1.9v24.6h4.4c16.7-16.1,34.7-26.5,55.1-26.5
	c23,0,41.6,13.9,41.3,49.1v95.4l21.1,0.6l0,14.5c-15.1-0.3-33.7-0.6-40-0.6s-25.2,0.3-40.3,0.6v-14.5l21.1-0.6v-90.1
	c0-18.9-10.4-29.9-28-29.9c-15.4,0-27.1,10.1-34.7,19.8v100.2l21.4,0.6v14.5c-15.1-0.3-34.3-0.6-40.6-0.6c-6.3,0-25.5,0.3-40.6,0.6
	V233.4z"/>
<path d="M1085.5,294.2c0-17,14.8-31.5,48.5-35.3v-2.2c-18.9-0.9-35.3-12-35.3-29.6c0-19.5,19.5-29.3,39.7-34.3
	c-22.7-8.8-37.2-27.4-37.2-49.8c0-30.2,28.7-54.8,68.7-54.8c10.3-0.1,20.6,1.7,30.2,5.4l53.2-0.3v17.3H1225
	c8.1,9,12.6,20.6,12.6,32.8c0,30.9-28.7,55.1-68.7,55.1c-8.1,0-16.1-1.1-23.9-3.2l-14.5,28.7l86.3,1.6c18.3,0.3,35,8.8,35,32.1
	c0,35.3-36.5,71.5-100.5,71.5C1116.4,329.2,1085.5,318.5,1085.5,294.2z M1164.9,310.9c35.3,0,55.1-17.6,55.1-36.2
	c0-10.1-5.7-16.4-25.5-16.4l-44.4-0.6c-21.1,8.2-27.1,19.5-27.1,28.7C1123,303.7,1143.4,310.9,1164.9,310.9z M1169.9,185.9
	c18.9,0,28-18.6,28-42.5c0-22-9.1-42.5-28.7-42.5c-19.2,0-28.4,18.6-28.4,42.2C1140.9,165.4,1150.1,185.9,1169.9,185.9L1169.9,185.9
	z"/>
<path d="M1329,171c0-48.8,32.1-82.8,81.6-82.8c49.1,0,80,34,80,81.9c0,48.5-32.1,82.8-81.6,82.8C1359.5,252.9,1329,218.6,1329,171z
	 M1411.2,237.8c27.7,0,38.7-34.7,38.7-65.5c0-32.8-13.2-69-41.6-69c-27.7,0-38.7,34.7-38.7,65.5
	C1369.6,201.6,1382.5,237.8,1411.2,237.8L1411.2,237.8z"/>
<path d="M1515.8,233.4l21.7-0.6V130.4l-23.3-22v-2.8l59.2-17.3l2.2,1.9v24.6h4.4c16.7-16.1,34.7-26.5,55.1-26.5
	c23,0,41.6,13.9,41.3,49.1v95.4l21.1,0.6v14.5c-15.1-0.3-33.7-0.6-40-0.6s-25.2,0.3-40.3,0.6v-14.5l21.1-0.6v-90.1
	c0-18.9-10.4-29.9-28-29.9c-15.4,0-27.1,10.1-34.7,19.8v100.2l21.4,0.6v14.5c-15.1-0.3-34.3-0.6-40.6-0.6c-6.3,0-25.5,0.3-40.6,0.6
	V233.4z"/>
<path d="M1878.3,224.3h-2.5c-8.5,13.5-23,28.4-45.4,28.4c-23.6,0-44.4-16.4-44.7-43.5c0-31.5,26.8-53.2,88.5-53.9v-21.4
	c0-21.4-13.2-29.3-32.1-29.3c-4.4,0-8.7,0.5-12.9,1.6l-12.6,42.2c-18.3,6-27.7-3.1-27.7-14.8c0-25.2,38.7-45.7,74.3-45.7
	c28.7,0,49.1,14.2,49.1,39.4v94.8h34c-5.7,16.4-20.5,29.9-39.1,29.9C1892.5,252,1880.5,243.2,1878.3,224.3z M1851.2,228.1
	c10.1,0,17.6-5,23-14.2v-45.4c-37.8-2.8-49.1,15.1-49.1,32.4S1836.7,228.1,1851.2,228.1z"/>
<path d="M2081.5,42.5l-19.8,188.4h0.9l31.2,0.6v16.4c-13.2-0.6-30.2-0.6-40.6-0.6c-10.7,0-27.7,0-41,0.6v-16.4l29.6-0.6l20.5-194
	l-28.7-0.6V19.8c15.1,0.6,35.6,0.6,45,0.6h36.9l58,156.9l58.6-156.9h38.4c9.4,0,29.9,0,45-0.6v16.4l-30.6,0.6l18.9,194l29.3,0.6
	v16.4c-15.1-0.6-35.6-0.6-45-0.6h-9.8c-9.5,0-29.9,0-45,0.6v-16.4l30.2-0.6l-18.3-192.2l-78.8,211.1h-8.2L2081.5,42.5z"/>
<path d="M2353.3,171c0-48.8,32.1-82.8,81.6-82.8c49.1,0,80,34,80,81.9c0,48.5-32.1,82.8-81.6,82.8
	C2383.9,252.9,2353.3,218.6,2353.3,171z M2404.1,13.9c10.7,0,19.5,8.2,19.5,20.2c0,12-8.8,20.2-19.5,20.2c-11,0-19.5-8.2-19.5-20.2
	C2384.5,22.1,2393,13.9,2404.1,13.9z M2435.6,237.8c27.7,0,38.7-34.7,38.7-65.5c0-32.8-13.2-69-41.6-69c-27.7,0-38.7,34.7-38.7,65.5
	C2394,201.6,2406.9,237.8,2435.6,237.8L2435.6,237.8z M2465.2,13.9c10.7,0,19.5,8.2,19.5,20.2c0,12-8.8,20.2-19.5,20.2
	c-11,0-19.5-8.2-19.5-20.2C2445.6,22.1,2454.1,13.9,2465.2,13.9z"/>
<path d="M2593.1,246.3l-37.5,6.3V44.7l-25.2-23.3v-4.1L2593.7,0v113.4c9.8-9.5,28-25.2,54.5-25.2c34,0,62.7,25.2,62.7,72.1
	c0,58.3-41.9,92.6-86,92.6C2612,252.9,2600.6,250.1,2593.1,246.3z M2629.6,238.8c20.2-3.2,41.3-30.2,41.3-68
	c0-35.9-18-57.3-47.2-57.3c-14.5,0-23.6,5.4-29.9,9.8v94.5L2629.6,238.8z"/>
<path d="M2736.1,233.4l21.7-0.6V130.4l-23.3-22v-2.8l59.2-17.3l2.2,1.9v142.7l21.4,0.6v14.5c-15.1-0.3-34.3-0.6-40.6-0.6
	c-6.3,0-25.5,0.3-40.6,0.6V233.4z M2775.8,4.4c14.2,0,24.6,9.4,24.6,24.9c0,15.1-10.4,24.9-24.6,24.9s-24.6-9.8-24.6-24.9
	C2751.2,13.9,2761.6,4.4,2775.8,4.4z"/>
<path d="M2852.3,203.5l0.6-94.8l-21.1-0.6V93.9h28.7l30.6-1.3v106.2c0,18.9,11.3,29.6,29.3,29.6c14.8,0,23.6-6.6,30.9-16.1V108.7
	l-22-0.6V93.9h29.6l30.6-1.3V229h27.1v13.9l-61.4,6.6l-2.5-2.2v-20.2h-4.1c-9.8,10.1-30.2,25.2-52.3,25.2
	C2875,252.3,2852,238.8,2852.3,203.5z"/>
<path d="M3028.7,227.4c0-8.5,5.4-17.3,14.5-22.4l39.7,33.7c15.1-2.5,27.4-11.3,27.7-24.3c0-9.1-4.1-15.4-23.9-24.6l-17.6-8.2
	c-23.3-10.7-33.7-24.3-33.7-43.5c0-30.6,26.8-50.1,63-50.1c27.7,0,45.7,11,45.7,26.1c0,7.2-4.1,14.2-14.5,19.8l-33.4-32.4
	c-14.5,0.6-25.2,10.4-25.2,23.9c0,10.7,6,18.9,23.6,27.7l18.9,9.5c23.3,12,31.8,22.7,31.8,40c0,24.9-21.1,50.1-68.4,50.1
	C3051.1,252.9,3028.7,245.1,3028.7,227.4z"/>
<path d="M3238.8,242.9l-0.6-69.9h4.1l40.6,62.4c5.1,1,10.3,1.6,15.4,1.6c24.3,0,45.7-15.8,45.7-40.6c0-14.8-8.5-25.8-30.2-38.1
	l-34-19.8c-25.2-14.5-38.7-31.2-38.7-57.3c0-42.2,35.6-66.8,82.2-66.8c23,0,40.3,5.7,49.1,9.8l1.6,58h-4.1l-37.5-50.4
	c-3.9-1-7.9-1.4-12-1.3c-24.6,0-41.9,16.1-41.9,39.4c0,17,10.4,29.3,30.2,41.3l30.6,18.6c24.3,14.5,41,28,41,55.1
	c0,36.2-29,68.4-85.4,68.4C3274.1,252.9,3252,249.2,3238.8,242.9z"/>
<path d="M3427.2,214.2V109.3H3401l-0.3-3.1l62.1-48.5l2.5,0.9v35.3h49.5v17.6h-49.5v109h47.6c-9.8,19.8-28.7,31.2-48.2,31.2
	C3443.5,251.7,3427.2,238.5,3427.2,214.2z"/>
<path d="M3529.5,233.4l21.1-0.6V130.4l-23.3-22v-2.8l59.2-17l2.2,1.9v37.5h3.8l10.7-16.1c12.6-18.3,21.1-24.3,32.8-24.3
	c12,0,21.7,8.5,21.7,21.4c0,9.5-4.7,20.2-16.1,29.6l-30.6-15.1c-6.9,8.5-15.1,18-22.4,26.8v82.5l30.9,0.6v14.5
	c-15.1-0.3-43.5-0.6-49.8-0.6c-6.3,0-25.2,0.3-40.3,0.6V233.4z"/>
<path d="M3666.6,233.4l21.7-0.6V130.4l-23.3-22v-2.8l59.2-17.3l2.2,1.9v142.7l21.4,0.6v14.5c-15.1-0.3-34.3-0.6-40.6-0.6
	c-6.3,0-25.5,0.3-40.6,0.6V233.4z M3706.3,4.4c14.2,0,24.6,9.4,24.6,24.9c0,15.1-10.4,24.9-24.6,24.9s-24.6-9.8-24.6-24.9
	C3681.7,13.9,3692.1,4.4,3706.3,4.4z"/>
<path d="M3826,246.6v64.9l30.6,0.6v14.5c-15.1-0.3-43.2-0.6-49.5-0.6c-6.3,0-26.8,0.3-41.9,0.6v-14.5l22.7-0.6V130.4l-23.6-22v-2.8
	l59.5-17.3l2.2,1.9v23.6c9.1-9.5,27.7-25.5,54.8-25.5c33.7,0,62.7,25.2,62.7,72.1c0,58.3-41.9,92.6-86.3,92.6
	C3844.9,252.9,3833.2,250.4,3826,246.6z M3862.2,238.8c19.8-3.2,41.3-30.2,41.3-68c0-35.9-18-57.3-47.6-57.3
	c-14.5,0-23.9,5-29.9,9.8v94.5L3862.2,238.8z"/>
<path d="M4228.9,97l-63.6,155.6h-10.7l-79.4-215.8l-27.1-0.6V19.8c15.1,0.6,35.6,0.6,45,0.6h8.8c9.4,0,29.9,0,45-0.6v16.4l-29.3,0.6
	l54.8,149.6l47.3-115l-12.6-34.7l-23.3-0.6V19.8c15.1,0.6,35.6,0.6,45,0.6h9.5c9.5,0,29.9,0,45-0.6v16.4l-31.2,0.6h-2.5l51.7,146.2
	l55.1-146.2h-2.2l-31.2-0.6V19.8c12.6,0.6,29.3,0.6,40,0.6c10.4,0,27.1,0,39.7-0.6v16.4l-25.2,0.6l-82.2,215.8h-10.7L4228.9,97z"/>
<path d="M4477.5,224.3h-2.5c-8.5,13.5-23,28.4-45.4,28.4c-23.6,0-44.4-16.4-44.7-43.5c0-31.5,26.8-53.2,88.5-53.9v-21.4
	c0-21.4-13.2-29.3-32.1-29.3c-4.4,0-8.7,0.5-12.9,1.6l-12.6,42.2c-18.3,6-27.7-3.1-27.7-14.8c0-25.2,38.7-45.7,74.3-45.7
	c28.7,0,49.1,14.2,49.1,39.4v94.8h34c-5.7,16.4-20.5,29.9-39.1,29.9C4491.6,252,4479.7,243.2,4477.5,224.3z M4450.4,228.1
	c10.1,0,17.6-5,23-14.2v-45.4c-37.8-2.8-49.1,15.1-49.1,32.4S4435.9,228.1,4450.4,228.1z"/>
<path d="M4551.8,233.7l22-0.6V44.7l-25.2-23.3v-4.1L4612,0v233.1l21.7,0.6v14.2c-15.1-0.3-34.7-0.6-41-0.6c-6.3,0-25.8,0.3-41,0.6
	V233.7z"/>
<path d="M4767.3,235.3l-55.4-77.2h-0.3v75l21.7,0.6v14.2c-15.1-0.3-34.7-0.6-41-0.6c-6.3,0-25.8,0.3-41,0.6v-14.2l22-0.6V44.7
	l-25.2-23.3v-4.1L4711.5,0v151.8l27.1-2.2l33.7-40.6l-25.5-1.6V93.2c15.1,0.6,30.2,0.6,39.1,0.6c6.3,0,12.3,0,27.4-0.6v14.2
	l-20.8,1.9l-39.1,46.6l56.4,77.2l18.9,0.6v14.2c-15.1-0.3-29.3-0.6-35.6-0.6h-25.8V235.3z"/>
<path d="M4838.8,233.4l21.7-0.6V130.4l-23.3-22v-2.8l59.2-17.3l2.2,1.9v142.7l21.4,0.6v14.5c-15.1-0.3-34.3-0.6-40.6-0.6
	c-6.3,0-25.5,0.3-40.6,0.6V233.4z M4878.5,4.4c14.2,0,24.6,9.4,24.6,24.9c0,15.1-10.4,24.9-24.6,24.9s-24.6-9.8-24.6-24.9
	C4853.9,13.9,4864.3,4.4,4878.5,4.4z"/>
<path d="M4940.2,233.4l21.7-0.6V130.4l-23.3-22v-2.8l59.2-17.3l2.2,1.9v24.6h4.4c16.7-16.1,34.7-26.5,55.1-26.5
	c23,0,41.6,13.9,41.3,49.1v95.4l21.1,0.6l0,14.5c-15.1-0.3-33.7-0.6-40-0.6s-25.2,0.3-40.3,0.6v-14.5l21.1-0.6v-90.1
	c0-18.9-10.4-29.9-28-29.9c-15.4,0-27.1,10.1-34.7,19.8v100.2l21.4,0.6v14.5c-15.1-0.3-34.3-0.6-40.6-0.6c-6.3,0-25.5,0.3-40.6,0.6
	V233.4z"/>
<path d="M5133.6,294.2c0-17,14.8-31.5,48.5-35.3v-2.2c-18.9-0.9-35.3-12-35.3-29.6c0-19.5,19.5-29.3,39.7-34.3
	c-22.7-8.8-37.2-27.4-37.2-49.8c0-30.2,28.7-54.8,68.7-54.8c10.3-0.1,20.6,1.7,30.2,5.4l53.2-0.3v17.3h-28.3
	c8.1,9,12.6,20.6,12.6,32.8c0,30.9-28.7,55.1-68.7,55.1c-8.1,0-16.1-1.1-23.9-3.2l-14.5,28.7l86.3,1.6c18.3,0.3,35,8.8,35,32.1
	c0,35.3-36.5,71.5-100.5,71.5C5164.5,329.2,5133.6,318.5,5133.6,294.2z M5213,310.9c35.3,0,55.1-17.6,55.1-36.2
	c0-10.1-5.7-16.4-25.5-16.4l-44.4-0.6c-21.1,8.2-27.1,19.5-27.1,28.7C5171.1,303.7,5191.6,310.9,5213,310.9z M5218,185.9
	c18.9,0,28-18.6,28-42.5c0-22-9.1-42.5-28.7-42.5c-19.2,0-28.4,18.6-28.4,42.2C5189,165.4,5198.2,185.9,5218,185.9L5218,185.9z"/>
<path d="M5377.1,171c0-48.8,32.1-82.8,81.6-82.8c49.1,0,80,34,80,81.9c0,48.5-32.1,82.8-81.6,82.8
	C5407.6,252.9,5377.1,218.6,5377.1,171z M5459.3,237.8c27.7,0,38.7-34.7,38.7-65.5c0-32.8-13.2-69-41.6-69
	c-27.7,0-38.7,34.7-38.7,65.5C5417.7,201.6,5430.6,237.8,5459.3,237.8L5459.3,237.8z"/>
<path d="M5563.9,233.4l21.7-0.6V130.4l-23.3-22v-2.8l59.2-17.3l2.2,1.9v24.6h4.4c16.7-16.1,34.7-26.5,55.1-26.5
	c23,0,41.6,13.9,41.3,49.1v95.4l21.1,0.6v14.5c-15.1-0.3-33.7-0.6-40-0.6s-25.2,0.3-40.3,0.6v-14.5l21.1-0.6v-90.1
	c0-18.9-10.4-29.9-28-29.9c-15.4,0-27.1,10.1-34.7,19.8v100.2l21.4,0.6v14.5c-15.1-0.3-34.3-0.6-40.6-0.6c-6.3,0-25.5,0.3-40.6,0.6
	V233.4z"/>
<path d="M5926.4,224.3h-2.5c-8.5,13.5-23,28.4-45.4,28.4c-23.6,0-44.4-16.4-44.7-43.5c0-31.5,26.8-53.2,88.5-53.9v-21.4
	c0-21.4-13.2-29.3-32.1-29.3c-4.4,0-8.7,0.5-12.9,1.6l-12.6,42.2c-18.3,6-27.7-3.1-27.7-14.8c0-25.2,38.7-45.7,74.3-45.7
	c28.7,0,49.1,14.2,49.1,39.4v94.8h34c-5.7,16.4-20.5,29.9-39.1,29.9C5940.6,252,5928.6,243.2,5926.4,224.3z M5899.4,228.1
	c10.1,0,17.6-5,23-14.2v-45.4c-37.8-2.8-49.1,15.1-49.1,32.4S5884.9,228.1,5899.4,228.1z"/>
<path d="M6129.6,42.5l-19.8,188.4h0.9l31.2,0.6v16.4c-13.2-0.6-30.2-0.6-40.6-0.6c-10.7,0-27.7,0-41,0.6v-16.4l29.6-0.6l20.5-194
	l-28.7-0.6V19.8c15.1,0.6,35.6,0.6,45,0.6h36.9l58,156.9l58.6-156.9h38.4c9.4,0,29.9,0,45-0.6v16.4l-30.6,0.6l18.9,194l29.3,0.6
	v16.4c-15.1-0.6-35.6-0.6-45-0.6h-9.8c-9.5,0-29.9,0-45,0.6v-16.4l30.2-0.6l-18.3-192.2l-78.8,211.1h-8.2L6129.6,42.5z"/>
<path d="M6401.5,171c0-48.8,32.1-82.8,81.6-82.8c49.1,0,80,34,80,81.9c0,48.5-32.1,82.8-81.6,82.8
	C6432,252.9,6401.5,218.6,6401.5,171z M6452.2,13.9c10.7,0,19.5,8.2,19.5,20.2c0,12-8.8,20.2-19.5,20.2c-11,0-19.5-8.2-19.5-20.2
	C6432.6,22.1,6441.1,13.9,6452.2,13.9z M6483.7,237.8c27.7,0,38.7-34.7,38.7-65.5c0-32.8-13.2-69-41.6-69
	c-27.7,0-38.7,34.7-38.7,65.5C6442.1,201.6,6455,237.8,6483.7,237.8L6483.7,237.8z M6513.3,13.9c10.7,0,19.5,8.2,19.5,20.2
	c0,12-8.8,20.2-19.5,20.2c-11,0-19.5-8.2-19.5-20.2C6493.8,22.1,6502.3,13.9,6513.3,13.9z"/>
<path d="M6641.2,246.3l-37.5,6.3V44.7l-25.2-23.3v-4.1L6641.8,0v113.4c9.8-9.5,28-25.2,54.5-25.2c34,0,62.7,25.2,62.7,72.1
	c0,58.3-41.9,92.6-86,92.6C6660.1,252.9,6648.7,250.1,6641.2,246.3z M6677.7,238.8c20.2-3.2,41.3-30.2,41.3-68
	c0-35.9-18-57.3-47.2-57.3c-14.5,0-23.6,5.4-29.9,9.8v94.5L6677.7,238.8z"/>
<path d="M6784.2,233.4l21.7-0.6V130.4l-23.3-22v-2.8l59.2-17.3l2.2,1.9v142.7l21.4,0.6v14.5c-15.1-0.3-34.3-0.6-40.6-0.6
	c-6.3,0-25.5,0.3-40.6,0.6V233.4z M6823.9,4.4c14.2,0,24.6,9.4,24.6,24.9c0,15.1-10.4,24.9-24.6,24.9s-24.6-9.8-24.6-24.9
	C6799.3,13.9,6809.7,4.4,6823.9,4.4z"/>
<path d="M6900.4,203.5l0.6-94.8l-21.1-0.6V93.9h28.7l30.6-1.3v106.2c0,18.9,11.3,29.6,29.3,29.6c14.8,0,23.6-6.6,30.9-16.1V108.7
	l-22-0.6V93.9h29.6l30.6-1.3V229h27.1v13.9l-61.4,6.6l-2.5-2.2v-20.2h-4.1c-9.8,10.1-30.2,25.2-52.3,25.2
	C6923.1,252.3,6900.1,238.8,6900.4,203.5z"/>
<path d="M7076.8,227.4c0-8.5,5.4-17.3,14.5-22.4l39.7,33.7c15.1-2.5,27.4-11.3,27.7-24.3c0-9.1-4.1-15.4-23.9-24.6l-17.6-8.2
	c-23.3-10.7-33.7-24.3-33.7-43.5c0-30.6,26.8-50.1,63-50.1c27.7,0,45.7,11,45.7,26.1c0,7.2-4.1,14.2-14.5,19.8l-33.4-32.4
	c-14.5,0.6-25.2,10.4-25.2,23.9c0,10.7,6,18.9,23.6,27.7l18.9,9.5c23.3,12,31.8,22.7,31.8,40c0,24.9-21.1,50.1-68.4,50.1
	C7099.2,252.9,7076.8,245.1,7076.8,227.4z"/>
<path d="M7286.9,242.9l-0.6-69.9h4.1l40.6,62.4c5.1,1,10.3,1.6,15.4,1.6c24.3,0,45.7-15.8,45.7-40.6c0-14.8-8.5-25.8-30.2-38.1
	l-34-19.8c-25.2-14.5-38.7-31.2-38.7-57.3c0-42.2,35.6-66.8,82.2-66.8c23,0,40.3,5.7,49.1,9.8l1.6,58h-4.1l-37.5-50.4
	c-3.9-1-7.9-1.4-12-1.3c-24.6,0-41.9,16.1-41.9,39.4c0,17,10.4,29.3,30.2,41.3l30.6,18.6c24.3,14.5,41,28,41,55.1
	c0,36.2-29,68.4-85.4,68.4C7322.2,252.9,7300.1,249.2,7286.9,242.9z"/>
<path d="M7475.3,214.2V109.3h-26.1l-0.3-3.1l62.1-48.5l2.5,0.9v35.3h49.5v17.6h-49.5v109h47.6c-9.8,19.8-28.7,31.2-48.2,31.2
	C7491.7,251.7,7475.3,238.5,7475.3,214.2z"/>
<path d="M7577.7,233.4l21.1-0.6V130.4l-23.3-22v-2.8l59.2-17l2.2,1.9v37.5h3.8l10.7-16.1c12.6-18.3,21.1-24.3,32.8-24.3
	c12,0,21.7,8.5,21.7,21.4c0,9.5-4.7,20.2-16.1,29.6l-30.6-15.1c-6.9,8.5-15.1,18-22.4,26.8v82.5l30.9,0.6v14.5
	c-15.1-0.3-43.5-0.6-49.8-0.6c-6.3,0-25.2,0.3-40.3,0.6V233.4z"/>
<path d="M7714.7,233.4l21.7-0.6V130.4l-23.3-22v-2.8l59.2-17.3l2.2,1.9v142.7l21.4,0.6v14.5c-15.1-0.3-34.3-0.6-40.6-0.6
	c-6.3,0-25.5,0.3-40.6,0.6V233.4z M7754.4,4.4c14.2,0,24.6,9.4,24.6,24.9c0,15.1-10.4,24.9-24.6,24.9s-24.6-9.8-24.6-24.9
	C7729.8,13.9,7740.2,4.4,7754.4,4.4z"/>
<path d="M7874.1,246.6v64.9l30.6,0.6v14.5c-15.1-0.3-43.2-0.6-49.5-0.6c-6.3,0-26.8,0.3-41.9,0.6v-14.5l22.7-0.6V130.4l-23.6-22
	v-2.8l59.5-17.3l2.2,1.9v23.6c9.1-9.5,27.7-25.5,54.8-25.5c33.7,0,62.7,25.2,62.7,72.1c0,58.3-41.9,92.6-86.3,92.6
	C7893,252.9,7881.3,250.4,7874.1,246.6z M7910.3,238.8c19.8-3.2,41.3-30.2,41.3-68c0-35.9-18-57.3-47.6-57.3
	c-14.5,0-23.9,5-29.9,9.8v94.5L7910.3,238.8z"/>
<path d="M8257,97l-63.6,155.6h-10.7l-79.4-215.8l-27.1-0.6V19.8c15.1,0.6,35.6,0.6,45,0.6h8.8c9.4,0,29.9,0,45-0.6v16.4l-29.3,0.6
	l54.8,149.6l47.3-115l-12.6-34.7l-23.3-0.6V19.8c15.1,0.6,35.6,0.6,45,0.6h9.5c9.5,0,29.9,0,45-0.6v16.4l-31.2,0.6h-2.5l51.7,146.2
	l55.1-146.2h-2.2l-31.2-0.6V19.8c12.6,0.6,29.3,0.6,40,0.6c10.4,0,27.1,0,39.7-0.6v16.4l-25.2,0.6l-82.2,215.8h-10.7L8257,97z"/>
<path d="M8505.6,224.3h-2.5c-8.5,13.5-23,28.4-45.4,28.4c-23.6,0-44.4-16.4-44.7-43.5c0-31.5,26.8-53.2,88.5-53.9v-21.4
	c0-21.4-13.2-29.3-32.1-29.3c-4.4,0-8.7,0.5-12.9,1.6l-12.6,42.2c-18.3,6-27.7-3.1-27.7-14.8c0-25.2,38.7-45.7,74.3-45.7
	c28.7,0,49.1,14.2,49.1,39.4v94.8h34c-5.7,16.4-20.5,29.9-39.1,29.9C8519.8,252,8507.8,243.2,8505.6,224.3z M8478.5,228.1
	c10.1,0,17.6-5,23-14.2v-45.4c-37.8-2.8-49.1,15.1-49.1,32.4S8464,228.1,8478.5,228.1z"/>
<path d="M8579.9,233.7l22-0.6V44.7l-25.2-23.3v-4.1L8640.1,0v233.1l21.7,0.6v14.2c-15.1-0.3-34.7-0.6-41-0.6c-6.3,0-25.8,0.3-41,0.6
	V233.7z"/>
<path d="M8795.4,235.3l-55.4-77.2h-0.3v75l21.7,0.6v14.2c-15.1-0.3-34.7-0.6-41-0.6c-6.3,0-25.8,0.3-41,0.6v-14.2l22-0.6V44.7
	l-25.2-23.3v-4.1L8739.6,0v151.8l27.1-2.2l33.7-40.6l-25.5-1.6V93.2c15.1,0.6,30.2,0.6,39.1,0.6c6.3,0,12.3,0,27.4-0.6v14.2
	l-20.8,1.9l-39.1,46.6l56.4,77.2l18.9,0.6v14.2c-15.1-0.3-29.3-0.6-35.6-0.6h-25.8V235.3z"/>
<path d="M8866.9,233.4l21.7-0.6V130.4l-23.3-22v-2.8l59.2-17.3l2.2,1.9v142.7l21.4,0.6v14.5c-15.1-0.3-34.3-0.6-40.6-0.6
	c-6.3,0-25.5,0.3-40.6,0.6V233.4z M8906.6,4.4c14.2,0,24.6,9.4,24.6,24.9c0,15.1-10.4,24.9-24.6,24.9s-24.6-9.8-24.6-24.9
	C8882,13.9,8892.4,4.4,8906.6,4.4z"/>
<path d="M8968.3,233.4l21.7-0.6V130.4l-23.3-22v-2.8l59.2-17.3l2.2,1.9v24.6h4.4c16.7-16.1,34.7-26.5,55.1-26.5
	c23,0,41.6,13.9,41.3,49.1v95.4l21.1,0.6l0,14.5c-15.1-0.3-33.7-0.6-40-0.6s-25.2,0.3-40.3,0.6v-14.5l21.1-0.6v-90.1
	c0-18.9-10.4-29.9-28-29.9c-15.4,0-27.1,10.1-34.7,19.8v100.2l21.4,0.6v14.5c-15.1-0.3-34.3-0.6-40.6-0.6c-6.3,0-25.5,0.3-40.6,0.6
	V233.4z"/>
<path d="M9161.7,294.2c0-17,14.8-31.5,48.5-35.3v-2.2c-18.9-0.9-35.3-12-35.3-29.6c0-19.5,19.5-29.3,39.7-34.3
	c-22.7-8.8-37.2-27.4-37.2-49.8c0-30.2,28.7-54.8,68.7-54.8c10.3-0.1,20.6,1.7,30.2,5.4l53.2-0.3v17.3h-28.3
	c8.1,9,12.6,20.6,12.6,32.8c0,30.9-28.7,55.1-68.7,55.1c-8.1,0-16.1-1.1-23.9-3.2l-14.5,28.7l86.3,1.6c18.3,0.3,35,8.8,35,32.1
	c0,35.3-36.5,71.5-100.5,71.5C9192.6,329.2,9161.7,318.5,9161.7,294.2z M9241.1,310.9c35.3,0,55.1-17.6,55.1-36.2
	c0-10.1-5.7-16.4-25.5-16.4l-44.4-0.6c-21.1,8.2-27.1,19.5-27.1,28.7C9199.2,303.7,9219.7,310.9,9241.1,310.9z M9246.1,185.9
	c18.9,0,28-18.6,28-42.5c0-22-9.1-42.5-28.7-42.5c-19.2,0-28.4,18.6-28.4,42.2C9217.2,165.4,9226.3,185.9,9246.1,185.9L9246.1,185.9
	z"/>
<path d="M9405.2,171c0-48.8,32.1-82.8,81.6-82.8c49.1,0,80,34,80,81.9c0,48.5-32.1,82.8-81.6,82.8
	C9435.8,252.9,9405.2,218.6,9405.2,171z M9487.4,237.8c27.7,0,38.7-34.7,38.7-65.5c0-32.8-13.2-69-41.6-69
	c-27.7,0-38.7,34.7-38.7,65.5C9445.8,201.6,9458.8,237.8,9487.4,237.8L9487.4,237.8z"/>
<path d="M9592,233.4l21.7-0.6V130.4l-23.3-22v-2.8l59.2-17.3l2.2,1.9v24.6h4.4c16.7-16.1,34.7-26.5,55.1-26.5
	c23,0,41.6,13.9,41.3,49.1v95.4l21.1,0.6v14.5c-15.1-0.3-33.7-0.6-40-0.6s-25.2,0.3-40.3,0.6v-14.5l21.1-0.6v-90.1
	c0-18.9-10.4-29.9-28-29.9c-15.4,0-27.1,10.1-34.7,19.8v100.2l21.4,0.6v14.5c-15.1-0.3-34.3-0.6-40.6-0.6c-6.3,0-25.5,0.3-40.6,0.6
	V233.4z"/>
<path d="M9954.6,224.3h-2.5c-8.5,13.5-23,28.4-45.4,28.4c-23.6,0-44.4-16.4-44.7-43.5c0-31.5,26.8-53.2,88.5-53.9v-21.4
	c0-21.4-13.2-29.3-32.1-29.3c-4.4,0-8.7,0.5-12.9,1.6l-12.6,42.2c-18.3,6-27.7-3.1-27.7-14.8c0-25.2,38.7-45.7,74.3-45.7
	c28.7,0,49.1,14.2,49.1,39.4v94.8h34c-5.7,16.4-20.5,29.9-39.1,29.9C9968.7,252,9956.8,243.2,9954.6,224.3z M9927.5,228.1
	c10.1,0,17.6-5,23-14.2v-45.4c-37.8-2.8-49.1,15.1-49.1,32.4S9913,228.1,9927.5,228.1z"/>
<path d="M10157.7,42.5l-19.8,188.4h0.9l31.2,0.6v16.4c-13.2-0.6-30.2-0.6-40.6-0.6c-10.7,0-27.7,0-41,0.6v-16.4l29.6-0.6l20.5-194
	l-28.7-0.6V19.8c15.1,0.6,35.6,0.6,45,0.6h36.9l58,156.9l58.6-156.9h38.4c9.4,0,29.9,0,45-0.6v16.4l-30.6,0.6l18.9,194l29.3,0.6
	v16.4c-15.1-0.6-35.6-0.6-45-0.6h-9.8c-9.5,0-29.9,0-45,0.6v-16.4l30.2-0.6l-18.3-192.2l-78.8,211.1h-8.2L10157.7,42.5z"/>
<path d="M10429.6,171c0-48.8,32.1-82.8,81.6-82.8c49.1,0,80,34,80,81.9c0,48.5-32.1,82.8-81.6,82.8
	C10460.1,252.9,10429.6,218.6,10429.6,171z M10480.3,13.9c10.7,0,19.5,8.2,19.5,20.2c0,12-8.8,20.2-19.5,20.2
	c-11,0-19.5-8.2-19.5-20.2C10460.8,22.1,10469.3,13.9,10480.3,13.9z M10511.8,237.8c27.7,0,38.7-34.7,38.7-65.5
	c0-32.8-13.2-69-41.6-69c-27.7,0-38.7,34.7-38.7,65.5C10470.2,201.6,10483.1,237.8,10511.8,237.8L10511.8,237.8z M10541.4,13.9
	c10.7,0,19.5,8.2,19.5,20.2c0,12-8.8,20.2-19.5,20.2c-11,0-19.5-8.2-19.5-20.2C10521.9,22.1,10530.4,13.9,10541.4,13.9z"/>
<path d="M10669.3,246.3l-37.5,6.3V44.7l-25.2-23.3v-4.1l63.3-17.3v113.4c9.8-9.5,28-25.2,54.5-25.2c34,0,62.7,25.2,62.7,72.1
	c0,58.3-41.9,92.6-86,92.6C10688.2,252.9,10676.8,250.1,10669.3,246.3z M10705.8,238.8c20.2-3.2,41.3-30.2,41.3-68
	c0-35.9-18-57.3-47.2-57.3c-14.5,0-23.6,5.4-29.9,9.8v94.5L10705.8,238.8z"/>
<path d="M10812.3,233.4l21.7-0.6V130.4l-23.3-22v-2.8l59.2-17.3l2.2,1.9v142.7l21.4,0.6v14.5c-15.1-0.3-34.3-0.6-40.6-0.6
	c-6.3,0-25.5,0.3-40.6,0.6V233.4z M10852,4.4c14.2,0,24.6,9.4,24.6,24.9c0,15.1-10.4,24.9-24.6,24.9s-24.6-9.8-24.6-24.9
	C10827.4,13.9,10837.8,4.4,10852,4.4z"/>
<path d="M10928.5,203.5l0.6-94.8l-21.1-0.6V93.9h28.7l30.6-1.3v106.2c0,18.9,11.3,29.6,29.3,29.6c14.8,0,23.6-6.6,30.9-16.1V108.7
	l-22-0.6V93.9h29.6l30.6-1.3V229h27.1v13.9l-61.4,6.6l-2.5-2.2v-20.2h-4.1c-9.8,10.1-30.2,25.2-52.3,25.2
	C10951.2,252.3,10928.2,238.8,10928.5,203.5z"/>
<path d="M11104.9,227.4c0-8.5,5.4-17.3,14.5-22.4l39.7,33.7c15.1-2.5,27.4-11.3,27.7-24.3c0-9.1-4.1-15.4-23.9-24.6l-17.6-8.2
	c-23.3-10.7-33.7-24.3-33.7-43.5c0-30.6,26.8-50.1,63-50.1c27.7,0,45.7,11,45.7,26.1c0,7.2-4.1,14.2-14.5,19.8l-33.4-32.4
	c-14.5,0.6-25.2,10.4-25.2,23.9c0,10.7,6,18.9,23.6,27.7l18.9,9.5c23.3,12,31.8,22.7,31.8,40c0,24.9-21.1,50.1-68.4,50.1
	C11127.3,252.9,11104.9,245.1,11104.9,227.4z"/>
<path d="M11315,242.9l-0.6-69.9h4.1l40.6,62.4c5.1,1,10.3,1.6,15.4,1.6c24.3,0,45.7-15.8,45.7-40.6c0-14.8-8.5-25.8-30.2-38.1
	l-34-19.8c-25.2-14.5-38.7-31.2-38.7-57.3c0-42.2,35.6-66.8,82.2-66.8c23,0,40.3,5.7,49.1,9.8l1.6,58h-4.1l-37.5-50.4
	c-3.9-1-7.9-1.4-12-1.3c-24.6,0-41.9,16.1-41.9,39.4c0,17,10.4,29.3,30.2,41.3l30.6,18.6c24.3,14.5,41,28,41,55.1
	c0,36.2-29,68.4-85.4,68.4C11350.3,252.9,11328.3,249.2,11315,242.9z"/>
<path d="M11503.4,214.2V109.3h-26.1l-0.3-3.1l62.1-48.5l2.5,0.9v35.3h49.5v17.6h-49.5v109h47.6c-9.8,19.8-28.7,31.2-48.2,31.2
	C11519.8,251.7,11503.4,238.5,11503.4,214.2z"/>
<path d="M11605.8,233.4l21.1-0.6V130.4l-23.3-22v-2.8l59.2-17l2.2,1.9v37.5h3.8l10.7-16.1c12.6-18.3,21.1-24.3,32.8-24.3
	c12,0,21.7,8.5,21.7,21.4c0,9.5-4.7,20.2-16.1,29.6l-30.6-15.1c-6.9,8.5-15.1,18-22.4,26.8v82.5l30.9,0.6v14.5
	c-15.1-0.3-43.5-0.6-49.8-0.6c-6.3,0-25.2,0.3-40.3,0.6V233.4z"/>
<path d="M11742.8,233.4l21.7-0.6V130.4l-23.3-22v-2.8l59.2-17.3l2.2,1.9v142.7l21.4,0.6v14.5c-15.1-0.3-34.3-0.6-40.6-0.6
	c-6.3,0-25.5,0.3-40.6,0.6V233.4z M11782.5,4.4c14.2,0,24.6,9.4,24.6,24.9c0,15.1-10.4,24.9-24.6,24.9s-24.6-9.8-24.6-24.9
	C11757.9,13.9,11768.3,4.4,11782.5,4.4z"/>
<path d="M11902.2,246.6v64.9l30.6,0.6v14.5c-15.1-0.3-43.2-0.6-49.5-0.6c-6.3,0-26.8,0.3-41.9,0.6v-14.5l22.7-0.6V130.4l-23.6-22
	v-2.8l59.5-17.3l2.2,1.9v23.6c9.1-9.5,27.7-25.5,54.8-25.5c33.7,0,62.7,25.2,62.7,72.1c0,58.3-41.9,92.6-86.3,92.6
	C11921.1,252.9,11909.4,250.4,11902.2,246.6z M11938.4,238.8c19.8-3.2,41.3-30.2,41.3-68c0-35.9-18-57.3-47.6-57.3
	c-14.5,0-23.9,5-29.9,9.8v94.5L11938.4,238.8z"/>
</svg>
