<svg xmlns="http://www.w3.org/2000/svg" width="34.64176cm" height="7.73343cm" viewBox="0 0 981.9712 219.21533"><title>tanguy-menu</title><path d="M60.05908,36.85451,42.86035,200.106h.81885l27.02637.54589v14.19532c-11.46582-.5459-26.20752-.5459-35.21631-.5459-9.28174,0-24.02344,0-35.48926.5459V200.65187l25.66162-.54589L43.40625,31.94045l-24.84277-.5459V17.19875c13.104.5459,30.84863.5459,39.03857.5459H89.54248l50.231,135.95215L190.55078,17.74465H223.856c8.18994,0,25.93457,0,39.03809-.5459v14.1958l-26.48047.54589L252.79346,200.106l25.38867.54589v14.19532c-13.104-.5459-30.84863-.5459-39.03857-.5459h-8.46289c-8.18994,0-25.93457,0-39.03809.5459V200.65187l26.20752-.54589L202.0161,33.57863,133.76758,216.48488h-7.09766Z" transform="translate(0 -0.00002)" style="fill:#f4f4f4"/><path d="M295.65576,148.23683c0-42.31446,27.84522-71.79785,70.70557-71.79785,42.5874,0,69.34082,29.48339,69.34082,70.97852,0,42.041-27.8457,71.79785-70.70557,71.79785C322.13623,219.21535,295.65576,189.45851,295.65576,148.23683Zm71.25147,57.875c24.02392,0,33.57861-30.03027,33.57861-56.7832,0-28.3916-11.46582-59.78613-36.03515-59.78613-24.02393,0-33.57862,30.0293-33.57862,56.7832C330.87207,174.7173,342.06494,206.11183,366.90723,206.11183Z" transform="translate(0 -0.00002)" style="fill:#f4f4f4"/><path d="M503.40625,213.482l-32.48633,5.46V38.76565L449.08008,18.564V15.01516L503.95215,0V98.27834c8.46338-8.18994,24.29639-21.83935,47.228-21.83935,29.4834,0,54.32617,21.83935,54.32617,62.51562,0,50.5039-36.30762,80.26074-74.52734,80.26074C519.78662,219.21535,509.9585,216.75832,503.40625,213.482Zm31.66748-6.55176c17.47168-2.7295,35.7627-26.207,35.7627-58.96679,0-31.1211-15.56055-49.68506-40.94922-49.68506a42.66491,42.66491,0,0,0-25.93506,8.46338v81.89844Z" transform="translate(0 -0.00002)" style="fill:#f4f4f4"/><path d="M627.34717,202.28957l18.83691-.5459V113.02L625.98291,93.91067v-2.457L677.30518,76.439l1.91113,1.63769v123.667l18.56348.5459v12.55761c-13.10352-.27246-29.75586-.5459-35.21582-.5459s-22.11231.27344-35.2168.5459ZM661.74463,3.82226c12.28516,0,21.29395,8.18994,21.29395,21.5664,0,13.104-9.00879,21.5669-21.29395,21.5669-12.28418,0-21.293-8.46289-21.293-21.5669C640.45166,12.01226,649.46045,3.82226,661.74463,3.82226Z" transform="translate(0 -0.00002)" style="fill:#f4f4f4"/><path d="M728.08155,176.355l.54589-82.17138-18.291-.5459V81.35256H735.1792l26.48047-1.0918v91.9995c0,16.37988,9.82813,25.66113,25.38867,25.66113,12.83106,0,20.47461-5.73242,26.75391-13.92285V94.18362l-19.11035-.5459V81.35256H820.354l26.48047-1.0918V198.4673H870.312V210.479l-53.23437,5.73339-2.18359-1.91115V196.82961h-3.54883c-8.46289,8.73633-26.208,21.83984-45.31739,21.83984C747.73688,218.66945,727.80811,206.93019,728.08155,176.355Z" transform="translate(0 -0.00002)" style="fill:#f4f4f4"/><path d="M880.96338,197.10305c0-7.3711,4.64063-15.01563,12.55762-19.38282l34.39746,29.21c13.10352-2.18359,23.751-9.82714,24.02344-21.0205,0-7.917-3.54883-13.377-20.74707-21.29395l-15.28809-7.09765c-20.20117-9.28125-29.21-21.02051-29.21-37.67286,0-26.481,23.2041-43.40625,54.59863-43.40625,24.02344,0,39.584,9.55468,39.584,22.65821,0,6.27929-3.54883,12.28515-12.55762,17.19922L939.38428,88.17776c-12.55762.54589-21.83984,9.00878-21.83984,20.74755,0,9.28125,5.1875,16.37989,20.47461,24.02344l16.37988,8.18945c20.20215,10.374,27.57226,19.65625,27.57226,34.6709,0,21.56641-18.29,43.40625-59.23925,43.40625C900.34619,219.21535,880.96338,212.39016,880.96338,197.10305Z" transform="translate(0 -0.00002)" style="fill:#f4f4f4"/></svg>