<?xml version="1.0" encoding="utf-8"?>
<!-- Generator: Adobe Illustrator 16.0.0, SVG Export Plug-In . SVG Version: 6.00 Build 0)  -->
<!DOCTYPE svg PUBLIC "-//W3C//DTD SVG 1.1//EN" "http://www.w3.org/Graphics/SVG/1.1/DTD/svg11.dtd">
<svg version="1.1" id="Layer_1" xmlns="http://www.w3.org/2000/svg" xmlns:xlink="http://www.w3.org/1999/xlink" x="0px" y="0px"
	 width="1800px" height="510px" viewBox="-300 -85 1800 510" enable-background="new -300 -85 1800 510" xml:space="preserve">
<g id="Layer_2">
</g>
<g id="Layer_1_1_">
	<rect x="-300" y="-85" width="1800" height="510"/>
</g>
<g id="Layer_3">
	<g>
		<path fill="#FFFFFF" d="M195,218.826V101.993h40.978c31.387,0,54.93,13.078,54.93,44.467s-23.543,43.594-54.93,43.594h-6.974
			v28.772H195z M229.003,162.153h6.104c11.333,0,20.924-3.486,20.924-15.693s-7.847-16.566-20.924-16.566h-6.104V162.153z"/>
		<path fill="#FFFFFF" d="M337.122,124.662l57.545,6.976v71.495l-34.876,19.184l-57.545-6.976v-71.498L337.122,124.662z
			 M335.377,194.242l26.156,3.136v-44.641l-26.156-3.138V194.242z"/>
		<path fill="#FFFFFF" d="M442.622,160.41l40.979,3.836v37.143l-29.643,17.438h-44.465v-24.413h40.976v-8.719l-40.976-3.837v-38.015
			l29.643-19.181l42.722,3.489v24.412l-39.236-3.139V160.41z"/>
		<path fill="#FFFFFF" d="M551.612,128.151v24.412h-15.694v66.264h-33.133v-66.264h-10.462v-24.412h10.462V114.2l33.133-8.719v22.67
			H551.612z"/>
		<path fill="#FFFFFF" d="M586.485,126.406l49.702,6.976v101.139l-17.443,17.437h-51.441v-15.693h51.441v-29.645h-0.871
			l-8.718,12.207h-45.338v-76.727L586.485,126.406z M581.256,203.132h37.488v-56.323l-37.488-5.407V203.132z"/>
		<path fill="#FFFFFF" d="M681.524,126.406l50.571,6.976v73.237l-22.67,15.696l-50.568-6.976v-73.241L681.524,126.406z
			 M676.297,201.913l38.359,5.403v-60.508l-38.359-5.407V201.913z"/>
		<path fill="#FFFFFF" d="M798.359,129.894v15.694h-19.18v73.238h-17.441v-73.238h-13.944v-15.694h13.944v-17.439l17.441-5.231
			v22.67H798.359z"/>
		<path fill="#FFFFFF" d="M838.468,127.279l44.466,5.229v86.317h-17.437v-73.063l-36.618-4.361v77.424h-17.44V91.531l17.44-3.488
			v49.696h0.873L838.468,127.279z"/>
		<path fill="#FFFFFF" d="M915.197,119.431l-13.951-13.95l13.951-13.95l13.951,13.95L915.197,119.431z M906.48,218.826v-88.932
			h17.435v88.932H906.48z"/>
		<path fill="#FFFFFF" d="M964.895,203.132H1005l-5.229,15.694h-52.313v-71.495l17.438-17.438h38.361v15.694h-38.361V203.132z"/>
	</g>
</g>
<g>
	<g>
		<path fill="#FFFFFF" d="M1128,24.5v291H72v-291H1128 M1140,12.5H60v315h1080V12.5L1140,12.5z"/>
	</g>
</g>
</svg>
