<?xml version="1.0" encoding="utf-8"?>
<!-- Generator: Adobe Illustrator 16.0.0, SVG Export Plug-In . SVG Version: 6.00 Build 0)  -->
<!DOCTYPE svg PUBLIC "-//W3C//DTD SVG 1.1//EN" "http://www.w3.org/Graphics/SVG/1.1/DTD/svg11.dtd">
<svg version="1.1" id="Layer_1" xmlns="http://www.w3.org/2000/svg" xmlns:xlink="http://www.w3.org/1999/xlink" x="0px" y="0px"
	 width="1800px" height="1012px" viewBox="-300 -168.5 1800 1012" enable-background="new -300 -168.5 1800 1012"
	 xml:space="preserve">
<g>
	<rect x="-300" y="-168.5" width="1800" height="1012"/>
	<polygon fill="#FFFFFF" points="1421.25586,167.18604 1421.25586,-6.30908 1360.22852,-6.30908 1360.22852,168.92773 
		1286.99414,168.92773 1286.99414,-6.30908 1226.59375,-6.30908 1225.96582,-6.30908 1181.50391,-6.30908 1181.50391,-62.979 
		1120.47461,-46.41504 1120.47461,-6.30908 1089.52539,-6.30908 1089.52539,42.51318 1120.47461,42.51318 1120.47461,217.75 
		1181.50391,217.75 1181.50391,42.51318 1225.96582,42.51318 1225.96582,217.75 1337.56055,217.75 1359.35352,179.39111 
		1362.40723,179.39111 1383.76758,222.5459 1440,208.16113 	"/>
	<path fill="#FFFFFF" d="M1081.24805,167.18604V2.40918L948.72852-15.0293l-64.25293,40.10645l-3.31348-40.10645L767.82422,1.10107
		v216.6499h61.02637V45.56396l51.43848-7.12207V217.75H997.5498l21.79688-38.35986h3.05176l21.35938,43.15479l56.23438-14.38477
		L1081.24805,167.18604z M1020.21875,168.92773h-78.89941V33.79492l78.89941,10.46094V168.92773z"/>
	<path fill="#FFFFFF" d="M618.74609,168.92773V136.6709l127.72266-17.87305V2.84375L626.1543-15.02783l-65.38477,40.81299V-6.30908
		h-44.02832V-47.7207l48.82324-8.2832L561.20508-108.75L455.71387-91.31201v85.00293h-30.5127L321.0166-15.02783l-59.72168,42.71973
		v88.05615l107.2373,17v36.18115H261.2959v48.82275h111.16016l57.10352-43.59082V90.90088l-107.2334-17.00293V33.79492
		l102.4375,8.68115v0.03711h30.95117V217.75h61.02734V42.51318h40.97461V217.75h176.98242l13.07715-48.82324H618.74609V168.92773z
		 M618.74609,33.35791l74.53906,11.33398v46.64209l-74.53906,10.46191V33.35791z"/>
	<path fill="#FFFFFF" d="M113.08594-15.02783L42.90381,27.69189V209.0332l134.26318,17.43799l70.18115-43.15625V2.40918
		L113.08594-15.02783z M186.3208,177.646l-82.3877-10.45996V33.35791l82.3877,10.89697V177.646z"/>
	<polygon fill="#FFFFFF" points="-41.65918,117.49023 -183.76709,-74.31299 -240.00098,-74.31299 -240.00098,217.75 
		-179.84277,217.75 -179.84277,25.94824 -37.73584,217.75 18.49707,217.75 18.49707,-74.31299 -41.65918,-74.31299 	"/>
	<g>
		<path fill="#FFFFFF" d="M623.58398-105.78516c0,1.62012-0.21484,3.16016-0.53906,4.59131h-0.81152l-0.62109-2.97119h-6.12988
			v7.15723h4.67188l1.40332-1.35107h0.67578c-0.05371,1.56592-0.2168,3.15967-0.53906,4.72705h-0.67578l-0.86426-2.02637h-4.67188
			v6.34717l3.37598,0.40479v0.67529c-0.75781,0.29688-2.02637,0.6748-3.51172,0.6748c-1.62109,0-3.10645-0.08057-4.72754-0.27002
			v-0.54102l2.2959-1.08008V-103.896l-2.2959-0.271v-0.6748c1.21582-0.56738,2.02539-0.67529,3.51074-0.67529h7.21191
			L623.58398-105.78516z"/>
		<path fill="#FFFFFF" d="M630.73535-89.39209c0-0.86377,1.10645-1.94385,1.97168-1.94385s1.94336,1.08008,1.94336,1.94385
			c0,0.86426-1.0791,1.97217-1.94336,1.97217S630.73535-88.52686,630.73535-89.39209z"/>
		<path fill="#FFFFFF" d="M665.97852-104.83984l-1.67578,0.89062l-5.34766,16.39404h-1.21484l-4.8623-12.85498l-4.86035,12.85498
			h-1.21582l-5.15918-16.4209l-1.8623-0.32373v-0.67529c0.40527-0.29688,1.21582-0.6748,2.7002-0.6748
			c1.62012,0,2.2959,0.08105,3.37793,0.271v0.54004l-1.64844,0.56787l3.86133,12.37012l3.94238-10.83105l-0.48535-1.26904
			l-1.89062-0.29688v-0.67529c0.4043-0.29688,1.21582-0.6748,2.70117-0.6748c1.62012,0,2.56543,0.08105,3.375,0.271v0.54004
			l-1.59375,0.6748l4.61816,12.23535l3.56543-12.04639l-2.40332-0.32666v-0.67529c0.40527-0.29688,1.21582-0.6748,2.7002-0.6748
			c1.62012,0,2.56445,0.08105,3.37793,0.271V-104.83984L665.97852-104.83984z"/>
		<path fill="#FFFFFF" d="M671.07227-89.39209c0-0.86377,1.10645-1.94385,1.97266-1.94385
			c0.86328,0,1.94336,1.08008,1.94336,1.94385c0,0.86426-1.08008,1.97217-1.94336,1.97217
			C672.17969-87.41992,671.07227-88.52686,671.07227-89.39209z"/>
		<path fill="#FFFFFF" d="M712.63184-89.44482l2.02637,0.40479v0.81006c-0.67578,0.29688-1.75684,0.6748-3.24219,0.6748
			c-1.62012,0-2.29492-0.08057-3.91602-0.27002V-88.5l2.56543-1.08008v-11.74902l-6.48145,9.8584l-6.75195-9.83105v11.74902
			l3.51172,0.5127v0.81006c-0.67578,0.29688-1.75684,0.6748-3.24219,0.6748c-1.61914,0-2.29492-0.08057-3.91602-0.27002V-88.5
			l1.89258-1.02686l0.13477-6.80615V-100.25l-0.27051-5.40088l1.67383-0.271l7.45508,10.88477l7.15527-10.88477l1.67578,0.271
			l-0.27051,5.40088V-89.44482z"/>
		<path fill="#FFFFFF" d="M724.77734-93.3623v-10.53271l-2.29688-0.40479v-0.67529c0.6748-0.29688,1.75586-0.6748,3.24023-0.6748
			c1.62012,0,2.2959,0.08105,3.91504,0.271v0.54004l-2.29492,1.08105v9.85791c0,3.50977,1.35156,5.13086,4.5918,5.13086
			c2.97168,0,4.45703-1.62109,4.45703-5.13086v-9.72314l-2.9707-0.5127v-0.81152c0.6748-0.29688,1.75391-0.6748,3.24023-0.6748
			c1.34961,0,2.56543,0.08105,3.91602,0.27002v0.67529l-2.16016,1.02588l-0.13672,10.02002c0,4.59082-3.375,6.3457-6.88672,6.3457
			C726.80273-87.28516,724.77734-89.04102,724.77734-93.3623z"/>
		<path fill="#FFFFFF" d="M764.60352-87.28516c-0.1875,0.1084-0.40332,0.13623-0.6748,0.13623
			c-1.34961,0-2.72852-0.78418-5.13184-4.18701l-3.0791-4.32129h-2.05273v6.34717l2.2959,0.40479v0.67529
			c-0.6748,0.29688-1.75488,0.67529-3.24023,0.67529c-1.61914,0-2.2959-0.08105-3.91699-0.27051v-0.54102l2.29785-1.08008v-14.44873
			l-2.43262-0.271v-0.6748c1.8916-0.67529,3.56543-0.94531,5.45703-0.94531c5.26562,0,8.04688,1.21484,8.04688,4.72705
			c0,2.40283-1.4834,3.94287-3.80859,4.64502L764.60352-87.28516z M753.66602-97.00781h1.35156
			c2.70117,0,4.32031-1.35107,4.32031-3.78125c0-2.9707-2.16016-3.78223-5.13086-3.78223h-0.54102V-97.00781z"/>
		<path fill="#FFFFFF" d="M788.09473-103.65088l-0.13477,6.77783v3.91602l0.27051,5.26709l-1.48535,0.27002l-11.34473-14.09814
			v11.96533l3.78027,0.5127v0.81006c-0.67578,0.29688-1.75586,0.67529-3.23926,0.67529c-1.62109,0-2.83594-0.08105-4.45703-0.27051
			V-88.5l2.16113-1.02686l0.13477-6.80615v-3.78125l-0.27051-5.40186l1.62012-0.27002l11.20703,13.74707V-103.625l-3.78027-0.5127
			v-0.81152c0.67578-0.29688,1.75586-0.6748,3.24121-0.6748c1.62109,0,2.83496,0.08105,4.45703,0.27002v0.67529L788.09473-103.65088
			z"/>
		<path fill="#FFFFFF" d="M812.87988-89.14795l1.40527,0.24268v0.67529c-0.51367,0.32373-1.27051,0.6748-2.70117,0.6748
			c-1.08008,0-2.2959-0.08057-3.375-0.27002v-0.54102l1.9707-0.6748l-1.9707-5.53711h-6.10352l-1.89258,5.34814l2.45898,0.32373
			v0.67529c-0.51367,0.29688-1.35156,0.6748-2.70117,0.6748c-1.35156,0-2.2959-0.08057-3.375-0.27002v-0.54102l1.64648-0.86377
			l6.32031-16.28613c0.75586-0.27002,1.53809-0.40479,2.29492-0.40479L812.87988-89.14795z M802.5625-95.92773h5.15918
			l-2.59375-7.31934L802.5625-95.92773z"/>
		<path fill="#FFFFFF" d="M822.75879-93.3623v-10.53271l-2.29688-0.40479v-0.67529c0.6748-0.29688,1.75684-0.6748,3.24121-0.6748
			c1.62109,0,2.2959,0.08105,3.91602,0.271v0.54004l-2.29492,1.08105v9.85791c0,3.50977,1.34961,5.13086,4.5918,5.13086
			c2.9707,0,4.45605-1.62109,4.45605-5.13086v-9.72314l-2.9707-0.5127v-0.81152c0.6748-0.29688,1.75488-0.6748,3.23926-0.6748
			c1.35156,0,2.56641,0.08105,3.91699,0.27002v0.67529l-2.15918,1.02588l-0.1377,10.02002c0,4.59082-3.375,6.3457-6.88672,6.3457
			C824.7832-87.28516,822.75879-89.04102,822.75879-93.3623z"/>
	</g>
	<g>
		<path fill="#FFFFFF" d="M185.71582-87.8252V-88.5l3.375-0.94482v-10.12842l-4.0498,0.40527v-0.7832
			c2.29492-1.08105,4.72705-1.78271,6.88574-2.05273c-0.26953,2.16113-0.40381,4.59082-0.40381,7.02197v5.67188l3.10498,0.54004
			v0.81104c-1.08105,0.18799-2.56592,0.40527-4.18701,0.40527C189.09082-87.55518,187.33594-87.63574,185.71582-87.8252z"/>
		<path fill="#FFFFFF" d="M212.98779-94.84717c0,7.31934-3.34863,10.96533-10.39697,11.34424l-0.9458-1.62109l0.13623-0.271
			c6.6709-0.16211,8.77686-2.29492,8.77686-8.91211c0-4.86182-1.21387-5.80713-4.18701-5.80713
			c-1.7832,0-2.16113,0.91797-2.16113,2.83496c0,5.13232,0.81201,5.67236,4.32129,5.67236v0.67578
			c-1.08008,0.48584-2.24121,0.67529-3.24023,0.67529c-2.97119,0-3.51123-2.43115-3.51123-5.67188
			c0-2.97119,2.8623-6.07715,5.83447-6.07715C211.66602-102.00391,212.98779-99.70801,212.98779-94.84717z"/>
		<path fill="#FFFFFF" d="M223.51514-89.85107h7.42773v2.16113h-9.6958l-0.02588-2.02588l3.91602-3.10547
			c2.05176-1.62061,3.2417-3.10547,3.2417-4.72656s-1.08105-2.43115-2.97168-2.43115c-1.32324,0-2.7002,0.54004-3.91602,1.21484
			l-0.13525-0.27002l0.67383-1.75488c1.08105-0.81104,2.70117-1.21582,4.05225-1.21582c2.9707,0,4.59082,1.35059,4.59082,3.78174
			c0,2.16016-1.59375,3.94189-3.75293,5.67139L223.51514-89.85107z"/>
		<path fill="#FFFFFF" d="M241.03906-89.85107h7.42773v2.16113h-9.69678l-0.02588-2.02588l3.91699-3.10547
			c2.05078-1.62061,3.23975-3.10547,3.23975-4.72656s-1.08105-2.43115-2.9707-2.43115c-1.32422,0-2.70117,0.54004-3.91699,1.21484
			l-0.13525-0.27002l0.67529-1.75488c1.07959-0.81104,2.70068-1.21582,4.0498-1.21582c2.97217,0,4.5918,1.35059,4.5918,3.78174
			c0,2.16016-1.59375,3.94189-3.75391,5.67139L241.03906-89.85107z"/>
	</g>
	<g>
		<path fill="#FFFFFF" d="M1054.29688-89.44482l2.02539,0.40479v0.81006c-0.67578,0.29688-1.75586,0.6748-3.24219,0.6748
			c-1.61914,0-2.29492-0.08057-3.91504-0.27002V-88.5l2.56543-1.08008v-11.74902l-6.48242,9.8584l-6.75195-9.83105v11.74902
			l3.51172,0.5127v0.81006c-0.67578,0.29688-1.75586,0.6748-3.24219,0.6748c-1.61914,0-2.29492-0.08057-3.91504-0.27002V-88.5
			l1.89062-1.02686l0.13672-6.80615V-100.25l-0.27051-5.40088l1.67383-0.271l7.45508,10.88477l7.15625-10.88477l1.67578,0.271
			l-0.27051,5.40088v10.80518H1054.29688z"/>
		<path fill="#FFFFFF" d="M1079.08008-89.14795l1.4043,0.24268v0.67529c-0.5127,0.32373-1.26855,0.6748-2.70117,0.6748
			c-1.0791,0-2.29492-0.08057-3.375-0.27002v-0.54102l1.97266-0.6748l-1.97266-5.53711h-6.10449l-1.89062,5.34814l2.45703,0.32373
			v0.67529c-0.51172,0.29688-1.35059,0.6748-2.70117,0.6748c-1.34961,0-2.29492-0.08057-3.375-0.27002v-0.54102l1.64551-0.86377
			l6.32129-16.28613c0.75586-0.27002,1.54004-0.40479,2.2959-0.40479L1079.08008-89.14795z M1068.76367-95.92773h5.1582
			l-2.5918-7.31934L1068.76367-95.92773z"/>
		<path fill="#FFFFFF" d="M1100.2207-89.09473l2.13281,0.32373v0.67627c-0.67578,0.2959-1.75488,0.6748-3.23926,0.6748
			c-1.35156,0-2.56641-0.08105-3.37695-0.27002v-0.54102l1.80957-0.62109l-3.99609-6.48193l-3.78125,6.23926l2.1875,0.32373v0.67627
			c-0.40527,0.2959-1.21582,0.6748-2.70117,0.6748c-1.62012,0-2.56543-0.08105-3.64551-0.27002v-0.54102l2.21484-0.94482
			l4.61816-7.26611l-4.51172-7.53516l-2.05273-0.32373v-0.67529c0.67578-0.29688,1.75586-0.6748,3.24121-0.6748
			c1.62012,0,2.56543,0.08105,3.37598,0.271v0.54004l-1.81055,0.62109l3.56543,6.34668l3.83398-6.104l-2.08008-0.32373v-0.67529
			c0.40625-0.29688,1.21777-0.6748,2.70117-0.6748c1.62109,0,2.56641,0.08105,3.37695,0.271v0.54004l-1.99805,0.83789
			l-4.75488,7.23828L1100.2207-89.09473z"/>
		<path fill="#FFFFFF" d="M1131.99902-93.0918c0,3.51172-2.02637,5.67188-6.07715,5.67188
			c-1.89062,0-4.32227-0.27002-5.94141-0.54004c0-1.62012,0.13574-3.51074,0.54102-5.40234h0.80957
			c0.67578,3.78223,0.94531,4.59131,4.8623,4.59131c2.43066,0,3.24023-1.08008,3.24023-3.24072
			c0-0.86426-0.08203-1.72949-0.45898-2.59326l-3.5918-0.78271c-3.26855-0.72949-5.13281-1.75635-5.13281-4.99707
			c0-3.51123,2.97168-5.40137,6.48047-5.40137c1.2168,0,2.26953,0.08105,3.16113,0.16211l1.43262-0.16211
			c0,1.62012-0.13477,3.24121-0.54102,5.13086h-0.81152l-0.62109-3.15967c-0.8916-0.35205-1.89062-0.62109-2.88965-0.62109
			c-2.16113,0-3.64648,1.21484-3.64648,3.37598c0,2.16016,1.21582,2.75391,3.64648,3.24121
			C1131.86426-96.76514,1131.99902-96.60303,1131.99902-93.0918z"/>
		<path fill="#FFFFFF" d="M1154.27539-92.55176h0.80957c0,1.70166-0.2168,2.97168-0.54004,4.5918
			c-1.35156,0.32422-2.83594,0.6748-5.2666,0.6748c-5.51074,0-9.4541-3.13184-9.4541-8.91309
			c0-6.0498,3.9707-9.72266,9.58887-9.72266c1.24219,0,2.56543,0.13574,3.78027,0.3252l1.8916-0.18945
			c0,1.62012-0.1875,3.99707-0.54004,5.94141h-0.94531l-0.70215-3.67334c-1.18848-0.67578-2.45801-1.0542-3.88965-1.0542
			c-4.05078,0-6.34766,3.24121-6.34766,7.83301c0,4.86133,2.7832,8.10254,7.02148,8.10254
			C1152.11426-88.63574,1152.51953-89.04102,1154.27539-92.55176z"/>
		<path fill="#FFFFFF" d="M1182.49023-104.83984l-2.29492,1.08105v14.44971l2.29492,0.40479v0.67529
			c-0.67578,0.29688-1.75391,0.67529-3.24023,0.67529c-1.61914,0-2.56641-0.08105-3.91602-0.27051v-0.54102l2.29688-1.07959
			v-6.88721h-9.04883v7.02197l2.29492,0.40479v0.67529c-0.6748,0.29688-1.75391,0.67529-3.24023,0.67529
			c-1.62109,0-2.56543-0.08105-3.91602-0.27051v-0.54102l2.29492-1.08008v-14.44873l-2.29492-0.40479v-0.67529
			c0.67578-0.29688,1.75586-0.6748,3.24121-0.6748c1.62012,0,2.56543,0.08105,3.91504,0.271v0.54004l-2.29492,1.08105v5.94189
			h9.04883v-6.07715l-2.29688-0.40479v-0.67529c0.6748-0.29688,1.75586-0.6748,3.24121-0.6748
			c1.62012,0,2.56445,0.08105,3.91504,0.271V-104.83984z"/>
		<path fill="#FFFFFF" d="M1207.05859-87.28516c-0.1875,0.1084-0.40332,0.13623-0.6748,0.13623
			c-1.34863,0-2.72754-0.78418-5.13184-4.18701l-3.07812-4.32129h-2.05273v6.34717l2.29492,0.40479v0.67529
			c-0.6748,0.29688-1.75391,0.67529-3.24023,0.67529c-1.61914,0-2.29492-0.08105-3.91602-0.27051v-0.54102l2.29688-1.08008
			v-14.44873l-2.43164-0.271v-0.6748c1.89062-0.67529,3.56445-0.94531,5.45605-0.94531c5.2666,0,8.04785,1.21484,8.04785,4.72705
			c0,2.40283-1.48438,3.94287-3.80859,4.64502L1207.05859-87.28516z M1196.12109-97.00781h1.35059
			c2.70117,0,4.32129-1.35107,4.32129-3.78125c0-2.9707-2.16016-3.78223-5.13086-3.78223h-0.54102V-97.00781z"/>
		<path fill="#FFFFFF" d="M1227.57812-92.28125h0.81055c-0.05469,1.43213-0.2168,3.24121-0.54102,4.86133l-2.08008-0.27002
			h-11.28809V-88.5l2.15918-0.81006v-14.58398l-2.29492-0.271v-0.6748c1.2168-0.56738,2.02539-0.67529,3.5127-0.67529h7.75195
			l2.23926-0.27002c0,1.62012-0.21484,3.16016-0.54004,4.59131h-0.80957l-0.62109-2.97119h-6.67188v6.61719h5.21289l1.4043-1.35107
			h0.67578c-0.05469,1.56689-0.21582,3.15967-0.54102,4.72705h-0.67578l-0.86328-2.02637h-5.21289v7.15723h6.48242
			L1227.57812-92.28125z"/>
		<path fill="#FFFFFF" d="M1250.9082-92.55176h0.80957c0,1.70166-0.2168,2.97168-0.54004,4.5918
			c-1.35156,0.32422-2.83594,0.6748-5.2666,0.6748c-5.51074,0-9.4541-3.13184-9.4541-8.91309
			c0-6.0498,3.9707-9.72266,9.58887-9.72266c1.24219,0,2.56543,0.13574,3.78027,0.3252l1.8916-0.18945
			c0,1.62012-0.1875,3.99707-0.54004,5.94141h-0.94434l-0.70312-3.67334c-1.18848-0.67578-2.45801-1.0542-3.88965-1.0542
			c-4.05078,0-6.34766,3.24121-6.34766,7.83301c0,4.86133,2.7832,8.10254,7.02148,8.10254
			C1248.74707-88.63574,1249.15137-89.04102,1250.9082-92.55176z"/>
		<path fill="#FFFFFF" d="M1265.1875-103.75977v14.44971l2.2959,0.40479v0.67529c-0.67676,0.29688-1.75488,0.6748-3.24023,0.6748
			c-1.62109,0-2.29688-0.08057-3.91699-0.27002v-0.54102l2.2959-1.08008v-14.44873l-2.2959-0.40479v-0.67529
			c0.6748-0.29688,1.75684-0.6748,3.24121-0.6748c1.35156,0,2.2959,0.08105,3.375,0.271v0.54004L1265.1875-103.75977z
			 M1268.40039-97.38574l8.31836,10.01953c-0.1875,0.13623-0.48535,0.21729-0.86328,0.21729
			c-1.08203,0-2.4043-0.48584-4.45703-2.83594l-5.80664-6.61719l7.12988-7.26514l-2.94434-0.43164v-0.67529
			c0.67578-0.29688,1.75684-0.6748,3.24121-0.6748c1.62012,0,2.2959,0.08105,3.64648,0.271v0.54004l-1.72949,0.91797
			L1268.40039-97.38574z"/>
	</g>
	<path fill="#FFFFFF" d="M188.7002,582.59961V450.29883l8.40088-8.39844h16.79883v42h-16.79883v90.2998h16.79883v8.39941H188.7002
		L188.7002,582.59961z M197.10107,475.5H205.5v-25.20117h-8.39893V475.5z M222.29883,437.69922V423h8.39941v14.69922H222.29883z
		 M222.29883,582.59961V441.90039h8.39941v140.69922H222.29883z M241.19824,582.59961V450.29883H237v-8.39844h29.39893v140.69922
		H258V450.29883h-8.40088v132.30078H241.19824z M276.89893,582.59961V450.29883l8.39893-8.39844h16.80176v42h-16.80176v90.2998
		h16.80176v8.39941H276.89893L276.89893,582.59961z M285.29883,475.5h8.40137v-25.20117h-8.40137V475.5z M327.82324,582.59961
		v-8.39941h12.60059v-90.2998h-12.60059v-52.5l8.39844-8.39941h12.60156v8.39941h-12.60156V475.5h12.60156v98.69922
		l-8.39941,8.39941h-12.60059V582.59961z M357.22266,611.99805v-8.39844h16.7998v-21h-16.7998V441.90039h8.39941v132.2998h8.39844
		v-132.2998h8.39941v170.09863h-25.19727V611.99805z M392.92383,582.59961V450.29883h-4.20117v-8.39844h46.2002v140.69922h-8.39844
		V450.29883h-8.40137v132.30078h-8.39941V450.29883h-8.39844v132.30078H392.92383z M445.42383,620.39941V450.29883h-4.2002v-8.39844
		h29.39941v132.2998l-8.39941,8.39941h-8.40039v37.80078h-8.39941V620.39941z M453.82324,574.19922h8.40039V450.29883h-8.40039
		V574.19922z M497.92383,603.59961V450.29883h-8.39844v132.30078h-8.39941V423h8.39941v18.89941h16.7998v161.69922h-8.40137
		V603.59961z M516.82617,582.59961V450.29883l8.39844-8.39844h16.7998v132.2998l-8.39941,8.39941H516.82617L516.82617,582.59961z
		 M525.22559,574.19922h8.39941V450.29883h-8.39941V574.19922z M552.52637,582.59961V450.29883h-4.2002v-8.39844h29.39844v140.69922
		h-8.39844V450.29883h-8.39941v132.30078H552.52637z M588.22656,437.69922V423h8.40137v14.69922H588.22656z M588.22656,582.59961
		V441.90039h8.40137v140.69922H588.22656z M607.12793,582.59961V450.29883l8.39941-8.39844h16.80078v42h-16.80078v90.2998h16.80078
		v8.39941H607.12793L607.12793,582.59961z M615.52734,475.5h8.39844v-25.20117h-8.39844V475.5z M660.15039,582.59961V450.29883
		l8.39941-8.39844h8.40039V423h8.39844v159.59961H660.15039z M668.55078,574.19922h8.40039V450.29883h-8.40039V574.19922z
		 M695.85156,582.59961V450.29883l8.40039-8.39844h16.7998v42h-16.7998v90.2998h16.7998v8.39941H695.85156L695.85156,582.59961z
		 M704.25195,475.5h8.39844v-25.20117h-8.39844V475.5z M752.55078,450.29883H735.75v8.40039h16.80078v115.5l-8.40039,8.39941
		h-16.7998v-8.39941h16.7998V467.09961h-16.7998v-16.80078l8.39941-8.39844h16.80078V450.29883z M782.45215,582.59961V431.40039
		l8.39844-8.39941h14.70117v8.39941h-14.70117v142.7998h8.40039V475.5h8.40039v107.09961H782.45215z M818.15332,582.59961V450.29883
		h-4.2002v-8.39844h27.29883v27.2998h-8.39844V450.2998h-6.30078v132.2998H818.15332z M847.55469,582.59961V450.29883
		l8.39844-8.39844h16.80078v132.2998h4.19922v8.39941H847.55469L847.55469,582.59961z M855.95312,574.19922h8.40039V450.29883
		h-8.40039V574.19922z M883.25586,582.59961V441.90039h8.39844v132.2998h8.39941v-132.2998h8.40039v132.2998h4.19922v8.39941
		H883.25586z M918.95508,582.59961V450.29883l8.40039-8.39844h16.79883v42h-16.79883v90.2998h16.79883v8.39941H918.95508
		L918.95508,582.59961z M927.35547,475.5h8.39941v-25.20117h-8.39941V475.5z M952.55469,582.59961V441.90039h25.19922v140.69922
		h-8.39844V450.29883h-8.40137v132.30078H952.55469z M1011.35352,450.29883h-16.79883v8.40039h16.79883v115.5l-8.39844,8.39941
		H986.1543v-8.39941h16.80078V467.09961H986.1543v-16.80078l8.40039-8.39844h16.79883V450.29883z"/>
</g>
</svg>
