<?xml version="1.0" encoding="utf-8"?>
<!-- Generator: Adobe Illustrator 16.0.0, SVG Export Plug-In . SVG Version: 6.00 Build 0)  -->
<!DOCTYPE svg PUBLIC "-//W3C//DTD SVG 1.1//EN" "http://www.w3.org/Graphics/SVG/1.1/DTD/svg11.dtd">
<svg version="1.1" id="Layer_1" xmlns="http://www.w3.org/2000/svg" xmlns:xlink="http://www.w3.org/1999/xlink" x="0px" y="0px"
	 width="1800px" height="1012px" viewBox="-300 -168.5 1800 1012" enable-background="new -300 -168.5 1800 1012"
	 xml:space="preserve">
<rect x="-300" y="-168.5" fill="#F5F5F5" width="1800" height="1012"/>
<g>
	<g>
		<defs>
			<rect id="SVGID_1_" x="-300" y="-168.75" width="1800" height="1012.5"/>
		</defs>
		<clipPath id="SVGID_2_">
			<use xlink:href="#SVGID_1_"  overflow="visible"/>
		</clipPath>
		<path clip-path="url(#SVGID_2_)" fill="#BEF0DC" d="M1149.744,668.225L999.572,518.053L849.401,668.225l150.171,150.172
			L1149.744,668.225z M888.576,478.877c284.673,0,437.457-100.551,437.457-287.285c0-181.51-125.361-285.978-359.105-300.342
			l-91.41,202.405c127.973,6.528,195.875,45.704,195.875,110.996c0,60.068-63.984,91.408-182.816,91.408V478.877z M593.467,696.952
			L469.409,572.898L344.051,696.952l125.358,125.361L593.467,696.952z M383.227,521.971
			c228.52-6.53,379.998-127.973,379.998-312.097c0-168.453-117.525-283.366-301.649-318.624L378.001,42.728
			c121.443,20.893,195.876,92.713,195.876,172.37c0,92.714-73.126,146.254-190.651,154.088V521.971z M82.902,720.459L-21.565,615.99
			l-104.468,104.469l104.468,104.467L82.902,720.459z M-86.857,557.229c182.817-13.06,332.989-150.172,332.989-332.99
			c0-156.7-110.997-280.755-254.638-332.988L-86.857,2.246C30.668,34.892,109.019,132.83,109.019,224.238
			c0,117.525-78.351,189.348-195.876,202.406V557.229z"/>
	</g>
</g>
<g>
	<path d="M958.368-13.144l3.744,0.648v1.801c-1.368,0.863-3.386,1.8-7.201,1.8c-2.88,0-6.12-0.216-9-0.721v-1.439l5.256-1.801
		l-5.256-14.761h-16.274l-5.041,14.257l6.555,0.864v1.801c-1.369,0.792-3.602,1.8-7.201,1.8c-3.602,0-6.121-0.216-9.002-0.721
		v-1.439l4.393-2.305l16.851-43.419c2.016-0.72,4.103-1.081,6.12-1.081L958.368-13.144z M930.861-31.217h13.754l-6.913-19.514
		L930.861-31.217z"/>
	<path d="M1008.911-51.812l-0.36,18.074v10.44l0.721,14.041l-3.961,0.72l-30.242-37.587v31.898l10.082,1.368v2.161
		c-1.801,0.792-4.682,1.8-8.642,1.8c-4.321,0-7.562-0.216-11.882-0.721v-1.799l5.762-2.736l0.359-18.146v-10.081l-0.72-14.4
		l4.319-0.72l29.883,36.651v-30.891l-10.08-1.368v-2.16c1.8-0.792,4.68-1.8,8.641-1.8c4.32,0,7.561,0.215,11.881,0.72v1.8
		L1008.911-51.812z"/>
	<path d="M1058.59-57.5c0.577,5.329,0.217,9.792-1.297,15.121h-2.52l-1.152-10.801h-11.232v39.604l7.562,1.08v1.801
		c-2.017,0.792-5.401,1.8-9.362,1.8c-4.319,0-8.28-0.216-12.6-0.721v-1.439l7.56-2.88V-53.18h-11.161l-1.225,10.801h-2.52
		c-1.512-5.328-1.871-9.792-1.296-15.121l5.401,0.72h28.442L1058.59-57.5z"/>
	<path d="M1099.629-21.497h2.16c-0.145,3.816-0.576,8.64-1.439,12.961l-5.546-0.72h-30.099v-2.16l5.762-2.161v-38.883l-6.121-0.721
		v-1.8c3.24-1.512,5.4-1.8,9.361-1.8h20.666l5.977-0.72c0,4.32-0.577,8.424-1.441,12.241h-2.159l-1.657-7.921h-17.784v17.642h13.897
		l3.744-3.601h1.8c-0.146,4.177-0.577,8.425-1.44,12.602h-1.8l-2.304-5.4h-13.897v19.081h17.28L1099.629-21.497z"/>
	<path d="M1147.51-22.217h2.161c0,4.536-0.577,7.921-1.441,12.241c-3.599,0.864-7.56,1.8-14.04,1.8
		c-14.689,0-25.203-8.353-25.203-23.762c0-16.129,10.585-25.922,25.562-25.922c3.312,0,6.842,0.36,10.082,0.864l5.04-0.504
		c0,4.32-0.505,10.657-1.441,15.841h-2.52l-1.872-9.792c-3.168-1.8-6.553-2.808-10.369-2.808c-10.801,0-16.921,8.64-16.921,20.881
		c0,12.962,7.417,21.602,18.721,21.602C1141.749-11.776,1142.83-12.856,1147.51-22.217z"/>
	<path d="M1193.59-21.497h2.16c-0.145,3.816-0.576,8.64-1.439,12.961l-5.546-0.72h-30.099v-2.16l5.762-2.161v-38.883l-6.121-0.721
		v-1.8c3.24-1.512,5.4-1.8,9.361-1.8h20.666l5.977-0.72c0,4.32-0.577,8.424-1.441,12.241h-2.159l-1.657-7.921h-17.784v17.642h13.897
		l3.744-3.601h1.8c-0.146,4.177-0.577,8.425-1.44,12.602h-1.8l-2.304-5.4h-13.897v19.081h17.28L1193.59-21.497z"/>
	<path d="M1251.551-34.818c0,16.633-8.856,25.562-30.243,25.562h-16.201v-2.16l5.76-2.52v-38.884l-6.48-0.72V-55.7
		c5.04-1.439,9.721-2.16,18.362-2.16C1240.029-57.86,1251.551-50.659,1251.551-34.818z M1221.308-12.856
		c17.569,0,22.682-7.849,22.682-21.961c0-13.393-9.433-19.802-22.682-19.802h-3.601v41.763H1221.308z"/>
	<path d="M1294.028-21.497h2.161c-0.146,3.816-0.578,8.64-1.44,12.961l-5.546-0.72h-30.098v-2.16l5.761-2.161v-38.883l-6.122-0.721
		v-1.8c3.24-1.512,5.401-1.8,9.362-1.8h20.666l5.977-0.72c0,4.32-0.577,8.424-1.441,12.241h-2.159l-1.656-7.921h-17.785v17.642
		h13.896l3.744-3.601h1.801c-0.145,4.177-0.577,8.425-1.439,12.602h-1.801l-2.305-5.4h-13.896v19.081h17.281L1294.028-21.497z"/>
	<path d="M1348.028-51.812l-0.36,18.074v10.44l0.721,14.041l-3.961,0.72l-30.242-37.587v31.898l10.082,1.368v2.161
		c-1.801,0.792-4.682,1.8-8.642,1.8c-4.321,0-7.562-0.216-11.882-0.721v-1.799l5.762-2.736l0.359-18.146v-10.081l-0.72-14.4
		l4.319-0.72l29.883,36.651v-30.891l-10.08-1.368v-2.16c1.8-0.792,4.68-1.8,8.641-1.8c4.32,0,7.561,0.215,11.881,0.72v1.8
		L1348.028-51.812z"/>
	<path d="M1397.707-57.5c0.577,5.329,0.217,9.792-1.297,15.121h-2.52l-1.152-10.801h-11.232v39.604l7.562,1.08v1.801
		c-2.017,0.792-5.401,1.8-9.362,1.8c-4.319,0-8.28-0.216-12.6-0.721v-1.439l7.56-2.88V-53.18h-11.161l-1.225,10.801h-2.52
		c-1.512-5.328-1.871-9.792-1.296-15.121l5.401,0.72h28.442L1397.707-57.5z"/>
	<path d="M1435.146-23.657c0,9.361-5.401,15.122-16.201,15.122c-5.04,0-11.521-0.72-15.841-1.44c0-4.32,0.359-9.361,1.439-14.401
		h2.16c1.8,10.081,2.521,12.241,12.962,12.241c6.48,0,8.64-2.88,8.64-8.64c0-2.305-0.215-4.608-1.223-6.913l-9.578-2.088
		c-8.713-1.944-13.682-4.68-13.682-13.321c0-9.36,7.921-14.401,17.283-14.401c3.24,0,6.048,0.216,8.424,0.432l3.816-0.432
		c0,4.32-0.361,8.64-1.44,13.681h-2.161l-1.654-8.425c-2.377-0.936-5.041-1.656-7.705-1.656c-5.76,0-9.721,3.24-9.721,9
		s3.24,7.345,9.721,8.641C1434.785-33.45,1435.146-33.018,1435.146-23.657z"/>
</g>
<g>
	<path d="M914.842,80.384l0.144-1.439l5.76-2.521l5.618-39.243l-5.977-0.72l0.215-1.801c1.943-0.792,4.969-1.8,8.93-1.8
		c2.88,0,6.049,0.216,8.856,0.72l-0.146,1.44l-5.76,2.521l-5.615,39.243l5.977,0.72l-0.217,1.801c-1.944,0.792-4.248,1.8-8.209,1.8
		C920.818,81.104,918.369,80.889,914.842,80.384z"/>
	<path d="M966.611,76.784l5.473,0.72l-0.216,1.801c-3.601,1.439-7.488,2.16-11.666,2.16l4.104-29.522
		c0.289-2.232,0.145-3.168-3.384-3.168l-10.657,6.769l-3.383,25.202h-5.762l4.32-32.042l-5.4-0.72l0.216-1.8
		c3.601-1.44,7.417-2.16,11.593-2.16l-1.151,8.353l12.386-8.353c3.6,0,6.119,0.359,6.84,1.08c0.72,0.72,0.791,2.52,0.072,7.561
		L966.611,76.784z"/>
	<path d="M980.936,80.024c-1.439-1.152-1.584-3.528-1.223-6.121l3.383-24.121l-4.536-1.081l0.217-1.44l10.153-8.641h1.439
		l-0.793,6.121h9.002l-0.576,3.96h-9.001l-3.24,23.402c-0.433,3.024-0.144,4.32,2.016,4.32c1.44,0,4.249-1.656,7.13-3.096
		l0.287,1.439l-4.177,4.537c-1.583,1.008-3.599,1.8-5.76,1.8C983.816,81.104,982.017,80.889,980.936,80.024z"/>
	<path d="M1025.435,52.302c-0.937,4.608-4.825,10.657-19.442,11.809c-0.576,5.328-0.433,10.081,1.08,11.593
		c1.08,1.08,2.665,1.296,4.824,1.296c3.601,0,7.129-2.016,10.01-3.816l0.288,1.44l-3.817,4.321c-2.88,1.439-5.76,2.52-9.36,2.52
		c-2.808,0-5.329-0.648-7.201-2.52c-2.159-2.16-2.52-8.353-1.368-16.921c1.01-6.409,3.025-9.721,5.329-12.241
		c2.736-2.953,7.705-5.761,12.024-5.761C1023.777,44.021,1026.371,47.405,1025.435,52.302z M1015.497,47.621
		c-2.665,0-4.465,0.864-5.76,2.305c-1.081,1.225-2.304,4.176-3.386,11.233c10.082-1.081,13.465-5.329,13.682-8.497
		C1020.249,49.566,1019.025,47.621,1015.497,47.621z"/>
	<path d="M1048.402,44.021c1.439,0,3.095,0.216,4.823,0.72c-0.504,3.6-1.296,6.84-2.952,11.161h-2.377
		c0.36-6.48-0.359-6.84-1.799-6.84l-6.841,4.176l-3.744,27.506h-5.761l4.319-32.042l-5.399-0.72l0.215-1.8
		c3.602-1.44,7.417-2.16,11.594-2.16l-0.865,6.12L1048.402,44.021z"/>
	<path d="M1061.145,61.303c-0.936,6.48-1.081,12.745,0.719,14.545c1.082,1.08,2.232,1.295,4.105,1.295
		c2.16,0,5.328-0.72,10.009-3.96l0.288,1.44l-3.816,4.321c-2.52,1.439-5.545,2.52-8.785,2.52c-2.809,0-5.184-0.648-7.057-2.52
		c-2.16-2.16-2.521-8.353-1.367-16.921c1.008-7.128,3.672-10.801,6.191-12.961c2.449-2.161,6.48-4.752,11.521-4.752
		c1.513,0,2.953,0.359,4.176,0.792l1.081,4.681l-0.721,0.72c-2.665-1.296-5.256-1.8-7.417-1.8c-2.16,0-4.032,0.72-5.256,1.8
		C1063.592,51.582,1062.152,54.102,1061.145,61.303z"/>
	<path d="M1107.152,76.784l5.473,0.72l-0.215,1.801c-3.602,1.439-7.488,2.16-11.666,2.16l4.104-29.522
		c0.361-2.52,0-3.024-3.599-3.024l-10.802,6.912l-3.24,24.914h-5.833l6.697-51.484l-5.401-0.721l0.217-1.799
		c3.096-1.152,6.913-2.161,11.594-2.161l-3.602,28.083l12.746-8.641c3.601,0,6.12,0.359,6.841,1.08
		c0.72,0.72,0.791,2.52,0.071,7.561L1107.152,76.784z"/>
	<path d="M1143.367,76.784l5.473,0.72l-0.217,1.801c-3.599,1.439-8.207,2.16-11.664,2.16l1.152-8.353l-12.385,8.353
		c-3.457,0-5.833-0.288-6.697-1.008c-0.576-0.504-0.719-1.225-0.719-2.593c0-14.401,2.158-22.321,6.48-26.642
		c2.879-2.88,7.416-7.2,13.176-7.2c1.439,0,3.097,0.072,4.608,0.144l2.089-3.744h3.601L1143.367,76.784z M1138.544,69.943
		l2.808-20.738c-1.225-0.072-2.449-0.144-3.385-0.144c-2.88,0-7.345,0.288-8.856,1.799c-2.88,2.881-4.681,12.602-4.681,23.402
		c0,2.16,0.865,2.376,3.385,2.376L1138.544,69.943z"/>
	<path d="M1181.383,76.784l5.473,0.72l-0.215,1.801c-3.601,1.439-7.488,2.16-11.666,2.16l4.104-29.522
		c0.288-2.232,0.146-3.168-3.384-3.168l-10.656,6.769l-3.385,25.202h-5.761l4.319-32.042l-5.398-0.72l0.215-1.8
		c3.601-1.44,7.416-2.16,11.593-2.16l-1.151,8.353l12.385-8.353c3.602,0,6.121,0.359,6.842,1.08c0.719,0.72,0.791,2.52,0.071,7.561
		L1181.383,76.784z"/>
	<path d="M1218.75,40.421h3.601l-5.185,37.947c-0.719,5.329-2.232,8.497-5.688,11.737c-3.672,3.312-7.058,5.041-12.098,5.041
		c-2.16,0-5.039-0.216-8.641-1.081c-0.721-1.296-1.225-2.808-1.367-4.681l0.432-0.72c3.959,0.792,7.849,1.44,12.889,1.44
		c6.049,0,7.271-1.152,8.281-8.641l1.151-8.281l-12.313,8.281c-3.455,0-5.832-0.288-6.695-1.008
		c-0.576-0.504-0.721-1.225-0.721-2.593c0-14.401,2.16-22.321,6.48-26.642c2.881-2.88,7.416-7.2,13.178-7.2
		c1.729,0,3.24,0.072,4.607,0.144L1218.75,40.421z M1212.559,69.943l2.808-20.738c-1.079-0.072-2.161-0.144-3.312-0.144
		c-2.881,0-7.346,0.288-8.857,1.799c-2.881,2.881-4.68,12.602-4.68,23.402c0,1.656,0.432,2.16,1.872,2.16
		c0.864,0,2.232-0.288,3.527-1.08L1212.559,69.943z"/>
	<path d="M1252.375,52.302c-0.936,4.608-4.824,10.657-19.442,11.809c-0.575,5.328-0.431,10.081,1.081,11.593
		c1.08,1.08,2.664,1.296,4.824,1.296c3.6,0,7.129-2.016,10.009-3.816l0.288,1.44l-3.816,4.321c-2.881,1.439-5.76,2.52-9.361,2.52
		c-2.808,0-5.328-0.648-7.201-2.52c-2.158-2.16-2.52-8.353-1.367-16.921c1.009-6.409,3.024-9.721,5.328-12.241
		c2.736-2.953,7.705-5.761,12.025-5.761C1250.719,44.021,1253.312,47.405,1252.375,52.302z M1242.438,47.621
		c-2.664,0-4.465,0.864-5.76,2.305c-1.08,1.225-2.304,4.176-3.385,11.233c10.081-1.081,13.465-5.329,13.682-8.497
		C1247.189,49.566,1245.967,47.621,1242.438,47.621z"/>
	<path d="M1280.166,76.784l5.473,0.72l-0.217,1.801c-3.599,1.439-8.207,2.16-11.664,2.16l1.152-8.353l-12.385,8.353
		c-3.457,0-5.833-0.288-6.697-1.008c-0.576-0.504-0.719-1.225-0.719-2.593c0-14.401,2.158-22.321,6.48-26.642
		c2.879-2.88,7.416-7.2,13.176-7.2c1.439,0,3.097,0.072,4.608,0.144l2.089-3.744h3.601L1280.166,76.784z M1275.343,69.943
		l2.808-20.738c-1.225-0.072-2.449-0.144-3.385-0.144c-2.88,0-7.345,0.288-8.856,1.799c-2.88,2.881-4.681,12.602-4.681,23.402
		c0,2.16,0.865,2.376,3.385,2.376L1275.343,69.943z"/>
	<path d="M1322.071,47.621c0,14.402-2.161,22.322-6.48,26.643c-2.88,2.88-7.417,7.201-13.178,7.201c-4.319,0-7.56-0.36-10.009-0.72
		l6.697-51.484l-5.401-0.721l0.217-1.799c3.095-1.152,6.913-2.161,11.593-2.161l-3.601,28.083l12.745-8.641
		c3.456,0,5.832,0.288,6.696,1.008C1321.928,45.533,1322.071,46.253,1322.071,47.621z M1315.951,51.222
		c0-2.16-0.793-2.376-3.313-2.376l-11.161,6.984l-2.664,20.45c1.152,0.072,2.305,0.144,3.601,0.144c2.88,0,7.345-0.288,8.856-1.8
		C1314.15,71.744,1315.951,62.023,1315.951,51.222z"/>
	<path d="M1333.156,48.702l-5.4-0.72l0.216-1.8c3.601-1.44,7.417-2.16,11.593-2.16l-4.392,32.691l5.473,0.72l-0.217,1.799
		c-3.601,1.441-7.488,2.161-11.665,2.161L1333.156,48.702z M1333.661,32.644c0-1.224,3.384-4.825,4.535-4.825
		c1.225,0,5.186,2.953,5.186,4.104c0,1.224-3.313,4.896-4.465,4.896C1337.692,36.82,1333.661,33.796,1333.661,32.644z"/>
	<path d="M1354.324,29.26l-5.4-0.721l0.217-1.799c3.095-1.152,6.912-2.161,11.592-2.161l-6.769,52.205l5.473,0.72l-0.216,1.801
		c-3.6,1.439-7.344,2.16-11.666,2.16L1354.324,29.26z"/>
	<path d="M1371.243,48.702l-5.399-0.72l0.215-1.8c3.602-1.44,7.417-2.16,11.594-2.16l-4.393,32.691l5.473,0.72l-0.217,1.799
		c-3.6,1.441-7.488,2.161-11.664,2.161L1371.243,48.702z M1371.748,32.644c0-1.224,3.385-4.825,4.535-4.825
		c1.225,0,5.186,2.953,5.186,4.104c0,1.224-3.312,4.896-4.465,4.896C1375.779,36.82,1371.748,33.796,1371.748,32.644z"/>
	<path d="M1387.588,80.024c-1.441-1.152-1.585-3.528-1.225-6.121l3.384-24.121l-4.536-1.081l0.217-1.44l10.152-8.641h1.439
		l-0.792,6.121h9.001l-0.575,3.96h-9.001l-3.24,23.402c-0.433,3.024-0.145,4.32,2.016,4.32c1.439,0,4.249-1.656,7.129-3.096
		l0.287,1.439l-4.176,4.537c-1.584,1.008-3.6,1.8-5.76,1.8C1390.468,81.104,1388.668,80.889,1387.588,80.024z"/>
	<path d="M1431.365,45.101l5.904-0.72l-4.68,33.987c-0.721,5.329-2.232,8.497-5.689,11.737c-3.673,3.312-7.057,5.041-12.098,5.041
		c-2.16,0-5.04-0.216-8.641-1.081l-1.368-4.681l0.433-0.72c3.961,0.792,7.848,1.44,12.889,1.44c6.049,0,7.273-1.152,8.281-8.641
		l1.152-8.281l-11.593,8.281c-3.601,0-6.122-0.36-6.841-1.081c-0.721-0.72-0.793-2.52-0.072-7.56l3.385-24.123h-5.473l0.217-1.8
		c3.599-1.8,7.488-2.88,11.664-2.88l-4.104,29.522c-0.36,2.808,0.504,3.096,3.24,3.096l10.009-6.696L1431.365,45.101z"/>
</g>
<g>
	<path d="M954.841,122.5c0,4.32-0.575,8.424-1.44,12.241h-2.158l-1.657-7.921H933.24v19.082h12.457l3.744-3.6h1.801
		c-0.146,4.176-0.578,8.424-1.441,12.601h-1.799l-2.305-5.4H933.24v16.921l9,1.08v1.801c-2.016,0.792-5.4,1.8-9.36,1.8
		c-4.321,0-8.28-0.216-12.603-0.721v-1.439l6.122-2.88v-38.523l-6.122-0.721v-1.8c3.24-1.512,5.401-1.8,9.362-1.8h19.225
		L954.841,122.5z"/>
	<path d="M996.961,167.504v1.801c-2.88,1.079-6.841,2.16-11.881,2.16v-5.041l-9,4.969c-3.529-0.216-6.193-1.08-8.066-1.944
		c-3.023-1.44-3.455-3.024-3.455-5.256v-25.13l-5.4-1.081v-1.8c2.879-1.081,6.84-2.16,12.6-2.16
		c-0.504,4.32-0.719,7.92-0.719,11.521v15.049c0,2.16,0.36,3.312,1.801,4.032c1.439,0.721,3.959,1.729,7.199,1.729l5.041-2.16
		v-25.13l-5.4-1.081v-1.8c2.881-1.081,6.84-2.16,12.602-2.16c-0.504,4.32-0.721,7.92-0.721,11.521v20.881L996.961,167.504z"/>
	<path d="M1038.721,167.504v1.081c-1.801,1.44-3.961,2.52-6.121,2.52c-2.881,0-5.688-0.36-9.721-1.08v-1.08l3.961-2.88v-21.243
		c0-2.16-0.361-3.312-1.801-4.032c-1.439-0.72-3.961-1.728-7.201-1.728l-5.4,2.16v25.202l5.4,1.08v1.081
		c-1.801,1.44-3.959,2.52-6.12,2.52c-2.88,0-5.688-0.36-9.721-1.08v-1.08l3.96-2.88v-27.002l-5.4-1.081v-1.8
		c2.881-1.081,6.842-2.16,11.881-2.16v5.041l9.361-5.041c3.527,0.216,6.191,1.08,8.064,1.944c3.024,1.44,3.457,3.024,3.457,5.256
		v25.202L1038.721,167.504z"/>
	<path d="M1078.102,167.504v1.801c-2.88,1.079-6.841,2.16-11.88,2.16v-5.041l-9.362,5.041c-5.04-0.36-9-1.8-10.439-3.24
		c-1.441-1.44-3.025-5.4-3.025-13.321c0-10.081,3.602-14.185,7.705-17.282c2.881-2.16,5.832-3.6,10.082-3.6
		c1.512,0,3.168,0.072,5.04,0.216V119.62l-5.401-1.081v-1.799c2.881-1.081,6.842-2.161,12.602-2.161
		c-0.504,4.321-0.72,7.921-0.72,11.521v40.323L1078.102,167.504z M1066.222,164.264v-24.41c-1.945-0.504-3.817-0.792-5.761-0.792
		c-3.744,0-6.338,0.288-7.85,1.799c-2.016,1.945-2.592,4.897-2.592,11.882c0,5.04,0.721,9.721,2.16,11.16
		c1.439,1.441,4.68,2.161,9.002,2.161L1066.222,164.264z"/>
	<path d="M1113.381,167.504v1.801c-2.88,1.079-6.84,2.16-11.88,2.16v-5.041l-7.922,5.041c-8.136,0-11.161-4.176-11.161-10.801
		c0-1.079,0.072-3.096,0.217-5.04l18.866-4.464v-6.337c0-2.16-0.36-3.671-1.8-4.392c-1.44-0.72-3.24-1.008-6.122-1.008
		c-2.88,0-6.12,0.72-9.36,1.8l-0.36-0.72l2.521-4.681c3.24-1.152,6.48-1.8,10.082-1.8c5.04,0,8.639,1.44,10.08,2.88
		c1.44,1.44,1.44,2.161,1.44,5.761v23.762L1113.381,167.504z M1101.501,164.264v-9.433l-12.457,1.728v1.801
		c0,5.76,2.736,8.064,7.775,8.064L1101.501,164.264z"/>
	<path d="M1175.303,167.504v1.081c-1.801,1.44-3.959,2.52-6.12,2.52c-2.88,0-5.688-0.36-9.721-1.08v-1.08l3.96-2.88v-21.243
		c0-2.16-0.359-3.312-1.799-4.032c-1.441-0.72-3.961-1.728-7.201-1.728l-5.041,2.016v0.144v25.202l5.4,1.08v1.081
		c-1.8,1.44-3.961,2.52-6.121,2.52c-2.88,0-5.688-0.36-9.721-1.08v-1.08l3.961-2.88v-21.243c0-2.16-0.36-3.312-1.801-4.032
		c-1.439-0.72-3.961-1.728-7.201-1.728l-5.04,2.016v25.346l5.401,1.08v1.081c-1.801,1.44-3.96,2.52-6.121,2.52
		c-2.879,0-5.688-0.36-9.721-1.08v-1.08l3.96-2.88v-27.002l-5.399-1.081v-1.8c2.88-1.081,6.841-2.16,11.88-2.16v4.824l9.001-4.824
		c3.529,0.216,6.192,1.08,8.064,1.944c1.873,0.864,2.736,1.872,3.168,3.024l9.291-4.968c3.527,0.216,6.191,1.08,8.063,1.944
		c3.024,1.44,3.457,3.024,3.457,5.256v25.202L1175.303,167.504z"/>
	<path d="M1186.457,150.583v2.16c0,5.04,0.289,8.929,2.881,11.16c2.232,1.872,5.4,2.161,8.641,2.161c2.88,0,5.762-0.36,7.92-0.72
		l0.361,0.72l-3.24,3.96c-2.161,0.72-5.041,1.44-7.921,1.44c-4.248,0-8.353-0.504-11.161-3.24
		c-3.385-3.168-3.961-8.353-3.961-15.481c0-7.129,1.44-10.585,3.602-12.961c2.304-2.521,7.56-5.761,11.881-5.761
		c8.136,0,12.24,2.736,12.24,11.881c0,1.368-0.144,2.952-0.36,4.681H1186.457z M1188.258,139.926
		c-0.864,0.864-1.512,3.384-1.729,8.353l14.329-1.368v-1.008c0-6.12-3.095-7.561-7.921-7.561
		C1190.994,138.341,1189.338,138.846,1188.258,139.926z"/>
	<path d="M1250.18,167.504v1.081c-1.799,1.44-3.959,2.52-6.12,2.52c-2.88,0-5.688-0.36-9.721-1.08v-1.08l3.961-2.88v-21.243
		c0-2.16-0.36-3.312-1.8-4.032c-1.44-0.72-3.961-1.728-7.201-1.728l-5.401,2.16v25.202l5.401,1.08v1.081
		c-1.801,1.44-3.96,2.52-6.121,2.52c-2.879,0-5.688-0.36-9.721-1.08v-1.08l3.96-2.88v-27.002l-5.399-1.081v-1.8
		c2.88-1.081,6.841-2.16,11.88-2.16v5.041l9.362-5.041c3.527,0.216,6.191,1.08,8.063,1.944c3.024,1.44,3.457,3.024,3.457,5.256
		v25.202L1250.18,167.504z"/>
	<path d="M1258.816,163.544v-23.762l-4.682-1.081v-1.44l9.723-8.641h1.439v6.121h9.721v4.681h-9.721v22.682c0,3.96,1.08,4.68,9,5.4
		v1.801c-2.159,0.72-5.76,1.8-9.36,1.8C1259.752,171.104,1258.816,169.521,1258.816,163.544z"/>
	<path d="M1309.578,167.504v1.801c-2.881,1.079-6.84,2.16-11.881,2.16v-5.041l-7.922,5.041c-8.135,0-11.16-4.176-11.16-10.801
		c0-1.079,0.072-3.096,0.217-5.04l18.865-4.464v-6.337c0-2.16-0.359-3.671-1.8-4.392c-1.44-0.72-3.24-1.008-6.122-1.008
		c-2.879,0-6.119,0.72-9.359,1.8l-0.361-0.72l2.521-4.681c3.24-1.152,6.48-1.8,10.081-1.8c5.04,0,8.64,1.44,10.081,2.88
		c1.439,1.44,1.439,2.161,1.439,5.761v23.762L1309.578,167.504z M1297.697,164.264v-9.433l-12.457,1.728v1.801
		c0,5.76,2.736,8.064,7.777,8.064L1297.697,164.264z"/>
	<path d="M1330.096,167.504v1.081c-1.799,1.44-3.959,2.52-6.12,2.52c-2.88,0-5.688-0.36-9.721-1.08v-1.08l3.961-2.88V119.62
		l-5.401-1.081v-1.799c2.881-1.081,6.842-2.161,12.602-2.161c-0.504,4.321-0.72,7.921-0.72,11.521v40.323L1330.096,167.504z"/>
	<path d="M1350.976,167.504v1.081c-1.8,1.44-3.96,2.52-6.12,2.52c-2.88,0-5.688-0.36-9.721-1.08v-1.08l3.959-2.88v-27.002
		l-5.398-1.081v-1.8c2.879-1.081,6.84-2.16,12.6-2.16c-0.504,4.32-0.721,7.92-0.721,11.521v20.881L1350.976,167.504z
		 M1337.078,123.364c0-1.296,3.602-5.185,4.897-5.185c1.295,0,5.544,3.169,5.544,4.464c0,1.296-3.528,5.256-4.824,5.256
		C1341.398,127.9,1337.078,124.66,1337.078,123.364z"/>
	<path d="M1380.495,159.224c0,7.2-4.681,12.241-13.321,12.241c-3.601,0-8.281-0.36-11.881-1.081c0-3.6,0.217-7.92,0.721-11.521h2.16
		c1.799,7.201,2.88,9.361,10.08,9.361c4.32,0,5.761-2.16,5.761-6.48c0-1.656-0.144-3.168-0.36-4.608l-5.76-1.008
		c-9.506-1.657-12.242-4.825-12.242-10.585c0-6.48,5.762-11.521,12.961-11.521c2.018,0,4.537,0.144,7.13,0.504l3.673-0.504
		c0,3.6-0.361,7.92-1.082,10.8h-2.158l-1.297-5.904c-2.305-1.297-4.537-1.656-6.266-1.656c-4.319,0-6.84,2.16-6.84,5.761
		c0,4.319,2.449,5.904,8.064,6.84C1380.495,151.663,1380.495,151.807,1380.495,159.224z"/>
	<path d="M1390.573,163.544v-23.762l-4.682-1.081v-1.44l9.722-8.641h1.44v6.121h9.721v4.681h-9.721v22.682c0,3.96,1.079,4.68,9,5.4
		v1.801c-2.159,0.72-5.76,1.8-9.36,1.8C1391.51,171.104,1390.573,169.521,1390.573,163.544z"/>
	<path d="M1435.574,159.224c0,7.2-4.68,12.241-13.32,12.241c-3.602,0-8.281-0.36-11.882-1.081c0-3.6,0.217-7.92,0.721-11.521h2.159
		c1.801,7.201,2.881,9.361,10.081,9.361c4.321,0,5.761-2.16,5.761-6.48c0-1.656-0.143-3.168-0.359-4.608l-5.76-1.008
		c-9.506-1.657-12.242-4.825-12.242-10.585c0-6.48,5.762-11.521,12.961-11.521c2.018,0,4.537,0.144,7.129,0.504l3.673-0.504
		c0,3.6-0.36,7.92-1.081,10.8h-2.159l-1.296-5.904c-2.305-1.297-4.537-1.656-6.266-1.656c-4.32,0-6.841,2.16-6.841,5.761
		c0,4.319,2.449,5.904,8.065,6.84C1435.574,151.663,1435.574,151.807,1435.574,159.224z"/>
</g>
<g>
	<path d="M960.707,234.462c-2.375,16.634-11.808,26.282-30.314,26.282h-15.48l0.287-2.16l5.977-1.8l5.617-39.604l-6.408-0.72
		l0.287-2.161c5.258-1.439,9.289-2.16,17.93-2.16C953.002,212.14,962.939,218.621,960.707,234.462z M936.729,215.38h-3.601
		l-5.832,41.763h3.6c14.689,0,20.811-7.128,22.755-21.241C955.523,222.509,948.539,215.38,936.729,215.38z"/>
	<path d="M985.619,224.021c1.439,0,3.095,0.216,4.823,0.72c-0.504,3.6-1.296,6.84-2.952,11.161h-2.377
		c0.36-6.48-0.359-6.84-1.799-6.84l-6.841,4.176l-3.744,27.506h-5.761l4.319-32.042l-5.399-0.72l0.215-1.8
		c3.602-1.44,7.417-2.16,11.594-2.16l-0.865,6.12L985.619,224.021z"/>
	<path d="M1016.434,256.784l5.473,0.72l-0.217,1.801c-3.6,1.439-8.208,2.16-11.665,2.16l1.153-8.353l-12.386,8.353
		c-3.457,0-5.833-0.288-6.697-1.008c-0.575-0.504-0.72-1.225-0.72-2.593c0-14.401,2.16-22.321,6.48-26.642
		c2.881-2.88,7.417-7.2,13.177-7.2c1.44,0,3.097,0.072,4.608,0.144l2.089-3.744h3.601L1016.434,256.784z M1011.609,249.943
		l2.809-20.738c-1.225-0.072-2.449-0.144-3.386-0.144c-2.88,0-7.345,0.288-8.856,1.799c-2.88,2.881-4.68,12.602-4.68,23.402
		c0,2.16,0.863,2.376,3.383,2.376L1011.609,249.943z"/>
	<path d="M1054.233,256.784l5.473,0.72l-0.217,1.801c-3.601,1.439-8.209,2.16-11.665,2.16l1.153-8.281l-12.313,8.281
		c-3.601,0-6.12-0.36-6.841-1.44c-0.575-0.864-0.792-2.161-0.071-7.2l3.383-24.123l-5.473-0.72l0.217-1.8
		c3.602-1.44,7.488-2.16,11.665-2.16l-4.104,29.522c-0.36,2.808,0.576,3.096,3.097,3.096l10.872-6.696l3.385-24.842l5.905-0.72
		L1054.233,256.784z"/>
	<path d="M1091.385,220.421h3.601l-5.185,37.947c-0.719,5.329-2.232,8.497-5.688,11.737c-3.672,3.312-7.058,5.041-12.098,5.041
		c-2.16,0-5.039-0.216-8.641-1.081c-0.721-1.296-1.225-2.808-1.367-4.681l0.432-0.72c3.959,0.792,7.849,1.44,12.889,1.44
		c6.049,0,7.271-1.152,8.281-8.641l1.151-8.281l-12.313,8.281c-3.455,0-5.832-0.288-6.695-1.008
		c-0.576-0.504-0.721-1.225-0.721-2.593c0-14.401,2.16-22.321,6.48-26.642c2.881-2.88,7.416-7.2,13.178-7.2
		c1.729,0,3.24,0.072,4.607,0.144L1091.385,220.421z M1085.193,249.943l2.808-20.738c-1.079-0.072-2.161-0.144-3.312-0.144
		c-2.881,0-7.346,0.288-8.857,1.799c-2.881,2.881-4.68,12.602-4.68,23.402c0,1.656,0.432,2.16,1.872,2.16
		c0.864,0,2.232-0.288,3.527-1.08L1085.193,249.943z"/>
	<path d="M1126.736,256.784l5.473,0.72l-0.216,1.801c-3.601,1.439-7.488,2.16-11.666,2.16l4.104-29.522c0.36-2.52,0-3.024-3.6-3.024
		l-10.801,6.912l-3.24,24.914h-5.834l6.697-51.484l-5.4-0.721l0.217-1.799c3.096-1.152,6.912-2.161,11.593-2.161l-3.601,28.083
		l12.746-8.641c3.6,0,6.119,0.359,6.84,1.08c0.72,0.72,0.791,2.52,0.072,7.561L1126.736,256.784z"/>
	<path d="M1141.061,260.024c-1.439-1.152-1.584-3.528-1.223-6.121l3.383-24.121l-4.536-1.081l0.217-1.44l10.153-8.641h1.439
		l-0.793,6.121h9.002l-0.576,3.96h-9.001l-3.24,23.402c-0.433,3.024-0.144,4.32,2.016,4.32c1.44,0,4.249-1.656,7.13-3.096
		l0.287,1.439l-4.177,4.537c-1.583,1.008-3.599,1.8-5.76,1.8C1143.941,261.104,1142.142,260.889,1141.061,260.024z"/>
	<path d="M1178.719,241.663c4.68,1.729,5.041,2.88,5.041,5.76c0,7.201-3.961,14.042-13.322,14.042c-3.6,0-7.201-0.504-10.513-1.44
		c-0.288-3.601,0.433-7.561,1.368-11.161h2.16c0.72,7.921,2.088,9.721,7.85,9.721c4.248,0,6.912-4.249,6.552-11.162l-6.409-2.376
		c-6.552-2.448-9.001-5.544-9.001-10.585c0-5.76,5.04-10.44,12.241-10.44c2.881,0,6.049,0.288,10.01,1.08
		c-0.289,3.601-0.793,6.841-1.801,9.721h-2.088c-0.359-5.76-2.305-7.92-7.346-7.92c-3.599,0-6.048,2.161-6.048,5.401
		s1.872,5.904,6.769,7.705L1178.719,241.663z"/>
	<path d="M1234.377,256.784l5.473,0.72l-0.217,1.801c-3.601,1.439-7.488,2.16-11.664,2.16l4.104-29.522
		c0.287-2.304,0.216-3.168-2.664-3.168l-10.441,6.696l-3.6,25.274h-5.761l4.032-28.802c0.361-2.376,0.216-3.168-2.664-3.168
		l-10.656,6.769l-3.385,25.202h-5.761l4.319-32.042l-5.398-0.72l0.215-1.8c3.601-1.44,7.416-2.16,11.593-2.16l-1.151,8.353
		l12.168-8.353c3.602,0,5.617,0.359,6.338,1.08s0.792,2.449,0.143,7.128l11.953-8.208c3.602,0,5.617,0.359,6.338,1.08
		s0.792,2.52,0.071,7.561L1234.377,256.784z"/>
	<path d="M1270.591,256.784l5.473,0.72l-0.217,1.801c-3.599,1.439-8.208,2.16-11.665,2.16l1.153-8.353l-12.386,8.353
		c-3.457,0-5.832-0.288-6.697-1.008c-0.575-0.504-0.719-1.225-0.719-2.593c0-14.401,2.159-22.321,6.48-26.642
		c2.88-2.88,7.416-7.2,13.176-7.2c1.44,0,3.098,0.072,4.609,0.144l2.088-3.744h3.602L1270.591,256.784z M1265.768,249.943
		l2.808-20.738c-1.225-0.072-2.449-0.144-3.386-0.144c-2.879,0-7.344,0.288-8.855,1.799c-2.881,2.881-4.681,12.602-4.681,23.402
		c0,2.16,0.864,2.376,3.384,2.376L1265.768,249.943z"/>
	<path d="M1308.606,256.784l5.473,0.72l-0.216,1.801c-3.6,1.439-7.488,2.16-11.666,2.16l4.105-29.522
		c0.288-2.232,0.145-3.168-3.385-3.168l-10.656,6.769l-3.384,25.202h-5.761l4.319-32.042l-5.399-0.72l0.215-1.8
		c3.602-1.44,7.417-2.16,11.594-2.16l-1.152,8.353l12.386-8.353c3.601,0,6.12,0.359,6.841,1.08c0.719,0.72,0.791,2.52,0.072,7.561
		L1308.606,256.784z"/>
	<path d="M1338.27,241.663c4.68,1.729,5.041,2.88,5.041,5.76c0,7.201-3.961,14.042-13.322,14.042c-3.6,0-7.201-0.504-10.513-1.44
		c-0.288-3.601,0.433-7.561,1.368-11.161h2.16c0.72,7.921,2.088,9.721,7.85,9.721c4.248,0,6.912-4.249,6.552-11.162l-6.409-2.376
		c-6.552-2.448-9.001-5.544-9.001-10.585c0-5.76,5.04-10.44,12.241-10.44c2.881,0,6.049,0.288,10.01,1.08
		c-0.289,3.601-0.793,6.841-1.801,9.721h-2.088c-0.359-5.76-2.305-7.92-7.346-7.92c-3.599,0-6.048,2.161-6.048,5.401
		s1.872,5.904,6.769,7.705L1338.27,241.663z"/>
	<path d="M1376.212,256.784l5.473,0.72l-0.216,1.801c-3.6,1.439-7.488,2.16-11.666,2.16l4.105-29.522c0.359-2.52,0-3.024-3.6-3.024
		l-10.802,6.912l-3.24,24.914h-5.833l6.697-51.484l-5.4-0.721l0.217-1.799c3.095-1.152,6.912-2.161,11.592-2.161l-3.6,28.083
		l12.745-8.641c3.601,0,6.12,0.359,6.841,1.08c0.719,0.72,0.791,2.52,0.072,7.561L1376.212,256.784z"/>
	<path d="M1393.274,228.702l-5.399-0.72l0.215-1.8c3.602-1.44,7.417-2.16,11.594-2.16l-4.393,32.691l5.473,0.72l-0.217,1.799
		c-3.6,1.441-7.488,2.161-11.664,2.161L1393.274,228.702z M1393.779,212.644c0-1.224,3.385-4.825,4.535-4.825
		c1.225,0,5.186,2.953,5.186,4.104c0,1.224-3.312,4.896-4.465,4.896C1397.811,216.82,1393.779,213.796,1393.779,212.644z"/>
	<path d="M1437.7,227.621c0,14.402-2.159,22.322-6.48,26.643c-2.88,2.88-7.417,7.201-13.177,7.201c-1.513,0-2.808,0-4.032-0.072
		l-1.657,13.753l-6.119,1.44l6.193-47.884l-5.473-0.72l0.215-1.8c3.601-1.44,7.345-2.16,11.666-2.16l-1.01,7.992l12.457-7.992
		c3.457,0,5.834,0.288,6.697,1.008C1437.557,225.533,1437.7,226.253,1437.7,227.621z M1431.58,231.222
		c0-2.304-0.936-2.448-3.023-2.448l-11.162,6.48l-2.736,21.026c1.081,0.072,2.16,0.144,3.385,0.144c2.881,0,7.346-0.288,8.857-1.8
		C1429.779,251.744,1431.58,242.023,1431.58,231.222z"/>
</g>
<g>
	<path d="M961.322,351.824c-0.505,0.289-1.08,0.361-1.8,0.361c-3.601,0-7.272-2.088-13.682-11.161l-8.209-11.521h-5.473v16.922
		l6.122,1.079v1.8c-1.801,0.793-4.682,1.801-8.642,1.801c-4.321,0-6.12-0.217-10.441-0.721v-1.439l6.12-2.881v-38.523l-6.48-0.72
		v-1.8c5.041-1.8,9.506-2.521,14.546-2.521c14.04,0,21.457,3.24,21.457,12.601c0,6.409-3.96,10.514-10.153,12.386L961.322,351.824z
		 M932.159,325.903h3.601c7.201,0,11.521-3.6,11.521-10.081c0-7.92-5.76-10.081-13.682-10.081h-1.44V325.903z"/>
	<path d="M971.758,330.583v2.161c0,5.041,0.289,8.928,2.881,11.161c2.232,1.872,5.4,2.16,8.641,2.16c2.88,0,5.762-0.359,7.92-0.721
		l0.361,0.721l-3.24,3.96c-2.161,0.721-5.041,1.441-7.921,1.441c-4.248,0-8.353-0.505-11.161-3.24
		c-3.385-3.169-3.961-8.354-3.961-15.482c0-7.128,1.44-10.585,3.602-12.961c2.304-2.52,7.56-5.76,11.881-5.76
		c8.136,0,12.24,2.735,12.24,11.88c0,1.368-0.144,2.953-0.36,4.68H971.758z M973.559,319.926c-0.864,0.864-1.512,3.384-1.729,8.353
		l14.329-1.368v-1.008c0-6.12-3.095-7.561-7.921-7.561C976.295,318.342,974.639,318.847,973.559,319.926z"/>
	<path d="M1032.023,330.583c0,10.081-3.601,14.186-7.705,17.282c-2.88,2.159-5.832,3.601-10.081,3.601
		c-1.512,0-3.167-0.073-5.04-0.217v13.178l-6.48,1.44v-46.805l-5.4-1.08v-1.8c2.881-1.081,6.842-2.16,11.881-2.16v5.04l9.361-5.04
		c5.041,0.359,9,1.799,10.439,3.24C1030.439,318.702,1032.023,322.663,1032.023,330.583z M1025.399,332.744
		c0-5.041-0.721-9.721-2.161-11.162c-1.439-1.439-4.68-2.16-9.001-2.16l-5.04,1.8v24.41c1.945,0.504,3.816,0.793,5.761,0.793
		c3.744,0,6.337-0.289,7.849-1.801C1024.822,342.68,1025.399,339.729,1025.399,332.744z"/>
	<path d="M1057.223,314.022c1.44,0,3.169,0.288,5.041,1.079c0,3.601-0.432,6.48-1.441,10.801h-2.159
		c-1.8-6.48-2.521-6.841-5.04-6.841c-1.008,0-2.809,0.648-4.322,1.296v26.067l6.842,1.079v1.079c-1.801,1.44-4.32,2.521-7.561,2.521
		c-2.88,0-5.688-0.36-9.721-1.081v-1.079l3.959-2.881v-27.002l-5.398-1.08v-1.8c2.879-1.081,6.84-2.16,11.879-2.16v4.319
		L1057.223,314.022z"/>
	<path d="M1071.981,330.583v2.161c0,5.041,0.288,8.928,2.88,11.161c2.232,1.872,5.4,2.16,8.641,2.16
		c2.881,0,5.762-0.359,7.921-0.721l0.36,0.721l-3.24,3.96c-2.16,0.721-5.041,1.441-7.92,1.441c-4.248,0-8.354-0.505-11.161-3.24
		c-3.386-3.169-3.961-8.354-3.961-15.482c0-7.128,1.44-10.585,3.601-12.961c2.305-2.52,7.561-5.76,11.881-5.76
		c8.137,0,12.24,2.735,12.24,11.88c0,1.368-0.143,2.953-0.359,4.68H1071.981z M1073.781,319.926
		c-0.863,0.864-1.512,3.384-1.729,8.353l14.33-1.368v-1.008c0-6.12-3.096-7.561-7.921-7.561
		C1076.518,318.342,1074.861,318.847,1073.781,319.926z"/>
	<path d="M1123.462,339.225c0,7.201-4.681,12.241-13.321,12.241c-3.601,0-8.281-0.36-11.881-1.081c0-3.601,0.217-7.92,0.721-11.521
		h2.16c1.799,7.201,2.88,9.362,10.08,9.362c4.32,0,5.761-2.161,5.761-6.481c0-1.656-0.144-3.168-0.36-4.608l-5.76-1.008
		c-9.506-1.656-12.242-4.824-12.242-10.585c0-6.481,5.762-11.521,12.961-11.521c2.018,0,4.537,0.144,7.13,0.504l3.673-0.504
		c0,3.6-0.361,7.92-1.082,10.801h-2.158l-1.297-5.905c-2.305-1.296-4.537-1.656-6.266-1.656c-4.319,0-6.84,2.16-6.84,5.76
		c0,4.32,2.449,5.904,8.064,6.84C1123.462,331.663,1123.462,331.808,1123.462,339.225z"/>
	<path d="M1136.06,330.583v2.161c0,5.041,0.288,8.928,2.88,11.161c2.232,1.872,5.4,2.16,8.641,2.16c2.881,0,5.762-0.359,7.921-0.721
		l0.36,0.721l-3.24,3.96c-2.16,0.721-5.041,1.441-7.92,1.441c-4.248,0-8.354-0.505-11.161-3.24
		c-3.386-3.169-3.961-8.354-3.961-15.482c0-7.128,1.44-10.585,3.601-12.961c2.305-2.52,7.561-5.76,11.881-5.76
		c8.137,0,12.24,2.735,12.24,11.88c0,1.368-0.143,2.953-0.359,4.68H1136.06z M1137.859,319.926
		c-0.863,0.864-1.512,3.384-1.729,8.353l14.33-1.368v-1.008c0-6.12-3.096-7.561-7.921-7.561
		C1140.596,318.342,1138.939,318.847,1137.859,319.926z"/>
	<path d="M1199.783,347.505v1.079c-1.801,1.44-3.961,2.521-6.121,2.521c-2.881,0-5.688-0.36-9.721-1.081v-1.079l3.961-2.881v-21.241
		c0-2.161-0.361-3.312-1.801-4.033s-3.961-1.729-7.201-1.729l-5.4,2.161v25.203l5.4,1.079v1.079c-1.801,1.44-3.959,2.521-6.12,2.521
		c-2.88,0-5.688-0.36-9.721-1.081v-1.079l3.96-2.881v-27.002l-5.4-1.08v-1.8c2.881-1.081,6.842-2.16,11.881-2.16v5.04l9.361-5.04
		c3.527,0.216,6.191,1.079,8.064,1.943c3.024,1.44,3.457,3.024,3.457,5.257v25.203L1199.783,347.505z"/>
	<path d="M1208.418,343.544v-23.761l-4.682-1.081v-1.439l9.723-8.642h1.439v6.121h9.721v4.68h-9.721v22.681
		c0,3.961,1.08,4.681,9,5.401v1.8c-2.158,0.72-5.76,1.801-9.359,1.801C1209.354,351.105,1208.418,349.521,1208.418,343.544z"/>
	<path d="M1259.178,347.505v1.8c-2.879,1.08-6.839,2.161-11.879,2.161v-5.04l-7.922,5.04c-8.137,0-11.161-4.178-11.161-10.802
		c0-1.08,0.071-3.096,0.217-5.041l18.866-4.464v-6.336c0-2.161-0.361-3.672-1.801-4.393c-1.439-0.72-3.24-1.008-6.121-1.008
		s-6.121,0.72-9.361,1.8l-0.359-0.72l2.521-4.681c3.24-1.152,6.48-1.799,10.081-1.799c5.041,0,8.64,1.439,10.081,2.88
		c1.44,1.439,1.44,2.16,1.44,5.76v23.763L1259.178,347.505z M1247.299,344.265v-9.433l-12.457,1.728v1.8
		c0,5.762,2.736,8.066,7.776,8.066L1247.299,344.265z"/>
	<path d="M1267.816,343.544v-23.761l-4.682-1.081v-1.439l9.723-8.642h1.439v6.121h9.721v4.68h-9.721v22.681
		c0,3.961,1.08,4.681,9,5.401v1.8c-2.159,0.72-5.76,1.801-9.36,1.801C1268.752,351.105,1267.816,349.521,1267.816,343.544z"/>
	<path d="M1304.177,347.505v1.079c-1.8,1.44-3.96,2.521-6.12,2.521c-2.88,0-5.688-0.36-9.721-1.081v-1.079l3.959-2.881v-27.002
		l-5.398-1.08v-1.8c2.879-1.081,6.84-2.16,12.6-2.16c-0.504,4.319-0.721,7.92-0.721,11.521v20.883L1304.177,347.505z
		 M1290.279,303.365c0-1.295,3.602-5.184,4.897-5.184c1.295,0,5.544,3.168,5.544,4.464c0,1.297-3.528,5.257-4.824,5.257
		C1294.6,307.901,1290.279,304.661,1290.279,303.365z"/>
	<path d="M1339.099,330.224c0,8.64-3.097,13.681-6.048,16.777c-3.314,3.456-5.473,4.823-10.153,4.823
		c-11.522,0-14.042-5.76-14.042-18c0-7.201,1.297-10.585,3.961-14.042c2.951-3.817,7.057-6.121,11.521-6.121
		c5.544,0,9.504,1.08,11.592,3.24C1338.521,319.351,1339.099,322.734,1339.099,330.224z M1332.473,332.383
		c0-6.697-0.432-9.36-2.447-11.305c-1.656-1.584-4.68-2.376-7.849-2.376c-1.368,0-3.024,0.145-5.04,0.648
		c-1.297,3.456-1.657,7.056-1.657,12.312c0,10.081,0.937,15.121,9.577,15.121c3.168,0,4.393-0.358,5.545-2.087
		C1331.897,342.824,1332.473,338.648,1332.473,332.383z"/>
	<path d="M1382.657,347.505v1.079c-1.799,1.44-3.96,2.521-6.12,2.521c-2.88,0-5.688-0.36-9.721-1.081v-1.079l3.961-2.881v-21.241
		c0-2.161-0.36-3.312-1.801-4.033c-1.439-0.72-3.961-1.729-7.201-1.729l-5.4,2.161v25.203l5.4,1.079v1.079
		c-1.8,1.44-3.959,2.521-6.119,2.521c-2.881,0-5.688-0.36-9.721-1.081v-1.079l3.959-2.881v-27.002l-5.399-1.08v-1.8
		c2.88-1.081,6.841-2.16,11.88-2.16v5.04l9.361-5.04c3.527,0.216,6.192,1.079,8.064,1.943c3.025,1.44,3.457,3.024,3.457,5.257
		v25.203L1382.657,347.505z"/>
	<path d="M1417.936,347.505v1.8c-2.881,1.08-6.84,2.161-11.881,2.161v-5.04l-7.922,5.04c-8.135,0-11.16-4.178-11.16-10.802
		c0-1.08,0.072-3.096,0.217-5.041l18.865-4.464v-6.336c0-2.161-0.359-3.672-1.8-4.393c-1.44-0.72-3.24-1.008-6.122-1.008
		c-2.879,0-6.119,0.72-9.359,1.8l-0.361-0.72l2.521-4.681c3.24-1.152,6.48-1.799,10.081-1.799c5.04,0,8.64,1.439,10.081,2.88
		c1.439,1.439,1.439,2.16,1.439,5.76v23.763L1417.936,347.505z M1406.055,344.265v-9.433l-12.457,1.728v1.8
		c0,5.762,2.736,8.066,7.777,8.066L1406.055,344.265z"/>
	<path d="M1438.453,347.505v1.079c-1.799,1.44-3.959,2.521-6.12,2.521c-2.88,0-5.688-0.36-9.721-1.081v-1.079l3.961-2.881v-46.444
		l-5.401-1.081v-1.799c2.881-1.081,6.842-2.161,12.602-2.161c-0.504,4.32-0.72,7.921-0.72,11.521v40.325L1438.453,347.505z"/>
</g>
<g>
	<path d="M961.825,436.784l5.473,0.721l-0.217,1.8c-3.601,1.44-7.488,2.161-11.665,2.161l4.105-29.522
		c0.287-2.306,0.215-3.168-2.665-3.168l-10.441,6.695l-3.599,25.274h-5.762l4.033-28.802c0.359-2.377,0.215-3.168-2.665-3.168
		l-10.657,6.768l-3.383,25.202h-5.762l4.32-32.044l-5.4-0.719l0.216-1.801c3.601-1.439,7.417-2.16,11.593-2.16l-1.151,8.353
		l12.169-8.353c3.6,0,5.615,0.36,6.336,1.081c0.721,0.72,0.793,2.448,0.145,7.128l11.953-8.209c3.6,0,5.615,0.36,6.336,1.081
		c0.721,0.72,0.793,2.52,0.072,7.56L961.825,436.784z"/>
	<path d="M978.885,408.701l-5.399-0.719l0.216-1.801c3.6-1.439,7.416-2.16,11.592-2.16l-4.391,32.691l5.473,0.721l-0.217,1.8
		c-3.602,1.44-7.488,2.159-11.665,2.159L978.885,408.701z M979.391,392.646c0-1.225,3.383-4.825,4.535-4.825
		c1.225,0,5.186,2.953,5.186,4.104c0,1.225-3.314,4.897-4.465,4.897C983.422,396.822,979.391,393.797,979.391,392.646z"/>
	<path d="M1010.566,421.664c4.68,1.727,5.041,2.88,5.041,5.76c0,7.201-3.961,14.042-13.322,14.042c-3.6,0-7.201-0.505-10.513-1.441
		c-0.288-3.599,0.433-7.56,1.368-11.161h2.16c0.72,7.921,2.088,9.721,7.85,9.721c4.248,0,6.912-4.248,6.552-11.16l-6.409-2.376
		c-6.552-2.448-9.001-5.544-9.001-10.585c0-5.762,5.04-10.441,12.241-10.441c2.881,0,6.049,0.289,10.01,1.081
		c-0.289,3.599-0.793,6.841-1.801,9.721h-2.088c-0.359-5.761-2.305-7.921-7.346-7.921c-3.599,0-6.048,2.16-6.048,5.4
		s1.872,5.904,6.769,7.705L1010.566,421.664z"/>
	<path d="M1048.293,436.784l5.473,0.721l-0.217,1.8c-3.599,1.44-8.207,2.161-11.664,2.161l1.151-8.28l-12.312,8.28
		c-3.602,0-6.122-0.36-6.842-1.441c-0.575-0.862-0.792-2.159-0.071-7.2l3.384-24.123l-5.473-0.719l0.217-1.801
		c3.601-1.439,7.488-2.16,11.664-2.16l-4.104,29.522c-0.361,2.808,0.575,3.097,3.096,3.097l10.873-6.695l3.385-24.843l5.904-0.721
		L1048.293,436.784z"/>
	<path d="M1086.309,436.784l5.473,0.721l-0.215,1.8c-3.601,1.44-7.488,2.161-11.666,2.161l4.104-29.522
		c0.288-2.232,0.146-3.168-3.384-3.168l-10.656,6.768l-3.385,25.202h-5.761l4.319-32.044l-5.398-0.719l0.215-1.801
		c3.601-1.439,7.416-2.16,11.593-2.16l-1.151,8.353l12.385-8.353c3.602,0,6.121,0.36,6.842,1.081c0.719,0.72,0.791,2.52,0.071,7.56
		L1086.309,436.784z"/>
	<path d="M1122.74,436.784l5.473,0.721l-0.216,1.8c-3.601,1.44-7.345,2.161-11.665,2.161l1.008-7.993l-12.457,7.993
		c-3.457,0-5.832-0.288-6.697-1.009c-0.575-0.504-0.719-1.224-0.719-2.592c0-14.402,2.159-22.322,6.48-26.643
		c2.88-2.88,7.416-7.201,13.176-7.201c1.225,0,2.665,0,4.033,0.072l1.943-14.834l-5.398-0.719l0.215-1.801
		c3.097-1.152,6.912-2.16,11.593-2.16L1122.74,436.784z M1117.772,430.232l2.736-21.025c-1.225-0.073-2.449-0.145-3.386-0.145
		c-2.879,0-7.344,0.288-8.855,1.8c-2.881,2.88-4.681,12.601-4.681,23.402c0,2.161,1.008,2.376,3.169,2.376L1117.772,430.232z"/>
	<path d="M1159.461,412.303c-0.937,4.607-4.826,10.656-19.443,11.809c-0.576,5.328-0.431,10.082,1.081,11.594
		c1.079,1.079,2.665,1.296,4.823,1.296c3.602,0,7.13-2.016,10.01-3.815l0.289,1.439l-3.818,4.32
		c-2.879,1.439-5.76,2.521-9.359,2.521c-2.809,0-5.33-0.649-7.201-2.521c-2.16-2.161-2.52-8.354-1.369-16.922
		c1.01-6.409,3.025-9.721,5.33-12.24c2.736-2.953,7.705-5.762,12.024-5.762C1157.804,404.021,1160.396,407.406,1159.461,412.303z
		 M1149.523,407.622c-2.665,0-4.465,0.864-5.76,2.304c-1.082,1.225-2.305,4.177-3.386,11.234
		c10.081-1.081,13.465-5.329,13.682-8.498C1154.275,409.566,1153.052,407.622,1149.523,407.622z"/>
	<path d="M1182.428,404.021c1.439,0,3.096,0.217,4.824,0.721c-0.504,3.601-1.297,6.841-2.952,11.16h-2.378
		c0.361-6.48-0.358-6.84-1.799-6.84l-6.84,4.176l-3.744,27.507h-5.762l4.32-32.044l-5.4-0.719l0.216-1.801
		c3.601-1.439,7.417-2.16,11.593-2.16l-0.864,6.121L1182.428,404.021z"/>
	<path d="M1206.691,421.664c4.68,1.727,5.041,2.88,5.041,5.76c0,7.201-3.961,14.042-13.322,14.042c-3.6,0-7.201-0.505-10.513-1.441
		c-0.288-3.599,0.433-7.56,1.368-11.161h2.16c0.72,7.921,2.088,9.721,7.85,9.721c4.248,0,6.912-4.248,6.552-11.16l-6.409-2.376
		c-6.552-2.448-9.001-5.544-9.001-10.585c0-5.762,5.04-10.441,12.241-10.441c2.881,0,6.049,0.289,10.01,1.081
		c-0.289,3.599-0.793,6.841-1.801,9.721h-2.088c-0.359-5.761-2.305-7.921-7.346-7.921c-3.599,0-6.048,2.16-6.048,5.4
		s1.872,5.904,6.769,7.705L1206.691,421.664z"/>
	<path d="M1220.728,440.024c-1.44-1.151-1.583-3.527-1.224-6.12l3.385-24.121l-4.537-1.082l0.217-1.439l10.152-8.64h1.44
		l-0.792,6.12h9.001l-0.575,3.959h-9.002l-3.24,23.402c-0.432,3.025-0.144,4.322,2.016,4.322c1.439,0,4.25-1.657,7.129-3.098
		l0.287,1.44l-4.176,4.536c-1.584,1.008-3.6,1.801-5.76,1.801C1223.609,441.105,1221.809,440.889,1220.728,440.024z"/>
	<path d="M1264.938,436.784l5.473,0.721l-0.217,1.8c-3.599,1.44-8.207,2.161-11.664,2.161l1.152-8.354l-12.385,8.354
		c-3.457,0-5.833-0.288-6.697-1.009c-0.576-0.504-0.719-1.224-0.719-2.592c0-14.402,2.158-22.322,6.48-26.643
		c2.879-2.88,7.416-7.201,13.176-7.201c1.439,0,3.097,0.072,4.608,0.145l2.089-3.745h3.601L1264.938,436.784z M1260.114,429.945
		l2.808-20.738c-1.225-0.073-2.449-0.145-3.385-0.145c-2.88,0-7.345,0.288-8.856,1.8c-2.88,2.88-4.681,12.601-4.681,23.402
		c0,2.161,0.865,2.376,3.385,2.376L1260.114,429.945z"/>
	<path d="M1302.953,436.784l5.473,0.721l-0.215,1.8c-3.601,1.44-7.488,2.161-11.666,2.161l4.104-29.522
		c0.288-2.232,0.146-3.168-3.384-3.168l-10.656,6.768l-3.385,25.202h-5.761l4.319-32.044l-5.398-0.719l0.215-1.801
		c3.601-1.439,7.416-2.16,11.593-2.16l-1.151,8.353l12.385-8.353c3.602,0,6.121,0.36,6.842,1.081c0.719,0.72,0.791,2.52,0.071,7.56
		L1302.953,436.784z"/>
	<path d="M1339.385,436.784l5.473,0.721l-0.216,1.8c-3.601,1.44-7.345,2.161-11.665,2.161l1.008-7.993l-12.457,7.993
		c-3.457,0-5.832-0.288-6.697-1.009c-0.575-0.504-0.719-1.224-0.719-2.592c0-14.402,2.159-22.322,6.48-26.643
		c2.88-2.88,7.416-7.201,13.176-7.201c1.225,0,2.665,0,4.033,0.072l1.943-14.834l-5.398-0.719l0.215-1.801
		c3.097-1.152,6.912-2.16,11.593-2.16L1339.385,436.784z M1334.417,430.232l2.736-21.025c-1.225-0.073-2.449-0.145-3.386-0.145
		c-2.879,0-7.344,0.288-8.855,1.8c-2.881,2.88-4.681,12.601-4.681,23.402c0,2.161,1.008,2.376,3.169,2.376L1334.417,430.232z"/>
	<path d="M1356.662,408.701l-5.399-0.719l0.216-1.801c3.6-1.439,7.416-2.16,11.592-2.16l-4.391,32.691l5.473,0.721l-0.217,1.8
		c-3.602,1.44-7.488,2.159-11.665,2.159L1356.662,408.701z M1357.168,392.646c0-1.225,3.383-4.825,4.535-4.825
		c1.225,0,5.186,2.953,5.186,4.104c0,1.225-3.314,4.897-4.465,4.897C1361.199,396.822,1357.168,393.797,1357.168,392.646z"/>
	<path d="M1396.913,436.784l5.473,0.721l-0.216,1.8c-3.6,1.44-7.488,2.161-11.666,2.161l4.105-29.522
		c0.288-2.232,0.145-3.168-3.385-3.168l-10.656,6.768l-3.384,25.202h-5.761l4.319-32.044l-5.399-0.719l0.215-1.801
		c3.602-1.439,7.417-2.16,11.594-2.16l-1.152,8.353l12.386-8.353c3.601,0,6.12,0.36,6.841,1.081c0.719,0.72,0.791,2.52,0.072,7.56
		L1396.913,436.784z"/>
	<path d="M1434.281,400.421h3.6l-5.185,37.948c-0.721,5.328-2.232,8.496-5.688,11.736c-3.672,3.313-7.057,5.041-12.098,5.041
		c-2.159,0-5.039-0.216-8.64-1.08c-0.721-1.297-1.225-2.809-1.368-4.68l0.432-0.721c3.96,0.792,7.85,1.439,12.89,1.439
		c6.048,0,7.271-1.151,8.28-8.64l1.152-8.28l-12.314,8.28c-3.455,0-5.831-0.288-6.695-1.009c-0.576-0.504-0.721-1.224-0.721-2.592
		c0-14.402,2.16-22.322,6.48-26.643c2.881-2.88,7.416-7.201,13.178-7.201c1.729,0,3.24,0.072,4.608,0.145L1434.281,400.421z
		 M1428.088,429.945l2.809-20.738c-1.08-0.073-2.161-0.145-3.312-0.145c-2.88,0-7.345,0.288-8.856,1.8
		c-2.88,2.88-4.681,12.601-4.681,23.402c0,1.657,0.433,2.161,1.873,2.161c0.863,0,2.23-0.289,3.527-1.082L1428.088,429.945z"/>
</g>
<g>
	<path d="M934.969,527.505v1.079c-1.801,1.44-3.959,2.521-6.12,2.521c-2.88,0-5.688-0.36-9.721-1.081v-1.079l3.96-2.881v-27.002
		l-5.4-1.08v-1.801c2.881-1.079,6.842-2.16,12.602-2.16c-0.504,4.321-0.721,7.922-0.721,11.521v20.883L934.969,527.505z
		 M921.072,483.365c0-1.297,3.6-5.185,4.896-5.185c1.295,0,5.545,3.169,5.545,4.465c0,1.295-3.529,5.256-4.826,5.256
		C925.392,487.901,921.072,484.661,921.072,483.365z"/>
	<path d="M976.731,527.505v1.079c-1.8,1.44-3.961,2.521-6.122,2.521c-2.879,0-5.688-0.36-9.721-1.081v-1.079l3.961-2.881v-21.241
		c0-2.161-0.359-3.312-1.8-4.032s-3.961-1.729-7.201-1.729l-5.401,2.16v25.203l5.401,1.079v1.079c-1.8,1.44-3.96,2.521-6.12,2.521
		c-2.88,0-5.688-0.36-9.721-1.081v-1.079l3.959-2.881v-27.002l-5.398-1.08v-1.801c2.879-1.079,6.84-2.16,11.879-2.16v5.041
		l9.362-5.041c3.527,0.217,6.192,1.081,8.063,1.945c3.025,1.439,3.457,3.023,3.457,5.256v25.203L976.731,527.505z"/>
	<path d="M1006.248,525.344l0.36,0.721l-3.24,4.105c-2.161,0.719-4.681,1.296-7.201,1.296c-4.248,0-7.417-0.649-10.296-3.313
		c-3.386-3.167-4.465-7.561-4.465-16.129c0-7.129,2.879-10.801,5.04-12.961s6.48-5.041,12.241-5.041
		c2.881,0,5.328,0.289,7.921,1.081c0,3.599-0.721,7.921-1.8,12.24h-2.161l-1.296-8.136c-1.728-0.36-3.385-0.506-4.824-0.506
		c-2.88,0-5.4,0.721-6.48,1.801c-1.081,1.081-2.16,3.601-2.16,10.802c0,6.48,0.721,10.44,3.312,12.673
		c2.232,1.871,5.329,2.088,8.569,2.088C1001.928,526.064,1004.232,525.705,1006.248,525.344z"/>
	<path d="M1042.248,510.223c0,8.641-3.097,13.682-6.049,16.778c-3.312,3.456-5.473,4.823-10.152,4.823
		c-11.522,0-14.042-5.76-14.042-18.001c0-7.2,1.296-10.585,3.961-14.04c2.952-3.816,7.056-6.121,11.521-6.121
		c5.545,0,9.504,1.08,11.594,3.24C1041.671,499.351,1042.248,502.734,1042.248,510.223z M1035.623,512.383
		c0-6.695-0.433-9.359-2.448-11.304c-1.657-1.585-4.681-2.378-7.849-2.378c-1.368,0-3.025,0.146-5.041,0.649
		c-1.296,3.456-1.656,7.056-1.656,12.313c0,10.08,0.936,15.12,9.577,15.12c3.169,0,4.394-0.358,5.544-2.087
		C1035.047,522.824,1035.623,518.648,1035.623,512.383z"/>
	<path d="M1105.971,527.505v1.079c-1.801,1.44-3.96,2.521-6.121,2.521c-2.879,0-5.688-0.36-9.721-1.081v-1.079l3.96-2.881v-21.241
		c0-2.161-0.358-3.312-1.799-4.032c-1.441-0.721-3.961-1.729-7.201-1.729l-5.04,2.017v0.144v25.203l5.4,1.079v1.079
		c-1.801,1.44-3.961,2.521-6.121,2.521c-2.881,0-5.688-0.36-9.721-1.081v-1.079l3.961-2.881v-21.241
		c0-2.161-0.361-3.312-1.801-4.032s-3.961-1.729-7.201-1.729l-5.041,2.017v25.347l5.401,1.079v1.079
		c-1.8,1.44-3.96,2.521-6.12,2.521c-2.88,0-5.688-0.36-9.721-1.081v-1.079l3.959-2.881v-27.002l-5.398-1.08v-1.801
		c2.879-1.079,6.84-2.16,11.879-2.16v4.825l9.002-4.825c3.529,0.217,6.191,1.081,8.065,1.945c1.872,0.863,2.735,1.872,3.167,3.023
		l9.29-4.969c3.527,0.217,6.192,1.081,8.063,1.945c3.025,1.439,3.457,3.023,3.457,5.256v25.203L1105.971,527.505z"/>
	<path d="M1144.271,510.583c0,10.081-3.601,14.186-7.705,17.282c-2.88,2.159-5.832,3.601-10.081,3.601
		c-1.512,0-3.167-0.073-5.04-0.217v13.178l-6.48,1.44v-46.805l-5.4-1.08v-1.801c2.881-1.079,6.842-2.16,11.881-2.16v5.041
		l9.361-5.041c5.041,0.36,9,1.801,10.439,3.24C1142.688,498.701,1144.271,502.662,1144.271,510.583z M1137.647,512.744
		c0-5.041-0.721-9.721-2.161-11.161c-1.439-1.44-4.68-2.161-9.001-2.161l-5.04,1.801v24.41c1.945,0.504,3.816,0.793,5.761,0.793
		c3.744,0,6.337-0.289,7.849-1.801C1137.07,522.68,1137.647,519.729,1137.647,512.744z"/>
	<path d="M1181.35,527.505v1.8c-2.88,1.08-6.84,2.161-11.88,2.161v-5.04l-7.922,5.04c-8.136,0-11.161-4.178-11.161-10.802
		c0-1.08,0.072-3.097,0.217-5.041l18.866-4.463v-6.337c0-2.161-0.36-3.673-1.8-4.394c-1.44-0.719-3.24-1.008-6.122-1.008
		c-2.88,0-6.12,0.721-9.36,1.801l-0.36-0.721l2.521-4.68c3.24-1.152,6.48-1.801,10.082-1.801c5.04,0,8.639,1.439,10.08,2.881
		c1.44,1.44,1.44,2.16,1.44,5.76v23.764L1181.35,527.505z M1169.47,524.265v-9.434l-12.457,1.729v1.8
		c0,5.762,2.736,8.066,7.775,8.066L1169.47,524.265z"/>
	<path d="M1189.988,523.544v-23.761l-4.682-1.082v-1.439l9.722-8.64h1.44v6.12h9.721v4.68h-9.721v22.682
		c0,3.961,1.079,4.681,9,5.401v1.8c-2.16,0.72-5.76,1.801-9.361,1.801C1190.924,531.105,1189.988,529.521,1189.988,523.544z"/>
	<path d="M1226.347,527.505v1.079c-1.8,1.44-3.96,2.521-6.12,2.521c-2.88,0-5.688-0.36-9.721-1.081v-1.079l3.959-2.881v-27.002
		l-5.398-1.08v-1.801c2.879-1.079,6.84-2.16,12.6-2.16c-0.504,4.321-0.721,7.922-0.721,11.521v20.883L1226.347,527.505z
		 M1212.449,483.365c0-1.297,3.602-5.185,4.897-5.185c1.295,0,5.544,3.169,5.544,4.465c0,1.295-3.528,5.256-4.824,5.256
		C1216.77,487.901,1212.449,484.661,1212.449,483.365z"/>
	<path d="M1264.292,510.583c0,10.081-3.601,14.186-7.705,17.282c-2.88,2.159-5.831,3.601-10.079,3.601
		c-2.882,0-7.994-0.217-12.314-1.081c0.504-4.32,0.793-7.92,0.793-11.521v-39.242l-5.4-1.08v-1.801c2.879-1.08,6.84-2.16,12.6-2.16
		c-0.504,4.321-0.719,7.92-0.719,11.521v12.961l9.36-5.041c5.04,0.36,9.001,1.801,10.441,3.24S1264.292,502.662,1264.292,510.583z
		 M1257.668,512.744c0-5.041-0.721-9.721-2.16-11.161c-1.44-1.44-4.681-2.161-9-2.161l-5.041,1.801v24.41
		c1.943,0.504,3.816,0.793,5.76,0.793c3.744,0,6.337-0.289,7.849-1.801C1257.092,522.68,1257.668,519.729,1257.668,512.744z"/>
	<path d="M1286.969,527.505v1.079c-1.8,1.44-3.959,2.521-6.119,2.521c-2.881,0-5.688-0.36-9.721-1.081v-1.079l3.959-2.881v-27.002
		l-5.399-1.08v-1.801c2.88-1.079,6.841-2.16,12.601-2.16c-0.504,4.321-0.721,7.922-0.721,11.521v20.883L1286.969,527.505z
		 M1273.072,483.365c0-1.297,3.601-5.185,4.896-5.185c1.295,0,5.545,3.169,5.545,4.465c0,1.295-3.529,5.256-4.825,5.256
		S1273.072,484.661,1273.072,483.365z"/>
	<path d="M1307.488,527.505v1.079c-1.8,1.44-3.959,2.521-6.119,2.521c-2.881,0-5.688-0.36-9.721-1.081v-1.079l3.961-2.881v-46.443
		l-5.401-1.08v-1.801c2.88-1.08,6.841-2.16,12.601-2.16c-0.504,4.321-0.719,7.92-0.719,11.521v40.324L1307.488,527.505z"/>
	<path d="M1328.369,527.505v1.079c-1.801,1.44-3.96,2.521-6.121,2.521c-2.879,0-5.688-0.36-9.721-1.081v-1.079l3.96-2.881v-27.002
		l-5.399-1.08v-1.801c2.88-1.079,6.841-2.16,12.601-2.16c-0.504,4.321-0.721,7.922-0.721,11.521v20.883L1328.369,527.505z
		 M1314.472,483.365c0-1.297,3.601-5.185,4.897-5.185c1.295,0,5.544,3.169,5.544,4.465c0,1.295-3.528,5.256-4.825,5.256
		S1314.472,484.661,1314.472,483.365z"/>
	<path d="M1337.007,523.544v-23.761l-4.682-1.082v-1.439l9.722-8.64h1.44v6.12h9.721v4.68h-9.721v22.682
		c0,3.961,1.079,4.681,9,5.401v1.8c-2.159,0.72-5.76,1.801-9.36,1.801C1337.943,531.105,1337.007,529.521,1337.007,523.544z"/>
	<path d="M1373.367,527.505v1.079c-1.801,1.44-3.959,2.521-6.12,2.521c-2.88,0-5.688-0.36-9.721-1.081v-1.079l3.96-2.881v-27.002
		l-5.4-1.08v-1.801c2.881-1.079,6.842-2.16,12.602-2.16c-0.504,4.321-0.721,7.922-0.721,11.521v20.883L1373.367,527.505z
		 M1359.471,483.365c0-1.297,3.6-5.185,4.896-5.185c1.295,0,5.545,3.169,5.545,4.465c0,1.295-3.529,5.256-4.826,5.256
		C1363.79,487.901,1359.471,484.661,1359.471,483.365z"/>
	<path d="M1384.526,510.583v2.161c0,5.04,0.288,8.928,2.88,11.16c2.232,1.872,5.4,2.16,8.641,2.16c2.881,0,5.762-0.359,7.921-0.721
		l0.36,0.721l-3.24,3.96c-2.16,0.721-5.041,1.441-7.92,1.441c-4.248,0-8.354-0.505-11.161-3.24
		c-3.386-3.169-3.961-8.354-3.961-15.481c0-7.13,1.44-10.586,3.601-12.961c2.305-2.521,7.561-5.762,11.881-5.762
		c8.137,0,12.24,2.736,12.24,11.881c0,1.369-0.143,2.952-0.359,4.681H1384.526z M1386.326,499.926
		c-0.863,0.865-1.512,3.385-1.729,8.354l14.33-1.369v-1.008c0-6.119-3.096-7.56-7.921-7.56
		C1389.062,498.343,1387.406,498.847,1386.326,499.926z"/>
	<path d="M1436.007,519.225c0,7.201-4.681,12.241-13.321,12.241c-3.601,0-8.281-0.36-11.881-1.081c0-3.601,0.217-7.92,0.721-11.521
		h2.16c1.799,7.201,2.88,9.362,10.08,9.362c4.32,0,5.761-2.161,5.761-6.481c0-1.656-0.144-3.168-0.36-4.609l-5.76-1.008
		c-9.506-1.654-12.242-4.823-12.242-10.584c0-6.48,5.762-11.521,12.961-11.521c2.018,0,4.537,0.145,7.13,0.504l3.673-0.504
		c0,3.601-0.361,7.922-1.082,10.802h-2.158l-1.297-5.905c-2.305-1.296-4.537-1.656-6.266-1.656c-4.319,0-6.84,2.16-6.84,5.762
		c0,4.319,2.449,5.904,8.064,6.84C1436.007,511.664,1436.007,511.808,1436.007,519.225z"/>
</g>
<g>
	<path d="M914.732,620.385l0.217-1.439l6.408-2.161l5.545-39.243l-6.049-0.719l0.287-1.801c3.384-1.512,6.337-1.801,9.577-1.801
		h15.626l6.048-0.721c-0.575,4.322-1.729,8.426-3.097,12.242h-2.159l-0.577-7.92h-13.465l-2.664,19.08h15.338l-0.506,3.602h-15.336
		l-2.52,17.641l7.56,0.36l-0.287,1.8c-2.089,0.793-5.618,1.801-9.577,1.801C921.501,621.105,918.98,620.889,914.732,620.385z"/>
	<path d="M955.053,607.063l4.248-30.241l-6.048-0.361l0.217-1.8c1.944-0.792,4.968-1.8,8.208-1.8c3.6,0,6.769,0.217,10.297,0.721
		l-0.145,1.439l-6.48,2.159l-3.959,28.442c-1.297,9.362,1.871,12.242,10.513,12.242c7.921,0,11.089-4.321,12.384-13.682
		l3.746-26.643l-7.85-0.647l0.287-2.161c1.944-0.792,4.969-1.8,8.93-1.8c3.6,0,6.049,0.217,9.576,0.721l-0.215,1.8l-6.049,2.016
		l-4.248,27.436c-1.873,12.24-9.217,16.92-18.578,16.92C957.646,621.824,953.47,618.584,955.053,607.063z"/>
	<path d="M1048.297,573.653l-0.287,1.8l-6.122,2.377l-6.624,42.915l-2.305,0.721l-22.466-38.739l-4.681,33.41l9.002,1.008
		l-0.289,2.16c-1.943,0.793-4.969,1.801-8.928,1.801c-4.321,0-6.77-0.217-10.298-0.721l0.217-1.801l6.12-2.375l4.32-28.587
		l1.296-14.401l4.465-0.721l21.603,36.867l4.391-31.466l-8.28-1.008l0.288-2.161c1.944-0.792,4.969-1.8,8.929-1.8
		C1041.529,572.933,1044.77,573.149,1048.297,573.653z"/>
	<path d="M1056.858,598.063c-1.8,12.961,4.248,20.162,14.114,20.162c5.04,0,6.265-1.081,12.24-10.441h2.16
		c-0.647,4.536-1.729,7.921-3.168,12.24c-3.744,0.864-7.777,1.8-14.258,1.8c-13.248,0-20.449-8.352-18.145-23.761
		c2.304-15.41,12.6-25.922,27.578-25.922c3.312,0,6.049,0.358,8.713,0.862l4.969-0.504c-0.648,4.322-2.018,10.657-3.672,15.843
		h-2.161l-0.792-10.081c-2.305-1.585-5.041-2.521-8.642-2.521C1064.996,575.74,1058.587,585.822,1056.858,598.063z"/>
	<path d="M1125.044,573.221l4.753-0.721c-0.145,5.33-1.152,9.795-3.385,15.122h-2.52l0.864-11.161h-10.225l-5.761,40.323
		l7.561,0.721l-0.288,1.8c-2.089,0.793-5.616,1.801-9.577,1.801c-3.601,0-7.561-0.217-11.809-0.721l0.216-1.439l7.849-2.52
		l5.688-39.965h-10.296l-2.232,11.161h-2.52c-0.792-5.327-0.504-9.792,0.791-15.122l4.608,0.721H1125.044z"/>
	<path d="M1126.338,620.385l0.143-1.439l5.76-2.52l5.618-39.245l-5.977-0.72l0.216-1.8c1.943-0.792,4.969-1.8,8.928-1.8
		c2.881,0,6.05,0.217,8.857,0.721l-0.145,1.439l-5.76,2.52l-5.616,39.243l5.977,0.721l-0.217,1.8
		c-1.944,0.793-4.248,1.801-8.209,1.801C1132.314,621.105,1129.865,620.889,1126.338,620.385z"/>
	<path d="M1152.185,598.063c2.089-15.05,10.296-25.922,24.267-25.922c13.969,0,19.369,9.433,17.353,23.761
		c-2.087,15.051-10.296,25.922-24.265,25.922C1155.568,621.824,1150.169,612.393,1152.185,598.063z M1186.676,596.982
		c1.872-13.248-1.801-21.242-12.168-21.242c-8.209,0-13.322,7.994-15.193,21.242c-1.873,13.25,1.8,21.243,12.168,21.243
		C1179.691,618.226,1184.804,610.232,1186.676,596.982z"/>
	<path d="M1248.596,573.653l-0.287,1.8l-6.121,2.377l-6.624,42.915l-2.304,0.721l-22.467-38.739l-4.68,33.41l9.001,1.008
		l-0.288,2.16c-1.944,0.793-4.969,1.801-8.929,1.801c-4.321,0-6.769-0.217-10.298-0.721l0.217-1.801l6.12-2.375l4.319-28.587
		l1.297-14.401l4.465-0.721l21.602,36.867l4.393-31.466l-8.281-1.008l0.289-2.161c1.943-0.792,4.969-1.8,8.928-1.8
		C1241.828,572.933,1245.068,573.149,1248.596,573.653z"/>
	<path d="M1283.874,617.001l3.601,0.504l-0.36,1.8c-1.512,0.865-3.673,1.801-7.488,1.801c-2.161,0-4.681-0.217-7.488-0.721
		l0.287-1.439l4.897-1.729l-2.377-15.193h-15.481l-7.417,14.761l6.626,0.721l-0.36,1.8c-1.512,0.793-3.889,1.801-7.488,1.801
		c-2.881,0-5.4-0.217-8.209-0.721l0.287-1.439l4.393-1.873l22.971-43.852c2.159-0.721,4.32-1.079,6.336-1.079L1283.874,617.001z
		 M1261.121,598.783h13.32l-3.24-20.307L1261.121,598.783z"/>
	<path d="M1321.744,604.904h2.161c-0.647,4.535-2.161,12.025-3.744,16.562l-6.048-0.721h-24.771l0.289-2.161l5.903-1.439
		l5.618-40.322l-6.122-0.361l0.288-1.8c1.873-0.792,4.897-1.8,8.857-1.8c3.6,0,6.119,0.217,9.648,0.721l-0.215,1.439l-6.409,2.159
		l-5.544,39.964h13.32L1321.744,604.904z"/>
	<path d="M1324.479,620.385l0.143-1.439l5.76-2.52l5.618-39.245l-5.977-0.72l0.216-1.8c1.943-0.792,4.969-1.8,8.928-1.8
		c2.881,0,6.05,0.217,8.857,0.721l-0.145,1.439l-5.76,2.52l-5.616,39.243l5.977,0.721l-0.217,1.8
		c-1.944,0.793-4.248,1.801-8.209,1.801C1330.455,621.105,1328.006,620.889,1324.479,620.385z"/>
	<path d="M1377.976,606.344c-1.368,9.361-7.488,15.122-18.29,15.122c-5.039,0-9.289-0.721-12.025-1.441
		c0.649-4.319,1.657-9.36,3.457-14.401h2.161c0,9.362,1.151,12.242,8.353,12.242c6.48,0,9.793-2.88,10.585-8.641
		c0.287-2.377,0.433-4.824-0.36-7.201l-8.424-2.16c-5.762-1.439-11.234-6.121-9.578-14.761c1.224-6.48,8.425-12.603,17.066-12.603
		c2.736,0,4.969,0.146,7.127,0.433l3.673-0.433c-0.575,4.322-1.583,8.642-3.384,13.682h-2.16l-0.433-8.784
		c-1.8-0.792-3.744-1.296-6.048-1.296c-6.48,0-9.578,3.6-10.297,8.641c-0.864,5.76,2.232,8.137,6.337,9.217
		C1378.625,597.199,1379.344,597.775,1377.976,606.344z"/>
	<path d="M1432.77,616.784l5.4,0.36l-0.288,2.16c-1.944,0.793-4.969,1.801-8.929,1.801c-3.6,0-6.048-0.217-9.576-0.721l0.215-1.801
		l7.129-2.158l0.072-31.469l-17.641,28.587h-0.721l-10.082-27.722l-8.496,30.675l8.713,0.647l-0.288,2.16
		c-1.944,0.793-4.969,1.801-8.929,1.801c-2.881,0-6.048-0.217-9.576-0.721l0.215-1.801l5.329-2.016l10.729-36.506l0.721-7.562
		l3.24-0.358l11.232,30.962l19.083-30.962l2.447,0.358V616.784z"/>
</g>
<g>
	<path d="M942.527,705.344l0.36,0.721l-3.24,4.105c-2.161,0.719-4.681,1.296-7.201,1.296c-4.248,0-7.417-0.649-10.296-3.313
		c-3.386-3.167-4.465-7.561-4.465-16.129c0-7.129,2.879-10.801,5.04-12.961s6.48-5.041,12.241-5.041
		c2.881,0,5.328,0.289,7.921,1.081c0,3.599-0.721,7.921-1.8,12.24h-2.161l-1.296-8.136c-1.728-0.36-3.385-0.506-4.824-0.506
		c-2.88,0-5.4,0.721-6.48,1.801c-1.081,1.081-2.16,3.601-2.16,10.802c0,6.48,0.721,10.44,3.312,12.673
		c2.232,1.871,5.329,2.088,8.569,2.088C938.207,706.064,940.512,705.705,942.527,705.344z"/>
	<path d="M984.647,707.505v1.8c-2.88,1.08-6.841,2.161-12.601,2.161c0.504-4.321,0.719-7.922,0.719-11.521v-15.122
		c0-2.161-0.359-3.312-1.8-4.032s-3.96-1.729-7.2-1.729l-5.04,2.16v25.203l5.399,1.079v1.079c-1.799,1.44-3.959,2.521-6.12,2.521
		c-2.88,0-5.688-0.36-9.721-1.081v-1.079l3.961-2.881v-46.443l-5.401-1.08v-1.801c2.881-1.08,6.842-2.16,12.602-2.16
		c-0.504,4.321-0.72,7.92-0.72,11.521v12.889l9-4.969c3.528,0.217,6.193,1.081,8.065,1.945c3.023,1.439,3.455,3.023,3.455,5.256
		v25.203L984.647,707.505z"/>
	<path d="M1008.045,674.021c1.44,0,3.169,0.289,5.041,1.081c0,3.599-0.432,6.48-1.441,10.8h-2.159c-1.8-6.48-2.521-6.84-5.04-6.84
		c-1.008,0-2.809,0.648-4.322,1.296v26.067l6.842,1.079v1.079c-1.801,1.44-4.32,2.521-7.561,2.521c-2.88,0-5.688-0.36-9.721-1.081
		v-1.079l3.959-2.881v-27.002l-5.398-1.08v-1.801c2.879-1.079,6.84-2.16,11.879-2.16v4.321L1008.045,674.021z"/>
	<path d="M1046.566,690.223c0,8.641-3.097,13.682-6.049,16.778c-3.312,3.456-5.473,4.823-10.152,4.823
		c-11.522,0-14.042-5.76-14.042-18.001c0-7.2,1.296-10.585,3.961-14.04c2.952-3.816,7.056-6.121,11.521-6.121
		c5.545,0,9.504,1.08,11.594,3.24C1045.989,679.351,1046.566,682.734,1046.566,690.223z M1039.941,692.383
		c0-6.695-0.433-9.359-2.448-11.304c-1.657-1.585-4.681-2.378-7.849-2.378c-1.368,0-3.025,0.146-5.041,0.649
		c-1.296,3.456-1.656,7.056-1.656,12.313c0,10.08,0.936,15.12,9.577,15.12c3.169,0,4.394-0.358,5.544-2.087
		C1039.365,702.824,1039.941,698.648,1039.941,692.383z"/>
	<path d="M1110.289,707.505v1.079c-1.801,1.44-3.96,2.521-6.121,2.521c-2.879,0-5.688-0.36-9.721-1.081v-1.079l3.96-2.881v-21.241
		c0-2.161-0.358-3.312-1.799-4.032c-1.441-0.721-3.961-1.729-7.201-1.729l-5.04,2.017v0.144v25.203l5.4,1.079v1.079
		c-1.801,1.44-3.961,2.521-6.121,2.521c-2.881,0-5.688-0.36-9.721-1.081v-1.079l3.961-2.881v-21.241
		c0-2.161-0.361-3.312-1.801-4.032s-3.961-1.729-7.201-1.729l-5.041,2.017v25.347l5.401,1.079v1.079
		c-1.8,1.44-3.96,2.521-6.12,2.521c-2.88,0-5.688-0.36-9.721-1.081v-1.079l3.959-2.881v-27.002l-5.398-1.08v-1.801
		c2.879-1.079,6.84-2.16,11.879-2.16v4.825l9.002-4.825c3.529,0.217,6.191,1.081,8.065,1.945c1.872,0.863,2.735,1.872,3.167,3.023
		l9.29-4.969c3.527,0.217,6.192,1.081,8.063,1.945c3.025,1.439,3.457,3.023,3.457,5.256v25.203L1110.289,707.505z"/>
	<path d="M1145.564,707.505v1.8c-2.879,1.08-6.839,2.161-11.879,2.161v-5.04l-7.922,5.04c-8.137,0-11.161-4.178-11.161-10.802
		c0-1.08,0.071-3.097,0.217-5.041l18.866-4.463v-6.337c0-2.161-0.361-3.673-1.801-4.394c-1.439-0.719-3.24-1.008-6.121-1.008
		s-6.121,0.721-9.361,1.801l-0.359-0.721l2.521-4.68c3.24-1.152,6.48-1.801,10.081-1.801c5.041,0,8.64,1.439,10.081,2.881
		c1.44,1.44,1.44,2.16,1.44,5.76v23.764L1145.564,707.505z M1133.686,704.265v-9.434l-12.457,1.729v1.8
		c0,5.762,2.736,8.066,7.776,8.066L1133.686,704.265z"/>
	<path d="M1154.203,703.544v-23.761l-4.682-1.082v-1.439l9.723-8.64h1.439v6.12h9.721v4.68h-9.721v22.682
		c0,3.961,1.08,4.681,9,5.401v1.8c-2.159,0.72-5.76,1.801-9.36,1.801C1155.139,711.105,1154.203,709.521,1154.203,703.544z"/>
	<path d="M1204.604,690.223c0,8.641-3.096,13.682-6.048,16.778c-3.313,3.456-5.473,4.823-10.154,4.823
		c-11.52,0-14.04-5.76-14.04-18.001c0-7.2,1.296-10.585,3.961-14.04c2.951-3.816,7.056-6.121,11.521-6.121
		c5.544,0,9.504,1.08,11.593,3.24C1204.027,679.351,1204.604,682.734,1204.604,690.223z M1197.979,692.383
		c0-6.695-0.432-9.359-2.447-11.304c-1.657-1.585-4.681-2.378-7.85-2.378c-1.367,0-3.024,0.146-5.04,0.649
		c-1.296,3.456-1.657,7.056-1.657,12.313c0,10.08,0.937,15.12,9.578,15.12c3.168,0,4.393-0.358,5.544-2.087
		C1197.402,702.824,1197.979,698.648,1197.979,692.383z"/>
	<path d="M1240.387,675.103c-0.504,4.319-0.721,7.921-0.721,11.521v21.603c0,5.327-1.439,8.64-4.465,11.88
		c-3.168,3.313-8.063,5.041-13.896,5.041c-1.439,0-3.601-0.072-6.48-0.361l-1.439-5.398l0.359-0.721
		c4.32,0.575,9.361,0.721,12.24,0.721c6.77,0,7.201-0.721,7.201-10.803v-3.24l-8.641,4.681c-5.041-0.358-9-1.799-10.439-3.24
		c-1.441-1.44-3.025-6.48-3.025-12.24c0-7.201,1.801-11.378,5.545-15.122c3.312-3.312,7.129-5.4,11.881-5.4
		C1231.386,674.021,1236.066,674.238,1240.387,675.103z M1233.186,703.111v-23.257c-2.088-0.433-4.032-0.792-5.4-0.792
		c-8.64,0-10.081,2.521-10.081,13.682c0,2.879,0.721,8.28,2.161,9.721c1.439,1.439,4.68,2.16,9.001,2.16L1233.186,703.111z"/>
	<path d="M1267.027,674.021c1.439,0,3.168,0.289,5.04,1.081c0,3.599-0.433,6.48-1.441,10.8h-2.159
		c-1.801-6.48-2.521-6.84-5.041-6.84c-1.008,0-2.808,0.648-4.32,1.296v26.067l6.84,1.079v1.079c-1.8,1.44-4.319,2.521-7.56,2.521
		c-2.88,0-5.688-0.36-9.721-1.081v-1.079l3.96-2.881v-27.002l-5.4-1.08v-1.801c2.881-1.079,6.842-2.16,11.881-2.16v4.321
		L1267.027,674.021z"/>
	<path d="M1305.906,707.505v1.8c-2.879,1.08-6.839,2.161-11.879,2.161v-5.04l-7.922,5.04c-8.137,0-11.161-4.178-11.161-10.802
		c0-1.08,0.071-3.097,0.217-5.041l18.866-4.463v-6.337c0-2.161-0.361-3.673-1.801-4.394c-1.439-0.719-3.24-1.008-6.121-1.008
		s-6.121,0.721-9.361,1.801l-0.359-0.721l2.521-4.68c3.24-1.152,6.48-1.801,10.081-1.801c5.041,0,8.64,1.439,10.081,2.881
		c1.44,1.44,1.44,2.16,1.44,5.76v23.764L1305.906,707.505z M1294.027,704.265v-9.434l-12.457,1.729v1.8
		c0,5.762,2.736,8.066,7.776,8.066L1294.027,704.265z"/>
	<path d="M1344.211,690.583c0,10.081-3.601,14.186-7.705,17.282c-2.88,2.159-5.832,3.601-10.081,3.601
		c-1.512,0-3.167-0.073-5.04-0.217v13.178l-6.48,1.44v-46.805l-5.4-1.08v-1.801c2.881-1.079,6.842-2.16,11.881-2.16v5.041
		l9.361-5.041c5.041,0.36,9,1.801,10.439,3.24C1342.627,678.701,1344.211,682.662,1344.211,690.583z M1337.587,692.744
		c0-5.041-0.721-9.721-2.161-11.161c-1.439-1.44-4.68-2.161-9.001-2.161l-5.04,1.801v24.41c1.945,0.504,3.816,0.793,5.761,0.793
		c3.744,0,6.337-0.289,7.849-1.801C1337.01,702.68,1337.587,699.729,1337.587,692.744z"/>
	<path d="M1387.051,707.505v1.8c-2.881,1.08-6.842,2.161-12.602,2.161c0.504-4.321,0.72-7.922,0.72-11.521v-15.122
		c0-2.161-0.36-3.312-1.8-4.032c-1.44-0.721-3.96-1.729-7.2-1.729l-5.04,2.16v25.203l5.398,1.079v1.079
		c-1.8,1.44-3.959,2.521-6.119,2.521c-2.881,0-5.688-0.36-9.721-1.081v-1.079l3.961-2.881v-46.443l-5.401-1.08v-1.801
		c2.88-1.08,6.841-2.16,12.601-2.16c-0.504,4.321-0.719,7.92-0.719,11.521v12.889l9-4.969c3.528,0.217,6.193,1.081,8.064,1.945
		c3.023,1.439,3.456,3.023,3.456,5.256v25.203L1387.051,707.505z"/>
	<path d="M1407.928,707.505v1.079c-1.801,1.44-3.96,2.521-6.121,2.521c-2.879,0-5.688-0.36-9.721-1.081v-1.079l3.96-2.881v-27.002
		l-5.399-1.08v-1.801c2.88-1.079,6.841-2.16,12.601-2.16c-0.504,4.321-0.721,7.922-0.721,11.521v20.883L1407.928,707.505z
		 M1394.03,663.365c0-1.297,3.601-5.185,4.897-5.185c1.295,0,5.544,3.169,5.544,4.465c0,1.295-3.528,5.256-4.825,5.256
		S1394.03,664.661,1394.03,663.365z"/>
	<path d="M1437.448,705.344l0.36,0.721l-3.24,4.105c-2.16,0.719-4.68,1.296-7.201,1.296c-4.248,0-7.416-0.649-10.297-3.313
		c-3.385-3.167-4.465-7.561-4.465-16.129c0-7.129,2.881-10.801,5.041-12.961s6.48-5.041,12.242-5.041
		c2.879,0,5.327,0.289,7.92,1.081c0,3.599-0.721,7.921-1.801,12.24h-2.16l-1.297-8.136c-1.727-0.36-3.383-0.506-4.823-0.506
		c-2.88,0-5.401,0.721-6.48,1.801c-1.081,1.081-2.161,3.601-2.161,10.802c0,6.48,0.721,10.44,3.312,12.673
		c2.232,1.871,5.329,2.088,8.569,2.088C1433.129,706.064,1435.433,705.705,1437.448,705.344z"/>
</g>
<g>
	<path d="M-214.078-9.256c-14.617,0-24.482-9.721-24.482-24.122c0-14.401,10.081-24.122,24.482-24.122h10.081v12.601h-7.561
		c-6.336,0-12.601,3.024-12.601,11.521c0,7.993,5.904,11.521,12.889,11.521h7.272v12.601H-214.078z"/>
	<path d="M-199.824-33.378c0-14.401,10.801-25.202,25.922-25.202c15.121,0,25.922,10.801,25.922,25.202
		c0,14.401-10.801,25.203-25.922,25.203C-189.023-8.175-199.824-18.977-199.824-33.378z M-162.381-33.378
		c0-7.417-4.465-12.241-11.521-12.241c-7.057,0-11.521,4.825-11.521,12.241s4.464,12.241,11.521,12.241
		C-166.846-21.137-162.381-25.961-162.381-33.378z"/>
	<path d="M-103.125-57.5h12.241v48.244h-13.681V-35.25l-12.025,17.354l-12.098-16.994v25.634h-13.681V-57.5h12.241l13.681,19.225
		L-103.125-57.5z"/>
	<path d="M-82.321-9.256V-57.5H-65.4c12.961,0,22.683,5.4,22.683,18.361c0,12.962-9.722,18.002-22.683,18.002h-2.88v11.881H-82.321z
		 M-68.28-32.658h2.521c4.68,0,8.641-1.439,8.641-6.48c0-5.04-3.24-6.84-8.641-6.84h-2.521V-32.658z"/>
	<path d="M-40.346-33.378c0-14.401,10.801-25.202,25.923-25.202c15.121,0,25.922,10.801,25.922,25.202
		c0,14.401-10.801,25.203-25.922,25.203C-29.544-8.175-40.346-18.977-40.346-33.378z M-2.902-33.378
		c0-7.417-4.465-12.241-11.521-12.241c-7.057,0-11.521,4.825-11.521,12.241s4.464,12.241,11.521,12.241
		C-7.367-21.137-2.902-25.961-2.902-33.378z"/>
	<path d="M16.463-9.256v-11.881h17.281c1.583,0,3.24-0.864,3.24-2.809c0-2.52-2.808-3.167-6.985-3.96
		c-6.336-1.224-14.617-3.816-14.617-14.186c0-9.721,7.201-15.409,15.841-15.409h17.642v11.88H33.384c-1.584,0-3.24,0.864-3.24,2.809
		c0,2.52,2.808,3.168,6.984,3.961c6.48,1.224,14.618,4.032,14.618,13.969c0,9.361-7.201,15.625-15.841,15.625H16.463z"/>
	<path d="M58.15-9.256V-57.5h14.042v48.244H58.15z"/>
	<path d="M88.317-9.256v-36.363H75.716V-57.5h39.243v11.88h-12.601v36.363H88.317z"/>
	<path d="M118.413-9.256V-57.5h14.041v48.244H118.413z"/>
	<path d="M138.139-33.378c0-14.401,10.8-25.202,25.923-25.202c15.12,0,25.922,10.801,25.922,25.202
		c0,14.401-10.802,25.203-25.922,25.203C148.939-8.175,138.139-18.977,138.139-33.378z M175.582-33.378
		c0-7.417-4.465-12.241-11.52-12.241c-7.058,0-11.522,4.825-11.522,12.241s4.465,12.241,11.522,12.241
		C171.117-21.137,175.582-25.961,175.582-33.378z"/>
	<path d="M226.919-57.5h13.32v48.244h-11.881l-19.441-25.85v25.85h-13.321V-57.5h11.881l19.443,25.85V-57.5z"/>
	<path d="M248.083-9.256v-11.881h17.282c1.583,0,3.24-0.864,3.24-2.809c0-2.52-2.81-3.167-6.986-3.96
		c-6.335-1.224-14.618-3.816-14.618-14.186c0-9.721,7.201-15.409,15.842-15.409h17.641v11.88h-15.48c-1.585,0-3.24,0.864-3.24,2.809
		c0,2.52,2.807,3.168,6.984,3.961c6.48,1.224,14.616,4.032,14.616,13.969c0,9.361-7.2,15.625-15.841,15.625H248.083z"/>
</g>
<g>
	<path d="M-192.431,80.744h-15.841l-12.458-16.201h-0.863v16.201h-14.041V32.5h19.082c12.241,0,21.242,5.76,21.242,18.001
		c0,5.473-3.816,11.448-10.226,13.177L-192.431,80.744z M-221.593,44.021v12.601h3.6c4.321,0,8.281-1.08,8.281-6.12
		s-3.24-6.48-8.281-6.48H-221.593z"/>
	<path d="M-175.153,41.861l20.882,3.24v20.45l-20.882,1.729v3.384h20.882l-2.161,10.081h-32.402V49.782L-175.153,41.861z
		 M-175.153,61.519l10.081-0.864v-6.769l-10.081-1.512V61.519z"/>
	<path d="M-133.754,70.663h12.961l-2.16,10.081h-24.482V51.942l10.8-8.641h15.122v10.081h-12.241V70.663z"/>
	<path d="M-100.635,41.861l23.762,2.88v29.522l-14.4,7.921l-23.762-2.88V49.782L-100.635,41.861z M-101.354,70.592l10.801,1.296
		V53.454l-10.801-1.296V70.592z"/>
	<path d="M-27.553,42.221l19.082,2.52v36.003h-13.681V53.67l-9.721-1.225v28.298h-13.682V53.67l-9.721-1.225v28.298h-13.681V43.301
		h13.321v6.841h0.72l3.6-7.92l19.442,2.52v5.4h0.72L-27.553,42.221z"/>
	<path d="M41.566,42.221l19.082,2.52v36.003H46.967V53.67l-9.721-1.225v28.298H23.565V53.67l-9.721-1.225v28.298H0.163V43.301
		h13.321v6.841h0.72l3.6-7.92l19.442,2.52v5.4h0.72L41.566,42.221z"/>
	<path d="M82.244,41.861l20.882,3.24v20.45l-20.882,1.729v3.384h20.882l-2.161,10.081H68.562V49.782L82.244,41.861z M82.244,61.519
		l10.081-0.864v-6.769l-10.081-1.512V61.519z"/>
	<path d="M128.324,42.221l19.801,2.52v36.003h-13.68V53.742l-10.081-1.296v28.298h-13.681V43.301h13.321v6.841h0.72L128.324,42.221z
		"/>
	<path d="M193.846,72.104l1.44,8.64h-13.68l-1.081-7.92h-0.721l-3.601,7.92h-20.161V49.782l13.68-7.921l10.441,1.225V28.9
		l13.682-2.16V72.104z M169.723,70.663h10.441V53.382l-10.441-1.224V70.663z"/>
	<path d="M215.443,41.861l20.881,3.24v20.45l-20.881,1.729v3.384h20.881l-2.161,10.081h-32.402V49.782L215.443,41.861z
		 M215.443,61.519l10.081-0.864v-6.769l-10.081-1.512V61.519z"/>
	<path d="M280.966,72.104l1.438,8.64h-13.68l-1.08-7.92h-0.721l-3.601,7.92h-20.162V49.782l13.682-7.921l10.441,1.225V28.9
		l13.682-2.16V72.104z M256.843,70.663h10.441V53.382l-10.441-1.224V70.663z"/>
</g>
<g>
	<path d="M-212.638,143.382l-9.361,1.225v26.138h-13.681v-36.003l22.322-2.88L-212.638,143.382z"/>
	<path d="M-195.359,131.861l20.882,3.24v20.45l-20.882,1.729v3.384h20.882l-2.161,10.081h-32.402v-30.962L-195.359,131.861z
		 M-195.359,151.519l10.081-0.864v-6.769l-10.081-1.512V151.519z"/>
	<path d="M-151.8,128.477v4.824h6.481v10.081h-6.481v27.362h-13.681v-27.362h-4.32v-10.081h4.32V118.9l19.441-2.88l0.721,11.521
		L-151.8,128.477z"/>
	<path d="M-126.96,131.861l23.762,2.88v29.522l-14.401,7.921l-23.762-2.88v-29.522L-126.96,131.861z M-127.68,160.592l10.801,1.296
		v-18.434l-10.801-1.296V160.592z"/>
	<path d="M-72.239,143.382l-9.361,1.225v26.138h-13.681v-36.003l22.322-2.88L-72.239,143.382z"/>
	<path d="M-26.52,132.221l19.082,2.52v36.003h-13.681V143.67l-9.721-1.225v28.298h-13.682V143.67l-9.721-1.225v28.298h-13.681
		v-37.443h13.321v6.841h0.72l3.6-7.92l19.442,2.52v5.4h0.72L-26.52,132.221z"/>
	<path d="M37.92,162.104l1.439,8.64H25.679l-1.08-7.92h-0.72l-3.6,7.92H1.197v-37.443h13.681v27.362h9.361v-27.362H37.92V162.104z"
		/>
	<path d="M46.557,170.744V118.9l13.681-2.16v54.004H46.557z"/>
	<path d="M105.959,162.104l1.44,8.64H93.719l-1.081-7.92h-0.72l-3.601,7.92H68.156v-30.962l13.681-7.921l24.123,2.88V162.104z
		 M81.837,160.663h10.441v-17.281l-10.441-1.224V160.663z"/>
	<path d="M136.197,133.301v10.081h-6.48v27.362h-13.681v-27.362h-4.32v-10.081h4.32v-5.76l13.681-3.601v9.36H136.197z"/>
	<path d="M147.715,130.421l-9.001-9.001l9.001-9l9.001,9L147.715,130.421z M140.875,170.744v-37.443h13.681v37.443H140.875z"/>
	<path d="M176.875,131.861l23.761,2.88v29.522l-14.399,7.921l-23.763-2.88v-29.522L176.875,131.861z M176.156,160.592l10.8,1.296
		v-18.434l-10.8-1.296V160.592z"/>
	<path d="M226.195,132.221l19.802,2.52v36.003h-13.682v-27.002l-10.081-1.296v28.298h-13.682v-37.443h13.321v6.841h0.721
		L226.195,132.221z"/>
	<path d="M266.514,146.622l16.922,1.584v15.338l-12.24,7.2h-18.362v-10.081h16.92v-3.6l-16.92-1.584v-15.697l12.242-7.921
		l17.641,1.44v10.081l-16.203-1.296V146.622z"/>
</g>
<g>
	<path d="M-234.122,260.744V212.5h16.922c11.376,0,19.082,5.977,19.082,16.993c0,10.945-7.705,16.778-19.082,16.778h-6.553v14.473
		H-234.122z M-223.753,237.342h5.833c5.833,0,9.217-2.808,9.217-7.849c0-5.04-3.025-8.064-9.217-8.064h-5.833V237.342z"/>
	<path d="M-151.68,260.744h-12.024l-13.321-17.209h-4.321v17.209h-10.369V212.5h18.506c11.017,0,18.434,6.192,18.434,16.417
		c0,6.696-4.465,12.097-10.874,13.753L-151.68,260.744z M-181.346,221.429v14.761h6.913c5.688,0,9.073-2.664,9.073-7.272
		c0-4.681-3.025-7.489-9.073-7.489H-181.346z"/>
	<path d="M-149.451,236.622c0-14.329,10.873-25.202,25.562-25.202c14.689,0,25.49,10.873,25.49,25.202s-10.801,25.203-25.49,25.203
		C-138.579,261.825-149.451,250.951-149.451,236.622z M-108.984,236.622c0-9.072-6.192-15.625-14.905-15.625
		c-8.785,0-14.906,6.553-14.906,15.625c0,9.073,6.121,15.625,14.906,15.625C-115.176,252.248-108.984,245.695-108.984,236.622z"/>
	<path d="M-91.42,260.744V212.5h16.922c11.376,0,19.082,5.977,19.082,16.993c0,10.945-7.705,16.778-19.082,16.778h-6.553v14.473
		H-91.42z M-81.051,237.342h5.833c5.833,0,9.217-2.808,9.217-7.849c0-5.04-3.025-8.064-9.217-8.064h-5.833V237.342z"/>
	<path d="M-49.013,260.744V212.5h10.369v18.866h20.162V212.5h10.296v48.244h-10.296v-20.306h-20.162v20.306H-49.013z"/>
	<path d="M1.603,260.744V212.5h30.171v9.073H11.972v10.513h18.074v8.712H11.972v10.874h20.954v9.072H1.603z"/>
	<path d="M47.611,260.744v-39.171H34.65V212.5h36.291v9.073H57.98v39.171H47.611z"/>
	<path d="M75.33,260.744V212.5h10.369v48.244H75.33z"/>
	<path d="M117.092,260.744c-14.617,0-24.482-9.721-24.482-24.122c0-14.401,10.081-24.122,24.482-24.122h9.721v9.577h-8.353
		c-8.425,0-15.193,4.752-15.193,14.545c0,9.577,6.768,14.545,15.481,14.545h8.065v9.577H117.092z"/>
	<path d="M167.205,260.744l-3.385-9.577h-19.657l-3.384,9.577h-11.233l18.577-48.244h12.098l18.577,48.244H167.205z
		 M147.114,242.743h13.753l-6.839-19.586L147.114,242.743z"/>
	<path d="M183.472,260.744V212.5h10.37v39.171h17.281v9.072H183.472z"/>
	<path d="M216.665,260.744V212.5h10.368v39.171h17.282v9.072H216.665z"/>
	<path d="M274.482,212.5h10.945l-16.345,30.891v17.353h-10.37v-17.353L242.295,212.5H253.6l10.585,21.026L274.482,212.5z"/>
</g>
<g>
	<path d="M-212.304,350.745c-14.617,0-24.482-9.721-24.482-24.122s10.081-24.122,24.482-24.122h9.721v9.577h-8.353
		c-8.425,0-15.193,4.752-15.193,14.545c0,9.577,6.768,14.545,15.481,14.545h8.065v9.577H-212.304z"/>
	<path d="M-183.938,312.294l22.179,2.88v29.882l-11.594,7.129l-22.178-2.881v-29.954L-183.938,312.294z M-185.449,342.393
		l13.609,1.729v-22.034l-13.609-1.8V342.393z"/>
	<path d="M-133.32,321.007l-9.361,1.296v28.442h-10.08v-35.787l18.721-2.664L-133.32,321.007z"/>
	<path d="M-109.129,321.007l-9.361,1.296v28.442h-10.081v-35.787l18.722-2.664L-109.129,321.007z"/>
	<path d="M-94.874,342.68h21.313l-2.16,8.065h-29.235v-31.395l11.305-7.057l19.873,2.952v19.153l-21.097,2.953V342.68z
		 M-82.561,322.159l-12.313-1.872v11.305l12.313-1.729V322.159z"/>
	<path d="M-56.787,326.983l17.714,2.808v13.753l-9.433,7.201h-18.362v-8.065h17.714v-5.976l-17.714-2.809v-14.545l9.865-7.057
		l17.21,1.439v8.065l-16.994-1.44V326.983z"/>
	<path d="M-17.905,312.654l19.873,2.304v28.299l-7.849,7.488h-15.77v13.682h-10.08v-50.693h9.721v4.825h0.504L-17.905,312.654z
		 M-21.65,320.358v22.321h13.537v-20.665L-21.65,320.358z"/>
	<path d="M21.909,312.294l22.178,2.88v29.882l-11.593,7.129l-22.178-2.881v-29.954L21.909,312.294z M20.397,342.393l13.609,1.729
		v-22.034l-13.609-1.8V342.393z"/>
	<path d="M66.91,312.654l19.154,2.304v35.787H75.982v-28.73l-12.817-1.584v30.315H53.084v-37.012h9.721v4.825h0.504L66.91,312.654z"
		/>
	<path d="M128.182,342.393l3.024,6.77l-9.217,2.375l-3.528-7.129h-0.504l-3.601,6.337H94.771v-31.395l11.305-7.057l12.024,1.512
		v-15.337l10.081-1.728V342.393z M104.852,342.68h13.249v-20.665l-13.249-1.728V342.68z"/>
	<path d="M147.188,342.68h21.313l-2.159,8.065h-29.234v-31.395l11.305-7.057l19.874,2.952v19.153l-21.098,2.953V342.68z
		 M159.501,322.159l-12.313-1.872v11.305l12.313-1.729V322.159z"/>
	<path d="M190.676,312.654l19.154,2.304v35.787h-10.081v-28.73l-12.817-1.584v30.315h-10.081v-37.012h9.721v4.825h0.504
		L190.676,312.654z"/>
	<path d="M228.618,342.68h14.978l-2.161,8.065h-22.898v-29.234l8.858-7.777h15.482v8.065h-14.259V342.68z"/>
	<path d="M259.219,342.68h21.313l-2.161,8.065h-29.234v-31.395l11.304-7.057l19.874,2.952v19.153l-21.097,2.953V342.68z
		 M271.531,322.159l-12.312-1.872v11.305l12.312-1.729V322.159z"/>
</g>
<path d="M-220.774,402.653l19.226,2.304v28.658l-8.28,7.13h-25.418v-52.277l10.369-1.729v21.819h0.504L-220.774,402.653z
	 M-211.63,412.014l-13.249-1.584v22.25h13.249V412.014z M-160.365,432.393l3.097,6.768l-9.289,2.376l-3.528-7.128h-0.504
	l-3.601,6.337h-18.434v-37.013h10.081v28.947h12.097v-28.947h10.081V432.393z M-131.458,411.006l-9.361,1.297v28.442H-150.9v-35.788
	l18.723-2.664L-131.458,411.006z M-117.239,432.68h21.313l-2.16,8.065h-29.235v-31.395l11.305-7.058l19.873,2.953v19.152
	l-21.097,2.953V432.68z M-104.926,412.158l-12.313-1.871v11.304l12.313-1.729V412.158z M-54.74,432.393l3.024,6.768l-9.217,2.376
	l-3.528-7.128h-0.505l-3.6,6.337h-19.586v-18.722l2.88-0.361V408.99l11.305-6.697l19.227,2.88V432.393z M-78.07,432.68h13.249
	v-8.209l-13.249,2.018V432.68z M-64.821,411.941l-11.809-1.654v10.225l11.809-1.801V411.941z M-13.017,432.393l3.096,6.768
	l-9.288,2.376l-3.528-7.128h-0.505l-3.6,6.337h-18.434v-37.013h10.08v28.947h12.098v-28.947h10.081V432.393z M5.989,432.68h14.977
	l-2.16,8.065H-4.091V411.51l8.856-7.777h15.481v8.066H5.989V432.68z M46.49,411.006l-9.361,1.297v28.442H27.049v-35.788
	l18.722-2.664L46.49,411.006z M83.859,432.393l3.097,6.768l-9.289,2.376l-3.528-7.128h-0.504l-3.601,6.337h-19.37v-31.395
	l11.305-7.058l21.89,2.88V432.393z M60.746,432.68h13.033v-20.594l-13.033-1.728V432.68z M112.695,403.732v8.066h-7.273v28.946
	h-10.08v-28.946h-5.113v-8.066h5.113v-6.623l10.08-2.736v9.359H112.695z M122.846,399.988l-7.201-7.199l7.201-7.201l7.2,7.201
	L122.846,399.988z M117.805,440.745v-37.013h10.081v37.013H117.805z M146.785,432.68h14.978l-2.159,8.065h-22.899V411.51
	l8.857-7.777h15.48v8.066h-14.257V432.68z M200.499,432.393l3.097,6.768l-9.289,2.376l-3.529-7.128h-0.504l-3.601,6.337h-19.368
	v-31.395l11.304-7.058l21.889,2.88V432.393z M177.385,432.68h13.033v-20.594l-13.033-1.728V432.68z M209.965,440.745v-52.277
	l10.081-1.729v54.006H209.965z M229.477,440.745v-52.277l10.081-1.729v54.006H229.477z M270.771,403.732h10.081v42.844l-9.434,7.85
	h-22.682v-8.064h22.034v-11.953h-0.504l-3.601,6.337h-15.193l-4.68-37.013h9.866l3.744,28.947h10.368V403.732z"/>
<g>
	<path d="M-202.557,530.745l-4.176-11.161h-21.17l-4.176,11.161H-240l18.722-48.245h8.28l18.722,48.245H-202.557z M-225.383,512.744
		h16.129l-8.064-21.603L-225.383,512.744z"/>
	<path d="M-150.717,506.623c0,14.401-11.161,24.122-25.562,24.122h-12.602V482.5h12.602
		C-161.95,482.5-150.717,492.221-150.717,506.623z M-176.639,523.904c10.8,0,18.361-6.48,18.361-17.281s-7.561-17.281-18.361-17.281
		h-4.897v34.562H-176.639z"/>
	<path d="M-115.222,482.5h7.705l-16.706,48.245h-7.561L-148.2,482.5h7.704l12.962,37.732L-115.222,482.5z"/>
	<path d="M-72.239,530.745l-4.176-11.161h-21.17l-4.176,11.161h-7.92L-90.96,482.5h8.28l18.722,48.245H-72.239z M-95.064,512.744
		h16.129L-87,491.142L-95.064,512.744z"/>
	<path d="M-24.719,482.5h7.201v48.245h-7.201l-26.642-36.363v36.363h-7.201V482.5h7.201l26.642,36.363V482.5z"/>
	<path d="M14.879,530.745c-14.617,0-24.481-9.721-24.481-24.122c0-14.402,10.081-24.123,24.481-24.123h9.361v7.201h-9.001
		c-10.081,0-17.281,6.121-17.281,16.922s7.561,16.921,17.641,16.921h8.641v7.201H14.879z"/>
	<path d="M32.518,530.745V482.5h29.523v6.842H39.862v13.682H60.6v6.84H39.862v14.041H63.48v6.841H32.518z"/>
	<path d="M112.441,482.5h6.84v48.245h-7.344v-36.22l-16.922,23.979L78.022,494.67v36.075h-7.345V482.5h7.201l17.353,24.41
		L112.441,482.5z"/>
	<path d="M130.077,530.745V482.5h29.524v6.842h-22.179v13.682h20.738v6.84h-20.738v14.041h23.618v6.841H130.077z"/>
	<path d="M202.08,482.5h7.201v48.245h-7.201l-26.641-36.363v36.363h-7.201V482.5h7.201l26.641,36.363V482.5z"/>
	<path d="M227.637,530.745v-41.403h-13.321V482.5h33.987v6.842h-13.321v41.403H227.637z"/>
	<path d="M252.259,530.745v-6.841h14.978c5.039,0,7.919-2.16,7.919-6.48c0-5.473-4.679-6.841-10.081-8.209
		c-6.551-1.655-13.896-4.176-13.896-13.248c0-8.498,6.552-13.467,14.401-13.467h14.041v6.842h-14.256
		c-4.321,0-6.841,2.16-6.841,5.761c0,5.04,4.535,6.335,9.647,7.56c5.977,1.44,14.329,3.744,14.329,14.043
		c0,9.504-7.056,14.04-15.12,14.04H252.259z"/>
</g>
<g>
	<path d="M-234.193,620.745V572.5h7.345v41.404h19.298v6.841H-234.193z"/>
	<path d="M-198.552,579.701l-5.761-5.761l5.761-5.76l5.76,5.76L-198.552,579.701z M-202.153,620.745v-36.724h7.201v36.724H-202.153z
		"/>
	<path d="M-175.873,582.582l20.522,2.879v41.765l-7.201,7.201h-21.241v-6.48h21.241v-12.241h-0.36l-3.6,5.04h-18.722v-31.683
		L-175.873,582.582z M-178.033,614.265h15.481v-23.259l-15.481-2.23V614.265z"/>
	<path d="M-134.474,582.941l18.362,2.161v35.643h-7.201v-30.17l-15.122-1.8v31.97h-7.2v-52.564l7.2-1.44v20.521h0.36
		L-134.474,582.941z"/>
	<path d="M-88.753,584.021v6.48h-7.92v30.243h-7.2v-30.243h-5.761v-6.48h5.761v-7.199l7.2-2.161v9.36H-88.753z"/>
	<path d="M-72.194,582.941l18.362,2.161v35.643h-7.201v-30.17l-15.122-1.8v31.97h-7.2v-52.564l7.2-1.44v20.521h0.36L-72.194,582.941
		z"/>
	<path d="M-37.274,614.265h21.602l-2.16,6.48h-26.643v-31.683l9.361-6.48l19.082,2.808v18.073l-21.242,4.321V614.265z
		 M-23.234,590.719l-14.041-2.018v13.322l14.041-2.881V590.719z"/>
	<path d="M22.487,612.607l4.321,5.258l-5.761,4.32l-5.4-6.48h-0.36l-3.6,5.04H-7.036v-31.683l9.361-6.48l20.162,2.879V612.607z
		 M0.166,614.265h15.121v-23.331l-15.121-2.158V614.265z"/>
	<path d="M62.087,612.607l4.32,5.258l-5.761,4.32l-5.4-6.48h-0.36l-3.601,5.04H32.204v-31.683l9.361-6.48l13.321,1.871v-16.272
		l7.201-1.44V612.607z M39.405,614.265h15.481v-23.331l-15.481-2.158V614.265z"/>
	<path d="M79.004,614.265h21.602l-2.16,6.48H71.803v-31.683l9.361-6.48l19.082,2.808v18.073l-21.242,4.321V614.265z M93.045,590.719
		l-14.042-2.018v13.322l14.042-2.881V590.719z"/>
	<path d="M139.125,612.607l4.32,5.258l-5.76,4.32l-5.401-6.48h-0.359l-3.601,5.04h-19.082v-31.683l9.361-6.48l13.321,1.871v-16.272
		l7.2-1.44V612.607z M116.443,614.265h15.481v-23.331l-15.481-2.158V614.265z"/>
	<path d="M160.002,582.941l18.722,2.161v35.643h-7.2v-30.099l-15.123-1.8v31.898h-7.2v-36.724h6.841v3.24h0.359L160.002,582.941z"/>
	<path d="M195.283,614.265h21.602l-2.161,6.48h-26.643v-31.683l9.362-6.48l19.081,2.808v18.073l-21.242,4.321V614.265z
		 M209.323,590.719l-14.041-2.018v13.322l14.041-2.881V590.719z"/>
	<path d="M231.642,597.199l18.36,3.888v12.457l-7.201,7.201h-18.36v-6.48h18.36v-7.776l-18.36-3.889v-13.537l7.92-6.48l16.92,1.439
		v6.48l-17.64-1.512V597.199z"/>
	<path d="M263.681,597.199l18.362,3.888v12.457l-7.201,7.201h-18.362v-6.48h18.362v-7.776l-18.362-3.889v-13.537l7.922-6.48
		l16.92,1.439v6.48l-17.641-1.512V597.199z"/>
</g>
<g>
	<path d="M-228.251,687.199l18.361,3.888v12.457l-7.201,7.201h-18.361v-6.48h18.361v-7.776l-18.361-3.889v-13.537l7.92-6.48
		l16.921,1.439v6.48l-17.641-1.512V687.199z"/>
	<path d="M-173.17,702.607l4.32,5.258l-5.761,4.32l-5.4-6.48h-0.36l-3.601,5.04h-18.001v-36.724h7.2v30.243h14.402v-30.243h7.201
		V702.607z"/>
	<path d="M-152.292,672.941l19.082,2.161v28.441l-7.201,7.201h-15.481v13.682h-7.2v-50.405h6.841v3.24h0.359L-152.292,672.941z
		 M-155.893,704.265h15.481v-23.546l-15.481-1.801V704.265z"/>
	<path d="M-112.692,672.941l19.082,2.161v28.441l-7.201,7.201h-15.481v13.682h-7.201v-50.405h6.841v3.24h0.36L-112.692,672.941z
		 M-116.293,704.265h15.481v-23.546l-15.481-1.801V704.265z"/>
	<path d="M-83.895,710.745v-52.564l7.2-1.44v54.005H-83.895z"/>
	<path d="M-59.774,704.265h21.602l-2.16,6.48h-26.643v-31.683l9.361-6.48l19.082,2.808v18.073l-21.242,4.321V704.265z
		 M-45.734,680.719l-14.041-2.018v13.322l14.041-2.881V680.719z"/>
	<path d="M3.587,672.941l17.642,2.161v35.643h-7.201v-30.17l-14.401-1.729v31.898h-7.201v-30.17l-14.401-1.729v31.898h-7.2v-36.724
		h6.841v3.24h0.359l3.601-4.32l18.001,2.161v2.159h0.36L3.587,672.941z"/>
	<path d="M37.784,704.265h21.602l-2.16,6.48H30.583v-31.683l9.361-6.48l19.082,2.808v18.073l-21.242,4.321V704.265z M51.825,680.719
		l-14.041-2.018v13.322l14.041-2.881V680.719z"/>
	<path d="M79.184,672.941l18.722,2.161v35.643h-7.201v-30.099l-15.122-1.8v31.898h-7.2v-36.724h6.841v3.24h0.359L79.184,672.941z"/>
	<path d="M125.263,674.021v6.48h-7.92v30.243h-7.2v-30.243h-5.761v-6.48h5.761v-7.199l7.2-2.161v9.36H125.263z"/>
</g>
<path d="M160.192,702.607l4.321,5.256l-5.76,4.322l-5.402-6.48h-0.359l-3.601,5.04h-19.082v-17.497l2.88-0.578v-14.328l9.36-5.76
	l17.641,2.879V702.607z M137.511,704.265h15.482v-9.866l-15.482,3.169V704.265z M152.993,680.791l-12.961-1.801v12.312l12.961-2.664
	V680.791z"/>
<g>
	<path d="M187.912,674.021v6.48h-7.92v30.243h-7.201v-30.243h-5.76v-6.48h5.76v-7.199l7.201-2.161v9.36H187.912z"/>
	<path d="M196.91,669.701l-5.761-5.761l5.761-5.76l5.76,5.76L196.91,669.701z M193.31,710.745v-36.724h7.201v36.724H193.31z"/>
	<path d="M219.589,672.582l20.883,2.879v30.244l-9.36,6.48l-20.883-2.881v-30.242L219.589,672.582z M217.43,703.761l15.841,2.232
		v-24.987l-15.841-2.23V703.761z"/>
	<path d="M260.988,672.941l18.722,2.161v35.643h-7.2v-30.099l-15.123-1.8v31.898h-7.2v-36.724h6.841v3.24h0.359L260.988,672.941z"/>
</g>
<path d="M372.107,81.83V-71.528h-4.26v-8.521h29.82V73.31l-8.52,8.521H372.107z M380.628,73.31h8.52V-71.528h-8.52V73.31z
	 M406.188-65.139v-14.91h8.52v14.91H406.188z M406.188,81.83V-60.879h8.52V81.83H406.188z M446.657-52.358h-17.039v8.52h17.039
	V73.31l-8.52,8.521h-17.039V73.31h17.039V-35.319h-17.039v-17.04l8.52-8.521h17.039V-52.358z M455.177,120.169V-52.358h-4.26v-8.521
	h29.82V73.31l-8.521,8.521h-8.52v38.339H455.177z M463.696,73.31h8.52V-52.358h-8.52V73.31z M489.258,81.83V-52.358h-4.26v-8.521
	h27.688v27.69h-8.52v-19.169h-6.39V81.83H489.258z M516.949,81.83V-52.358l8.52-8.521h17.039V73.31l-8.52,8.521H516.949z
	 M525.469,73.31h8.52V-52.358h-8.52V73.31z M551.03,120.169V-52.358h-4.26v-8.521h29.818V73.31l-8.52,8.521h-8.52v38.339H551.03z
	 M559.55,73.31h8.52V-52.358h-8.52V73.31z M585.111,81.83V-52.358l8.52-8.521h17.039V73.31l-8.52,8.521H585.111z M593.631,73.31
	h8.52V-52.358h-8.52V73.31z M619.191,81.83V-52.358h-4.26v-8.521h27.689v27.69h-8.52v-19.169h-6.391V81.83H619.191z M661.791-52.358
	h-5.324V73.31h4.26v8.521h-12.779V-69.398h8.52v8.52h5.324V-52.358z M666.051-65.139v-14.91h8.52v14.91H666.051z M666.051,81.83
	V-60.879h8.52V81.83H666.051z M683.092,81.83V-52.358l8.52-8.521h17.041V73.31l-8.521,8.521H683.092z M691.611,73.31h8.52V-52.358
	h-8.52V73.31z M717.173,81.83V-52.358h-4.26v-8.521h29.818V81.83h-8.52V-52.358h-8.52V81.83H717.173z M751.254,81.83V-52.358
	l8.52-8.521h17.039V73.31h4.26v8.521H751.254z M759.773,73.31h8.52V-52.358h-8.52V73.31z M800.244-52.358h-6.39V73.31h4.26v8.521
	h-12.78V-52.358h-4.26v-8.521h4.26v-8.52h8.521v8.52h6.39V-52.358z M804.504,81.83V-52.358l8.52-8.521h17.039v42.6h-17.039V73.31
	h17.039v8.521H804.504z M813.023-26.799h8.52v-25.559h-8.52V-26.799z"/>
<g>
	<path d="M369.009,238.261v-71.408l8.399-8.4h10.501v8.4h-10.501v63.007h10.501v8.401H369.009z"/>
	<path d="M409.96,246.662v-60.907h-8.402v52.506h-8.399v-79.808h8.399v18.901h16.802v69.308H409.96z"/>
	<path d="M426.756,238.261v-52.506l8.402-8.401h16.802v52.506h4.2v8.401H426.756z M435.158,229.86h8.399v-44.105h-8.399V229.86z"/>
	<path d="M460.356,238.261v-52.506h-4.201v-8.401h27.303v26.253h-8.401v-17.852h-6.302v52.506H460.356z"/>
	<path d="M488.704,238.261v-52.506l8.402-8.401h16.802v52.506h4.2v8.401H488.704z M497.106,229.86h8.399v-44.105h-8.399V229.86z"/>
	<path d="M522.305,238.261v-52.506l8.399-8.401h10.501v8.401h-10.501v44.105h10.501v8.401H522.305z"/>
	<path d="M560.104,185.755h-5.774v44.105h4.2v8.401h-12.602v-52.506h-4.726v-8.401h4.726v-7.351h8.402v7.351h5.774V185.755z"/>
	<path d="M564.302,238.261v-52.506l8.401-8.401h16.802v37.805h-16.802v14.701h16.802v8.401H564.302z M572.703,206.758h8.401v-21.003
		h-8.401V206.758z"/>
	<path d="M596.851,238.261v-52.506h-4.2v-8.401h27.303v26.253h-8.401v-17.852h-6.3v52.506H596.851z"/>
	<path d="M625.201,171.054v-12.601h8.399v12.601H625.201z M625.201,238.261v-60.907h8.399v60.907H625.201z"/>
	<path d="M665.102,185.755h-16.801v8.401h16.801v35.704l-8.4,8.401h-16.802v-8.401h16.802v-27.303h-16.802v-16.802l8.401-8.401
		h16.801V185.755z"/>
	<path d="M672.448,238.261v-52.506l8.402-8.401h16.802v52.506h4.199v8.401H672.448z M680.851,229.86h8.399v-44.105h-8.399V229.86z"
		/>
	<path d="M720.75,185.755h-5.775v44.105h4.199v8.401h-12.601v-52.506h-4.726v-8.401h4.726v-7.351h8.401v7.351h5.775V185.755z"/>
	<path d="M724.948,171.054v-12.601h8.399v12.601H724.948z M724.948,238.261v-60.907h8.399v60.907H724.948z"/>
	<path d="M741.744,238.261v-52.506l8.402-8.401h16.802v52.506l-8.402,8.401H741.744z M750.146,229.86h8.399v-44.105h-8.399V229.86z"
		/>
	<path d="M775.345,238.261v-52.506h-4.201v-8.401h29.402v60.907h-8.399v-52.506h-8.402v52.506H775.345z"/>
	<path d="M832.047,185.755h-16.801v8.401h16.801v35.704l-8.4,8.401h-16.802v-8.401h16.802v-27.303h-16.802v-16.802l8.401-8.401
		h16.801V185.755z"/>
</g>
<g>
	<path d="M368.481,314.884h25.203v79.808h-8.401v-33.604h-8.401v33.604h-8.401V314.884z M376.882,352.688h8.401v-29.403h-8.401
		V352.688z"/>
	<path d="M402.081,394.691v-79.808h8.401v71.407h8.401v-71.407h8.401v79.808H402.081z"/>
	<path d="M439.881,394.691v-71.407h-8.402v-8.4h25.204v8.4h-8.402v71.407H439.881z"/>
	<path d="M460.878,394.691v-71.407l8.402-8.4h16.802v71.407l-8.402,8.4H460.878z M469.28,386.291h8.399v-63.007h-8.399V386.291z"/>
	<path d="M494.479,394.691v-79.808h25.201v31.503l-4.2,4.2l4.2,4.201v31.503l-8.399,8.4H494.479z M502.878,350.587h8.402v-27.303
		h-8.402V350.587z M502.878,386.291h8.402v-27.303h-8.402V386.291z"/>
	<path d="M528.076,394.691v-79.808h8.402v79.808H528.076z"/>
	<path d="M544.875,394.691v-71.407l8.402-8.4h16.802v71.407l-8.402,8.4H544.875z M553.277,386.291h8.399v-63.007h-8.399V386.291z"/>
	<path d="M578.476,394.691v-71.407l8.399-8.4h14.703v8.4h-14.703v63.007h8.402v-35.704h8.399v44.104H578.476z"/>
	<path d="M611.024,394.691v-79.808h25.204v33.603l-4.201,4.201l4.201,4.201v37.803h-8.402v-33.604h-8.399v33.604H611.024z
		 M619.427,352.688h8.399v-29.403h-8.399V352.688z"/>
	<path d="M644.625,314.884h25.201v79.808h-8.399v-33.604h-8.402v33.604h-8.399V314.884z M653.024,352.688h8.402v-29.403h-8.402
		V352.688z"/>
	<path d="M678.223,394.691v-79.808h25.204v47.255l-8.402,8.4h-8.399v24.152H678.223z M686.625,362.139h8.399v-38.854h-8.399V362.139
		z"/>
	<path d="M727.573,314.884h8.402v79.808h-8.402v-35.703h-8.399v35.703h-8.402v-79.808h8.402v35.703h8.399V314.884z"/>
	<path d="M744.372,394.691v-79.808h8.399v79.808H744.372z"/>
	<path d="M761.171,394.691v-71.407l8.399-8.4h10.502v8.4H769.57v63.007h10.502v8.4H761.171z"/>
	<path d="M785.32,314.884h25.204v79.808h-8.402v-33.604h-8.399v33.604h-8.402V314.884z M793.723,352.688h8.399v-29.403h-8.399
		V352.688z"/>
	<path d="M818.921,394.691v-79.808h8.399v71.407h8.402v8.4H818.921z"/>
</g>
<g>
	<path d="M369.003,551.124v-79.808h16.802v68.256h8.401v-68.256h16.802v79.808H369.003z"/>
	<path d="M419.402,570.026v-71.408h-4.201v-11.55h46.206v52.504l-11.55,11.552h-13.652v18.902H419.402z M436.204,539.572h8.401
		v-40.954h-8.401V539.572z"/>
	<path d="M469.802,571.076v-11.551h25.203v-8.401h-25.203v-53.556l10.501-10.5h35.703v11.55h-4.2v72.458H469.802z M486.604,539.572
		h8.401v-40.954h-8.401V539.572z"/>
	<path d="M520.201,551.124v-52.506h-4.2v-11.55h42.004v28.352h-16.802v-16.802h-4.201v52.506H520.201z"/>
	<path d="M562.201,551.124v-52.506l11.552-11.55h30.452v52.504h4.2v11.552H562.201z M579.003,539.572h8.401v-40.954h-8.401V539.572z
		"/>
	<path d="M612.601,551.124v-52.506l11.55-11.55h13.651v-15.752h16.802v79.808H612.601z M629.402,539.572h8.399v-40.954h-8.399
		V539.572z"/>
	<path d="M663,551.124v-52.506l11.552-11.55h30.454v52.504h4.199v11.552H663z M679.802,539.572h8.402v-40.954h-8.402V539.572z"/>
	<path d="M713.399,551.124v-79.808h16.802v15.752h25.204v52.504l-11.552,11.552H713.399z M730.201,539.572h8.402v-40.954h-8.402
		V539.572z"/>
	<path d="M763.799,551.124v-79.808h16.802v79.808H763.799z"/>
	<path d="M788.997,551.124v-52.506l11.552-11.55h30.454v44.104h-25.204v8.4h25.204v11.552H788.997z M805.799,519.621h8.402v-21.003
		h-8.402V519.621z"/>
</g>
<g>
	<path d="M369.003,707.557v-79.81h42.006v31.505l-8.402,8.4l8.402,8.4v31.504h-16.802v-28.354h-8.402v28.354H369.003z
		 M385.805,667.652h8.402v-28.354h-8.402V667.652z"/>
	<path d="M419.402,707.557v-79.81h27.303v11.552h-10.501v22.052h9.451v11.552h-9.451v23.102h10.501v11.553H419.402z"/>
	<path d="M478.204,627.747h16.802v68.257l-11.55,11.553h-30.453v-79.81h16.802v68.257h8.399V627.747z"/>
	<path d="M503.402,707.557v-79.81h27.302v11.552h-10.5v22.052h9.451v11.552h-9.451v23.102h10.5v11.553H503.402z"/>
	<path d="M537,707.557v-79.81h42.006v31.505l-8.402,8.4l8.402,8.4v31.504h-16.802v-28.354h-8.402v28.354H537z M553.802,667.652
		h8.402v-28.354h-8.402V667.652z"/>
	<path d="M587.401,707.557v-79.81h42.004V654l-8.401,8.4l8.401,8.401v25.202l-11.552,11.553H587.401z M604.203,662.4h8.4v-23.102
		h-8.4V662.4z M604.203,696.004h8.4v-22.051h-8.4V696.004z"/>
	<path d="M637.799,707.557v-79.81h27.303v11.552h-10.501v22.052h9.451v11.552h-9.451v23.102h10.501v11.553H637.799z"/>
	<path d="M671.399,707.557v-79.81h42.003v31.505l-8.399,8.4l8.399,8.4v31.504h-16.802v-28.354h-8.399v28.354H671.399z
		 M688.201,667.652h8.399v-28.354h-8.399V667.652z"/>
	<path d="M721.799,627.747h42.006v79.81h-16.802v-28.354h-8.402v28.354h-16.802V627.747z M738.601,667.652h8.402v-28.354h-8.402
		V667.652z"/>
	<path d="M776.399,707.557v-68.258h-8.401v-11.552h33.604v11.552h-8.4v68.258H776.399z"/>
	<path d="M805.799,707.557v-79.81h27.302v11.552h-10.5v22.052h9.45v11.552h-9.45v23.102h10.5v11.553H805.799z"/>
</g>
</svg>
