<?xml version="1.0" encoding="utf-8"?>
<!-- Generator: Adobe Illustrator 16.0.0, SVG Export Plug-In . SVG Version: 6.00 Build 0)  -->
<!DOCTYPE svg PUBLIC "-//W3C//DTD SVG 1.1//EN" "http://www.w3.org/Graphics/SVG/1.1/DTD/svg11.dtd">
<svg version="1.1" id="Layer_1" xmlns="http://www.w3.org/2000/svg" xmlns:xlink="http://www.w3.org/1999/xlink" x="0px" y="0px"
	 width="1800px" height="1012px" viewBox="-300 -168.5 1800 1012" enable-background="new -300 -168.5 1800 1012"
	 xml:space="preserve">
<rect x="-300" y="-168.5" fill="#FFFFFF" width="1800" height="1012"/>
<path fill="#BEF0DC" d="M174.111,108.653h-45.199V-45.816h45.199V108.653z M174.111,326.058h-45.199V171.586h45.199V326.058z
	 M83.71,612.115H38.511V388.99H83.71V612.115z M38.511,326.058H4.607l-56.5,57.212v291.779H83.71v45.769H-51.893v62.933h226.004
	V388.99h22.601v-62.933h67.802V-108.75H38.511V326.058z"/>
<path fill="#BEF0DC" d="M1123.336,503.412h-45.201V388.989h45.201V503.412z M852.131,612.115h-45.203V388.99h45.203V612.115z
	 M354.917,612.115h-45.201V388.99h45.201V612.115z M671.326,40h45.201v223.125h-45.201V40z M1100.738-22.933V40h25.426v286.058
	h-48.025v-348.99H829.531V40h22.602v200.241h-0.002v85.816h-22.6v-62.933H806.93V-22.933H643.078L580.925,40v286.058H473.571
	l62.15-62.933V-22.933h-90.403v286.058h-45.199V-22.933H287.115V40h22.603v286.058h-28.252l-62.152,62.932v286.058h248.604v-62.932
	h-22.6V326.058h22.603v62.932h22.601v286.058h90.403V388.989h22.599v91.54h90.402V326.058h84.75l-62.148,62.932v286.058H942.53
	V326.058h0.003V40h45.201v286.058h62.152l-62.152,62.932v286.058h226.004v-62.932h-135.604v-45.77h135.604V326.058h25.428v-62.933
	h-22.602V40h31.076v-62.933h-31.076v-45.77h-90.4v45.77H1100.738z"/>
<path d="M-229.323,307.604V163.955h75.604v143.648h-15.121V179.076h-15.121v128.528h-15.121V179.076h-15.121v128.528H-229.323z
	 M-138.604,307.604v-94.505l15.121-15.121h30.242v68.043h-30.242v26.462h30.242v15.121H-138.604z M-123.483,250.9h15.121v-37.802
	h-15.121V250.9z M-53.553,213.098h-10.396v79.384h7.561v15.121h-22.681V184.746h15.12v13.231h10.396V213.098z M-45.996,307.604
	v-94.505l15.121-15.121h30.241v94.505h7.561v15.121H-45.996z M-30.875,292.482h15.121v-79.384h-15.121V292.482z M14.485,307.604
	V163.955h15.121v143.648H14.485z M44.726,307.604V163.955h15.121v143.648H44.726z M74.966,307.604V163.955h15.121v143.648H74.966z
	 M105.207,307.604v-94.505l15.121-15.121h30.242v68.043h-30.242v26.462h30.242v15.121H105.207z M120.328,250.9h15.121v-37.802
	h-15.121V250.9z M163.796,337.845v-15.121h30.243v-15.121h-30.243v-94.505l15.122-15.121h37.803v15.121h-7.562v124.747H163.796z
	 M178.917,292.482h15.122v-79.384h-15.122V292.482z M224.279,186.637v-22.682h15.12v22.682H224.279z M224.279,307.604V197.978h15.12
	v109.626H224.279z M254.52,307.604v-94.505l15.12-15.121h30.242v68.043H269.64v26.462h30.242v15.121H254.52z M269.64,250.9h15.12
	v-37.802h-15.12V250.9z M313.107,307.604V197.978h41.584v47.252H339.57v-32.131h-11.341v94.505H313.107z M364.14,307.604V197.978
	h15.12v94.505h15.122v-94.505h15.12v94.505h7.56v15.121H364.14z M424.62,307.604v-94.505h-7.56v-15.121h52.923v109.626h-15.12
	v-94.505h-15.122v94.505H424.62z M485.102,337.845v-15.121h30.242v-15.121h-30.242v-94.505l15.122-15.121h37.802v15.121h-7.562
	v124.747H485.102z M500.224,292.482h15.12v-79.384h-15.12V292.482z"/>
<g>
	<path d="M-208.755,22.31c-4.088,29.428,9.646,45.777,32.043,45.777c11.445,0,14.224-2.452,27.794-23.706h4.904
		c-1.471,10.3-3.923,17.984-7.193,27.793c-8.502,1.961-17.657,4.087-32.372,4.087c-30.082,0-46.431-18.964-41.199-53.952
		s28.61-58.856,62.617-58.856c7.521,0,13.732,0.817,19.782,1.962l11.281-1.145c-1.471,9.81-4.578,24.197-8.338,35.968h-4.904
		l-1.799-22.889c-5.231-3.597-11.444-5.722-19.619-5.722C-190.281-28.373-204.831-5.483-208.755,22.31z"/>
	<path d="M-72.236,64.817l12.425,1.635l-0.491,4.087c-8.175,3.27-18.638,4.904-26.485,4.904l2.616-18.964l-28.121,18.964
		c-7.847,0-13.242-0.654-15.204-2.289c-1.309-1.145-1.635-2.78-1.635-5.886c0-32.698,4.904-50.683,14.714-60.492
		c6.539-6.539,16.839-16.349,29.919-16.349c3.27,0,7.03,0.164,10.463,0.327l4.741-8.501h8.175L-72.236,64.817z M-83.19,49.285
		L-76.814,2.2c-2.779-0.163-5.559-0.327-7.684-0.327c-6.54,0-16.677,0.654-20.109,4.087c-6.54,6.54-10.627,28.611-10.627,53.134
		c0,4.905,1.962,5.396,7.685,5.396L-83.19,49.285z"/>
	<path d="M-29.234-43.086l-12.261-1.636l0.49-4.087c7.031-2.616,15.695-4.905,26.323-4.905L-30.051,64.817l12.425,1.635l-0.49,4.087
		c-8.175,3.27-16.676,4.904-26.485,4.904L-29.234-43.086z"/>
	<path d="M13.929-43.086L1.668-44.722l0.49-4.087c7.031-2.616,15.695-4.905,26.323-4.905L13.112,64.817l12.425,1.635l-0.49,4.087
		c-8.175,3.27-16.676,4.904-26.485,4.904L13.929-43.086z"/>
	<path d="M52.351,1.056L40.088-0.579l0.491-4.087c8.175-3.27,16.84-4.905,26.322-4.905l-9.973,74.225l12.425,1.635l-0.49,4.087
		c-8.175,3.27-17.003,4.905-26.486,4.905L52.351,1.056z M53.495-35.402c0-2.779,7.685-10.954,10.3-10.954
		c2.779,0,11.771,6.703,11.771,9.319c0,2.779-7.521,11.117-10.137,11.117C62.65-25.92,53.495-32.787,53.495-35.402z"/>
	<path d="M141.782-17.745h8.174l-11.77,86.159c-1.635,12.098-5.068,19.292-12.917,26.648c-8.338,7.521-16.021,11.445-27.466,11.445
		c-4.905,0-11.444-0.491-19.619-2.453c-1.635-2.942-2.779-6.376-3.106-10.627l0.981-1.635c8.992,1.798,17.82,3.27,29.265,3.27
		c13.733,0,16.513-2.615,18.802-19.619l2.615-18.801L98.785,75.444c-7.848,0-13.243-0.654-15.205-2.289
		c-1.308-1.145-1.635-2.78-1.635-5.886c0-32.698,4.905-50.683,14.714-60.492c6.54-6.539,16.84-16.349,29.919-16.349
		c3.923,0,7.357,0.164,10.463,0.327L141.782-17.745z M127.723,49.285L134.099,2.2c-2.452-0.163-4.904-0.327-7.521-0.327
		c-6.54,0-16.676,0.654-20.109,4.087c-6.54,6.54-10.627,28.611-10.627,53.134c0,3.76,0.98,4.905,4.251,4.905
		c1.961,0,5.068-0.654,8.011-2.452L127.723,49.285z"/>
	<path d="M206.527-9.571c3.271,0,7.03,0.491,10.954,1.636c-1.144,8.174-2.943,15.531-6.703,25.341h-5.395
		c0.817-14.714-0.817-15.532-4.087-15.532l-15.532,9.482l-8.502,62.454h-13.08l9.81-72.753L161.73-0.579l0.491-4.087
		c8.175-3.27,16.84-4.905,26.322-4.905l-1.961,13.897L206.527-9.571z"/>
	<path d="M276.504,64.817l12.425,1.635l-0.491,4.087c-8.175,3.27-18.637,4.904-26.486,4.904l2.616-18.964l-28.121,18.964
		c-7.847,0-13.242-0.654-15.204-2.289c-1.31-1.145-1.635-2.78-1.635-5.886c0-32.698,4.904-50.683,14.713-60.492
		c6.539-6.539,16.84-16.349,29.919-16.349c3.27,0,7.03,0.164,10.463,0.327l4.74-8.501h8.175L276.504,64.817z M265.55,49.285
		L271.925,2.2c-2.779-0.163-5.558-0.327-7.683-0.327c-6.541,0-16.677,0.654-20.109,4.087c-6.541,6.54-10.627,28.611-10.627,53.134
		c0,4.905,1.963,5.396,7.685,5.396L265.55,49.285z"/>
	<path d="M372.313-1.396c0,32.698-4.904,50.682-14.714,60.491c-6.541,6.54-16.838,16.349-29.919,16.349
		c-3.432,0-6.375,0-9.155-0.164l-3.759,31.227l-13.898,3.27L314.928,1.056l-12.426-1.635l0.492-4.087
		c8.174-3.27,16.676-4.905,26.484-4.905L327.19,8.577l28.283-18.148c7.849,0,13.242,0.654,15.205,2.29
		C371.985-6.138,372.313-4.503,372.313-1.396z M358.417,6.778c0-5.232-2.125-5.558-6.866-5.558l-25.342,14.714l-6.212,47.739
		c2.452,0.164,4.904,0.328,7.683,0.328c6.541,0,16.676-0.654,20.109-4.088C354.33,53.373,358.417,31.302,358.417,6.778z"/>
	<path d="M444.58,64.817l12.426,1.635l-0.491,4.087c-8.174,3.27-17.004,4.904-26.484,4.904l9.318-67.031
		c0.817-5.722,0-6.867-8.175-6.867l-24.523,15.695l-7.356,56.568h-13.244l15.205-116.895l-12.261-1.636l0.489-4.087
		c7.031-2.616,15.694-4.905,26.323-4.905l-8.175,63.762L436.57-9.571c8.174,0,13.896,0.818,15.53,2.453s1.799,5.722,0.164,17.166
		L444.58,64.817z"/>
	<path d="M525.839-7.118l13.406-1.635l-10.627,77.167c-1.635,12.098-5.068,19.292-12.916,26.648
		c-8.338,7.521-16.021,11.445-27.467,11.445c-4.904,0-11.443-0.491-19.617-2.453l-3.107-10.627l0.98-1.635
		c8.993,1.798,17.821,3.27,29.265,3.27c13.734,0,16.515-2.615,18.803-19.619l2.616-18.801l-26.323,18.801
		c-8.174,0-13.896-0.817-15.53-2.452s-1.799-5.722-0.164-17.167l7.685-54.769h-12.425l0.489-4.087
		c8.174-4.087,17.004-6.54,26.486-6.54l-9.319,67.031c-0.817,6.376,1.144,7.03,7.358,7.03l22.724-15.205L525.839-7.118z"/>
</g>
<g>
	<path d="M-236.27,534.25v-3.449l14.663-6.9v-92.291l-14.663-2.589v-4.312c4.312-1.897,11.212-4.312,20.701-4.312
		c10.35,0,16.388,0.517,25.014,1.726v3.449l-14.664,6.9v92.292l14.664,2.589v4.312c-4.313,1.896-11.214,4.312-20.701,4.312
		C-221.606,535.977-227.645,535.459-236.27,534.25z"/>
	<path d="M-66.353,433.162l-0.863,43.299v25.014l1.725,33.639l-9.487,1.726l-72.454-90.05v76.421l24.151,3.278v5.176
		c-4.312,1.896-11.213,4.312-20.7,4.312c-10.351,0-18.114-0.518-28.464-1.727v-4.312l13.8-6.555l0.863-43.473v-24.15l-1.725-34.502
		l10.351-1.725l71.591,87.807v-74.007l-24.151-3.276v-5.176c4.312-1.898,11.212-4.312,20.701-4.312
		c10.351,0,18.113,0.518,28.464,1.725v4.312L-66.353,433.162z"/>
	<path d="M48.356,419.533c0,10.35-1.38,20.184-3.451,29.326H39.73l-3.968-18.977h-39.16v45.715h29.844l8.971-8.625h4.312
		c-0.345,10.006-1.38,20.184-3.45,30.189h-4.313l-5.52-12.939H-3.397v40.54l21.564,2.589v4.312
		c-4.83,1.896-12.938,4.312-22.426,4.312c-10.351,0-19.839-0.518-30.189-1.727v-3.449l14.663-6.9v-92.291l-14.663-1.727v-4.312
		c7.763-3.622,12.938-4.312,22.426-4.312h46.06L48.356,419.533z"/>
	<path d="M150.129,505.787h5.175c-0.344,9.143-1.38,20.701-3.45,31.052l-13.283-1.726H66.463v-5.176l13.8-5.175v-93.153
		L65.6,429.883v-4.312c7.763-3.622,12.938-4.312,22.426-4.312h49.509l14.319-1.725c0,10.35-1.38,20.184-3.451,29.326h-5.175
		l-3.967-18.977H96.652v42.266h33.293l8.971-8.627h4.312c-0.345,10.007-1.38,20.185-3.45,30.189h-4.312l-5.521-12.938H96.652v45.715
		h41.402L150.129,505.787z"/>
	<path d="M277.778,537.7c-1.207,0.691-2.587,0.862-4.312,0.862c-8.625,0-17.423-5.002-32.776-26.737l-19.666-27.603h-13.11v40.54
		l14.663,2.589v4.312c-4.312,1.896-11.213,4.312-20.701,4.312c-10.351,0-14.663-0.518-25.014-1.727v-3.449l14.663-6.9v-92.291
		L176,429.883v-4.312c12.075-4.312,22.771-6.037,34.847-6.037c33.639,0,51.407,7.762,51.407,30.188
		c0,15.353-9.489,25.187-24.324,29.672L277.778,537.7z M207.914,475.598h8.625c17.25,0,27.601-8.625,27.601-24.15
		c0-18.977-13.8-24.152-32.776-24.152h-3.45V475.598z"/>
	<path d="M393.353,433.162l-0.863,43.299v25.014l1.726,33.639l-9.489,1.726l-72.453-90.05v76.421l24.151,3.278v5.176
		c-4.312,1.896-11.212,4.312-20.701,4.312c-10.351,0-18.113-0.518-28.463-1.727v-4.312l13.8-6.555l0.863-43.473v-24.15
		l-1.724-34.502l10.351-1.725l71.59,87.807v-74.007l-24.151-3.276v-5.176c4.312-1.898,11.213-4.312,20.7-4.312
		c10.351,0,18.114,0.518,28.465,1.725v4.312L393.353,433.162z"/>
	<path d="M421.808,480.773c0-36.055,24.325-62.104,59.517-62.104c33.466,0,59.515,22.6,59.515,56.928
		c0,36.055-24.324,62.103-59.515,62.103C447.857,537.7,421.808,515.102,421.808,480.773z M521.862,478.186
		c0-31.742-16.56-50.891-41.401-50.891c-24.842,0-39.677,19.148-39.677,50.891c0,31.741,16.56,50.89,41.401,50.89
		C507.028,529.075,521.862,509.927,521.862,478.186z"/>
</g>
<g>
	<path d="M-172.271,718.187h-16.184l-33.986-40.583v40.583h-12.697v-83.408h12.697v39.34l33.363-39.34h14.938l-34.359,40.085
		L-172.271,718.187z"/>
	<path d="M-149.235,652.207l36.102,4.98v52.285l-16.184,11.204l-36.102-4.98v-52.284L-149.235,652.207z M-152.97,706.111
		l27.387,3.859v-43.199l-27.387-3.857V706.111z"/>
	<path d="M-57.731,654.697h12.449v63.489h-12.449v-26.642l-26.143-3.111v29.753h-12.449v-63.489h12.449v31.122h0.623l6.224-7.47
		l19.296,2.242V654.697z"/>
	<path d="M28.793,652.83l30.5,3.734v61.622H46.844v-52.16l-24.898-2.988v55.148H9.497v-52.16l-24.897-2.988v55.148H-27.85v-63.489
		h11.826v5.602h0.623l6.224-7.469l31.122,3.734v3.734h0.623L28.793,652.83z"/>
	<path d="M94.78,652.83l32.99,3.734v49.174l-12.449,12.448H88.556v23.653H76.106v-87.143h11.827v5.602h0.623L94.78,652.83z
		 M88.556,706.982h26.765v-40.707l-26.765-3.113V706.982z"/>
	<path d="M198.732,654.697h28.632v51.041l-12.448,12.448h-23.03v23.653h-12.448v-32.367h-0.624l-6.223,8.714h-28.633v-51.041
		l12.45-12.448h23.03v-26.143l12.448-3.734v38.592h0.623L198.732,654.697z M156.407,706.982h23.03v-41.08h-23.03V706.982z
		 M191.886,706.982h23.03v-41.08h-23.03V706.982z"/>
	<path d="M259.74,652.207l36.101,4.98v52.285l-16.184,11.204l-36.101-4.98v-52.284L259.74,652.207z M256.005,706.111l27.387,3.859
		v-43.199l-27.387-3.857V706.111z"/>
	<path d="M331.324,652.83l32.991,3.734v49.174l-12.45,12.448h-26.764v23.653h-12.45v-87.143h11.826v5.602h0.624L331.324,652.83z
		 M325.102,706.982h26.764v-40.707l-26.764-3.113V706.982z"/>
	<path d="M444.242,652.83l17.802,1.867v63.489h-12.448v-53.903l-7.346-0.871l-12.573,54.774h-17.429l-8.465-54.028l-7.594-0.871
		l-3.86,54.899h-19.917v-11.204h8.839l2.987-43.57l16.184-10.582l13.942,1.369l7.346,52.907l9.461-45.687L444.242,652.83z"/>
	<path d="M529.274,704.119l7.469,9.088l-9.959,7.47l-9.337-11.204h-0.621l-6.226,8.714h-32.367v-54.774l16.184-11.205l34.857,4.98
		V704.119z M490.683,706.982h26.143v-40.335l-26.143-3.733V706.982z"/>
</g>
<g>
	<path d="M661.562,524.484V396.986l28.051-28.051h43.35v28.051h-30.6v99.447h30.6v28.051H661.562z"/>
	<path d="M804.36,544.884V396.986h-20.399v127.498H743.16V330.687h40.801v38.249h61.198v175.948H804.36z"/>
	<path d="M921.659,396.986h-14.024v99.447h10.199v28.051h-50.998V396.986H855.36v-28.051h11.476v-20.399h40.799v20.399h14.024
		V396.986z"/>
	<path d="M993.059,544.884V396.986h-20.399v127.498h-40.8V330.687h40.8v38.249h61.198v175.948H993.059z"/>
	<path d="M1054.257,524.484V396.986l28.05-28.051h73.949v127.498l-28.049,28.051H1054.257z M1095.057,496.434h20.4v-99.447h-20.4
		V496.434z"/>
	<path d="M1176.656,524.484V396.986h-10.199v-28.051h112.197v155.549h-40.799V396.986h-20.398v127.498H1176.656z"/>
	<path d="M1299.056,358.736v-28.05h40.8v28.05H1299.056z M1299.056,524.484V368.936h40.8v155.549H1299.056z"/>
	<path d="M1360.252,524.484V396.986l28.051-28.051h43.35v28.051h-30.6v99.447h30.6v28.051H1360.252z"/>
</g>
<g>
	<path d="M731.076,187.501l-0.623,31.247v18.051l1.245,24.275l-6.849,1.245l-52.284-64.983v55.148l17.429,2.365v3.735
		c-3.113,1.369-8.092,3.112-14.938,3.112c-7.47,0-13.072-0.373-20.542-1.245v-3.112l9.96-4.731l0.622-31.371v-17.429l-1.244-24.897
		l7.469-1.245l51.664,63.365v-53.406l-17.43-2.365v-3.735c3.113-1.369,8.092-3.112,14.939-3.112c7.469,0,13.07,0.374,20.539,1.245
		v3.112L731.076,187.501z"/>
	<path d="M763.45,226.217v3.735c0,8.714,0.498,15.437,4.979,19.295c3.859,3.237,9.336,3.735,14.938,3.735
		c4.98,0,9.96-0.623,13.695-1.245l0.623,1.245l-5.604,6.847c-3.734,1.245-8.715,2.49-13.693,2.49c-7.345,0-14.44-0.872-19.297-5.603
		c-5.85-5.478-6.846-14.44-6.846-26.765c0-12.325,2.49-18.301,6.225-22.409c3.983-4.356,13.071-9.958,20.541-9.958
		c14.066,0,21.162,4.73,21.162,20.541c0,2.365-0.249,5.104-0.623,8.092H763.45z M766.562,207.792
		c-1.493,1.494-2.613,5.851-2.987,14.441l24.773-2.365v-1.743c0-10.582-5.354-13.072-13.694-13.072
		C771.293,205.054,768.43,205.926,766.562,207.792z"/>
	<path d="M852.463,251.737l0.623,1.245l-5.602,7.096c-3.736,1.245-8.092,2.241-12.45,2.241c-7.345,0-12.821-1.121-17.802-5.727
		c-5.852-5.477-7.719-13.072-7.719-27.885c0-12.325,4.98-18.673,8.715-22.408c3.734-3.734,11.204-8.714,21.164-8.714
		c4.979,0,9.211,0.498,13.693,1.867c0,6.225-1.246,13.694-3.113,21.164h-3.734l-2.24-14.067c-2.988-0.622-5.852-0.871-8.342-0.871
		c-4.979,0-9.336,1.245-11.204,3.112c-1.866,1.868-3.733,6.225-3.733,18.673c0,11.204,1.244,18.051,5.726,21.91
		c3.86,3.236,9.212,3.61,14.813,3.61C844.994,252.982,848.977,252.359,852.463,251.737z"/>
	<path d="M894.793,197.585c2.49,0,5.479,0.498,8.714,1.867c0,6.225-0.747,11.205-2.49,18.674h-3.733
		c-3.113-11.204-4.358-11.827-8.715-11.827c-1.743,0-4.854,1.12-7.469,2.241v45.065l11.825,1.867v1.868
		c-3.111,2.49-7.47,4.357-13.071,4.357c-4.979,0-9.834-0.622-16.806-1.867v-1.867l6.847-4.979v-46.684l-9.336-1.867v-3.112
		c4.979-1.868,11.826-3.734,20.541-3.734v7.469L894.793,197.585z"/>
	<path d="M961.398,225.595c0,14.938-5.354,23.653-10.457,29.006c-5.727,5.976-9.461,8.341-17.553,8.341
		c-19.918,0-24.275-9.959-24.275-31.123c0-12.449,2.24-18.299,6.846-24.275c5.105-6.598,12.201-10.582,19.92-10.582
		c9.586,0,16.432,1.868,20.041,5.603C960.402,206.797,961.398,212.647,961.398,225.595z M949.945,229.329
		c0-11.577-0.747-16.184-4.232-19.544c-2.863-2.739-8.092-4.108-13.57-4.108c-2.363,0-5.228,0.249-8.714,1.12
		c-2.239,5.976-2.862,12.2-2.862,21.287c0,17.429,1.619,26.144,16.557,26.144c5.478,0,7.594-0.623,9.586-3.61
		C948.949,247.38,949.945,240.16,949.945,229.329z"/>
	<path d="M1036.719,255.472v1.868c-3.111,2.49-6.848,4.357-10.581,4.357c-4.98,0-9.835-0.622-16.806-1.867v-1.867l6.846-4.979
		v-36.725c0-3.734-0.622-5.726-3.112-6.971c-2.489-1.245-6.847-2.988-12.448-2.988l-9.337,3.735v43.571l9.337,1.867v1.868
		c-3.113,2.49-6.847,4.357-10.582,4.357c-4.979,0-9.835-0.622-16.807-1.867v-1.867l6.848-4.979v-46.684l-9.336-1.867v-3.112
		c4.979-1.868,11.826-3.734,20.54-3.734v8.714l16.184-8.714c6.1,0.373,10.706,1.867,13.942,3.361
		c5.229,2.49,5.975,5.229,5.975,9.088v43.571L1036.719,255.472z"/>
	<path d="M1097.102,225.595c0,14.938-5.354,23.653-10.457,29.006c-5.727,5.976-9.461,8.341-17.553,8.341
		c-19.918,0-24.275-9.959-24.275-31.123c0-12.449,2.24-18.299,6.846-24.275c5.105-6.598,12.201-10.582,19.92-10.582
		c9.586,0,16.432,1.868,20.041,5.603C1096.105,206.797,1097.102,212.647,1097.102,225.595z M1085.648,229.329
		c0-11.577-0.747-16.184-4.232-19.544c-2.863-2.739-8.092-4.108-13.57-4.108c-2.363,0-5.228,0.249-8.714,1.12
		c-2.239,5.976-2.862,12.2-2.862,21.287c0,17.429,1.619,26.144,16.557,26.144c5.478,0,7.594-0.623,9.586-3.61
		C1084.652,247.38,1085.648,240.16,1085.648,229.329z"/>
	<path d="M1207.279,255.472v1.868c-3.113,2.49-6.848,4.357-10.582,4.357c-4.979,0-9.836-0.622-16.807-1.867v-1.867l6.847-4.979
		v-36.725c0-3.734-0.621-5.726-3.111-6.971s-6.847-2.988-12.45-2.988l-8.714,3.486v0.249v43.571l9.337,1.867v1.868
		c-3.111,2.49-6.847,4.357-10.58,4.357c-4.98,0-9.836-0.622-16.807-1.867v-1.867l6.847-4.979v-36.725
		c0-3.734-0.622-5.726-3.112-6.971c-2.489-1.245-6.848-2.988-12.449-2.988l-8.714,3.486v43.82l9.337,1.867v1.868
		c-3.113,2.49-6.847,4.357-10.582,4.357c-4.979,0-9.835-0.622-16.807-1.867v-1.867l6.848-4.979v-46.684l-9.336-1.867v-3.112
		c4.979-1.868,11.826-3.734,20.54-3.734v8.341l15.562-8.341c6.1,0.373,10.706,1.867,13.941,3.361
		c3.238,1.494,4.732,3.237,5.479,5.229l16.06-8.59c6.1,0.373,10.705,1.867,13.942,3.361c5.229,2.49,5.975,5.229,5.975,9.088v43.571
		L1207.279,255.472z"/>
	<path d="M1243.389,255.472v1.868c-3.113,2.49-6.847,4.357-10.582,4.357c-4.979,0-9.835-0.622-16.807-1.867v-1.867l6.848-4.979
		v-46.684l-9.336-1.867v-3.112c4.979-1.868,11.826-3.734,21.785-3.734c-0.871,7.469-1.245,13.694-1.245,19.918v36.102
		L1243.389,255.472z M1219.362,179.161c0-2.241,6.224-8.963,8.466-8.963c2.239,0,9.586,5.477,9.586,7.718
		c0,2.241-6.102,9.088-8.342,9.088S1219.362,181.401,1219.362,179.161z"/>
	<path d="M1294.432,251.737l0.622,1.245l-5.602,7.096c-3.735,1.245-8.092,2.241-12.45,2.241c-7.344,0-12.821-1.121-17.802-5.727
		c-5.851-5.477-7.718-13.072-7.718-27.885c0-12.325,4.98-18.673,8.714-22.408c3.735-3.734,11.204-8.714,21.164-8.714
		c4.979,0,9.211,0.498,13.693,1.867c0,6.225-1.245,13.694-3.112,21.164h-3.734l-2.241-14.067c-2.988-0.622-5.851-0.871-8.341-0.871
		c-4.979,0-9.337,1.245-11.205,3.112c-1.865,1.868-3.733,6.225-3.733,18.673c0,11.204,1.245,18.051,5.726,21.91
		c3.86,3.236,9.213,3.61,14.814,3.61C1286.962,252.982,1290.945,252.359,1294.432,251.737z"/>
	<path d="M1356.68,225.595c0,14.938-5.354,23.653-10.457,29.006c-5.727,5.976-9.462,8.341-17.554,8.341
		c-19.917,0-24.275-9.959-24.275-31.123c0-12.449,2.241-18.299,6.847-24.275c5.105-6.598,12.201-10.582,19.919-10.582
		c9.586,0,16.433,1.868,20.042,5.603C1355.684,206.797,1356.68,212.647,1356.68,225.595z M1345.227,229.329
		c0-11.577-0.748-16.184-4.232-19.544c-2.863-2.739-8.092-4.108-13.57-4.108c-2.364,0-5.229,0.249-8.713,1.12
		c-2.241,5.976-2.863,12.2-2.863,21.287c0,17.429,1.618,26.144,16.557,26.144c5.477,0,7.594-0.623,9.586-3.61
		C1344.23,247.38,1345.227,240.16,1345.227,229.329z"/>
	<path d="M1431.999,255.472v1.868c-3.111,2.49-6.847,4.357-10.581,4.357c-4.98,0-9.834-0.622-16.806-1.867v-1.867l6.847-4.979
		v-36.725c0-3.734-0.623-5.726-3.113-6.971c-2.488-1.245-6.846-2.988-12.447-2.988l-9.338,3.735v43.571l9.338,1.867v1.868
		c-3.113,2.49-6.848,4.357-10.582,4.357c-4.979,0-9.836-0.622-16.807-1.867v-1.867l6.847-4.979v-46.684l-9.335-1.867v-3.112
		c4.979-1.868,11.825-3.734,20.539-3.734v8.714l16.184-8.714c6.1,0.373,10.707,1.867,13.943,3.361
		c5.229,2.49,5.975,5.229,5.975,9.088v43.571L1431.999,255.472z"/>
</g>
<g>
	<path d="M747.928,81.999l-10.613-28.364h-53.799L672.9,81.999h-20.128l47.578-122.604h21.044l47.576,122.604H747.928z
		 M689.92,36.251h40.99l-20.496-54.897L689.92,36.251z"/>
	<path d="M810.149-14.071l47.578,5.489V65.53L837.6,81.999h-55.812V-51.584l18.299-3.66v52.152H801L810.149-14.071z M800.086,65.53
		h39.343V5.509l-39.343-4.392V65.53z"/>
	<path d="M897.072,22.161l46.662,9.882V63.7l-18.299,18.299h-46.662V65.53h46.662V45.767l-46.662-9.882V1.483l20.128-16.47
		l43.003,3.66V5.143L897.072,1.3V22.161z"/>
	<path d="M1008.699-11.326V5.143H988.57v76.856h-18.299V5.143h-14.64v-16.469h14.64v-18.3l18.299-5.489v23.789H1008.699z"/>
	<path d="M1064.514,1.483l-23.789,3.842v76.674h-18.299V-8.582l40.257-6.404L1064.514,1.483z"/>
	<path d="M1151.435,61.321l10.979,13.358l-14.641,10.98l-13.724-16.47h-0.914l-9.149,12.81h-47.578V1.483l23.789-16.47l51.237,7.32
		V61.321z M1094.707,65.53h38.429V6.241l-38.429-5.49V65.53z"/>
	<path d="M1231.04,81.999h-20.128l-1.281,4.941c7.32,2.013,14.091,6.221,14.091,16.103c0,7.868-5.856,13.724-13.726,13.724h-20.129
		v-12.809h20.129v-4.575l-16.468-3.66l3.659-13.724h-21.044V6.973l18.299-18.299h40.259V5.143h-40.259V65.53h42.088L1231.04,81.999z
		"/>
	<path d="M1325.285,61.321l10.979,13.358l-14.639,10.98l-13.725-16.47h-0.914l-9.149,12.81h-47.578V1.483l23.789-16.47l51.237,7.32
		V61.321z M1270.387-37.311v11.345h-14.638V-39.69c0-7.32,5.489-12.809,12.809-12.809c3.111,0,6.404,0.915,9.149,1.829l27.448,9.699
		v-10.614h14.64V-34.2l-14.64,9.149L1270.387-37.311z M1268.558,65.53h38.429V6.241l-38.429-5.49V65.53z"/>
	<path d="M1373.781-14.986l53.067,7.32v76.855l-23.789,16.47l-53.067-7.32V1.483L1373.781-14.986z M1368.291,64.249l40.259,5.672
		V6.424l-40.259-5.673V64.249z"/>
</g>
<g>
	<path d="M651.941,660.902c0-34.199,25.65-59.85,61.559-59.85c35.91,0,61.559,25.65,61.559,59.85s-25.648,59.85-61.559,59.85
		C677.592,720.752,651.941,695.102,651.941,660.902z M740.861,660.902c0-17.613-10.604-29.07-27.361-29.07
		s-27.358,11.457-27.358,29.07s10.601,29.07,27.358,29.07S740.861,678.516,740.861,660.902z"/>
	<path d="M876.805,697.667l3.42,20.52h-32.49l-2.564-18.81h-1.71l-8.55,18.81h-47.879v-73.529l32.488-18.81l24.796,2.907v-33.687
		l32.489-5.131V697.667z M819.52,694.246h24.796v-41.039L819.52,650.3V694.246z"/>
	<path d="M952.043,653.207l-22.229,2.906v62.073h-32.49v-85.499l53.01-6.84L952.043,653.207z"/>
	<path d="M993.082,625.848l49.59,7.694v48.563l-49.59,4.105v8.035h49.59v17.102l-15.902,18.809h15.902v20.521h-24.625
		c-8.549,0-12.994-5.13-12.994-11.971c0-5.13,3.419-8.892,6.84-11.97l9.746-8.55h-61.045v-73.529L993.082,625.848z M993.082,672.53
		l23.939-2.052v-16.074l-23.939-3.59V672.53z"/>
	<path d="M1091.406,694.246h30.779l-5.129,23.94h-58.139v-68.399l25.649-20.52h35.909v23.939h-29.07V694.246z"/>
	<path d="M1211.962,629.268l-37.448,64.979h35.737v23.94h-82.078l37.447-64.979h-34.882l5.129-23.939H1211.962z"/>
	<path d="M1264.972,626.703l47.024,5.984v85.499h-32.49v-64.124l-23.938-3.078v67.202h-32.49v-88.919h31.635v16.245h1.71
		L1264.972,626.703z"/>
	<path d="M1387.236,629.268h32.49v100.889l-29.07,20.521h-58.139v-23.94h54.719v-27.359h-1.709l-8.551,18.81h-39.33l-10.26-88.919
		h31.635l7.523,64.979h20.691V629.268z"/>
</g>
</svg>
