<?xml version="1.0" encoding="UTF-8"?><svg id="Calque_1" xmlns="http://www.w3.org/2000/svg" viewBox="0 0 1600 900"><defs><style>.cls-1{fill:#f4f4f4;}</style></defs><rect class="cls-1" x=".5" y="-.5" width="1600" height="900"/><rect y="600" width="1600" height="300"/><rect y="-1" width="1600" height="300"/><g><path d="M431.06,398.12l3.25-3.83h80.99l30.58,86.35h8.46l14.31-69.93,16.9-16.42,58.54,.18,9.14,6.8,27.97,81.97,19.84-10.08,3.25,2.28,6.5,83.35-5.2,3.83h-58.22l-12.68-10.08-42.29-105.39h-8.78l-3.58,105.06-10.08,10.41h-67.33l-71.56-164.49Zm131.08-42.38h4.55l-10.08-23.42h42.94l3.58,1.63,12.69,33.5-59.2,7.48-15.94-1.63-31.88-23.42h-5.2l8.78,23.09h-45.21l-4.23-1.63-7.48-33.5,61.48-8.46,12.68,2.6,32.53,23.74Z"/><path d="M943.56,394.45h73.51l2.35,2.93-34.23,79.69h8.78l86.2-82.62h45.86l21.47,24.72-34.48,73.51,30.58-2.93,1.3,3.25-59.2,69.61h-50.09l-13.34-26.02,35.13-84.57h-8.78l-101.81,110.59h-69.61l-3.25-2.93,69.61-165.24Zm154.5-37.73h3.58l4.23-23.42h45.86l1.95,3.58-17.89,31.55-64.4,8.78-20.82-2.6-8.78-23.42h-3.9l-9.43,23.09h-45.21l-2.28-3.58,23.1-31.55,58.22-8.46,21.47,2.28,14.31,23.74Z"/><path d="M725.92,394.18h50.21l-6.99,88.67h6.04l41-88.67h31.78l18.75,18.43-8.58,77.86,19.7-5.09,2.22,2.23-24.15,75h-30.19l-15.57-17.8,6.04-93.11h-6.67l-37.18,110.91h-46.4v-168.43Zm93.12-32.41h2.22l-4.13-24.79h25.74l2.22,3.18-1.59,30.19-36.23,8.26-13.35-2.54-13.98-25.11h-2.22l.95,24.79h-25.42l-2.54-3.18,4.77-30.19,32.73-7.94,13.67,2.22,17.16,25.11Z"/><path d="M1271.81,393.94h109.63l3.37,4.9-72.53,69.98h11.81l147.08-74.89h65.11l24.96,33.06-69.15,67.8h45.2v5.06l-105.92,62.74h-72.31l-14.72-37.11,73.88-73.88h-11.81l-187.9,110.98h-105.58l-2.45-5.83,161.34-162.84Zm220.81-45.54h5.73l15.52-21.59h72.19l1.69,3.71-39.13,33.73-102.21,9.45-31.03-2.7-2.36-21.59h-5.74l-23.61,21.25h-71.51l-2.02-4.05,47.56-33.73,92.77-8.77,31.37,2.36,10.79,21.93Z"/><path d="M18.26,399.3l2.34-4.7h122.33l77.96,85.49h11.42l-19.9-44.04,37.19-41.45,84.49-3.24h3.91l74.37,84.81,19.88-14.84,3.93,.81,42.31,94.87-3.49,5.6h-110.03l-103.08-118.41h-7.73l39.8,95.25-17.94,23.16h-96.88L18.26,399.3Zm174.9-46.11h7.5l-21.08-18.01,1.12-2.87h72.15l30.34,33.51-1.18,3.49-98.82,5.73h-6.02l-53.83-20.88h-8.81l22.71,17.46-2.64,3.09H57.13l-20.4-33.25,2.7-3.59,91.76-9.15,11.09,3.26,50.89,21.2Z"/></g><g><path class="cls-1" d="M572.99,859.48l-24.12-59.53,26.22-23.57-24.38-3-26.31-29.71,.85-5.09,99.33-63.84-71.59,3.24-7.66,15.32-38-5.01-15.84-54.43,4.12-5.3,90.73,3.53,76-4.12,5.89,3.53,18.49,37.05-33.36,15.56-53.25,41.88,28.28,9.13,59.79-41.53,2.07,1.77,27.64,29.64-.24,2.47-40.65,19.74,33.58,26.51,33.55,73.37-2.47,3.51-98.86,28.6-69.82-19.74Zm101.75-16.5l-33.94-71.84-21.82-.35-9.43,37.41,44.57,34.78h20.62Z"/><path class="cls-1" d="M936.04,841.33l14.07-57.91,48.61-23.57-16.2-5.01-11.49-19.15,124.32-59.91-60.46-.59-16.6,14.43-36.72-12.96,27.69-48.94,5.6-1.73,93.16,6.78,69.75-4.16,3.6,5.04-18.85,40.36-43.01,20.33-57.74,28.09,24.75,9.43,64.81-33.88,2.36,1.47-8.25,40.65-35.65,8.84,13.85,31.52-25.33,73.06-6.19,1.77-110.18,19.74-45.89-33.7Zm101.11,1.75l28.14-75.27-10.6-5.3-53.03,39.77,18.4,40.81h17.09Z"/><path class="cls-1" d="M256.23,856.84l-53.44-51.34,18.61-27.32-15.34,.36-48.91-40.29,1.06-4.08,133.73-58.96-114.38,7.8-.9,18.31-63.34,1.8-49.93-68.12,2.8-6.03,133.59,3.6,135.99-6.01,6.3,3,39.03,39.33-34.52,9.91-74.15,45.63,27.62,3.6,83.47-42.59,4.35-2.61,57.78,32.29-.37,4.25-61.17,22.47,58.54,13.81,75.05,75.95-1.96,5.21-146.95,30.82-112.58-10.81Zm149.2-27.92l-48.93-48.03-63.34-19.81,.09,23.35,67.05,44.2,45.14,.3Z"/><path class="cls-1" d="M788.11,861.66v-71.22l33.32-21.61-28.52-7.5-12.61-20.41,75.35-69.29h-39.93l-12.91,13.21-19.51-10.81,14.71-47.43,5.1,.3,59.14,4.75,30.62-3.85,5.7,4.5v33.32l-14.83,11.16-57.22,42.83,29.72,13.51,40.23-39.66,1.8,.63,5.4,35.72-31.25,18.3,20.44,33.94v77.22l-5.4,2.4-61.24,27.92-38.13-27.92Zm59.74-7.5v-81.73h-3.6l-30.32,42.33,23.42,39.4h10.51Z"/><path class="cls-1" d="M1148.91,820.52l28.22-40.53,69.95-26.72-13.29-17.35,.87-3.48,191.04-47.62-91.71-1.8-27.62,16.51-54.04-15.91,45.03-54.64,6-2.4,143.05,10.51,111.02-8.11,3.28,5.56-40.98,53.58-45.99,7.51-88.86,33.32,19.81,4.5,98.47-27.32,3,1.5-25.52,48.63-49.83,1.8,12.91,25.82-57.64,57.94-7.51,.6-176.52,10.81-53.14-32.72Zm160.61-5.4l57.04-48.33-20.11-12.31-83.16,38.43,20.71,23.12,25.52-.9Z"/></g><g><path class="cls-1" d="M467.17,223.99l-32.4-111.2,58.45-26.63,81.33,12.02,57.68-12.36,2.68,1.35,23.83,91.71,19.38-9.85,3.18,2.22,3.55,81.39-3.87,3.76h-60.68l-43.53-90.23h-6.67l12.12,90.23-66.45,3.49-48.61-35.9Zm114.38-149.32l-2.02,2.53-108.02-7.3-18-34.95,1.92-3.18,123.9,32.72,2.22,10.17Zm-24.46,61.32l-55.6-17.79,29.86,89.91,16.84,8.26,8.9-80.38Z"/><path class="cls-1" d="M862.97,210.81l66.84-112.38,90.42-13.75,48.76,16.33,79.09-15.25,3.58,3.95-53.6,96.87,28.74-2.91,1.61,3.55-60.39,69.1h-62.64l-3.23-2.91,35.2-83.31h-8.4l-72.66,86.22-73.3,3.55-20.02-49.08Zm168.89-72.66l-44.89-21.96-43.59,84.28,11.62,15.18,76.86-77.5Zm50.05-64.26l-107.88-4.84-2.46-3.59,18.26-33.54,3.49-2.7,94.4,34.34-5.81,10.33Z"/><path class="cls-1" d="M148.68,235.04L59.21,132.48l55.92-43.77,139.31,8.63,72.21-11.32h6.39l71.25,85.77,18.85-15.65,4.47,1.92,35.99,94.05-2.44,4.36h-91.7l-99.05-99.37h-6.07l50.16,99.37-90.42,3.19-75.41-24.6Zm108.15-162.31H101.39L62.09,31.08l.96-2.76,189.47,29.19,6.07,12.23-1.77,2.99Zm-21.24,58.47l-78.92-12.78,79.88,89.14,22.05,4.15-23-80.52Z"/><path class="cls-1" d="M694.93,215.75l22.56-118.86,50.85-11.12,35.59,13.03,41.95-13.03,4.13,3.18-13.66,95.97,19.7-5.08,2.54,2.22-24.15,75h-39.41v-83.58h-6.67l-26.69,83.58-39.09,3.5-27.65-44.81Zm116.95-139.51l-74.68-8.58,4.13-31.43,3.2-2.39,69.57,33.82-2.23,8.58Zm-24.15,63.56l-37.5-21.93-9.53,90.89,12.39,11.76,34.64-80.72Z"/><path class="cls-1" d="M1124.9,205.21l124.47-105.22,143.39-14.79,66.05,18.44,125.21-18.23,2.76,3.68-103.08,100.18h40.83v4.98l-107.54,62.07h-101.27l-2.44-4.23,83.79-86.38h-10.95l-132.77,90.61-118.5,3.32-9.96-54.43Zm269.19-69.37l-55.1-21.58-87.96,76.01,10.62,19.58,132.44-74.02Zm84.31-65.39h-155.53l-2.6-4.8,35.32-34.7,2.99-2.66,126.17,26.45,2.59,3.47-8.94,12.24Z"/></g></svg>