<?xml version="1.0" encoding="UTF-8"?><svg xmlns="http://www.w3.org/2000/svg" viewBox="0 0 1600 340"><defs><style>.c{fill:#1d1d1b;}</style></defs><g id="a"><g><polygon class="c" points="331.48 151.64 217.54 166.81 259.96 124.08 386.6 133.06 390.93 128.11 430.87 81.97 428 76.85 207.32 76.85 164.9 76.85 162.11 76.85 115 122 117.17 124.44 145.04 124.2 125.57 148.85 16 259 19.18 263.73 124.03 264.04 127.43 264.04 183.48 206.76 287.2 206.76 293.4 200.25 333.96 155.98 331.48 151.64"/><polygon class="c" points="758 76.85 730 76.85 641.35 76.85 611.31 120.37 503.25 220.07 479.41 220.07 467.95 196.85 583 82 580 76.85 476.62 76.85 465.47 76.85 433.89 117.58 333.57 209.54 365.46 263.73 492.72 263.73 635.46 208.3 761 82 758 76.85"/><path class="c" d="M1008.8,166.81l54.5-54.81-17.3-35.16h-258.28l-48.52,45.49,1.79,2.1,27.8-.55-20.08,24.65-110.71,110.46,3.08,4.73h102.37l60.38-60.07h56.28l-40.8,55.73,2.86,4.33h118.84l-.32-78.9,68.12-18.02Zm-114.56-55.12l48.61,7.74,3.1,6.81-28.49,33.75-73.69,3.41,50.47-51.71Z"/><polygon class="c" points="1376 82 1374.25 76.85 1280.82 76.85 1274.31 76.85 1172.75 171.77 1163.15 171.77 1207 82 1204 76.85 1111.14 76.85 1102.78 76.85 1054.47 198.4 986 259 989.4 263.73 1098.44 263.73 1104.63 263.73 1145.5 223.17 1339 124 1376 82"/><path class="c" d="M1455.03,76.85l-275.03,182.15,2.24,4.73h123.66l35.22-44.91,63.82-1.5-26.4,41.98,2.21,4.43h95.13l104.1-180.73-2-6.15h-122.97Zm-90.31,116.93l86.6-71.86h13.62l-38.53,61.28-61.69,10.58Z"/></g><rect class="c" y="300.5" width="1600" height="40"/><rect class="c" y="-1" width="1600" height="40"/></g><g id="b"/></svg>