<?xml version="1.0" encoding="UTF-8" standalone="no"?>
<!DOCTYPE svg PUBLIC "-//W3C//DTD SVG 1.1//EN" "http://www.w3.org/Graphics/SVG/1.1/DTD/svg11.dtd">
<svg width="100%" height="100%" viewBox="0 0 1200 340" version="1.1" xmlns="http://www.w3.org/2000/svg" xmlns:xlink="http://www.w3.org/1999/xlink" xml:space="preserve" xmlns:serif="http://www.serif.com/" style="fill-rule:evenodd;clip-rule:evenodd;stroke-linejoin:round;stroke-miterlimit:2;">
    <g transform="matrix(1,0,0,1,-80.4683,-172.724)">
        <rect x="80.236" y="173.795" width="1200" height="340" style="fill:rgb(35,31,32);"/>
    </g>
    <g transform="matrix(1,0,0,1,356.465,92.1926)">
        <path d="M0,146.033C-1.376,151.843 -2.83,156.274 -4.356,159.33C-5.885,162.389 -7.719,164.452 -9.858,165.519C-12,166.59 -14.672,167.124 -17.882,167.124C-19.411,167.124 -20.862,167.049 -22.237,166.895C-23.613,166.744 -25.067,166.59 -26.593,166.436L-75.194,-5.273L-75.194,-12.15L-74.965,85.052C-74.965,98.657 -74.7,110.234 -74.163,119.784C-73.629,129.337 -72.827,137.246 -71.756,143.511C-70.688,149.78 -69.348,154.899 -67.744,158.871C-66.139,162.847 -64.269,166.017 -62.127,168.385C-59.989,170.756 -57.542,172.855 -54.791,174.689L-55.25,178.816C-61.669,178.357 -67.21,178.092 -71.87,178.014C-76.534,177.938 -80.965,177.938 -85.167,178.014C-89.372,178.092 -93.918,178.357 -98.807,178.816L-99.266,174.689C-96.973,172.705 -94.949,170.527 -93.191,168.156C-91.435,165.788 -89.945,162.733 -88.72,158.986C-87.499,155.242 -86.467,150.389 -85.625,144.428C-84.787,138.468 -84.175,130.981 -83.791,121.962C-83.412,112.946 -83.218,102.017 -83.218,89.179L-82.989,-12.15C-82.989,-15.206 -83.333,-17.613 -84.021,-19.372C-84.708,-21.127 -86.198,-22.502 -88.491,-23.498C-90.783,-24.49 -94.222,-25.368 -98.807,-26.135L-98.349,-30.261C-91.167,-30.412 -84.787,-30.566 -79.206,-30.72C-73.629,-30.87 -67.783,-30.949 -61.669,-30.949C-57.392,-30.949 -53.265,-29.917 -49.289,-27.854C-45.316,-25.791 -42.261,-21.241 -40.119,-14.213L1.605,134.8L-6.648,143.282L30.49,-22.467C31.253,-25.522 33.241,-27.585 36.451,-28.656C39.66,-29.724 45.542,-30.261 54.103,-30.261C60.368,-30.261 65.91,-30.107 70.724,-29.803C75.538,-29.495 81.535,-29.649 88.72,-30.261L89.179,-26.135C82.301,-25.064 77.867,-23.649 75.882,-21.893C73.894,-20.135 72.902,-16.735 72.902,-11.692L72.902,160.705C72.902,163.915 73.246,166.361 73.933,168.041C74.621,169.725 76.111,171.061 78.404,172.053C80.696,173.049 84.135,173.926 88.72,174.689L88.262,178.816C84.594,178.511 79.625,178.282 73.36,178.128C67.092,177.978 60.443,177.899 53.415,177.899C46.384,177.899 39.736,177.978 33.471,178.128C27.202,178.282 22.237,178.511 18.569,178.816L18.111,174.689C24.988,173.622 29.419,172.207 31.407,170.448C33.392,168.693 34.388,165.29 34.388,160.247L34.388,-12.609C34.388,-14.747 34.348,-16.352 34.273,-17.423C34.194,-18.49 34.158,-19.257 34.158,-19.716L37.139,-22.008L0,146.033ZM178.356,100.183L178.356,160.705C178.356,163.915 178.7,166.361 179.388,168.041C180.076,169.725 181.566,171.061 183.858,172.053C186.151,173.049 189.589,173.926 194.175,174.689L193.716,178.816C190.048,178.511 185.08,178.282 178.815,178.128C172.546,177.978 165.898,177.899 158.87,177.899C151.838,177.899 145.19,177.978 138.925,178.128C132.656,178.282 127.692,178.511 124.024,178.816L123.565,174.689C130.443,173.622 134.874,172.207 136.862,170.448C138.846,168.693 139.842,165.29 139.842,160.247L139.842,92.847L178.356,100.183ZM98.348,-22.237C97.431,-23.154 96.13,-23.688 94.45,-23.842L94.45,-28.198C97.047,-28.502 100.525,-28.961 104.881,-29.573C109.237,-30.182 114.316,-30.49 120.126,-30.49C126.391,-30.49 131.052,-29.305 134.111,-26.937C137.166,-24.566 139.534,-20.862 141.218,-15.818L178.585,101.788L144.656,118.294L100.64,-18.111C100.028,-19.945 99.265,-21.32 98.348,-22.237M216.87,-16.964L207.93,25.218C198.605,22.621 191.384,18.838 186.265,13.87C181.143,8.905 178.585,1.913 178.585,-7.107C178.585,-13.372 179.653,-18.376 181.795,-22.123C183.933,-25.866 186.684,-28.578 190.048,-30.261C193.408,-31.941 197.001,-32.783 200.823,-32.783C207.392,-32.783 212.361,-31.099 215.724,-27.739C219.084,-24.376 220.768,-19.945 220.768,-14.443C220.768,-10.316 220.309,-6.38 219.392,-2.636C218.475,1.111 217.329,5.198 215.953,9.629C213.202,17.882 210.222,26.557 207.013,35.649C203.803,44.743 200.4,53.838 196.811,62.929C193.218,72.024 189.511,80.926 185.692,89.637C181.87,98.349 177.973,106.451 174,113.938L169.415,110.499C173.692,102.4 177.783,93.878 181.68,84.938C185.578,75.997 189.246,66.791 192.684,57.313C196.123,47.838 199.254,38.324 202.084,28.771C204.91,19.221 207.392,9.858 209.534,0.688L216.87,-16.964ZM230.166,178.357L227.185,171.48C228.561,164.298 231.427,155.203 235.782,144.199C240.138,133.195 245.332,120.93 251.371,107.404C257.407,93.878 263.787,79.629 270.514,64.649C277.237,49.672 283.732,34.502 290,19.143C296.265,3.783 301.767,-11.154 306.506,-25.676L317.969,-24.071L257.905,-23.384L260.198,-24.988L260.198,9.399C260.198,20.403 259.241,28.85 257.332,34.732C255.419,40.617 252.668,44.668 249.079,46.882C245.486,49.099 241.17,50.206 236.126,50.206C232.917,50.206 231.312,48.985 231.312,46.538L231.312,-22.008C231.312,-24.605 231.692,-26.514 232.458,-27.739C233.221,-28.961 234.597,-29.573 236.585,-29.573C251.103,-29.573 264.668,-29.534 277.277,-29.459C289.885,-29.38 300.467,-29.344 309.028,-29.344L339.748,-29.344L342.728,-22.467C341.352,-15.893 338.523,-7.372 334.246,3.095C329.965,13.565 324.846,25.526 318.886,38.973C312.925,52.423 306.657,66.637 300.087,81.613C293.514,96.594 287.21,111.989 281.174,127.808C275.135,143.626 269.976,159.254 265.699,174.689L256.759,173.085L315.218,172.397L312.925,174.002L312.925,142.136C312.925,132.966 313.459,125.554 314.53,119.898C315.597,114.246 317.166,109.89 319.23,106.831C321.293,103.776 323.85,101.673 326.91,100.527C329.965,99.38 333.479,98.807 337.455,98.807C340.357,98.807 341.811,100.108 341.811,102.705L341.811,171.021C341.811,173.622 341.428,175.531 340.665,176.753C339.898,177.978 338.523,178.587 336.538,178.587C322.016,178.587 308.261,178.551 295.273,178.472C282.281,178.397 271.506,178.357 262.948,178.357L230.166,178.357ZM472.713,178.357L391.558,178.357C384.985,178.357 378.72,178.397 372.76,178.472C366.799,178.551 362.135,178.662 358.775,178.816L358.317,174.689C365.194,173.622 369.625,172.207 371.613,170.448C373.598,168.693 374.594,165.29 374.594,160.247L374.594,-12.15C374.594,-15.206 374.25,-17.613 373.562,-19.372C372.874,-21.127 371.384,-22.502 369.092,-23.498C366.799,-24.49 363.36,-25.368 358.775,-26.135L359.234,-30.261C362.748,-30.107 367.677,-29.917 374.021,-29.688C380.361,-29.459 386.973,-29.344 393.851,-29.344C400.116,-29.344 407.262,-29.38 415.286,-29.459C423.31,-29.534 432.365,-29.573 442.452,-29.573C444.436,-29.724 447.342,-29.803 451.164,-29.803L472.713,-29.803C474.393,-29.803 475.385,-28.886 475.693,-27.052L475.693,44.246C475.693,46.997 474.01,48.372 470.65,48.372C467.591,48.372 464.611,47.648 461.709,46.194C458.804,44.743 456.207,42.068 453.915,38.17C451.622,34.273 449.788,28.81 448.412,21.779C447.037,14.751 446.349,5.656 446.349,-5.502L446.349,-24.988L446.349,-23.842L413.108,-24.071L413.108,173.314L446.349,173.085L446.349,173.543L446.349,154.057C446.349,142.902 447.037,133.807 448.412,126.776C449.788,119.748 451.622,114.282 453.915,110.384C456.207,106.487 458.804,103.815 461.709,102.361C464.611,100.91 467.591,100.183 470.65,100.183C474.01,100.183 475.693,101.558 475.693,104.309L475.693,175.606C475.385,177.44 474.393,178.357 472.713,178.357ZM453.685,73.59C453.685,75.273 453.263,76.609 452.424,77.602C451.583,78.597 449.938,79.092 447.495,79.092C444.436,79.092 440.235,78.827 434.887,78.289C429.535,77.756 423.883,77.412 417.922,77.258L406.689,77.028L406.689,70.609L417.922,70.38C423.729,70.23 429.306,69.807 434.657,69.119C440.005,68.431 444.207,68.088 447.266,68.088C451.543,68.088 453.685,69.922 453.685,73.59M583.212,172.626L582.066,175.377L582.066,144.428C582.066,133.424 582.524,124.598 583.441,117.95C584.358,111.301 585.734,106.258 587.568,102.819C589.402,99.38 591.77,97.052 594.675,95.827C597.576,94.606 600.94,93.993 604.762,93.993C607.971,93.993 609.576,95.598 609.576,98.807L609.576,171.251C609.576,176.144 607.283,178.587 602.698,178.587C592.303,178.587 580.651,178.551 567.738,178.472C554.821,178.397 542.251,178.357 530.026,178.357C523.453,178.357 517.188,178.397 511.227,178.472C505.267,178.551 500.603,178.662 497.243,178.816L496.784,174.689C503.662,173.622 508.093,172.207 510.081,170.448C512.065,168.693 513.061,165.29 513.061,160.247L513.061,-11.692C513.061,-16.735 512.065,-20.135 510.081,-21.893C508.093,-23.649 503.662,-25.064 496.784,-26.135L497.243,-30.261C500.911,-29.953 505.99,-29.724 512.488,-29.573C518.982,-29.419 526.014,-29.344 533.579,-29.344C541.145,-29.344 548.327,-29.419 555.129,-29.573C561.927,-29.724 567.394,-29.953 571.52,-30.261L571.979,-26.135C563.876,-24.91 558.453,-23.459 555.702,-21.779C552.951,-20.095 551.575,-16.886 551.575,-12.15L551.575,173.314L583.212,172.626Z" style="fill:white;fill-rule:nonzero;"/>
    </g>
    <g transform="matrix(1,0,0,1,1113.2,112.747)">
        <path d="M0,-36.217C-4.647,-35.749 -8.244,-37.61 -10.796,-41.789C-13.353,-45.968 -14.626,-51.888 -14.626,-59.55C-14.626,-66.977 -12.657,-72.837 -8.706,-77.136C-4.761,-81.429 1.622,-83.579 10.447,-83.579C22.288,-83.579 31.919,-79.748 39.352,-72.087C46.779,-64.425 50.496,-55.485 50.496,-45.271L50.496,64.775C50.496,74.76 47.362,83.292 41.093,90.371C34.825,97.456 26.581,100.993 16.368,100.993C7.079,100.993 -0.408,97.973 -6.094,91.938C-11.786,85.904 -14.626,78.939 -14.626,71.043C-14.626,65.939 -13.353,62.337 -10.796,60.248C-8.244,58.158 -4.647,57.347 0,57.81L-2.089,59.203L-2.089,-39.003L0,-36.217ZM148.702,0.001C153.343,-0.462 156.94,1.394 159.497,5.573C162.049,9.752 163.328,15.672 163.328,23.333C163.328,30.766 161.353,36.627 157.408,40.92C153.458,45.219 147.075,47.362 138.254,47.362C126.414,47.362 116.777,43.532 109.35,35.87C101.917,28.209 98.206,19.274 98.206,9.055L98.206,-100.991C98.206,-110.971 101.34,-119.503 107.609,-126.587C113.877,-133.667 122.115,-137.209 132.334,-137.209C141.851,-137.209 149.398,-134.189 154.97,-128.154C160.542,-122.114 163.328,-115.15 163.328,-107.26C163.328,-102.15 162.049,-98.553 159.497,-96.464C156.94,-94.374 153.343,-93.558 148.702,-94.026L150.791,-95.419L150.791,2.787L148.702,0.001ZM27.686,-146.612C33.606,-152.183 41.904,-154.97 52.585,-154.97C66.978,-154.97 78.296,-149.338 86.54,-138.079C94.778,-126.816 99.947,-110.856 102.037,-90.195L98.206,-90.195C98.206,-96.23 96.291,-101.628 92.46,-106.389C88.629,-111.145 82.067,-113.528 72.784,-113.528C66.281,-113.528 61.694,-111.841 59.028,-108.478C56.356,-105.11 55.023,-99.712 55.023,-92.285C55.023,-86.941 55.312,-82.36 55.894,-78.529C56.471,-74.698 57.113,-71.39 57.809,-68.604C58.506,-65.818 59.142,-63.32 59.724,-61.117C60.301,-58.907 60.595,-56.644 60.595,-54.326C60.595,-49.216 59.49,-45.326 57.287,-42.66C55.078,-39.988 52.117,-38.655 48.406,-38.655L48.406,-46.664C52.351,-46.664 54.327,-48.868 54.327,-53.281C54.327,-58.619 53.162,-63.38 50.844,-67.559C48.521,-71.738 45.561,-75.743 41.964,-79.574C38.362,-83.405 34.825,-87.409 31.342,-91.588C27.86,-95.767 24.9,-100.523 22.462,-105.867C20.024,-111.205 18.805,-117.587 18.805,-125.02C18.805,-133.841 21.766,-141.04 27.686,-146.612M121.016,110.395C115.096,115.967 106.792,118.753 96.116,118.753C81.719,118.753 70.401,113.121 62.162,101.863C53.919,90.605 48.755,74.646 46.665,53.979L50.496,53.979C50.496,60.019 52.411,65.417 56.242,70.173C60.073,74.934 66.63,77.312 75.918,77.312C82.415,77.312 87.002,75.63 89.674,72.262C92.34,68.899 93.679,63.502 93.679,56.069C93.679,50.731 93.385,46.144 92.808,42.313C92.226,38.482 91.589,35.174 90.893,32.388C90.196,29.602 89.554,27.11 88.977,24.9C88.395,22.697 88.107,20.433 88.107,18.11C88.107,13.006 89.206,9.115 91.415,6.443C93.619,3.777 96.579,2.439 100.295,2.439L100.295,10.448C96.345,10.448 94.375,12.657 94.375,17.065C94.375,22.408 95.534,27.164 97.858,31.343C100.176,35.522 103.136,39.527 106.738,43.358C110.335,47.188 113.877,51.193 117.359,55.372C120.842,59.551 123.802,64.312 126.24,69.65C128.678,74.994 129.896,81.377 129.896,88.804C129.896,97.624 126.936,104.823 121.016,110.395" style="fill:white;fill-rule:nonzero;"/>
    </g>
    <g transform="matrix(1,0,0,1,-65.8418,-15.2528)">
        <path d="M0,-36.217C-4.647,-35.749 -8.244,-37.61 -10.796,-41.789C-13.353,-45.968 -14.626,-51.888 -14.626,-59.55C-14.626,-66.977 -12.657,-72.837 -8.706,-77.136C-4.761,-81.429 1.622,-83.579 10.447,-83.579C22.288,-83.579 31.919,-79.748 39.352,-72.087C46.779,-64.425 50.496,-55.485 50.496,-45.271L50.496,64.775C50.496,74.76 47.362,83.292 41.093,90.371C34.825,97.456 26.581,100.993 16.368,100.993C7.079,100.993 -0.408,97.973 -6.094,91.938C-11.786,85.904 -14.626,78.939 -14.626,71.043C-14.626,65.939 -13.353,62.337 -10.796,60.248C-8.244,58.158 -4.647,57.347 0,57.81L-2.089,59.203L-2.089,-39.003L0,-36.217ZM148.702,0.001C153.343,-0.462 156.94,1.394 159.497,5.573C162.049,9.752 163.328,15.672 163.328,23.333C163.328,30.766 161.353,36.627 157.408,40.92C153.458,45.219 147.075,47.362 138.254,47.362C126.414,47.362 116.777,43.532 109.35,35.87C101.917,28.209 98.206,19.274 98.206,9.055L98.206,-100.991C98.206,-110.971 101.34,-119.503 107.609,-126.587C113.877,-133.667 122.115,-137.209 132.334,-137.209C141.851,-137.209 149.398,-134.189 154.97,-128.154C160.542,-122.114 163.328,-115.15 163.328,-107.26C163.328,-102.15 162.049,-98.553 159.497,-96.464C156.94,-94.374 153.343,-93.558 148.702,-94.026L150.791,-95.419L150.791,2.787L148.702,0.001ZM27.686,-146.612C33.606,-152.183 41.904,-154.97 52.585,-154.97C66.978,-154.97 78.296,-149.338 86.54,-138.079C94.778,-126.816 99.947,-110.856 102.037,-90.195L98.206,-90.195C98.206,-96.23 96.291,-101.628 92.46,-106.389C88.629,-111.145 82.067,-113.528 72.784,-113.528C66.281,-113.528 61.694,-111.841 59.028,-108.478C56.356,-105.11 55.023,-99.712 55.023,-92.285C55.023,-86.941 55.312,-82.36 55.894,-78.529C56.471,-74.698 57.113,-71.39 57.809,-68.604C58.506,-65.818 59.142,-63.32 59.725,-61.117C60.301,-58.907 60.595,-56.644 60.595,-54.326C60.595,-49.216 59.491,-45.326 57.287,-42.66C55.078,-39.988 52.117,-38.655 48.406,-38.655L48.406,-46.664C52.351,-46.664 54.327,-48.868 54.327,-53.281C54.327,-58.619 53.162,-63.38 50.844,-67.559C48.521,-71.738 45.561,-75.743 41.964,-79.574C38.362,-83.405 34.825,-87.409 31.342,-91.588C27.86,-95.767 24.9,-100.523 22.462,-105.867C20.024,-111.205 18.805,-117.587 18.805,-125.02C18.805,-133.841 21.765,-141.04 27.686,-146.612M121.016,110.395C115.096,115.967 106.792,118.753 96.116,118.753C81.719,118.753 70.4,113.121 62.162,101.863C53.919,90.605 48.755,74.646 46.665,53.979L50.496,53.979C50.496,60.019 52.411,65.417 56.242,70.173C60.073,74.934 66.63,77.312 75.918,77.312C82.415,77.312 87.002,75.63 89.674,72.262C92.34,68.899 93.679,63.502 93.679,56.069C93.679,50.731 93.385,46.144 92.808,42.313C92.226,38.482 91.589,35.174 90.893,32.388C90.196,29.602 89.554,27.11 88.977,24.9C88.395,22.697 88.107,20.433 88.107,18.11C88.107,13.006 89.206,9.115 91.415,6.443C93.619,3.777 96.579,2.439 100.295,2.439L100.295,10.448C96.345,10.448 94.375,12.657 94.375,17.065C94.375,22.408 95.534,27.164 97.858,31.343C100.176,35.522 103.136,39.527 106.738,43.358C110.335,47.188 113.877,51.193 117.36,55.372C120.842,59.551 123.802,64.312 126.24,69.65C128.678,74.994 129.896,81.377 129.896,88.804C129.896,97.624 126.936,104.823 121.016,110.395" style="fill:white;fill-rule:nonzero;"/>
    </g>
    <g transform="matrix(1,0,0,1,1113.2,395.114)">
        <path d="M0,-36.218C-4.647,-35.75 -8.244,-37.611 -10.796,-41.79C-13.353,-45.969 -14.626,-51.889 -14.626,-59.551C-14.626,-66.978 -12.657,-72.838 -8.706,-77.137C-4.761,-81.43 1.622,-83.58 10.447,-83.58C22.288,-83.58 31.919,-79.749 39.352,-72.088C46.779,-64.426 50.496,-55.486 50.496,-45.272L50.496,64.774C50.496,74.759 47.362,83.291 41.093,90.37C34.825,97.455 26.581,100.992 16.368,100.992C7.079,100.992 -0.408,97.972 -6.094,91.937C-11.786,85.903 -14.626,78.938 -14.626,71.042C-14.626,65.938 -13.353,62.336 -10.796,60.247C-8.244,58.157 -4.647,57.346 0,57.809L-2.089,59.202L-2.089,-39.004L0,-36.218ZM148.702,-0C153.343,-0.463 156.94,1.393 159.497,5.572C162.049,9.751 163.328,15.671 163.328,23.332C163.328,30.765 161.353,36.626 157.408,40.919C153.458,45.218 147.075,47.361 138.254,47.361C126.414,47.361 116.777,43.531 109.35,35.869C101.917,28.208 98.206,19.273 98.206,9.054L98.206,-100.992C98.206,-110.972 101.34,-119.504 107.609,-126.588C113.877,-133.668 122.115,-137.21 132.334,-137.21C141.851,-137.21 149.398,-134.19 154.97,-128.155C160.542,-122.115 163.328,-115.151 163.328,-107.261C163.328,-102.151 162.049,-98.554 159.497,-96.465C156.94,-94.375 153.343,-93.559 148.702,-94.027L150.791,-95.42L150.791,2.786L148.702,-0ZM27.686,-146.613C33.606,-152.185 41.904,-154.97 52.585,-154.97C66.978,-154.97 78.296,-149.339 86.54,-138.08C94.778,-126.817 99.947,-110.857 102.037,-90.196L98.206,-90.196C98.206,-96.231 96.291,-101.629 92.46,-106.39C88.629,-111.146 82.067,-113.529 72.784,-113.529C66.281,-113.529 61.694,-111.842 59.028,-108.479C56.356,-105.111 55.023,-99.713 55.023,-92.286C55.023,-86.942 55.312,-82.361 55.894,-78.53C56.471,-74.699 57.113,-71.391 57.809,-68.605C58.506,-65.819 59.142,-63.321 59.724,-61.118C60.301,-58.909 60.595,-56.645 60.595,-54.327C60.595,-49.217 59.49,-45.327 57.287,-42.661C55.078,-39.989 52.117,-38.656 48.406,-38.656L48.406,-46.665C52.351,-46.665 54.327,-48.869 54.327,-53.282C54.327,-58.62 53.162,-63.381 50.844,-67.56C48.521,-71.739 45.561,-75.744 41.964,-79.575C38.362,-83.406 34.825,-87.41 31.342,-91.589C27.86,-95.768 24.9,-100.524 22.462,-105.868C20.024,-111.206 18.805,-117.588 18.805,-125.021C18.805,-133.842 21.766,-141.041 27.686,-146.613M121.016,110.394C115.096,115.966 106.792,118.752 96.116,118.752C81.719,118.752 70.401,113.12 62.162,101.862C53.919,90.604 48.755,74.645 46.665,53.978L50.496,53.978C50.496,60.018 52.411,65.416 56.242,70.172C60.073,74.933 66.63,77.311 75.918,77.311C82.415,77.311 87.002,75.629 89.674,72.261C92.34,68.898 93.679,63.501 93.679,56.068C93.679,50.73 93.385,46.143 92.808,42.312C92.226,38.481 91.589,35.173 90.893,32.387C90.196,29.601 89.554,27.109 88.977,24.899C88.395,22.696 88.107,20.432 88.107,18.109C88.107,13.005 89.206,9.114 91.415,6.442C93.619,3.776 96.579,2.438 100.295,2.438L100.295,10.447C96.345,10.447 94.375,12.656 94.375,17.064C94.375,22.407 95.534,27.163 97.858,31.342C100.176,35.521 103.136,39.526 106.738,43.357C110.335,47.187 113.877,51.192 117.359,55.371C120.842,59.55 123.802,64.311 126.24,69.649C128.678,74.993 129.896,81.375 129.896,88.803C129.896,97.623 126.936,104.822 121.016,110.394" style="fill:white;fill-rule:nonzero;"/>
    </g>
    <g transform="matrix(1,0,0,1,-65.8418,267.114)">
        <path d="M0,-36.218C-4.647,-35.75 -8.244,-37.611 -10.796,-41.79C-13.353,-45.969 -14.626,-51.889 -14.626,-59.551C-14.626,-66.978 -12.657,-72.838 -8.706,-77.137C-4.761,-81.43 1.622,-83.58 10.447,-83.58C22.288,-83.58 31.919,-79.749 39.352,-72.088C46.779,-64.426 50.496,-55.486 50.496,-45.272L50.496,64.774C50.496,74.759 47.362,83.291 41.093,90.37C34.825,97.455 26.581,100.992 16.368,100.992C7.079,100.992 -0.408,97.972 -6.094,91.937C-11.786,85.903 -14.626,78.938 -14.626,71.042C-14.626,65.938 -13.353,62.336 -10.796,60.247C-8.244,58.157 -4.647,57.346 0,57.809L-2.089,59.202L-2.089,-39.004L0,-36.218ZM148.702,-0C153.343,-0.463 156.94,1.393 159.497,5.572C162.049,9.751 163.328,15.671 163.328,23.332C163.328,30.765 161.353,36.626 157.408,40.919C153.458,45.218 147.075,47.361 138.254,47.361C126.414,47.361 116.777,43.531 109.35,35.869C101.917,28.208 98.206,19.273 98.206,9.054L98.206,-100.992C98.206,-110.972 101.34,-119.504 107.609,-126.588C113.877,-133.668 122.115,-137.21 132.334,-137.21C141.851,-137.21 149.398,-134.19 154.97,-128.155C160.542,-122.115 163.328,-115.151 163.328,-107.261C163.328,-102.151 162.049,-98.554 159.497,-96.465C156.94,-94.375 153.343,-93.559 148.702,-94.027L150.791,-95.42L150.791,2.786L148.702,-0ZM27.686,-146.613C33.606,-152.184 41.904,-154.97 52.585,-154.97C66.978,-154.97 78.296,-149.339 86.54,-138.08C94.778,-126.817 99.947,-110.857 102.037,-90.196L98.206,-90.196C98.206,-96.231 96.291,-101.629 92.46,-106.39C88.629,-111.146 82.067,-113.529 72.784,-113.529C66.281,-113.529 61.694,-111.842 59.028,-108.479C56.356,-105.111 55.023,-99.713 55.023,-92.286C55.023,-86.942 55.312,-82.361 55.894,-78.53C56.471,-74.699 57.113,-71.391 57.809,-68.605C58.506,-65.819 59.142,-63.321 59.725,-61.118C60.301,-58.908 60.595,-56.645 60.595,-54.327C60.595,-49.217 59.491,-45.327 57.287,-42.661C55.078,-39.989 52.117,-38.656 48.406,-38.656L48.406,-46.665C52.351,-46.665 54.327,-48.869 54.327,-53.282C54.327,-58.62 53.162,-63.381 50.844,-67.56C48.521,-71.739 45.561,-75.744 41.964,-79.575C38.362,-83.406 34.825,-87.41 31.342,-91.589C27.86,-95.768 24.9,-100.524 22.462,-105.868C20.024,-111.206 18.805,-117.588 18.805,-125.021C18.805,-133.842 21.765,-141.041 27.686,-146.613M121.016,110.394C115.096,115.966 106.792,118.752 96.116,118.752C81.719,118.752 70.4,113.12 62.162,101.862C53.919,90.604 48.755,74.645 46.665,53.978L50.496,53.978C50.496,60.018 52.411,65.416 56.242,70.172C60.073,74.933 66.63,77.311 75.918,77.311C82.415,77.311 87.002,75.629 89.674,72.261C92.34,68.898 93.679,63.501 93.679,56.068C93.679,50.73 93.385,46.143 92.808,42.312C92.226,38.481 91.589,35.173 90.893,32.387C90.196,29.601 89.554,27.109 88.977,24.9C88.395,22.696 88.107,20.432 88.107,18.109C88.107,13.005 89.206,9.114 91.415,6.442C93.619,3.776 96.579,2.438 100.295,2.438L100.295,10.447C96.345,10.447 94.375,12.656 94.375,17.064C94.375,22.407 95.534,27.163 97.858,31.342C100.176,35.521 103.136,39.526 106.738,43.357C110.335,47.187 113.877,51.192 117.36,55.371C120.842,59.55 123.802,64.311 126.24,69.649C128.678,74.993 129.896,81.376 129.896,88.803C129.896,97.623 126.936,104.822 121.016,110.394" style="fill:white;fill-rule:nonzero;"/>
    </g>
</svg>
