<svg xmlns="http://www.w3.org/2000/svg" xmlns:xlink="http://www.w3.org/1999/xlink" width="63.5cm" height="35.70111cm" viewBox="0 0 1800 1012"><defs><clipPath id="a"><rect width="1800" height="1012" style="fill:none"/></clipPath></defs><title>alex-11</title><g style="clip-path:url(#a)"><rect width="1800" height="1012"/><line x1="125.2047" y1="55.72888" x2="1647.97559" y2="55.72888" style="fill:none;stroke:#939598;stroke-width:0.49399998784065247px"/><line x1="125.2047" y1="503.936" x2="1647.97559" y2="503.936" style="fill:none;stroke:#939598;stroke-width:0.49399998784065247px"/><path d="M133.80078,78.91943c0,2.40088-1.82519,3.249-3.77734,3.249-1.39258,0-2.56153-.15967-3.68164-.1919h-.54492v-.03222a14.51054,14.51054,0,0,0,.43261-3.21729V74.82178a14.19571,14.19571,0,0,0-.43261-3.21729v-.03222h.8164c1.18457-.01612,3.37793-.12793,4.38574-.12793a2.11253,2.11253,0,0,1,2.32129,2.25683,3.24234,3.24234,0,0,1-1.44043,2.59326A2.36708,2.36708,0,0,1,133.80078,78.91943Zm-4.14551-5.7622c-.25683,0-.52832.01562-.80078.03173v2.78516c.416-.03223.84863-.03223,1.39258-.04785a2.00941,2.00941,0,0,0,.5127-1.39258C130.75977,73.62109,130.29492,73.15723,129.65527,73.15723Zm1.28028,5.7622c0-1.1206-.6084-1.32861-1.42481-1.32861h-.65625v2.86523c.208.01612.416.03174.59278.03174C130.2627,80.48779,130.93555,80.11963,130.93555,78.91943Z" style="fill:#fff"/><path d="M144.60059,81.94434v.03222h-3.52051v-.03222c.14355-.31983.15918-.57618-.04883-2.00049-.03125-.19239-.06348-.40039-.11133-.62451-.57617-.01563-1.52148,0-2.32129.01611l-.08008.83252a6.59371,6.59371,0,0,0-.01562,1.77637v.03222h-2.92969v-.03222a13.142,13.142,0,0,0,.64063-2.19288c.54394-2.33691,1.07226-4.65771,1.55273-6.99462a2.05927,2.05927,0,0,0,.01563-1.15235v-.03222h4.12988v.03222a5.25232,5.25232,0,0,0,.27148,1.29639c.01661.08008.04883.16016.06446.24023.73633,2.75293,1.457,5.49024,1.74511,6.69043A8.87088,8.87088,0,0,0,144.60059,81.94434Zm-5.76172-4.57764c.6084-.03223,1.21582-.04785,1.71289-.064-.24024-1.26464-.52832-2.72119-.84864-4.21h-.03222Z" style="fill:#fff"/><path d="M146.46875,81.43213a5.94722,5.94722,0,0,1,.40039-2.35254h.03223a4.99215,4.99215,0,0,0,1.12011.57617,4.15654,4.15654,0,0,0,1.42481.23975c.97656,0,1.28027-.272,1.28027-.688,0-.43213-.0957-.67236-1.15234-1.23242-1.793-.94434-2.97754-1.90479-2.97754-3.45752,0-1.72852,1.05664-3.07324,3.9541-3.07324a6.0683,6.0683,0,0,1,2.38477.46435,7.83492,7.83492,0,0,1-.32032,2.36865H152.584a4.82451,4.82451,0,0,0-1.3291-.60791,3.96493,3.96493,0,0,0-1.05664-.16015c-.59179,0-1.04.144-1.04.624,0,.4165.40039.73633,1.24805,1.18457,1.90527,1.0083,2.99316,1.68067,2.99316,3.58545,0,2.38477-1.85644,3.18506-3.85742,3.18506A6.38073,6.38073,0,0,1,146.46875,81.43213Z" style="fill:#fff"/><path d="M155.62012,81.97656v-.03222a14.51054,14.51054,0,0,0,.43261-3.21729V74.82178a14.19571,14.19571,0,0,0-.43261-3.21729v-.03222h3.49023v.03222a14.19613,14.19613,0,0,0-.43262,3.21729v3.90527a14.511,14.511,0,0,0,.43262,3.21729v.03222Z" style="fill:#fff"/><path d="M161.34863,77.11035c0-3.249,1.69629-5.666,4.37012-5.666a5.86881,5.86881,0,0,1,2.417.46435,3.54524,3.54524,0,0,1-.46484,2.08057h-.03223a2.92539,2.92539,0,0,0-1.69629-.46387c-1.21679,0-1.72851,1.13623-1.69629,3.3291.03125,2.44922.67188,3.18506,1.792,3.18506a3.69294,3.69294,0,0,0,1.88867-.48h.03222a6.40213,6.40213,0,0,1,.28809,1.08838,9.00753,9.00753,0,0,1,.04785.97656,6.55541,6.55541,0,0,1-2.80078.4961C162.93359,82.12061,161.34863,80.66406,161.34863,77.11035Z" style="fill:#fff"/><path d="M173.7002,77.11035c0-3.249,1.69628-5.666,4.37011-5.666a5.86878,5.86878,0,0,1,2.417.46435,3.54524,3.54524,0,0,1-.46484,2.08057h-.03223a2.92538,2.92538,0,0,0-1.69628-.46387c-1.2168,0-1.72852,1.13623-1.69629,3.3291.03125,2.44922.67187,3.18506,1.792,3.18506a3.69294,3.69294,0,0,0,1.88867-.48h.03223a6.402,6.402,0,0,1,.28808,1.08838,9.00753,9.00753,0,0,1,.04785.97656,6.55538,6.55538,0,0,1-2.80078.4961C175.28516,82.12061,173.7002,80.66406,173.7002,77.11035Z" style="fill:#fff"/><path d="M187.68555,71.57227h2.84961v.03222c-.11231.28809-.27246.64014-.64063,1.77637a29.7688,29.7688,0,0,1-2.09668,4.70605v.64014a14.57122,14.57122,0,0,0,.43262,3.21729v.03222h-3.49024v-.03222a14.51037,14.51037,0,0,0,.43262-3.21729v-.67187a30.098,30.098,0,0,1-2.19238-4.60987c-.5127-1.377-.59277-1.63281-.67285-1.84082v-.03222h3.2334v.03222a4.18068,4.18068,0,0,0,.208,1.66455c.30469,1.05664.57618,1.96875.99219,3.02539a13.97051,13.97051,0,0,0,.89649-3.18554,5.51428,5.51428,0,0,0,.04785-1.5044Z" style="fill:#fff"/><path d="M201.63965,81.94434v.03222H198.374c-.28808,0-.36816-.04785-.52832-.33594a28.31254,28.31254,0,0,1-1.63183-3.82568l-.72071-.04785v.96a16.17391,16.17391,0,0,0,.35254,3.21729v.03222h-3.41015v-.03222a14.51054,14.51054,0,0,0,.43261-3.21729V74.82178a14.19571,14.19571,0,0,0-.43261-3.21729v-.03222h.0166l-.0166-.01612c1.34472.03223,2.81738-.19189,4.46582-.19189,2.25781,0,3.58593.68847,3.58593,2.7373a3.06407,3.06407,0,0,1-1.85644,2.977,25.51118,25.51118,0,0,0,2.09668,3.77735A8.17912,8.17912,0,0,0,201.63965,81.94434ZM195.49316,76.022h.65625c.86426,0,1.50489-.52783,1.50489-1.69629,0-1.20068-.67285-1.28076-1.48926-1.28076-.208,0-.44727.01612-.67188.03223Z" style="fill:#fff"/><path d="M203.23535,81.97656v-.03222a14.51037,14.51037,0,0,0,.43262-3.21729V74.82178a14.19553,14.19553,0,0,0-.43262-3.21729v-.03222h3.49024v.03222a14.19553,14.19553,0,0,0-.43262,3.21729v3.90527a14.51037,14.51037,0,0,0,.43262,3.21729v.03222Z" style="fill:#fff"/><path d="M215.1582,79.51172a6.57082,6.57082,0,0,1,.17578,1.53662c0,.86426-.11132,1.04-.624,1.04-.44824,0-2.30469-.0957-3.39355-.11182h-2.209v-.03222a14.51037,14.51037,0,0,0,.43262-3.21729V74.82178a14.19553,14.19553,0,0,0-.43262-3.21729v-.03222h3.57031v.03222a12.23874,12.23874,0,0,0-.51269,3.21729v3.90527c.01562.43213.04785.84863.08008,1.24854.33593.01611.68847.01611,1.04.01611a3.43972,3.43972,0,0,0,1.84082-.48Z" style="fill:#fff"/><path d="M223.23828,79.51172a6.57082,6.57082,0,0,1,.17578,1.53662c0,.86426-.11133,1.04-.624,1.04-.44824,0-2.30469-.0957-3.39356-.11182h-2.209v-.03222a14.51037,14.51037,0,0,0,.43262-3.21729V74.82178a14.19553,14.19553,0,0,0-.43262-3.21729v-.03222h3.57031v.03222a12.2383,12.2383,0,0,0-.51269,3.21729v3.90527c.01562.43213.04785.84863.08008,1.24854.33593.01611.68847.01611,1.04.01611a3.43967,3.43967,0,0,0,1.84082-.48Z" style="fill:#fff"/><path d="M225.251,81.97656v-.03222a14.51054,14.51054,0,0,0,.43261-3.21729V74.82178a14.19571,14.19571,0,0,0-.43261-3.21729v-.03222h3.49023v.03222a14.19553,14.19553,0,0,0-.43262,3.21729v3.90527a14.51037,14.51037,0,0,0,.43262,3.21729v.03222Z" style="fill:#fff"/><path d="M230.97949,77.11035c0-3.249,1.69629-5.666,4.37012-5.666a5.86881,5.86881,0,0,1,2.417.46435,3.54524,3.54524,0,0,1-.46484,2.08057h-.03223a2.92541,2.92541,0,0,0-1.69629-.46387c-1.21679,0-1.72851,1.13623-1.69629,3.3291.03125,2.44922.67188,3.18506,1.792,3.18506a3.69294,3.69294,0,0,0,1.88867-.48h.03222a6.40213,6.40213,0,0,1,.28809,1.08838,9.00753,9.00753,0,0,1,.04785.97656,6.55541,6.55541,0,0,1-2.80078.4961C232.56445,82.12061,230.97949,80.66406,230.97949,77.11035Z" style="fill:#fff"/><path d="M132.4082,527.87891a8.47583,8.47583,0,0,1,.12793,1.37695c0,.86426-.1123,1.04-.624,1.04-.46484,0-2.40137-.0957-3.52149-.11182h-2.59374v-.03222a14.51054,14.51054,0,0,0,.43261-3.21729V523.0293a14.19571,14.19571,0,0,0-.43261-3.21729v-.03222h1.76074c1.793-.01612,3.39355-.144,4.29-.144.22461,0,.38379.01612.43261.09619a.82172.82172,0,0,1,.06348.416,7.76746,7.76746,0,0,1-.24023,1.80859h-.03125a7.25347,7.25347,0,0,0-2.49707-.38379c-.27247-.01611-.5127-.01611-.72071-.01611v2.353c.86426-.064,1.68067-.11231,2.24121-.11231.33594,0,.36817.144.36817.64063a4.2496,4.2496,0,0,1-.25684,1.47217h-.03125a15.49284,15.49284,0,0,0-1.77734-.144c-.17578,0-.36817-.01562-.54395-.01562v2.43262c.44824,0,.97656.01611,1.47266.01611a5.92126,5.92126,0,0,0,2.04883-.32031Z" style="fill:#fff"/><path d="M142.75977,530.15186v.03222h-3.39258v-.03222a4.10935,4.10935,0,0,0-.38477-1.68067c-.25586-.76807-.55957-1.53662-.84765-2.27295-.24024.72071-.48047,1.48877-.75293,2.36914a4.49339,4.49339,0,0,0-.27149,1.58448v.03222h-3.00976v-.03222a13.96678,13.96678,0,0,0,.97656-1.87256c.48047-1.15235,1.04-2.46485,1.60058-3.64942a32.68832,32.68832,0,0,1-1.72851-3.26513c-.44824-1.08887-.57617-1.34473-.65625-1.55274v-.03222h3.4248v.03222a2.88752,2.88752,0,0,0,.12891,1.3125c.28809.89649.5918,1.60059.87988,2.273a9.20271,9.20271,0,0,0,.68848-2.03271,5.24858,5.24858,0,0,0,.12793-1.55274v-.03222h2.96094v.03222c-.11231.28809-.33594.64014-.81641,1.92041-.43164,1.04053-.86426,1.873-1.47266,3.04151.57618,1.13623,1.20118,2.481,1.68067,3.61767C142.47168,529.71973,142.67969,529.94385,142.75977,530.15186Z" style="fill:#fff"/><path d="M151.65625,519.668a3.12688,3.12688,0,0,1,.17578,1.26416,7.63446,7.63446,0,0,1-.17578,1.53662H151.624a3.3449,3.3449,0,0,0-2.28906-.65625v5.12207a12.50987,12.50987,0,0,0,.5127,3.21729v.03222h-3.64942v-.03222a12.56644,12.56644,0,0,0,.51172-3.21729V521.8125a3.3449,3.3449,0,0,0-2.28906.65625h-.03223a7.63446,7.63446,0,0,1-.17578-1.53662,3.12688,3.12688,0,0,1,.17578-1.26416l.0166-.01611c.14356,0,.25586.01611.752.04785.12793.01611,1.26465.064,2.11328.08008h1.5039c.84864-.01612,1.98536-.064,2.11329-.08008.49609-.03174.60839-.04785.75195-.04785Z" style="fill:#fff"/><path d="M160.36035,527.87891a8.47583,8.47583,0,0,1,.12793,1.37695c0,.86426-.1123,1.04-.624,1.04-.46485,0-2.40137-.0957-3.52149-.11182H153.749v-.03222a14.51037,14.51037,0,0,0,.43262-3.21729V523.0293a14.19553,14.19553,0,0,0-.43262-3.21729v-.03222h1.76075c1.793-.01612,3.39355-.144,4.29-.144.22461,0,.38379.01612.43262.09619a.82172.82172,0,0,1,.06348.416,7.76694,7.76694,0,0,1-.24024,1.80859h-.03125a7.2534,7.2534,0,0,0-2.49707-.38379c-.27246-.01611-.51269-.01611-.7207-.01611v2.353c.86426-.064,1.68066-.11231,2.24121-.11231.33594,0,.36817.144.36817.64063a4.2496,4.2496,0,0,1-.25684,1.47217h-.03125a15.49284,15.49284,0,0,0-1.77734-.144c-.17579,0-.36817-.01562-.544-.01562v2.43262c.44824,0,.97656.01611,1.47266.01611a5.92117,5.92117,0,0,0,2.04882-.32031Z" style="fill:#fff"/><path d="M162.53223,530.18408v-.03222a14.51054,14.51054,0,0,0,.43261-3.21729V523.0293a14.19571,14.19571,0,0,0-.43261-3.21729v-.03222H166.294l.0166.03222a6.44122,6.44122,0,0,0,.39941,1.12012c.40039.96045.88086,1.90478,1.3291,2.86523.43164.92871.92774,2.03272,1.376,3.21729h.03223a23.38193,23.38193,0,0,1-.17579-2.481l-.01562-1.50439a16.17391,16.17391,0,0,0-.35254-3.21729v-.03222h2.86523v.03222a14.57077,14.57077,0,0,0-.43261,3.21729v3.90527a14.25361,14.25361,0,0,0,.43261,3.21729v.03222H168.375l-.01562-.03222c-.01661-.064-.208-.46387-.48047-.99219l-1.8252-3.85742c-.36816-.76856-.76758-1.585-1.168-2.51319h-.03222a17.90518,17.90518,0,0,1,.19238,2.64112v1.50439a16.19537,16.19537,0,0,0,.35156,3.21729v.03222Z" style="fill:#fff"/><path d="M182.77637,524.3418c0,3.96972-1.61621,5.92236-5.042,5.92236-.94434,0-1.95313-.08008-3.64942-.08008v-.03222a14.52754,14.52754,0,0,0,.43164-3.21729V523.0293a14.21256,14.21256,0,0,0-.43164-3.21729v-.03222c2.46484,0,3.48926-.08008,4.40137-.08008C181.208,519.69971,182.77637,521.12451,182.77637,524.3418Zm-2.81739.352c-.01562-2.25684-.57617-2.94531-1.793-2.94531a5.41115,5.41115,0,0,0-1.02344.08007v6.30664a3.35667,3.35667,0,0,0,1.05566.12793C179.36719,528.26318,179.97559,526.999,179.959,524.69385Z" style="fill:#fff"/><path d="M191.27148,527.87891a8.47583,8.47583,0,0,1,.12793,1.37695c0,.86426-.1123,1.04-.624,1.04-.46484,0-2.40137-.0957-3.52148-.11182h-2.59375v-.03222a14.51054,14.51054,0,0,0,.43261-3.21729V523.0293a14.19571,14.19571,0,0,0-.43261-3.21729v-.03222h1.76074c1.793-.01612,3.39355-.144,4.29-.144.22461,0,.38379.01612.43261.09619a.82172.82172,0,0,1,.06348.416,7.76746,7.76746,0,0,1-.24023,1.80859h-.03125a7.25347,7.25347,0,0,0-2.49707-.38379c-.27246-.01611-.5127-.01611-.72071-.01611v2.353c.86426-.064,1.68067-.11231,2.24121-.11231.33594,0,.36817.144.36817.64063a4.2496,4.2496,0,0,1-.25684,1.47217h-.03125a15.49284,15.49284,0,0,0-1.77734-.144c-.17578,0-.36817-.01562-.54395-.01562v2.43262c.44825,0,.97657.01611,1.47266.01611a5.92126,5.92126,0,0,0,2.04883-.32031Z" style="fill:#fff"/><path d="M202.07227,524.3418c0,3.96972-1.61622,5.92236-5.042,5.92236-.94433,0-1.95312-.08008-3.64941-.08008v-.03222a14.52754,14.52754,0,0,0,.43164-3.21729V523.0293a14.21256,14.21256,0,0,0-.43164-3.21729v-.03222c2.46484,0,3.48926-.08008,4.40137-.08008C200.50391,519.69971,202.07227,521.12451,202.07227,524.3418Zm-2.81739.352c-.01562-2.25684-.57617-2.94531-1.792-2.94531a5.4317,5.4317,0,0,0-1.02539.08007v6.30664a3.36626,3.36626,0,0,0,1.05664.12793C198.66309,528.26318,199.27148,526.999,199.25488,524.69385Z" style="fill:#fff"/><path d="M207.25293,525.31836c0-3.24951,1.69629-5.6665,4.37012-5.6665a5.86881,5.86881,0,0,1,2.417.46435,3.54532,3.54532,0,0,1-.46484,2.08057H213.543a2.92588,2.92588,0,0,0-1.69629-.46436c-1.2168,0-1.72852,1.13672-1.69629,3.32959.03125,2.44922.67188,3.18506,1.792,3.18506a3.69292,3.69292,0,0,0,1.88867-.48h.03223a6.40306,6.40306,0,0,1,.28809,1.08838,9.00994,9.00994,0,0,1,.04785.97656,6.55543,6.55543,0,0,1-2.80078.49609C208.83789,530.32812,207.25293,528.87158,207.25293,525.31836Z" style="fill:#fff"/><path d="M221.23828,519.77979h2.84961v.03222c-.1123.28809-.27246.64014-.64062,1.77637a29.7688,29.7688,0,0,1-2.09668,4.70605v.64014a14.57077,14.57077,0,0,0,.43261,3.21729v.03222H218.293v-.03222a14.51037,14.51037,0,0,0,.43262-3.21729v-.67187a30.09913,30.09913,0,0,1-2.19239-4.60987c-.51269-1.37695-.59277-1.63281-.67285-1.84082v-.03222h3.2334v.03222a4.18077,4.18077,0,0,0,.208,1.66455c.30469,1.05664.57617,1.96875.99219,3.02539a13.97051,13.97051,0,0,0,.89648-3.18554,5.51385,5.51385,0,0,0,.04785-1.5044Z" style="fill:#fff"/><path d="M235.208,530.15186v.03222h-3.26563c-.28808,0-.36816-.04785-.52832-.33594a28.31254,28.31254,0,0,1-1.63183-3.82568l-.72071-.04785v.96a16.17391,16.17391,0,0,0,.35254,3.21729v.03222h-3.41015v-.03222a14.51054,14.51054,0,0,0,.43261-3.21729V523.0293a14.19571,14.19571,0,0,0-.43261-3.21729v-.03222h.0166l-.0166-.01612c1.34472.03223,2.81738-.19189,4.46582-.19189,2.25781,0,3.58593.68847,3.58593,2.7373a3.06407,3.06407,0,0,1-1.85644,2.977,25.51118,25.51118,0,0,0,2.09668,3.77735A8.17912,8.17912,0,0,0,235.208,530.15186Zm-6.14649-5.92237h.65625c.86426,0,1.50489-.52783,1.50489-1.69629,0-1.20068-.67286-1.28076-1.48926-1.28076-.208,0-.44727.01611-.67188.03223Z" style="fill:#fff"/><path d="M236.80371,530.18408v-.03222a14.51037,14.51037,0,0,0,.43262-3.21729V523.0293a14.19553,14.19553,0,0,0-.43262-3.21729v-.03222H240.294v.03222a14.19494,14.19494,0,0,0-.43262,3.21729v3.90527a14.50975,14.50975,0,0,0,.43262,3.21729v.03222Z" style="fill:#fff"/><path d="M248.72656,527.71924a6.57082,6.57082,0,0,1,.17578,1.53662c0,.86426-.11132,1.04-.624,1.04-.44824,0-2.30469-.0957-3.39355-.11182h-2.209v-.03222a14.51037,14.51037,0,0,0,.43262-3.21729V523.0293a14.19553,14.19553,0,0,0-.43262-3.21729v-.03222h3.57031v.03222a12.2383,12.2383,0,0,0-.51269,3.21729v3.90527c.01562.43262.04785.84863.08008,1.24854.33593.01611.68847.01611,1.04.01611a3.43972,3.43972,0,0,0,1.84082-.48Z" style="fill:#fff"/><path d="M256.79,527.71924a6.57082,6.57082,0,0,1,.17578,1.53662c0,.86426-.11133,1.04-.624,1.04-.44825,0-2.30469-.0957-3.39356-.11182h-2.209v-.03222a14.511,14.511,0,0,0,.43262-3.21729V523.0293a14.19613,14.19613,0,0,0-.43262-3.21729v-.03222h3.57031v.03222a12.2383,12.2383,0,0,0-.51269,3.21729v3.90527c.01562.43262.04785.84863.08007,1.24854.33594.01611.68848.01611,1.04.01611a3.43967,3.43967,0,0,0,1.84082-.48Z" style="fill:#fff"/><path d="M258.81934,530.18408v-.03222a14.51054,14.51054,0,0,0,.43261-3.21729V523.0293a14.19571,14.19571,0,0,0-.43261-3.21729v-.03222h3.49023v.03222a14.19553,14.19553,0,0,0-.43262,3.21729v3.90527a14.51037,14.51037,0,0,0,.43262,3.21729v.03222Z" style="fill:#fff"/><path d="M264.54785,525.31836c0-3.24951,1.69629-5.6665,4.37012-5.6665a5.86881,5.86881,0,0,1,2.417.46435,3.54532,3.54532,0,0,1-.46484,2.08057h-.03223a2.92586,2.92586,0,0,0-1.69629-.46436c-1.2168,0-1.72851,1.13672-1.69629,3.32959.03125,2.44922.67188,3.18506,1.792,3.18506a3.693,3.693,0,0,0,1.88868-.48h.03222a6.40306,6.40306,0,0,1,.28809,1.08838,9.0074,9.0074,0,0,1,.04785.97656,6.55543,6.55543,0,0,1-2.80078.49609C266.13281,530.32812,264.54785,528.87158,264.54785,525.31836Z" style="fill:#fff"/><path d="M285.62207,530.15186v.03222h-3.52051v-.03222c.14356-.31983.15918-.57618-.04883-2.00049-.03125-.19239-.06347-.40039-.11132-.62451-.57618-.01563-1.52149,0-2.32129.01611l-.08008.83252a6.59443,6.59443,0,0,0-.01563,1.77637v.03222h-2.92968v-.03222a13.14262,13.14262,0,0,0,.64062-2.19288c.54395-2.33691,1.07227-4.65771,1.55274-6.99462a2.05914,2.05914,0,0,0,.01562-1.15235v-.03222h4.12988v.03222a5.252,5.252,0,0,0,.27149,1.29639c.0166.08008.04883.16015.06445.24023.73633,2.75293,1.457,5.49024,1.74512,6.69043A8.87065,8.87065,0,0,0,285.62207,530.15186Zm-5.76172-4.57764c.6084-.03223,1.21582-.04785,1.71289-.064-.24023-1.26464-.52832-2.72119-.84863-4.21h-.03223Z" style="fill:#fff"/><path d="M287.53906,530.18408v-.03222a14.51037,14.51037,0,0,0,.43262-3.21729V523.0293a14.19553,14.19553,0,0,0-.43262-3.21729v-.03222h3.76172l.0166.03222a6.44261,6.44261,0,0,0,.39942,1.12012c.40039.96045.88086,1.90478,1.3291,2.86523.43164.92871.92773,2.03272,1.376,3.21729h.03222a23.38422,23.38422,0,0,1-.17578-2.481l-.01562-1.50439a16.17391,16.17391,0,0,0-.35254-3.21729v-.03222h2.86523v.03222a14.57122,14.57122,0,0,0-.43262,3.21729v3.90527a14.254,14.254,0,0,0,.43262,3.21729v.03222h-3.39355l-.01563-.03222c-.0166-.064-.208-.46387-.48047-.99219l-1.82519-3.85742c-.36817-.76856-.76758-1.585-1.168-2.51319h-.03223a17.90381,17.90381,0,0,1,.19238,2.64112v1.50439a16.19592,16.19592,0,0,0,.35157,3.21729v.03222Z" style="fill:#fff"/><path d="M307.78223,524.3418c0,3.96972-1.61621,5.92236-5.042,5.92236-.94433,0-1.95312-.08008-3.64941-.08008v-.03222a14.52754,14.52754,0,0,0,.43164-3.21729V523.0293a14.21256,14.21256,0,0,0-.43164-3.21729v-.03222c2.46484,0,3.48926-.08008,4.40137-.08008C306.21387,519.69971,307.78223,521.12451,307.78223,524.3418Zm-2.81739.352c-.01562-2.25684-.57617-2.94531-1.793-2.94531a5.41108,5.41108,0,0,0-1.02344.08007v6.30664a3.35667,3.35667,0,0,0,1.05566.12793C304.37305,528.26318,304.98145,526.999,304.96484,524.69385Z" style="fill:#fff"/><path d="M131.84766,546.919a6.57082,6.57082,0,0,1,.17578,1.53662c0,.86425-.11133,1.04-.624,1.04-.44824,0-2.30468-.09571-3.39355-.11182h-2.209v-.03223a14.51042,14.51042,0,0,0,.43261-3.21728V542.229a14.19569,14.19569,0,0,0-.43261-3.21728v-.03223h3.57031v.03223a12.2386,12.2386,0,0,0-.5127,3.21728v3.90528c.01563.43213.04785.84863.08008,1.24853.33594.01612.68848.01612,1.04.01612a3.43981,3.43981,0,0,0,1.84082-.48Z" style="fill:#fff"/><path d="M138.167,549.5918c-3.39355,0-4.45019-2.001-4.45019-5.20215,0-3.72949,2.0166-5.61817,4.626-5.61817,3.20118,0,4.30567,1.88868,4.30567,5.106C142.64844,547.15869,141.14355,549.44775,138.167,549.5918Zm1.53613-5.37793c0-2.01709-.32031-3.39356-1.5205-3.39356-1.04,0-1.50489,1.28076-1.50489,3.2334,0,1.88867.28809,3.48926,1.53711,3.48926C139.25488,547.543,139.70312,546.24658,139.70312,544.21387Z" style="fill:#fff"/><path d="M144.72559,544.51758c0-3.249,1.69629-5.666,4.37011-5.666a5.86885,5.86885,0,0,1,2.417.46436,3.54527,3.54527,0,0,1-.46485,2.08056h-.03223a2.92537,2.92537,0,0,0-1.69628-.46386c-1.2168,0-1.72852,1.13623-1.69629,3.3291.03125,2.44922.67187,3.18506,1.792,3.18506a3.69294,3.69294,0,0,0,1.88867-.48h.03223a6.4018,6.4018,0,0,1,.28808,1.08838,9.00725,9.00725,0,0,1,.04786.97656,6.55545,6.55545,0,0,1-2.80079.49609C146.31055,549.52783,144.72559,548.07129,144.72559,544.51758Z" style="fill:#fff"/><path d="M162.36035,549.35156v.03223h-3.52051v-.03223c.14356-.31982.15918-.57617-.04882-2.00049-.03125-.19238-.06348-.40039-.11133-.62451-.57617-.01562-1.52149,0-2.32129.01612l-.08008.83252a6.59364,6.59364,0,0,0-.01562,1.77636v.03223H153.333v-.03223a13.14192,13.14192,0,0,0,.64062-2.19287c.54395-2.33691,1.07227-4.65771,1.55274-6.99463a2.05911,2.05911,0,0,0,.01562-1.15234v-.03223h4.12989v.03223a5.2519,5.2519,0,0,0,.27148,1.29639c.0166.08007.04883.16015.06445.24023.73633,2.75293,1.457,5.49023,1.74512,6.69043A8.87044,8.87044,0,0,0,162.36035,549.35156Zm-5.76172-4.57763c.6084-.03223,1.21582-.04786,1.71289-.064-.24023-1.26465-.52832-2.72119-.84863-4.21h-.03223Z" style="fill:#fff"/><path d="M170.32715,546.919a6.57082,6.57082,0,0,1,.17578,1.53662c0,.86425-.11133,1.04-.624,1.04-.44825,0-2.30469-.09571-3.39356-.11182h-2.209v-.03223a14.51042,14.51042,0,0,0,.43261-3.21728V542.229a14.19569,14.19569,0,0,0-.43261-3.21728v-.03223h3.57031v.03223a12.2386,12.2386,0,0,0-.5127,3.21728v3.90528c.01563.43213.04786.84863.08008,1.24853.33594.01612.68848.01612,1.04.01612a3.43981,3.43981,0,0,0,1.84082-.48Z" style="fill:#fff"/><path d="M184.32812,549.35156v.03223h-3.52148v-.03223c.14453-.31982.16016-.57617-.04785-2.00049-.03125-.19238-.06348-.40039-.11133-.62451-.57617-.01562-1.52148,0-2.32129.01612l-.08008.83252a6.59364,6.59364,0,0,0-.01562,1.77636v.03223h-2.92969v-.03223a13.14131,13.14131,0,0,0,.64063-2.19287c.54394-2.33691,1.07226-4.65771,1.55273-6.99463a2.05924,2.05924,0,0,0,.01563-1.15234v-.03223h4.12988v.03223a5.2519,5.2519,0,0,0,.27148,1.29639c.0166.08007.04883.16015.06446.24023.73632,2.75293,1.457,5.49023,1.74511,6.69043A8.87164,8.87164,0,0,0,184.32812,549.35156Zm-5.76171-4.57763c.60839-.03223,1.21679-.04786,1.71289-.064-.24024-1.26465-.52832-2.72119-.84864-4.21h-.03222Z" style="fill:#fff"/><path d="M192.29492,546.919a6.57082,6.57082,0,0,1,.17578,1.53662c0,.86425-.11132,1.04-.624,1.04-.44824,0-2.30469-.09571-3.39356-.11182h-2.209v-.03223a14.51025,14.51025,0,0,0,.43262-3.21728V542.229a14.19551,14.19551,0,0,0-.43262-3.21728v-.03223h3.57031v.03223a12.23829,12.23829,0,0,0-.51269,3.21728v3.90528c.01562.43213.04785.84863.08008,1.24853.33593.01612.68847.01612,1.04.01612a3.43981,3.43981,0,0,0,1.84082-.48Z" style="fill:#fff"/><path d="M201.28711,538.86768a3.12688,3.12688,0,0,1,.17578,1.26416,7.63454,7.63454,0,0,1-.17578,1.53662h-.03223a3.34485,3.34485,0,0,0-2.28906-.65625v5.12207a12.50977,12.50977,0,0,0,.5127,3.21728v.03223H195.8291v-.03223a12.56634,12.56634,0,0,0,.51172-3.21728v-5.12207a3.34485,3.34485,0,0,0-2.28906.65625h-.03223a7.63454,7.63454,0,0,1-.17578-1.53662,3.12688,3.12688,0,0,1,.17578-1.26416l.0166-.01612c.14356,0,.25586.01612.752.04785.12793.01612,1.26464.064,2.11328.08008h1.5039c.84864-.01611,1.98535-.064,2.11328-.08008.4961-.03173.6084-.04785.752-.04785Z" style="fill:#fff"/><path d="M209.99121,547.0791a8.46533,8.46533,0,0,1,.12793,1.37647c0,.86425-.1123,1.04-.624,1.04-.46485,0-2.40137-.09571-3.52149-.11182h-2.59375v-.03223a14.51025,14.51025,0,0,0,.43262-3.21728V542.229a14.19551,14.19551,0,0,0-.43262-3.21728v-.03223h1.76074c1.793-.01611,3.39356-.144,4.29-.144.22461,0,.38379.01611.43262.09619a.82172.82172,0,0,1,.06348.416,7.76747,7.76747,0,0,1-.24024,1.80859h-.03125a7.25316,7.25316,0,0,0-2.49707-.38379c-.27246-.01611-.51269-.01611-.7207-.01611v2.353c.86426-.064,1.68066-.11231,2.24121-.11231.33594,0,.36817.144.36817.64063a4.2495,4.2495,0,0,1-.25684,1.47216h-.03125a15.49236,15.49236,0,0,0-1.77734-.144c-.17579,0-.36817-.01562-.54395-.01562v2.43261c.44824,0,.97656.01612,1.47266.01612a5.93292,5.93292,0,0,0,2.04882-.31983Z" style="fill:#fff"/><path d="M221.35156,549.35156v.03223h-3.26562c-.28809,0-.36817-.04785-.52832-.33594a28.31319,28.31319,0,0,1-1.63184-3.82568l-.7207-.04785v.96a16.173,16.173,0,0,0,.35254,3.21728v.03223h-3.41016v-.03223a14.51025,14.51025,0,0,0,.43262-3.21728V542.229a14.19551,14.19551,0,0,0-.43262-3.21728v-.03223h.0166l-.0166-.01611c1.34473.03223,2.81738-.1919,4.46582-.1919,2.25781,0,3.58594.68848,3.58594,2.73731a3.06408,3.06408,0,0,1-1.85645,2.97705,25.51146,25.51146,0,0,0,2.09668,3.77734A8.17922,8.17922,0,0,0,221.35156,549.35156Zm-6.14648-5.92236h.65625c.86426,0,1.50488-.52783,1.50488-1.69629,0-1.20068-.67285-1.28076-1.48926-1.28076-.208,0-.44726.01611-.67187.03223Z" style="fill:#fff"/><path d="M222.94727,549.38379v-.03223a14.51042,14.51042,0,0,0,.43261-3.21728V542.229a14.19569,14.19569,0,0,0-.43261-3.21728v-.03223H226.709l.01661.03223a6.44122,6.44122,0,0,0,.39941,1.12012c.40039.96045.88086,1.90478,1.3291,2.86523.43164.92871.92774,2.0332,1.376,3.21729h.03222a23.38422,23.38422,0,0,1-.17578-2.481l-.01562-1.5044a16.17378,16.17378,0,0,0-.35254-3.21728v-.03223h2.86523v.03223a14.57065,14.57065,0,0,0-.43261,3.21728v3.90528a14.2534,14.2534,0,0,0,.43261,3.21728v.03223H228.79l-.01563-.03223c-.0166-.064-.208-.46386-.48046-.99218l-1.8252-3.85743c-.36816-.76855-.76758-1.585-1.168-2.51318h-.03223a17.90379,17.90379,0,0,1,.19239,2.64111v1.5044a16.19524,16.19524,0,0,0,.35156,3.21728v.03223Z" style="fill:#fff"/><path d="M243.127,549.35156v.03223h-3.52148v-.03223c.14453-.31982.16015-.57617-.04785-2.00049-.03125-.19238-.06348-.40039-.11133-.62451-.57617-.01562-1.52149,0-2.32129.01612l-.08008.83252a6.59364,6.59364,0,0,0-.01562,1.77636v.03223h-2.92969v-.03223a13.14192,13.14192,0,0,0,.64062-2.19287c.54395-2.33691,1.07227-4.65771,1.55274-6.99463a2.05911,2.05911,0,0,0,.01562-1.15234v-.03223h4.12989v.03223a5.2519,5.2519,0,0,0,.27148,1.29639c.0166.08007.04883.16015.06445.24023.73633,2.75293,1.457,5.49023,1.74512,6.69043A8.871,8.871,0,0,0,243.127,549.35156Zm-5.76172-4.57763c.6084-.03223,1.2168-.04786,1.71289-.064-.24023-1.26465-.52832-2.72119-.84863-4.21h-.03222Z" style="fill:#fff"/><path d="M252.02246,538.86768a3.1267,3.1267,0,0,1,.17578,1.26416,7.63454,7.63454,0,0,1-.17578,1.53662h-.03223a3.34485,3.34485,0,0,0-2.28906-.65625v5.12207a12.51022,12.51022,0,0,0,.5127,3.21728v.03223h-3.64942v-.03223a12.56588,12.56588,0,0,0,.51172-3.21728v-5.12207a3.34485,3.34485,0,0,0-2.28906.65625h-.03223a7.63454,7.63454,0,0,1-.17578-1.53662,3.12688,3.12688,0,0,1,.17578-1.26416l.0166-.01612c.14356,0,.25586.01612.752.04785.12793.01612,1.26465.064,2.11328.08008h1.5039c.84864-.01611,1.98536-.064,2.11329-.08008.49609-.03173.60839-.04785.752-.04785Z" style="fill:#fff"/><path d="M260.72656,547.0791a8.46533,8.46533,0,0,1,.12793,1.37647c0,.86425-.1123,1.04-.624,1.04-.46485,0-2.40137-.09571-3.52149-.11182h-2.59375v-.03223a14.51025,14.51025,0,0,0,.43262-3.21728V542.229a14.19551,14.19551,0,0,0-.43262-3.21728v-.03223H255.876c1.793-.01611,3.39355-.144,4.29-.144.2246,0,.38378.01611.43261.09619a.82172.82172,0,0,1,.06348.416,7.76746,7.76746,0,0,1-.24023,1.80859h-.03126a7.25316,7.25316,0,0,0-2.49707-.38379c-.27246-.01611-.51269-.01611-.7207-.01611v2.353c.86426-.064,1.68067-.11231,2.24121-.11231.33594,0,.36817.144.36817.64063a4.2495,4.2495,0,0,1-.25684,1.47216h-.03125a15.49236,15.49236,0,0,0-1.77734-.144c-.17578,0-.36817-.01562-.54395-.01562v2.43261c.44824,0,.97656.01612,1.47266.01612a5.933,5.933,0,0,0,2.04883-.31983Z" style="fill:#fff"/><path d="M262.835,548.83936a5.94734,5.94734,0,0,1,.40039-2.35254h.03223a4.992,4.992,0,0,0,1.12012.57617,4.15667,4.15667,0,0,0,1.4248.23974c.97656,0,1.28027-.272,1.28027-.688,0-.43213-.0957-.67237-1.15234-1.23243-1.793-.94433-2.97754-1.90478-2.97754-3.45752,0-1.72851,1.05664-3.07324,3.9541-3.07324a6.0683,6.0683,0,0,1,2.38477.46436,7.83527,7.83527,0,0,1-.32031,2.36865h-.03223a4.8071,4.8071,0,0,0-1.32813-.60791,3.9645,3.9645,0,0,0-1.05664-.16016c-.59179,0-1.04.144-1.04.624,0,.4165.40039.73633,1.24805,1.18457,1.90527,1.0083,2.99316,1.68066,2.99316,3.58545,0,2.38476-1.85644,3.18506-3.85742,3.18506A6.38088,6.38088,0,0,1,262.835,548.83936Z" style="fill:#fff"/><path d="M484.86816,139.03809a67.3479,67.3479,0,0,1-14.0205,0l-1.21875-16.09327-6.584.24414-1.09668,15.84913a46.01665,46.01665,0,0,1-11.582,0l9.02149-70.10254a76.47288,76.47288,0,0,1,16.70312,0Zm-20.96972-27.43164,4.877-.12159-1.707-24.14013a6.96607,6.96607,0,0,0-1.585-.12159Z" style="fill:#fff"/><path d="M535.70508,139.03809c-4.26758.97558-11.94824,1.09716-18.04395.85351a45.70833,45.70833,0,0,1-5.48633-.48779v-69.981h.12208v-.12158c12.31347-1.09717,21.335-1.09717,25.48046,0,.36524,6.46143.12207,14.26416-.85351,19.019h-2.68262l-.24316-5.1206a31.64623,31.64623,0,0,0-10.24121,0l.24414,13.41113a43.04753,43.04753,0,0,1,14.26367.24365C541.43457,111.72852,540.21582,129.1626,535.70508,139.03809Zm-11.583-10.85059c1.21973,0,2.56055,0,3.78027-.12207a93.78594,93.78594,0,0,0,.36524-20.23828,23.82262,23.82262,0,0,0-4.14551-.36572Z" style="fill:#fff"/><path d="M595.19824,136.59961c-5.6084,3.65771-14.38672,3.65771-27.30957,2.43848V68.93555c9.02149-1.21924,19.2627-1.21924,26.94336,2.438,2.31641,11.09472,2.07324,23.53027-3.7793,32.43017a8.65786,8.65786,0,0,1,3.41407,2.07275C596.90527,111.72852,597.27051,128.1875,595.19824,136.59961ZM580.32422,82.834v17.92188h2.56055a42.06084,42.06084,0,0,0,.85253-17.79981A33.04978,33.04978,0,0,0,580.32422,82.834Zm0,44.74366a11.479,11.479,0,0,0,3.53516-.12159,47.299,47.299,0,0,0-.24317-18.04394,29.87674,29.87674,0,0,1-3.292.24365Z" style="fill:#fff"/><path d="M644.57227,91.6123h-2.68262l-.48731-5.73046a32.20264,32.20264,0,0,0-4.87695-.12159l.36523,13.53272v40.11084a39.23684,39.23684,0,0,1-11.94726,0v-69.981h.12207v-.12158c9.875-1.09717,17.06836-1.09717,20.35937,0C645.791,76.85986,645.54688,86.00391,644.57227,91.6123Z" style="fill:#fff"/><path d="M704.79688,145.86523H701.627l-.36621-6.21777a88.56775,88.56775,0,0,0-13.04492-.60937,70.47289,70.47289,0,0,0-11.582.60937l-.36621,6.21777h-3.16992c-.97461-4.63281-1.21875-13.28857-.85352-19.50683l3.7793-.48731c1.09765-13.28906,1.8291-27.06591,2.07324-41.45214l.12207-11.70411-4.51172-.24365V69.78906a89.70074,89.70074,0,0,1,12.43652-1.46338,80.25376,80.25376,0,0,1,16.458.60987v37.063c0,6.70556,0,13.77636-.36523,19.99414l3.41406.36572C706.01562,132.57666,705.77148,141.23242,704.79688,145.86523Zm-14.38672-20.604V100.39014l.24414-15.4834h-2.56055l-2.19434.36572-.36621,22.55469a143.6733,143.6733,0,0,1-1.585,17.55615C686.14355,125.26123,688.33789,125.26123,690.41016,125.26123Z" style="fill:#fff"/><path d="M756.12109,119.16553a97.48122,97.48122,0,0,1,.85352,19.87256c-3.41309,1.21923-13.28906.85351-23.77344-.12207V68.93555h.12207c10.48438-1.09766,20.35938-1.34131,23.16406,0,.36524,6.0957.12208,14.75195-.85351,19.87256h-2.68262l-.36523-4.63282a25.28584,25.28584,0,0,0-7.4375,0l.24414,8.65576v3.77979a24.52662,24.52662,0,0,1,6.70508-.48779,57.36966,57.36966,0,0,1-.36524,13.65478,55.15558,55.15558,0,0,1-6.33984-.24365v5.12012l-.24414,9.144a42.84641,42.84641,0,0,0,7.9248,0l.36621-4.63281Z" style="fill:#fff"/><path d="M807.68945,119.16553a97.48122,97.48122,0,0,1,.85352,19.87256c-3.41309,1.21923-13.28906.85351-23.77344-.12207V68.93555h.12207c10.48438-1.09766,20.35938-1.34131,23.16406,0,.36524,6.0957.12207,14.75195-.85351,19.87256h-2.68262l-.36523-4.63282a25.28584,25.28584,0,0,0-7.4375,0l.24414,8.65576v3.77979a24.52662,24.52662,0,0,1,6.70508-.48779,57.36966,57.36966,0,0,1-.36524,13.65478,55.15558,55.15558,0,0,1-6.33984-.24365v5.12012l-.24414,9.144a42.84641,42.84641,0,0,0,7.9248,0l.36621-4.63281ZM788.18262,67.10645a14.25244,14.25244,0,0,1-.60938-8.41211,18.47758,18.47758,0,0,1,8.16895,0,21.88274,21.88274,0,0,1-.61035,8.41211A22.141,22.141,0,0,1,788.18262,67.10645Zm10.36328,0a21.86283,21.86283,0,0,1-.60938-8.41211,18.47317,18.47317,0,0,1,8.168,0,14.23689,14.23689,0,0,1-.60937,8.41211A22.141,22.141,0,0,1,798.5459,67.10645Z" style="fill:#fff"/><path d="M876.57129,100.51221l7.07129,38.52588a65.02926,65.02926,0,0,1-13.77637,0L866.208,107.5835l-1.9502.36572.60938,14.9956v16.09327a57.243,57.243,0,0,1-12.92285,0V122.94482l.60937-15.11767-1.95117-.24365-3.65723,31.45459a59.41935,59.41935,0,0,1-13.167,0l6.70508-36.45362L833.169,68.93555a41.438,41.438,0,0,1,12.31347,0l6.0957,29.26025,1.21973.36572-.85351-11.94824V68.93555a45.86686,45.86686,0,0,1,12.92285,0V86.61328l-.85352,11.94824,1.21973-.36572,6.0957-29.26025a39.81138,39.81138,0,0,1,12.06934,0Z" style="fill:#fff"/><path d="M932.17578,136.59961c-5.48633,4.26709-15.11816,3.65771-22.55469,2.43848-1.21972-6.33985-1.707-17.06836-.36621-22.79883h2.68262l.60938,5.73047a36.55593,36.55593,0,0,0,8.65624.60937,61.51981,61.51981,0,0,0-.24414-13.41064,43.74166,43.74166,0,0,1-8.89941.60937,57.4227,57.4227,0,0,1-.36621-13.65478c2.68262,0,5.12109-.12207,7.80273.73144a39.12974,39.12974,0,0,0,.24414-11.94775,58.41137,58.41137,0,0,0-7.19335.36572l-.24415,3.53565h-2.68164c-.97558-4.99854-1.21972-13.16749-.85351-19.87256,5.12012-1.95069,16.33691-1.09766,23.042,1.34082,2.43848,11.33838,2.07324,24.38379-4.2666,33.40576a23.53175,23.53175,0,0,1,3.90137,1.585C933.88281,111.36279,934.24805,127.82178,932.17578,136.59961Z" style="fill:#fff"/><path d="M978.86621,68.93555c4.51074-1.09766,12.43555-1.09766,16.94629.24365v69.85889a47.686,47.686,0,0,1-11.82617,0V119.04346l1.707-32.91748c-.48731,0-.97559-.12207-1.46289-.12207l-5.85254,53.03418c-4.51074,1.09716-12.19141,1.09716-16.70215-.24366V68.93555a38.22354,38.22354,0,0,1,11.82617,0V89.90527l-1.707,31.94239a4.993,4.993,0,0,0,1.34082.12207Z" style="fill:#fff"/><path d="M1042.50586,68.93555c4.51074-1.09766,12.43555-1.09766,16.94629.24365v69.85889a47.686,47.686,0,0,1-11.82617,0V119.04346l1.707-32.91748c-.48731,0-.97559-.12207-1.46289-.12207l-5.85254,53.03418c-4.51074,1.09716-12.19141,1.09716-16.70215-.24366V68.93555a38.22354,38.22354,0,0,1,11.82617,0V89.90527l-1.707,31.94239a4.993,4.993,0,0,0,1.34082.12207Zm-8.77832-3.292c-1.34082-3.90136-1.09766-6.70556-.73145-10.36279a42.87375,42.87375,0,0,1,7.92481,0,50.767,50.767,0,0,1,0,6.0957,11.73236,11.73236,0,0,0,2.92578,0,34.33426,34.33426,0,0,1,.12207-6.0957,41.63157,41.63157,0,0,1,7.80273,0c.48731,3.65723.73145,6.46143-.60937,10.36279A52.28148,52.28148,0,0,1,1033.72754,65.64355Z" style="fill:#fff"/><path d="M1113.94824,100.14648l7.92481,38.89161a68.52263,68.52263,0,0,1-14.14258,0l-4.75488-30.72315-1.82911.36572.60938,14.26416v16.09327a57.243,57.243,0,0,1-12.92285,0V68.93555a45.86686,45.86686,0,0,1,12.92285,0V86.61328l-.85352,11.82617,1.3418-.36572,6.583-29.13818a42.264,42.264,0,0,1,12.43555,0Z" style="fill:#fff"/><path d="M1176.73242,68.93555V138.916a50.96647,50.96647,0,0,1-12.1914,0V100.39014l.36621-17.3125a26.6729,26.6729,0,0,0-4.38965.36572l-.73145,36.69726a101.56186,101.56186,0,0,1-1.8291,18.53174,18.72413,18.72413,0,0,1-11.82519.24366c-1.21973-6.46143-.97559-17.312-.12207-23.04248h2.68164l.36621,6.46191a2.842,2.842,0,0,0,1.707-.12207c.4873-3.65772.73144-8.16846,1.09668-15.11768.97558-19.019,1.34179-27.55371,1.21972-34.38086l-4.38964-.24365V69.78906a80.45589,80.45589,0,0,1,9.876-1.21924A74.37662,74.37662,0,0,1,1176.73242,68.93555Z" style="fill:#fff"/><path d="M1234.03125,68.93555c4.999-1.34131,13.89844-1.09766,19.2627,0v70.10254a51.98861,51.98861,0,0,1-12.31348,0V114.53271l1.09765-27.43164a7.95754,7.95754,0,0,0-1.707,0l-5.12011,51.69336c-3.53614,1.34082-11.09473,1.34082-14.63086.24366l-5.48633-51.815c-.48731,0-.97461.12159-1.46289.12159l1.09765,27.188v24.50538a25.785,25.785,0,0,1-8.65625,0V69.1792c4.75489-1.34131,13.41114-1.34131,18.166-.24365l4.876,54.49707a2.68,2.68,0,0,0,.97558-.12207Z" style="fill:#fff"/><path d="M1301.69238,68.93555a45.87378,45.87378,0,0,1,12.92383,0v70.10254a57.25167,57.25167,0,0,1-12.92383,0V110.50928a51.14247,51.14247,0,0,1-6.0957.36572v28.16309a57.243,57.243,0,0,1-12.92285,0V68.93555a45.86686,45.86686,0,0,1,12.92285,0V97.708a51.16707,51.16707,0,0,1,6.0957-.36572Z" style="fill:#fff"/><path d="M1370.81641,98.56152c0,11.82569-1.3418,27.1875-6.70606,39.86719-4.2666,1.82861-12.31347,1.82861-17.3125.48731a99.29175,99.29175,0,0,1-4.14453-29.26026c0-11.82568,1.34082-27.1875,6.82715-39.8667,2.92578-1.46338,13.89844-1.46338,17.19043-.48779A99.29177,99.29177,0,0,1,1370.81641,98.56152Zm-12.92383,25.72461a133.33664,133.33664,0,0,0,.60937-39.37939,7.78008,7.78008,0,0,0-2.92578.12158,129.16494,129.16494,0,0,0-.4873,39.37988A10.34345,10.34345,0,0,0,1357.89258,124.28613Z" style="fill:#fff"/><path d="M1429.21289,68.93555v70.10254a55.1159,55.1159,0,0,1-12.67969,0V82.71191a35.99663,35.99663,0,0,0-5.12109,0v56.32618a55.10741,55.10741,0,0,1-12.67871,0V68.93555a104.662,104.662,0,0,1,30.23535,0Z" style="fill:#fff"/><path d="M1483.708,126.11475a59.96724,59.96724,0,0,1-12.07031,1.707v11.21631a57.2431,57.2431,0,0,1-12.92286,0V68.93555c9.3877-1.21924,20.84766-1.21924,28.77246,1.21924C1489.4375,85.76025,1488.46289,110.26562,1483.708,126.11475Zm-12.07031-11.33838a29.67684,29.67684,0,0,0,3.292-.12207,177.51858,177.51858,0,0,0,.73144-31.69825,22.1783,22.1783,0,0,0-4.02343-.12207Z" style="fill:#fff"/><path d="M1534.667,115.50781h2.68164c-.24316,5.97412-1.09668,15.60547-4.998,23.53028-2.31641,1.21923-7.55957,1.21923-15.4834,0-1.95117-8.65625-2.43848-14.752-2.43848-24.50538,0-10.60693,2.43848-33.89306,6.94922-44.0122,6.21777-2.31641,11.582-3.04834,16.33691-2.19483a109.86769,109.86769,0,0,1-2.56054,24.01807h-2.68164V86.4917a18.63354,18.63354,0,0,0-4.63282-.12207c-1.707,9.99707-1.8291,24.87109-.73242,35.356a35.41633,35.41633,0,0,0,6.09668.12207Z" style="fill:#fff"/><path d="M1590.86816,91.24609h-2.68261l-.36524-5.73a38.50461,38.50461,0,0,0-4.75488-.48779l.24316,15.36182v38.648a50.96647,50.96647,0,0,1-12.1914,0v-38.648l.24414-15.36182a36.47332,36.47332,0,0,0-4.51074.48779l-.36621,5.73h-2.68262c-.97461-5.60791-1.21875-14.75195-.85254-22.31054a94.83442,94.83442,0,0,1,28.77246,0C1592.08691,76.49414,1591.84375,85.63818,1590.86816,91.24609Z" style="fill:#fff"/><path d="M469.2627,170.53125a36.88832,36.88832,0,0,1,11.582,0L478.041,201.37646c-1.9502,21.57911-4.02344,33.16163-6.70508,37.063-7.4375,3.04785-11.94824,3.04785-16.70313,2.19434-1.8291-5.24268-2.56054-14.38623-1.21875-19.14111h2.68164l.73145,5.73a39.18423,39.18423,0,0,0,4.26758-.73145c-2.31641-5.73-4.38965-11.21631-5.24317-17.19043l-5.48535-38.76953a42.93555,42.93555,0,0,1,12.55664,0l2.68262,37.063,1.21875,12.6792a7.1755,7.1755,0,0,0,.97558-.4878l.12208-16.94628Z" style="fill:#fff"/><path d="M543.50879,232.709a72.40654,72.40654,0,0,1-8.65625,1.09766v7.43652a57.24185,57.24185,0,0,1-12.92285,0v-7.19287a100.30682,100.30682,0,0,1-11.33887-.85351c-6.33887-18.2876-5.48633-41.45215,2.68262-56.93555a51.7625,51.7625,0,0,1,8.65625-.9751v-5.36474a45.90337,45.90337,0,0,1,12.92285,0v5.24267a82.45274,82.45274,0,0,1,11.2168.60938C552.28711,193.93945,551.55566,217.10352,543.50879,232.709Zm-21.5791-12.43554V189.18457l-2.68262.36572a122.341,122.341,0,0,0-.36523,30.60108A24.45962,24.45962,0,0,1,521.92969,220.27344Zm12.92285-.36573,2.68262-.36572a130.95793,130.95793,0,0,0,.36523-30.11377,27.93,27.93,0,0,0-3.04785-.24365Z" style="fill:#fff"/><path d="M600.19824,203.81445l8.16895,36.81934a74.5388,74.5388,0,0,1-14.752,0l-2.92675-26.7002h-.97461l-2.80469,26.7002a41.32059,41.32059,0,0,1-10.97266,0l7.07129-37.55078-7.55859-32.55176a74.5387,74.5387,0,0,1,14.752,0l2.92578,24.50537c.36621,0,.61035-.12207.97559-.12207l2.92578-24.3833a33.50839,33.50839,0,0,1,9.876,0Z" style="fill:#fff"/><path d="M651.40332,170.53125a45.8676,45.8676,0,0,1,12.92285,0v70.10254a57.243,57.243,0,0,1-12.92285,0v-22.311a57.66707,57.66707,0,0,1-13.77734.24414,64.58555,64.58555,0,0,1-3.90137-23.04248V170.53125c2.68262-.60986,7.55957-.60986,12.92383,0v33.89307c1.707,0,3.291-.12207,4.75488-.24414Z" style="fill:#fff"/><path d="M726.01465,247.46094H722.8457l-.48828-6.5835a106.44089,106.44089,0,0,1-28.52832-.24365V170.53125a45.8676,45.8676,0,0,1,12.92285,0v57.54492a30.91465,30.91465,0,0,0,4.75489,0V170.53125a45.8676,45.8676,0,0,1,12.92285,0v37.063c0,6.58349,0,13.41064-.36524,19.62842.85352-.12159,1.707-.12159,2.80371-.24366C727.23438,234.65967,726.99023,242.58447,726.01465,247.46094Z" style="fill:#fff"/><path d="M802.57812,240.63379c-1.21874.12207-2.43847.24365-3.65722.24365a255.20907,255.20907,0,0,1-40.96485,0,25.63268,25.63268,0,0,1-3.04785-.24365h-.4873l.12207-.36572V170.53125a45.84719,45.84719,0,0,1,12.92285,0v57.30127l4.75488.36572v-57.667a44.16625,44.16625,0,0,1,12.67969,0v57.667c1.585,0,3.16992-.12207,4.75488-.24414V170.53125a45.8473,45.8473,0,0,1,12.92285,0Z" style="fill:#fff"/><path d="M881.82227,247.46094h-3.16993l-.4873-6.70508a247.91227,247.91227,0,0,1-42.54981.12158,25.63268,25.63268,0,0,1-3.04785-.24365h-.4873l.12207-.36572V170.53125a45.84719,45.84719,0,0,1,12.92285,0v57.30127l4.75488.36572v-57.667a44.16625,44.16625,0,0,1,12.67969,0v57.667c1.585,0,3.16992-.12207,4.75488-.24414V170.53125a45.8676,45.8676,0,0,1,12.92285,0v37.063c0,6.58349,0,13.53271-.36621,19.62842.85352-.12159,1.707-.12159,2.80469-.24366C883.041,234.65967,882.79785,242.70654,881.82227,247.46094Z" style="fill:#fff"/><path d="M933.63477,240.63379c-4.26758.97559-12.19239,1.09717-18.166.85351-1.707-.12207-3.53613-.24414-5.36426-.48779V170.53125a44.15946,44.15946,0,0,1,12.67871,0v17.7998l-.4873,9.75342a48.19052,48.19052,0,0,1,13.89844.36573C939.36426,213.32422,938.14551,230.7583,933.63477,240.63379ZM922.7832,229.7832c.97559,0,2.07325-.12207,3.04883-.12207a93.78594,93.78594,0,0,0,.36524-20.23828,16.26636,16.26636,0,0,0-3.41407-.36572Z" style="fill:#fff"/><path d="M994.5918,240.63379c-4.26758.97559-12.19239,1.09717-18.166.85351-1.707-.12207-3.53516-.24414-5.36426-.48779V204.30225l.36621-17.67823a24.34676,24.34676,0,0,0-3.6582.4878l-.36523,5.73h-2.68262c-.97559-5.60791-1.21875-14.752-.85352-22.31055,6.09571-1.34131,10.48536-.97559,19.87305,0v17.7998l-.48828,9.75342a48.1972,48.1972,0,0,1,13.89941.36573C1000.32227,213.32422,999.10254,230.7583,994.5918,240.63379ZM983.74121,229.7832c.97559,0,2.07227-.12207,3.04785-.12207a93.78594,93.78594,0,0,0,.36524-20.23828,16.25721,16.25721,0,0,0-3.41309-.36572Z" style="fill:#fff"/><path d="M1039.57617,198.08447a48.19051,48.19051,0,0,1,13.89844.36573c3.16992,14.874,1.95117,32.3081-2.55957,42.18359-4.26758.97559-12.19238,1.09717-18.166.85351-1.707-.12207-3.53613-.24414-5.36425-.48779V170.53125a44.15946,44.15946,0,0,1,12.67871,0v17.7998Zm.48731,31.69873c.97558,0,2.07324-.12207,3.04882-.12207a93.78594,93.78594,0,0,0,.36524-20.23828,16.25941,16.25941,0,0,0-3.41406-.36572Zm18.53222-59.25195a45.8676,45.8676,0,0,1,12.92285,0v70.10254a57.243,57.243,0,0,1-12.92285,0Z" style="fill:#fff"/><path d="M1119.43164,239.04883c-7.43652,2.3164-12.80078,3.04785-17.55566,2.19433-1.21973-5.12011-1.8291-15.48339-1.09766-22.79834h2.31641l1.34179,5.36426a18.10665,18.10665,0,0,0,8.168.4878c.36621-3.7793.60938-8.4126.73145-13.28907a59.25342,59.25342,0,0,1-8.0459.36573,57.37143,57.37143,0,0,1-.36621-13.65479c2.80371,0,5.36426-.12207,8.16894.85352a118.22283,118.22283,0,0,0-.97558-12.06983,28.53428,28.53428,0,0,0-7.80274.36572l-.36621,3.53565h-2.68164c-.36621-5.24268-.24414-13.41113,1.34082-19.87256,4.75488-1.21924,11.94824-1.21924,20.11621,0C1126.99121,189.30664,1125.04,221.73633,1119.43164,239.04883Z" style="fill:#fff"/><path d="M1197.5791,200.15723c0,11.82568-1.3418,27.1875-6.70605,39.86718-4.2666,1.82862-12.31348,1.82862-17.3125.48731a101.476,101.476,0,0,1-4.14453-28.16309c-1.09766,0-2.31641.12207-3.41407.12207v28.16309a57.243,57.243,0,0,1-12.92285,0V170.53125a45.8676,45.8676,0,0,1,12.92285,0v28.77246c1.34082-.12207,2.56055-.24365,3.90137-.24365.73145-9.144,2.19434-19.01953,5.12109-27.67529,4.14454-1.46338,15.11719-1.46338,18.40918-.4878A99.29179,99.29179,0,0,1,1197.5791,200.15723Zm-12.92383,25.72461a133.33638,133.33638,0,0,0,.60938-39.3794,7.78007,7.78007,0,0,0-2.92578.12158,129.16468,129.16468,0,0,0-.48731,39.37989A10.34383,10.34383,0,0,0,1184.65527,225.88184Z" style="fill:#fff"/><path d="M1253.53613,170.53125v70.10254a53.02077,53.02077,0,0,1-12.43554,0V212.105c-.60938.12207-1.34082.12207-1.95118.24365l-2.43847,28.28516a59.41935,59.41935,0,0,1-13.167,0l5.24316-31.57666c-5.85254-10.97266-4.38965-28.65088-.12207-37.67236,4.998-1.34131,10.60644-2.43848,24.749-.85352Zm-12.43554,31.45459V183.94189a18.69435,18.69435,0,0,0-4.51075.24415,64.662,64.662,0,0,0,1.82813,18.53125A5.22066,5.22066,0,0,0,1241.10059,201.98584Z" style="fill:#fff"/><path d="M478.52832,342.22949a34.32991,34.32991,0,0,1-9.99707,0l-1.09668-12.67969-.61035.24415a124.41506,124.41506,0,0,1-4.02246,12.43554c-5.48633.85352-7.19336.85352-10.48535,0a77.659,77.659,0,0,1-1.21875-14.752,80.1055,80.1055,0,0,1,1.70605-18.166,42.27151,42.27151,0,0,1,13.0459-6.70507v-5.6084a37.23409,37.23409,0,0,0-9.02246,0l-.85352,3.77929H453.292a97.8339,97.8339,0,0,1,2.55957-19.14111,61.25866,61.25866,0,0,1,21.0918,0c1.09766,5.6084,1.46387,14.38623,1.585,24.01807Zm-12.67871-16.8247V311.26221a20.94385,20.94385,0,0,0-3.90137.24414,75.63383,75.63383,0,0,0,.24317,13.89844C463.28906,326.38037,464.38672,326.13623,465.84961,325.40479Z" style="fill:#fff"/><path d="M532.292,290.17041c3.04785,16.09326,2.31641,36.81934-3.77929,51.69336-4.51075,1.585-13.41114,1.585-18.7754.36572a106.36916,106.36916,0,0,1-3.53613-22.311c-.4873-9.50928,0-32.67383,4.14551-42.793,5.48633-2.43848,14.75195-4.38916,20.60449-5.48633l.60938-3.16992h2.68164c-.1211,5.1206-.24317,12.43555-.97461,17.19043-5.73047.48779-10.36328.60937-15.97168,2.19433a72.09452,72.09452,0,0,0-2.80371,12.55762l.97558-.12158a50.27169,50.27169,0,0,1,4.14453-10.11963A31.60259,31.60259,0,0,1,532.292,290.17041Zm-14.26465,15.23975c-.4873,9.99755-.4873,15.72754.85352,23.4082a16.38607,16.38607,0,0,0,2.43848-.12158,88.9826,88.9826,0,0,0,1.09765-24.13965A3.73085,3.73085,0,0,0,518.02734,305.41016Z" style="fill:#fff"/><path d="M588.8584,339.791c-5.6084,3.65771-14.38574,3.65771-27.06543,2.43847v-60.959c8.77832-1.21924,19.01953-1.21924,26.70019,1.21924,2.19434,11.82617,2.07227,22.06738-3.41406,29.50439a8.76159,8.76159,0,0,1,3.04785,1.9502C590.56543,319.79688,590.93164,332.71973,588.8584,339.791Zm-14.62988-45.23145v14.14258h2.19433c1.46289-4.75488,1.46289-8.65625.48731-14.02051A19.71359,19.71359,0,0,0,574.22852,294.55957Zm0,36.20947a11.79553,11.79553,0,0,0,3.53515-.24365,30.07392,30.07392,0,0,0-.24316-13.167,26.04679,26.04679,0,0,1-3.292.24365Z" style="fill:#fff"/><path d="M638.2334,302.3623h-2.68262l-.36523-5.73a16.98267,16.98267,0,0,0-4.999,0l.24414,10.60694v34.99023a55.11469,55.11469,0,0,1-12.67968,0v-60.959c10.36328-1.46289,16.459-1.46289,21.33593,0A106.24845,106.24845,0,0,1,638.2334,302.3623Z" style="fill:#fff"/><path d="M696.02051,348.3252h-3.04785l-.36621-5.36426c-2.07227-.4878-4.99805-.60938-10.11915-.60938-7.43652,0-10.85058.24365-13.53222.73145l-.36621,5.24219H665.541c-.97559-4.63282-1.21875-12.31348-.85352-18.2876l3.04785-.36572c1.09766-13.65479,1.707-28.52881,1.95117-44.62159l-3.41406-.24414V281.7583a36.39114,36.39114,0,0,1,5.85254-.73144,89.05317,89.05317,0,0,1,22.06641.24365v28.041c0,8.16846,0,14.63037-.36524,20.36036l3.04785.36572C697.24023,336.01172,696.99609,343.69238,696.02051,348.3252Zm-14.62989-19.38477V310.165L682,296.02246a17.82273,17.82273,0,0,0-4.38867.12207l-.61035,18.53174a122.29561,122.29561,0,0,1-1.46289,14.38623C677.48926,328.94043,679.43945,328.94043,681.39062,328.94043Z" style="fill:#fff"/><path d="M734.2998,320.28418c.24415,1.95068.36622,3.41406.73145,5.48633a31.2363,31.2363,0,0,0,8.16895-.24365l1.09668-4.38916h2.68261a145.88833,145.88833,0,0,1-1.95117,21.09179c-4.14453,1.21924-9.50879,1.21924-19.75,0a97.81373,97.81373,0,0,1-2.56055-24.38379c0-10.48486,2.19434-26.45605,6.82715-35.23388a31.348,31.348,0,0,1,16.8252-1.09717c2.80371,8.29,2.68164,24.13965.97461,32.186C744.66309,315.77344,740.51758,317.8457,734.2998,320.28418Zm.36622-22.79834c-.36622,4.38867-.48829,8.16846-.61036,13.04492a33.60712,33.60712,0,0,0,3.65821-.36572,95.34462,95.34462,0,0,0,.24316-13.167A10.77761,10.77761,0,0,0,734.666,297.48584Z" style="fill:#fff"/><path d="M786.3623,320.28418c.24415,1.95068.36622,3.41406.73145,5.48633a31.2363,31.2363,0,0,0,8.16895-.24365l1.09668-4.38916H799.042a145.88833,145.88833,0,0,1-1.95117,21.09179c-4.14453,1.21924-9.50879,1.21924-19.75,0a97.81373,97.81373,0,0,1-2.56055-24.38379c0-10.48486,2.19434-26.45605,6.82715-35.23388a31.348,31.348,0,0,1,16.8252-1.09717c2.80371,8.29,2.68164,24.13965.97461,32.186C796.72559,315.77344,792.58008,317.8457,786.3623,320.28418Zm-4.999-41.93945a16.1404,16.1404,0,0,1-.73144-9.26563,19.01243,19.01243,0,0,1,8.291,0,26.469,26.469,0,0,1-.60937,9.26563A22.14715,22.14715,0,0,1,781.36328,278.34473Zm5.36524,19.14111c-.36622,4.38867-.48829,8.16846-.61036,13.04492a33.60712,33.60712,0,0,0,3.65821-.36572,95.34462,95.34462,0,0,0,.24316-13.167A10.77761,10.77761,0,0,0,786.72852,297.48584Zm5.24218-19.14111a26.446,26.446,0,0,1-.60937-9.26563,19.008,19.008,0,0,1,8.29,0,16.14049,16.14049,0,0,1-.73145,9.26563A22.141,22.141,0,0,1,791.9707,278.34473Z" style="fill:#fff"/><path d="M868.65527,306.62939l6.33985,35.6001a65.02793,65.02793,0,0,1-13.77637,0L858.292,316.38281l-1.82812.36573.4873,12.43554v13.04541a55.11477,55.11477,0,0,1-12.67969,0V329.18408l.48829-12.43554-1.82911-.36573-2.92578,25.84668a60.52156,60.52156,0,0,1-13.28906,0l6.0957-33.89306-6.82714-27.06592a41.69732,41.69732,0,0,1,12.31347,0l6.0957,26.57812,1.21973.36573-1.3418-13.89844V281.27051a44.20068,44.20068,0,0,1,12.67969,0v13.04541l-1.34082,13.89844,1.21875-.36573,6.09668-26.57812a40.06928,40.06928,0,0,1,12.06934,0Z" style="fill:#fff"/><path d="M924.36914,340.27881c-5.48633,3.7793-15.11719,3.292-22.43262,2.19433-1.21972-5.73-1.707-15.23974-.36621-20.35986h2.68262l.60937,5.12012a48.205,48.205,0,0,0,8.04688.60986,40.68993,40.68993,0,0,0-.36621-12.19189,26.321,26.321,0,0,1-8.168-.12207,18.96,18.96,0,0,1,.97461-10.3628,50.359,50.359,0,0,1,6.33984.12207,31.27131,31.27131,0,0,0,.48828-10.11914,44.509,44.509,0,0,0-7.31543.24366l-.24414,3.16992h-2.68164c-.97558-4.38916-1.21972-11.7041-.85351-17.67822,5.6084-1.70655,16.82422-.9751,23.042,1.21923,2.43848,10.24121,2.07324,21.21387-4.51074,29.26026a19.76242,19.76242,0,0,1,4.02344,1.585C926.07617,318.3335,926.44141,332.59814,924.36914,340.27881Z" style="fill:#fff"/><path d="M970.93945,281.27051a71.05941,71.05941,0,0,1,16.09278,0v60.959a49.95365,49.95365,0,0,1-12.06934,0V323.4541l1.707-26.45605c-.48828,0-.97558-.12207-1.46387-.12207l-5.36425,45.35351a88.66781,88.66781,0,0,1-16.09278,0v-60.959a40.06928,40.06928,0,0,1,12.06934,0v10.60693L964.1123,326.2583a4.56205,4.56205,0,0,0,1.21875.12207Z" style="fill:#fff"/><path d="M1033.47949,281.27051a71.05941,71.05941,0,0,1,16.09278,0v60.959a49.95365,49.95365,0,0,1-12.06934,0V323.4541l1.70605-26.45605c-.4873,0-.9746-.12207-1.46289-.12207l-5.36425,45.35351a88.66781,88.66781,0,0,1-16.09278,0v-60.959a40.06928,40.06928,0,0,1,12.06934,0v10.60693l-1.70606,34.38086a4.56565,4.56565,0,0,0,1.21875.12207Zm-9.50976-3.29151c-1.34082-3.90136-1.09766-6.70556-.73145-10.36328a42.96,42.96,0,0,1,7.92481,0,50.77509,50.77509,0,0,1,0,6.09619,11.77928,11.77928,0,0,0,2.92578,0,34.34053,34.34053,0,0,1,.12207-6.09619,41.71493,41.71493,0,0,1,7.80273,0c.48731,3.65772.73145,6.46192-.60937,10.36328A52.30739,52.30739,0,0,1,1023.96973,277.979Z" style="fill:#fff"/><path d="M1103.21387,306.75146l6.94922,35.478a65.03716,65.03716,0,0,1-13.77735,0l-3.41308-25.84668-1.95118.36573.48829,12.43554v13.04541a55.11477,55.11477,0,0,1-12.67969,0V282.48975c4.2666-1.82862,8.41211-1.82862,12.67969-1.21924v13.04541l-1.3418,13.89844,1.21973-.36573,6.70507-26.57812a40.07575,40.07575,0,0,1,12.07032,0Z" style="fill:#fff"/><path d="M1163.19434,281.27051v60.71533a37.75836,37.75836,0,0,1-12.80176.24365l.12207-32.06445.4873-14.14258a18.38092,18.38092,0,0,0-3.65722,0l-.97559,26.82227a151.77167,151.77167,0,0,1-1.82812,19.38476,37.74425,37.74425,0,0,1-10.48536,0,122.11383,122.11383,0,0,1,.60938-17.7998l3.292-1.21924.24414-1.585c.97559-11.58252,1.34082-23.77393,1.707-36.5752l-3.90136-.24414V281.7583a51.533,51.533,0,0,1,6.94921-.85351A80.25849,80.25849,0,0,1,1163.19434,281.27051Z" style="fill:#fff"/><path d="M1216.5918,281.27051c5.12011-1.34082,14.50781-1.09717,20.11621,0v60.959a51.94224,51.94224,0,0,1-12.31348,0V317.72412l.97559-19.99463a9.15865,9.15865,0,0,0-1.8291,0l-3.16993,44.25635c-4.75488,1.34082-12.06933,1.34082-15.60547.24365l-3.292-44.37793c-.4873,0-1.09668.12158-1.70605.12158l.97461,19.751v24.50537a23.52629,23.52629,0,0,1-8.29,0v-60.959c4.75488-1.34082,13.6543-1.09717,18.40918,0l2.43847,45.35351a3.37374,3.37374,0,0,0,1.09766-.12207Z" style="fill:#fff"/><path d="M1283.15723,282.48975c4.2666-1.82862,8.41211-1.82862,12.67871-1.21924v60.959a55.10628,55.10628,0,0,1-12.67871,0V318.94336h-4.63282v23.28613a55.11469,55.11469,0,0,1-12.67968,0V282.48975c4.2666-1.82862,8.41211-1.82862,12.67968-1.21924V305.6543h4.63282Z" style="fill:#fff"/><path d="M1350.332,306.62939c0,10.48487-1.21973,24.01807-5.97461,35.23438-4.14453,1.585-12.1914,1.585-17.06836.36572a88.05426,88.05426,0,0,1-3.65722-25.72461c0-10.48486,1.21875-23.4082,5.97363-34.62451,2.92578-1.21924,13.89844-1.21924,17.06836-.36572A83.94864,83.94864,0,0,1,1350.332,306.62939Zm-14.874-8.77783a115.61845,115.61845,0,0,0-.12207,29.748,7.77406,7.77406,0,0,0,2.92578-.48779,116.76459,116.76459,0,0,0,.4873-29.87012A5.17544,5.17544,0,0,0,1335.458,297.85156Z" style="fill:#fff"/><path d="M1407.874,281.27051v60.959a55.11469,55.11469,0,0,1-12.67968,0V295.65674h-4.38868v46.57275a55.11469,55.11469,0,0,1-12.67968,0v-60.959A134.83873,134.83873,0,0,1,1407.874,281.27051Z" style="fill:#fff"/><path d="M1461.75977,340.15674c-1.707,1.21924-5.6084,2.43847-12.06934,2.68213v8.53467a55.171,55.171,0,0,1-12.67969,0V282.48975c3.7793-1.82862,7.43653-1.82862,11.21582-1.21924l-.12109,11.46045,1.09668-.36573a107.59193,107.59193,0,0,1,3.6582-11.09472,30.49142,30.49142,0,0,1,12.43555,0C1467.73438,294.31592,1466.39258,326.13623,1461.75977,340.15674Zm-12.06934-12.06983a23.66711,23.66711,0,0,0,4.14453-.24365c.36621-8.65625.48828-21.57959,0-28.89453a3.67325,3.67325,0,0,0-4.14453.36572Z" style="fill:#fff"/><path d="M1511.13281,321.1377h2.68262c-.24414,6.33984-1.09766,15.23974-2.56055,21.09179-4.998,1.21924-7.80273,1.21924-15.9707,0-1.95117-8.65625-2.43848-14.752-2.43848-24.50537,0-10.48486,2.68164-26.57812,8.41211-35.35644a19.95459,19.95459,0,0,1,12.92285-.853,119.2873,119.2873,0,0,1-2.55957,23.16406h-2.68261v-5.73a11.01572,11.01572,0,0,0-3.53516-.24365,100.19725,100.19725,0,0,0-.24414,26.334,17.21554,17.21554,0,0,0,5.12012-.12207Z" style="fill:#fff"/><path d="M1566.23828,301.14307h-2.68262l-.36523-4.51075a28.26093,28.26093,0,0,0-3.90137-.48779l.36524,11.09473v34.99023a55.11477,55.11477,0,0,1-12.67969,0V307.23926l.36621-11.09473a28.26093,28.26093,0,0,0-3.90137.48779l-.36621,4.51075h-2.68164a93.9781,93.9781,0,0,1-.85351-19.87256,87.04483,87.04483,0,0,1,27.55371,0A94.10794,94.10794,0,0,1,1566.23828,301.14307Z" style="fill:#fff"/><path d="M1611.10156,282.48975c4.2666-1.82862,8.41211-1.82862,12.67969-1.21924v35.96582c0,10.60693-.73145,24.50537-2.43848,30.47949-11.33886,4.51074-19.50683,4.51074-23.89648,3.65772a112.47435,112.47435,0,0,1-1.34082-14.63038h2.68262l.4873,2.31641a26.02992,26.02992,0,0,0,10.72852-1.21924l1.21972-6.58349,1.09668-7.437-1.09668.24414c-1.21972,3.53565-2.3164,6.94922-4.38965,9.99708a23.2709,23.2709,0,0,1-10.85058,0,106.97533,106.97533,0,0,1-1.82813-19.62891V282.48975c4.26661-1.82862,8.41211-1.82862,12.67871-1.21924v35.96582c1.707.73144,3.53614.60937,4.26758-1.34082Zm-5.6084,33.89306.60938.36573Z" style="fill:#fff"/><path d="M489.13574,443.459a64.28682,64.28682,0,0,1-9.7539,1.21924v8.29053a55.16254,55.16254,0,0,1-12.67872,0v-8.29053a62.55171,62.55171,0,0,1-12.07031-.85351c-5.6084-19.75049-4.877-43.52442,2.31641-60.34912a53.63686,53.63686,0,0,1,9.7539-.97559v-7.55859c4.26661-1.82911,8.41211-1.82911,12.67872-1.21924V382.5a63.78208,63.78208,0,0,1,12.07031.60986C497.06055,402.86035,496.3291,426.63428,489.13574,443.459Zm-22.43262-12.43554V396.52051a8.28631,8.28631,0,0,0-2.3164.36572,118.55989,118.55989,0,0,0-.24414,34.13721Zm15.36133-34.25879a7.10388,7.10388,0,0,0-2.68261-.36572V430.7793a15.06645,15.06645,0,0,0,2.19531-.24366A116.28611,116.28611,0,0,0,482.06445,396.76465Z" style="fill:#fff"/><path d="M543.26465,411.27246l9.38769,32.55225a73.323,73.323,0,0,1-14.63086,0l-3.04785-19.62891h-.73144l-3.04785,19.62891a34.33061,34.33061,0,0,1-9.99707,0L529,413.58887l-8.90039-30.479a54.06982,54.06982,0,0,1,15.3623-.24414l2.43848,19.019h.85352l2.68164-19.019a23.90891,23.90891,0,0,1,9.7539.12207Z" style="fill:#fff"/><path d="M606.90137,382.86572v60.959a55.10741,55.10741,0,0,1-12.67871,0V423.58643a25.31581,25.31581,0,0,1-12.31446.48779c-2.68164-5.6084-4.2666-11.58252-4.2666-20.84815V384.085c3.90137-1.82861,8.0459-1.82861,12.67871-1.21924v27.30957a8.40187,8.40187,0,0,0,3.90235.12207V384.085C598.48926,382.25635,602.63477,382.25635,606.90137,382.86572Z" style="fill:#fff"/><path d="M667.376,449.92041h-3.04786l-.48828-5.97363a123.32284,123.32284,0,0,1-26.82129,0l-.85351-.12207V384.085c4.2666-1.82861,8.41211-1.82861,12.67969-1.21924v48.40137h4.02246V384.085c4.26758-1.82861,8.41308-1.82861,12.67969-1.21924v28.041c0,7.68115-.12208,13.89892-.48731,19.38525a29.98563,29.98563,0,0,0,3.16992-.24414C668.59473,436.75342,668.35156,444.92188,667.376,449.92041Z" style="fill:#fff"/><path d="M729.30762,384.085c4.2666-1.707,8.41211-1.707,12.67871-1.21924v60.959a326.44151,326.44151,0,0,1-46.32813,0V384.085c4.2666-1.707,8.41211-1.707,12.67969-1.21924v48.15772c1.34082.12207,2.80371.12207,4.14453.12207V384.085c4.26758-1.707,8.41309-1.707,12.67969-1.21924v48.27979c1.34082,0,2.80371,0,4.14551-.12207Z" style="fill:#fff"/><path d="M819.40234,449.92041h-3.04785l-.4873-5.97363h-.97559a15.57782,15.57782,0,0,1-3.53613.24365,314.40484,314.40484,0,0,1-40.11035-.36572V384.085c4.2666-1.707,8.41211-1.707,12.67968-1.21924v48.15772c1.34082.12207,2.80372.12207,4.14454.12207V384.085c4.26757-1.707,8.41308-1.707,12.67968-1.21924v48.27979c1.34082,0,2.80371,0,4.14551-.12207V384.085c4.2666-1.82861,8.41211-1.82861,12.67969-1.21924v28.041c0,7.68115-.12207,13.89892-.48828,19.38525a29.986,29.986,0,0,0,3.16992-.24414C820.62207,436.75342,820.37793,444.92188,819.40234,449.92041Z" style="fill:#fff"/><path d="M872.55664,442.36182c-6.82715,2.3164-12.19141,2.3164-24.87109,1.46289V384.085c4.2666-1.82861,8.41211-1.82861,12.67968-1.21924V397.0083l-.24414,5.97412a50.2279,50.2279,0,0,1,14.752.73145C876.70215,413.22314,875.84863,433.0957,872.55664,442.36182Zm-12.19141-9.99756a29.77817,29.77817,0,0,0,3.291-.12158,83.80437,83.80437,0,0,0,.48828-16.58106,37.03231,37.03231,0,0,0-3.7793-.24365Z" style="fill:#fff"/><path d="M932.05176,442.36182c-6.82813,2.3164-12.19238,2.3164-24.8711,1.46289V408.95605l.36524-11.09423a12.24518,12.24518,0,0,0-2.43848.48779l-.36523,4.38867h-2.68262a94.04259,94.04259,0,0,1-.85352-19.87256c3.65821-.9751,9.99707-1.46289,18.65333,0V397.0083l-.24317,5.97412a50.22783,50.22783,0,0,1,14.75195.73145C936.19629,413.22314,935.34277,433.0957,932.05176,442.36182Zm-12.19238-9.99756a29.78693,29.78693,0,0,0,3.292-.12158,83.80469,83.80469,0,0,0,.4873-16.58106,36.99556,36.99556,0,0,0-3.77929-.24365Z" style="fill:#fff"/><path d="M974.96484,402.98242a50.2279,50.2279,0,0,1,14.752.73145c1.8291,9.50927.97558,29.38183-2.31641,38.648-6.82715,2.3164-12.19141,2.3164-24.87109,1.46289V384.085c4.2666-1.82861,8.41211-1.82861,12.67968-1.21924V397.0083Zm.24414,29.38184a29.77817,29.77817,0,0,0,3.291-.12158,83.80437,83.80437,0,0,0,.48828-16.58106,37.03231,37.03231,0,0,0-3.7793-.24365Zm17.4336-48.2793c4.26758-1.82861,8.41211-1.82861,12.67969-1.21924v60.959a55.1159,55.1159,0,0,1-12.67969,0Z" style="fill:#fff"/><path d="M1048.96582,443.21533c-6.21777,1.46289-11.09375,1.82862-13.41016.853a54.19356,54.19356,0,0,1-1.21972-15.97119,34.18616,34.18616,0,0,0,8.291.85351c.36524-3.16992.48731-6.0957.73145-9.022a19.75168,19.75168,0,0,1-7.07129-.12158,22.568,22.568,0,0,1,.97461-11.33838,23.3527,23.3527,0,0,1,6.09668.24365,79.07889,79.07889,0,0,0-.61035-9.38769,17.33879,17.33879,0,0,0-5.12012,0l-.97559,3.90136H1034.458c-.48731-5.97412-.60938-14.26416.85351-19.87255,6.21778-1.21924,9.02149-1.21924,17.55567,0C1056.89062,402.98242,1055.42773,429.68213,1048.96582,443.21533Z" style="fill:#fff"/><path d="M1125.041,408.22461c0,10.48486-1.21973,24.01807-5.97461,35.23437-4.14453,1.585-11.94727,1.585-16.82422.36573a89.06431,89.06431,0,0,1-3.65723-22.79883c-.97558,0-2.07324-.12158-3.04785-.12158v22.92041a55.1159,55.1159,0,0,1-12.67969,0V384.085c4.2666-1.82861,8.41211-1.82861,12.67969-1.21924v24.74951c1.09668,0,2.31641.12207,3.41309.12207a108.9956,108.9956,0,0,1,4.38964-24.26171c4.14454-1.21924,14.874-1.21924,18.043-.36573A83.94834,83.94834,0,0,1,1125.041,408.22461Zm-11.582-9.3877a4.61842,4.61842,0,0,0-3.04785.60987,115.59018,115.59018,0,0,0-.12207,29.74756,9.497,9.497,0,0,0,2.68164-.36573A117.844,117.844,0,0,0,1113.459,398.83691Z" style="fill:#fff"/><path d="M1180.38965,382.86572v60.959a53.02919,53.02919,0,0,1-12.43653,0V421.02588a11.99363,11.99363,0,0,1-2.07226.24414l-2.31641,22.55469a59.41935,59.41935,0,0,1-13.167,0l5.12012-25.84668c-5.72949-9.875-4.14453-24.99317,0-34.25879,4.999-1.34131,10.60742-2.43848,24.75-.85352Zm-12.43653,28.041V396.27686a25.07179,25.07179,0,0,0-4.2666.24365,40.30539,40.30539,0,0,0,1.585,15.11816A5.215,5.215,0,0,0,1167.95312,410.90674Z" style="fill:#fff"/><path d="M472.18945,552.88379h-2.68261l-.48731-5.73047a32.204,32.204,0,0,0-4.87695-.12158l.36523,13.53271v40.11133a39.26738,39.26738,0,0,1-11.94726,0V530.69434h.12207v-.12159c9.875-1.09716,17.06836-1.09716,20.35937,0C473.4082,538.13135,473.16406,547.27539,472.18945,552.88379Zm-15.24023-24.01807a6.81215,6.81215,0,0,1-.85352-4.02343c3.7793-2.07227,7.68067-4.26709,10.85059-6.46143,2.56055,2.19434,3.7793,4.75488,3.90137,8.77832C466.58105,527.89062,461.82617,528.37793,456.94922,528.86572Z" style="fill:#fff"/><path d="M519.125,524.11084a100.85461,100.85461,0,0,1,.12109,23.16455,29.95437,29.95437,0,0,0-7.31445-.24365l.36524,13.53271v40.11133a39.26745,39.26745,0,0,1-11.94727,0V530.69434h.12207v-.12159a79.60228,79.60228,0,0,1,15.23926-.73144l.60937-5.73047Z" style="fill:#fff"/><path d="M569.83984,580.43652a97.48757,97.48757,0,0,1,.85352,19.87305c-3.41309,1.21875-13.28906.85352-23.77344-.12207V530.207h.12207c10.48438-1.09765,20.35938-1.34131,23.16406,0,.36524,6.0957.12207,14.75195-.85351,19.87256h-2.68262l-.36523-4.63281a25.28515,25.28515,0,0,0-7.4375,0l.24414,8.65576v3.77978a24.52662,24.52662,0,0,1,6.70508-.48779,57.36975,57.36975,0,0,1-.36524,13.65479,55.15333,55.15333,0,0,1-6.33984-.24366v5.12012l-.24414,9.14453a42.93062,42.93062,0,0,0,7.9248,0l.36621-4.63379Zm-4.876-51.5708c-4.877-.48779-9.63184-.9751-13.89942-1.70654.12207-4.02344,1.3418-6.584,3.90137-8.77832,3.16992,2.19434,7.07129,4.38916,10.85059,6.46143A6.81233,6.81233,0,0,1,564.96387,528.86572Z" style="fill:#fff"/><path d="M615.67871,530.207c4.51074-1.09765,12.43555-1.09765,16.94629.24365v69.85889a47.73262,47.73262,0,0,1-11.82617,0V580.31543l1.707-32.918c-.48731,0-.97559-.12207-1.46289-.12207l-5.85254,53.03418c-4.51074,1.09766-12.19141,1.09766-16.70215-.24414V530.207a38.22416,38.22416,0,0,1,11.82617,0v20.96973l-1.707,31.94238a4.993,4.993,0,0,0,1.34082.12207Zm5.85156-1.34131c-4.87695-.48779-9.63086-.9751-13.89843-1.70654.12207-4.02344,1.34082-6.584,3.90136-8.77832,3.16992,2.19434,7.07129,4.38916,10.85059,6.46143A6.81215,6.81215,0,0,1,621.53027,528.86572Z" style="fill:#fff"/><path d="M687.12012,561.418l7.9248,38.8916a68.58977,68.58977,0,0,1-14.14258,0l-4.75488-30.72314-1.8291.36572.60937,14.26465v16.09277a57.299,57.299,0,0,1-12.92285,0V530.207a45.8676,45.8676,0,0,1,12.92285,0v17.67774l-.85351,11.82617,1.3418-.36573,6.583-29.13818a42.2647,42.2647,0,0,1,12.43555,0ZM672.002,528.86572a6.81223,6.81223,0,0,1-.85351-4.02343c3.77929-2.07227,7.68066-4.26709,10.85058-6.46143,2.56055,2.19434,3.7793,4.75488,3.90137,8.77832C681.63379,527.89062,676.87891,528.37793,672.002,528.86572Z" style="fill:#fff"/><path d="M737.46875,530.207a36.88832,36.88832,0,0,1,11.582,0l-2.80371,30.84522c-1.95019,21.57959-4.02344,33.16162-6.70508,37.063-7.4375,3.04786-11.94824,3.04786-16.70312,2.19434-1.8291-5.24219-2.56055-14.38672-1.21875-19.14062h2.68164l.73144,5.72949a39.18179,39.18179,0,0,0,4.26758-.73145c-2.3164-5.73047-4.38965-11.21582-5.24219-17.19043L718.57227,530.207a42.93555,42.93555,0,0,1,12.55664,0l2.68261,37.063,1.21875,12.6792a7.23664,7.23664,0,0,0,.97559-.48731l.12207-16.94677Zm-11.7041-3.292c-1.34082-3.90137-1.09668-6.70557-.73145-10.36279a42.87412,42.87412,0,0,1,7.92481,0,50.767,50.767,0,0,1,0,6.0957,11.73332,11.73332,0,0,0,2.92578,0,34.33424,34.33424,0,0,1,.12207-6.0957,41.63139,41.63139,0,0,1,7.80273,0c.48829,3.65722.73145,6.46142-.60937,10.36279A52.282,52.282,0,0,1,725.76465,526.915Z" style="fill:#fff"/><path d="M806.35059,600.30957a99.29056,99.29056,0,0,1-11.82618,1.09766c1.3418,3.77929,1.46289,8.41211.73145,10.24023a9.9451,9.9451,0,0,1-7.92383,0c-.73242-1.82812-.61035-6.46094.73145-10.24023a99.29056,99.29056,0,0,1-11.82618-1.09766V530.207a55.10749,55.10749,0,0,1,12.67872,0V586.5332a31.16141,31.16141,0,0,0,4.75488,0V530.207a55.1159,55.1159,0,0,1,12.67969,0Z" style="fill:#fff"/><path d="M876.32812,599.94336c-4.26757.97559-12.19238,1.09766-18.166.85352-1.707-.1211-3.53516-.24317-5.36426-.48731V561.418l.36621-17.06885a26.673,26.673,0,0,0-4.38965.36572l-.73144,36.69727a101.55311,101.55311,0,0,1-1.8291,18.53125,18.71739,18.71739,0,0,1-11.8252.24414c-1.21972-6.46191-.97558-17.3125-.12207-23.042h2.68164l.36621,6.46094a2.84055,2.84055,0,0,0,1.707-.1211c.48731-3.6582.73145-8.16894,1.09668-15.11816.97559-19.01905,1.3418-27.55371,1.21973-34.38086l-4.38965-.24365v-2.68213a84.76083,84.76083,0,0,1,10.24121-1.34131,81.30459,81.30459,0,0,1,18.28809.48779v17.79981l-.48828,9.75341a48.1972,48.1972,0,0,1,13.89941.36573C882.05859,572.87793,880.83887,590.06836,876.32812,599.94336Zm-10.85058-10.85059c.97558,0,2.07226-.12109,3.04785-.12109a90.44572,90.44572,0,0,0,.36523-19.87305,16.257,16.257,0,0,0-3.41308-.36572Z" style="fill:#fff"/><path d="M951.18262,600.30957c-4.2666.97559-12.19141,1.09766-18.166.85352-1.70605-.12207-3.53515-.24414-5.36426-.48731V569.34229l-6.0957.36572v30.60156a57.299,57.299,0,0,1-12.92285,0V530.207a45.8676,45.8676,0,0,1,12.92285,0v28.40674c2.07227-.24365,4.14551-.48779,6.0957-.60986V530.207a44.16625,44.16625,0,0,1,12.67969,0v17.79981l-.4873,9.38769a134.39771,134.39771,0,0,1,13.89843.73145C956.91309,573,955.69336,590.43457,951.18262,600.30957ZM940.332,569.46436V589.459c.97559,0,2.07227-.12207,3.04785-.12207a93.96652,93.96652,0,0,0,.48828-19.38476A35.146,35.146,0,0,0,940.332,569.46436Z" style="fill:#fff"/><path d="M1001.53125,562.02734a25.2066,25.2066,0,0,1,5.60742,15.97168c0,9.26563-3.65722,15.97071-6.94922,21.335a37.99751,37.99751,0,0,1-17.19043.97559c-1.21875-6.33984-1.70605-17.06836-.36523-22.79883h2.68164l.61035,5.73047c1.585.36524,3.65723.48731,8.53418,0,.48731-6.70605-.61035-10.11914-5.36426-15.84961a26.8953,26.8953,0,0,1-6.21875-16.82422c0-6.70556,3.41407-14.38672,7.4375-18.77539a30.95639,30.95639,0,0,1,16.94629-2.19482,115.55,115.55,0,0,1-2.55957,22.79883l-2.68262.60937V546.666c-1.585-.36622-3.53613-.4878-8.4121,0C993.48438,552.76172,996.28809,555.44385,1001.53125,562.02734Z" style="fill:#fff"/><path d="M1053.71,578.73047h2.68164c-.24316,5.60742-1.09668,14.02051-4.998,21.5791-2.3164,1.21875-7.55957,1.21875-15.48339,0-1.95118-8.65625-2.43848-14.75195-2.43848-24.50586,0-10.60644,2.43848-33.89258,6.94922-44.01172,6.70508-2.3164,12.43555-3.04834,17.55566-2.19482A86.40681,86.40681,0,0,1,1055.417,550.811h-2.68261v-3.65772a20.536,20.536,0,0,0-5.73047-.24365,97.44469,97.44469,0,0,0-1.21875,11.46045c2.68261-1.09766,5.36425-.97559,8.168-.97559a57.36921,57.36921,0,0,1-.36523,13.65479,46.621,46.621,0,0,1-8.16894-.4878c.12207,4.75489.36621,9.26563.85351,13.28907a47.85923,47.85923,0,0,0,5.97461,0Z" style="fill:#fff"/><path d="M1085.28516,530.207a45.8676,45.8676,0,0,1,12.92285,0v70.10254a57.299,57.299,0,0,1-12.92285,0Z" style="fill:#fff"/><path d="M1125.39551,519.96582a18.47347,18.47347,0,0,1,8.168,0,21.86282,21.86282,0,0,1-.60938,8.41211,22.14089,22.14089,0,0,1-6.94922,0A14.23688,14.23688,0,0,1,1125.39551,519.96582Zm2.19433,10.24121a45.86767,45.86767,0,0,1,12.92286,0v70.10254a57.29913,57.29913,0,0,1-12.92286,0Zm8.168-10.24121a18.47784,18.47784,0,0,1,8.16895,0,14.25243,14.25243,0,0,1-.60938,8.41211,22.14709,22.14709,0,0,1-6.95019,0A21.882,21.882,0,0,1,1135.75781,519.96582Z" style="fill:#fff"/><path d="M1176.23242,530.207a37.66515,37.66515,0,0,1,11.7041,0v45.59668c0,9.75391-.48828,15.84961-2.43847,24.50586-7.80274,1.21875-11.82617,1.21875-15.24024,0a113.54322,113.54322,0,0,1-2.19433-23.53027h2.68261l.85352,3.77929c1.584.36621,2.4375.36621,5.60742-.12207l-.97461-16.21484Z" style="fill:#fff"/><path d="M1252.55176,579.94922v20.36035c-2.68262.60938-7.55957.60938-12.92383,0V571.04932c-1.70605,0-3.291.12207-4.75488.24365v29.0166a51.01639,51.01639,0,0,1-12.19141,0v-38.648l.24414-15.36182a36.475,36.475,0,0,0-4.51074.4878l-.36621,5.73h-2.68262c-.97461-5.60791-1.21875-14.752-.85254-22.31055a98.05524,98.05524,0,0,1,29.25977,0c.36621,7.55859.12207,16.70264-.85352,22.31055h-2.68164l-.36621-5.60791a25.77229,25.77229,0,0,0-5.24219-.60987l.12207,10.85108a58.65746,58.65746,0,0,1,13.89844-.24414A64.58346,64.58346,0,0,1,1252.55176,579.94922Z" style="fill:#fff"/><path d="M1317.043,579.94922v1.707l-1.707,17.92187-8.29,4.26661-1.46289,3.04882-3.292-.36621,2.19433-22.43261V571.04932c-1.70605,0-3.291.12207-4.75488.24365v29.0166a51.01639,51.01639,0,0,1-12.19141,0v-38.648l.24414-15.36182a36.475,36.475,0,0,0-4.51074.4878l-.36621,5.73h-2.68262c-.97461-5.60791-1.21875-14.752-.85254-22.31055a98.05524,98.05524,0,0,1,29.25977,0c.36621,7.55859.12207,16.70264-.85352,22.31055h-2.68164l-.36621-5.60791a25.77229,25.77229,0,0,0-5.24219-.60987l.12208,10.85108a55.49107,55.49107,0,0,1,13.53222-.24414A64.56171,64.56171,0,0,1,1317.043,579.94922Z" style="fill:#fff"/><path d="M472.9209,662.03809h-2.68262l-.36523-5.73047a17.01582,17.01582,0,0,0-4.999,0l.24414,10.60742v34.99023a55.16974,55.16974,0,0,1-12.67968,0v-60.959c10.36328-1.46289,16.459-1.46289,21.33593,0A106.25023,106.25023,0,0,1,472.9209,662.03809Zm-15.72754-25.96875a128.56723,128.56723,0,0,0,10.24121-9.02149c3.04785,1.46289,4.876,3.53516,5.97363,7.5586-4.02343,1.707-8.53418,3.292-13.167,4.87695A4.5625,4.5625,0,0,1,457.19336,636.06934Z" style="fill:#fff"/><path d="M520.10156,635.09473a95.6195,95.6195,0,0,1,.1211,22.55468,41.2151,41.2151,0,0,0-6.46094-.36621l.12207,9.63184v34.99023a55.16983,55.16983,0,0,1-12.67969,0v-60.959c.48731-.12207,1.09668-.12207,1.585-.24414a64.84349,64.84349,0,0,1,14.26465-.36524l.36524-5.24218Z" style="fill:#fff"/><path d="M558.01465,679.96c.24414,1.95117.36621,3.41406.73144,5.48633a31.21678,31.21678,0,0,0,8.16895-.24414l1.09668-4.38867h2.68262a145.8884,145.8884,0,0,1-1.95118,21.09179c-4.14453,1.21875-9.50878,1.21875-19.75,0a97.81374,97.81374,0,0,1-2.56054-24.38379c0-10.48437,2.19433-26.45605,6.82715-35.23437a31.3522,31.3522,0,0,1,16.82519-1.09668c2.80371,8.29,2.68164,24.13965.97461,32.18652C568.37793,675.44922,564.23242,677.52148,558.01465,679.96Zm7.31543-40.47656c-4.63281-1.585-9.14453-3.16992-13.167-4.87695,1.09668-4.02344,2.92578-6.09571,5.97363-7.5586a128.22479,128.22479,0,0,0,10.24121,9.02149A4.56426,4.56426,0,0,1,565.33008,639.4834Zm-6.94922,17.67773c-.36621,4.38965-.48828,8.16895-.61035,13.0459a33.72687,33.72687,0,0,0,3.6582-.36621,95.34307,95.34307,0,0,0,.24317-13.167A10.79148,10.79148,0,0,0,558.38086,657.16113Z" style="fill:#fff"/><path d="M617.02148,640.94629a71.05941,71.05941,0,0,1,16.09278,0v60.959a50.00352,50.00352,0,0,1-12.06934,0V683.12988l1.707-26.45605c-.48828,0-.97558-.12207-1.46386-.12207l-5.36426,45.35351a88.7566,88.7566,0,0,1-16.09278,0v-60.959a40.06928,40.06928,0,0,1,12.06934,0v10.60742l-1.70605,34.37988a4.562,4.562,0,0,0,1.21875.12207Zm2.68164-1.46289c-4.63281-1.585-9.14355-3.16992-13.167-4.87695,1.09766-4.02344,2.92676-6.09571,5.97461-7.5586a128.22479,128.22479,0,0,0,10.24121,9.02149A4.56545,4.56545,0,0,1,619.70312,639.4834Z" style="fill:#fff"/><path d="M686.75586,666.42676l6.94922,35.47851a65.10219,65.10219,0,0,1-13.77735,0l-3.41308-25.84668-1.95117.36621.48828,12.43555v13.04492a55.16983,55.16983,0,0,1-12.67969,0V642.166c4.2666-1.82911,8.41211-1.82911,12.67969-1.21973v13.04492L673.71,667.89062l1.21973-.36621,6.70508-26.57812a40.07568,40.07568,0,0,1,12.07031,0Zm-14.75195-30.35742a128.37593,128.37593,0,0,0,10.24023-9.02149c3.04883,1.46289,4.87695,3.53516,5.97461,7.5586-4.02344,1.707-8.53418,3.292-13.167,4.87695A4.5625,4.5625,0,0,1,672.00391,636.06934Z" style="fill:#fff"/><path d="M735.76367,642.166c4.2666-1.82911,8.41211-1.82911,12.67969-1.21973v35.96582c0,10.60644-.73145,24.50586-2.43848,30.47949-11.33886,4.51074-19.50683,4.51074-23.89648,3.65723a112.47449,112.47449,0,0,1-1.34082-14.62988h2.68262l.4873,2.3164A26.0299,26.0299,0,0,0,734.666,697.5166l1.21972-6.584,1.09668-7.43653-1.09668.24317c-1.21972,3.53613-2.3164,6.94922-4.38965,9.99707a23.2709,23.2709,0,0,1-10.85058,0,106.9687,106.9687,0,0,1-1.82813-19.62793V642.166c4.2666-1.82911,8.41211-1.82911,12.67871-1.21973v35.96582c1.707.73144,3.53614.60937,4.26758-1.34082Zm-10.60644-4.51172c-1.3418-3.90137-1.09766-6.70508-.73243-10.36231a42.87412,42.87412,0,0,1,7.92481,0,50.76729,50.76729,0,0,1,0,6.09571,11.74115,11.74115,0,0,0,2.92676,0,34.42252,34.42252,0,0,1,.12109-6.09571,41.63131,41.63131,0,0,1,7.80274,0c.48828,3.65723.73144,6.46094-.60938,10.36231A52.27611,52.27611,0,0,1,725.15723,637.6543Zm4.998,38.40429.60938.36621Z" style="fill:#fff"/><path d="M794.15918,642.166c4.26758-1.707,8.41309-1.707,12.67969-1.21973v60.959c-3.90137.36621-7.68067.73145-11.46.73145,1.46289,3.90137,1.585,8.77832.85351,10.60644a9.94743,9.94743,0,0,1-7.9248,0c-.73145-1.82812-.60938-6.70507.85351-10.60644a94.34258,94.34258,0,0,1-11.7041-.73145V642.166c4.2666-1.707,8.41211-1.707,12.67969-1.21973v46.57226h4.02246Z" style="fill:#fff"/><path d="M875.59766,700.44238c-6.82715,2.31641-12.19141,2.31641-24.8711,1.46289V669.84082l.48828-14.14258a18.3173,18.3173,0,0,0-3.6582,0l-.97559,26.82227a151.77845,151.77845,0,0,1-1.82812,19.38476,37.78176,37.78176,0,0,1-10.48535,0,122.11352,122.11352,0,0,1,.60937-17.7998l3.292-1.21973.24414-1.585c.97558-11.582,1.34082-23.77344,1.707-36.57519l-3.90137-.24317v-3.04883a51.46691,51.46691,0,0,1,6.94922-.85254,80.23609,80.23609,0,0,1,20.23828.36524v14.14258l-.48828,5.97363a51.93581,51.93581,0,0,1,14.99609.73145C879.74316,671.30371,878.88965,691.17676,875.59766,700.44238Zm-12.19141-9.99707a29.68547,29.68547,0,0,0,3.292-.12207,83.87836,83.87836,0,0,0,.48731-16.58105,36.871,36.871,0,0,0-3.7793-.24414Z" style="fill:#fff"/><path d="M948.13574,700.44238c-6.82715,2.31641-12.19238,2.31641-24.87109,1.46289V675.44922c-1.585.12207-3.16992.12207-4.63281.24414v26.21191a55.16983,55.16983,0,0,1-12.67969,0V642.166c4.2666-1.82911,8.41211-1.82911,12.67969-1.21973v22.67676c1.46289-.24414,3.04785-.36524,4.63281-.48731V642.166c4.2666-1.82911,8.41211-1.82911,12.67871-1.21973v14.14258l-.36524,7.55859c4.99805.12207,9.99708.36621,14.874.97559C952.28125,672.64453,951.42773,691.66406,948.13574,700.44238Zm-12.19238-9.99707a29.66794,29.66794,0,0,0,3.292-.12207,82.97575,82.97575,0,0,0,.60938-14.62988c-1.21875-.12207-2.55957-.12207-3.90137-.24414Z" style="fill:#fff"/><path d="M1001.5332,684.4707c0,5.97461-2.4375,11.82618-4.998,16.58106-7.68067,1.707-12.92383,1.8291-18.41016.97558a118.33406,118.33406,0,0,1,.12207-22.79882h2.68262l.85351,6.584a19.11139,19.11139,0,0,0,7.92481-.24414c-.24414-4.999-2.19531-7.31543-5.24317-10.11914-3.90136-3.65723-6.82714-6.94922-6.82714-13.89844a34.85188,34.85188,0,0,1,5.12109-18.28808c4.75391-2.31641,13.6543-3.65723,19.38476-2.19434a127.16849,127.16849,0,0,1-2.56054,24.01758h-2.68262v-5.85156a33.71974,33.71974,0,0,0-7.80273.12207c.12207,4.02246,1.585,5.72949,5.48632,9.63085C999.2168,673.49805,1001.5332,678.375,1001.5332,684.4707Z" style="fill:#fff"/><path d="M1046.39746,683.00781h2.68262c-.24414,5.73047-1.09766,13.65528-2.56055,18.89746-4.998,1.21875-7.80273,1.21875-15.9707,0-1.95117-8.65625-2.43848-14.75195-2.43848-24.50586,0-10.48437,2.68164-26.57812,8.41211-35.35546a19.95169,19.95169,0,0,1,12.92285-.85352,96.44057,96.44057,0,0,1-2.55957,20.72559h-2.68262v-3.41309a8.04077,8.04077,0,0,0-3.53515-.12207c-.36621,2.68164-.73145,5.48633-.85352,8.29a19.8008,19.8008,0,0,1,7.07129.12207,22.57789,22.57789,0,0,1-.97558,11.33789,23.66162,23.66162,0,0,1-6.09571-.24316,75.14515,75.14515,0,0,0,.85352,9.02148,15.71688,15.71688,0,0,0,4.876-.12207Z" style="fill:#fff"/><path d="M1075.28906,626.92578a38.16161,38.16161,0,0,1,14.874,0,53.858,53.858,0,0,1-2.07227,13.77637,52.52127,52.52127,0,0,1-10.72852,0A53.85967,53.85967,0,0,1,1075.28906,626.92578Zm1.09766,17.06836a44.2014,44.2014,0,0,1,12.67969,0v57.91113a55.16983,55.16983,0,0,1-12.67969,0Z" style="fill:#fff"/><path d="M1116.74023,628.75488a13.90248,13.90248,0,0,1,7.07129,0,26.46978,26.46978,0,0,1-.60937,9.26563,15.11841,15.11841,0,0,1-5.73047,0A16.1408,16.1408,0,0,1,1116.74023,628.75488Zm1.585,12.19141a44.20061,44.20061,0,0,1,12.67968,0v60.959a55.16974,55.16974,0,0,1-12.67968,0Zm7.19335-12.19141a13.90245,13.90245,0,0,1,7.07129,0,16.14072,16.14072,0,0,1-.73144,9.26563,15.12217,15.12217,0,0,1-5.73047,0A26.44652,26.44652,0,0,1,1125.51855,628.75488Z" style="fill:#fff"/><path d="M1172.82129,643.99414v42.915l-.48828,17.92187-9.26563,4.26758-1.46289,3.04785-3.04785-.36621,1.585-22.43261V643.99414A44.2014,44.2014,0,0,1,1172.82129,643.99414Zm-11.7041-3.292a53.90219,53.90219,0,0,1-2.07324-13.77637,38.16156,38.16156,0,0,1,14.874,0,53.858,53.858,0,0,1-2.07227,13.77637A52.52117,52.52117,0,0,1,1161.11719,640.70215Z" style="fill:#fff"/><path d="M1232.19336,661.55078v40.35449a55.16983,55.16983,0,0,1-12.67969,0V661.42871a2.885,2.885,0,0,0-4.876,1.09668v39.37988a55.16983,55.16983,0,0,1-12.67969,0V641.3125l-2.31641-.36621a12.11581,12.11581,0,0,1,.36524-5.85156c.61035-.12207,1.34179-.12207,1.95117-.24414v-1.82911c4.2666-1.82812,8.53418-1.82812,12.80078-1.21875v2.92579c1.21973.12207,2.43848.12207,3.78027.24414a17.56132,17.56132,0,0,1-.61035,6.46093c-.97461,0-2.07226.12207-3.16992.12207v1.585l-1.34082,11.46094,1.09765-.48828a105.0637,105.0637,0,0,1,3.65723-10.97266,30.51751,30.51751,0,0,1,12.43555,0A93.8841,93.8841,0,0,1,1232.19336,661.55078Z" style="fill:#fff"/><path d="M1291.32129,661.55078v25.3584l-.48731,17.92187-9.26562,4.26758-1.46289,3.04785-3.04883-.36621,1.585-22.43261V661.42871a2.885,2.885,0,0,0-4.876,1.09668v39.37988a55.16974,55.16974,0,0,1-12.67968,0V641.3125l-2.31641-.36621a12.11581,12.11581,0,0,1,.36524-5.85156c.61035-.12207,1.34179-.12207,1.95117-.24414v-1.82911c4.2666-1.82812,8.53418-1.82812,12.80078-1.21875v2.92579c1.21973.12207,2.43848.12207,3.78027.24414a17.56132,17.56132,0,0,1-.61035,6.46093c-.97461,0-2.07226.12207-3.16992.12207v1.585l-1.34082,11.46094,1.09765-.48828a105.0637,105.0637,0,0,1,3.65723-10.97266,30.51751,30.51751,0,0,1,12.43555,0A93.8841,93.8841,0,0,1,1291.32129,661.55078Z" style="fill:#fff"/><path d="M485.72189,810.32849H482.552l-.36575-6.2178a98.08345,98.08345,0,0,0-13.65479-.60959,77.02058,77.02058,0,0,0-12.06985.60959l-.36575,6.2178H452.926c-.97535-4.63287-1.21918-13.289-.85343-19.50683l2.56027-.36576,6.70548-56.56982a38.60706,38.60706,0,0,1,16.70273-.24384l6.2178,56.93558a14.93753,14.93753,0,0,1,2.31644.24384C486.94107,797.03946,486.69724,805.69562,485.72189,810.32849ZM464.874,789.84631c1.95069-.12191,4.02329-.12191,5.974-.12191l-1.95068-38.28217a5.4673,5.4673,0,0,0-1.3411-.12192Zm79.6098,13.65479a45.08221,45.08221,0,0,1-14.0205.24383L527.781,752.05182a5.46727,5.46727,0,0,0-1.34107-.12192l-2.926,51.815a33.59977,33.59977,0,0,1-11.58219-.12191l8.29044-69.73694a38.60692,38.60692,0,0,1,16.7027-.24384Zm62.78553-4.26712a72.37944,72.37944,0,0,1-8.65613,1.09726v6.2178a57.26134,57.26134,0,0,1-12.92334,0v-5.974a100.292,100.292,0,0,1-11.33832-.85342c-6.33972-20.6041-5.48627-46.81641,2.68219-64.25064a51.78215,51.78215,0,0,1,8.65613-.97534v-4.14521a45.89192,45.89192,0,0,1,12.92334,0v4.02329a82.43619,82.43619,0,0,1,11.21643.60959C616.04736,755.46552,615.31586,781.67783,607.26929,799.234Zm-21.57947-12.43561V748.39429c-.73145.12191-1.463.12191-2.19446.24383a128.29674,128.29674,0,0,0-.48767,38.03833A18.87513,18.87513,0,0,1,585.68982,786.79837Zm12.92334-.36575c.73144-.12192,1.463-.12192,2.19446-.24384a130.04658,130.04658,0,0,0,.36578-37.67258c-.85345,0-1.70685-.12191-2.56024-.12191Z" style="fill:#fff"/><path d="M471.57944,904.73085c-4.14521,1.58493-12.19178,1.58493-17.06848.36575-5.24247-16.09314-4.511-35.6,2.43835-46.93832a30.78108,30.78108,0,0,1-5.12054-5.36438c0-7.07123.48767-9.87534,2.19451-15.23972,5.4863-1.463,14.752-2.56027,20.6041-3.16986l.60959-3.04794h2.68219c-.12192,5.12054-.24384,12.43561-.97534,17.1904-5.73014.24383-10.24109.24383-15.72739.73151l-.24383.97534a56.47578,56.47578,0,0,1,15.36163,4.75479C479.38217,871.20348,478.77258,890.95415,471.57944,904.73085Zm-6.09589-41.9397-1.95068-.36575c-2.0726,10.363-2.43836,18.28766-.97534,28.04108a8.41792,8.41792,0,0,0,3.04794-.48767A78.35707,78.35707,0,0,0,465.48355,862.79115Zm65.71311,12.43561c.85339,3.4137,1.82873,15.23972-1.70691,27.43149-5.36438,3.65753-15.1178,3.16986-22.43283,1.58493-4.87671-17.31232-2.68219-51.5712,3.29177-67.66434,6.58356-2.31643,16.7027-3.04794,21.70136-2.19452,2.43835,14.874,1.95068,29.50409-5.36438,38.64792A15.41078,15.41078,0,0,1,531.19666,875.22676ZM517.90759,849.3802a153.55591,153.55591,0,0,0-1.21917,18.5315h3.04791a54.62744,54.62744,0,0,0,.48767-19.01917A5.28326,5.28326,0,0,0,517.90759,849.3802Zm-.24383,44.25614a11.77993,11.77993,0,0,0,2.926-.12192,41.49172,41.49172,0,0,0-.97534-16.82465,23.67457,23.67457,0,0,1-2.926.24384A132.61974,132.61974,0,0,0,517.66376,893.63634Zm61.5672-11.21643h2.68219c.24383,5.73013.60956,15.60547-2.68219,22.67669-3.53565.60959-5.36438,1.21918-18.04383,0-2.68219-10.11917-3.29174-24.74929,4.389-32.91778,3.77942-4.02329,5.36438-5.73014,5.48633-10.24109a15.12953,15.12953,0,0,0-7.92468.73151l-1.09729,5.60821H559.3584c0-5.4863-.12195-16.337,2.68213-23.28628,5.73016-1.463,14.2644-2.19452,18.53149-.60959,3.16992,11.33834,3.53565,25.115-4.26709,33.64929-3.29175,3.65753-5.48633,5.73013-5.852,10.72876a16.83729,16.83729,0,0,0,7.437.24383Zm71.3197-12.92328,6.33972,35.6a65.04856,65.04856,0,0,1-13.77673,0l-2.926-25.84655-1.82873.36575.48767,12.43561V905.0966a55.12729,55.12729,0,0,1-12.67945,0V892.05141l.48768-12.43561-1.8288-.36575L621.9,905.0966a60.53705,60.53705,0,0,1-13.289,0l6.09583-33.89312-6.8274-27.06574a41.68486,41.68486,0,0,1,12.31373,0l6.09588,26.57807,1.21918.36575-1.34107-13.89862v-20.6041c4.26709-1.82876,8.4123-1.82876,12.67945-1.21918v21.82328l-1.34113,13.89862,1.21918-.36575,6.09589-26.57807a40.05919,40.05919,0,0,1,12.06988,0Zm55.4715,42.30545c-10.11921,3.29178-18.04383,3.29178-22.189,2.31644-.97534-6.33973-.60962-12.3137.36572-19.62876l2.68225.36575.24378,4.7548a20.27106,20.27106,0,0,0,6.7055-.85343,45.33518,45.33518,0,0,0,.85346-16.45889,27.86267,27.86267,0,0,1-8.41236-.12192c-.60961-4.75479-.36572-8.2904.97535-10.363a39.52165,39.52165,0,0,1,5.60821.12192,33.36023,33.36023,0,0,0,1.09723-13.89862,42.95968,42.95968,0,0,0-7.19311.24384l-.24384,3.16986h-2.68219c-.97534-4.389-1.21918-11.7041-.85339-17.67807,5.60815-1.70685,16.82458-.97534,23.04242,1.21918,2.43835,10.72875,2.07257,22.189-4.51093,30.60134a19.75906,19.75906,0,0,1,4.02325,1.58493C707.97284,882.298,708.09473,904.3651,706.02216,911.80208Zm47.05835-66.44516c4.26715-1.82877,8.41229-1.82877,12.67944-1.21918V905.0966a46.02939,46.02939,0,0,1-11.58222,0l-.24377-11.09451-.85345.12192a77.38273,77.38273,0,0,1-3.53559,10.97259,28.19866,28.19866,0,0,1-11.948,0A93.92477,93.92477,0,0,1,736.012,886.687V845.35692c4.26715-1.82877,8.4123-1.82877,12.67945-1.21918v43.037a2.84875,2.84875,0,0,0,4.389-1.463Zm58.76257,0c4.26715-1.82877,8.41229-1.82877,12.67944-1.21918V905.0966a46.02931,46.02931,0,0,1-11.58221,0l-.24378-11.09451-.85345.12192a77.38276,77.38276,0,0,1-3.53558,10.97259,28.19866,28.19866,0,0,1-11.948,0,93.924,93.924,0,0,1-1.5849-18.40957V845.35692c4.26715-1.82877,8.41229-1.82877,12.67944-1.21918v43.037a2.84875,2.84875,0,0,0,4.389-1.463Zm-10.72876-4.511c-1.34113-3.90136-1.09723-6.70547-.73151-10.363a42.9252,42.9252,0,0,1,7.92469,0,50.849,50.849,0,0,1,0,6.09588,11.74956,11.74956,0,0,0,2.926,0,34.37561,34.37561,0,0,1,.12189-6.09588,41.68244,41.68244,0,0,1,7.80273,0c.48767,3.65753.73151,6.46164-.60956,10.363A52.29281,52.29281,0,0,1,801.11432,840.846Zm69.49133,4.511c4.26715-1.82877,8.41229-1.82877,12.67945-1.21918V905.0966a46.02939,46.02939,0,0,1-11.58222,0l-.24377-11.09451-.85346.12192a77.38276,77.38276,0,0,1-3.53558,10.97259,28.19866,28.19866,0,0,1-11.948,0,93.924,93.924,0,0,1-1.5849-18.40957V845.35692c4.26715-1.82877,8.41229-1.82877,12.67944-1.21918v43.037a2.84875,2.84875,0,0,0,4.389-1.463Zm1.463-2.68219c-4.63287-1.58493-9.14386-3.16986-13.16711-4.87671,1.09723-4.02329,2.926-6.09589,5.97394-7.5589a128.39026,128.39026,0,0,0,10.24109,9.02191A4.5637,4.5637,0,0,1,872.06866,842.67473ZM936.92712,868.887l6.94934,36.20956a65.04856,65.04856,0,0,1-13.77673,0l-3.41369-26.7-1.95069.36575.36572,12.43561V905.0966a54.07538,54.07538,0,0,1-12.55749,0V836.21309c4.26709-1.82877,8.41235-1.82877,12.67944-1.21918v21.3356L923.882,870.22813l1.34106-.36575,6.58356-25.72464a40.05919,40.05919,0,0,1,12.06988,0Zm60.835,35.96573a40.531,40.531,0,0,1-13.28906.24383l-2.68213-41.57394a4.14783,4.14783,0,0,0-1.21923.12192l-2.19446,41.33011a25.06391,25.06391,0,0,1-10.85071-.12192l6.94934-60.715c4.87671-1.34109,11.46021-1.09726,16.33691,0Zm57.05628-42.30545V905.0966a55.1272,55.1272,0,0,1-12.67944,0V862.4254a2.88567,2.88567,0,0,0-4.87671,1.09726V905.0966a55.12729,55.12729,0,0,1-12.67945,0V845.35692c3.90137-1.82877,7.68079-1.82877,11.58216-1.21918L1036.043,855.598l1.09729-.48767a105.13089,105.13089,0,0,1,3.65747-10.9726,30.52124,30.52124,0,0,1,12.43567,0A93.925,93.925,0,0,1,1054.81836,862.54732Zm76.56226,0V905.0966a55.12729,55.12729,0,0,1-12.67945,0V862.4254a2.84094,2.84094,0,0,0-4.75488.85342V905.0966a55.1272,55.1272,0,0,1-12.67944,0V862.4254a3.0381,3.0381,0,0,0-4.75477.60959V905.0966a55.1272,55.1272,0,0,1-12.67944,0V845.35692c3.90137-1.82877,7.68079-1.82877,11.58215-1.21918L1095.293,855.598l.97534-.36576a107.63684,107.63684,0,0,1,3.65747-11.09451,30.52066,30.52066,0,0,1,12.43555,0,44.97883,44.97883,0,0,1,.36584,10.72876l1.21912-.36575a73.77107,73.77107,0,0,1,3.4137-10.363,30.52119,30.52119,0,0,1,12.43566,0A93.9242,93.9242,0,0,1,1131.38062,862.54732Zm60.59021,48.64517h-3.048l-.48755-6.2178c-2.68225.60958-6.33984.36575-10.11926.12191l-.24377-11.09451-.85352.12192a77.3829,77.3829,0,0,1-3.53552,10.97259,28.19866,28.19866,0,0,1-11.948,0,93.92393,93.92393,0,0,1-1.58484-18.40957V845.35692c4.26709-1.82877,8.41223-1.82877,12.67944-1.21918v43.037a2.84864,2.84864,0,0,0,4.38892-1.463V845.35692c4.26721-1.82877,8.41235-1.82877,12.67944-1.21918v28.28491c0,6.33972,0,12.80136-.48755,19.14109,1.09717,0,2.19446-.12192,3.41358-.24384C1193.19006,898.02538,1192.94617,906.19386,1191.97083,911.19249Zm62.17663-65.83557c4.26709-1.82877,8.41223-1.82877,12.67944-1.21918V905.0966a46.02979,46.02979,0,0,1-11.58227,0l-.24378-11.09451-.85339.12192a77.38262,77.38262,0,0,1-3.53564,10.97259,25.955,25.955,0,0,1-11.46033,0,68.56941,68.56941,0,0,1-1.09729-11.21643h-.73145a112.25964,112.25964,0,0,1-3.29174,11.21643,30.52089,30.52089,0,0,1-12.43567,0,93.92393,93.92393,0,0,1-1.58484-18.40957V845.35692c4.26709-1.82877,8.41223-1.82877,12.67944-1.21918v43.037a2.84864,2.84864,0,0,0,4.38892-1.463V845.35692c4.26721-1.82877,8.41235-1.82877,12.67944-1.21918v43.037a2.84887,2.84887,0,0,0,4.38916-1.463ZM1344.73,911.19249h-3.04785l-.48779-6.2178c-2.68213.60958-6.3396.36575-10.11914.12191l-.24378-11.09451-.85339.12192a77.38131,77.38131,0,0,1-3.53565,10.97259,25.95494,25.95494,0,0,1-11.46032,0,68.56831,68.56831,0,0,1-1.09729-11.21643h-.73145a112.25692,112.25692,0,0,1-3.29175,11.21643,30.52089,30.52089,0,0,1-12.43567,0,93.92469,93.92469,0,0,1-1.58484-18.40957V845.35692c4.26709-1.82877,8.41224-1.82877,12.67945-1.21918v43.037a2.84863,2.84863,0,0,0,4.38891-1.463V845.35692c4.26722-1.82877,8.41236-1.82877,12.67945-1.21918v43.037a2.84887,2.84887,0,0,0,4.38916-1.463V845.35692c4.26709-1.82877,8.41223-1.82877,12.67944-1.21918v28.28491c0,6.33972,0,12.80136-.48779,19.14109,1.09729,0,2.19458-.12192,3.41382-.24384C1345.94922,898.02538,1345.70532,906.19386,1344.73,911.19249Zm50.7157-7.5589c-5.852,1.95068-8.16846,2.31644-16.82459,1.70685a31.09019,31.09019,0,0,1-4.63293-.24384,97.837,97.837,0,0,1-2.5603-24.38354c0-10.48493.85339-25.96848,2.80407-35.35614,4.26722-1.70685,9.022-2.19452,12.07-1.21918-.48767,6.46164-1.21924,12.67944-1.95068,19.99451a55.17333,55.17333,0,0,1,13.41088.85342C1399.59082,874.49525,1398.73743,894.36784,1395.44568,903.63359ZM1383.132,876.68977a118.05023,118.05023,0,0,0,.85339,16.94657,18.00483,18.00483,0,0,0,2.5603-.12192,83.8297,83.8297,0,0,0,.48768-16.58081C1385.81421,876.81169,1384.47314,876.68977,1383.132,876.68977Zm70.22253,26.94382c-5.852,1.95068-8.16845,2.31644-16.8247,1.70685a31.0887,31.0887,0,0,1-4.63282-.24384,97.837,97.837,0,0,1-2.5603-24.38354c0-6.21781.2439-14.14246.97534-21.57944l-2.3164.36575-.36573,4.511h-2.68225a94.02861,94.02861,0,0,1-.85339-19.87259c3.65747-.97534,11.4602-1.463,20.11645,0-.48779,6.46164-1.21923,12.67944-1.95068,19.99451a55.17379,55.17379,0,0,1,13.41089.85342C1457.49963,874.49525,1456.64624,894.36784,1453.35449,903.63359Zm-12.31372-26.94382a118.04866,118.04866,0,0,0,.8534,16.94657,18.00581,18.00581,0,0,0,2.5603-.12192,83.8297,83.8297,0,0,0,.48767-16.58081C1443.7229,876.81169,1442.38184,876.68977,1441.04077,876.68977Zm84.97437-7.19314c0,10.48492-1.21912,24.01779-5.97388,35.23422-4.14526,1.58493-11.948,1.58493-16.82471.36575a89.08545,89.08545,0,0,1-3.65747-22.79861c-.97534,0-2.07263-.12192-3.16992-.12192V905.0966a54.07538,54.07538,0,0,1-12.55749,0V836.21309c4.26708-1.82877,8.41235-1.82877,12.67944-1.21918V868.887c1.09729,0,2.3164.12192,3.41369.12192a109.01991,109.01991,0,0,1,4.389-24.26163c4.14514-1.21918,14.8739-1.21918,18.04383-.36575A83.95631,83.95631,0,0,1,1526.01514,869.49663ZM1514.433,860.109a4.61931,4.61931,0,0,0-3.048.60959,115.64769,115.64769,0,0,0-.12183,29.74793,9.507,9.507,0,0,0,2.68213-.36576A117.81042,117.81042,0,0,0,1514.433,860.109Z" style="fill:#fff"/></g></svg>